%TF.GenerationSoftware,KiCad,Pcbnew,9.0.2*%
%TF.CreationDate,2025-06-08T16:57:51+07:00*%
%TF.ProjectId,WiFi_Frauder_DEV,57694669-5f46-4726-9175-6465725f4445,0*%
%TF.SameCoordinates,Original*%
%TF.FileFunction,Copper,L2,Bot*%
%TF.FilePolarity,Positive*%
%FSLAX46Y46*%
G04 Gerber Fmt 4.6, Leading zero omitted, Abs format (unit mm)*
G04 Created by KiCad (PCBNEW 9.0.2) date 2025-06-08 16:57:51*
%MOMM*%
%LPD*%
G01*
G04 APERTURE LIST*
%TA.AperFunction,ComponentPad*%
%ADD10R,1.508000X1.508000*%
%TD*%
%TA.AperFunction,ComponentPad*%
%ADD11C,1.508000*%
%TD*%
%TA.AperFunction,ComponentPad*%
%ADD12C,3.000000*%
%TD*%
%TA.AperFunction,ComponentPad*%
%ADD13C,2.000000*%
%TD*%
%TA.AperFunction,ComponentPad*%
%ADD14R,1.200000X2.000000*%
%TD*%
%TA.AperFunction,ComponentPad*%
%ADD15O,1.200000X2.000000*%
%TD*%
%TA.AperFunction,ViaPad*%
%ADD16C,0.700000*%
%TD*%
%TA.AperFunction,Conductor*%
%ADD17C,0.400000*%
%TD*%
G04 APERTURE END LIST*
D10*
%TO.P,U2,1,GND*%
%TO.N,GND*%
X132690000Y-69700000D03*
D11*
%TO.P,U2,2,VCC_IN*%
%TO.N,+5V*%
X135230000Y-69700000D03*
%TO.P,U2,3,SCL*%
%TO.N,SCL*%
X137770000Y-69700000D03*
%TO.P,U2,4,SDA*%
%TO.N,SDA*%
X140310000Y-69700000D03*
D12*
%TO.P,U2,S1*%
%TO.N,N/C*%
X125500000Y-70200000D03*
%TO.P,U2,S2*%
X147500000Y-70200000D03*
%TO.P,U2,S3*%
X147500000Y-92200000D03*
%TO.P,U2,S4*%
X125500000Y-92200000D03*
%TD*%
D13*
%TO.P,SW2,1,1*%
%TO.N,Net-(U1-GPIO22)*%
X142750000Y-102850000D03*
X149250000Y-102850000D03*
%TO.P,SW2,2,2*%
%TO.N,+5V*%
X142750000Y-107350000D03*
X149250000Y-107350000D03*
%TD*%
%TO.P,SW3,1,1*%
%TO.N,Net-(U1-GPIO21)*%
X133650000Y-114850000D03*
X140150000Y-114850000D03*
%TO.P,SW3,2,2*%
%TO.N,+5V*%
X133650000Y-119350000D03*
X140150000Y-119350000D03*
%TD*%
D14*
%TO.P,U1,1,3V3*%
%TO.N,unconnected-(U1-3V3-Pad1)*%
X160240000Y-94700000D03*
D15*
%TO.P,U1,2,CHIP_PU*%
%TO.N,unconnected-(U1-CHIP_PU-Pad2)*%
X162780000Y-94700000D03*
%TO.P,U1,3,SENSOR_VP/GPIO36/ADC1_CH0*%
%TO.N,unconnected-(U1-SENSOR_VP{slash}GPIO36{slash}ADC1_CH0-Pad3)*%
X165320000Y-94700000D03*
%TO.P,U1,4,SENSOR_VN/GPIO39/ADC1_CH3*%
%TO.N,unconnected-(U1-SENSOR_VN{slash}GPIO39{slash}ADC1_CH3-Pad4)*%
X167860000Y-94700000D03*
%TO.P,U1,5,VDET_1/GPIO34/ADC1_CH6*%
%TO.N,unconnected-(U1-VDET_1{slash}GPIO34{slash}ADC1_CH6-Pad5)*%
X170400000Y-94700000D03*
%TO.P,U1,6,VDET_2/GPIO35/ADC1_CH7*%
%TO.N,unconnected-(U1-VDET_2{slash}GPIO35{slash}ADC1_CH7-Pad6)*%
X172940000Y-94700000D03*
%TO.P,U1,7,32K_XP/GPIO32/ADC1_CH4*%
%TO.N,unconnected-(U1-32K_XP{slash}GPIO32{slash}ADC1_CH4-Pad7)*%
X175480000Y-94700000D03*
%TO.P,U1,8,32K_XN/GPIO33/ADC1_CH5*%
%TO.N,unconnected-(U1-32K_XN{slash}GPIO33{slash}ADC1_CH5-Pad8)*%
X178020000Y-94700000D03*
%TO.P,U1,9,DAC_1/ADC2_CH8/GPIO25*%
%TO.N,unconnected-(U1-DAC_1{slash}ADC2_CH8{slash}GPIO25-Pad9)*%
X180560000Y-94700000D03*
%TO.P,U1,10,DAC_2/ADC2_CH9/GPIO26*%
%TO.N,unconnected-(U1-DAC_2{slash}ADC2_CH9{slash}GPIO26-Pad10)*%
X183100000Y-94700000D03*
%TO.P,U1,11,ADC2_CH7/GPIO27*%
%TO.N,unconnected-(U1-ADC2_CH7{slash}GPIO27-Pad11)*%
X185640000Y-94700000D03*
%TO.P,U1,12,MTMS/GPIO14/ADC2_CH6*%
%TO.N,unconnected-(U1-MTMS{slash}GPIO14{slash}ADC2_CH6-Pad12)*%
X188180000Y-94700000D03*
%TO.P,U1,13,MTDI/GPIO12/ADC2_CH5*%
%TO.N,unconnected-(U1-MTDI{slash}GPIO12{slash}ADC2_CH5-Pad13)*%
X190720000Y-94700000D03*
%TO.P,U1,14,GND*%
%TO.N,GND*%
X193260000Y-94700000D03*
%TO.P,U1,15,MTCK/GPIO13/ADC2_CH4*%
%TO.N,unconnected-(U1-MTCK{slash}GPIO13{slash}ADC2_CH4-Pad15)*%
X195800000Y-94700000D03*
%TO.P,U1,16,SD_DATA2/GPIO9*%
%TO.N,unconnected-(U1-SD_DATA2{slash}GPIO9-Pad16)*%
X198340000Y-94700000D03*
%TO.P,U1,17,SD_DATA3/GPIO10*%
%TO.N,unconnected-(U1-SD_DATA3{slash}GPIO10-Pad17)*%
X200880000Y-94700000D03*
%TO.P,U1,18,CMD*%
%TO.N,unconnected-(U1-CMD-Pad18)*%
X203420000Y-94700000D03*
%TO.P,U1,19,5V*%
%TO.N,+5V*%
X205960000Y-94700000D03*
%TO.P,U1,20,SD_CLK/GPIO6*%
%TO.N,SCL*%
X205957280Y-69303680D03*
%TO.P,U1,21,SD_DATA0/GPIO7*%
%TO.N,SDA*%
X203417280Y-69303680D03*
%TO.P,U1,22,SD_DATA1/GPIO8*%
%TO.N,unconnected-(U1-SD_DATA1{slash}GPIO8-Pad22)*%
X200880000Y-69300000D03*
%TO.P,U1,23,MTDO/GPIO15/ADC2_CH3*%
%TO.N,unconnected-(U1-MTDO{slash}GPIO15{slash}ADC2_CH3-Pad23)*%
X198340000Y-69300000D03*
%TO.P,U1,24,ADC2_CH2/GPIO2*%
%TO.N,unconnected-(U1-ADC2_CH2{slash}GPIO2-Pad24)*%
X195800000Y-69300000D03*
%TO.P,U1,25,GPIO0/BOOT/ADC2_CH1*%
%TO.N,unconnected-(U1-GPIO0{slash}BOOT{slash}ADC2_CH1-Pad25)*%
X193260000Y-69300000D03*
%TO.P,U1,26,ADC2_CH0/GPIO4*%
%TO.N,unconnected-(U1-ADC2_CH0{slash}GPIO4-Pad26)*%
X190720000Y-69300000D03*
%TO.P,U1,27,GPIO16*%
%TO.N,unconnected-(U1-GPIO16-Pad27)*%
X188180000Y-69300000D03*
%TO.P,U1,28,GPIO17*%
%TO.N,unconnected-(U1-GPIO17-Pad28)*%
X185640000Y-69300000D03*
%TO.P,U1,29,GPIO5*%
%TO.N,unconnected-(U1-GPIO5-Pad29)*%
X183100000Y-69300000D03*
%TO.P,U1,30,GPIO18*%
%TO.N,unconnected-(U1-GPIO18-Pad30)*%
X180560000Y-69300000D03*
%TO.P,U1,31,GPIO19*%
%TO.N,unconnected-(U1-GPIO19-Pad31)*%
X178020000Y-69300000D03*
%TO.P,U1,32,GND*%
%TO.N,GND*%
X175480000Y-69300000D03*
%TO.P,U1,33,GPIO21*%
%TO.N,Net-(U1-GPIO21)*%
X172940000Y-69300000D03*
%TO.P,U1,34,U0RXD/GPIO3*%
%TO.N,unconnected-(U1-U0RXD{slash}GPIO3-Pad34)*%
X170400000Y-69300000D03*
%TO.P,U1,35,U0TXD/GPIO1*%
%TO.N,unconnected-(U1-U0TXD{slash}GPIO1-Pad35)*%
X167860000Y-69300000D03*
%TO.P,U1,36,GPIO22*%
%TO.N,Net-(U1-GPIO22)*%
X165320000Y-69300000D03*
%TO.P,U1,37,GPIO23*%
%TO.N,Net-(U1-GPIO23)*%
X162780000Y-69300000D03*
%TO.P,U1,38,GND*%
%TO.N,GND*%
X160240000Y-69300000D03*
%TD*%
D13*
%TO.P,SW1,1,1*%
%TO.N,Net-(U1-GPIO23)*%
X124150000Y-102950000D03*
X130650000Y-102950000D03*
%TO.P,SW1,2,2*%
%TO.N,+5V*%
X124150000Y-107450000D03*
X130650000Y-107450000D03*
%TD*%
D16*
%TO.N,GND*%
X155700000Y-98400000D03*
%TO.N,Net-(U1-GPIO21)*%
X151900000Y-118800000D03*
%TO.N,+5V*%
X209800000Y-93900000D03*
%TD*%
D17*
%TO.N,GND*%
X173100000Y-66920000D02*
X175480000Y-69300000D01*
X155700000Y-89080000D02*
X155700000Y-98400000D01*
X162640000Y-66900000D02*
X173100000Y-66900000D01*
X175480000Y-69300000D02*
X155700000Y-89080000D01*
X175480000Y-69300000D02*
X193260000Y-87080000D01*
X160240000Y-69300000D02*
X162640000Y-66900000D01*
X193260000Y-87080000D02*
X193260000Y-94700000D01*
X173100000Y-66900000D02*
X173100000Y-66920000D01*
%TO.N,Net-(U1-GPIO21)*%
X151900000Y-118800000D02*
X151900000Y-90400000D01*
X151900000Y-90400000D02*
X172940000Y-69360000D01*
X172940000Y-69360000D02*
X172940000Y-69300000D01*
%TO.N,+5V*%
X209900000Y-93800000D02*
X209800000Y-93900000D01*
X208100000Y-64100000D02*
X209900000Y-65900000D01*
X135230000Y-69700000D02*
X140830000Y-64100000D01*
X209900000Y-65900000D02*
X209900000Y-93800000D01*
X140830000Y-64100000D02*
X208100000Y-64100000D01*
%TO.N,SDA*%
X140310000Y-69700000D02*
X144110000Y-65900000D01*
X144110000Y-65900000D02*
X200013600Y-65900000D01*
X200013600Y-65900000D02*
X203417280Y-69303680D01*
%TO.N,SCL*%
X137770000Y-69700000D02*
X142470000Y-65000000D01*
X201653600Y-65000000D02*
X205957280Y-69303680D01*
X142470000Y-65000000D02*
X201653600Y-65000000D01*
%TD*%
M02*
