%TF.GenerationSoftware,KiCad,Pcbnew,9.0.2*%
%TF.CreationDate,2025-06-18T14:23:29+07:00*%
%TF.ProjectId,WiFi_Frauder_DEV,57694669-5f46-4726-9175-6465725f4445,3*%
%TF.SameCoordinates,Original*%
%TF.FileFunction,Copper,L2,Bot*%
%TF.FilePolarity,Positive*%
%FSLAX46Y46*%
G04 Gerber Fmt 4.6, Leading zero omitted, Abs format (unit mm)*
G04 Created by KiCad (PCBNEW 9.0.2) date 2025-06-18 14:23:29*
%MOMM*%
%LPD*%
G01*
G04 APERTURE LIST*
%TA.AperFunction,ComponentPad*%
%ADD10C,2.000000*%
%TD*%
%TA.AperFunction,ComponentPad*%
%ADD11C,1.600000*%
%TD*%
%TA.AperFunction,ComponentPad*%
%ADD12R,1.700000X1.700000*%
%TD*%
%TA.AperFunction,ComponentPad*%
%ADD13C,1.700000*%
%TD*%
%TA.AperFunction,ComponentPad*%
%ADD14R,1.508000X1.508000*%
%TD*%
%TA.AperFunction,ComponentPad*%
%ADD15C,1.508000*%
%TD*%
%TA.AperFunction,ComponentPad*%
%ADD16C,3.000000*%
%TD*%
%TA.AperFunction,ComponentPad*%
%ADD17R,1.200000X2.000000*%
%TD*%
%TA.AperFunction,ComponentPad*%
%ADD18O,1.200000X2.000000*%
%TD*%
%TA.AperFunction,ViaPad*%
%ADD19C,0.600000*%
%TD*%
%TA.AperFunction,Conductor*%
%ADD20C,0.200000*%
%TD*%
G04 APERTURE END LIST*
D10*
%TO.P,SW2,1,1*%
%TO.N,/BTN_UP_NET*%
X153700000Y-97820000D03*
X160200000Y-97820000D03*
%TO.P,SW2,2,2*%
%TO.N,5V*%
X153700000Y-102320000D03*
X160200000Y-102320000D03*
%TD*%
D11*
%TO.P,R2,1*%
%TO.N,GND*%
X166670000Y-99770000D03*
%TO.P,R2,2*%
%TO.N,/BTN_UP_NET*%
X176830000Y-99770000D03*
%TD*%
D12*
%TO.P,J1,1,Pin_1*%
%TO.N,3V3*%
X128270000Y-86360000D03*
D13*
%TO.P,J1,2,Pin_2*%
%TO.N,/CHIP_PU*%
X130810000Y-86360000D03*
%TO.P,J1,3,Pin_3*%
%TO.N,/GPIO36*%
X133350000Y-86360000D03*
%TO.P,J1,4,Pin_4*%
%TO.N,/GPIO39*%
X135890000Y-86360000D03*
%TO.P,J1,5,Pin_5*%
%TO.N,/GPIO34*%
X138430000Y-86360000D03*
%TO.P,J1,6,Pin_6*%
%TO.N,/GPIO35*%
X140970000Y-86360000D03*
%TO.P,J1,7,Pin_7*%
%TO.N,/GPIO32*%
X143510000Y-86360000D03*
%TO.P,J1,8,Pin_8*%
%TO.N,/GPIO33*%
X146050000Y-86360000D03*
%TO.P,J1,9,Pin_9*%
%TO.N,/GPIO25*%
X148590000Y-86360000D03*
%TO.P,J1,10,Pin_10*%
%TO.N,/GPIO26*%
X151130000Y-86360000D03*
%TO.P,J1,11,Pin_11*%
%TO.N,/GPIO27*%
X153670000Y-86360000D03*
%TO.P,J1,12,Pin_12*%
%TO.N,/GPIO14*%
X156210000Y-86360000D03*
%TO.P,J1,13,Pin_13*%
%TO.N,/GPIO12*%
X158750000Y-86360000D03*
%TO.P,J1,14,Pin_14*%
%TO.N,GND*%
X161290000Y-86360000D03*
%TO.P,J1,15,Pin_15*%
%TO.N,/GPIO13*%
X163830000Y-86360000D03*
%TO.P,J1,16,Pin_16*%
%TO.N,/GPIO9*%
X166370000Y-86360000D03*
%TO.P,J1,17,Pin_17*%
%TO.N,/GPIO10*%
X168910000Y-86360000D03*
%TO.P,J1,18,Pin_18*%
%TO.N,/CMD*%
X171450000Y-86360000D03*
%TO.P,J1,19,Pin_19*%
%TO.N,5V*%
X173990000Y-86360000D03*
%TD*%
D11*
%TO.P,R3,1*%
%TO.N,GND*%
X166670000Y-131470000D03*
%TO.P,R3,2*%
%TO.N,/BTN_ENTER_NET*%
X176830000Y-131470000D03*
%TD*%
D14*
%TO.P,U2,1,GND*%
%TO.N,GND*%
X130240000Y-97682500D03*
D15*
%TO.P,U2,2,VCC_IN*%
%TO.N,5V*%
X132780000Y-97682500D03*
%TO.P,U2,3,SCL*%
%TO.N,/OLED_SCL_NET*%
X135320000Y-97682500D03*
%TO.P,U2,4,SDA*%
%TO.N,/OLED_SDA_NET*%
X137860000Y-97682500D03*
D16*
%TO.P,U2,S1*%
%TO.N,N/C*%
X123050000Y-98182500D03*
%TO.P,U2,S2*%
X145050000Y-98182500D03*
%TO.P,U2,S3*%
X145050000Y-120182500D03*
%TO.P,U2,S4*%
X123050000Y-120182500D03*
%TD*%
D10*
%TO.P,SW1,1,1*%
%TO.N,/BTN_DOWN_NET*%
X153700000Y-113920000D03*
X160200000Y-113920000D03*
%TO.P,SW1,2,2*%
%TO.N,5V*%
X153700000Y-118420000D03*
X160200000Y-118420000D03*
%TD*%
%TO.P,SW3,1,1*%
%TO.N,/BTN_ENTER_NET*%
X153700000Y-129120000D03*
X160200000Y-129120000D03*
%TO.P,SW3,2,2*%
%TO.N,5V*%
X153700000Y-133620000D03*
X160200000Y-133620000D03*
%TD*%
D17*
%TO.P,U1,1,3V3*%
%TO.N,3V3*%
X128005310Y-77100000D03*
D18*
%TO.P,U1,2,CHIP_PU*%
%TO.N,/CHIP_PU*%
X130545310Y-77100000D03*
%TO.P,U1,3,SENSOR_VP/GPIO36/ADC1_CH0*%
%TO.N,/GPIO36*%
X133085310Y-77100000D03*
%TO.P,U1,4,SENSOR_VN/GPIO39/ADC1_CH3*%
%TO.N,/GPIO39*%
X135625310Y-77100000D03*
%TO.P,U1,5,VDET_1/GPIO34/ADC1_CH6*%
%TO.N,/GPIO34*%
X138165310Y-77100000D03*
%TO.P,U1,6,VDET_2/GPIO35/ADC1_CH7*%
%TO.N,/GPIO35*%
X140705310Y-77100000D03*
%TO.P,U1,7,32K_XP/GPIO32/ADC1_CH4*%
%TO.N,/GPIO32*%
X143245310Y-77100000D03*
%TO.P,U1,8,32K_XN/GPIO33/ADC1_CH5*%
%TO.N,/GPIO33*%
X145785310Y-77100000D03*
%TO.P,U1,9,DAC_1/ADC2_CH8/GPIO25*%
%TO.N,/GPIO25*%
X148325310Y-77100000D03*
%TO.P,U1,10,DAC_2/ADC2_CH9/GPIO26*%
%TO.N,/GPIO26*%
X150865310Y-77100000D03*
%TO.P,U1,11,ADC2_CH7/GPIO27*%
%TO.N,/GPIO27*%
X153405310Y-77100000D03*
%TO.P,U1,12,MTMS/GPIO14/ADC2_CH6*%
%TO.N,/GPIO14*%
X155945310Y-77100000D03*
%TO.P,U1,13,MTDI/GPIO12/ADC2_CH5*%
%TO.N,/GPIO12*%
X158485310Y-77100000D03*
%TO.P,U1,14,GND*%
%TO.N,GND*%
X161025310Y-77100000D03*
%TO.P,U1,15,MTCK/GPIO13/ADC2_CH4*%
%TO.N,/GPIO13*%
X163565310Y-77100000D03*
%TO.P,U1,16,SD_DATA2/GPIO9*%
%TO.N,/GPIO9*%
X166105310Y-77100000D03*
%TO.P,U1,17,SD_DATA3/GPIO10*%
%TO.N,/GPIO10*%
X168645310Y-77100000D03*
%TO.P,U1,18,CMD*%
%TO.N,/CMD*%
X171185310Y-77100000D03*
%TO.P,U1,19,5V*%
%TO.N,5V*%
X173725310Y-77100000D03*
%TO.P,U1,20,SD_CLK/GPIO6*%
%TO.N,/GPIO6*%
X173722590Y-51703680D03*
%TO.P,U1,21,SD_DATA0/GPIO7*%
%TO.N,/GPIO7*%
X171182590Y-51703680D03*
%TO.P,U1,22,SD_DATA1/GPIO8*%
%TO.N,/GPIO8*%
X168645310Y-51700000D03*
%TO.P,U1,23,MTDO/GPIO15/ADC2_CH3*%
%TO.N,/GPIO15*%
X166105310Y-51700000D03*
%TO.P,U1,24,ADC2_CH2/GPIO2*%
%TO.N,/GPIO2*%
X163565310Y-51700000D03*
%TO.P,U1,25,GPIO0/BOOT/ADC2_CH1*%
%TO.N,/GPIO0*%
X161025310Y-51700000D03*
%TO.P,U1,26,ADC2_CH0/GPIO4*%
%TO.N,/GPIO4*%
X158485310Y-51700000D03*
%TO.P,U1,27,GPIO16*%
%TO.N,/OLED_SDA_NET*%
X155945310Y-51700000D03*
%TO.P,U1,28,GPIO17*%
%TO.N,/OLED_SCL_NET*%
X153405310Y-51700000D03*
%TO.P,U1,29,GPIO5*%
%TO.N,/GPIO5*%
X150865310Y-51700000D03*
%TO.P,U1,30,GPIO18*%
%TO.N,/GPIO18*%
X148325310Y-51700000D03*
%TO.P,U1,31,GPIO19*%
%TO.N,/GPIO19*%
X145785310Y-51700000D03*
%TO.P,U1,32,GND*%
%TO.N,GND*%
X143245310Y-51700000D03*
%TO.P,U1,33,GPIO21*%
%TO.N,/BTN_ENTER_NET*%
X140705310Y-51700000D03*
%TO.P,U1,34,U0RXD/GPIO3*%
%TO.N,/GPIO3*%
X138165310Y-51700000D03*
%TO.P,U1,35,U0TXD/GPIO1*%
%TO.N,/GPIO1*%
X135625310Y-51700000D03*
%TO.P,U1,36,GPIO22*%
%TO.N,/BTN_UP_NET*%
X133085310Y-51700000D03*
%TO.P,U1,37,GPIO23*%
%TO.N,/BTN_DOWN_NET*%
X130545310Y-51700000D03*
%TO.P,U1,38,GND*%
%TO.N,GND*%
X128005310Y-51700000D03*
%TD*%
D11*
%TO.P,R1,1*%
%TO.N,GND*%
X166670000Y-115620000D03*
%TO.P,R1,2*%
%TO.N,/BTN_DOWN_NET*%
X176830000Y-115620000D03*
%TD*%
D12*
%TO.P,J2,1,Pin_1*%
%TO.N,/GPIO6*%
X173990000Y-41910000D03*
D13*
%TO.P,J2,2,Pin_2*%
%TO.N,/GPIO7*%
X171450000Y-41910000D03*
%TO.P,J2,3,Pin_3*%
%TO.N,/GPIO8*%
X168910000Y-41910000D03*
%TO.P,J2,4,Pin_4*%
%TO.N,/GPIO15*%
X166370000Y-41910000D03*
%TO.P,J2,5,Pin_5*%
%TO.N,/GPIO2*%
X163830000Y-41910000D03*
%TO.P,J2,6,Pin_6*%
%TO.N,/GPIO0*%
X161290000Y-41910000D03*
%TO.P,J2,7,Pin_7*%
%TO.N,/GPIO4*%
X158750000Y-41910000D03*
%TO.P,J2,8,Pin_8*%
%TO.N,/OLED_SDA_NET*%
X156210000Y-41910000D03*
%TO.P,J2,9,Pin_9*%
%TO.N,/OLED_SCL_NET*%
X153670000Y-41910000D03*
%TO.P,J2,10,Pin_10*%
%TO.N,/GPIO5*%
X151130000Y-41910000D03*
%TO.P,J2,11,Pin_11*%
%TO.N,/GPIO18*%
X148590000Y-41910000D03*
%TO.P,J2,12,Pin_12*%
%TO.N,/GPIO19*%
X146050000Y-41910000D03*
%TO.P,J2,13,Pin_13*%
%TO.N,GND*%
X143510000Y-41910000D03*
%TO.P,J2,14,Pin_14*%
%TO.N,/BTN_ENTER_NET*%
X140970000Y-41910000D03*
%TO.P,J2,15,Pin_15*%
%TO.N,/GPIO3*%
X138430000Y-41910000D03*
%TO.P,J2,16,Pin_16*%
%TO.N,/GPIO1*%
X135890000Y-41910000D03*
%TO.P,J2,17,Pin_17*%
%TO.N,/BTN_UP_NET*%
X133350000Y-41910000D03*
%TO.P,J2,18,Pin_18*%
%TO.N,/BTN_DOWN_NET*%
X130810000Y-41910000D03*
%TO.P,J2,19,Pin_19*%
%TO.N,GND*%
X128270000Y-41910000D03*
%TD*%
D19*
%TO.N,GND*%
X161300000Y-91200000D03*
X143108750Y-47100000D03*
X127908750Y-47000000D03*
X128300000Y-35800000D03*
X166650000Y-125570000D03*
X166650000Y-94370000D03*
X130250000Y-91670000D03*
X143500000Y-37000000D03*
X166650000Y-109570000D03*
X161000000Y-81600000D03*
%TD*%
D20*
%TO.N,/BTN_DOWN_NET*%
X123600000Y-113920000D02*
X153700000Y-113920000D01*
X119850000Y-110170000D02*
X123600000Y-113920000D01*
X119850000Y-103770000D02*
X119850000Y-110170000D01*
X117508750Y-101428750D02*
X119850000Y-103770000D01*
X117508750Y-64736560D02*
X117508750Y-101428750D01*
X130545310Y-51700000D02*
X117508750Y-64736560D01*
%TO.N,/BTN_UP_NET*%
X119008750Y-101228750D02*
X120650000Y-102870000D01*
X148650000Y-102870000D02*
X153700000Y-97820000D01*
X120650000Y-102870000D02*
X148650000Y-102870000D01*
X119008750Y-65776560D02*
X119008750Y-101228750D01*
X133085310Y-51700000D02*
X119008750Y-65776560D01*
%TO.N,/BTN_ENTER_NET*%
X116408750Y-47800000D02*
X118308750Y-45900000D01*
X134905310Y-45900000D02*
X136200000Y-45900000D01*
X116408750Y-108788750D02*
X116408750Y-47800000D01*
X136200000Y-45900000D02*
X140705310Y-50405310D01*
X138550000Y-45900000D02*
X140970000Y-43480000D01*
X153700000Y-129120000D02*
X134534499Y-129120000D01*
X125730000Y-118110000D02*
X116408750Y-108788750D01*
X133593249Y-128178750D02*
X134534499Y-129120000D01*
X133593249Y-120150000D02*
X133593249Y-128178750D01*
X131553249Y-118110000D02*
X125730000Y-118110000D01*
X140705310Y-50405310D02*
X140705310Y-51700000D01*
X118308750Y-45900000D02*
X134905310Y-45900000D01*
X133593249Y-120150000D02*
X131553249Y-118110000D01*
X140970000Y-43480000D02*
X140970000Y-41910000D01*
X134905310Y-45900000D02*
X138550000Y-45900000D01*
%TO.N,/OLED_SDA_NET*%
X155945310Y-51700000D02*
X155945310Y-54873798D01*
X149309554Y-61509554D02*
X149300000Y-61500000D01*
X127250000Y-99270000D02*
X129050000Y-101070000D01*
X135750000Y-101070000D02*
X137860000Y-98960000D01*
X137860000Y-98960000D02*
X137860000Y-97682500D01*
X149300000Y-61500000D02*
X128408750Y-61500000D01*
X127250000Y-94370000D02*
X127250000Y-99270000D01*
X124808750Y-91928750D02*
X127250000Y-94370000D01*
X128408750Y-61500000D02*
X124808750Y-65100000D01*
X124808750Y-65100000D02*
X124808750Y-91928750D01*
X155945310Y-54873798D02*
X149309554Y-61509554D01*
X129050000Y-101070000D02*
X135750000Y-101070000D01*
%TO.N,/OLED_SCL_NET*%
X157400000Y-46900000D02*
X157400000Y-45640000D01*
X173100000Y-46900000D02*
X157400000Y-46900000D01*
X138632500Y-94370000D02*
X163850000Y-94370000D01*
X135320000Y-97682500D02*
X138632500Y-94370000D01*
X179070000Y-81061250D02*
X177508750Y-79500000D01*
X179070000Y-90170000D02*
X179070000Y-81061250D01*
X177508750Y-79500000D02*
X177508750Y-51308750D01*
X173170000Y-96070000D02*
X179070000Y-90170000D01*
X157400000Y-46900000D02*
X155300000Y-46900000D01*
X155300000Y-46900000D02*
X153405310Y-48794690D01*
X157400000Y-45640000D02*
X153670000Y-41910000D01*
X165550000Y-96070000D02*
X173170000Y-96070000D01*
X153405310Y-48794690D02*
X153405310Y-51700000D01*
X163850000Y-94370000D02*
X165550000Y-96070000D01*
X177508750Y-51308750D02*
X173100000Y-46900000D01*
%TO.N,5V*%
X176530000Y-88900000D02*
X172160000Y-93270000D01*
X172160000Y-93270000D02*
X137192500Y-93270000D01*
X173725310Y-77100000D02*
X176530000Y-79904690D01*
X137192500Y-93270000D02*
X132780000Y-97682500D01*
X176530000Y-79904690D02*
X176530000Y-88900000D01*
%TD*%
%TA.AperFunction,Conductor*%
%TO.N,GND*%
G36*
X182151289Y-34230185D02*
G01*
X182197044Y-34282989D01*
X182208250Y-34334500D01*
X182208250Y-146465500D01*
X182188565Y-146532539D01*
X182135761Y-146578294D01*
X182084250Y-146589500D01*
X115833250Y-146589500D01*
X115766211Y-146569815D01*
X115720456Y-146517011D01*
X115709250Y-146465500D01*
X115709250Y-133501902D01*
X152199500Y-133501902D01*
X152199500Y-133738097D01*
X152236446Y-133971368D01*
X152309433Y-134195996D01*
X152416657Y-134406433D01*
X152555483Y-134597510D01*
X152722490Y-134764517D01*
X152913567Y-134903343D01*
X153012991Y-134954002D01*
X153124003Y-135010566D01*
X153124005Y-135010566D01*
X153124008Y-135010568D01*
X153244412Y-135049689D01*
X153348631Y-135083553D01*
X153581903Y-135120500D01*
X153581908Y-135120500D01*
X153818097Y-135120500D01*
X154051368Y-135083553D01*
X154275992Y-135010568D01*
X154486433Y-134903343D01*
X154677510Y-134764517D01*
X154844517Y-134597510D01*
X154983343Y-134406433D01*
X155090568Y-134195992D01*
X155163553Y-133971368D01*
X155200500Y-133738097D01*
X155200500Y-133501902D01*
X158699500Y-133501902D01*
X158699500Y-133738097D01*
X158736446Y-133971368D01*
X158809433Y-134195996D01*
X158916657Y-134406433D01*
X159055483Y-134597510D01*
X159222490Y-134764517D01*
X159413567Y-134903343D01*
X159512991Y-134954002D01*
X159624003Y-135010566D01*
X159624005Y-135010566D01*
X159624008Y-135010568D01*
X159744412Y-135049689D01*
X159848631Y-135083553D01*
X160081903Y-135120500D01*
X160081908Y-135120500D01*
X160318097Y-135120500D01*
X160551368Y-135083553D01*
X160775992Y-135010568D01*
X160986433Y-134903343D01*
X161177510Y-134764517D01*
X161344517Y-134597510D01*
X161483343Y-134406433D01*
X161590568Y-134195992D01*
X161663553Y-133971368D01*
X161700500Y-133738097D01*
X161700500Y-133501902D01*
X161663553Y-133268631D01*
X161590566Y-133044003D01*
X161483342Y-132833566D01*
X161344517Y-132642490D01*
X161177510Y-132475483D01*
X160986433Y-132336657D01*
X160948272Y-132317213D01*
X160775996Y-132229433D01*
X160551368Y-132156446D01*
X160318097Y-132119500D01*
X160318092Y-132119500D01*
X160081908Y-132119500D01*
X160081903Y-132119500D01*
X159848631Y-132156446D01*
X159624003Y-132229433D01*
X159413566Y-132336657D01*
X159304550Y-132415862D01*
X159222490Y-132475483D01*
X159222488Y-132475485D01*
X159222487Y-132475485D01*
X159055485Y-132642487D01*
X159055485Y-132642488D01*
X159055483Y-132642490D01*
X158995862Y-132724550D01*
X158916657Y-132833566D01*
X158809433Y-133044003D01*
X158736446Y-133268631D01*
X158699500Y-133501902D01*
X155200500Y-133501902D01*
X155163553Y-133268631D01*
X155090566Y-133044003D01*
X154983342Y-132833566D01*
X154844517Y-132642490D01*
X154677510Y-132475483D01*
X154486433Y-132336657D01*
X154448272Y-132317213D01*
X154275996Y-132229433D01*
X154051368Y-132156446D01*
X153818097Y-132119500D01*
X153818092Y-132119500D01*
X153581908Y-132119500D01*
X153581903Y-132119500D01*
X153348631Y-132156446D01*
X153124003Y-132229433D01*
X152913566Y-132336657D01*
X152804550Y-132415862D01*
X152722490Y-132475483D01*
X152722488Y-132475485D01*
X152722487Y-132475485D01*
X152555485Y-132642487D01*
X152555485Y-132642488D01*
X152555483Y-132642490D01*
X152495862Y-132724550D01*
X152416657Y-132833566D01*
X152309433Y-133044003D01*
X152236446Y-133268631D01*
X152199500Y-133501902D01*
X115709250Y-133501902D01*
X115709250Y-131367682D01*
X165370000Y-131367682D01*
X165370000Y-131572317D01*
X165402009Y-131774417D01*
X165465244Y-131969031D01*
X165558141Y-132151350D01*
X165558147Y-132151359D01*
X165590523Y-132195921D01*
X165590524Y-132195922D01*
X166270000Y-131516446D01*
X166270000Y-131522661D01*
X166297259Y-131624394D01*
X166349920Y-131715606D01*
X166424394Y-131790080D01*
X166515606Y-131842741D01*
X166617339Y-131870000D01*
X166623553Y-131870000D01*
X165944076Y-132549474D01*
X165988650Y-132581859D01*
X166170968Y-132674755D01*
X166365582Y-132737990D01*
X166567683Y-132770000D01*
X166772317Y-132770000D01*
X166974417Y-132737990D01*
X167169031Y-132674755D01*
X167351349Y-132581859D01*
X167395921Y-132549474D01*
X166716447Y-131870000D01*
X166722661Y-131870000D01*
X166824394Y-131842741D01*
X166915606Y-131790080D01*
X166990080Y-131715606D01*
X167042741Y-131624394D01*
X167070000Y-131522661D01*
X167070000Y-131516447D01*
X167749474Y-132195921D01*
X167781859Y-132151349D01*
X167874755Y-131969031D01*
X167937990Y-131774417D01*
X167970000Y-131572317D01*
X167970000Y-131367682D01*
X167969995Y-131367648D01*
X175529500Y-131367648D01*
X175529500Y-131572351D01*
X175561522Y-131774534D01*
X175624781Y-131969223D01*
X175688691Y-132094653D01*
X175717585Y-132151359D01*
X175717715Y-132151613D01*
X175838028Y-132317213D01*
X175982786Y-132461971D01*
X176103226Y-132549474D01*
X176148390Y-132582287D01*
X176264607Y-132641503D01*
X176330776Y-132675218D01*
X176330778Y-132675218D01*
X176330781Y-132675220D01*
X176435137Y-132709127D01*
X176525465Y-132738477D01*
X176626557Y-132754488D01*
X176727648Y-132770500D01*
X176727649Y-132770500D01*
X176932351Y-132770500D01*
X176932352Y-132770500D01*
X177134534Y-132738477D01*
X177329219Y-132675220D01*
X177511610Y-132582287D01*
X177658612Y-132475485D01*
X177677213Y-132461971D01*
X177677215Y-132461968D01*
X177677219Y-132461966D01*
X177821966Y-132317219D01*
X177821968Y-132317215D01*
X177821971Y-132317213D01*
X177885746Y-132229432D01*
X177942287Y-132151610D01*
X178035220Y-131969219D01*
X178098477Y-131774534D01*
X178130500Y-131572352D01*
X178130500Y-131367648D01*
X178122257Y-131315606D01*
X178098477Y-131165465D01*
X178067458Y-131070000D01*
X178035220Y-130970781D01*
X178035218Y-130970778D01*
X178035218Y-130970776D01*
X177942419Y-130788650D01*
X177942287Y-130788390D01*
X177910092Y-130744077D01*
X177821971Y-130622786D01*
X177677213Y-130478028D01*
X177511613Y-130357715D01*
X177511612Y-130357714D01*
X177511610Y-130357713D01*
X177454653Y-130328691D01*
X177329223Y-130264781D01*
X177134534Y-130201522D01*
X176959995Y-130173878D01*
X176932352Y-130169500D01*
X176727648Y-130169500D01*
X176703329Y-130173351D01*
X176525465Y-130201522D01*
X176330776Y-130264781D01*
X176148386Y-130357715D01*
X175982786Y-130478028D01*
X175838028Y-130622786D01*
X175717715Y-130788386D01*
X175624781Y-130970776D01*
X175561522Y-131165465D01*
X175529500Y-131367648D01*
X167969995Y-131367648D01*
X167937990Y-131165582D01*
X167874755Y-130970968D01*
X167781859Y-130788650D01*
X167749474Y-130744077D01*
X167749474Y-130744076D01*
X167070000Y-131423551D01*
X167070000Y-131417339D01*
X167042741Y-131315606D01*
X166990080Y-131224394D01*
X166915606Y-131149920D01*
X166824394Y-131097259D01*
X166722661Y-131070000D01*
X166716446Y-131070000D01*
X167395922Y-130390524D01*
X167395921Y-130390523D01*
X167351359Y-130358147D01*
X167351350Y-130358141D01*
X167169031Y-130265244D01*
X166974417Y-130202009D01*
X166772317Y-130170000D01*
X166567683Y-130170000D01*
X166365582Y-130202009D01*
X166170968Y-130265244D01*
X165988644Y-130358143D01*
X165944077Y-130390523D01*
X165944077Y-130390524D01*
X166623554Y-131070000D01*
X166617339Y-131070000D01*
X166515606Y-131097259D01*
X166424394Y-131149920D01*
X166349920Y-131224394D01*
X166297259Y-131315606D01*
X166270000Y-131417339D01*
X166270000Y-131423553D01*
X165590524Y-130744077D01*
X165590523Y-130744077D01*
X165558143Y-130788644D01*
X165465244Y-130970968D01*
X165402009Y-131165582D01*
X165370000Y-131367682D01*
X115709250Y-131367682D01*
X115709250Y-120051372D01*
X121049500Y-120051372D01*
X121049500Y-120313627D01*
X121067468Y-120450097D01*
X121083730Y-120573616D01*
X121151602Y-120826918D01*
X121151605Y-120826928D01*
X121251953Y-121069190D01*
X121251958Y-121069200D01*
X121383075Y-121296303D01*
X121542718Y-121504351D01*
X121542726Y-121504360D01*
X121728140Y-121689774D01*
X121728148Y-121689781D01*
X121936196Y-121849424D01*
X122163299Y-121980541D01*
X122163309Y-121980546D01*
X122405571Y-122080894D01*
X122405581Y-122080898D01*
X122658884Y-122148770D01*
X122918880Y-122183000D01*
X122918887Y-122183000D01*
X123181113Y-122183000D01*
X123181120Y-122183000D01*
X123441116Y-122148770D01*
X123694419Y-122080898D01*
X123936697Y-121980543D01*
X124163803Y-121849424D01*
X124371851Y-121689782D01*
X124371855Y-121689777D01*
X124371860Y-121689774D01*
X124557274Y-121504360D01*
X124557277Y-121504355D01*
X124557282Y-121504351D01*
X124716924Y-121296303D01*
X124848043Y-121069197D01*
X124948398Y-120826919D01*
X125016270Y-120573616D01*
X125050500Y-120313620D01*
X125050500Y-120051380D01*
X125016270Y-119791384D01*
X124948398Y-119538081D01*
X124948394Y-119538071D01*
X124848046Y-119295809D01*
X124848041Y-119295799D01*
X124716924Y-119068696D01*
X124557281Y-118860648D01*
X124557274Y-118860640D01*
X124371860Y-118675226D01*
X124371851Y-118675218D01*
X124163803Y-118515575D01*
X123936700Y-118384458D01*
X123936690Y-118384453D01*
X123694428Y-118284105D01*
X123694421Y-118284103D01*
X123694419Y-118284102D01*
X123441116Y-118216230D01*
X123383339Y-118208623D01*
X123181127Y-118182000D01*
X123181120Y-118182000D01*
X122918880Y-118182000D01*
X122918872Y-118182000D01*
X122687772Y-118212426D01*
X122658884Y-118216230D01*
X122405581Y-118284102D01*
X122405571Y-118284105D01*
X122163309Y-118384453D01*
X122163299Y-118384458D01*
X121936196Y-118515575D01*
X121728148Y-118675218D01*
X121542718Y-118860648D01*
X121383075Y-119068696D01*
X121251958Y-119295799D01*
X121251953Y-119295809D01*
X121151605Y-119538071D01*
X121151602Y-119538081D01*
X121086437Y-119781284D01*
X121083730Y-119791385D01*
X121049500Y-120051372D01*
X115709250Y-120051372D01*
X115709250Y-109237377D01*
X115715520Y-109216023D01*
X115717149Y-109193828D01*
X115725172Y-109183150D01*
X115728935Y-109170338D01*
X115745752Y-109155765D01*
X115759124Y-109137972D01*
X115771647Y-109133327D01*
X115781739Y-109124583D01*
X115803767Y-109121415D01*
X115824634Y-109113677D01*
X115837677Y-109116539D01*
X115850897Y-109114639D01*
X115871140Y-109123884D01*
X115892879Y-109128655D01*
X115905732Y-109139681D01*
X115914453Y-109143664D01*
X115921094Y-109149859D01*
X115927619Y-109156409D01*
X115928230Y-109157466D01*
X116040034Y-109269270D01*
X116040036Y-109269271D01*
X116047268Y-109276503D01*
X125245139Y-118474374D01*
X125245149Y-118474385D01*
X125249479Y-118478715D01*
X125249480Y-118478716D01*
X125361284Y-118590520D01*
X125448095Y-118640639D01*
X125448097Y-118640641D01*
X125486151Y-118662611D01*
X125498215Y-118669577D01*
X125650943Y-118710500D01*
X131253152Y-118710500D01*
X131320191Y-118730185D01*
X131340833Y-118746819D01*
X132956430Y-120362416D01*
X132989915Y-120423739D01*
X132992749Y-120450097D01*
X132992749Y-128092080D01*
X132992748Y-128092098D01*
X132992748Y-128257804D01*
X132992747Y-128257804D01*
X133033672Y-128410535D01*
X133056655Y-128450341D01*
X133056656Y-128450345D01*
X133056657Y-128450345D01*
X133112728Y-128547464D01*
X133112730Y-128547467D01*
X133231598Y-128666335D01*
X133231603Y-128666339D01*
X134165783Y-129600520D01*
X134165785Y-129600521D01*
X134165789Y-129600524D01*
X134302708Y-129679573D01*
X134302715Y-129679577D01*
X134455442Y-129720501D01*
X134455444Y-129720501D01*
X134621153Y-129720501D01*
X134621169Y-129720500D01*
X152245932Y-129720500D01*
X152312971Y-129740185D01*
X152356416Y-129788203D01*
X152416657Y-129906433D01*
X152555483Y-130097510D01*
X152722490Y-130264517D01*
X152913567Y-130403343D01*
X153012991Y-130454002D01*
X153124003Y-130510566D01*
X153124005Y-130510566D01*
X153124008Y-130510568D01*
X153244412Y-130549689D01*
X153348631Y-130583553D01*
X153581903Y-130620500D01*
X153581908Y-130620500D01*
X153818097Y-130620500D01*
X154051368Y-130583553D01*
X154275992Y-130510568D01*
X154486433Y-130403343D01*
X154677510Y-130264517D01*
X154844517Y-130097510D01*
X154983343Y-129906433D01*
X155090568Y-129695992D01*
X155163553Y-129471368D01*
X155200500Y-129238097D01*
X155200500Y-129001902D01*
X158699500Y-129001902D01*
X158699500Y-129238097D01*
X158736446Y-129471368D01*
X158809433Y-129695996D01*
X158916657Y-129906433D01*
X159055483Y-130097510D01*
X159222490Y-130264517D01*
X159413567Y-130403343D01*
X159512991Y-130454002D01*
X159624003Y-130510566D01*
X159624005Y-130510566D01*
X159624008Y-130510568D01*
X159744412Y-130549689D01*
X159848631Y-130583553D01*
X160081903Y-130620500D01*
X160081908Y-130620500D01*
X160318097Y-130620500D01*
X160551368Y-130583553D01*
X160775992Y-130510568D01*
X160986433Y-130403343D01*
X161177510Y-130264517D01*
X161344517Y-130097510D01*
X161483343Y-129906433D01*
X161590568Y-129695992D01*
X161663553Y-129471368D01*
X161700500Y-129238097D01*
X161700500Y-129001902D01*
X161663553Y-128768631D01*
X161591692Y-128547467D01*
X161590568Y-128544008D01*
X161590566Y-128544005D01*
X161590566Y-128544003D01*
X161483342Y-128333566D01*
X161344517Y-128142490D01*
X161177510Y-127975483D01*
X160986433Y-127836657D01*
X160775996Y-127729433D01*
X160551368Y-127656446D01*
X160318097Y-127619500D01*
X160318092Y-127619500D01*
X160081908Y-127619500D01*
X160081903Y-127619500D01*
X159848631Y-127656446D01*
X159624003Y-127729433D01*
X159413566Y-127836657D01*
X159355766Y-127878652D01*
X159222490Y-127975483D01*
X159222488Y-127975485D01*
X159222487Y-127975485D01*
X159055485Y-128142487D01*
X159055485Y-128142488D01*
X159055483Y-128142490D01*
X158995862Y-128224550D01*
X158916657Y-128333566D01*
X158809433Y-128544003D01*
X158736446Y-128768631D01*
X158699500Y-129001902D01*
X155200500Y-129001902D01*
X155163553Y-128768631D01*
X155091692Y-128547467D01*
X155090568Y-128544008D01*
X155090566Y-128544005D01*
X155090566Y-128544003D01*
X154983342Y-128333566D01*
X154844517Y-128142490D01*
X154677510Y-127975483D01*
X154486433Y-127836657D01*
X154275996Y-127729433D01*
X154051368Y-127656446D01*
X153818097Y-127619500D01*
X153818092Y-127619500D01*
X153581908Y-127619500D01*
X153581903Y-127619500D01*
X153348631Y-127656446D01*
X153124003Y-127729433D01*
X152913566Y-127836657D01*
X152855766Y-127878652D01*
X152722490Y-127975483D01*
X152722488Y-127975485D01*
X152722487Y-127975485D01*
X152555485Y-128142487D01*
X152555485Y-128142488D01*
X152555483Y-128142490D01*
X152495862Y-128224550D01*
X152416657Y-128333566D01*
X152384060Y-128397540D01*
X152357156Y-128450345D01*
X152356417Y-128451795D01*
X152308442Y-128502591D01*
X152245932Y-128519500D01*
X134834597Y-128519500D01*
X134767558Y-128499815D01*
X134746916Y-128483181D01*
X134230068Y-127966333D01*
X134196583Y-127905010D01*
X134193749Y-127878652D01*
X134193749Y-120239720D01*
X134193749Y-120229061D01*
X134193750Y-120229058D01*
X134193750Y-120070943D01*
X134188506Y-120051372D01*
X143049500Y-120051372D01*
X143049500Y-120313627D01*
X143067468Y-120450097D01*
X143083730Y-120573616D01*
X143151602Y-120826918D01*
X143151605Y-120826928D01*
X143251953Y-121069190D01*
X143251958Y-121069200D01*
X143383075Y-121296303D01*
X143542718Y-121504351D01*
X143542726Y-121504360D01*
X143728140Y-121689774D01*
X143728148Y-121689781D01*
X143936196Y-121849424D01*
X144163299Y-121980541D01*
X144163309Y-121980546D01*
X144405571Y-122080894D01*
X144405581Y-122080898D01*
X144658884Y-122148770D01*
X144918880Y-122183000D01*
X144918887Y-122183000D01*
X145181113Y-122183000D01*
X145181120Y-122183000D01*
X145441116Y-122148770D01*
X145694419Y-122080898D01*
X145936697Y-121980543D01*
X146163803Y-121849424D01*
X146371851Y-121689782D01*
X146371855Y-121689777D01*
X146371860Y-121689774D01*
X146557274Y-121504360D01*
X146557277Y-121504355D01*
X146557282Y-121504351D01*
X146716924Y-121296303D01*
X146848043Y-121069197D01*
X146948398Y-120826919D01*
X147016270Y-120573616D01*
X147050500Y-120313620D01*
X147050500Y-120051380D01*
X147016270Y-119791384D01*
X146948398Y-119538081D01*
X146948394Y-119538071D01*
X146848046Y-119295809D01*
X146848041Y-119295799D01*
X146716924Y-119068696D01*
X146557281Y-118860648D01*
X146557274Y-118860640D01*
X146371860Y-118675226D01*
X146371851Y-118675218D01*
X146163803Y-118515575D01*
X145971279Y-118404423D01*
X145936699Y-118384458D01*
X145936690Y-118384453D01*
X145737394Y-118301902D01*
X152199500Y-118301902D01*
X152199500Y-118538097D01*
X152236446Y-118771368D01*
X152309433Y-118995996D01*
X152416657Y-119206433D01*
X152555483Y-119397510D01*
X152722490Y-119564517D01*
X152913567Y-119703343D01*
X153012991Y-119754002D01*
X153124003Y-119810566D01*
X153124005Y-119810566D01*
X153124008Y-119810568D01*
X153244412Y-119849689D01*
X153348631Y-119883553D01*
X153581903Y-119920500D01*
X153581908Y-119920500D01*
X153818097Y-119920500D01*
X154051368Y-119883553D01*
X154275992Y-119810568D01*
X154486433Y-119703343D01*
X154677510Y-119564517D01*
X154844517Y-119397510D01*
X154983343Y-119206433D01*
X155090568Y-118995992D01*
X155163553Y-118771368D01*
X155170076Y-118730185D01*
X155200500Y-118538097D01*
X155200500Y-118301902D01*
X158699500Y-118301902D01*
X158699500Y-118538097D01*
X158736446Y-118771368D01*
X158809433Y-118995996D01*
X158916657Y-119206433D01*
X159055483Y-119397510D01*
X159222490Y-119564517D01*
X159413567Y-119703343D01*
X159512991Y-119754002D01*
X159624003Y-119810566D01*
X159624005Y-119810566D01*
X159624008Y-119810568D01*
X159744412Y-119849689D01*
X159848631Y-119883553D01*
X160081903Y-119920500D01*
X160081908Y-119920500D01*
X160318097Y-119920500D01*
X160551368Y-119883553D01*
X160775992Y-119810568D01*
X160986433Y-119703343D01*
X161177510Y-119564517D01*
X161344517Y-119397510D01*
X161483343Y-119206433D01*
X161590568Y-118995992D01*
X161663553Y-118771368D01*
X161670076Y-118730185D01*
X161700500Y-118538097D01*
X161700500Y-118301902D01*
X161663553Y-118068631D01*
X161590566Y-117844003D01*
X161483342Y-117633566D01*
X161480374Y-117629481D01*
X161344517Y-117442490D01*
X161177510Y-117275483D01*
X160986433Y-117136657D01*
X160775996Y-117029433D01*
X160551368Y-116956446D01*
X160318097Y-116919500D01*
X160318092Y-116919500D01*
X160081908Y-116919500D01*
X160081903Y-116919500D01*
X159848631Y-116956446D01*
X159624003Y-117029433D01*
X159413566Y-117136657D01*
X159304550Y-117215862D01*
X159222490Y-117275483D01*
X159222488Y-117275485D01*
X159222487Y-117275485D01*
X159055485Y-117442487D01*
X159055485Y-117442488D01*
X159055483Y-117442490D01*
X159033185Y-117473181D01*
X158916657Y-117633566D01*
X158809433Y-117844003D01*
X158736446Y-118068631D01*
X158699500Y-118301902D01*
X155200500Y-118301902D01*
X155163553Y-118068631D01*
X155090566Y-117844003D01*
X154983342Y-117633566D01*
X154980374Y-117629481D01*
X154844517Y-117442490D01*
X154677510Y-117275483D01*
X154486433Y-117136657D01*
X154275996Y-117029433D01*
X154051368Y-116956446D01*
X153818097Y-116919500D01*
X153818092Y-116919500D01*
X153581908Y-116919500D01*
X153581903Y-116919500D01*
X153348631Y-116956446D01*
X153124003Y-117029433D01*
X152913566Y-117136657D01*
X152804550Y-117215862D01*
X152722490Y-117275483D01*
X152722488Y-117275485D01*
X152722487Y-117275485D01*
X152555485Y-117442487D01*
X152555485Y-117442488D01*
X152555483Y-117442490D01*
X152533185Y-117473181D01*
X152416657Y-117633566D01*
X152309433Y-117844003D01*
X152236446Y-118068631D01*
X152199500Y-118301902D01*
X145737394Y-118301902D01*
X145694428Y-118284105D01*
X145694421Y-118284103D01*
X145694419Y-118284102D01*
X145441116Y-118216230D01*
X145383339Y-118208623D01*
X145181127Y-118182000D01*
X145181120Y-118182000D01*
X144918880Y-118182000D01*
X144918872Y-118182000D01*
X144687772Y-118212426D01*
X144658884Y-118216230D01*
X144405581Y-118284102D01*
X144405571Y-118284105D01*
X144163309Y-118384453D01*
X144163299Y-118384458D01*
X143936196Y-118515575D01*
X143728148Y-118675218D01*
X143542718Y-118860648D01*
X143383075Y-119068696D01*
X143251958Y-119295799D01*
X143251953Y-119295809D01*
X143151605Y-119538071D01*
X143151602Y-119538081D01*
X143086437Y-119781284D01*
X143083730Y-119791385D01*
X143049500Y-120051372D01*
X134188506Y-120051372D01*
X134152826Y-119918216D01*
X134152822Y-119918209D01*
X134073773Y-119781290D01*
X134073767Y-119781282D01*
X132040839Y-117748355D01*
X132040837Y-117748352D01*
X131921966Y-117629481D01*
X131921965Y-117629480D01*
X131835153Y-117579360D01*
X131835153Y-117579359D01*
X131835149Y-117579358D01*
X131785034Y-117550423D01*
X131632306Y-117509499D01*
X131474192Y-117509499D01*
X131466596Y-117509499D01*
X131466580Y-117509500D01*
X126030097Y-117509500D01*
X125963058Y-117489815D01*
X125942416Y-117473181D01*
X123986917Y-115517682D01*
X165370000Y-115517682D01*
X165370000Y-115722317D01*
X165402009Y-115924417D01*
X165465244Y-116119031D01*
X165558141Y-116301350D01*
X165558147Y-116301359D01*
X165590523Y-116345921D01*
X165590524Y-116345922D01*
X166270000Y-115666446D01*
X166270000Y-115672661D01*
X166297259Y-115774394D01*
X166349920Y-115865606D01*
X166424394Y-115940080D01*
X166515606Y-115992741D01*
X166617339Y-116020000D01*
X166623553Y-116020000D01*
X165944076Y-116699474D01*
X165988650Y-116731859D01*
X166170968Y-116824755D01*
X166365582Y-116887990D01*
X166567683Y-116920000D01*
X166772317Y-116920000D01*
X166974417Y-116887990D01*
X167169031Y-116824755D01*
X167351349Y-116731859D01*
X167395921Y-116699474D01*
X166716447Y-116020000D01*
X166722661Y-116020000D01*
X166824394Y-115992741D01*
X166915606Y-115940080D01*
X166990080Y-115865606D01*
X167042741Y-115774394D01*
X167070000Y-115672661D01*
X167070000Y-115666447D01*
X167749474Y-116345921D01*
X167781859Y-116301349D01*
X167874755Y-116119031D01*
X167937990Y-115924417D01*
X167970000Y-115722317D01*
X167970000Y-115517682D01*
X167969995Y-115517648D01*
X175529500Y-115517648D01*
X175529500Y-115722351D01*
X175561522Y-115924534D01*
X175624781Y-116119223D01*
X175688691Y-116244653D01*
X175717585Y-116301359D01*
X175717715Y-116301613D01*
X175838028Y-116467213D01*
X175982786Y-116611971D01*
X176103226Y-116699474D01*
X176148390Y-116732287D01*
X176264607Y-116791503D01*
X176330776Y-116825218D01*
X176330778Y-116825218D01*
X176330781Y-116825220D01*
X176435137Y-116859127D01*
X176525465Y-116888477D01*
X176626557Y-116904488D01*
X176727648Y-116920500D01*
X176727649Y-116920500D01*
X176932351Y-116920500D01*
X176932352Y-116920500D01*
X177134534Y-116888477D01*
X177329219Y-116825220D01*
X177511610Y-116732287D01*
X177604590Y-116664732D01*
X177677213Y-116611971D01*
X177677215Y-116611968D01*
X177677219Y-116611966D01*
X177821966Y-116467219D01*
X177821968Y-116467215D01*
X177821971Y-116467213D01*
X177874732Y-116394590D01*
X177942287Y-116301610D01*
X178035220Y-116119219D01*
X178098477Y-115924534D01*
X178130500Y-115722352D01*
X178130500Y-115517648D01*
X178109261Y-115383553D01*
X178098477Y-115315465D01*
X178062046Y-115203342D01*
X178035220Y-115120781D01*
X178035218Y-115120778D01*
X178035218Y-115120776D01*
X177942419Y-114938650D01*
X177942287Y-114938390D01*
X177910092Y-114894077D01*
X177821971Y-114772786D01*
X177677213Y-114628028D01*
X177511613Y-114507715D01*
X177511612Y-114507714D01*
X177511610Y-114507713D01*
X177454653Y-114478691D01*
X177329223Y-114414781D01*
X177134534Y-114351522D01*
X176959995Y-114323878D01*
X176932352Y-114319500D01*
X176727648Y-114319500D01*
X176703329Y-114323351D01*
X176525465Y-114351522D01*
X176330776Y-114414781D01*
X176148386Y-114507715D01*
X175982786Y-114628028D01*
X175838028Y-114772786D01*
X175717715Y-114938386D01*
X175624781Y-115120776D01*
X175561522Y-115315465D01*
X175529500Y-115517648D01*
X167969995Y-115517648D01*
X167937990Y-115315582D01*
X167874755Y-115120968D01*
X167781859Y-114938650D01*
X167749474Y-114894077D01*
X167749474Y-114894076D01*
X167070000Y-115573551D01*
X167070000Y-115567339D01*
X167042741Y-115465606D01*
X166990080Y-115374394D01*
X166915606Y-115299920D01*
X166824394Y-115247259D01*
X166722661Y-115220000D01*
X166716446Y-115220000D01*
X167395922Y-114540524D01*
X167395921Y-114540523D01*
X167351359Y-114508147D01*
X167351350Y-114508141D01*
X167169031Y-114415244D01*
X166974417Y-114352009D01*
X166772317Y-114320000D01*
X166567683Y-114320000D01*
X166365582Y-114352009D01*
X166170968Y-114415244D01*
X165988644Y-114508143D01*
X165944077Y-114540523D01*
X165944077Y-114540524D01*
X166623554Y-115220000D01*
X166617339Y-115220000D01*
X166515606Y-115247259D01*
X166424394Y-115299920D01*
X166349920Y-115374394D01*
X166297259Y-115465606D01*
X166270000Y-115567339D01*
X166270000Y-115573553D01*
X165590524Y-114894077D01*
X165590523Y-114894077D01*
X165558143Y-114938644D01*
X165465244Y-115120968D01*
X165402009Y-115315582D01*
X165370000Y-115517682D01*
X123986917Y-115517682D01*
X117045569Y-108576334D01*
X117012084Y-108515011D01*
X117009250Y-108488653D01*
X117009250Y-102077847D01*
X117028935Y-102010808D01*
X117081739Y-101965053D01*
X117150897Y-101955109D01*
X117214453Y-101984134D01*
X117220931Y-101990166D01*
X119213181Y-103982416D01*
X119246666Y-104043739D01*
X119249500Y-104070097D01*
X119249500Y-110083330D01*
X119249499Y-110083348D01*
X119249499Y-110249054D01*
X119249498Y-110249054D01*
X119290423Y-110401785D01*
X119319358Y-110451900D01*
X119319359Y-110451904D01*
X119319360Y-110451904D01*
X119369479Y-110538714D01*
X119369481Y-110538717D01*
X119488349Y-110657585D01*
X119488355Y-110657590D01*
X123115139Y-114284374D01*
X123115149Y-114284385D01*
X123119479Y-114288715D01*
X123119480Y-114288716D01*
X123231284Y-114400520D01*
X123318095Y-114450639D01*
X123318097Y-114450641D01*
X123356151Y-114472611D01*
X123368215Y-114479577D01*
X123520943Y-114520501D01*
X123520946Y-114520501D01*
X123686653Y-114520501D01*
X123686669Y-114520500D01*
X152245932Y-114520500D01*
X152312971Y-114540185D01*
X152356416Y-114588203D01*
X152416657Y-114706433D01*
X152555483Y-114897510D01*
X152722490Y-115064517D01*
X152913567Y-115203343D01*
X152999757Y-115247259D01*
X153124003Y-115310566D01*
X153124005Y-115310566D01*
X153124008Y-115310568D01*
X153244412Y-115349689D01*
X153348631Y-115383553D01*
X153581903Y-115420500D01*
X153581908Y-115420500D01*
X153818097Y-115420500D01*
X154051368Y-115383553D01*
X154079556Y-115374394D01*
X154275992Y-115310568D01*
X154486433Y-115203343D01*
X154677510Y-115064517D01*
X154844517Y-114897510D01*
X154983343Y-114706433D01*
X155090568Y-114495992D01*
X155163553Y-114271368D01*
X155200500Y-114038097D01*
X155200500Y-113801902D01*
X158699500Y-113801902D01*
X158699500Y-114038097D01*
X158736446Y-114271368D01*
X158809433Y-114495996D01*
X158916657Y-114706433D01*
X159055483Y-114897510D01*
X159222490Y-115064517D01*
X159413567Y-115203343D01*
X159499757Y-115247259D01*
X159624003Y-115310566D01*
X159624005Y-115310566D01*
X159624008Y-115310568D01*
X159744412Y-115349689D01*
X159848631Y-115383553D01*
X160081903Y-115420500D01*
X160081908Y-115420500D01*
X160318097Y-115420500D01*
X160508499Y-115390343D01*
X160551368Y-115383553D01*
X160579556Y-115374394D01*
X160775992Y-115310568D01*
X160986433Y-115203343D01*
X161177510Y-115064517D01*
X161344517Y-114897510D01*
X161483343Y-114706433D01*
X161590568Y-114495992D01*
X161663553Y-114271368D01*
X161700500Y-114038097D01*
X161700500Y-113801902D01*
X161663553Y-113568631D01*
X161590566Y-113344003D01*
X161483342Y-113133566D01*
X161344517Y-112942490D01*
X161177510Y-112775483D01*
X160986433Y-112636657D01*
X160775996Y-112529433D01*
X160551368Y-112456446D01*
X160318097Y-112419500D01*
X160318092Y-112419500D01*
X160081908Y-112419500D01*
X160081903Y-112419500D01*
X159848631Y-112456446D01*
X159624003Y-112529433D01*
X159413566Y-112636657D01*
X159304550Y-112715862D01*
X159222490Y-112775483D01*
X159222488Y-112775485D01*
X159222487Y-112775485D01*
X159055485Y-112942487D01*
X159055485Y-112942488D01*
X159055483Y-112942490D01*
X158995862Y-113024550D01*
X158916657Y-113133566D01*
X158809433Y-113344003D01*
X158736446Y-113568631D01*
X158699500Y-113801902D01*
X155200500Y-113801902D01*
X155163553Y-113568631D01*
X155090566Y-113344003D01*
X154983342Y-113133566D01*
X154844517Y-112942490D01*
X154677510Y-112775483D01*
X154486433Y-112636657D01*
X154275996Y-112529433D01*
X154051368Y-112456446D01*
X153818097Y-112419500D01*
X153818092Y-112419500D01*
X153581908Y-112419500D01*
X153581903Y-112419500D01*
X153348631Y-112456446D01*
X153124003Y-112529433D01*
X152913566Y-112636657D01*
X152804550Y-112715862D01*
X152722490Y-112775483D01*
X152722488Y-112775485D01*
X152722487Y-112775485D01*
X152555485Y-112942487D01*
X152555485Y-112942488D01*
X152555483Y-112942490D01*
X152495862Y-113024550D01*
X152416657Y-113133566D01*
X152356417Y-113251795D01*
X152308442Y-113302591D01*
X152245932Y-113319500D01*
X123900097Y-113319500D01*
X123833058Y-113299815D01*
X123812416Y-113283181D01*
X120486819Y-109957584D01*
X120453334Y-109896261D01*
X120450500Y-109869903D01*
X120450500Y-103859060D01*
X120450501Y-103859047D01*
X120450501Y-103690945D01*
X120450501Y-103690943D01*
X120432900Y-103625256D01*
X120433505Y-103599831D01*
X120430068Y-103574628D01*
X120434323Y-103565486D01*
X120434563Y-103555410D01*
X120448818Y-103534347D01*
X120459554Y-103511284D01*
X120468075Y-103505894D01*
X120473725Y-103497547D01*
X120497106Y-103487534D01*
X120518604Y-103473938D01*
X120530990Y-103473023D01*
X120537953Y-103470042D01*
X120553575Y-103469168D01*
X120566313Y-103469260D01*
X120570943Y-103470501D01*
X120729057Y-103470501D01*
X120729061Y-103470500D01*
X148563331Y-103470500D01*
X148563347Y-103470501D01*
X148570943Y-103470501D01*
X148729054Y-103470501D01*
X148729057Y-103470501D01*
X148881785Y-103429577D01*
X148931904Y-103400639D01*
X149018716Y-103350520D01*
X149130520Y-103238716D01*
X149130520Y-103238714D01*
X149140728Y-103228507D01*
X149140730Y-103228504D01*
X150167332Y-102201902D01*
X152199500Y-102201902D01*
X152199500Y-102438097D01*
X152236446Y-102671368D01*
X152309433Y-102895996D01*
X152416657Y-103106433D01*
X152555483Y-103297510D01*
X152722490Y-103464517D01*
X152913567Y-103603343D01*
X152956582Y-103625260D01*
X153124003Y-103710566D01*
X153124005Y-103710566D01*
X153124008Y-103710568D01*
X153244412Y-103749689D01*
X153348631Y-103783553D01*
X153581903Y-103820500D01*
X153581908Y-103820500D01*
X153818097Y-103820500D01*
X154051368Y-103783553D01*
X154275992Y-103710568D01*
X154486433Y-103603343D01*
X154677510Y-103464517D01*
X154844517Y-103297510D01*
X154983343Y-103106433D01*
X155090568Y-102895992D01*
X155163553Y-102671368D01*
X155200500Y-102438097D01*
X155200500Y-102201902D01*
X158699500Y-102201902D01*
X158699500Y-102438097D01*
X158736446Y-102671368D01*
X158809433Y-102895996D01*
X158916657Y-103106433D01*
X159055483Y-103297510D01*
X159222490Y-103464517D01*
X159413567Y-103603343D01*
X159456582Y-103625260D01*
X159624003Y-103710566D01*
X159624005Y-103710566D01*
X159624008Y-103710568D01*
X159744412Y-103749689D01*
X159848631Y-103783553D01*
X160081903Y-103820500D01*
X160081908Y-103820500D01*
X160318097Y-103820500D01*
X160551368Y-103783553D01*
X160775992Y-103710568D01*
X160986433Y-103603343D01*
X161177510Y-103464517D01*
X161344517Y-103297510D01*
X161483343Y-103106433D01*
X161590568Y-102895992D01*
X161663553Y-102671368D01*
X161700500Y-102438097D01*
X161700500Y-102201902D01*
X161663553Y-101968631D01*
X161629689Y-101864412D01*
X161590568Y-101744008D01*
X161590566Y-101744005D01*
X161590566Y-101744003D01*
X161483342Y-101533566D01*
X161344517Y-101342490D01*
X161177510Y-101175483D01*
X160986433Y-101036657D01*
X160775992Y-100929432D01*
X160677025Y-100897275D01*
X160551368Y-100856446D01*
X160318097Y-100819500D01*
X160318092Y-100819500D01*
X160081908Y-100819500D01*
X160081903Y-100819500D01*
X159848631Y-100856446D01*
X159624003Y-100929433D01*
X159413566Y-101036657D01*
X159367674Y-101070000D01*
X159222490Y-101175483D01*
X159222488Y-101175485D01*
X159222487Y-101175485D01*
X159055485Y-101342487D01*
X159055485Y-101342488D01*
X159055483Y-101342490D01*
X158995862Y-101424550D01*
X158916657Y-101533566D01*
X158809433Y-101744003D01*
X158736446Y-101968631D01*
X158699500Y-102201902D01*
X155200500Y-102201902D01*
X155163553Y-101968631D01*
X155129689Y-101864412D01*
X155090568Y-101744008D01*
X155090566Y-101744005D01*
X155090566Y-101744003D01*
X154983342Y-101533566D01*
X154844517Y-101342490D01*
X154677510Y-101175483D01*
X154486433Y-101036657D01*
X154446547Y-101016334D01*
X154275996Y-100929433D01*
X154051368Y-100856446D01*
X153818097Y-100819500D01*
X153818092Y-100819500D01*
X153581908Y-100819500D01*
X153581903Y-100819500D01*
X153348631Y-100856446D01*
X153124003Y-100929433D01*
X152913566Y-101036657D01*
X152867674Y-101070000D01*
X152722490Y-101175483D01*
X152722488Y-101175485D01*
X152722487Y-101175485D01*
X152555485Y-101342487D01*
X152555485Y-101342488D01*
X152555483Y-101342490D01*
X152495862Y-101424550D01*
X152416657Y-101533566D01*
X152309433Y-101744003D01*
X152236446Y-101968631D01*
X152199500Y-102201902D01*
X150167332Y-102201902D01*
X152701551Y-99667682D01*
X165370000Y-99667682D01*
X165370000Y-99872317D01*
X165402009Y-100074417D01*
X165465244Y-100269031D01*
X165558141Y-100451350D01*
X165558147Y-100451359D01*
X165590523Y-100495921D01*
X165590524Y-100495922D01*
X166270000Y-99816446D01*
X166270000Y-99822661D01*
X166297259Y-99924394D01*
X166349920Y-100015606D01*
X166424394Y-100090080D01*
X166515606Y-100142741D01*
X166617339Y-100170000D01*
X166623553Y-100170000D01*
X165944076Y-100849474D01*
X165988650Y-100881859D01*
X166170968Y-100974755D01*
X166365582Y-101037990D01*
X166567683Y-101070000D01*
X166772317Y-101070000D01*
X166974417Y-101037990D01*
X167169031Y-100974755D01*
X167351349Y-100881859D01*
X167395921Y-100849474D01*
X166716447Y-100170000D01*
X166722661Y-100170000D01*
X166824394Y-100142741D01*
X166915606Y-100090080D01*
X166990080Y-100015606D01*
X167042741Y-99924394D01*
X167070000Y-99822661D01*
X167070000Y-99816447D01*
X167749474Y-100495921D01*
X167781859Y-100451349D01*
X167874755Y-100269031D01*
X167937990Y-100074417D01*
X167970000Y-99872317D01*
X167970000Y-99667682D01*
X167969995Y-99667648D01*
X175529500Y-99667648D01*
X175529500Y-99872351D01*
X175561522Y-100074534D01*
X175624781Y-100269223D01*
X175688691Y-100394653D01*
X175717585Y-100451359D01*
X175717715Y-100451613D01*
X175838028Y-100617213D01*
X175982786Y-100761971D01*
X176112824Y-100856447D01*
X176148390Y-100882287D01*
X176240919Y-100929433D01*
X176330776Y-100975218D01*
X176330778Y-100975218D01*
X176330781Y-100975220D01*
X176435137Y-101009127D01*
X176525465Y-101038477D01*
X176626557Y-101054488D01*
X176727648Y-101070500D01*
X176727649Y-101070500D01*
X176932351Y-101070500D01*
X176932352Y-101070500D01*
X177134534Y-101038477D01*
X177329219Y-100975220D01*
X177511610Y-100882287D01*
X177604590Y-100814732D01*
X177677213Y-100761971D01*
X177677215Y-100761968D01*
X177677219Y-100761966D01*
X177821966Y-100617219D01*
X177821968Y-100617215D01*
X177821971Y-100617213D01*
X177874732Y-100544590D01*
X177942287Y-100451610D01*
X178035220Y-100269219D01*
X178098477Y-100074534D01*
X178130500Y-99872352D01*
X178130500Y-99667648D01*
X178112167Y-99551900D01*
X178098477Y-99465465D01*
X178060652Y-99349054D01*
X178035220Y-99270781D01*
X178035218Y-99270778D01*
X178035218Y-99270776D01*
X177994538Y-99190939D01*
X177942287Y-99088390D01*
X177928343Y-99069197D01*
X177821971Y-98922786D01*
X177677213Y-98778028D01*
X177511613Y-98657715D01*
X177511612Y-98657714D01*
X177511610Y-98657713D01*
X177454653Y-98628691D01*
X177329223Y-98564781D01*
X177134534Y-98501522D01*
X176959995Y-98473878D01*
X176932352Y-98469500D01*
X176727648Y-98469500D01*
X176703329Y-98473351D01*
X176525465Y-98501522D01*
X176330776Y-98564781D01*
X176148386Y-98657715D01*
X175982786Y-98778028D01*
X175838028Y-98922786D01*
X175717715Y-99088386D01*
X175624781Y-99270776D01*
X175561522Y-99465465D01*
X175529500Y-99667648D01*
X167969995Y-99667648D01*
X167937990Y-99465582D01*
X167874755Y-99270968D01*
X167781859Y-99088650D01*
X167749474Y-99044077D01*
X167749474Y-99044076D01*
X167070000Y-99723551D01*
X167070000Y-99717339D01*
X167042741Y-99615606D01*
X166990080Y-99524394D01*
X166915606Y-99449920D01*
X166824394Y-99397259D01*
X166722661Y-99370000D01*
X166716446Y-99370000D01*
X167395922Y-98690524D01*
X167395921Y-98690523D01*
X167351359Y-98658147D01*
X167351350Y-98658141D01*
X167169031Y-98565244D01*
X166974417Y-98502009D01*
X166772317Y-98470000D01*
X166567683Y-98470000D01*
X166365582Y-98502009D01*
X166170968Y-98565244D01*
X165988644Y-98658143D01*
X165944077Y-98690523D01*
X165944077Y-98690524D01*
X166623554Y-99370000D01*
X166617339Y-99370000D01*
X166515606Y-99397259D01*
X166424394Y-99449920D01*
X166349920Y-99524394D01*
X166297259Y-99615606D01*
X166270000Y-99717339D01*
X166270000Y-99723553D01*
X165590524Y-99044077D01*
X165590523Y-99044077D01*
X165558143Y-99088644D01*
X165465244Y-99270968D01*
X165402009Y-99465582D01*
X165370000Y-99667682D01*
X152701551Y-99667682D01*
X153096437Y-99272796D01*
X153157758Y-99239313D01*
X153222433Y-99242547D01*
X153348632Y-99283553D01*
X153429133Y-99296303D01*
X153581903Y-99320500D01*
X153581908Y-99320500D01*
X153818097Y-99320500D01*
X154051368Y-99283553D01*
X154084468Y-99272798D01*
X154275992Y-99210568D01*
X154486433Y-99103343D01*
X154677510Y-98964517D01*
X154844517Y-98797510D01*
X154983343Y-98606433D01*
X155090568Y-98395992D01*
X155163553Y-98171368D01*
X155177613Y-98082599D01*
X155200500Y-97938097D01*
X155200500Y-97701902D01*
X158699500Y-97701902D01*
X158699500Y-97938097D01*
X158736446Y-98171368D01*
X158809433Y-98395996D01*
X158884784Y-98543879D01*
X158916657Y-98606433D01*
X159055483Y-98797510D01*
X159222490Y-98964517D01*
X159413567Y-99103343D01*
X159512991Y-99154002D01*
X159624003Y-99210566D01*
X159624005Y-99210566D01*
X159624008Y-99210568D01*
X159712476Y-99239313D01*
X159848631Y-99283553D01*
X160081903Y-99320500D01*
X160081908Y-99320500D01*
X160318097Y-99320500D01*
X160551368Y-99283553D01*
X160584468Y-99272798D01*
X160775992Y-99210568D01*
X160986433Y-99103343D01*
X161177510Y-98964517D01*
X161344517Y-98797510D01*
X161483343Y-98606433D01*
X161590568Y-98395992D01*
X161663553Y-98171368D01*
X161677613Y-98082599D01*
X161700500Y-97938097D01*
X161700500Y-97701902D01*
X161663553Y-97468631D01*
X161607396Y-97295799D01*
X161590568Y-97244008D01*
X161590566Y-97244005D01*
X161590566Y-97244003D01*
X161520199Y-97105901D01*
X161483343Y-97033567D01*
X161344517Y-96842490D01*
X161177510Y-96675483D01*
X160986433Y-96536657D01*
X160775996Y-96429433D01*
X160551368Y-96356446D01*
X160318097Y-96319500D01*
X160318092Y-96319500D01*
X160081908Y-96319500D01*
X160081903Y-96319500D01*
X159848631Y-96356446D01*
X159624003Y-96429433D01*
X159413566Y-96536657D01*
X159325501Y-96600641D01*
X159222490Y-96675483D01*
X159222488Y-96675485D01*
X159222487Y-96675485D01*
X159055485Y-96842487D01*
X159055485Y-96842488D01*
X159055483Y-96842490D01*
X159027742Y-96880672D01*
X158916657Y-97033566D01*
X158809433Y-97244003D01*
X158736446Y-97468631D01*
X158699500Y-97701902D01*
X155200500Y-97701902D01*
X155163553Y-97468631D01*
X155107396Y-97295799D01*
X155090568Y-97244008D01*
X155090566Y-97244005D01*
X155090566Y-97244003D01*
X155020199Y-97105901D01*
X154983343Y-97033567D01*
X154844517Y-96842490D01*
X154677510Y-96675483D01*
X154486433Y-96536657D01*
X154275996Y-96429433D01*
X154051368Y-96356446D01*
X153818097Y-96319500D01*
X153818092Y-96319500D01*
X153581908Y-96319500D01*
X153581903Y-96319500D01*
X153348631Y-96356446D01*
X153124003Y-96429433D01*
X152913566Y-96536657D01*
X152825501Y-96600641D01*
X152722490Y-96675483D01*
X152722488Y-96675485D01*
X152722487Y-96675485D01*
X152555485Y-96842487D01*
X152555485Y-96842488D01*
X152555483Y-96842490D01*
X152527742Y-96880672D01*
X152416657Y-97033566D01*
X152309433Y-97244003D01*
X152236446Y-97468631D01*
X152199500Y-97701902D01*
X152199500Y-97938097D01*
X152236447Y-98171369D01*
X152236447Y-98171372D01*
X152277450Y-98297564D01*
X152279445Y-98367405D01*
X152247200Y-98423563D01*
X148437584Y-102233181D01*
X148376261Y-102266666D01*
X148349903Y-102269500D01*
X120950097Y-102269500D01*
X120883058Y-102249815D01*
X120862416Y-102233181D01*
X119645569Y-101016334D01*
X119612084Y-100955011D01*
X119609250Y-100928653D01*
X119609250Y-98051372D01*
X121049500Y-98051372D01*
X121049500Y-98313627D01*
X121076123Y-98515839D01*
X121083730Y-98573616D01*
X121151602Y-98826918D01*
X121151605Y-98826928D01*
X121251953Y-99069190D01*
X121251958Y-99069200D01*
X121383075Y-99296303D01*
X121542718Y-99504351D01*
X121542726Y-99504360D01*
X121728140Y-99689774D01*
X121728148Y-99689781D01*
X121936196Y-99849424D01*
X122163299Y-99980541D01*
X122163309Y-99980546D01*
X122390217Y-100074534D01*
X122405581Y-100080898D01*
X122658884Y-100148770D01*
X122918880Y-100183000D01*
X122918887Y-100183000D01*
X123181113Y-100183000D01*
X123181120Y-100183000D01*
X123441116Y-100148770D01*
X123694419Y-100080898D01*
X123936697Y-99980543D01*
X124163803Y-99849424D01*
X124371851Y-99689782D01*
X124371855Y-99689777D01*
X124371860Y-99689774D01*
X124557274Y-99504360D01*
X124557277Y-99504355D01*
X124557282Y-99504351D01*
X124716924Y-99296303D01*
X124848043Y-99069197D01*
X124858449Y-99044076D01*
X124905661Y-98930096D01*
X124948398Y-98826919D01*
X125016270Y-98573616D01*
X125050500Y-98313620D01*
X125050500Y-98051380D01*
X125016270Y-97791384D01*
X124948398Y-97538081D01*
X124886538Y-97388737D01*
X124848046Y-97295809D01*
X124848041Y-97295799D01*
X124716924Y-97068696D01*
X124557281Y-96860648D01*
X124557274Y-96860640D01*
X124371860Y-96675226D01*
X124371851Y-96675218D01*
X124163803Y-96515575D01*
X123936700Y-96384458D01*
X123936690Y-96384453D01*
X123694428Y-96284105D01*
X123694421Y-96284103D01*
X123694419Y-96284102D01*
X123441116Y-96216230D01*
X123383339Y-96208623D01*
X123181127Y-96182000D01*
X123181120Y-96182000D01*
X122918880Y-96182000D01*
X122918872Y-96182000D01*
X122687772Y-96212426D01*
X122658884Y-96216230D01*
X122555991Y-96243800D01*
X122405581Y-96284102D01*
X122405571Y-96284105D01*
X122163309Y-96384453D01*
X122163299Y-96384458D01*
X121936196Y-96515575D01*
X121728148Y-96675218D01*
X121542718Y-96860648D01*
X121383075Y-97068696D01*
X121251958Y-97295799D01*
X121251953Y-97295809D01*
X121151605Y-97538071D01*
X121151602Y-97538081D01*
X121086451Y-97781231D01*
X121083730Y-97791385D01*
X121049500Y-98051372D01*
X119609250Y-98051372D01*
X119609250Y-66076656D01*
X119628935Y-66009617D01*
X119645564Y-65988980D01*
X132500990Y-53133553D01*
X132562311Y-53100070D01*
X132632003Y-53105054D01*
X132644949Y-53110744D01*
X132662865Y-53119873D01*
X132827609Y-53173402D01*
X132998699Y-53200500D01*
X132998700Y-53200500D01*
X133171920Y-53200500D01*
X133171921Y-53200500D01*
X133343011Y-53173402D01*
X133507755Y-53119873D01*
X133662098Y-53041232D01*
X133802238Y-52939414D01*
X133924724Y-52816928D01*
X134026542Y-52676788D01*
X134105183Y-52522445D01*
X134158712Y-52357701D01*
X134185810Y-52186611D01*
X134185810Y-51213389D01*
X134524810Y-51213389D01*
X134524810Y-52186610D01*
X134544316Y-52309771D01*
X134551908Y-52357701D01*
X134605437Y-52522445D01*
X134684078Y-52676788D01*
X134785896Y-52816928D01*
X134908382Y-52939414D01*
X135048522Y-53041232D01*
X135202865Y-53119873D01*
X135367609Y-53173402D01*
X135538699Y-53200500D01*
X135538700Y-53200500D01*
X135711920Y-53200500D01*
X135711921Y-53200500D01*
X135883011Y-53173402D01*
X136047755Y-53119873D01*
X136202098Y-53041232D01*
X136342238Y-52939414D01*
X136464724Y-52816928D01*
X136566542Y-52676788D01*
X136645183Y-52522445D01*
X136698712Y-52357701D01*
X136725810Y-52186611D01*
X136725810Y-51213389D01*
X137064810Y-51213389D01*
X137064810Y-52186610D01*
X137084316Y-52309771D01*
X137091908Y-52357701D01*
X137145437Y-52522445D01*
X137224078Y-52676788D01*
X137325896Y-52816928D01*
X137448382Y-52939414D01*
X137588522Y-53041232D01*
X137742865Y-53119873D01*
X137907609Y-53173402D01*
X138078699Y-53200500D01*
X138078700Y-53200500D01*
X138251920Y-53200500D01*
X138251921Y-53200500D01*
X138423011Y-53173402D01*
X138587755Y-53119873D01*
X138742098Y-53041232D01*
X138882238Y-52939414D01*
X139004724Y-52816928D01*
X139106542Y-52676788D01*
X139185183Y-52522445D01*
X139238712Y-52357701D01*
X139265810Y-52186611D01*
X139265810Y-51213389D01*
X139238712Y-51042299D01*
X139185183Y-50877555D01*
X139106542Y-50723212D01*
X139004724Y-50583072D01*
X138882238Y-50460586D01*
X138742098Y-50358768D01*
X138594979Y-50283808D01*
X138587757Y-50280128D01*
X138587756Y-50280127D01*
X138587755Y-50280127D01*
X138423011Y-50226598D01*
X138423009Y-50226597D01*
X138423008Y-50226597D01*
X138291581Y-50205781D01*
X138251921Y-50199500D01*
X138078699Y-50199500D01*
X138039038Y-50205781D01*
X137907612Y-50226597D01*
X137742862Y-50280128D01*
X137588521Y-50358768D01*
X137516025Y-50411440D01*
X137448382Y-50460586D01*
X137448380Y-50460588D01*
X137448379Y-50460588D01*
X137325898Y-50583069D01*
X137325898Y-50583070D01*
X137325896Y-50583072D01*
X137282169Y-50643256D01*
X137224078Y-50723211D01*
X137145438Y-50877552D01*
X137091907Y-51042302D01*
X137064810Y-51213389D01*
X136725810Y-51213389D01*
X136698712Y-51042299D01*
X136645183Y-50877555D01*
X136566542Y-50723212D01*
X136464724Y-50583072D01*
X136342238Y-50460586D01*
X136202098Y-50358768D01*
X136054979Y-50283808D01*
X136047757Y-50280128D01*
X136047756Y-50280127D01*
X136047755Y-50280127D01*
X135883011Y-50226598D01*
X135883009Y-50226597D01*
X135883008Y-50226597D01*
X135751581Y-50205781D01*
X135711921Y-50199500D01*
X135538699Y-50199500D01*
X135499038Y-50205781D01*
X135367612Y-50226597D01*
X135202862Y-50280128D01*
X135048521Y-50358768D01*
X134976025Y-50411440D01*
X134908382Y-50460586D01*
X134908380Y-50460588D01*
X134908379Y-50460588D01*
X134785898Y-50583069D01*
X134785898Y-50583070D01*
X134785896Y-50583072D01*
X134742169Y-50643256D01*
X134684078Y-50723211D01*
X134605438Y-50877552D01*
X134551907Y-51042302D01*
X134524810Y-51213389D01*
X134185810Y-51213389D01*
X134158712Y-51042299D01*
X134105183Y-50877555D01*
X134026542Y-50723212D01*
X133924724Y-50583072D01*
X133802238Y-50460586D01*
X133662098Y-50358768D01*
X133514979Y-50283808D01*
X133507757Y-50280128D01*
X133507756Y-50280127D01*
X133507755Y-50280127D01*
X133343011Y-50226598D01*
X133343009Y-50226597D01*
X133343008Y-50226597D01*
X133211581Y-50205781D01*
X133171921Y-50199500D01*
X132998699Y-50199500D01*
X132959038Y-50205781D01*
X132827612Y-50226597D01*
X132662862Y-50280128D01*
X132508521Y-50358768D01*
X132436025Y-50411440D01*
X132368382Y-50460586D01*
X132368380Y-50460588D01*
X132368379Y-50460588D01*
X132245898Y-50583069D01*
X132245898Y-50583070D01*
X132245896Y-50583072D01*
X132202169Y-50643256D01*
X132144078Y-50723211D01*
X132065438Y-50877552D01*
X132011907Y-51042302D01*
X131984810Y-51213389D01*
X131984810Y-51899902D01*
X131976165Y-51929342D01*
X131969642Y-51959329D01*
X131965887Y-51964344D01*
X131965125Y-51966941D01*
X131948491Y-51987583D01*
X131857491Y-52078583D01*
X131796168Y-52112068D01*
X131726476Y-52107084D01*
X131670543Y-52065212D01*
X131646126Y-51999748D01*
X131645810Y-51990902D01*
X131645810Y-51213389D01*
X131618712Y-51042299D01*
X131565183Y-50877555D01*
X131486542Y-50723212D01*
X131384724Y-50583072D01*
X131262238Y-50460586D01*
X131122098Y-50358768D01*
X130974979Y-50283808D01*
X130967757Y-50280128D01*
X130967756Y-50280127D01*
X130967755Y-50280127D01*
X130803011Y-50226598D01*
X130803009Y-50226597D01*
X130803008Y-50226597D01*
X130671581Y-50205781D01*
X130631921Y-50199500D01*
X130458699Y-50199500D01*
X130419038Y-50205781D01*
X130287612Y-50226597D01*
X130122862Y-50280128D01*
X129968521Y-50358768D01*
X129896025Y-50411440D01*
X129828382Y-50460586D01*
X129828380Y-50460588D01*
X129828379Y-50460588D01*
X129705898Y-50583069D01*
X129705898Y-50583070D01*
X129705896Y-50583072D01*
X129662169Y-50643256D01*
X129604078Y-50723211D01*
X129525438Y-50877552D01*
X129471907Y-51042302D01*
X129444810Y-51213389D01*
X129444810Y-51899902D01*
X129436165Y-51929342D01*
X129429642Y-51959329D01*
X129425887Y-51964344D01*
X129425125Y-51966941D01*
X129408491Y-51987583D01*
X129316991Y-52079083D01*
X129255668Y-52112568D01*
X129185976Y-52107584D01*
X129130043Y-52065712D01*
X129105626Y-52000248D01*
X129105310Y-51991402D01*
X129105310Y-51950000D01*
X128320996Y-51950000D01*
X128325390Y-51945606D01*
X128378051Y-51854394D01*
X128405310Y-51752661D01*
X128405310Y-51647339D01*
X128378051Y-51545606D01*
X128325390Y-51454394D01*
X128320996Y-51450000D01*
X129105310Y-51450000D01*
X129105310Y-51213428D01*
X129078224Y-51042415D01*
X129024718Y-50877742D01*
X128946114Y-50723475D01*
X128844342Y-50583397D01*
X128721912Y-50460967D01*
X128581834Y-50359195D01*
X128427567Y-50280591D01*
X128262899Y-50227087D01*
X128262891Y-50227085D01*
X128255310Y-50225884D01*
X128255310Y-51384314D01*
X128250916Y-51379920D01*
X128159704Y-51327259D01*
X128057971Y-51300000D01*
X127952649Y-51300000D01*
X127850916Y-51327259D01*
X127759704Y-51379920D01*
X127755310Y-51384314D01*
X127755310Y-50225884D01*
X127755309Y-50225884D01*
X127747728Y-50227085D01*
X127747720Y-50227087D01*
X127583052Y-50280591D01*
X127428785Y-50359195D01*
X127288707Y-50460967D01*
X127166277Y-50583397D01*
X127064505Y-50723475D01*
X126985901Y-50877742D01*
X126932395Y-51042415D01*
X126905310Y-51213428D01*
X126905310Y-51450000D01*
X127689624Y-51450000D01*
X127685230Y-51454394D01*
X127632569Y-51545606D01*
X127605310Y-51647339D01*
X127605310Y-51752661D01*
X127632569Y-51854394D01*
X127685230Y-51945606D01*
X127689624Y-51950000D01*
X126905310Y-51950000D01*
X126905310Y-52186571D01*
X126932395Y-52357584D01*
X126985901Y-52522257D01*
X127064505Y-52676524D01*
X127166277Y-52816602D01*
X127288707Y-52939032D01*
X127428785Y-53040804D01*
X127583054Y-53119408D01*
X127747725Y-53172914D01*
X127747724Y-53172914D01*
X127755309Y-53174115D01*
X127755310Y-53174114D01*
X127755310Y-52015686D01*
X127759704Y-52020080D01*
X127850916Y-52072741D01*
X127952649Y-52100000D01*
X128057971Y-52100000D01*
X128159704Y-52072741D01*
X128250916Y-52020080D01*
X128255310Y-52015686D01*
X128255310Y-53089402D01*
X128235625Y-53156441D01*
X128218991Y-53177083D01*
X117220931Y-64175143D01*
X117159608Y-64208628D01*
X117089916Y-64203644D01*
X117033983Y-64161772D01*
X117009566Y-64096308D01*
X117009250Y-64087462D01*
X117009250Y-48100097D01*
X117028935Y-48033058D01*
X117045569Y-48012416D01*
X118521167Y-46536819D01*
X118582490Y-46503334D01*
X118608848Y-46500500D01*
X134826253Y-46500500D01*
X135899903Y-46500500D01*
X135966942Y-46520185D01*
X135987584Y-46536819D01*
X139862205Y-50411440D01*
X139895690Y-50472763D01*
X139890706Y-50542455D01*
X139868830Y-50579634D01*
X139865906Y-50583057D01*
X139764078Y-50723211D01*
X139685438Y-50877552D01*
X139631907Y-51042302D01*
X139604810Y-51213389D01*
X139604810Y-52186610D01*
X139624316Y-52309771D01*
X139631908Y-52357701D01*
X139685437Y-52522445D01*
X139764078Y-52676788D01*
X139865896Y-52816928D01*
X139988382Y-52939414D01*
X140128522Y-53041232D01*
X140282865Y-53119873D01*
X140447609Y-53173402D01*
X140618699Y-53200500D01*
X140618700Y-53200500D01*
X140791920Y-53200500D01*
X140791921Y-53200500D01*
X140963011Y-53173402D01*
X141127755Y-53119873D01*
X141282098Y-53041232D01*
X141422238Y-52939414D01*
X141544724Y-52816928D01*
X141646542Y-52676788D01*
X141725183Y-52522445D01*
X141778712Y-52357701D01*
X141805810Y-52186611D01*
X141805810Y-51213428D01*
X142145310Y-51213428D01*
X142145310Y-51450000D01*
X142929624Y-51450000D01*
X142925230Y-51454394D01*
X142872569Y-51545606D01*
X142845310Y-51647339D01*
X142845310Y-51752661D01*
X142872569Y-51854394D01*
X142925230Y-51945606D01*
X142929624Y-51950000D01*
X142145310Y-51950000D01*
X142145310Y-52186571D01*
X142172395Y-52357584D01*
X142225901Y-52522257D01*
X142304505Y-52676524D01*
X142406277Y-52816602D01*
X142528707Y-52939032D01*
X142668785Y-53040804D01*
X142823054Y-53119408D01*
X142987725Y-53172914D01*
X142987724Y-53172914D01*
X142995309Y-53174115D01*
X142995310Y-53174114D01*
X142995310Y-52015686D01*
X142999704Y-52020080D01*
X143090916Y-52072741D01*
X143192649Y-52100000D01*
X143297971Y-52100000D01*
X143399704Y-52072741D01*
X143490916Y-52020080D01*
X143495310Y-52015686D01*
X143495310Y-53174115D01*
X143502894Y-53172914D01*
X143667565Y-53119408D01*
X143821834Y-53040804D01*
X143961912Y-52939032D01*
X144084342Y-52816602D01*
X144186114Y-52676524D01*
X144264718Y-52522257D01*
X144318224Y-52357584D01*
X144345310Y-52186571D01*
X144345310Y-51950000D01*
X143560996Y-51950000D01*
X143565390Y-51945606D01*
X143618051Y-51854394D01*
X143645310Y-51752661D01*
X143645310Y-51647339D01*
X143618051Y-51545606D01*
X143565390Y-51454394D01*
X143560996Y-51450000D01*
X144345310Y-51450000D01*
X144345310Y-51213428D01*
X144345304Y-51213389D01*
X144684810Y-51213389D01*
X144684810Y-52186610D01*
X144704316Y-52309771D01*
X144711908Y-52357701D01*
X144765437Y-52522445D01*
X144844078Y-52676788D01*
X144945896Y-52816928D01*
X145068382Y-52939414D01*
X145208522Y-53041232D01*
X145362865Y-53119873D01*
X145527609Y-53173402D01*
X145698699Y-53200500D01*
X145698700Y-53200500D01*
X145871920Y-53200500D01*
X145871921Y-53200500D01*
X146043011Y-53173402D01*
X146207755Y-53119873D01*
X146362098Y-53041232D01*
X146502238Y-52939414D01*
X146624724Y-52816928D01*
X146726542Y-52676788D01*
X146805183Y-52522445D01*
X146858712Y-52357701D01*
X146885810Y-52186611D01*
X146885810Y-51213389D01*
X147224810Y-51213389D01*
X147224810Y-52186610D01*
X147244316Y-52309771D01*
X147251908Y-52357701D01*
X147305437Y-52522445D01*
X147384078Y-52676788D01*
X147485896Y-52816928D01*
X147608382Y-52939414D01*
X147748522Y-53041232D01*
X147902865Y-53119873D01*
X148067609Y-53173402D01*
X148238699Y-53200500D01*
X148238700Y-53200500D01*
X148411920Y-53200500D01*
X148411921Y-53200500D01*
X148583011Y-53173402D01*
X148747755Y-53119873D01*
X148902098Y-53041232D01*
X149042238Y-52939414D01*
X149164724Y-52816928D01*
X149266542Y-52676788D01*
X149345183Y-52522445D01*
X149398712Y-52357701D01*
X149425810Y-52186611D01*
X149425810Y-51213389D01*
X149764810Y-51213389D01*
X149764810Y-52186610D01*
X149784316Y-52309771D01*
X149791908Y-52357701D01*
X149845437Y-52522445D01*
X149924078Y-52676788D01*
X150025896Y-52816928D01*
X150148382Y-52939414D01*
X150288522Y-53041232D01*
X150442865Y-53119873D01*
X150607609Y-53173402D01*
X150778699Y-53200500D01*
X150778700Y-53200500D01*
X150951920Y-53200500D01*
X150951921Y-53200500D01*
X151123011Y-53173402D01*
X151287755Y-53119873D01*
X151442098Y-53041232D01*
X151582238Y-52939414D01*
X151704724Y-52816928D01*
X151806542Y-52676788D01*
X151885183Y-52522445D01*
X151938712Y-52357701D01*
X151965810Y-52186611D01*
X151965810Y-51213389D01*
X151938712Y-51042299D01*
X151885183Y-50877555D01*
X151806542Y-50723212D01*
X151704724Y-50583072D01*
X151582238Y-50460586D01*
X151442098Y-50358768D01*
X151294979Y-50283808D01*
X151287757Y-50280128D01*
X151287756Y-50280127D01*
X151287755Y-50280127D01*
X151123011Y-50226598D01*
X151123009Y-50226597D01*
X151123008Y-50226597D01*
X150991581Y-50205781D01*
X150951921Y-50199500D01*
X150778699Y-50199500D01*
X150739038Y-50205781D01*
X150607612Y-50226597D01*
X150442862Y-50280128D01*
X150288521Y-50358768D01*
X150216025Y-50411440D01*
X150148382Y-50460586D01*
X150148380Y-50460588D01*
X150148379Y-50460588D01*
X150025898Y-50583069D01*
X150025898Y-50583070D01*
X150025896Y-50583072D01*
X149982169Y-50643256D01*
X149924078Y-50723211D01*
X149845438Y-50877552D01*
X149791907Y-51042302D01*
X149764810Y-51213389D01*
X149425810Y-51213389D01*
X149398712Y-51042299D01*
X149345183Y-50877555D01*
X149266542Y-50723212D01*
X149164724Y-50583072D01*
X149042238Y-50460586D01*
X148902098Y-50358768D01*
X148754979Y-50283808D01*
X148747757Y-50280128D01*
X148747756Y-50280127D01*
X148747755Y-50280127D01*
X148583011Y-50226598D01*
X148583009Y-50226597D01*
X148583008Y-50226597D01*
X148451581Y-50205781D01*
X148411921Y-50199500D01*
X148238699Y-50199500D01*
X148199038Y-50205781D01*
X148067612Y-50226597D01*
X147902862Y-50280128D01*
X147748521Y-50358768D01*
X147676025Y-50411440D01*
X147608382Y-50460586D01*
X147608380Y-50460588D01*
X147608379Y-50460588D01*
X147485898Y-50583069D01*
X147485898Y-50583070D01*
X147485896Y-50583072D01*
X147442169Y-50643256D01*
X147384078Y-50723211D01*
X147305438Y-50877552D01*
X147251907Y-51042302D01*
X147224810Y-51213389D01*
X146885810Y-51213389D01*
X146858712Y-51042299D01*
X146805183Y-50877555D01*
X146726542Y-50723212D01*
X146624724Y-50583072D01*
X146502238Y-50460586D01*
X146362098Y-50358768D01*
X146214979Y-50283808D01*
X146207757Y-50280128D01*
X146207756Y-50280127D01*
X146207755Y-50280127D01*
X146043011Y-50226598D01*
X146043009Y-50226597D01*
X146043008Y-50226597D01*
X145911581Y-50205781D01*
X145871921Y-50199500D01*
X145698699Y-50199500D01*
X145659038Y-50205781D01*
X145527612Y-50226597D01*
X145362862Y-50280128D01*
X145208521Y-50358768D01*
X145136025Y-50411440D01*
X145068382Y-50460586D01*
X145068380Y-50460588D01*
X145068379Y-50460588D01*
X144945898Y-50583069D01*
X144945898Y-50583070D01*
X144945896Y-50583072D01*
X144902169Y-50643256D01*
X144844078Y-50723211D01*
X144765438Y-50877552D01*
X144711907Y-51042302D01*
X144684810Y-51213389D01*
X144345304Y-51213389D01*
X144318224Y-51042415D01*
X144264718Y-50877742D01*
X144186114Y-50723475D01*
X144084342Y-50583397D01*
X143961912Y-50460967D01*
X143821834Y-50359195D01*
X143667567Y-50280591D01*
X143502899Y-50227087D01*
X143502891Y-50227085D01*
X143495310Y-50225884D01*
X143495310Y-51384314D01*
X143490916Y-51379920D01*
X143399704Y-51327259D01*
X143297971Y-51300000D01*
X143192649Y-51300000D01*
X143090916Y-51327259D01*
X142999704Y-51379920D01*
X142995310Y-51384314D01*
X142995310Y-50225884D01*
X142995309Y-50225884D01*
X142987728Y-50227085D01*
X142987720Y-50227087D01*
X142823052Y-50280591D01*
X142668785Y-50359195D01*
X142528707Y-50460967D01*
X142406277Y-50583397D01*
X142304505Y-50723475D01*
X142225901Y-50877742D01*
X142172395Y-51042415D01*
X142145310Y-51213428D01*
X141805810Y-51213428D01*
X141805810Y-51213389D01*
X141778712Y-51042299D01*
X141725183Y-50877555D01*
X141646542Y-50723212D01*
X141544724Y-50583072D01*
X141422238Y-50460586D01*
X141356150Y-50412569D01*
X141313486Y-50357240D01*
X141306097Y-50328431D01*
X141305811Y-50326258D01*
X141305811Y-50326253D01*
X141264887Y-50173526D01*
X141264883Y-50173519D01*
X141185834Y-50036600D01*
X141185828Y-50036592D01*
X139575208Y-48425972D01*
X137861415Y-46712180D01*
X137827931Y-46650858D01*
X137832915Y-46581166D01*
X137874787Y-46525233D01*
X137940251Y-46500816D01*
X137949097Y-46500500D01*
X138463331Y-46500500D01*
X138463347Y-46500501D01*
X138470943Y-46500501D01*
X138629054Y-46500501D01*
X138629057Y-46500501D01*
X138781785Y-46459577D01*
X138851233Y-46419481D01*
X138918716Y-46380520D01*
X139030520Y-46268716D01*
X139030520Y-46268714D01*
X139040724Y-46258511D01*
X139040728Y-46258506D01*
X141338713Y-43960521D01*
X141338716Y-43960520D01*
X141450520Y-43848716D01*
X141500639Y-43761904D01*
X141529577Y-43711785D01*
X141570501Y-43559057D01*
X141570501Y-43400943D01*
X141570501Y-43393348D01*
X141570500Y-43393330D01*
X141570500Y-43195718D01*
X141590185Y-43128679D01*
X141638207Y-43085233D01*
X141677815Y-43065052D01*
X141677815Y-43065051D01*
X141677816Y-43065051D01*
X141769193Y-42998661D01*
X141849786Y-42940109D01*
X141849788Y-42940106D01*
X141849792Y-42940104D01*
X142000104Y-42789792D01*
X142000106Y-42789788D01*
X142000109Y-42789786D01*
X142085890Y-42671717D01*
X142125051Y-42617816D01*
X142129793Y-42608508D01*
X142177763Y-42557711D01*
X142245583Y-42540911D01*
X142311719Y-42563445D01*
X142350763Y-42608500D01*
X142355373Y-42617547D01*
X142394728Y-42671716D01*
X143027037Y-42039408D01*
X143044075Y-42102993D01*
X143109901Y-42217007D01*
X143202993Y-42310099D01*
X143317007Y-42375925D01*
X143380590Y-42392962D01*
X142748282Y-43025269D01*
X142748282Y-43025270D01*
X142802449Y-43064624D01*
X142991782Y-43161095D01*
X143193870Y-43226757D01*
X143403754Y-43260000D01*
X143616246Y-43260000D01*
X143826127Y-43226757D01*
X143826130Y-43226757D01*
X144028217Y-43161095D01*
X144217554Y-43064622D01*
X144271716Y-43025270D01*
X144271717Y-43025270D01*
X143639408Y-42392962D01*
X143702993Y-42375925D01*
X143817007Y-42310099D01*
X143910099Y-42217007D01*
X143975925Y-42102993D01*
X143992962Y-42039409D01*
X144625270Y-42671717D01*
X144625270Y-42671716D01*
X144664622Y-42617555D01*
X144669232Y-42608507D01*
X144717205Y-42557709D01*
X144785025Y-42540912D01*
X144851161Y-42563447D01*
X144890204Y-42608504D01*
X144894949Y-42617817D01*
X145019890Y-42789786D01*
X145170213Y-42940109D01*
X145342179Y-43065048D01*
X145342181Y-43065049D01*
X145342184Y-43065051D01*
X145531588Y-43161557D01*
X145733757Y-43227246D01*
X145943713Y-43260500D01*
X145943714Y-43260500D01*
X146156286Y-43260500D01*
X146156287Y-43260500D01*
X146366243Y-43227246D01*
X146568412Y-43161557D01*
X146757816Y-43065051D01*
X146844138Y-43002335D01*
X146929786Y-42940109D01*
X146929788Y-42940106D01*
X146929792Y-42940104D01*
X147080104Y-42789792D01*
X147080106Y-42789788D01*
X147080109Y-42789786D01*
X147205048Y-42617820D01*
X147205047Y-42617820D01*
X147205051Y-42617816D01*
X147209514Y-42609054D01*
X147257488Y-42558259D01*
X147325308Y-42541463D01*
X147391444Y-42563999D01*
X147430486Y-42609056D01*
X147434951Y-42617820D01*
X147559890Y-42789786D01*
X147710213Y-42940109D01*
X147882179Y-43065048D01*
X147882181Y-43065049D01*
X147882184Y-43065051D01*
X148071588Y-43161557D01*
X148273757Y-43227246D01*
X148483713Y-43260500D01*
X148483714Y-43260500D01*
X148696286Y-43260500D01*
X148696287Y-43260500D01*
X148906243Y-43227246D01*
X149108412Y-43161557D01*
X149297816Y-43065051D01*
X149384138Y-43002335D01*
X149469786Y-42940109D01*
X149469788Y-42940106D01*
X149469792Y-42940104D01*
X149620104Y-42789792D01*
X149620106Y-42789788D01*
X149620109Y-42789786D01*
X149745048Y-42617820D01*
X149745047Y-42617820D01*
X149745051Y-42617816D01*
X149749514Y-42609054D01*
X149797488Y-42558259D01*
X149865308Y-42541463D01*
X149931444Y-42563999D01*
X149970486Y-42609056D01*
X149974951Y-42617820D01*
X150099890Y-42789786D01*
X150250213Y-42940109D01*
X150422179Y-43065048D01*
X150422181Y-43065049D01*
X150422184Y-43065051D01*
X150611588Y-43161557D01*
X150813757Y-43227246D01*
X151023713Y-43260500D01*
X151023714Y-43260500D01*
X151236286Y-43260500D01*
X151236287Y-43260500D01*
X151446243Y-43227246D01*
X151648412Y-43161557D01*
X151837816Y-43065051D01*
X151924138Y-43002335D01*
X152009786Y-42940109D01*
X152009788Y-42940106D01*
X152009792Y-42940104D01*
X152160104Y-42789792D01*
X152160106Y-42789788D01*
X152160109Y-42789786D01*
X152285048Y-42617820D01*
X152285047Y-42617820D01*
X152285051Y-42617816D01*
X152289514Y-42609054D01*
X152337488Y-42558259D01*
X152405308Y-42541463D01*
X152471444Y-42563999D01*
X152510486Y-42609056D01*
X152514951Y-42617820D01*
X152639890Y-42789786D01*
X152790213Y-42940109D01*
X152962179Y-43065048D01*
X152962181Y-43065049D01*
X152962184Y-43065051D01*
X153151588Y-43161557D01*
X153353757Y-43227246D01*
X153563713Y-43260500D01*
X153563714Y-43260500D01*
X153776286Y-43260500D01*
X153776287Y-43260500D01*
X153986243Y-43227246D01*
X154028523Y-43213507D01*
X154098362Y-43211511D01*
X154154522Y-43243757D01*
X156763181Y-45852416D01*
X156777884Y-45879343D01*
X156794477Y-45905162D01*
X156795368Y-45911362D01*
X156796666Y-45913739D01*
X156799500Y-45940097D01*
X156799500Y-46175500D01*
X156779815Y-46242539D01*
X156727011Y-46288294D01*
X156675500Y-46299500D01*
X155379057Y-46299500D01*
X155220942Y-46299500D01*
X155068215Y-46340423D01*
X155068214Y-46340423D01*
X155068212Y-46340424D01*
X155068209Y-46340425D01*
X155018096Y-46369359D01*
X155018095Y-46369360D01*
X154974689Y-46394420D01*
X154931285Y-46419479D01*
X154931284Y-46419480D01*
X152924791Y-48425972D01*
X152924789Y-48425975D01*
X152874671Y-48512784D01*
X152874669Y-48512786D01*
X152845735Y-48562899D01*
X152845734Y-48562900D01*
X152845733Y-48562905D01*
X152804809Y-48715633D01*
X152804809Y-48715635D01*
X152804809Y-48883736D01*
X152804810Y-48883749D01*
X152804810Y-50312814D01*
X152785125Y-50379853D01*
X152753697Y-50413131D01*
X152688382Y-50460585D01*
X152565898Y-50583069D01*
X152565898Y-50583070D01*
X152565896Y-50583072D01*
X152522169Y-50643256D01*
X152464078Y-50723211D01*
X152385438Y-50877552D01*
X152331907Y-51042302D01*
X152304810Y-51213389D01*
X152304810Y-52186610D01*
X152324316Y-52309771D01*
X152331908Y-52357701D01*
X152385437Y-52522445D01*
X152464078Y-52676788D01*
X152565896Y-52816928D01*
X152688382Y-52939414D01*
X152828522Y-53041232D01*
X152982865Y-53119873D01*
X153147609Y-53173402D01*
X153318699Y-53200500D01*
X153318700Y-53200500D01*
X153491920Y-53200500D01*
X153491921Y-53200500D01*
X153663011Y-53173402D01*
X153827755Y-53119873D01*
X153982098Y-53041232D01*
X154122238Y-52939414D01*
X154244724Y-52816928D01*
X154346542Y-52676788D01*
X154425183Y-52522445D01*
X154478712Y-52357701D01*
X154505810Y-52186611D01*
X154505810Y-51213389D01*
X154478712Y-51042299D01*
X154425183Y-50877555D01*
X154346542Y-50723212D01*
X154244724Y-50583072D01*
X154122238Y-50460586D01*
X154056923Y-50413131D01*
X154014258Y-50357801D01*
X154005810Y-50312814D01*
X154005810Y-49094787D01*
X154025495Y-49027748D01*
X154042129Y-49007106D01*
X155512416Y-47536819D01*
X155573739Y-47503334D01*
X155600097Y-47500500D01*
X157320943Y-47500500D01*
X172799903Y-47500500D01*
X172866942Y-47520185D01*
X172887584Y-47536819D01*
X176871931Y-51521166D01*
X176905416Y-51582489D01*
X176908250Y-51608847D01*
X176908250Y-79134342D01*
X176888565Y-79201381D01*
X176835761Y-79247136D01*
X176766603Y-79257080D01*
X176703047Y-79228055D01*
X176696569Y-79222023D01*
X174862129Y-77387583D01*
X174828644Y-77326260D01*
X174825810Y-77299902D01*
X174825810Y-76613389D01*
X174798712Y-76442302D01*
X174798712Y-76442299D01*
X174745183Y-76277555D01*
X174666542Y-76123212D01*
X174564724Y-75983072D01*
X174442238Y-75860586D01*
X174302098Y-75758768D01*
X174147755Y-75680127D01*
X173983011Y-75626598D01*
X173983009Y-75626597D01*
X173983008Y-75626597D01*
X173851581Y-75605781D01*
X173811921Y-75599500D01*
X173638699Y-75599500D01*
X173599038Y-75605781D01*
X173467612Y-75626597D01*
X173302862Y-75680128D01*
X173148521Y-75758768D01*
X173068566Y-75816859D01*
X173008382Y-75860586D01*
X173008380Y-75860588D01*
X173008379Y-75860588D01*
X172885898Y-75983069D01*
X172885898Y-75983070D01*
X172885896Y-75983072D01*
X172885660Y-75983397D01*
X172784078Y-76123211D01*
X172705438Y-76277552D01*
X172651907Y-76442302D01*
X172624810Y-76613389D01*
X172624810Y-77586611D01*
X172651908Y-77757701D01*
X172705437Y-77922445D01*
X172784078Y-78076788D01*
X172885896Y-78216928D01*
X173008382Y-78339414D01*
X173148522Y-78441232D01*
X173302865Y-78519873D01*
X173467609Y-78573402D01*
X173638699Y-78600500D01*
X173638700Y-78600500D01*
X173811920Y-78600500D01*
X173811921Y-78600500D01*
X173983011Y-78573402D01*
X174147755Y-78519873D01*
X174165654Y-78510753D01*
X174234323Y-78497856D01*
X174299063Y-78524132D01*
X174309630Y-78533556D01*
X175893181Y-80117106D01*
X175926666Y-80178429D01*
X175929500Y-80204787D01*
X175929500Y-88599903D01*
X175909815Y-88666942D01*
X175893181Y-88687584D01*
X171947584Y-92633181D01*
X171886261Y-92666666D01*
X171859903Y-92669500D01*
X137113440Y-92669500D01*
X137072519Y-92680464D01*
X137072519Y-92680465D01*
X137035251Y-92690451D01*
X136960714Y-92710423D01*
X136960709Y-92710426D01*
X136823790Y-92789475D01*
X136823782Y-92789481D01*
X136711978Y-92901286D01*
X133187871Y-96425392D01*
X133126548Y-96458877D01*
X133078778Y-96458368D01*
X133078575Y-96459652D01*
X132878736Y-96428000D01*
X132878731Y-96428000D01*
X132681269Y-96428000D01*
X132681264Y-96428000D01*
X132486236Y-96458889D01*
X132298441Y-96519908D01*
X132122495Y-96609558D01*
X131962753Y-96725615D01*
X131823115Y-96865253D01*
X131718318Y-97009497D01*
X131662989Y-97052163D01*
X131593375Y-97058142D01*
X131531580Y-97025537D01*
X131497223Y-96964698D01*
X131494000Y-96936612D01*
X131494000Y-96880672D01*
X131493999Y-96880655D01*
X131487598Y-96821127D01*
X131487596Y-96821120D01*
X131437354Y-96686413D01*
X131437350Y-96686406D01*
X131351190Y-96571312D01*
X131351187Y-96571309D01*
X131236093Y-96485149D01*
X131236086Y-96485145D01*
X131101379Y-96434903D01*
X131101372Y-96434901D01*
X131041844Y-96428500D01*
X130490000Y-96428500D01*
X130490000Y-97249488D01*
X130432993Y-97216575D01*
X130305826Y-97182500D01*
X130174174Y-97182500D01*
X130047007Y-97216575D01*
X129990000Y-97249488D01*
X129990000Y-96428500D01*
X129438155Y-96428500D01*
X129378627Y-96434901D01*
X129378620Y-96434903D01*
X129243913Y-96485145D01*
X129243906Y-96485149D01*
X129128812Y-96571309D01*
X129128809Y-96571312D01*
X129042649Y-96686406D01*
X129042645Y-96686413D01*
X128992403Y-96821120D01*
X128992401Y-96821127D01*
X128986000Y-96880655D01*
X128986000Y-97432500D01*
X129806988Y-97432500D01*
X129774075Y-97489507D01*
X129740000Y-97616674D01*
X129740000Y-97748326D01*
X129774075Y-97875493D01*
X129806988Y-97932500D01*
X128986000Y-97932500D01*
X128986000Y-98484344D01*
X128992401Y-98543872D01*
X128992403Y-98543879D01*
X129042645Y-98678586D01*
X129042649Y-98678593D01*
X129128809Y-98793687D01*
X129128812Y-98793690D01*
X129243906Y-98879850D01*
X129243913Y-98879854D01*
X129378620Y-98930096D01*
X129378627Y-98930098D01*
X129438155Y-98936499D01*
X129438172Y-98936500D01*
X129990000Y-98936500D01*
X129990000Y-98115512D01*
X130047007Y-98148425D01*
X130174174Y-98182500D01*
X130305826Y-98182500D01*
X130432993Y-98148425D01*
X130490000Y-98115512D01*
X130490000Y-98936500D01*
X131041828Y-98936500D01*
X131041844Y-98936499D01*
X131101372Y-98930098D01*
X131101379Y-98930096D01*
X131236086Y-98879854D01*
X131236093Y-98879850D01*
X131351187Y-98793690D01*
X131351190Y-98793687D01*
X131437350Y-98678593D01*
X131437354Y-98678586D01*
X131487596Y-98543879D01*
X131487598Y-98543872D01*
X131493999Y-98484344D01*
X131494000Y-98484327D01*
X131494000Y-98428387D01*
X131513685Y-98361348D01*
X131566489Y-98315593D01*
X131635647Y-98305649D01*
X131699203Y-98334674D01*
X131718314Y-98355497D01*
X131767767Y-98423563D01*
X131823121Y-98499752D01*
X131962753Y-98639384D01*
X132088622Y-98730831D01*
X132122499Y-98755444D01*
X132298439Y-98845091D01*
X132405417Y-98879850D01*
X132486236Y-98906110D01*
X132681264Y-98937000D01*
X132681269Y-98937000D01*
X132878736Y-98937000D01*
X133073763Y-98906110D01*
X133261561Y-98845091D01*
X133437501Y-98755444D01*
X133547533Y-98675502D01*
X133597246Y-98639384D01*
X133597248Y-98639381D01*
X133597252Y-98639379D01*
X133736879Y-98499752D01*
X133736881Y-98499748D01*
X133736884Y-98499746D01*
X133852941Y-98340005D01*
X133852942Y-98340004D01*
X133852944Y-98340001D01*
X133939517Y-98170093D01*
X133987490Y-98119300D01*
X134055311Y-98102505D01*
X134121446Y-98125042D01*
X134160482Y-98170093D01*
X134233614Y-98313620D01*
X134247058Y-98340005D01*
X134363115Y-98499746D01*
X134502753Y-98639384D01*
X134628622Y-98730831D01*
X134662499Y-98755444D01*
X134838439Y-98845091D01*
X134945417Y-98879850D01*
X135026236Y-98906110D01*
X135221264Y-98937000D01*
X135221269Y-98937000D01*
X135418736Y-98937000D01*
X135613763Y-98906110D01*
X135801561Y-98845091D01*
X135977501Y-98755444D01*
X136087533Y-98675502D01*
X136137246Y-98639384D01*
X136137248Y-98639381D01*
X136137252Y-98639379D01*
X136276879Y-98499752D01*
X136276881Y-98499748D01*
X136276884Y-98499746D01*
X136392941Y-98340005D01*
X136392942Y-98340004D01*
X136392944Y-98340001D01*
X136479517Y-98170093D01*
X136527490Y-98119300D01*
X136595311Y-98102505D01*
X136661446Y-98125042D01*
X136700482Y-98170093D01*
X136773614Y-98313620D01*
X136787058Y-98340005D01*
X136903115Y-98499746D01*
X137042749Y-98639380D01*
X137042754Y-98639384D01*
X137092466Y-98675502D01*
X137135132Y-98730831D01*
X137141111Y-98800445D01*
X137108506Y-98862240D01*
X137107262Y-98863501D01*
X135537584Y-100433181D01*
X135476261Y-100466666D01*
X135449903Y-100469500D01*
X129350097Y-100469500D01*
X129283058Y-100449815D01*
X129262416Y-100433181D01*
X127886819Y-99057584D01*
X127853334Y-98996261D01*
X127850500Y-98969903D01*
X127850500Y-94459059D01*
X127850501Y-94459046D01*
X127850501Y-94290945D01*
X127850501Y-94290943D01*
X127809577Y-94138215D01*
X127780639Y-94088095D01*
X127730520Y-94001284D01*
X127618716Y-93889480D01*
X127618715Y-93889479D01*
X127614385Y-93885149D01*
X127614374Y-93885139D01*
X125445569Y-91716334D01*
X125412084Y-91655011D01*
X125409250Y-91628653D01*
X125409250Y-85462135D01*
X126919500Y-85462135D01*
X126919500Y-87257870D01*
X126919501Y-87257876D01*
X126925908Y-87317483D01*
X126976202Y-87452328D01*
X126976206Y-87452335D01*
X127062452Y-87567544D01*
X127062455Y-87567547D01*
X127177664Y-87653793D01*
X127177671Y-87653797D01*
X127312517Y-87704091D01*
X127312516Y-87704091D01*
X127319444Y-87704835D01*
X127372127Y-87710500D01*
X129167872Y-87710499D01*
X129227483Y-87704091D01*
X129362331Y-87653796D01*
X129477546Y-87567546D01*
X129563796Y-87452331D01*
X129612810Y-87320916D01*
X129654681Y-87264984D01*
X129720145Y-87240566D01*
X129788418Y-87255417D01*
X129816673Y-87276569D01*
X129930213Y-87390109D01*
X130102179Y-87515048D01*
X130102181Y-87515049D01*
X130102184Y-87515051D01*
X130291588Y-87611557D01*
X130493757Y-87677246D01*
X130703713Y-87710500D01*
X130703714Y-87710500D01*
X130916286Y-87710500D01*
X130916287Y-87710500D01*
X131126243Y-87677246D01*
X131328412Y-87611557D01*
X131517816Y-87515051D01*
X131604138Y-87452335D01*
X131689786Y-87390109D01*
X131689788Y-87390106D01*
X131689792Y-87390104D01*
X131840104Y-87239792D01*
X131840106Y-87239788D01*
X131840109Y-87239786D01*
X131965048Y-87067820D01*
X131965047Y-87067820D01*
X131965051Y-87067816D01*
X131969514Y-87059054D01*
X132017488Y-87008259D01*
X132085308Y-86991463D01*
X132151444Y-87013999D01*
X132190486Y-87059056D01*
X132194951Y-87067820D01*
X132319890Y-87239786D01*
X132470213Y-87390109D01*
X132642179Y-87515048D01*
X132642181Y-87515049D01*
X132642184Y-87515051D01*
X132831588Y-87611557D01*
X133033757Y-87677246D01*
X133243713Y-87710500D01*
X133243714Y-87710500D01*
X133456286Y-87710500D01*
X133456287Y-87710500D01*
X133666243Y-87677246D01*
X133868412Y-87611557D01*
X134057816Y-87515051D01*
X134144138Y-87452335D01*
X134229786Y-87390109D01*
X134229788Y-87390106D01*
X134229792Y-87390104D01*
X134380104Y-87239792D01*
X134380106Y-87239788D01*
X134380109Y-87239786D01*
X134505048Y-87067820D01*
X134505047Y-87067820D01*
X134505051Y-87067816D01*
X134509514Y-87059054D01*
X134557488Y-87008259D01*
X134625308Y-86991463D01*
X134691444Y-87013999D01*
X134730486Y-87059056D01*
X134734951Y-87067820D01*
X134859890Y-87239786D01*
X135010213Y-87390109D01*
X135182179Y-87515048D01*
X135182181Y-87515049D01*
X135182184Y-87515051D01*
X135371588Y-87611557D01*
X135573757Y-87677246D01*
X135783713Y-87710500D01*
X135783714Y-87710500D01*
X135996286Y-87710500D01*
X135996287Y-87710500D01*
X136206243Y-87677246D01*
X136408412Y-87611557D01*
X136597816Y-87515051D01*
X136684138Y-87452335D01*
X136769786Y-87390109D01*
X136769788Y-87390106D01*
X136769792Y-87390104D01*
X136920104Y-87239792D01*
X136920106Y-87239788D01*
X136920109Y-87239786D01*
X137045048Y-87067820D01*
X137045047Y-87067820D01*
X137045051Y-87067816D01*
X137049514Y-87059054D01*
X137097488Y-87008259D01*
X137165308Y-86991463D01*
X137231444Y-87013999D01*
X137270486Y-87059056D01*
X137274951Y-87067820D01*
X137399890Y-87239786D01*
X137550213Y-87390109D01*
X137722179Y-87515048D01*
X137722181Y-87515049D01*
X137722184Y-87515051D01*
X137911588Y-87611557D01*
X138113757Y-87677246D01*
X138323713Y-87710500D01*
X138323714Y-87710500D01*
X138536286Y-87710500D01*
X138536287Y-87710500D01*
X138746243Y-87677246D01*
X138948412Y-87611557D01*
X139137816Y-87515051D01*
X139224138Y-87452335D01*
X139309786Y-87390109D01*
X139309788Y-87390106D01*
X139309792Y-87390104D01*
X139460104Y-87239792D01*
X139460106Y-87239788D01*
X139460109Y-87239786D01*
X139585048Y-87067820D01*
X139585047Y-87067820D01*
X139585051Y-87067816D01*
X139589514Y-87059054D01*
X139637488Y-87008259D01*
X139705308Y-86991463D01*
X139771444Y-87013999D01*
X139810486Y-87059056D01*
X139814951Y-87067820D01*
X139939890Y-87239786D01*
X140090213Y-87390109D01*
X140262179Y-87515048D01*
X140262181Y-87515049D01*
X140262184Y-87515051D01*
X140451588Y-87611557D01*
X140653757Y-87677246D01*
X140863713Y-87710500D01*
X140863714Y-87710500D01*
X141076286Y-87710500D01*
X141076287Y-87710500D01*
X141286243Y-87677246D01*
X141488412Y-87611557D01*
X141677816Y-87515051D01*
X141764138Y-87452335D01*
X141849786Y-87390109D01*
X141849788Y-87390106D01*
X141849792Y-87390104D01*
X142000104Y-87239792D01*
X142000106Y-87239788D01*
X142000109Y-87239786D01*
X142125048Y-87067820D01*
X142125047Y-87067820D01*
X142125051Y-87067816D01*
X142129514Y-87059054D01*
X142177488Y-87008259D01*
X142245308Y-86991463D01*
X142311444Y-87013999D01*
X142350486Y-87059056D01*
X142354951Y-87067820D01*
X142479890Y-87239786D01*
X142630213Y-87390109D01*
X142802179Y-87515048D01*
X142802181Y-87515049D01*
X142802184Y-87515051D01*
X142991588Y-87611557D01*
X143193757Y-87677246D01*
X143403713Y-87710500D01*
X143403714Y-87710500D01*
X143616286Y-87710500D01*
X143616287Y-87710500D01*
X143826243Y-87677246D01*
X144028412Y-87611557D01*
X144217816Y-87515051D01*
X144304138Y-87452335D01*
X144389786Y-87390109D01*
X144389788Y-87390106D01*
X144389792Y-87390104D01*
X144540104Y-87239792D01*
X144540106Y-87239788D01*
X144540109Y-87239786D01*
X144665048Y-87067820D01*
X144665047Y-87067820D01*
X144665051Y-87067816D01*
X144669514Y-87059054D01*
X144717488Y-87008259D01*
X144785308Y-86991463D01*
X144851444Y-87013999D01*
X144890486Y-87059056D01*
X144894951Y-87067820D01*
X145019890Y-87239786D01*
X145170213Y-87390109D01*
X145342179Y-87515048D01*
X145342181Y-87515049D01*
X145342184Y-87515051D01*
X145531588Y-87611557D01*
X145733757Y-87677246D01*
X145943713Y-87710500D01*
X145943714Y-87710500D01*
X146156286Y-87710500D01*
X146156287Y-87710500D01*
X146366243Y-87677246D01*
X146568412Y-87611557D01*
X146757816Y-87515051D01*
X146844138Y-87452335D01*
X146929786Y-87390109D01*
X146929788Y-87390106D01*
X146929792Y-87390104D01*
X147080104Y-87239792D01*
X147080106Y-87239788D01*
X147080109Y-87239786D01*
X147205048Y-87067820D01*
X147205047Y-87067820D01*
X147205051Y-87067816D01*
X147209514Y-87059054D01*
X147257488Y-87008259D01*
X147325308Y-86991463D01*
X147391444Y-87013999D01*
X147430486Y-87059056D01*
X147434951Y-87067820D01*
X147559890Y-87239786D01*
X147710213Y-87390109D01*
X147882179Y-87515048D01*
X147882181Y-87515049D01*
X147882184Y-87515051D01*
X148071588Y-87611557D01*
X148273757Y-87677246D01*
X148483713Y-87710500D01*
X148483714Y-87710500D01*
X148696286Y-87710500D01*
X148696287Y-87710500D01*
X148906243Y-87677246D01*
X149108412Y-87611557D01*
X149297816Y-87515051D01*
X149384138Y-87452335D01*
X149469786Y-87390109D01*
X149469788Y-87390106D01*
X149469792Y-87390104D01*
X149620104Y-87239792D01*
X149620106Y-87239788D01*
X149620109Y-87239786D01*
X149745048Y-87067820D01*
X149745047Y-87067820D01*
X149745051Y-87067816D01*
X149749514Y-87059054D01*
X149797488Y-87008259D01*
X149865308Y-86991463D01*
X149931444Y-87013999D01*
X149970486Y-87059056D01*
X149974951Y-87067820D01*
X150099890Y-87239786D01*
X150250213Y-87390109D01*
X150422179Y-87515048D01*
X150422181Y-87515049D01*
X150422184Y-87515051D01*
X150611588Y-87611557D01*
X150813757Y-87677246D01*
X151023713Y-87710500D01*
X151023714Y-87710500D01*
X151236286Y-87710500D01*
X151236287Y-87710500D01*
X151446243Y-87677246D01*
X151648412Y-87611557D01*
X151837816Y-87515051D01*
X151924138Y-87452335D01*
X152009786Y-87390109D01*
X152009788Y-87390106D01*
X152009792Y-87390104D01*
X152160104Y-87239792D01*
X152160106Y-87239788D01*
X152160109Y-87239786D01*
X152285048Y-87067820D01*
X152285047Y-87067820D01*
X152285051Y-87067816D01*
X152289514Y-87059054D01*
X152337488Y-87008259D01*
X152405308Y-86991463D01*
X152471444Y-87013999D01*
X152510486Y-87059056D01*
X152514951Y-87067820D01*
X152639890Y-87239786D01*
X152790213Y-87390109D01*
X152962179Y-87515048D01*
X152962181Y-87515049D01*
X152962184Y-87515051D01*
X153151588Y-87611557D01*
X153353757Y-87677246D01*
X153563713Y-87710500D01*
X153563714Y-87710500D01*
X153776286Y-87710500D01*
X153776287Y-87710500D01*
X153986243Y-87677246D01*
X154188412Y-87611557D01*
X154377816Y-87515051D01*
X154464138Y-87452335D01*
X154549786Y-87390109D01*
X154549788Y-87390106D01*
X154549792Y-87390104D01*
X154700104Y-87239792D01*
X154700106Y-87239788D01*
X154700109Y-87239786D01*
X154825048Y-87067820D01*
X154825047Y-87067820D01*
X154825051Y-87067816D01*
X154829514Y-87059054D01*
X154877488Y-87008259D01*
X154945308Y-86991463D01*
X155011444Y-87013999D01*
X155050486Y-87059056D01*
X155054951Y-87067820D01*
X155179890Y-87239786D01*
X155330213Y-87390109D01*
X155502179Y-87515048D01*
X155502181Y-87515049D01*
X155502184Y-87515051D01*
X155691588Y-87611557D01*
X155893757Y-87677246D01*
X156103713Y-87710500D01*
X156103714Y-87710500D01*
X156316286Y-87710500D01*
X156316287Y-87710500D01*
X156526243Y-87677246D01*
X156728412Y-87611557D01*
X156917816Y-87515051D01*
X157004138Y-87452335D01*
X157089786Y-87390109D01*
X157089788Y-87390106D01*
X157089792Y-87390104D01*
X157240104Y-87239792D01*
X157240106Y-87239788D01*
X157240109Y-87239786D01*
X157365048Y-87067820D01*
X157365047Y-87067820D01*
X157365051Y-87067816D01*
X157369514Y-87059054D01*
X157417488Y-87008259D01*
X157485308Y-86991463D01*
X157551444Y-87013999D01*
X157590486Y-87059056D01*
X157594951Y-87067820D01*
X157719890Y-87239786D01*
X157870213Y-87390109D01*
X158042179Y-87515048D01*
X158042181Y-87515049D01*
X158042184Y-87515051D01*
X158231588Y-87611557D01*
X158433757Y-87677246D01*
X158643713Y-87710500D01*
X158643714Y-87710500D01*
X158856286Y-87710500D01*
X158856287Y-87710500D01*
X159066243Y-87677246D01*
X159268412Y-87611557D01*
X159457816Y-87515051D01*
X159544138Y-87452335D01*
X159629786Y-87390109D01*
X159629788Y-87390106D01*
X159629792Y-87390104D01*
X159780104Y-87239792D01*
X159780106Y-87239788D01*
X159780109Y-87239786D01*
X159865890Y-87121717D01*
X159905051Y-87067816D01*
X159909793Y-87058508D01*
X159957763Y-87007711D01*
X160025583Y-86990911D01*
X160091719Y-87013445D01*
X160130763Y-87058500D01*
X160135373Y-87067547D01*
X160174728Y-87121716D01*
X160807037Y-86489408D01*
X160824075Y-86552993D01*
X160889901Y-86667007D01*
X160982993Y-86760099D01*
X161097007Y-86825925D01*
X161160590Y-86842962D01*
X160528282Y-87475269D01*
X160528282Y-87475270D01*
X160582449Y-87514624D01*
X160771782Y-87611095D01*
X160973870Y-87676757D01*
X161183754Y-87710000D01*
X161396246Y-87710000D01*
X161606127Y-87676757D01*
X161606130Y-87676757D01*
X161808217Y-87611095D01*
X161997554Y-87514622D01*
X162051716Y-87475270D01*
X162051717Y-87475270D01*
X161419408Y-86842962D01*
X161482993Y-86825925D01*
X161597007Y-86760099D01*
X161690099Y-86667007D01*
X161755925Y-86552993D01*
X161772962Y-86489408D01*
X162405270Y-87121717D01*
X162405270Y-87121716D01*
X162444622Y-87067555D01*
X162449232Y-87058507D01*
X162497205Y-87007709D01*
X162565025Y-86990912D01*
X162631161Y-87013447D01*
X162670204Y-87058504D01*
X162674949Y-87067817D01*
X162799890Y-87239786D01*
X162950213Y-87390109D01*
X163122179Y-87515048D01*
X163122181Y-87515049D01*
X163122184Y-87515051D01*
X163311588Y-87611557D01*
X163513757Y-87677246D01*
X163723713Y-87710500D01*
X163723714Y-87710500D01*
X163936286Y-87710500D01*
X163936287Y-87710500D01*
X164146243Y-87677246D01*
X164348412Y-87611557D01*
X164537816Y-87515051D01*
X164624138Y-87452335D01*
X164709786Y-87390109D01*
X164709788Y-87390106D01*
X164709792Y-87390104D01*
X164860104Y-87239792D01*
X164860106Y-87239788D01*
X164860109Y-87239786D01*
X164985048Y-87067820D01*
X164985047Y-87067820D01*
X164985051Y-87067816D01*
X164989514Y-87059054D01*
X165037488Y-87008259D01*
X165105308Y-86991463D01*
X165171444Y-87013999D01*
X165210486Y-87059056D01*
X165214951Y-87067820D01*
X165339890Y-87239786D01*
X165490213Y-87390109D01*
X165662179Y-87515048D01*
X165662181Y-87515049D01*
X165662184Y-87515051D01*
X165851588Y-87611557D01*
X166053757Y-87677246D01*
X166263713Y-87710500D01*
X166263714Y-87710500D01*
X166476286Y-87710500D01*
X166476287Y-87710500D01*
X166686243Y-87677246D01*
X166888412Y-87611557D01*
X167077816Y-87515051D01*
X167164138Y-87452335D01*
X167249786Y-87390109D01*
X167249788Y-87390106D01*
X167249792Y-87390104D01*
X167400104Y-87239792D01*
X167400106Y-87239788D01*
X167400109Y-87239786D01*
X167525048Y-87067820D01*
X167525047Y-87067820D01*
X167525051Y-87067816D01*
X167529514Y-87059054D01*
X167577488Y-87008259D01*
X167645308Y-86991463D01*
X167711444Y-87013999D01*
X167750486Y-87059056D01*
X167754951Y-87067820D01*
X167879890Y-87239786D01*
X168030213Y-87390109D01*
X168202179Y-87515048D01*
X168202181Y-87515049D01*
X168202184Y-87515051D01*
X168391588Y-87611557D01*
X168593757Y-87677246D01*
X168803713Y-87710500D01*
X168803714Y-87710500D01*
X169016286Y-87710500D01*
X169016287Y-87710500D01*
X169226243Y-87677246D01*
X169428412Y-87611557D01*
X169617816Y-87515051D01*
X169704138Y-87452335D01*
X169789786Y-87390109D01*
X169789788Y-87390106D01*
X169789792Y-87390104D01*
X169940104Y-87239792D01*
X169940106Y-87239788D01*
X169940109Y-87239786D01*
X170065048Y-87067820D01*
X170065047Y-87067820D01*
X170065051Y-87067816D01*
X170069514Y-87059054D01*
X170117488Y-87008259D01*
X170185308Y-86991463D01*
X170251444Y-87013999D01*
X170290486Y-87059056D01*
X170294951Y-87067820D01*
X170419890Y-87239786D01*
X170570213Y-87390109D01*
X170742179Y-87515048D01*
X170742181Y-87515049D01*
X170742184Y-87515051D01*
X170931588Y-87611557D01*
X171133757Y-87677246D01*
X171343713Y-87710500D01*
X171343714Y-87710500D01*
X171556286Y-87710500D01*
X171556287Y-87710500D01*
X171766243Y-87677246D01*
X171968412Y-87611557D01*
X172157816Y-87515051D01*
X172244138Y-87452335D01*
X172329786Y-87390109D01*
X172329788Y-87390106D01*
X172329792Y-87390104D01*
X172480104Y-87239792D01*
X172480106Y-87239788D01*
X172480109Y-87239786D01*
X172605048Y-87067820D01*
X172605047Y-87067820D01*
X172605051Y-87067816D01*
X172609514Y-87059054D01*
X172657488Y-87008259D01*
X172725308Y-86991463D01*
X172791444Y-87013999D01*
X172830486Y-87059056D01*
X172834951Y-87067820D01*
X172959890Y-87239786D01*
X173110213Y-87390109D01*
X173282179Y-87515048D01*
X173282181Y-87515049D01*
X173282184Y-87515051D01*
X173471588Y-87611557D01*
X173673757Y-87677246D01*
X173883713Y-87710500D01*
X173883714Y-87710500D01*
X174096286Y-87710500D01*
X174096287Y-87710500D01*
X174306243Y-87677246D01*
X174508412Y-87611557D01*
X174697816Y-87515051D01*
X174784138Y-87452335D01*
X174869786Y-87390109D01*
X174869788Y-87390106D01*
X174869792Y-87390104D01*
X175020104Y-87239792D01*
X175020106Y-87239788D01*
X175020109Y-87239786D01*
X175145048Y-87067820D01*
X175145047Y-87067820D01*
X175145051Y-87067816D01*
X175241557Y-86878412D01*
X175307246Y-86676243D01*
X175340500Y-86466287D01*
X175340500Y-86253713D01*
X175307246Y-86043757D01*
X175241557Y-85841588D01*
X175145051Y-85652184D01*
X175145049Y-85652181D01*
X175145048Y-85652179D01*
X175020109Y-85480213D01*
X174869786Y-85329890D01*
X174697820Y-85204951D01*
X174508414Y-85108444D01*
X174508413Y-85108443D01*
X174508412Y-85108443D01*
X174306243Y-85042754D01*
X174306241Y-85042753D01*
X174306240Y-85042753D01*
X174144957Y-85017208D01*
X174096287Y-85009500D01*
X173883713Y-85009500D01*
X173835042Y-85017208D01*
X173673760Y-85042753D01*
X173471585Y-85108444D01*
X173282179Y-85204951D01*
X173110213Y-85329890D01*
X172959890Y-85480213D01*
X172834949Y-85652182D01*
X172830484Y-85660946D01*
X172782509Y-85711742D01*
X172714688Y-85728536D01*
X172648553Y-85705998D01*
X172609516Y-85660946D01*
X172605050Y-85652182D01*
X172480109Y-85480213D01*
X172329786Y-85329890D01*
X172157820Y-85204951D01*
X171968414Y-85108444D01*
X171968413Y-85108443D01*
X171968412Y-85108443D01*
X171766243Y-85042754D01*
X171766241Y-85042753D01*
X171766240Y-85042753D01*
X171604957Y-85017208D01*
X171556287Y-85009500D01*
X171343713Y-85009500D01*
X171295042Y-85017208D01*
X171133760Y-85042753D01*
X170931585Y-85108444D01*
X170742179Y-85204951D01*
X170570213Y-85329890D01*
X170419890Y-85480213D01*
X170294949Y-85652182D01*
X170290484Y-85660946D01*
X170242509Y-85711742D01*
X170174688Y-85728536D01*
X170108553Y-85705998D01*
X170069516Y-85660946D01*
X170065050Y-85652182D01*
X169940109Y-85480213D01*
X169789786Y-85329890D01*
X169617820Y-85204951D01*
X169428414Y-85108444D01*
X169428413Y-85108443D01*
X169428412Y-85108443D01*
X169226243Y-85042754D01*
X169226241Y-85042753D01*
X169226240Y-85042753D01*
X169064957Y-85017208D01*
X169016287Y-85009500D01*
X168803713Y-85009500D01*
X168755042Y-85017208D01*
X168593760Y-85042753D01*
X168391585Y-85108444D01*
X168202179Y-85204951D01*
X168030213Y-85329890D01*
X167879890Y-85480213D01*
X167754949Y-85652182D01*
X167750484Y-85660946D01*
X167702509Y-85711742D01*
X167634688Y-85728536D01*
X167568553Y-85705998D01*
X167529516Y-85660946D01*
X167525050Y-85652182D01*
X167400109Y-85480213D01*
X167249786Y-85329890D01*
X167077820Y-85204951D01*
X166888414Y-85108444D01*
X166888413Y-85108443D01*
X166888412Y-85108443D01*
X166686243Y-85042754D01*
X166686241Y-85042753D01*
X166686240Y-85042753D01*
X166524957Y-85017208D01*
X166476287Y-85009500D01*
X166263713Y-85009500D01*
X166215042Y-85017208D01*
X166053760Y-85042753D01*
X165851585Y-85108444D01*
X165662179Y-85204951D01*
X165490213Y-85329890D01*
X165339890Y-85480213D01*
X165214949Y-85652182D01*
X165210484Y-85660946D01*
X165162509Y-85711742D01*
X165094688Y-85728536D01*
X165028553Y-85705998D01*
X164989516Y-85660946D01*
X164985050Y-85652182D01*
X164860109Y-85480213D01*
X164709786Y-85329890D01*
X164537820Y-85204951D01*
X164348414Y-85108444D01*
X164348413Y-85108443D01*
X164348412Y-85108443D01*
X164146243Y-85042754D01*
X164146241Y-85042753D01*
X164146240Y-85042753D01*
X163984957Y-85017208D01*
X163936287Y-85009500D01*
X163723713Y-85009500D01*
X163675042Y-85017208D01*
X163513760Y-85042753D01*
X163311585Y-85108444D01*
X163122179Y-85204951D01*
X162950213Y-85329890D01*
X162799890Y-85480213D01*
X162674949Y-85652182D01*
X162670202Y-85661499D01*
X162622227Y-85712293D01*
X162554405Y-85729087D01*
X162488271Y-85706548D01*
X162449234Y-85661495D01*
X162444626Y-85652452D01*
X162405270Y-85598282D01*
X162405269Y-85598282D01*
X161772962Y-86230590D01*
X161755925Y-86167007D01*
X161690099Y-86052993D01*
X161597007Y-85959901D01*
X161482993Y-85894075D01*
X161419409Y-85877037D01*
X162051716Y-85244728D01*
X161997550Y-85205375D01*
X161808217Y-85108904D01*
X161606129Y-85043242D01*
X161396246Y-85010000D01*
X161183754Y-85010000D01*
X160973872Y-85043242D01*
X160973869Y-85043242D01*
X160771782Y-85108904D01*
X160582439Y-85205380D01*
X160528282Y-85244727D01*
X160528282Y-85244728D01*
X161160591Y-85877037D01*
X161097007Y-85894075D01*
X160982993Y-85959901D01*
X160889901Y-86052993D01*
X160824075Y-86167007D01*
X160807037Y-86230591D01*
X160174728Y-85598282D01*
X160174727Y-85598282D01*
X160135380Y-85652440D01*
X160135376Y-85652446D01*
X160130760Y-85661505D01*
X160082781Y-85712297D01*
X160014959Y-85729087D01*
X159948826Y-85706543D01*
X159909794Y-85661493D01*
X159905051Y-85652184D01*
X159905049Y-85652181D01*
X159905048Y-85652179D01*
X159780109Y-85480213D01*
X159629786Y-85329890D01*
X159457820Y-85204951D01*
X159268414Y-85108444D01*
X159268413Y-85108443D01*
X159268412Y-85108443D01*
X159066243Y-85042754D01*
X159066241Y-85042753D01*
X159066240Y-85042753D01*
X158904957Y-85017208D01*
X158856287Y-85009500D01*
X158643713Y-85009500D01*
X158595042Y-85017208D01*
X158433760Y-85042753D01*
X158231585Y-85108444D01*
X158042179Y-85204951D01*
X157870213Y-85329890D01*
X157719890Y-85480213D01*
X157594949Y-85652182D01*
X157590484Y-85660946D01*
X157542509Y-85711742D01*
X157474688Y-85728536D01*
X157408553Y-85705998D01*
X157369516Y-85660946D01*
X157365050Y-85652182D01*
X157240109Y-85480213D01*
X157089786Y-85329890D01*
X156917820Y-85204951D01*
X156728414Y-85108444D01*
X156728413Y-85108443D01*
X156728412Y-85108443D01*
X156526243Y-85042754D01*
X156526241Y-85042753D01*
X156526240Y-85042753D01*
X156364957Y-85017208D01*
X156316287Y-85009500D01*
X156103713Y-85009500D01*
X156055042Y-85017208D01*
X155893760Y-85042753D01*
X155691585Y-85108444D01*
X155502179Y-85204951D01*
X155330213Y-85329890D01*
X155179890Y-85480213D01*
X155054949Y-85652182D01*
X155050484Y-85660946D01*
X155002509Y-85711742D01*
X154934688Y-85728536D01*
X154868553Y-85705998D01*
X154829516Y-85660946D01*
X154825050Y-85652182D01*
X154700109Y-85480213D01*
X154549786Y-85329890D01*
X154377820Y-85204951D01*
X154188414Y-85108444D01*
X154188413Y-85108443D01*
X154188412Y-85108443D01*
X153986243Y-85042754D01*
X153986241Y-85042753D01*
X153986240Y-85042753D01*
X153824957Y-85017208D01*
X153776287Y-85009500D01*
X153563713Y-85009500D01*
X153515042Y-85017208D01*
X153353760Y-85042753D01*
X153151585Y-85108444D01*
X152962179Y-85204951D01*
X152790213Y-85329890D01*
X152639890Y-85480213D01*
X152514949Y-85652182D01*
X152510484Y-85660946D01*
X152462509Y-85711742D01*
X152394688Y-85728536D01*
X152328553Y-85705998D01*
X152289516Y-85660946D01*
X152285050Y-85652182D01*
X152160109Y-85480213D01*
X152009786Y-85329890D01*
X151837820Y-85204951D01*
X151648414Y-85108444D01*
X151648413Y-85108443D01*
X151648412Y-85108443D01*
X151446243Y-85042754D01*
X151446241Y-85042753D01*
X151446240Y-85042753D01*
X151284957Y-85017208D01*
X151236287Y-85009500D01*
X151023713Y-85009500D01*
X150975042Y-85017208D01*
X150813760Y-85042753D01*
X150611585Y-85108444D01*
X150422179Y-85204951D01*
X150250213Y-85329890D01*
X150099890Y-85480213D01*
X149974949Y-85652182D01*
X149970484Y-85660946D01*
X149922509Y-85711742D01*
X149854688Y-85728536D01*
X149788553Y-85705998D01*
X149749516Y-85660946D01*
X149745050Y-85652182D01*
X149620109Y-85480213D01*
X149469786Y-85329890D01*
X149297820Y-85204951D01*
X149108414Y-85108444D01*
X149108413Y-85108443D01*
X149108412Y-85108443D01*
X148906243Y-85042754D01*
X148906241Y-85042753D01*
X148906240Y-85042753D01*
X148744957Y-85017208D01*
X148696287Y-85009500D01*
X148483713Y-85009500D01*
X148435042Y-85017208D01*
X148273760Y-85042753D01*
X148071585Y-85108444D01*
X147882179Y-85204951D01*
X147710213Y-85329890D01*
X147559890Y-85480213D01*
X147434949Y-85652182D01*
X147430484Y-85660946D01*
X147382509Y-85711742D01*
X147314688Y-85728536D01*
X147248553Y-85705998D01*
X147209516Y-85660946D01*
X147205050Y-85652182D01*
X147080109Y-85480213D01*
X146929786Y-85329890D01*
X146757820Y-85204951D01*
X146568414Y-85108444D01*
X146568413Y-85108443D01*
X146568412Y-85108443D01*
X146366243Y-85042754D01*
X146366241Y-85042753D01*
X146366240Y-85042753D01*
X146204957Y-85017208D01*
X146156287Y-85009500D01*
X145943713Y-85009500D01*
X145895042Y-85017208D01*
X145733760Y-85042753D01*
X145531585Y-85108444D01*
X145342179Y-85204951D01*
X145170213Y-85329890D01*
X145019890Y-85480213D01*
X144894949Y-85652182D01*
X144890484Y-85660946D01*
X144842509Y-85711742D01*
X144774688Y-85728536D01*
X144708553Y-85705998D01*
X144669516Y-85660946D01*
X144665050Y-85652182D01*
X144540109Y-85480213D01*
X144389786Y-85329890D01*
X144217820Y-85204951D01*
X144028414Y-85108444D01*
X144028413Y-85108443D01*
X144028412Y-85108443D01*
X143826243Y-85042754D01*
X143826241Y-85042753D01*
X143826240Y-85042753D01*
X143664957Y-85017208D01*
X143616287Y-85009500D01*
X143403713Y-85009500D01*
X143355042Y-85017208D01*
X143193760Y-85042753D01*
X142991585Y-85108444D01*
X142802179Y-85204951D01*
X142630213Y-85329890D01*
X142479890Y-85480213D01*
X142354949Y-85652182D01*
X142350484Y-85660946D01*
X142302509Y-85711742D01*
X142234688Y-85728536D01*
X142168553Y-85705998D01*
X142129516Y-85660946D01*
X142125050Y-85652182D01*
X142000109Y-85480213D01*
X141849786Y-85329890D01*
X141677820Y-85204951D01*
X141488414Y-85108444D01*
X141488413Y-85108443D01*
X141488412Y-85108443D01*
X141286243Y-85042754D01*
X141286241Y-85042753D01*
X141286240Y-85042753D01*
X141124957Y-85017208D01*
X141076287Y-85009500D01*
X140863713Y-85009500D01*
X140815042Y-85017208D01*
X140653760Y-85042753D01*
X140451585Y-85108444D01*
X140262179Y-85204951D01*
X140090213Y-85329890D01*
X139939890Y-85480213D01*
X139814949Y-85652182D01*
X139810484Y-85660946D01*
X139762509Y-85711742D01*
X139694688Y-85728536D01*
X139628553Y-85705998D01*
X139589516Y-85660946D01*
X139585050Y-85652182D01*
X139460109Y-85480213D01*
X139309786Y-85329890D01*
X139137820Y-85204951D01*
X138948414Y-85108444D01*
X138948413Y-85108443D01*
X138948412Y-85108443D01*
X138746243Y-85042754D01*
X138746241Y-85042753D01*
X138746240Y-85042753D01*
X138584957Y-85017208D01*
X138536287Y-85009500D01*
X138323713Y-85009500D01*
X138275042Y-85017208D01*
X138113760Y-85042753D01*
X137911585Y-85108444D01*
X137722179Y-85204951D01*
X137550213Y-85329890D01*
X137399890Y-85480213D01*
X137274949Y-85652182D01*
X137270484Y-85660946D01*
X137222509Y-85711742D01*
X137154688Y-85728536D01*
X137088553Y-85705998D01*
X137049516Y-85660946D01*
X137045050Y-85652182D01*
X136920109Y-85480213D01*
X136769786Y-85329890D01*
X136597820Y-85204951D01*
X136408414Y-85108444D01*
X136408413Y-85108443D01*
X136408412Y-85108443D01*
X136206243Y-85042754D01*
X136206241Y-85042753D01*
X136206240Y-85042753D01*
X136044957Y-85017208D01*
X135996287Y-85009500D01*
X135783713Y-85009500D01*
X135735042Y-85017208D01*
X135573760Y-85042753D01*
X135371585Y-85108444D01*
X135182179Y-85204951D01*
X135010213Y-85329890D01*
X134859890Y-85480213D01*
X134734949Y-85652182D01*
X134730484Y-85660946D01*
X134682509Y-85711742D01*
X134614688Y-85728536D01*
X134548553Y-85705998D01*
X134509516Y-85660946D01*
X134505050Y-85652182D01*
X134380109Y-85480213D01*
X134229786Y-85329890D01*
X134057820Y-85204951D01*
X133868414Y-85108444D01*
X133868413Y-85108443D01*
X133868412Y-85108443D01*
X133666243Y-85042754D01*
X133666241Y-85042753D01*
X133666240Y-85042753D01*
X133504957Y-85017208D01*
X133456287Y-85009500D01*
X133243713Y-85009500D01*
X133195042Y-85017208D01*
X133033760Y-85042753D01*
X132831585Y-85108444D01*
X132642179Y-85204951D01*
X132470213Y-85329890D01*
X132319890Y-85480213D01*
X132194949Y-85652182D01*
X132190484Y-85660946D01*
X132142509Y-85711742D01*
X132074688Y-85728536D01*
X132008553Y-85705998D01*
X131969516Y-85660946D01*
X131965050Y-85652182D01*
X131840109Y-85480213D01*
X131689786Y-85329890D01*
X131517820Y-85204951D01*
X131328414Y-85108444D01*
X131328413Y-85108443D01*
X131328412Y-85108443D01*
X131126243Y-85042754D01*
X131126241Y-85042753D01*
X131126240Y-85042753D01*
X130964957Y-85017208D01*
X130916287Y-85009500D01*
X130703713Y-85009500D01*
X130655042Y-85017208D01*
X130493760Y-85042753D01*
X130291585Y-85108444D01*
X130102179Y-85204951D01*
X129930215Y-85329889D01*
X129816673Y-85443431D01*
X129755350Y-85476915D01*
X129685658Y-85471931D01*
X129629725Y-85430059D01*
X129612810Y-85399082D01*
X129563797Y-85267671D01*
X129563793Y-85267664D01*
X129477547Y-85152455D01*
X129477544Y-85152452D01*
X129362335Y-85066206D01*
X129362328Y-85066202D01*
X129227482Y-85015908D01*
X129227483Y-85015908D01*
X129167883Y-85009501D01*
X129167881Y-85009500D01*
X129167873Y-85009500D01*
X129167864Y-85009500D01*
X127372129Y-85009500D01*
X127372123Y-85009501D01*
X127312516Y-85015908D01*
X127177671Y-85066202D01*
X127177664Y-85066206D01*
X127062455Y-85152452D01*
X127062452Y-85152455D01*
X126976206Y-85267664D01*
X126976202Y-85267671D01*
X126925908Y-85402517D01*
X126919501Y-85462116D01*
X126919500Y-85462135D01*
X125409250Y-85462135D01*
X125409250Y-76052135D01*
X126904810Y-76052135D01*
X126904810Y-78147870D01*
X126904811Y-78147876D01*
X126911218Y-78207483D01*
X126961512Y-78342328D01*
X126961516Y-78342335D01*
X127047762Y-78457544D01*
X127047765Y-78457547D01*
X127162974Y-78543793D01*
X127162981Y-78543797D01*
X127297827Y-78594091D01*
X127297826Y-78594091D01*
X127304754Y-78594835D01*
X127357437Y-78600500D01*
X128653182Y-78600499D01*
X128712793Y-78594091D01*
X128847641Y-78543796D01*
X128962856Y-78457546D01*
X129049106Y-78342331D01*
X129099401Y-78207483D01*
X129105810Y-78147873D01*
X129105809Y-76613389D01*
X129444810Y-76613389D01*
X129444810Y-77586611D01*
X129471908Y-77757701D01*
X129525437Y-77922445D01*
X129604078Y-78076788D01*
X129705896Y-78216928D01*
X129828382Y-78339414D01*
X129968522Y-78441232D01*
X130122865Y-78519873D01*
X130287609Y-78573402D01*
X130458699Y-78600500D01*
X130458700Y-78600500D01*
X130631920Y-78600500D01*
X130631921Y-78600500D01*
X130803011Y-78573402D01*
X130967755Y-78519873D01*
X131122098Y-78441232D01*
X131262238Y-78339414D01*
X131384724Y-78216928D01*
X131486542Y-78076788D01*
X131565183Y-77922445D01*
X131618712Y-77757701D01*
X131645810Y-77586611D01*
X131645810Y-76613389D01*
X131984810Y-76613389D01*
X131984810Y-77586611D01*
X132011908Y-77757701D01*
X132065437Y-77922445D01*
X132144078Y-78076788D01*
X132245896Y-78216928D01*
X132368382Y-78339414D01*
X132508522Y-78441232D01*
X132662865Y-78519873D01*
X132827609Y-78573402D01*
X132998699Y-78600500D01*
X132998700Y-78600500D01*
X133171920Y-78600500D01*
X133171921Y-78600500D01*
X133343011Y-78573402D01*
X133507755Y-78519873D01*
X133662098Y-78441232D01*
X133802238Y-78339414D01*
X133924724Y-78216928D01*
X134026542Y-78076788D01*
X134105183Y-77922445D01*
X134158712Y-77757701D01*
X134185810Y-77586611D01*
X134185810Y-76613389D01*
X134524810Y-76613389D01*
X134524810Y-77586611D01*
X134551908Y-77757701D01*
X134605437Y-77922445D01*
X134684078Y-78076788D01*
X134785896Y-78216928D01*
X134908382Y-78339414D01*
X135048522Y-78441232D01*
X135202865Y-78519873D01*
X135367609Y-78573402D01*
X135538699Y-78600500D01*
X135538700Y-78600500D01*
X135711920Y-78600500D01*
X135711921Y-78600500D01*
X135883011Y-78573402D01*
X136047755Y-78519873D01*
X136202098Y-78441232D01*
X136342238Y-78339414D01*
X136464724Y-78216928D01*
X136566542Y-78076788D01*
X136645183Y-77922445D01*
X136698712Y-77757701D01*
X136725810Y-77586611D01*
X136725810Y-76613389D01*
X137064810Y-76613389D01*
X137064810Y-77586611D01*
X137091908Y-77757701D01*
X137145437Y-77922445D01*
X137224078Y-78076788D01*
X137325896Y-78216928D01*
X137448382Y-78339414D01*
X137588522Y-78441232D01*
X137742865Y-78519873D01*
X137907609Y-78573402D01*
X138078699Y-78600500D01*
X138078700Y-78600500D01*
X138251920Y-78600500D01*
X138251921Y-78600500D01*
X138423011Y-78573402D01*
X138587755Y-78519873D01*
X138742098Y-78441232D01*
X138882238Y-78339414D01*
X139004724Y-78216928D01*
X139106542Y-78076788D01*
X139185183Y-77922445D01*
X139238712Y-77757701D01*
X139265810Y-77586611D01*
X139265810Y-76613389D01*
X139604810Y-76613389D01*
X139604810Y-77586611D01*
X139631908Y-77757701D01*
X139685437Y-77922445D01*
X139764078Y-78076788D01*
X139865896Y-78216928D01*
X139988382Y-78339414D01*
X140128522Y-78441232D01*
X140282865Y-78519873D01*
X140447609Y-78573402D01*
X140618699Y-78600500D01*
X140618700Y-78600500D01*
X140791920Y-78600500D01*
X140791921Y-78600500D01*
X140963011Y-78573402D01*
X141127755Y-78519873D01*
X141282098Y-78441232D01*
X141422238Y-78339414D01*
X141544724Y-78216928D01*
X141646542Y-78076788D01*
X141725183Y-77922445D01*
X141778712Y-77757701D01*
X141805810Y-77586611D01*
X141805810Y-76613389D01*
X142144810Y-76613389D01*
X142144810Y-77586611D01*
X142171908Y-77757701D01*
X142225437Y-77922445D01*
X142304078Y-78076788D01*
X142405896Y-78216928D01*
X142528382Y-78339414D01*
X142668522Y-78441232D01*
X142822865Y-78519873D01*
X142987609Y-78573402D01*
X143158699Y-78600500D01*
X143158700Y-78600500D01*
X143331920Y-78600500D01*
X143331921Y-78600500D01*
X143503011Y-78573402D01*
X143667755Y-78519873D01*
X143822098Y-78441232D01*
X143962238Y-78339414D01*
X144084724Y-78216928D01*
X144186542Y-78076788D01*
X144265183Y-77922445D01*
X144318712Y-77757701D01*
X144345810Y-77586611D01*
X144345810Y-76613389D01*
X144684810Y-76613389D01*
X144684810Y-77586611D01*
X144711908Y-77757701D01*
X144765437Y-77922445D01*
X144844078Y-78076788D01*
X144945896Y-78216928D01*
X145068382Y-78339414D01*
X145208522Y-78441232D01*
X145362865Y-78519873D01*
X145527609Y-78573402D01*
X145698699Y-78600500D01*
X145698700Y-78600500D01*
X145871920Y-78600500D01*
X145871921Y-78600500D01*
X146043011Y-78573402D01*
X146207755Y-78519873D01*
X146362098Y-78441232D01*
X146502238Y-78339414D01*
X146624724Y-78216928D01*
X146726542Y-78076788D01*
X146805183Y-77922445D01*
X146858712Y-77757701D01*
X146885810Y-77586611D01*
X146885810Y-76613389D01*
X147224810Y-76613389D01*
X147224810Y-77586611D01*
X147251908Y-77757701D01*
X147305437Y-77922445D01*
X147384078Y-78076788D01*
X147485896Y-78216928D01*
X147608382Y-78339414D01*
X147748522Y-78441232D01*
X147902865Y-78519873D01*
X148067609Y-78573402D01*
X148238699Y-78600500D01*
X148238700Y-78600500D01*
X148411920Y-78600500D01*
X148411921Y-78600500D01*
X148583011Y-78573402D01*
X148747755Y-78519873D01*
X148902098Y-78441232D01*
X149042238Y-78339414D01*
X149164724Y-78216928D01*
X149266542Y-78076788D01*
X149345183Y-77922445D01*
X149398712Y-77757701D01*
X149425810Y-77586611D01*
X149425810Y-76613389D01*
X149764810Y-76613389D01*
X149764810Y-77586611D01*
X149791908Y-77757701D01*
X149845437Y-77922445D01*
X149924078Y-78076788D01*
X150025896Y-78216928D01*
X150148382Y-78339414D01*
X150288522Y-78441232D01*
X150442865Y-78519873D01*
X150607609Y-78573402D01*
X150778699Y-78600500D01*
X150778700Y-78600500D01*
X150951920Y-78600500D01*
X150951921Y-78600500D01*
X151123011Y-78573402D01*
X151287755Y-78519873D01*
X151442098Y-78441232D01*
X151582238Y-78339414D01*
X151704724Y-78216928D01*
X151806542Y-78076788D01*
X151885183Y-77922445D01*
X151938712Y-77757701D01*
X151965810Y-77586611D01*
X151965810Y-76613389D01*
X152304810Y-76613389D01*
X152304810Y-77586611D01*
X152331908Y-77757701D01*
X152385437Y-77922445D01*
X152464078Y-78076788D01*
X152565896Y-78216928D01*
X152688382Y-78339414D01*
X152828522Y-78441232D01*
X152982865Y-78519873D01*
X153147609Y-78573402D01*
X153318699Y-78600500D01*
X153318700Y-78600500D01*
X153491920Y-78600500D01*
X153491921Y-78600500D01*
X153663011Y-78573402D01*
X153827755Y-78519873D01*
X153982098Y-78441232D01*
X154122238Y-78339414D01*
X154244724Y-78216928D01*
X154346542Y-78076788D01*
X154425183Y-77922445D01*
X154478712Y-77757701D01*
X154505810Y-77586611D01*
X154505810Y-76613389D01*
X154844810Y-76613389D01*
X154844810Y-77586611D01*
X154871908Y-77757701D01*
X154925437Y-77922445D01*
X155004078Y-78076788D01*
X155105896Y-78216928D01*
X155228382Y-78339414D01*
X155368522Y-78441232D01*
X155522865Y-78519873D01*
X155687609Y-78573402D01*
X155858699Y-78600500D01*
X155858700Y-78600500D01*
X156031920Y-78600500D01*
X156031921Y-78600500D01*
X156203011Y-78573402D01*
X156367755Y-78519873D01*
X156522098Y-78441232D01*
X156662238Y-78339414D01*
X156784724Y-78216928D01*
X156886542Y-78076788D01*
X156965183Y-77922445D01*
X157018712Y-77757701D01*
X157045810Y-77586611D01*
X157045810Y-76613389D01*
X157384810Y-76613389D01*
X157384810Y-77586611D01*
X157411908Y-77757701D01*
X157465437Y-77922445D01*
X157544078Y-78076788D01*
X157645896Y-78216928D01*
X157768382Y-78339414D01*
X157908522Y-78441232D01*
X158062865Y-78519873D01*
X158227609Y-78573402D01*
X158398699Y-78600500D01*
X158398700Y-78600500D01*
X158571920Y-78600500D01*
X158571921Y-78600500D01*
X158743011Y-78573402D01*
X158907755Y-78519873D01*
X159062098Y-78441232D01*
X159202238Y-78339414D01*
X159324724Y-78216928D01*
X159426542Y-78076788D01*
X159505183Y-77922445D01*
X159558712Y-77757701D01*
X159585810Y-77586611D01*
X159585810Y-76613428D01*
X159925310Y-76613428D01*
X159925310Y-76850000D01*
X160709624Y-76850000D01*
X160705230Y-76854394D01*
X160652569Y-76945606D01*
X160625310Y-77047339D01*
X160625310Y-77152661D01*
X160652569Y-77254394D01*
X160705230Y-77345606D01*
X160709624Y-77350000D01*
X159925310Y-77350000D01*
X159925310Y-77586571D01*
X159952395Y-77757584D01*
X160005901Y-77922257D01*
X160084505Y-78076524D01*
X160186277Y-78216602D01*
X160308707Y-78339032D01*
X160448785Y-78440804D01*
X160603054Y-78519408D01*
X160767725Y-78572914D01*
X160767724Y-78572914D01*
X160775309Y-78574115D01*
X160775310Y-78574114D01*
X160775310Y-77415686D01*
X160779704Y-77420080D01*
X160870916Y-77472741D01*
X160972649Y-77500000D01*
X161077971Y-77500000D01*
X161179704Y-77472741D01*
X161270916Y-77420080D01*
X161275310Y-77415686D01*
X161275310Y-78574115D01*
X161282894Y-78572914D01*
X161447565Y-78519408D01*
X161601834Y-78440804D01*
X161741912Y-78339032D01*
X161864342Y-78216602D01*
X161966114Y-78076524D01*
X162044718Y-77922257D01*
X162098224Y-77757584D01*
X162125310Y-77586571D01*
X162125310Y-77350000D01*
X161340996Y-77350000D01*
X161345390Y-77345606D01*
X161398051Y-77254394D01*
X161425310Y-77152661D01*
X161425310Y-77047339D01*
X161398051Y-76945606D01*
X161345390Y-76854394D01*
X161340996Y-76850000D01*
X162125310Y-76850000D01*
X162125310Y-76613428D01*
X162125304Y-76613389D01*
X162464810Y-76613389D01*
X162464810Y-77586611D01*
X162491908Y-77757701D01*
X162545437Y-77922445D01*
X162624078Y-78076788D01*
X162725896Y-78216928D01*
X162848382Y-78339414D01*
X162988522Y-78441232D01*
X163142865Y-78519873D01*
X163307609Y-78573402D01*
X163478699Y-78600500D01*
X163478700Y-78600500D01*
X163651920Y-78600500D01*
X163651921Y-78600500D01*
X163823011Y-78573402D01*
X163987755Y-78519873D01*
X164142098Y-78441232D01*
X164282238Y-78339414D01*
X164404724Y-78216928D01*
X164506542Y-78076788D01*
X164585183Y-77922445D01*
X164638712Y-77757701D01*
X164665810Y-77586611D01*
X164665810Y-76613389D01*
X165004810Y-76613389D01*
X165004810Y-77586611D01*
X165031908Y-77757701D01*
X165085437Y-77922445D01*
X165164078Y-78076788D01*
X165265896Y-78216928D01*
X165388382Y-78339414D01*
X165528522Y-78441232D01*
X165682865Y-78519873D01*
X165847609Y-78573402D01*
X166018699Y-78600500D01*
X166018700Y-78600500D01*
X166191920Y-78600500D01*
X166191921Y-78600500D01*
X166363011Y-78573402D01*
X166527755Y-78519873D01*
X166682098Y-78441232D01*
X166822238Y-78339414D01*
X166944724Y-78216928D01*
X167046542Y-78076788D01*
X167125183Y-77922445D01*
X167178712Y-77757701D01*
X167205810Y-77586611D01*
X167205810Y-76613389D01*
X167544810Y-76613389D01*
X167544810Y-77586611D01*
X167571908Y-77757701D01*
X167625437Y-77922445D01*
X167704078Y-78076788D01*
X167805896Y-78216928D01*
X167928382Y-78339414D01*
X168068522Y-78441232D01*
X168222865Y-78519873D01*
X168387609Y-78573402D01*
X168558699Y-78600500D01*
X168558700Y-78600500D01*
X168731920Y-78600500D01*
X168731921Y-78600500D01*
X168903011Y-78573402D01*
X169067755Y-78519873D01*
X169222098Y-78441232D01*
X169362238Y-78339414D01*
X169484724Y-78216928D01*
X169586542Y-78076788D01*
X169665183Y-77922445D01*
X169718712Y-77757701D01*
X169745810Y-77586611D01*
X169745810Y-76613389D01*
X170084810Y-76613389D01*
X170084810Y-77586611D01*
X170111908Y-77757701D01*
X170165437Y-77922445D01*
X170244078Y-78076788D01*
X170345896Y-78216928D01*
X170468382Y-78339414D01*
X170608522Y-78441232D01*
X170762865Y-78519873D01*
X170927609Y-78573402D01*
X171098699Y-78600500D01*
X171098700Y-78600500D01*
X171271920Y-78600500D01*
X171271921Y-78600500D01*
X171443011Y-78573402D01*
X171607755Y-78519873D01*
X171762098Y-78441232D01*
X171902238Y-78339414D01*
X172024724Y-78216928D01*
X172126542Y-78076788D01*
X172205183Y-77922445D01*
X172258712Y-77757701D01*
X172285810Y-77586611D01*
X172285810Y-76613389D01*
X172258712Y-76442299D01*
X172205183Y-76277555D01*
X172126542Y-76123212D01*
X172024724Y-75983072D01*
X171902238Y-75860586D01*
X171762098Y-75758768D01*
X171607755Y-75680127D01*
X171443011Y-75626598D01*
X171443009Y-75626597D01*
X171443008Y-75626597D01*
X171311581Y-75605781D01*
X171271921Y-75599500D01*
X171098699Y-75599500D01*
X171059038Y-75605781D01*
X170927612Y-75626597D01*
X170762862Y-75680128D01*
X170608521Y-75758768D01*
X170528566Y-75816859D01*
X170468382Y-75860586D01*
X170468380Y-75860588D01*
X170468379Y-75860588D01*
X170345898Y-75983069D01*
X170345898Y-75983070D01*
X170345896Y-75983072D01*
X170345660Y-75983397D01*
X170244078Y-76123211D01*
X170165438Y-76277552D01*
X170111907Y-76442302D01*
X170084810Y-76613389D01*
X169745810Y-76613389D01*
X169718712Y-76442299D01*
X169665183Y-76277555D01*
X169586542Y-76123212D01*
X169484724Y-75983072D01*
X169362238Y-75860586D01*
X169222098Y-75758768D01*
X169067755Y-75680127D01*
X168903011Y-75626598D01*
X168903009Y-75626597D01*
X168903008Y-75626597D01*
X168771581Y-75605781D01*
X168731921Y-75599500D01*
X168558699Y-75599500D01*
X168519038Y-75605781D01*
X168387612Y-75626597D01*
X168222862Y-75680128D01*
X168068521Y-75758768D01*
X167988566Y-75816859D01*
X167928382Y-75860586D01*
X167928380Y-75860588D01*
X167928379Y-75860588D01*
X167805898Y-75983069D01*
X167805898Y-75983070D01*
X167805896Y-75983072D01*
X167805660Y-75983397D01*
X167704078Y-76123211D01*
X167625438Y-76277552D01*
X167571907Y-76442302D01*
X167544810Y-76613389D01*
X167205810Y-76613389D01*
X167178712Y-76442299D01*
X167125183Y-76277555D01*
X167046542Y-76123212D01*
X166944724Y-75983072D01*
X166822238Y-75860586D01*
X166682098Y-75758768D01*
X166527755Y-75680127D01*
X166363011Y-75626598D01*
X166363009Y-75626597D01*
X166363008Y-75626597D01*
X166231581Y-75605781D01*
X166191921Y-75599500D01*
X166018699Y-75599500D01*
X165979038Y-75605781D01*
X165847612Y-75626597D01*
X165682862Y-75680128D01*
X165528521Y-75758768D01*
X165448566Y-75816859D01*
X165388382Y-75860586D01*
X165388380Y-75860588D01*
X165388379Y-75860588D01*
X165265898Y-75983069D01*
X165265898Y-75983070D01*
X165265896Y-75983072D01*
X165265660Y-75983397D01*
X165164078Y-76123211D01*
X165085438Y-76277552D01*
X165031907Y-76442302D01*
X165004810Y-76613389D01*
X164665810Y-76613389D01*
X164638712Y-76442299D01*
X164585183Y-76277555D01*
X164506542Y-76123212D01*
X164404724Y-75983072D01*
X164282238Y-75860586D01*
X164142098Y-75758768D01*
X163987755Y-75680127D01*
X163823011Y-75626598D01*
X163823009Y-75626597D01*
X163823008Y-75626597D01*
X163691581Y-75605781D01*
X163651921Y-75599500D01*
X163478699Y-75599500D01*
X163439038Y-75605781D01*
X163307612Y-75626597D01*
X163142862Y-75680128D01*
X162988521Y-75758768D01*
X162908566Y-75816859D01*
X162848382Y-75860586D01*
X162848380Y-75860588D01*
X162848379Y-75860588D01*
X162725898Y-75983069D01*
X162725898Y-75983070D01*
X162725896Y-75983072D01*
X162725660Y-75983397D01*
X162624078Y-76123211D01*
X162545438Y-76277552D01*
X162491907Y-76442302D01*
X162464810Y-76613389D01*
X162125304Y-76613389D01*
X162098224Y-76442415D01*
X162044718Y-76277742D01*
X161966114Y-76123475D01*
X161864342Y-75983397D01*
X161741912Y-75860967D01*
X161601834Y-75759195D01*
X161447567Y-75680591D01*
X161282899Y-75627087D01*
X161282891Y-75627085D01*
X161275310Y-75625884D01*
X161275310Y-76784314D01*
X161270916Y-76779920D01*
X161179704Y-76727259D01*
X161077971Y-76700000D01*
X160972649Y-76700000D01*
X160870916Y-76727259D01*
X160779704Y-76779920D01*
X160775310Y-76784314D01*
X160775310Y-75625884D01*
X160775309Y-75625884D01*
X160767728Y-75627085D01*
X160767720Y-75627087D01*
X160603052Y-75680591D01*
X160448785Y-75759195D01*
X160308707Y-75860967D01*
X160186277Y-75983397D01*
X160084505Y-76123475D01*
X160005901Y-76277742D01*
X159952395Y-76442415D01*
X159925310Y-76613428D01*
X159585810Y-76613428D01*
X159585810Y-76613389D01*
X159558712Y-76442299D01*
X159505183Y-76277555D01*
X159426542Y-76123212D01*
X159324724Y-75983072D01*
X159202238Y-75860586D01*
X159062098Y-75758768D01*
X158907755Y-75680127D01*
X158743011Y-75626598D01*
X158743009Y-75626597D01*
X158743008Y-75626597D01*
X158611581Y-75605781D01*
X158571921Y-75599500D01*
X158398699Y-75599500D01*
X158359038Y-75605781D01*
X158227612Y-75626597D01*
X158062862Y-75680128D01*
X157908521Y-75758768D01*
X157828566Y-75816859D01*
X157768382Y-75860586D01*
X157768380Y-75860588D01*
X157768379Y-75860588D01*
X157645898Y-75983069D01*
X157645898Y-75983070D01*
X157645896Y-75983072D01*
X157645660Y-75983397D01*
X157544078Y-76123211D01*
X157465438Y-76277552D01*
X157411907Y-76442302D01*
X157384810Y-76613389D01*
X157045810Y-76613389D01*
X157018712Y-76442299D01*
X156965183Y-76277555D01*
X156886542Y-76123212D01*
X156784724Y-75983072D01*
X156662238Y-75860586D01*
X156522098Y-75758768D01*
X156367755Y-75680127D01*
X156203011Y-75626598D01*
X156203009Y-75626597D01*
X156203008Y-75626597D01*
X156071581Y-75605781D01*
X156031921Y-75599500D01*
X155858699Y-75599500D01*
X155819038Y-75605781D01*
X155687612Y-75626597D01*
X155522862Y-75680128D01*
X155368521Y-75758768D01*
X155288566Y-75816859D01*
X155228382Y-75860586D01*
X155228380Y-75860588D01*
X155228379Y-75860588D01*
X155105898Y-75983069D01*
X155105898Y-75983070D01*
X155105896Y-75983072D01*
X155105660Y-75983397D01*
X155004078Y-76123211D01*
X154925438Y-76277552D01*
X154871907Y-76442302D01*
X154844810Y-76613389D01*
X154505810Y-76613389D01*
X154478712Y-76442299D01*
X154425183Y-76277555D01*
X154346542Y-76123212D01*
X154244724Y-75983072D01*
X154122238Y-75860586D01*
X153982098Y-75758768D01*
X153827755Y-75680127D01*
X153663011Y-75626598D01*
X153663009Y-75626597D01*
X153663008Y-75626597D01*
X153531581Y-75605781D01*
X153491921Y-75599500D01*
X153318699Y-75599500D01*
X153279038Y-75605781D01*
X153147612Y-75626597D01*
X152982862Y-75680128D01*
X152828521Y-75758768D01*
X152748566Y-75816859D01*
X152688382Y-75860586D01*
X152688380Y-75860588D01*
X152688379Y-75860588D01*
X152565898Y-75983069D01*
X152565898Y-75983070D01*
X152565896Y-75983072D01*
X152565660Y-75983397D01*
X152464078Y-76123211D01*
X152385438Y-76277552D01*
X152331907Y-76442302D01*
X152304810Y-76613389D01*
X151965810Y-76613389D01*
X151938712Y-76442299D01*
X151885183Y-76277555D01*
X151806542Y-76123212D01*
X151704724Y-75983072D01*
X151582238Y-75860586D01*
X151442098Y-75758768D01*
X151287755Y-75680127D01*
X151123011Y-75626598D01*
X151123009Y-75626597D01*
X151123008Y-75626597D01*
X150991581Y-75605781D01*
X150951921Y-75599500D01*
X150778699Y-75599500D01*
X150739038Y-75605781D01*
X150607612Y-75626597D01*
X150442862Y-75680128D01*
X150288521Y-75758768D01*
X150208566Y-75816859D01*
X150148382Y-75860586D01*
X150148380Y-75860588D01*
X150148379Y-75860588D01*
X150025898Y-75983069D01*
X150025898Y-75983070D01*
X150025896Y-75983072D01*
X150025660Y-75983397D01*
X149924078Y-76123211D01*
X149845438Y-76277552D01*
X149791907Y-76442302D01*
X149764810Y-76613389D01*
X149425810Y-76613389D01*
X149398712Y-76442299D01*
X149345183Y-76277555D01*
X149266542Y-76123212D01*
X149164724Y-75983072D01*
X149042238Y-75860586D01*
X148902098Y-75758768D01*
X148747755Y-75680127D01*
X148583011Y-75626598D01*
X148583009Y-75626597D01*
X148583008Y-75626597D01*
X148451581Y-75605781D01*
X148411921Y-75599500D01*
X148238699Y-75599500D01*
X148199038Y-75605781D01*
X148067612Y-75626597D01*
X147902862Y-75680128D01*
X147748521Y-75758768D01*
X147668566Y-75816859D01*
X147608382Y-75860586D01*
X147608380Y-75860588D01*
X147608379Y-75860588D01*
X147485898Y-75983069D01*
X147485898Y-75983070D01*
X147485896Y-75983072D01*
X147485660Y-75983397D01*
X147384078Y-76123211D01*
X147305438Y-76277552D01*
X147251907Y-76442302D01*
X147224810Y-76613389D01*
X146885810Y-76613389D01*
X146858712Y-76442299D01*
X146805183Y-76277555D01*
X146726542Y-76123212D01*
X146624724Y-75983072D01*
X146502238Y-75860586D01*
X146362098Y-75758768D01*
X146207755Y-75680127D01*
X146043011Y-75626598D01*
X146043009Y-75626597D01*
X146043008Y-75626597D01*
X145911581Y-75605781D01*
X145871921Y-75599500D01*
X145698699Y-75599500D01*
X145659038Y-75605781D01*
X145527612Y-75626597D01*
X145362862Y-75680128D01*
X145208521Y-75758768D01*
X145128566Y-75816859D01*
X145068382Y-75860586D01*
X145068380Y-75860588D01*
X145068379Y-75860588D01*
X144945898Y-75983069D01*
X144945898Y-75983070D01*
X144945896Y-75983072D01*
X144945660Y-75983397D01*
X144844078Y-76123211D01*
X144765438Y-76277552D01*
X144711907Y-76442302D01*
X144684810Y-76613389D01*
X144345810Y-76613389D01*
X144318712Y-76442299D01*
X144265183Y-76277555D01*
X144186542Y-76123212D01*
X144084724Y-75983072D01*
X143962238Y-75860586D01*
X143822098Y-75758768D01*
X143667755Y-75680127D01*
X143503011Y-75626598D01*
X143503009Y-75626597D01*
X143503008Y-75626597D01*
X143371581Y-75605781D01*
X143331921Y-75599500D01*
X143158699Y-75599500D01*
X143119038Y-75605781D01*
X142987612Y-75626597D01*
X142822862Y-75680128D01*
X142668521Y-75758768D01*
X142588566Y-75816859D01*
X142528382Y-75860586D01*
X142528380Y-75860588D01*
X142528379Y-75860588D01*
X142405898Y-75983069D01*
X142405898Y-75983070D01*
X142405896Y-75983072D01*
X142405660Y-75983397D01*
X142304078Y-76123211D01*
X142225438Y-76277552D01*
X142171907Y-76442302D01*
X142144810Y-76613389D01*
X141805810Y-76613389D01*
X141778712Y-76442299D01*
X141725183Y-76277555D01*
X141646542Y-76123212D01*
X141544724Y-75983072D01*
X141422238Y-75860586D01*
X141282098Y-75758768D01*
X141127755Y-75680127D01*
X140963011Y-75626598D01*
X140963009Y-75626597D01*
X140963008Y-75626597D01*
X140831581Y-75605781D01*
X140791921Y-75599500D01*
X140618699Y-75599500D01*
X140579038Y-75605781D01*
X140447612Y-75626597D01*
X140282862Y-75680128D01*
X140128521Y-75758768D01*
X140048566Y-75816859D01*
X139988382Y-75860586D01*
X139988380Y-75860588D01*
X139988379Y-75860588D01*
X139865898Y-75983069D01*
X139865898Y-75983070D01*
X139865896Y-75983072D01*
X139865660Y-75983397D01*
X139764078Y-76123211D01*
X139685438Y-76277552D01*
X139631907Y-76442302D01*
X139604810Y-76613389D01*
X139265810Y-76613389D01*
X139238712Y-76442299D01*
X139185183Y-76277555D01*
X139106542Y-76123212D01*
X139004724Y-75983072D01*
X138882238Y-75860586D01*
X138742098Y-75758768D01*
X138587755Y-75680127D01*
X138423011Y-75626598D01*
X138423009Y-75626597D01*
X138423008Y-75626597D01*
X138291581Y-75605781D01*
X138251921Y-75599500D01*
X138078699Y-75599500D01*
X138039038Y-75605781D01*
X137907612Y-75626597D01*
X137742862Y-75680128D01*
X137588521Y-75758768D01*
X137508566Y-75816859D01*
X137448382Y-75860586D01*
X137448380Y-75860588D01*
X137448379Y-75860588D01*
X137325898Y-75983069D01*
X137325898Y-75983070D01*
X137325896Y-75983072D01*
X137325660Y-75983397D01*
X137224078Y-76123211D01*
X137145438Y-76277552D01*
X137091907Y-76442302D01*
X137064810Y-76613389D01*
X136725810Y-76613389D01*
X136698712Y-76442299D01*
X136645183Y-76277555D01*
X136566542Y-76123212D01*
X136464724Y-75983072D01*
X136342238Y-75860586D01*
X136202098Y-75758768D01*
X136047755Y-75680127D01*
X135883011Y-75626598D01*
X135883009Y-75626597D01*
X135883008Y-75626597D01*
X135751581Y-75605781D01*
X135711921Y-75599500D01*
X135538699Y-75599500D01*
X135499038Y-75605781D01*
X135367612Y-75626597D01*
X135202862Y-75680128D01*
X135048521Y-75758768D01*
X134968566Y-75816859D01*
X134908382Y-75860586D01*
X134908380Y-75860588D01*
X134908379Y-75860588D01*
X134785898Y-75983069D01*
X134785898Y-75983070D01*
X134785896Y-75983072D01*
X134785660Y-75983397D01*
X134684078Y-76123211D01*
X134605438Y-76277552D01*
X134551907Y-76442302D01*
X134524810Y-76613389D01*
X134185810Y-76613389D01*
X134158712Y-76442299D01*
X134105183Y-76277555D01*
X134026542Y-76123212D01*
X133924724Y-75983072D01*
X133802238Y-75860586D01*
X133662098Y-75758768D01*
X133507755Y-75680127D01*
X133343011Y-75626598D01*
X133343009Y-75626597D01*
X133343008Y-75626597D01*
X133211581Y-75605781D01*
X133171921Y-75599500D01*
X132998699Y-75599500D01*
X132959038Y-75605781D01*
X132827612Y-75626597D01*
X132662862Y-75680128D01*
X132508521Y-75758768D01*
X132428566Y-75816859D01*
X132368382Y-75860586D01*
X132368380Y-75860588D01*
X132368379Y-75860588D01*
X132245898Y-75983069D01*
X132245898Y-75983070D01*
X132245896Y-75983072D01*
X132245660Y-75983397D01*
X132144078Y-76123211D01*
X132065438Y-76277552D01*
X132011907Y-76442302D01*
X131984810Y-76613389D01*
X131645810Y-76613389D01*
X131618712Y-76442299D01*
X131565183Y-76277555D01*
X131486542Y-76123212D01*
X131384724Y-75983072D01*
X131262238Y-75860586D01*
X131122098Y-75758768D01*
X130967755Y-75680127D01*
X130803011Y-75626598D01*
X130803009Y-75626597D01*
X130803008Y-75626597D01*
X130671581Y-75605781D01*
X130631921Y-75599500D01*
X130458699Y-75599500D01*
X130419038Y-75605781D01*
X130287612Y-75626597D01*
X130122862Y-75680128D01*
X129968521Y-75758768D01*
X129888566Y-75816859D01*
X129828382Y-75860586D01*
X129828380Y-75860588D01*
X129828379Y-75860588D01*
X129705898Y-75983069D01*
X129705898Y-75983070D01*
X129705896Y-75983072D01*
X129705660Y-75983397D01*
X129604078Y-76123211D01*
X129525438Y-76277552D01*
X129471907Y-76442302D01*
X129444810Y-76613389D01*
X129105809Y-76613389D01*
X129105809Y-76052128D01*
X129099401Y-75992517D01*
X129095999Y-75983397D01*
X129049107Y-75857671D01*
X129049103Y-75857664D01*
X128962857Y-75742455D01*
X128962854Y-75742452D01*
X128847645Y-75656206D01*
X128847638Y-75656202D01*
X128712792Y-75605908D01*
X128712793Y-75605908D01*
X128653193Y-75599501D01*
X128653191Y-75599500D01*
X128653183Y-75599500D01*
X128653174Y-75599500D01*
X127357439Y-75599500D01*
X127357433Y-75599501D01*
X127297826Y-75605908D01*
X127162981Y-75656202D01*
X127162974Y-75656206D01*
X127047765Y-75742452D01*
X127047762Y-75742455D01*
X126961516Y-75857664D01*
X126961512Y-75857671D01*
X126911218Y-75992517D01*
X126904811Y-76052116D01*
X126904811Y-76052123D01*
X126904810Y-76052135D01*
X125409250Y-76052135D01*
X125409250Y-65400097D01*
X125428935Y-65333058D01*
X125445569Y-65312416D01*
X128621166Y-62136819D01*
X128682489Y-62103334D01*
X128708847Y-62100500D01*
X149178512Y-62100500D01*
X149210605Y-62104725D01*
X149214113Y-62105664D01*
X149230497Y-62110055D01*
X149230498Y-62110055D01*
X149388608Y-62110055D01*
X149388611Y-62110055D01*
X149541339Y-62069131D01*
X149678270Y-61990073D01*
X156314023Y-55354319D01*
X156314026Y-55354318D01*
X156425830Y-55242514D01*
X156475949Y-55155702D01*
X156504887Y-55105583D01*
X156545810Y-54952855D01*
X156545810Y-54794741D01*
X156545810Y-53087184D01*
X156565495Y-53020145D01*
X156596919Y-52986870D01*
X156662238Y-52939414D01*
X156784724Y-52816928D01*
X156886542Y-52676788D01*
X156965183Y-52522445D01*
X157018712Y-52357701D01*
X157045810Y-52186611D01*
X157045810Y-51213389D01*
X157384810Y-51213389D01*
X157384810Y-52186610D01*
X157404316Y-52309771D01*
X157411908Y-52357701D01*
X157465437Y-52522445D01*
X157544078Y-52676788D01*
X157645896Y-52816928D01*
X157768382Y-52939414D01*
X157908522Y-53041232D01*
X158062865Y-53119873D01*
X158227609Y-53173402D01*
X158398699Y-53200500D01*
X158398700Y-53200500D01*
X158571920Y-53200500D01*
X158571921Y-53200500D01*
X158743011Y-53173402D01*
X158907755Y-53119873D01*
X159062098Y-53041232D01*
X159202238Y-52939414D01*
X159324724Y-52816928D01*
X159426542Y-52676788D01*
X159505183Y-52522445D01*
X159558712Y-52357701D01*
X159585810Y-52186611D01*
X159585810Y-51213389D01*
X159924810Y-51213389D01*
X159924810Y-52186610D01*
X159944316Y-52309771D01*
X159951908Y-52357701D01*
X160005437Y-52522445D01*
X160084078Y-52676788D01*
X160185896Y-52816928D01*
X160308382Y-52939414D01*
X160448522Y-53041232D01*
X160602865Y-53119873D01*
X160767609Y-53173402D01*
X160938699Y-53200500D01*
X160938700Y-53200500D01*
X161111920Y-53200500D01*
X161111921Y-53200500D01*
X161283011Y-53173402D01*
X161447755Y-53119873D01*
X161602098Y-53041232D01*
X161742238Y-52939414D01*
X161864724Y-52816928D01*
X161966542Y-52676788D01*
X162045183Y-52522445D01*
X162098712Y-52357701D01*
X162125810Y-52186611D01*
X162125810Y-51213389D01*
X162464810Y-51213389D01*
X162464810Y-52186610D01*
X162484316Y-52309771D01*
X162491908Y-52357701D01*
X162545437Y-52522445D01*
X162624078Y-52676788D01*
X162725896Y-52816928D01*
X162848382Y-52939414D01*
X162988522Y-53041232D01*
X163142865Y-53119873D01*
X163307609Y-53173402D01*
X163478699Y-53200500D01*
X163478700Y-53200500D01*
X163651920Y-53200500D01*
X163651921Y-53200500D01*
X163823011Y-53173402D01*
X163987755Y-53119873D01*
X164142098Y-53041232D01*
X164282238Y-52939414D01*
X164404724Y-52816928D01*
X164506542Y-52676788D01*
X164585183Y-52522445D01*
X164638712Y-52357701D01*
X164665810Y-52186611D01*
X164665810Y-51213389D01*
X165004810Y-51213389D01*
X165004810Y-52186610D01*
X165024316Y-52309771D01*
X165031908Y-52357701D01*
X165085437Y-52522445D01*
X165164078Y-52676788D01*
X165265896Y-52816928D01*
X165388382Y-52939414D01*
X165528522Y-53041232D01*
X165682865Y-53119873D01*
X165847609Y-53173402D01*
X166018699Y-53200500D01*
X166018700Y-53200500D01*
X166191920Y-53200500D01*
X166191921Y-53200500D01*
X166363011Y-53173402D01*
X166527755Y-53119873D01*
X166682098Y-53041232D01*
X166822238Y-52939414D01*
X166944724Y-52816928D01*
X167046542Y-52676788D01*
X167125183Y-52522445D01*
X167178712Y-52357701D01*
X167205810Y-52186611D01*
X167205810Y-51213389D01*
X167544810Y-51213389D01*
X167544810Y-52186610D01*
X167564316Y-52309771D01*
X167571908Y-52357701D01*
X167625437Y-52522445D01*
X167704078Y-52676788D01*
X167805896Y-52816928D01*
X167928382Y-52939414D01*
X168068522Y-53041232D01*
X168222865Y-53119873D01*
X168387609Y-53173402D01*
X168558699Y-53200500D01*
X168558700Y-53200500D01*
X168731920Y-53200500D01*
X168731921Y-53200500D01*
X168903011Y-53173402D01*
X169067755Y-53119873D01*
X169222098Y-53041232D01*
X169362238Y-52939414D01*
X169484724Y-52816928D01*
X169586542Y-52676788D01*
X169665183Y-52522445D01*
X169718712Y-52357701D01*
X169745810Y-52186611D01*
X169745810Y-51217069D01*
X170082090Y-51217069D01*
X170082090Y-52190290D01*
X170108604Y-52357697D01*
X170109188Y-52361381D01*
X170162717Y-52526125D01*
X170241358Y-52680468D01*
X170343176Y-52820608D01*
X170465662Y-52943094D01*
X170605802Y-53044912D01*
X170760145Y-53123553D01*
X170924889Y-53177082D01*
X171095979Y-53204180D01*
X171095980Y-53204180D01*
X171269200Y-53204180D01*
X171269201Y-53204180D01*
X171440291Y-53177082D01*
X171605035Y-53123553D01*
X171759378Y-53044912D01*
X171899518Y-52943094D01*
X172022004Y-52820608D01*
X172123822Y-52680468D01*
X172202463Y-52526125D01*
X172255992Y-52361381D01*
X172283090Y-52190291D01*
X172283090Y-51217069D01*
X172622090Y-51217069D01*
X172622090Y-52190290D01*
X172648604Y-52357697D01*
X172649188Y-52361381D01*
X172702717Y-52526125D01*
X172781358Y-52680468D01*
X172883176Y-52820608D01*
X173005662Y-52943094D01*
X173145802Y-53044912D01*
X173300145Y-53123553D01*
X173464889Y-53177082D01*
X173635979Y-53204180D01*
X173635980Y-53204180D01*
X173809200Y-53204180D01*
X173809201Y-53204180D01*
X173980291Y-53177082D01*
X174145035Y-53123553D01*
X174299378Y-53044912D01*
X174439518Y-52943094D01*
X174562004Y-52820608D01*
X174663822Y-52680468D01*
X174742463Y-52526125D01*
X174795992Y-52361381D01*
X174823090Y-52190291D01*
X174823090Y-51217069D01*
X174795992Y-51045979D01*
X174742463Y-50881235D01*
X174663822Y-50726892D01*
X174562004Y-50586752D01*
X174439518Y-50464266D01*
X174299378Y-50362448D01*
X174145035Y-50283807D01*
X173980291Y-50230278D01*
X173980289Y-50230277D01*
X173980288Y-50230277D01*
X173848861Y-50209461D01*
X173809201Y-50203180D01*
X173635979Y-50203180D01*
X173596318Y-50209461D01*
X173464892Y-50230277D01*
X173300142Y-50283808D01*
X173145801Y-50362448D01*
X173076814Y-50412571D01*
X173005662Y-50464266D01*
X173005660Y-50464268D01*
X173005659Y-50464268D01*
X172883178Y-50586749D01*
X172883178Y-50586750D01*
X172883176Y-50586752D01*
X172839449Y-50646936D01*
X172781358Y-50726891D01*
X172702718Y-50881232D01*
X172649187Y-51045982D01*
X172622090Y-51217069D01*
X172283090Y-51217069D01*
X172255992Y-51045979D01*
X172202463Y-50881235D01*
X172123822Y-50726892D01*
X172022004Y-50586752D01*
X171899518Y-50464266D01*
X171759378Y-50362448D01*
X171605035Y-50283807D01*
X171440291Y-50230278D01*
X171440289Y-50230277D01*
X171440288Y-50230277D01*
X171308861Y-50209461D01*
X171269201Y-50203180D01*
X171095979Y-50203180D01*
X171056318Y-50209461D01*
X170924892Y-50230277D01*
X170760142Y-50283808D01*
X170605801Y-50362448D01*
X170536814Y-50412571D01*
X170465662Y-50464266D01*
X170465660Y-50464268D01*
X170465659Y-50464268D01*
X170343178Y-50586749D01*
X170343178Y-50586750D01*
X170343176Y-50586752D01*
X170299449Y-50646936D01*
X170241358Y-50726891D01*
X170162718Y-50881232D01*
X170109187Y-51045982D01*
X170082090Y-51217069D01*
X169745810Y-51217069D01*
X169745810Y-51213389D01*
X169718712Y-51042299D01*
X169665183Y-50877555D01*
X169586542Y-50723212D01*
X169484724Y-50583072D01*
X169362238Y-50460586D01*
X169222098Y-50358768D01*
X169074979Y-50283808D01*
X169067757Y-50280128D01*
X169067756Y-50280127D01*
X169067755Y-50280127D01*
X168903011Y-50226598D01*
X168903009Y-50226597D01*
X168903008Y-50226597D01*
X168771581Y-50205781D01*
X168731921Y-50199500D01*
X168558699Y-50199500D01*
X168519038Y-50205781D01*
X168387612Y-50226597D01*
X168222862Y-50280128D01*
X168068521Y-50358768D01*
X167996025Y-50411440D01*
X167928382Y-50460586D01*
X167928380Y-50460588D01*
X167928379Y-50460588D01*
X167805898Y-50583069D01*
X167805898Y-50583070D01*
X167805896Y-50583072D01*
X167762169Y-50643256D01*
X167704078Y-50723211D01*
X167625438Y-50877552D01*
X167571907Y-51042302D01*
X167544810Y-51213389D01*
X167205810Y-51213389D01*
X167178712Y-51042299D01*
X167125183Y-50877555D01*
X167046542Y-50723212D01*
X166944724Y-50583072D01*
X166822238Y-50460586D01*
X166682098Y-50358768D01*
X166534979Y-50283808D01*
X166527757Y-50280128D01*
X166527756Y-50280127D01*
X166527755Y-50280127D01*
X166363011Y-50226598D01*
X166363009Y-50226597D01*
X166363008Y-50226597D01*
X166231581Y-50205781D01*
X166191921Y-50199500D01*
X166018699Y-50199500D01*
X165979038Y-50205781D01*
X165847612Y-50226597D01*
X165682862Y-50280128D01*
X165528521Y-50358768D01*
X165456025Y-50411440D01*
X165388382Y-50460586D01*
X165388380Y-50460588D01*
X165388379Y-50460588D01*
X165265898Y-50583069D01*
X165265898Y-50583070D01*
X165265896Y-50583072D01*
X165222169Y-50643256D01*
X165164078Y-50723211D01*
X165085438Y-50877552D01*
X165031907Y-51042302D01*
X165004810Y-51213389D01*
X164665810Y-51213389D01*
X164638712Y-51042299D01*
X164585183Y-50877555D01*
X164506542Y-50723212D01*
X164404724Y-50583072D01*
X164282238Y-50460586D01*
X164142098Y-50358768D01*
X163994979Y-50283808D01*
X163987757Y-50280128D01*
X163987756Y-50280127D01*
X163987755Y-50280127D01*
X163823011Y-50226598D01*
X163823009Y-50226597D01*
X163823008Y-50226597D01*
X163691581Y-50205781D01*
X163651921Y-50199500D01*
X163478699Y-50199500D01*
X163439038Y-50205781D01*
X163307612Y-50226597D01*
X163142862Y-50280128D01*
X162988521Y-50358768D01*
X162916025Y-50411440D01*
X162848382Y-50460586D01*
X162848380Y-50460588D01*
X162848379Y-50460588D01*
X162725898Y-50583069D01*
X162725898Y-50583070D01*
X162725896Y-50583072D01*
X162682169Y-50643256D01*
X162624078Y-50723211D01*
X162545438Y-50877552D01*
X162491907Y-51042302D01*
X162464810Y-51213389D01*
X162125810Y-51213389D01*
X162098712Y-51042299D01*
X162045183Y-50877555D01*
X161966542Y-50723212D01*
X161864724Y-50583072D01*
X161742238Y-50460586D01*
X161602098Y-50358768D01*
X161454979Y-50283808D01*
X161447757Y-50280128D01*
X161447756Y-50280127D01*
X161447755Y-50280127D01*
X161283011Y-50226598D01*
X161283009Y-50226597D01*
X161283008Y-50226597D01*
X161151581Y-50205781D01*
X161111921Y-50199500D01*
X160938699Y-50199500D01*
X160899038Y-50205781D01*
X160767612Y-50226597D01*
X160602862Y-50280128D01*
X160448521Y-50358768D01*
X160376025Y-50411440D01*
X160308382Y-50460586D01*
X160308380Y-50460588D01*
X160308379Y-50460588D01*
X160185898Y-50583069D01*
X160185898Y-50583070D01*
X160185896Y-50583072D01*
X160142169Y-50643256D01*
X160084078Y-50723211D01*
X160005438Y-50877552D01*
X159951907Y-51042302D01*
X159924810Y-51213389D01*
X159585810Y-51213389D01*
X159558712Y-51042299D01*
X159505183Y-50877555D01*
X159426542Y-50723212D01*
X159324724Y-50583072D01*
X159202238Y-50460586D01*
X159062098Y-50358768D01*
X158914979Y-50283808D01*
X158907757Y-50280128D01*
X158907756Y-50280127D01*
X158907755Y-50280127D01*
X158743011Y-50226598D01*
X158743009Y-50226597D01*
X158743008Y-50226597D01*
X158611581Y-50205781D01*
X158571921Y-50199500D01*
X158398699Y-50199500D01*
X158359038Y-50205781D01*
X158227612Y-50226597D01*
X158062862Y-50280128D01*
X157908521Y-50358768D01*
X157836025Y-50411440D01*
X157768382Y-50460586D01*
X157768380Y-50460588D01*
X157768379Y-50460588D01*
X157645898Y-50583069D01*
X157645898Y-50583070D01*
X157645896Y-50583072D01*
X157602169Y-50643256D01*
X157544078Y-50723211D01*
X157465438Y-50877552D01*
X157411907Y-51042302D01*
X157384810Y-51213389D01*
X157045810Y-51213389D01*
X157018712Y-51042299D01*
X156965183Y-50877555D01*
X156886542Y-50723212D01*
X156784724Y-50583072D01*
X156662238Y-50460586D01*
X156522098Y-50358768D01*
X156374979Y-50283808D01*
X156367757Y-50280128D01*
X156367756Y-50280127D01*
X156367755Y-50280127D01*
X156203011Y-50226598D01*
X156203009Y-50226597D01*
X156203008Y-50226597D01*
X156071581Y-50205781D01*
X156031921Y-50199500D01*
X155858699Y-50199500D01*
X155819038Y-50205781D01*
X155687612Y-50226597D01*
X155522862Y-50280128D01*
X155368521Y-50358768D01*
X155296025Y-50411440D01*
X155228382Y-50460586D01*
X155228380Y-50460588D01*
X155228379Y-50460588D01*
X155105898Y-50583069D01*
X155105898Y-50583070D01*
X155105896Y-50583072D01*
X155062169Y-50643256D01*
X155004078Y-50723211D01*
X154925438Y-50877552D01*
X154871907Y-51042302D01*
X154844810Y-51213389D01*
X154844810Y-52186610D01*
X154864316Y-52309771D01*
X154871908Y-52357701D01*
X154925437Y-52522445D01*
X155004078Y-52676788D01*
X155105896Y-52816928D01*
X155228382Y-52939414D01*
X155293698Y-52986868D01*
X155336361Y-53042195D01*
X155344810Y-53087184D01*
X155344810Y-54573701D01*
X155325125Y-54640740D01*
X155308491Y-54661382D01*
X149106692Y-60863181D01*
X149045369Y-60896666D01*
X149019011Y-60899500D01*
X128495419Y-60899500D01*
X128495403Y-60899499D01*
X128487807Y-60899499D01*
X128329693Y-60899499D01*
X128222337Y-60928265D01*
X128176960Y-60940424D01*
X128176959Y-60940425D01*
X128126846Y-60969359D01*
X128126845Y-60969360D01*
X128083439Y-60994420D01*
X128040035Y-61019479D01*
X128040032Y-61019481D01*
X124328231Y-64731282D01*
X124328227Y-64731287D01*
X124279541Y-64815616D01*
X124279540Y-64815615D01*
X124249174Y-64868211D01*
X124249173Y-64868215D01*
X124208249Y-65020943D01*
X124208249Y-65179057D01*
X124208249Y-65179059D01*
X124208250Y-65189053D01*
X124208250Y-91842080D01*
X124208249Y-91842098D01*
X124208249Y-92007804D01*
X124208248Y-92007804D01*
X124249173Y-92160535D01*
X124278108Y-92210650D01*
X124278109Y-92210654D01*
X124278110Y-92210654D01*
X124328229Y-92297464D01*
X124328231Y-92297467D01*
X124447099Y-92416335D01*
X124447105Y-92416340D01*
X126613181Y-94582416D01*
X126646666Y-94643739D01*
X126649500Y-94670097D01*
X126649500Y-99183330D01*
X126649499Y-99183348D01*
X126649499Y-99349054D01*
X126649498Y-99349054D01*
X126690423Y-99501785D01*
X126719358Y-99551900D01*
X126719359Y-99551904D01*
X126719360Y-99551904D01*
X126769479Y-99638714D01*
X126769481Y-99638717D01*
X126888349Y-99757585D01*
X126888355Y-99757590D01*
X128565139Y-101434374D01*
X128565149Y-101434385D01*
X128569479Y-101438715D01*
X128569480Y-101438716D01*
X128681284Y-101550520D01*
X128681286Y-101550521D01*
X128681290Y-101550524D01*
X128818209Y-101629573D01*
X128818216Y-101629577D01*
X128930019Y-101659534D01*
X128970942Y-101670500D01*
X128970943Y-101670500D01*
X135663331Y-101670500D01*
X135663347Y-101670501D01*
X135670943Y-101670501D01*
X135829054Y-101670501D01*
X135829057Y-101670501D01*
X135981785Y-101629577D01*
X136037402Y-101597466D01*
X136118716Y-101550520D01*
X136230520Y-101438716D01*
X136230520Y-101438714D01*
X136240724Y-101428511D01*
X136240727Y-101428506D01*
X138340520Y-99328716D01*
X138419577Y-99191784D01*
X138460501Y-99039057D01*
X138460501Y-98880942D01*
X138460501Y-98873347D01*
X138460500Y-98873329D01*
X138460500Y-98859817D01*
X138480185Y-98792778D01*
X138514326Y-98759363D01*
X138513559Y-98758307D01*
X138517496Y-98755446D01*
X138517501Y-98755444D01*
X138677252Y-98639379D01*
X138816879Y-98499752D01*
X138816881Y-98499748D01*
X138816884Y-98499746D01*
X138872233Y-98423563D01*
X138932944Y-98340001D01*
X139022591Y-98164061D01*
X139059206Y-98051372D01*
X143049500Y-98051372D01*
X143049500Y-98313627D01*
X143076123Y-98515839D01*
X143083730Y-98573616D01*
X143151602Y-98826918D01*
X143151605Y-98826928D01*
X143251953Y-99069190D01*
X143251958Y-99069200D01*
X143383075Y-99296303D01*
X143542718Y-99504351D01*
X143542726Y-99504360D01*
X143728140Y-99689774D01*
X143728148Y-99689781D01*
X143936196Y-99849424D01*
X144163299Y-99980541D01*
X144163309Y-99980546D01*
X144390217Y-100074534D01*
X144405581Y-100080898D01*
X144658884Y-100148770D01*
X144918880Y-100183000D01*
X144918887Y-100183000D01*
X145181113Y-100183000D01*
X145181120Y-100183000D01*
X145441116Y-100148770D01*
X145694419Y-100080898D01*
X145936697Y-99980543D01*
X146163803Y-99849424D01*
X146371851Y-99689782D01*
X146371855Y-99689777D01*
X146371860Y-99689774D01*
X146557274Y-99504360D01*
X146557277Y-99504355D01*
X146557282Y-99504351D01*
X146716924Y-99296303D01*
X146848043Y-99069197D01*
X146858449Y-99044076D01*
X146905661Y-98930096D01*
X146948398Y-98826919D01*
X147016270Y-98573616D01*
X147050500Y-98313620D01*
X147050500Y-98051380D01*
X147016270Y-97791384D01*
X146948398Y-97538081D01*
X146886538Y-97388737D01*
X146848046Y-97295809D01*
X146848041Y-97295799D01*
X146716924Y-97068696D01*
X146557281Y-96860648D01*
X146557274Y-96860640D01*
X146371860Y-96675226D01*
X146371851Y-96675218D01*
X146163803Y-96515575D01*
X145936700Y-96384458D01*
X145936690Y-96384453D01*
X145694428Y-96284105D01*
X145694421Y-96284103D01*
X145694419Y-96284102D01*
X145441116Y-96216230D01*
X145383339Y-96208623D01*
X145181127Y-96182000D01*
X145181120Y-96182000D01*
X144918880Y-96182000D01*
X144918872Y-96182000D01*
X144687772Y-96212426D01*
X144658884Y-96216230D01*
X144555991Y-96243800D01*
X144405581Y-96284102D01*
X144405571Y-96284105D01*
X144163309Y-96384453D01*
X144163299Y-96384458D01*
X143936196Y-96515575D01*
X143728148Y-96675218D01*
X143542718Y-96860648D01*
X143383075Y-97068696D01*
X143251958Y-97295799D01*
X143251953Y-97295809D01*
X143151605Y-97538071D01*
X143151602Y-97538081D01*
X143086451Y-97781231D01*
X143083730Y-97791385D01*
X143049500Y-98051372D01*
X139059206Y-98051372D01*
X139083610Y-97976263D01*
X139092435Y-97920539D01*
X139114500Y-97781236D01*
X139114500Y-97583763D01*
X139083610Y-97388736D01*
X139049059Y-97282401D01*
X139022591Y-97200939D01*
X138932944Y-97024999D01*
X138921681Y-97009497D01*
X138816884Y-96865253D01*
X138677246Y-96725615D01*
X138517504Y-96609558D01*
X138517503Y-96609557D01*
X138517501Y-96609556D01*
X138341561Y-96519909D01*
X138341558Y-96519908D01*
X138153763Y-96458889D01*
X137958736Y-96428000D01*
X137958731Y-96428000D01*
X137761269Y-96428000D01*
X137761266Y-96428000D01*
X137737144Y-96431820D01*
X137667851Y-96422863D01*
X137614400Y-96377866D01*
X137593762Y-96311114D01*
X137612488Y-96243800D01*
X137630063Y-96221670D01*
X138844916Y-95006819D01*
X138906239Y-94973334D01*
X138932597Y-94970500D01*
X163549903Y-94970500D01*
X163616942Y-94990185D01*
X163637584Y-95006819D01*
X165065139Y-96434374D01*
X165065149Y-96434385D01*
X165069479Y-96438715D01*
X165069480Y-96438716D01*
X165181284Y-96550520D01*
X165212138Y-96568333D01*
X165268095Y-96600639D01*
X165268097Y-96600641D01*
X165306151Y-96622611D01*
X165318215Y-96629577D01*
X165470943Y-96670500D01*
X165629057Y-96670500D01*
X173083331Y-96670500D01*
X173083347Y-96670501D01*
X173090943Y-96670501D01*
X173249054Y-96670501D01*
X173249057Y-96670501D01*
X173401785Y-96629577D01*
X173451904Y-96600639D01*
X173538716Y-96550520D01*
X173650520Y-96438716D01*
X173650520Y-96438714D01*
X173660728Y-96428507D01*
X173660730Y-96428504D01*
X179438713Y-90650521D01*
X179438716Y-90650520D01*
X179550520Y-90538716D01*
X179600639Y-90451904D01*
X179629577Y-90401785D01*
X179670501Y-90249057D01*
X179670501Y-90090943D01*
X179670501Y-90083348D01*
X179670500Y-90083330D01*
X179670500Y-81150309D01*
X179670501Y-81150296D01*
X179670501Y-80982195D01*
X179670501Y-80982193D01*
X179629577Y-80829465D01*
X179600639Y-80779345D01*
X179550520Y-80692534D01*
X179438716Y-80580730D01*
X179438715Y-80580729D01*
X179434385Y-80576399D01*
X179434374Y-80576389D01*
X178145569Y-79287584D01*
X178112084Y-79226261D01*
X178109250Y-79199903D01*
X178109250Y-51397809D01*
X178109251Y-51397796D01*
X178109251Y-51229695D01*
X178109251Y-51229693D01*
X178068327Y-51076965D01*
X178026325Y-51004216D01*
X177989270Y-50940034D01*
X177877466Y-50828230D01*
X177873135Y-50823899D01*
X177873124Y-50823889D01*
X173587590Y-46538355D01*
X173587588Y-46538352D01*
X173468716Y-46419480D01*
X173468714Y-46419479D01*
X173381904Y-46369360D01*
X173381904Y-46369359D01*
X173381900Y-46369358D01*
X173331785Y-46340423D01*
X173179057Y-46299499D01*
X173020943Y-46299499D01*
X173013347Y-46299499D01*
X173013331Y-46299500D01*
X158124500Y-46299500D01*
X158057461Y-46279815D01*
X158011706Y-46227011D01*
X158000500Y-46175500D01*
X158000500Y-45729060D01*
X158000501Y-45729047D01*
X158000501Y-45560944D01*
X158000501Y-45560943D01*
X157959577Y-45408216D01*
X157920437Y-45340423D01*
X157880524Y-45271290D01*
X157880518Y-45271282D01*
X156081417Y-43472181D01*
X156047932Y-43410858D01*
X156052916Y-43341166D01*
X156094788Y-43285233D01*
X156160252Y-43260816D01*
X156169098Y-43260500D01*
X156316286Y-43260500D01*
X156316287Y-43260500D01*
X156526243Y-43227246D01*
X156728412Y-43161557D01*
X156917816Y-43065051D01*
X157004138Y-43002335D01*
X157089786Y-42940109D01*
X157089788Y-42940106D01*
X157089792Y-42940104D01*
X157240104Y-42789792D01*
X157240106Y-42789788D01*
X157240109Y-42789786D01*
X157365048Y-42617820D01*
X157365047Y-42617820D01*
X157365051Y-42617816D01*
X157369514Y-42609054D01*
X157417488Y-42558259D01*
X157485308Y-42541463D01*
X157551444Y-42563999D01*
X157590486Y-42609056D01*
X157594951Y-42617820D01*
X157719890Y-42789786D01*
X157870213Y-42940109D01*
X158042179Y-43065048D01*
X158042181Y-43065049D01*
X158042184Y-43065051D01*
X158231588Y-43161557D01*
X158433757Y-43227246D01*
X158643713Y-43260500D01*
X158643714Y-43260500D01*
X158856286Y-43260500D01*
X158856287Y-43260500D01*
X159066243Y-43227246D01*
X159268412Y-43161557D01*
X159457816Y-43065051D01*
X159544138Y-43002335D01*
X159629786Y-42940109D01*
X159629788Y-42940106D01*
X159629792Y-42940104D01*
X159780104Y-42789792D01*
X159780106Y-42789788D01*
X159780109Y-42789786D01*
X159905048Y-42617820D01*
X159905047Y-42617820D01*
X159905051Y-42617816D01*
X159909514Y-42609054D01*
X159957488Y-42558259D01*
X160025308Y-42541463D01*
X160091444Y-42563999D01*
X160130486Y-42609056D01*
X160134951Y-42617820D01*
X160259890Y-42789786D01*
X160410213Y-42940109D01*
X160582179Y-43065048D01*
X160582181Y-43065049D01*
X160582184Y-43065051D01*
X160771588Y-43161557D01*
X160973757Y-43227246D01*
X161183713Y-43260500D01*
X161183714Y-43260500D01*
X161396286Y-43260500D01*
X161396287Y-43260500D01*
X161606243Y-43227246D01*
X161808412Y-43161557D01*
X161997816Y-43065051D01*
X162084138Y-43002335D01*
X162169786Y-42940109D01*
X162169788Y-42940106D01*
X162169792Y-42940104D01*
X162320104Y-42789792D01*
X162320106Y-42789788D01*
X162320109Y-42789786D01*
X162445048Y-42617820D01*
X162445047Y-42617820D01*
X162445051Y-42617816D01*
X162449514Y-42609054D01*
X162497488Y-42558259D01*
X162565308Y-42541463D01*
X162631444Y-42563999D01*
X162670486Y-42609056D01*
X162674951Y-42617820D01*
X162799890Y-42789786D01*
X162950213Y-42940109D01*
X163122179Y-43065048D01*
X163122181Y-43065049D01*
X163122184Y-43065051D01*
X163311588Y-43161557D01*
X163513757Y-43227246D01*
X163723713Y-43260500D01*
X163723714Y-43260500D01*
X163936286Y-43260500D01*
X163936287Y-43260500D01*
X164146243Y-43227246D01*
X164348412Y-43161557D01*
X164537816Y-43065051D01*
X164624138Y-43002335D01*
X164709786Y-42940109D01*
X164709788Y-42940106D01*
X164709792Y-42940104D01*
X164860104Y-42789792D01*
X164860106Y-42789788D01*
X164860109Y-42789786D01*
X164985048Y-42617820D01*
X164985047Y-42617820D01*
X164985051Y-42617816D01*
X164989514Y-42609054D01*
X165037488Y-42558259D01*
X165105308Y-42541463D01*
X165171444Y-42563999D01*
X165210486Y-42609056D01*
X165214951Y-42617820D01*
X165339890Y-42789786D01*
X165490213Y-42940109D01*
X165662179Y-43065048D01*
X165662181Y-43065049D01*
X165662184Y-43065051D01*
X165851588Y-43161557D01*
X166053757Y-43227246D01*
X166263713Y-43260500D01*
X166263714Y-43260500D01*
X166476286Y-43260500D01*
X166476287Y-43260500D01*
X166686243Y-43227246D01*
X166888412Y-43161557D01*
X167077816Y-43065051D01*
X167164138Y-43002335D01*
X167249786Y-42940109D01*
X167249788Y-42940106D01*
X167249792Y-42940104D01*
X167400104Y-42789792D01*
X167400106Y-42789788D01*
X167400109Y-42789786D01*
X167525048Y-42617820D01*
X167525047Y-42617820D01*
X167525051Y-42617816D01*
X167529514Y-42609054D01*
X167577488Y-42558259D01*
X167645308Y-42541463D01*
X167711444Y-42563999D01*
X167750486Y-42609056D01*
X167754951Y-42617820D01*
X167879890Y-42789786D01*
X168030213Y-42940109D01*
X168202179Y-43065048D01*
X168202181Y-43065049D01*
X168202184Y-43065051D01*
X168391588Y-43161557D01*
X168593757Y-43227246D01*
X168803713Y-43260500D01*
X168803714Y-43260500D01*
X169016286Y-43260500D01*
X169016287Y-43260500D01*
X169226243Y-43227246D01*
X169428412Y-43161557D01*
X169617816Y-43065051D01*
X169704138Y-43002335D01*
X169789786Y-42940109D01*
X169789788Y-42940106D01*
X169789792Y-42940104D01*
X169940104Y-42789792D01*
X169940106Y-42789788D01*
X169940109Y-42789786D01*
X170065048Y-42617820D01*
X170065047Y-42617820D01*
X170065051Y-42617816D01*
X170069514Y-42609054D01*
X170117488Y-42558259D01*
X170185308Y-42541463D01*
X170251444Y-42563999D01*
X170290486Y-42609056D01*
X170294951Y-42617820D01*
X170419890Y-42789786D01*
X170570213Y-42940109D01*
X170742179Y-43065048D01*
X170742181Y-43065049D01*
X170742184Y-43065051D01*
X170931588Y-43161557D01*
X171133757Y-43227246D01*
X171343713Y-43260500D01*
X171343714Y-43260500D01*
X171556286Y-43260500D01*
X171556287Y-43260500D01*
X171766243Y-43227246D01*
X171968412Y-43161557D01*
X172157816Y-43065051D01*
X172329792Y-42940104D01*
X172443329Y-42826566D01*
X172504648Y-42793084D01*
X172574340Y-42798068D01*
X172630274Y-42839939D01*
X172647189Y-42870917D01*
X172696202Y-43002328D01*
X172696206Y-43002335D01*
X172782452Y-43117544D01*
X172782455Y-43117547D01*
X172897664Y-43203793D01*
X172897671Y-43203797D01*
X173032517Y-43254091D01*
X173032516Y-43254091D01*
X173039444Y-43254835D01*
X173092127Y-43260500D01*
X174887872Y-43260499D01*
X174947483Y-43254091D01*
X175082331Y-43203796D01*
X175197546Y-43117546D01*
X175283796Y-43002331D01*
X175334091Y-42867483D01*
X175340500Y-42807873D01*
X175340499Y-41012128D01*
X175334091Y-40952517D01*
X175332810Y-40949083D01*
X175283797Y-40817671D01*
X175283793Y-40817664D01*
X175197547Y-40702455D01*
X175197544Y-40702452D01*
X175082335Y-40616206D01*
X175082328Y-40616202D01*
X174947482Y-40565908D01*
X174947483Y-40565908D01*
X174887883Y-40559501D01*
X174887881Y-40559500D01*
X174887873Y-40559500D01*
X174887864Y-40559500D01*
X173092129Y-40559500D01*
X173092123Y-40559501D01*
X173032516Y-40565908D01*
X172897671Y-40616202D01*
X172897664Y-40616206D01*
X172782455Y-40702452D01*
X172782452Y-40702455D01*
X172696206Y-40817664D01*
X172696203Y-40817669D01*
X172647189Y-40949083D01*
X172605317Y-41005016D01*
X172539853Y-41029433D01*
X172471580Y-41014581D01*
X172443326Y-40993430D01*
X172329786Y-40879890D01*
X172157820Y-40754951D01*
X171968414Y-40658444D01*
X171968413Y-40658443D01*
X171968412Y-40658443D01*
X171766243Y-40592754D01*
X171766241Y-40592753D01*
X171766240Y-40592753D01*
X171604957Y-40567208D01*
X171556287Y-40559500D01*
X171343713Y-40559500D01*
X171295042Y-40567208D01*
X171133760Y-40592753D01*
X170931585Y-40658444D01*
X170742179Y-40754951D01*
X170570213Y-40879890D01*
X170419890Y-41030213D01*
X170294949Y-41202182D01*
X170290484Y-41210946D01*
X170242509Y-41261742D01*
X170174688Y-41278536D01*
X170108553Y-41255998D01*
X170069516Y-41210946D01*
X170065050Y-41202182D01*
X169940109Y-41030213D01*
X169789786Y-40879890D01*
X169617820Y-40754951D01*
X169428414Y-40658444D01*
X169428413Y-40658443D01*
X169428412Y-40658443D01*
X169226243Y-40592754D01*
X169226241Y-40592753D01*
X169226240Y-40592753D01*
X169064957Y-40567208D01*
X169016287Y-40559500D01*
X168803713Y-40559500D01*
X168755042Y-40567208D01*
X168593760Y-40592753D01*
X168391585Y-40658444D01*
X168202179Y-40754951D01*
X168030213Y-40879890D01*
X167879890Y-41030213D01*
X167754949Y-41202182D01*
X167750484Y-41210946D01*
X167702509Y-41261742D01*
X167634688Y-41278536D01*
X167568553Y-41255998D01*
X167529516Y-41210946D01*
X167525050Y-41202182D01*
X167400109Y-41030213D01*
X167249786Y-40879890D01*
X167077820Y-40754951D01*
X166888414Y-40658444D01*
X166888413Y-40658443D01*
X166888412Y-40658443D01*
X166686243Y-40592754D01*
X166686241Y-40592753D01*
X166686240Y-40592753D01*
X166524957Y-40567208D01*
X166476287Y-40559500D01*
X166263713Y-40559500D01*
X166215042Y-40567208D01*
X166053760Y-40592753D01*
X165851585Y-40658444D01*
X165662179Y-40754951D01*
X165490213Y-40879890D01*
X165339890Y-41030213D01*
X165214949Y-41202182D01*
X165210484Y-41210946D01*
X165162509Y-41261742D01*
X165094688Y-41278536D01*
X165028553Y-41255998D01*
X164989516Y-41210946D01*
X164985050Y-41202182D01*
X164860109Y-41030213D01*
X164709786Y-40879890D01*
X164537820Y-40754951D01*
X164348414Y-40658444D01*
X164348413Y-40658443D01*
X164348412Y-40658443D01*
X164146243Y-40592754D01*
X164146241Y-40592753D01*
X164146240Y-40592753D01*
X163984957Y-40567208D01*
X163936287Y-40559500D01*
X163723713Y-40559500D01*
X163675042Y-40567208D01*
X163513760Y-40592753D01*
X163311585Y-40658444D01*
X163122179Y-40754951D01*
X162950213Y-40879890D01*
X162799890Y-41030213D01*
X162674949Y-41202182D01*
X162670484Y-41210946D01*
X162622509Y-41261742D01*
X162554688Y-41278536D01*
X162488553Y-41255998D01*
X162449516Y-41210946D01*
X162445050Y-41202182D01*
X162320109Y-41030213D01*
X162169786Y-40879890D01*
X161997820Y-40754951D01*
X161808414Y-40658444D01*
X161808413Y-40658443D01*
X161808412Y-40658443D01*
X161606243Y-40592754D01*
X161606241Y-40592753D01*
X161606240Y-40592753D01*
X161444957Y-40567208D01*
X161396287Y-40559500D01*
X161183713Y-40559500D01*
X161135042Y-40567208D01*
X160973760Y-40592753D01*
X160771585Y-40658444D01*
X160582179Y-40754951D01*
X160410213Y-40879890D01*
X160259890Y-41030213D01*
X160134949Y-41202182D01*
X160130484Y-41210946D01*
X160082509Y-41261742D01*
X160014688Y-41278536D01*
X159948553Y-41255998D01*
X159909516Y-41210946D01*
X159905050Y-41202182D01*
X159780109Y-41030213D01*
X159629786Y-40879890D01*
X159457820Y-40754951D01*
X159268414Y-40658444D01*
X159268413Y-40658443D01*
X159268412Y-40658443D01*
X159066243Y-40592754D01*
X159066241Y-40592753D01*
X159066240Y-40592753D01*
X158904957Y-40567208D01*
X158856287Y-40559500D01*
X158643713Y-40559500D01*
X158595042Y-40567208D01*
X158433760Y-40592753D01*
X158231585Y-40658444D01*
X158042179Y-40754951D01*
X157870213Y-40879890D01*
X157719890Y-41030213D01*
X157594949Y-41202182D01*
X157590484Y-41210946D01*
X157542509Y-41261742D01*
X157474688Y-41278536D01*
X157408553Y-41255998D01*
X157369516Y-41210946D01*
X157365050Y-41202182D01*
X157240109Y-41030213D01*
X157089786Y-40879890D01*
X156917820Y-40754951D01*
X156728414Y-40658444D01*
X156728413Y-40658443D01*
X156728412Y-40658443D01*
X156526243Y-40592754D01*
X156526241Y-40592753D01*
X156526240Y-40592753D01*
X156364957Y-40567208D01*
X156316287Y-40559500D01*
X156103713Y-40559500D01*
X156055042Y-40567208D01*
X155893760Y-40592753D01*
X155691585Y-40658444D01*
X155502179Y-40754951D01*
X155330213Y-40879890D01*
X155179890Y-41030213D01*
X155054949Y-41202182D01*
X155050484Y-41210946D01*
X155002509Y-41261742D01*
X154934688Y-41278536D01*
X154868553Y-41255998D01*
X154829516Y-41210946D01*
X154825050Y-41202182D01*
X154700109Y-41030213D01*
X154549786Y-40879890D01*
X154377820Y-40754951D01*
X154188414Y-40658444D01*
X154188413Y-40658443D01*
X154188412Y-40658443D01*
X153986243Y-40592754D01*
X153986241Y-40592753D01*
X153986240Y-40592753D01*
X153824957Y-40567208D01*
X153776287Y-40559500D01*
X153563713Y-40559500D01*
X153515042Y-40567208D01*
X153353760Y-40592753D01*
X153151585Y-40658444D01*
X152962179Y-40754951D01*
X152790213Y-40879890D01*
X152639890Y-41030213D01*
X152514949Y-41202182D01*
X152510484Y-41210946D01*
X152462509Y-41261742D01*
X152394688Y-41278536D01*
X152328553Y-41255998D01*
X152289516Y-41210946D01*
X152285050Y-41202182D01*
X152160109Y-41030213D01*
X152009786Y-40879890D01*
X151837820Y-40754951D01*
X151648414Y-40658444D01*
X151648413Y-40658443D01*
X151648412Y-40658443D01*
X151446243Y-40592754D01*
X151446241Y-40592753D01*
X151446240Y-40592753D01*
X151284957Y-40567208D01*
X151236287Y-40559500D01*
X151023713Y-40559500D01*
X150975042Y-40567208D01*
X150813760Y-40592753D01*
X150611585Y-40658444D01*
X150422179Y-40754951D01*
X150250213Y-40879890D01*
X150099890Y-41030213D01*
X149974949Y-41202182D01*
X149970484Y-41210946D01*
X149922509Y-41261742D01*
X149854688Y-41278536D01*
X149788553Y-41255998D01*
X149749516Y-41210946D01*
X149745050Y-41202182D01*
X149620109Y-41030213D01*
X149469786Y-40879890D01*
X149297820Y-40754951D01*
X149108414Y-40658444D01*
X149108413Y-40658443D01*
X149108412Y-40658443D01*
X148906243Y-40592754D01*
X148906241Y-40592753D01*
X148906240Y-40592753D01*
X148744957Y-40567208D01*
X148696287Y-40559500D01*
X148483713Y-40559500D01*
X148435042Y-40567208D01*
X148273760Y-40592753D01*
X148071585Y-40658444D01*
X147882179Y-40754951D01*
X147710213Y-40879890D01*
X147559890Y-41030213D01*
X147434949Y-41202182D01*
X147430484Y-41210946D01*
X147382509Y-41261742D01*
X147314688Y-41278536D01*
X147248553Y-41255998D01*
X147209516Y-41210946D01*
X147205050Y-41202182D01*
X147080109Y-41030213D01*
X146929786Y-40879890D01*
X146757820Y-40754951D01*
X146568414Y-40658444D01*
X146568413Y-40658443D01*
X146568412Y-40658443D01*
X146366243Y-40592754D01*
X146366241Y-40592753D01*
X146366240Y-40592753D01*
X146204957Y-40567208D01*
X146156287Y-40559500D01*
X145943713Y-40559500D01*
X145895042Y-40567208D01*
X145733760Y-40592753D01*
X145531585Y-40658444D01*
X145342179Y-40754951D01*
X145170213Y-40879890D01*
X145019890Y-41030213D01*
X144894949Y-41202182D01*
X144890202Y-41211499D01*
X144842227Y-41262293D01*
X144774405Y-41279087D01*
X144708271Y-41256548D01*
X144669234Y-41211495D01*
X144664626Y-41202452D01*
X144625270Y-41148282D01*
X144625269Y-41148282D01*
X143992962Y-41780590D01*
X143975925Y-41717007D01*
X143910099Y-41602993D01*
X143817007Y-41509901D01*
X143702993Y-41444075D01*
X143639409Y-41427037D01*
X144271716Y-40794728D01*
X144217550Y-40755375D01*
X144028217Y-40658904D01*
X143826129Y-40593242D01*
X143616246Y-40560000D01*
X143403754Y-40560000D01*
X143193872Y-40593242D01*
X143193869Y-40593242D01*
X142991782Y-40658904D01*
X142802439Y-40755380D01*
X142748282Y-40794727D01*
X142748282Y-40794728D01*
X143380591Y-41427037D01*
X143317007Y-41444075D01*
X143202993Y-41509901D01*
X143109901Y-41602993D01*
X143044075Y-41717007D01*
X143027037Y-41780591D01*
X142394728Y-41148282D01*
X142394727Y-41148282D01*
X142355380Y-41202440D01*
X142355376Y-41202446D01*
X142350760Y-41211505D01*
X142302781Y-41262297D01*
X142234959Y-41279087D01*
X142168826Y-41256543D01*
X142129794Y-41211493D01*
X142125051Y-41202184D01*
X142125049Y-41202181D01*
X142125048Y-41202179D01*
X142000109Y-41030213D01*
X141849786Y-40879890D01*
X141677820Y-40754951D01*
X141488414Y-40658444D01*
X141488413Y-40658443D01*
X141488412Y-40658443D01*
X141286243Y-40592754D01*
X141286241Y-40592753D01*
X141286240Y-40592753D01*
X141124957Y-40567208D01*
X141076287Y-40559500D01*
X140863713Y-40559500D01*
X140815042Y-40567208D01*
X140653760Y-40592753D01*
X140451585Y-40658444D01*
X140262179Y-40754951D01*
X140090213Y-40879890D01*
X139939890Y-41030213D01*
X139814949Y-41202182D01*
X139810484Y-41210946D01*
X139762509Y-41261742D01*
X139694688Y-41278536D01*
X139628553Y-41255998D01*
X139589516Y-41210946D01*
X139585050Y-41202182D01*
X139460109Y-41030213D01*
X139309786Y-40879890D01*
X139137820Y-40754951D01*
X138948414Y-40658444D01*
X138948413Y-40658443D01*
X138948412Y-40658443D01*
X138746243Y-40592754D01*
X138746241Y-40592753D01*
X138746240Y-40592753D01*
X138584957Y-40567208D01*
X138536287Y-40559500D01*
X138323713Y-40559500D01*
X138275042Y-40567208D01*
X138113760Y-40592753D01*
X137911585Y-40658444D01*
X137722179Y-40754951D01*
X137550213Y-40879890D01*
X137399890Y-41030213D01*
X137274949Y-41202182D01*
X137270484Y-41210946D01*
X137222509Y-41261742D01*
X137154688Y-41278536D01*
X137088553Y-41255998D01*
X137049516Y-41210946D01*
X137045050Y-41202182D01*
X136920109Y-41030213D01*
X136769786Y-40879890D01*
X136597820Y-40754951D01*
X136408414Y-40658444D01*
X136408413Y-40658443D01*
X136408412Y-40658443D01*
X136206243Y-40592754D01*
X136206241Y-40592753D01*
X136206240Y-40592753D01*
X136044957Y-40567208D01*
X135996287Y-40559500D01*
X135783713Y-40559500D01*
X135735042Y-40567208D01*
X135573760Y-40592753D01*
X135371585Y-40658444D01*
X135182179Y-40754951D01*
X135010213Y-40879890D01*
X134859890Y-41030213D01*
X134734949Y-41202182D01*
X134730484Y-41210946D01*
X134682509Y-41261742D01*
X134614688Y-41278536D01*
X134548553Y-41255998D01*
X134509516Y-41210946D01*
X134505050Y-41202182D01*
X134380109Y-41030213D01*
X134229786Y-40879890D01*
X134057820Y-40754951D01*
X133868414Y-40658444D01*
X133868413Y-40658443D01*
X133868412Y-40658443D01*
X133666243Y-40592754D01*
X133666241Y-40592753D01*
X133666240Y-40592753D01*
X133504957Y-40567208D01*
X133456287Y-40559500D01*
X133243713Y-40559500D01*
X133195042Y-40567208D01*
X133033760Y-40592753D01*
X132831585Y-40658444D01*
X132642179Y-40754951D01*
X132470213Y-40879890D01*
X132319890Y-41030213D01*
X132194949Y-41202182D01*
X132190484Y-41210946D01*
X132142509Y-41261742D01*
X132074688Y-41278536D01*
X132008553Y-41255998D01*
X131969516Y-41210946D01*
X131965050Y-41202182D01*
X131840109Y-41030213D01*
X131689786Y-40879890D01*
X131517820Y-40754951D01*
X131328414Y-40658444D01*
X131328413Y-40658443D01*
X131328412Y-40658443D01*
X131126243Y-40592754D01*
X131126241Y-40592753D01*
X131126240Y-40592753D01*
X130964957Y-40567208D01*
X130916287Y-40559500D01*
X130703713Y-40559500D01*
X130655042Y-40567208D01*
X130493760Y-40592753D01*
X130291585Y-40658444D01*
X130102179Y-40754951D01*
X129930213Y-40879890D01*
X129779890Y-41030213D01*
X129654949Y-41202182D01*
X129650202Y-41211499D01*
X129602227Y-41262293D01*
X129534405Y-41279087D01*
X129468271Y-41256548D01*
X129429234Y-41211495D01*
X129424626Y-41202452D01*
X129385270Y-41148282D01*
X129385269Y-41148282D01*
X128752962Y-41780590D01*
X128735925Y-41717007D01*
X128670099Y-41602993D01*
X128577007Y-41509901D01*
X128462993Y-41444075D01*
X128399409Y-41427037D01*
X129031716Y-40794728D01*
X128977550Y-40755375D01*
X128788217Y-40658904D01*
X128586129Y-40593242D01*
X128376246Y-40560000D01*
X128163754Y-40560000D01*
X127953872Y-40593242D01*
X127953869Y-40593242D01*
X127751782Y-40658904D01*
X127562439Y-40755380D01*
X127508282Y-40794727D01*
X127508282Y-40794728D01*
X128140591Y-41427037D01*
X128077007Y-41444075D01*
X127962993Y-41509901D01*
X127869901Y-41602993D01*
X127804075Y-41717007D01*
X127787037Y-41780591D01*
X127154728Y-41148282D01*
X127154727Y-41148282D01*
X127115380Y-41202439D01*
X127018904Y-41391782D01*
X126953242Y-41593869D01*
X126953242Y-41593872D01*
X126920000Y-41803753D01*
X126920000Y-42016246D01*
X126953242Y-42226127D01*
X126953242Y-42226130D01*
X127018904Y-42428217D01*
X127115375Y-42617550D01*
X127154728Y-42671716D01*
X127787037Y-42039408D01*
X127804075Y-42102993D01*
X127869901Y-42217007D01*
X127962993Y-42310099D01*
X128077007Y-42375925D01*
X128140590Y-42392962D01*
X127508282Y-43025269D01*
X127508282Y-43025270D01*
X127562449Y-43064624D01*
X127751782Y-43161095D01*
X127953870Y-43226757D01*
X128163754Y-43260000D01*
X128376246Y-43260000D01*
X128586127Y-43226757D01*
X128586130Y-43226757D01*
X128788217Y-43161095D01*
X128977554Y-43064622D01*
X129031716Y-43025270D01*
X129031717Y-43025270D01*
X128399408Y-42392962D01*
X128462993Y-42375925D01*
X128577007Y-42310099D01*
X128670099Y-42217007D01*
X128735925Y-42102993D01*
X128752962Y-42039408D01*
X129385270Y-42671717D01*
X129385270Y-42671716D01*
X129424622Y-42617555D01*
X129429232Y-42608507D01*
X129477205Y-42557709D01*
X129545025Y-42540912D01*
X129611161Y-42563447D01*
X129650204Y-42608504D01*
X129654949Y-42617817D01*
X129779890Y-42789786D01*
X129930213Y-42940109D01*
X130102179Y-43065048D01*
X130102181Y-43065049D01*
X130102184Y-43065051D01*
X130291588Y-43161557D01*
X130493757Y-43227246D01*
X130703713Y-43260500D01*
X130703714Y-43260500D01*
X130916286Y-43260500D01*
X130916287Y-43260500D01*
X131126243Y-43227246D01*
X131328412Y-43161557D01*
X131517816Y-43065051D01*
X131604138Y-43002335D01*
X131689786Y-42940109D01*
X131689788Y-42940106D01*
X131689792Y-42940104D01*
X131840104Y-42789792D01*
X131840106Y-42789788D01*
X131840109Y-42789786D01*
X131965048Y-42617820D01*
X131965047Y-42617820D01*
X131965051Y-42617816D01*
X131969514Y-42609054D01*
X132017488Y-42558259D01*
X132085308Y-42541463D01*
X132151444Y-42563999D01*
X132190486Y-42609056D01*
X132194951Y-42617820D01*
X132319890Y-42789786D01*
X132470213Y-42940109D01*
X132642179Y-43065048D01*
X132642181Y-43065049D01*
X132642184Y-43065051D01*
X132831588Y-43161557D01*
X133033757Y-43227246D01*
X133243713Y-43260500D01*
X133243714Y-43260500D01*
X133456286Y-43260500D01*
X133456287Y-43260500D01*
X133666243Y-43227246D01*
X133868412Y-43161557D01*
X134057816Y-43065051D01*
X134144138Y-43002335D01*
X134229786Y-42940109D01*
X134229788Y-42940106D01*
X134229792Y-42940104D01*
X134380104Y-42789792D01*
X134380106Y-42789788D01*
X134380109Y-42789786D01*
X134505048Y-42617820D01*
X134505047Y-42617820D01*
X134505051Y-42617816D01*
X134509514Y-42609054D01*
X134557488Y-42558259D01*
X134625308Y-42541463D01*
X134691444Y-42563999D01*
X134730486Y-42609056D01*
X134734951Y-42617820D01*
X134859890Y-42789786D01*
X135010213Y-42940109D01*
X135182179Y-43065048D01*
X135182181Y-43065049D01*
X135182184Y-43065051D01*
X135371588Y-43161557D01*
X135573757Y-43227246D01*
X135783713Y-43260500D01*
X135783714Y-43260500D01*
X135996286Y-43260500D01*
X135996287Y-43260500D01*
X136206243Y-43227246D01*
X136408412Y-43161557D01*
X136597816Y-43065051D01*
X136684138Y-43002335D01*
X136769786Y-42940109D01*
X136769788Y-42940106D01*
X136769792Y-42940104D01*
X136920104Y-42789792D01*
X136920106Y-42789788D01*
X136920109Y-42789786D01*
X137045048Y-42617820D01*
X137045047Y-42617820D01*
X137045051Y-42617816D01*
X137049514Y-42609054D01*
X137097488Y-42558259D01*
X137165308Y-42541463D01*
X137231444Y-42563999D01*
X137270486Y-42609056D01*
X137274951Y-42617820D01*
X137399890Y-42789786D01*
X137550213Y-42940109D01*
X137722179Y-43065048D01*
X137722181Y-43065049D01*
X137722184Y-43065051D01*
X137911588Y-43161557D01*
X138113757Y-43227246D01*
X138323713Y-43260500D01*
X138323714Y-43260500D01*
X138536286Y-43260500D01*
X138536287Y-43260500D01*
X138746243Y-43227246D01*
X138948412Y-43161557D01*
X139137816Y-43065051D01*
X139224138Y-43002335D01*
X139309786Y-42940109D01*
X139309788Y-42940106D01*
X139309792Y-42940104D01*
X139460104Y-42789792D01*
X139460106Y-42789788D01*
X139460109Y-42789786D01*
X139585048Y-42617820D01*
X139585047Y-42617820D01*
X139585051Y-42617816D01*
X139589514Y-42609054D01*
X139637488Y-42558259D01*
X139705308Y-42541463D01*
X139771444Y-42563999D01*
X139810486Y-42609056D01*
X139814951Y-42617820D01*
X139939890Y-42789786D01*
X140090213Y-42940109D01*
X140251134Y-43057023D01*
X140262184Y-43065051D01*
X140289650Y-43079045D01*
X140291317Y-43079895D01*
X140342113Y-43127870D01*
X140358908Y-43195691D01*
X140336370Y-43261826D01*
X140322703Y-43278061D01*
X138337584Y-45263181D01*
X138276261Y-45296666D01*
X138249903Y-45299500D01*
X136279061Y-45299500D01*
X136279057Y-45299499D01*
X136120943Y-45299499D01*
X136120939Y-45299500D01*
X118395420Y-45299500D01*
X118395404Y-45299499D01*
X118387808Y-45299499D01*
X118229693Y-45299499D01*
X118153329Y-45319961D01*
X118076964Y-45340423D01*
X118076959Y-45340426D01*
X117940040Y-45419475D01*
X117940032Y-45419481D01*
X115922483Y-47437031D01*
X115920464Y-47435012D01*
X115875181Y-47468067D01*
X115805434Y-47472212D01*
X115744519Y-47437991D01*
X115711775Y-47376269D01*
X115709250Y-47351372D01*
X115709250Y-34334500D01*
X115728935Y-34267461D01*
X115781739Y-34221706D01*
X115833250Y-34210500D01*
X182084250Y-34210500D01*
X182151289Y-34230185D01*
G37*
%TD.AperFunction*%
%TA.AperFunction,Conductor*%
G36*
X177335703Y-80176634D02*
G01*
X177342181Y-80182666D01*
X178433181Y-81273666D01*
X178466666Y-81334989D01*
X178469500Y-81361347D01*
X178469500Y-89869903D01*
X178449815Y-89936942D01*
X178433181Y-89957584D01*
X172957584Y-95433181D01*
X172896261Y-95466666D01*
X172869903Y-95469500D01*
X165850097Y-95469500D01*
X165783058Y-95449815D01*
X165762416Y-95433181D01*
X164411416Y-94082181D01*
X164377931Y-94020858D01*
X164382915Y-93951166D01*
X164424787Y-93895233D01*
X164490251Y-93870816D01*
X164499097Y-93870500D01*
X172073331Y-93870500D01*
X172073347Y-93870501D01*
X172080943Y-93870501D01*
X172239054Y-93870501D01*
X172239057Y-93870501D01*
X172391785Y-93829577D01*
X172441904Y-93800639D01*
X172528716Y-93750520D01*
X172640520Y-93638716D01*
X172640520Y-93638714D01*
X172650728Y-93628507D01*
X172650730Y-93628504D01*
X176898713Y-89380521D01*
X176898716Y-89380520D01*
X177010520Y-89268716D01*
X177060639Y-89181904D01*
X177089577Y-89131785D01*
X177130500Y-88979058D01*
X177130500Y-88820943D01*
X177130500Y-80270347D01*
X177150185Y-80203308D01*
X177202989Y-80157553D01*
X177272147Y-80147609D01*
X177335703Y-80176634D01*
G37*
%TD.AperFunction*%
%TD*%
M02*
