%TF.GenerationSoftware,KiCad,Pcbnew,9.0.2*%
%TF.CreationDate,2025-06-14T10:10:57+07:00*%
%TF.ProjectId,WiFi_Frauder_DEV,57694669-5f46-4726-9175-6465725f4445,3*%
%TF.SameCoordinates,Original*%
%TF.FileFunction,Copper,L2,Bot*%
%TF.FilePolarity,Positive*%
%FSLAX46Y46*%
G04 Gerber Fmt 4.6, Leading zero omitted, Abs format (unit mm)*
G04 Created by KiCad (PCBNEW 9.0.2) date 2025-06-14 10:10:57*
%MOMM*%
%LPD*%
G01*
G04 APERTURE LIST*
%TA.AperFunction,ComponentPad*%
%ADD10C,2.000000*%
%TD*%
%TA.AperFunction,ComponentPad*%
%ADD11C,1.600000*%
%TD*%
%TA.AperFunction,ComponentPad*%
%ADD12R,1.508000X1.508000*%
%TD*%
%TA.AperFunction,ComponentPad*%
%ADD13C,1.508000*%
%TD*%
%TA.AperFunction,ComponentPad*%
%ADD14C,3.000000*%
%TD*%
%TA.AperFunction,ComponentPad*%
%ADD15R,1.200000X2.000000*%
%TD*%
%TA.AperFunction,ComponentPad*%
%ADD16O,1.200000X2.000000*%
%TD*%
%TA.AperFunction,ViaPad*%
%ADD17C,0.600000*%
%TD*%
%TA.AperFunction,Conductor*%
%ADD18C,0.200000*%
%TD*%
G04 APERTURE END LIST*
D10*
%TO.P,SW2,1,1*%
%TO.N,/BTN_UP_NET*%
X152758750Y-88850000D03*
X159258750Y-88850000D03*
%TO.P,SW2,2,2*%
%TO.N,+5V*%
X152758750Y-93350000D03*
X159258750Y-93350000D03*
%TD*%
D11*
%TO.P,R2,1*%
%TO.N,GND*%
X165728750Y-90800000D03*
%TO.P,R2,2*%
%TO.N,/BTN_UP_NET*%
X175888750Y-90800000D03*
%TD*%
%TO.P,R3,1*%
%TO.N,GND*%
X165728750Y-122500000D03*
%TO.P,R3,2*%
%TO.N,/BTN_ENTER_NET*%
X175888750Y-122500000D03*
%TD*%
D12*
%TO.P,U2,1,GND*%
%TO.N,GND*%
X129298750Y-88712500D03*
D13*
%TO.P,U2,2,VCC_IN*%
%TO.N,+5V*%
X131838750Y-88712500D03*
%TO.P,U2,3,SCL*%
%TO.N,/OLED_SCL_NET*%
X134378750Y-88712500D03*
%TO.P,U2,4,SDA*%
%TO.N,/OLED_SDA_NET*%
X136918750Y-88712500D03*
D14*
%TO.P,U2,S1*%
%TO.N,N/C*%
X122108750Y-89212500D03*
%TO.P,U2,S2*%
X144108750Y-89212500D03*
%TO.P,U2,S3*%
X144108750Y-111212500D03*
%TO.P,U2,S4*%
X122108750Y-111212500D03*
%TD*%
D10*
%TO.P,SW1,1,1*%
%TO.N,/BTN_DOWN_NET*%
X152758750Y-104950000D03*
X159258750Y-104950000D03*
%TO.P,SW1,2,2*%
%TO.N,+5V*%
X152758750Y-109450000D03*
X159258750Y-109450000D03*
%TD*%
%TO.P,SW3,1,1*%
%TO.N,/BTN_ENTER_NET*%
X152758750Y-120150000D03*
X159258750Y-120150000D03*
%TO.P,SW3,2,2*%
%TO.N,+5V*%
X152758750Y-124650000D03*
X159258750Y-124650000D03*
%TD*%
D15*
%TO.P,U1,1,3V3*%
%TO.N,unconnected-(U1-3V3-Pad1)*%
X128005310Y-77100000D03*
D16*
%TO.P,U1,2,CHIP_PU*%
%TO.N,unconnected-(U1-CHIP_PU-Pad2)*%
X130545310Y-77100000D03*
%TO.P,U1,3,SENSOR_VP/GPIO36/ADC1_CH0*%
%TO.N,unconnected-(U1-SENSOR_VP{slash}GPIO36{slash}ADC1_CH0-Pad3)*%
X133085310Y-77100000D03*
%TO.P,U1,4,SENSOR_VN/GPIO39/ADC1_CH3*%
%TO.N,unconnected-(U1-SENSOR_VN{slash}GPIO39{slash}ADC1_CH3-Pad4)*%
X135625310Y-77100000D03*
%TO.P,U1,5,VDET_1/GPIO34/ADC1_CH6*%
%TO.N,unconnected-(U1-VDET_1{slash}GPIO34{slash}ADC1_CH6-Pad5)*%
X138165310Y-77100000D03*
%TO.P,U1,6,VDET_2/GPIO35/ADC1_CH7*%
%TO.N,unconnected-(U1-VDET_2{slash}GPIO35{slash}ADC1_CH7-Pad6)*%
X140705310Y-77100000D03*
%TO.P,U1,7,32K_XP/GPIO32/ADC1_CH4*%
%TO.N,unconnected-(U1-32K_XP{slash}GPIO32{slash}ADC1_CH4-Pad7)*%
X143245310Y-77100000D03*
%TO.P,U1,8,32K_XN/GPIO33/ADC1_CH5*%
%TO.N,unconnected-(U1-32K_XN{slash}GPIO33{slash}ADC1_CH5-Pad8)*%
X145785310Y-77100000D03*
%TO.P,U1,9,DAC_1/ADC2_CH8/GPIO25*%
%TO.N,unconnected-(U1-DAC_1{slash}ADC2_CH8{slash}GPIO25-Pad9)*%
X148325310Y-77100000D03*
%TO.P,U1,10,DAC_2/ADC2_CH9/GPIO26*%
%TO.N,unconnected-(U1-DAC_2{slash}ADC2_CH9{slash}GPIO26-Pad10)*%
X150865310Y-77100000D03*
%TO.P,U1,11,ADC2_CH7/GPIO27*%
%TO.N,unconnected-(U1-ADC2_CH7{slash}GPIO27-Pad11)*%
X153405310Y-77100000D03*
%TO.P,U1,12,MTMS/GPIO14/ADC2_CH6*%
%TO.N,unconnected-(U1-MTMS{slash}GPIO14{slash}ADC2_CH6-Pad12)*%
X155945310Y-77100000D03*
%TO.P,U1,13,MTDI/GPIO12/ADC2_CH5*%
%TO.N,unconnected-(U1-MTDI{slash}GPIO12{slash}ADC2_CH5-Pad13)*%
X158485310Y-77100000D03*
%TO.P,U1,14,GND*%
%TO.N,GND*%
X161025310Y-77100000D03*
%TO.P,U1,15,MTCK/GPIO13/ADC2_CH4*%
%TO.N,unconnected-(U1-MTCK{slash}GPIO13{slash}ADC2_CH4-Pad15)*%
X163565310Y-77100000D03*
%TO.P,U1,16,SD_DATA2/GPIO9*%
%TO.N,unconnected-(U1-SD_DATA2{slash}GPIO9-Pad16)*%
X166105310Y-77100000D03*
%TO.P,U1,17,SD_DATA3/GPIO10*%
%TO.N,unconnected-(U1-SD_DATA3{slash}GPIO10-Pad17)*%
X168645310Y-77100000D03*
%TO.P,U1,18,CMD*%
%TO.N,unconnected-(U1-CMD-Pad18)*%
X171185310Y-77100000D03*
%TO.P,U1,19,5V*%
%TO.N,+5V*%
X173725310Y-77100000D03*
%TO.P,U1,20,SD_CLK/GPIO6*%
%TO.N,unconnected-(U1-SD_CLK{slash}GPIO6-Pad20)*%
X173722590Y-51703680D03*
%TO.P,U1,21,SD_DATA0/GPIO7*%
%TO.N,unconnected-(U1-SD_DATA0{slash}GPIO7-Pad21)*%
X171182590Y-51703680D03*
%TO.P,U1,22,SD_DATA1/GPIO8*%
%TO.N,unconnected-(U1-SD_DATA1{slash}GPIO8-Pad22)*%
X168645310Y-51700000D03*
%TO.P,U1,23,MTDO/GPIO15/ADC2_CH3*%
%TO.N,unconnected-(U1-MTDO{slash}GPIO15{slash}ADC2_CH3-Pad23)*%
X166105310Y-51700000D03*
%TO.P,U1,24,ADC2_CH2/GPIO2*%
%TO.N,unconnected-(U1-ADC2_CH2{slash}GPIO2-Pad24)*%
X163565310Y-51700000D03*
%TO.P,U1,25,GPIO0/BOOT/ADC2_CH1*%
%TO.N,unconnected-(U1-GPIO0{slash}BOOT{slash}ADC2_CH1-Pad25)*%
X161025310Y-51700000D03*
%TO.P,U1,26,ADC2_CH0/GPIO4*%
%TO.N,unconnected-(U1-ADC2_CH0{slash}GPIO4-Pad26)*%
X158485310Y-51700000D03*
%TO.P,U1,27,GPIO16*%
%TO.N,/OLED_SDA_NET*%
X155945310Y-51700000D03*
%TO.P,U1,28,GPIO17*%
%TO.N,/OLED_SCL_NET*%
X153405310Y-51700000D03*
%TO.P,U1,29,GPIO5*%
%TO.N,unconnected-(U1-GPIO5-Pad29)*%
X150865310Y-51700000D03*
%TO.P,U1,30,GPIO18*%
%TO.N,unconnected-(U1-GPIO18-Pad30)*%
X148325310Y-51700000D03*
%TO.P,U1,31,GPIO19*%
%TO.N,unconnected-(U1-GPIO19-Pad31)*%
X145785310Y-51700000D03*
%TO.P,U1,32,GND*%
%TO.N,GND*%
X143245310Y-51700000D03*
%TO.P,U1,33,GPIO21*%
%TO.N,/BTN_ENTER_NET*%
X140705310Y-51700000D03*
%TO.P,U1,34,U0RXD/GPIO3*%
%TO.N,unconnected-(U1-U0RXD{slash}GPIO3-Pad34)*%
X138165310Y-51700000D03*
%TO.P,U1,35,U0TXD/GPIO1*%
%TO.N,unconnected-(U1-U0TXD{slash}GPIO1-Pad35)*%
X135625310Y-51700000D03*
%TO.P,U1,36,GPIO22*%
%TO.N,/BTN_UP_NET*%
X133085310Y-51700000D03*
%TO.P,U1,37,GPIO23*%
%TO.N,/BTN_DOWN_NET*%
X130545310Y-51700000D03*
%TO.P,U1,38,GND*%
%TO.N,GND*%
X128005310Y-51700000D03*
%TD*%
D11*
%TO.P,R1,1*%
%TO.N,GND*%
X165728750Y-106650000D03*
%TO.P,R1,2*%
%TO.N,/BTN_DOWN_NET*%
X175888750Y-106650000D03*
%TD*%
D17*
%TO.N,GND*%
X143108750Y-47100000D03*
X127908750Y-47000000D03*
X165708750Y-116600000D03*
X165708750Y-85400000D03*
X129308750Y-82700000D03*
X161008750Y-83100000D03*
X165708750Y-100600000D03*
%TD*%
D18*
%TO.N,/BTN_ENTER_NET*%
X118308750Y-45900000D02*
X134905310Y-45900000D01*
X116408750Y-47800000D02*
X118308750Y-45900000D01*
X134905310Y-45900000D02*
X140705310Y-51700000D01*
X116408750Y-102965501D02*
X116408750Y-47800000D01*
X133593249Y-120150000D02*
X116408750Y-102965501D01*
X152758750Y-120150000D02*
X133593249Y-120150000D01*
%TO.N,/OLED_SCL_NET*%
X153405310Y-50894690D02*
X153405310Y-51700000D01*
X173100000Y-46900000D02*
X157400000Y-46900000D01*
X177508750Y-51308750D02*
X173100000Y-46900000D01*
X157400000Y-46900000D02*
X153405310Y-50894690D01*
X177508750Y-79500000D02*
X177508750Y-51308750D01*
%TO.N,/OLED_SDA_NET*%
X155945310Y-54873798D02*
X155945310Y-51700000D01*
X149309554Y-61509554D02*
X155945310Y-54873798D01*
X149300000Y-61500000D02*
X149309554Y-61509554D01*
X128408750Y-61500000D02*
X149300000Y-61500000D01*
X136918750Y-89990000D02*
X136918750Y-88712500D01*
X134808750Y-92100000D02*
X136918750Y-89990000D01*
X126308750Y-90300000D02*
X128108750Y-92100000D01*
X128108750Y-92100000D02*
X134808750Y-92100000D01*
X124808750Y-65100000D02*
X124808750Y-83900000D01*
X124808750Y-83900000D02*
X126308750Y-85400000D01*
X126308750Y-85400000D02*
X126308750Y-90300000D01*
X128408750Y-61500000D02*
X124808750Y-65100000D01*
%TO.N,/BTN_DOWN_NET*%
X117508750Y-64736560D02*
X117508750Y-93400000D01*
X118908750Y-94800000D02*
X118908750Y-101200000D01*
X117508750Y-93400000D02*
X118908750Y-94800000D01*
X130545310Y-51700000D02*
X117508750Y-64736560D01*
X118908750Y-101200000D02*
X122658750Y-104950000D01*
X122658750Y-104950000D02*
X152758750Y-104950000D01*
%TO.N,/BTN_UP_NET*%
X133085310Y-51700000D02*
X119008750Y-65776560D01*
X119008750Y-93200000D02*
X119708750Y-93900000D01*
X147708750Y-93900000D02*
X152758750Y-88850000D01*
X119008750Y-65776560D02*
X119008750Y-93200000D01*
X119708750Y-93900000D02*
X147708750Y-93900000D01*
%TO.N,+5V*%
X131838750Y-88712500D02*
X136251250Y-84300000D01*
X136251250Y-84300000D02*
X166525310Y-84300000D01*
X166525310Y-84300000D02*
X173725310Y-77100000D01*
%TO.N,/OLED_SCL_NET*%
X137691250Y-85400000D02*
X162908750Y-85400000D01*
X134378750Y-88712500D02*
X137691250Y-85400000D01*
X162908750Y-85400000D02*
X164608750Y-87100000D01*
X169908750Y-87100000D02*
X177508750Y-79500000D01*
X164608750Y-87100000D02*
X169908750Y-87100000D01*
%TD*%
%TA.AperFunction,Conductor*%
%TO.N,GND*%
G36*
X182151289Y-43120185D02*
G01*
X182197044Y-43172989D01*
X182208250Y-43224500D01*
X182208250Y-137575500D01*
X182188565Y-137642539D01*
X182135761Y-137688294D01*
X182084250Y-137699500D01*
X115833250Y-137699500D01*
X115766211Y-137679815D01*
X115720456Y-137627011D01*
X115709250Y-137575500D01*
X115709250Y-124531902D01*
X151258250Y-124531902D01*
X151258250Y-124768097D01*
X151295196Y-125001368D01*
X151368183Y-125225996D01*
X151475407Y-125436433D01*
X151614233Y-125627510D01*
X151781240Y-125794517D01*
X151972317Y-125933343D01*
X152071741Y-125984002D01*
X152182753Y-126040566D01*
X152182755Y-126040566D01*
X152182758Y-126040568D01*
X152303162Y-126079689D01*
X152407381Y-126113553D01*
X152640653Y-126150500D01*
X152640658Y-126150500D01*
X152876847Y-126150500D01*
X153110118Y-126113553D01*
X153334742Y-126040568D01*
X153545183Y-125933343D01*
X153736260Y-125794517D01*
X153903267Y-125627510D01*
X154042093Y-125436433D01*
X154149318Y-125225992D01*
X154222303Y-125001368D01*
X154259250Y-124768097D01*
X154259250Y-124531902D01*
X157758250Y-124531902D01*
X157758250Y-124768097D01*
X157795196Y-125001368D01*
X157868183Y-125225996D01*
X157975407Y-125436433D01*
X158114233Y-125627510D01*
X158281240Y-125794517D01*
X158472317Y-125933343D01*
X158571741Y-125984002D01*
X158682753Y-126040566D01*
X158682755Y-126040566D01*
X158682758Y-126040568D01*
X158803162Y-126079689D01*
X158907381Y-126113553D01*
X159140653Y-126150500D01*
X159140658Y-126150500D01*
X159376847Y-126150500D01*
X159610118Y-126113553D01*
X159834742Y-126040568D01*
X160045183Y-125933343D01*
X160236260Y-125794517D01*
X160403267Y-125627510D01*
X160542093Y-125436433D01*
X160649318Y-125225992D01*
X160722303Y-125001368D01*
X160759250Y-124768097D01*
X160759250Y-124531902D01*
X160722303Y-124298631D01*
X160649316Y-124074003D01*
X160542092Y-123863566D01*
X160403267Y-123672490D01*
X160236260Y-123505483D01*
X160045183Y-123366657D01*
X160007022Y-123347213D01*
X159834746Y-123259433D01*
X159610118Y-123186446D01*
X159376847Y-123149500D01*
X159376842Y-123149500D01*
X159140658Y-123149500D01*
X159140653Y-123149500D01*
X158907381Y-123186446D01*
X158682753Y-123259433D01*
X158472316Y-123366657D01*
X158363300Y-123445862D01*
X158281240Y-123505483D01*
X158281238Y-123505485D01*
X158281237Y-123505485D01*
X158114235Y-123672487D01*
X158114235Y-123672488D01*
X158114233Y-123672490D01*
X158054612Y-123754550D01*
X157975407Y-123863566D01*
X157868183Y-124074003D01*
X157795196Y-124298631D01*
X157758250Y-124531902D01*
X154259250Y-124531902D01*
X154222303Y-124298631D01*
X154149316Y-124074003D01*
X154042092Y-123863566D01*
X153903267Y-123672490D01*
X153736260Y-123505483D01*
X153545183Y-123366657D01*
X153507022Y-123347213D01*
X153334746Y-123259433D01*
X153110118Y-123186446D01*
X152876847Y-123149500D01*
X152876842Y-123149500D01*
X152640658Y-123149500D01*
X152640653Y-123149500D01*
X152407381Y-123186446D01*
X152182753Y-123259433D01*
X151972316Y-123366657D01*
X151863300Y-123445862D01*
X151781240Y-123505483D01*
X151781238Y-123505485D01*
X151781237Y-123505485D01*
X151614235Y-123672487D01*
X151614235Y-123672488D01*
X151614233Y-123672490D01*
X151554612Y-123754550D01*
X151475407Y-123863566D01*
X151368183Y-124074003D01*
X151295196Y-124298631D01*
X151258250Y-124531902D01*
X115709250Y-124531902D01*
X115709250Y-122397682D01*
X164428750Y-122397682D01*
X164428750Y-122602317D01*
X164460759Y-122804417D01*
X164523994Y-122999031D01*
X164616891Y-123181350D01*
X164616897Y-123181359D01*
X164649273Y-123225921D01*
X164649274Y-123225922D01*
X165328750Y-122546446D01*
X165328750Y-122552661D01*
X165356009Y-122654394D01*
X165408670Y-122745606D01*
X165483144Y-122820080D01*
X165574356Y-122872741D01*
X165676089Y-122900000D01*
X165682303Y-122900000D01*
X165002826Y-123579474D01*
X165047400Y-123611859D01*
X165229718Y-123704755D01*
X165424332Y-123767990D01*
X165626433Y-123800000D01*
X165831067Y-123800000D01*
X166033167Y-123767990D01*
X166227781Y-123704755D01*
X166410099Y-123611859D01*
X166454671Y-123579474D01*
X165775197Y-122900000D01*
X165781411Y-122900000D01*
X165883144Y-122872741D01*
X165974356Y-122820080D01*
X166048830Y-122745606D01*
X166101491Y-122654394D01*
X166128750Y-122552661D01*
X166128750Y-122546448D01*
X166808224Y-123225922D01*
X166808224Y-123225921D01*
X166840609Y-123181349D01*
X166933505Y-122999031D01*
X166996740Y-122804417D01*
X167028750Y-122602317D01*
X167028750Y-122397682D01*
X167028745Y-122397648D01*
X174588250Y-122397648D01*
X174588250Y-122602351D01*
X174620272Y-122804534D01*
X174683531Y-122999223D01*
X174747441Y-123124653D01*
X174776335Y-123181359D01*
X174776465Y-123181613D01*
X174896778Y-123347213D01*
X175041536Y-123491971D01*
X175161976Y-123579474D01*
X175207140Y-123612287D01*
X175323357Y-123671503D01*
X175389526Y-123705218D01*
X175389528Y-123705218D01*
X175389531Y-123705220D01*
X175493887Y-123739127D01*
X175584215Y-123768477D01*
X175685307Y-123784488D01*
X175786398Y-123800500D01*
X175786399Y-123800500D01*
X175991101Y-123800500D01*
X175991102Y-123800500D01*
X176193284Y-123768477D01*
X176387969Y-123705220D01*
X176570360Y-123612287D01*
X176717362Y-123505485D01*
X176735963Y-123491971D01*
X176735965Y-123491968D01*
X176735969Y-123491966D01*
X176880716Y-123347219D01*
X176880718Y-123347215D01*
X176880721Y-123347213D01*
X176944496Y-123259432D01*
X177001037Y-123181610D01*
X177093970Y-122999219D01*
X177157227Y-122804534D01*
X177189250Y-122602352D01*
X177189250Y-122397648D01*
X177181007Y-122345606D01*
X177157227Y-122195465D01*
X177126208Y-122100000D01*
X177093970Y-122000781D01*
X177093968Y-122000778D01*
X177093968Y-122000776D01*
X177001169Y-121818650D01*
X177001037Y-121818390D01*
X176968842Y-121774077D01*
X176880721Y-121652786D01*
X176735963Y-121508028D01*
X176570363Y-121387715D01*
X176570362Y-121387714D01*
X176570360Y-121387713D01*
X176513403Y-121358691D01*
X176387973Y-121294781D01*
X176193284Y-121231522D01*
X176018745Y-121203878D01*
X175991102Y-121199500D01*
X175786398Y-121199500D01*
X175762079Y-121203351D01*
X175584215Y-121231522D01*
X175389526Y-121294781D01*
X175207136Y-121387715D01*
X175041536Y-121508028D01*
X174896778Y-121652786D01*
X174776465Y-121818386D01*
X174683531Y-122000776D01*
X174620272Y-122195465D01*
X174588250Y-122397648D01*
X167028745Y-122397648D01*
X166996740Y-122195582D01*
X166933505Y-122000968D01*
X166840609Y-121818650D01*
X166808224Y-121774077D01*
X166808224Y-121774076D01*
X166128750Y-122453551D01*
X166128750Y-122447339D01*
X166101491Y-122345606D01*
X166048830Y-122254394D01*
X165974356Y-122179920D01*
X165883144Y-122127259D01*
X165781411Y-122100000D01*
X165775196Y-122100000D01*
X166454672Y-121420524D01*
X166454671Y-121420523D01*
X166410109Y-121388147D01*
X166410100Y-121388141D01*
X166227781Y-121295244D01*
X166033167Y-121232009D01*
X165831067Y-121200000D01*
X165626433Y-121200000D01*
X165424332Y-121232009D01*
X165229718Y-121295244D01*
X165047394Y-121388143D01*
X165002827Y-121420523D01*
X165002827Y-121420524D01*
X165682304Y-122100000D01*
X165676089Y-122100000D01*
X165574356Y-122127259D01*
X165483144Y-122179920D01*
X165408670Y-122254394D01*
X165356009Y-122345606D01*
X165328750Y-122447339D01*
X165328750Y-122453553D01*
X164649274Y-121774077D01*
X164649273Y-121774077D01*
X164616893Y-121818644D01*
X164523994Y-122000968D01*
X164460759Y-122195582D01*
X164428750Y-122397682D01*
X115709250Y-122397682D01*
X115709250Y-103414128D01*
X115715520Y-103392774D01*
X115717149Y-103370579D01*
X115725172Y-103359901D01*
X115728935Y-103347089D01*
X115745752Y-103332516D01*
X115759124Y-103314723D01*
X115771647Y-103310078D01*
X115781739Y-103301334D01*
X115803767Y-103298166D01*
X115824634Y-103290428D01*
X115837677Y-103293290D01*
X115850897Y-103291390D01*
X115871140Y-103300635D01*
X115892879Y-103305406D01*
X115905732Y-103316432D01*
X115914453Y-103320415D01*
X115921094Y-103326610D01*
X115927619Y-103333160D01*
X115928230Y-103334217D01*
X116040034Y-103446021D01*
X116040036Y-103446022D01*
X116047268Y-103453254D01*
X121662465Y-109068451D01*
X121695950Y-109129774D01*
X121690966Y-109199466D01*
X121649094Y-109255399D01*
X121606878Y-109275906D01*
X121464331Y-109314102D01*
X121464329Y-109314102D01*
X121464328Y-109314103D01*
X121464321Y-109314105D01*
X121222059Y-109414453D01*
X121222049Y-109414458D01*
X120994946Y-109545575D01*
X120786898Y-109705218D01*
X120601468Y-109890648D01*
X120441825Y-110098696D01*
X120310708Y-110325799D01*
X120310703Y-110325809D01*
X120210355Y-110568071D01*
X120210352Y-110568081D01*
X120166071Y-110733343D01*
X120142480Y-110821385D01*
X120108250Y-111081372D01*
X120108250Y-111343627D01*
X120134873Y-111545839D01*
X120142480Y-111603616D01*
X120172157Y-111714372D01*
X120210352Y-111856918D01*
X120210355Y-111856928D01*
X120310703Y-112099190D01*
X120310708Y-112099200D01*
X120441825Y-112326303D01*
X120601468Y-112534351D01*
X120601476Y-112534360D01*
X120786890Y-112719774D01*
X120786898Y-112719781D01*
X120994946Y-112879424D01*
X121222049Y-113010541D01*
X121222059Y-113010546D01*
X121464321Y-113110894D01*
X121464331Y-113110898D01*
X121717634Y-113178770D01*
X121977630Y-113213000D01*
X121977637Y-113213000D01*
X122239863Y-113213000D01*
X122239870Y-113213000D01*
X122499866Y-113178770D01*
X122753169Y-113110898D01*
X122995447Y-113010543D01*
X123222553Y-112879424D01*
X123430601Y-112719782D01*
X123430605Y-112719777D01*
X123430610Y-112719774D01*
X123616024Y-112534360D01*
X123616027Y-112534355D01*
X123616032Y-112534351D01*
X123775674Y-112326303D01*
X123906793Y-112099197D01*
X124007148Y-111856919D01*
X124045344Y-111714368D01*
X124081707Y-111654712D01*
X124144553Y-111624182D01*
X124213929Y-111632476D01*
X124252797Y-111658783D01*
X133224533Y-120630520D01*
X133224535Y-120630521D01*
X133224539Y-120630524D01*
X133361458Y-120709573D01*
X133361465Y-120709577D01*
X133514192Y-120750501D01*
X133514194Y-120750501D01*
X133679903Y-120750501D01*
X133679919Y-120750500D01*
X151304682Y-120750500D01*
X151371721Y-120770185D01*
X151415166Y-120818203D01*
X151475407Y-120936433D01*
X151614233Y-121127510D01*
X151781240Y-121294517D01*
X151972317Y-121433343D01*
X152071741Y-121484002D01*
X152182753Y-121540566D01*
X152182755Y-121540566D01*
X152182758Y-121540568D01*
X152303162Y-121579689D01*
X152407381Y-121613553D01*
X152640653Y-121650500D01*
X152640658Y-121650500D01*
X152876847Y-121650500D01*
X153110118Y-121613553D01*
X153334742Y-121540568D01*
X153545183Y-121433343D01*
X153736260Y-121294517D01*
X153903267Y-121127510D01*
X154042093Y-120936433D01*
X154149318Y-120725992D01*
X154222303Y-120501368D01*
X154259250Y-120268097D01*
X154259250Y-120031902D01*
X157758250Y-120031902D01*
X157758250Y-120268097D01*
X157795196Y-120501368D01*
X157868183Y-120725996D01*
X157975407Y-120936433D01*
X158114233Y-121127510D01*
X158281240Y-121294517D01*
X158472317Y-121433343D01*
X158571741Y-121484002D01*
X158682753Y-121540566D01*
X158682755Y-121540566D01*
X158682758Y-121540568D01*
X158803162Y-121579689D01*
X158907381Y-121613553D01*
X159140653Y-121650500D01*
X159140658Y-121650500D01*
X159376847Y-121650500D01*
X159610118Y-121613553D01*
X159834742Y-121540568D01*
X160045183Y-121433343D01*
X160236260Y-121294517D01*
X160403267Y-121127510D01*
X160542093Y-120936433D01*
X160649318Y-120725992D01*
X160722303Y-120501368D01*
X160759250Y-120268097D01*
X160759250Y-120031902D01*
X160722303Y-119798631D01*
X160649316Y-119574003D01*
X160542092Y-119363566D01*
X160403267Y-119172490D01*
X160236260Y-119005483D01*
X160045183Y-118866657D01*
X159834746Y-118759433D01*
X159610118Y-118686446D01*
X159376847Y-118649500D01*
X159376842Y-118649500D01*
X159140658Y-118649500D01*
X159140653Y-118649500D01*
X158907381Y-118686446D01*
X158682753Y-118759433D01*
X158472316Y-118866657D01*
X158363300Y-118945862D01*
X158281240Y-119005483D01*
X158281238Y-119005485D01*
X158281237Y-119005485D01*
X158114235Y-119172487D01*
X158114235Y-119172488D01*
X158114233Y-119172490D01*
X158054612Y-119254550D01*
X157975407Y-119363566D01*
X157868183Y-119574003D01*
X157795196Y-119798631D01*
X157758250Y-120031902D01*
X154259250Y-120031902D01*
X154222303Y-119798631D01*
X154149316Y-119574003D01*
X154042092Y-119363566D01*
X153903267Y-119172490D01*
X153736260Y-119005483D01*
X153545183Y-118866657D01*
X153334746Y-118759433D01*
X153110118Y-118686446D01*
X152876847Y-118649500D01*
X152876842Y-118649500D01*
X152640658Y-118649500D01*
X152640653Y-118649500D01*
X152407381Y-118686446D01*
X152182753Y-118759433D01*
X151972316Y-118866657D01*
X151863300Y-118945862D01*
X151781240Y-119005483D01*
X151781238Y-119005485D01*
X151781237Y-119005485D01*
X151614235Y-119172487D01*
X151614235Y-119172488D01*
X151614233Y-119172490D01*
X151554612Y-119254550D01*
X151475407Y-119363566D01*
X151415167Y-119481795D01*
X151367192Y-119532591D01*
X151304682Y-119549500D01*
X133893347Y-119549500D01*
X133826308Y-119529815D01*
X133805666Y-119513181D01*
X125373857Y-111081372D01*
X142108250Y-111081372D01*
X142108250Y-111343627D01*
X142134873Y-111545839D01*
X142142480Y-111603616D01*
X142172157Y-111714372D01*
X142210352Y-111856918D01*
X142210355Y-111856928D01*
X142310703Y-112099190D01*
X142310708Y-112099200D01*
X142441825Y-112326303D01*
X142601468Y-112534351D01*
X142601476Y-112534360D01*
X142786890Y-112719774D01*
X142786898Y-112719781D01*
X142994946Y-112879424D01*
X143222049Y-113010541D01*
X143222059Y-113010546D01*
X143464321Y-113110894D01*
X143464331Y-113110898D01*
X143717634Y-113178770D01*
X143977630Y-113213000D01*
X143977637Y-113213000D01*
X144239863Y-113213000D01*
X144239870Y-113213000D01*
X144499866Y-113178770D01*
X144753169Y-113110898D01*
X144995447Y-113010543D01*
X145222553Y-112879424D01*
X145430601Y-112719782D01*
X145430605Y-112719777D01*
X145430610Y-112719774D01*
X145616024Y-112534360D01*
X145616027Y-112534355D01*
X145616032Y-112534351D01*
X145775674Y-112326303D01*
X145906793Y-112099197D01*
X146007148Y-111856919D01*
X146075020Y-111603616D01*
X146109250Y-111343620D01*
X146109250Y-111081380D01*
X146075020Y-110821384D01*
X146007148Y-110568081D01*
X146007144Y-110568071D01*
X145906796Y-110325809D01*
X145906791Y-110325799D01*
X145775674Y-110098696D01*
X145616031Y-109890648D01*
X145616024Y-109890640D01*
X145430610Y-109705226D01*
X145430601Y-109705218D01*
X145222553Y-109545575D01*
X145030029Y-109434423D01*
X144995449Y-109414458D01*
X144995440Y-109414453D01*
X144796144Y-109331902D01*
X151258250Y-109331902D01*
X151258250Y-109568097D01*
X151295196Y-109801368D01*
X151368183Y-110025996D01*
X151475407Y-110236433D01*
X151614233Y-110427510D01*
X151781240Y-110594517D01*
X151972317Y-110733343D01*
X152071741Y-110784002D01*
X152182753Y-110840566D01*
X152182755Y-110840566D01*
X152182758Y-110840568D01*
X152303162Y-110879689D01*
X152407381Y-110913553D01*
X152640653Y-110950500D01*
X152640658Y-110950500D01*
X152876847Y-110950500D01*
X153110118Y-110913553D01*
X153334742Y-110840568D01*
X153545183Y-110733343D01*
X153736260Y-110594517D01*
X153903267Y-110427510D01*
X154042093Y-110236433D01*
X154149318Y-110025992D01*
X154222303Y-109801368D01*
X154259250Y-109568097D01*
X154259250Y-109331902D01*
X157758250Y-109331902D01*
X157758250Y-109568097D01*
X157795196Y-109801368D01*
X157868183Y-110025996D01*
X157975407Y-110236433D01*
X158114233Y-110427510D01*
X158281240Y-110594517D01*
X158472317Y-110733343D01*
X158571741Y-110784002D01*
X158682753Y-110840566D01*
X158682755Y-110840566D01*
X158682758Y-110840568D01*
X158803162Y-110879689D01*
X158907381Y-110913553D01*
X159140653Y-110950500D01*
X159140658Y-110950500D01*
X159376847Y-110950500D01*
X159610118Y-110913553D01*
X159834742Y-110840568D01*
X160045183Y-110733343D01*
X160236260Y-110594517D01*
X160403267Y-110427510D01*
X160542093Y-110236433D01*
X160649318Y-110025992D01*
X160722303Y-109801368D01*
X160759250Y-109568097D01*
X160759250Y-109331902D01*
X160722303Y-109098631D01*
X160649316Y-108874003D01*
X160542092Y-108663566D01*
X160403267Y-108472490D01*
X160236260Y-108305483D01*
X160045183Y-108166657D01*
X159834746Y-108059433D01*
X159610118Y-107986446D01*
X159376847Y-107949500D01*
X159376842Y-107949500D01*
X159140658Y-107949500D01*
X159140653Y-107949500D01*
X158907381Y-107986446D01*
X158682753Y-108059433D01*
X158472316Y-108166657D01*
X158363300Y-108245862D01*
X158281240Y-108305483D01*
X158281238Y-108305485D01*
X158281237Y-108305485D01*
X158114235Y-108472487D01*
X158114235Y-108472488D01*
X158114233Y-108472490D01*
X158054612Y-108554550D01*
X157975407Y-108663566D01*
X157868183Y-108874003D01*
X157795196Y-109098631D01*
X157758250Y-109331902D01*
X154259250Y-109331902D01*
X154222303Y-109098631D01*
X154149316Y-108874003D01*
X154042092Y-108663566D01*
X153903267Y-108472490D01*
X153736260Y-108305483D01*
X153545183Y-108166657D01*
X153334746Y-108059433D01*
X153110118Y-107986446D01*
X152876847Y-107949500D01*
X152876842Y-107949500D01*
X152640658Y-107949500D01*
X152640653Y-107949500D01*
X152407381Y-107986446D01*
X152182753Y-108059433D01*
X151972316Y-108166657D01*
X151863300Y-108245862D01*
X151781240Y-108305483D01*
X151781238Y-108305485D01*
X151781237Y-108305485D01*
X151614235Y-108472487D01*
X151614235Y-108472488D01*
X151614233Y-108472490D01*
X151554612Y-108554550D01*
X151475407Y-108663566D01*
X151368183Y-108874003D01*
X151295196Y-109098631D01*
X151258250Y-109331902D01*
X144796144Y-109331902D01*
X144753178Y-109314105D01*
X144753171Y-109314103D01*
X144753169Y-109314102D01*
X144499866Y-109246230D01*
X144442089Y-109238623D01*
X144239877Y-109212000D01*
X144239870Y-109212000D01*
X143977630Y-109212000D01*
X143977622Y-109212000D01*
X143746522Y-109242426D01*
X143717634Y-109246230D01*
X143464331Y-109314102D01*
X143464321Y-109314105D01*
X143222059Y-109414453D01*
X143222049Y-109414458D01*
X142994946Y-109545575D01*
X142786898Y-109705218D01*
X142601468Y-109890648D01*
X142441825Y-110098696D01*
X142310708Y-110325799D01*
X142310703Y-110325809D01*
X142210355Y-110568071D01*
X142210352Y-110568081D01*
X142166071Y-110733343D01*
X142142480Y-110821385D01*
X142108250Y-111081372D01*
X125373857Y-111081372D01*
X120840167Y-106547682D01*
X164428750Y-106547682D01*
X164428750Y-106752317D01*
X164460759Y-106954417D01*
X164523994Y-107149031D01*
X164616891Y-107331350D01*
X164616897Y-107331359D01*
X164649273Y-107375921D01*
X164649274Y-107375922D01*
X165328750Y-106696446D01*
X165328750Y-106702661D01*
X165356009Y-106804394D01*
X165408670Y-106895606D01*
X165483144Y-106970080D01*
X165574356Y-107022741D01*
X165676089Y-107050000D01*
X165682303Y-107050000D01*
X165002826Y-107729474D01*
X165047400Y-107761859D01*
X165229718Y-107854755D01*
X165424332Y-107917990D01*
X165626433Y-107950000D01*
X165831067Y-107950000D01*
X166033167Y-107917990D01*
X166227781Y-107854755D01*
X166410099Y-107761859D01*
X166454671Y-107729474D01*
X165775197Y-107050000D01*
X165781411Y-107050000D01*
X165883144Y-107022741D01*
X165974356Y-106970080D01*
X166048830Y-106895606D01*
X166101491Y-106804394D01*
X166128750Y-106702661D01*
X166128750Y-106696448D01*
X166808224Y-107375922D01*
X166808224Y-107375921D01*
X166840609Y-107331349D01*
X166933505Y-107149031D01*
X166996740Y-106954417D01*
X167028750Y-106752317D01*
X167028750Y-106547682D01*
X167028745Y-106547648D01*
X174588250Y-106547648D01*
X174588250Y-106752351D01*
X174620272Y-106954534D01*
X174683531Y-107149223D01*
X174747441Y-107274653D01*
X174776335Y-107331359D01*
X174776465Y-107331613D01*
X174896778Y-107497213D01*
X175041536Y-107641971D01*
X175161976Y-107729474D01*
X175207140Y-107762287D01*
X175323357Y-107821503D01*
X175389526Y-107855218D01*
X175389528Y-107855218D01*
X175389531Y-107855220D01*
X175493887Y-107889127D01*
X175584215Y-107918477D01*
X175685307Y-107934488D01*
X175786398Y-107950500D01*
X175786399Y-107950500D01*
X175991101Y-107950500D01*
X175991102Y-107950500D01*
X176193284Y-107918477D01*
X176387969Y-107855220D01*
X176570360Y-107762287D01*
X176663340Y-107694732D01*
X176735963Y-107641971D01*
X176735965Y-107641968D01*
X176735969Y-107641966D01*
X176880716Y-107497219D01*
X176880718Y-107497215D01*
X176880721Y-107497213D01*
X176933482Y-107424590D01*
X177001037Y-107331610D01*
X177093970Y-107149219D01*
X177157227Y-106954534D01*
X177189250Y-106752352D01*
X177189250Y-106547648D01*
X177168011Y-106413553D01*
X177157227Y-106345465D01*
X177120796Y-106233342D01*
X177093970Y-106150781D01*
X177093968Y-106150778D01*
X177093968Y-106150776D01*
X177001169Y-105968650D01*
X177001037Y-105968390D01*
X176968842Y-105924077D01*
X176880721Y-105802786D01*
X176735963Y-105658028D01*
X176570363Y-105537715D01*
X176570362Y-105537714D01*
X176570360Y-105537713D01*
X176513403Y-105508691D01*
X176387973Y-105444781D01*
X176193284Y-105381522D01*
X176018745Y-105353878D01*
X175991102Y-105349500D01*
X175786398Y-105349500D01*
X175762079Y-105353351D01*
X175584215Y-105381522D01*
X175389526Y-105444781D01*
X175207136Y-105537715D01*
X175041536Y-105658028D01*
X174896778Y-105802786D01*
X174776465Y-105968386D01*
X174683531Y-106150776D01*
X174620272Y-106345465D01*
X174588250Y-106547648D01*
X167028745Y-106547648D01*
X166996740Y-106345582D01*
X166933505Y-106150968D01*
X166840609Y-105968650D01*
X166808224Y-105924077D01*
X166808224Y-105924076D01*
X166128750Y-106603551D01*
X166128750Y-106597339D01*
X166101491Y-106495606D01*
X166048830Y-106404394D01*
X165974356Y-106329920D01*
X165883144Y-106277259D01*
X165781411Y-106250000D01*
X165775196Y-106250000D01*
X166454672Y-105570524D01*
X166454671Y-105570523D01*
X166410109Y-105538147D01*
X166410100Y-105538141D01*
X166227781Y-105445244D01*
X166033167Y-105382009D01*
X165831067Y-105350000D01*
X165626433Y-105350000D01*
X165424332Y-105382009D01*
X165229718Y-105445244D01*
X165047394Y-105538143D01*
X165002827Y-105570523D01*
X165002827Y-105570524D01*
X165682304Y-106250000D01*
X165676089Y-106250000D01*
X165574356Y-106277259D01*
X165483144Y-106329920D01*
X165408670Y-106404394D01*
X165356009Y-106495606D01*
X165328750Y-106597339D01*
X165328750Y-106603553D01*
X164649274Y-105924077D01*
X164649273Y-105924077D01*
X164616893Y-105968644D01*
X164523994Y-106150968D01*
X164460759Y-106345582D01*
X164428750Y-106547682D01*
X120840167Y-106547682D01*
X117045569Y-102753084D01*
X117012084Y-102691761D01*
X117009250Y-102665403D01*
X117009250Y-94049097D01*
X117028935Y-93982058D01*
X117081739Y-93936303D01*
X117150897Y-93926359D01*
X117214453Y-93955384D01*
X117220931Y-93961416D01*
X118271931Y-95012416D01*
X118305416Y-95073739D01*
X118308250Y-95100097D01*
X118308250Y-101113330D01*
X118308249Y-101113348D01*
X118308249Y-101279054D01*
X118308248Y-101279054D01*
X118349173Y-101431785D01*
X118378108Y-101481900D01*
X118378109Y-101481904D01*
X118378110Y-101481904D01*
X118428229Y-101568714D01*
X118428231Y-101568717D01*
X118547099Y-101687585D01*
X118547105Y-101687590D01*
X122173889Y-105314374D01*
X122173899Y-105314385D01*
X122178229Y-105318715D01*
X122178230Y-105318716D01*
X122290034Y-105430520D01*
X122376845Y-105480639D01*
X122376847Y-105480641D01*
X122414901Y-105502611D01*
X122426965Y-105509577D01*
X122579693Y-105550501D01*
X122579696Y-105550501D01*
X122745403Y-105550501D01*
X122745419Y-105550500D01*
X151304682Y-105550500D01*
X151371721Y-105570185D01*
X151415166Y-105618203D01*
X151475407Y-105736433D01*
X151614233Y-105927510D01*
X151781240Y-106094517D01*
X151972317Y-106233343D01*
X152058507Y-106277259D01*
X152182753Y-106340566D01*
X152182755Y-106340566D01*
X152182758Y-106340568D01*
X152303162Y-106379689D01*
X152407381Y-106413553D01*
X152640653Y-106450500D01*
X152640658Y-106450500D01*
X152876847Y-106450500D01*
X153110118Y-106413553D01*
X153138306Y-106404394D01*
X153334742Y-106340568D01*
X153545183Y-106233343D01*
X153736260Y-106094517D01*
X153903267Y-105927510D01*
X154042093Y-105736433D01*
X154149318Y-105525992D01*
X154222303Y-105301368D01*
X154259250Y-105068097D01*
X154259250Y-104831902D01*
X157758250Y-104831902D01*
X157758250Y-105068097D01*
X157795196Y-105301368D01*
X157868183Y-105525996D01*
X157975407Y-105736433D01*
X158114233Y-105927510D01*
X158281240Y-106094517D01*
X158472317Y-106233343D01*
X158558507Y-106277259D01*
X158682753Y-106340566D01*
X158682755Y-106340566D01*
X158682758Y-106340568D01*
X158803162Y-106379689D01*
X158907381Y-106413553D01*
X159140653Y-106450500D01*
X159140658Y-106450500D01*
X159376847Y-106450500D01*
X159567249Y-106420343D01*
X159610118Y-106413553D01*
X159638306Y-106404394D01*
X159834742Y-106340568D01*
X160045183Y-106233343D01*
X160236260Y-106094517D01*
X160403267Y-105927510D01*
X160542093Y-105736433D01*
X160649318Y-105525992D01*
X160722303Y-105301368D01*
X160759250Y-105068097D01*
X160759250Y-104831902D01*
X160722303Y-104598631D01*
X160649316Y-104374003D01*
X160542092Y-104163566D01*
X160403267Y-103972490D01*
X160236260Y-103805483D01*
X160045183Y-103666657D01*
X159834746Y-103559433D01*
X159610118Y-103486446D01*
X159376847Y-103449500D01*
X159376842Y-103449500D01*
X159140658Y-103449500D01*
X159140653Y-103449500D01*
X158907381Y-103486446D01*
X158682753Y-103559433D01*
X158472316Y-103666657D01*
X158363300Y-103745862D01*
X158281240Y-103805483D01*
X158281238Y-103805485D01*
X158281237Y-103805485D01*
X158114235Y-103972487D01*
X158114235Y-103972488D01*
X158114233Y-103972490D01*
X158054612Y-104054550D01*
X157975407Y-104163566D01*
X157868183Y-104374003D01*
X157795196Y-104598631D01*
X157758250Y-104831902D01*
X154259250Y-104831902D01*
X154222303Y-104598631D01*
X154149316Y-104374003D01*
X154042092Y-104163566D01*
X153903267Y-103972490D01*
X153736260Y-103805483D01*
X153545183Y-103666657D01*
X153334746Y-103559433D01*
X153110118Y-103486446D01*
X152876847Y-103449500D01*
X152876842Y-103449500D01*
X152640658Y-103449500D01*
X152640653Y-103449500D01*
X152407381Y-103486446D01*
X152182753Y-103559433D01*
X151972316Y-103666657D01*
X151863300Y-103745862D01*
X151781240Y-103805483D01*
X151781238Y-103805485D01*
X151781237Y-103805485D01*
X151614235Y-103972487D01*
X151614235Y-103972488D01*
X151614233Y-103972490D01*
X151554612Y-104054550D01*
X151475407Y-104163566D01*
X151415167Y-104281795D01*
X151367192Y-104332591D01*
X151304682Y-104349500D01*
X122958847Y-104349500D01*
X122891808Y-104329815D01*
X122871166Y-104313181D01*
X119545569Y-100987584D01*
X119512084Y-100926261D01*
X119509250Y-100899903D01*
X119509250Y-94889059D01*
X119509251Y-94889046D01*
X119509251Y-94720945D01*
X119509251Y-94720943D01*
X119491650Y-94655256D01*
X119493313Y-94585409D01*
X119532475Y-94527547D01*
X119596703Y-94500042D01*
X119627612Y-94500226D01*
X119629691Y-94500499D01*
X119629692Y-94500500D01*
X119629693Y-94500500D01*
X147622081Y-94500500D01*
X147622097Y-94500501D01*
X147629693Y-94500501D01*
X147787804Y-94500501D01*
X147787807Y-94500501D01*
X147940535Y-94459577D01*
X147990654Y-94430639D01*
X148077466Y-94380520D01*
X148189270Y-94268716D01*
X148189270Y-94268714D01*
X148199478Y-94258507D01*
X148199480Y-94258504D01*
X149226082Y-93231902D01*
X151258250Y-93231902D01*
X151258250Y-93468097D01*
X151295196Y-93701368D01*
X151368183Y-93925996D01*
X151430907Y-94049097D01*
X151475407Y-94136433D01*
X151614233Y-94327510D01*
X151781240Y-94494517D01*
X151972317Y-94633343D01*
X152015330Y-94655259D01*
X152182753Y-94740566D01*
X152182755Y-94740566D01*
X152182758Y-94740568D01*
X152303162Y-94779689D01*
X152407381Y-94813553D01*
X152640653Y-94850500D01*
X152640658Y-94850500D01*
X152876847Y-94850500D01*
X153110118Y-94813553D01*
X153334742Y-94740568D01*
X153545183Y-94633343D01*
X153736260Y-94494517D01*
X153903267Y-94327510D01*
X154042093Y-94136433D01*
X154149318Y-93925992D01*
X154222303Y-93701368D01*
X154243313Y-93568716D01*
X154259250Y-93468097D01*
X154259250Y-93231902D01*
X157758250Y-93231902D01*
X157758250Y-93468097D01*
X157795196Y-93701368D01*
X157868183Y-93925996D01*
X157930907Y-94049097D01*
X157975407Y-94136433D01*
X158114233Y-94327510D01*
X158281240Y-94494517D01*
X158472317Y-94633343D01*
X158515330Y-94655259D01*
X158682753Y-94740566D01*
X158682755Y-94740566D01*
X158682758Y-94740568D01*
X158803162Y-94779689D01*
X158907381Y-94813553D01*
X159140653Y-94850500D01*
X159140658Y-94850500D01*
X159376847Y-94850500D01*
X159610118Y-94813553D01*
X159834742Y-94740568D01*
X160045183Y-94633343D01*
X160236260Y-94494517D01*
X160403267Y-94327510D01*
X160542093Y-94136433D01*
X160649318Y-93925992D01*
X160722303Y-93701368D01*
X160743313Y-93568716D01*
X160759250Y-93468097D01*
X160759250Y-93231902D01*
X160722303Y-92998631D01*
X160649316Y-92774003D01*
X160542092Y-92563566D01*
X160473179Y-92468716D01*
X160403267Y-92372490D01*
X160236260Y-92205483D01*
X160045183Y-92066657D01*
X159834742Y-91959432D01*
X159735775Y-91927275D01*
X159610118Y-91886446D01*
X159376847Y-91849500D01*
X159376842Y-91849500D01*
X159140658Y-91849500D01*
X159140653Y-91849500D01*
X158907381Y-91886446D01*
X158682753Y-91959433D01*
X158472316Y-92066657D01*
X158426424Y-92100000D01*
X158281240Y-92205483D01*
X158281238Y-92205485D01*
X158281237Y-92205485D01*
X158114235Y-92372487D01*
X158114235Y-92372488D01*
X158114233Y-92372490D01*
X158054612Y-92454550D01*
X157975407Y-92563566D01*
X157868183Y-92774003D01*
X157795196Y-92998631D01*
X157758250Y-93231902D01*
X154259250Y-93231902D01*
X154222303Y-92998631D01*
X154149316Y-92774003D01*
X154042092Y-92563566D01*
X153973179Y-92468716D01*
X153903267Y-92372490D01*
X153736260Y-92205483D01*
X153545183Y-92066657D01*
X153334746Y-91959433D01*
X153110118Y-91886446D01*
X152876847Y-91849500D01*
X152876842Y-91849500D01*
X152640658Y-91849500D01*
X152640653Y-91849500D01*
X152407381Y-91886446D01*
X152182753Y-91959433D01*
X151972316Y-92066657D01*
X151926424Y-92100000D01*
X151781240Y-92205483D01*
X151781238Y-92205485D01*
X151781237Y-92205485D01*
X151614235Y-92372487D01*
X151614235Y-92372488D01*
X151614233Y-92372490D01*
X151554612Y-92454550D01*
X151475407Y-92563566D01*
X151368183Y-92774003D01*
X151295196Y-92998631D01*
X151258250Y-93231902D01*
X149226082Y-93231902D01*
X151760301Y-90697682D01*
X164428750Y-90697682D01*
X164428750Y-90902317D01*
X164460759Y-91104417D01*
X164523994Y-91299031D01*
X164616891Y-91481350D01*
X164616897Y-91481359D01*
X164649273Y-91525921D01*
X164649274Y-91525922D01*
X165328750Y-90846446D01*
X165328750Y-90852661D01*
X165356009Y-90954394D01*
X165408670Y-91045606D01*
X165483144Y-91120080D01*
X165574356Y-91172741D01*
X165676089Y-91200000D01*
X165682303Y-91200000D01*
X165002826Y-91879474D01*
X165047400Y-91911859D01*
X165229718Y-92004755D01*
X165424332Y-92067990D01*
X165626433Y-92100000D01*
X165831067Y-92100000D01*
X166033167Y-92067990D01*
X166227781Y-92004755D01*
X166410099Y-91911859D01*
X166454671Y-91879474D01*
X165775197Y-91200000D01*
X165781411Y-91200000D01*
X165883144Y-91172741D01*
X165974356Y-91120080D01*
X166048830Y-91045606D01*
X166101491Y-90954394D01*
X166128750Y-90852661D01*
X166128750Y-90846448D01*
X166808224Y-91525922D01*
X166808224Y-91525921D01*
X166840609Y-91481349D01*
X166933505Y-91299031D01*
X166996740Y-91104417D01*
X167028750Y-90902317D01*
X167028750Y-90697682D01*
X167028745Y-90697648D01*
X174588250Y-90697648D01*
X174588250Y-90902351D01*
X174620272Y-91104534D01*
X174683531Y-91299223D01*
X174747441Y-91424653D01*
X174776335Y-91481359D01*
X174776465Y-91481613D01*
X174896778Y-91647213D01*
X175041536Y-91791971D01*
X175171574Y-91886447D01*
X175207140Y-91912287D01*
X175299669Y-91959433D01*
X175389526Y-92005218D01*
X175389528Y-92005218D01*
X175389531Y-92005220D01*
X175493887Y-92039127D01*
X175584215Y-92068477D01*
X175685307Y-92084488D01*
X175786398Y-92100500D01*
X175786399Y-92100500D01*
X175991101Y-92100500D01*
X175991102Y-92100500D01*
X176193284Y-92068477D01*
X176387969Y-92005220D01*
X176570360Y-91912287D01*
X176663340Y-91844732D01*
X176735963Y-91791971D01*
X176735965Y-91791968D01*
X176735969Y-91791966D01*
X176880716Y-91647219D01*
X176880718Y-91647215D01*
X176880721Y-91647213D01*
X176933482Y-91574590D01*
X177001037Y-91481610D01*
X177093970Y-91299219D01*
X177157227Y-91104534D01*
X177189250Y-90902352D01*
X177189250Y-90697648D01*
X177170917Y-90581900D01*
X177157227Y-90495465D01*
X177119402Y-90379054D01*
X177093970Y-90300781D01*
X177093968Y-90300778D01*
X177093968Y-90300776D01*
X177053288Y-90220939D01*
X177001037Y-90118390D01*
X176987093Y-90099197D01*
X176880721Y-89952786D01*
X176735963Y-89808028D01*
X176570363Y-89687715D01*
X176570362Y-89687714D01*
X176570360Y-89687713D01*
X176513403Y-89658691D01*
X176387973Y-89594781D01*
X176193284Y-89531522D01*
X176018745Y-89503878D01*
X175991102Y-89499500D01*
X175786398Y-89499500D01*
X175762079Y-89503351D01*
X175584215Y-89531522D01*
X175389526Y-89594781D01*
X175207136Y-89687715D01*
X175041536Y-89808028D01*
X174896778Y-89952786D01*
X174776465Y-90118386D01*
X174683531Y-90300776D01*
X174620272Y-90495465D01*
X174588250Y-90697648D01*
X167028745Y-90697648D01*
X166996740Y-90495582D01*
X166933505Y-90300968D01*
X166840609Y-90118650D01*
X166808224Y-90074077D01*
X166808224Y-90074076D01*
X166128750Y-90753551D01*
X166128750Y-90747339D01*
X166101491Y-90645606D01*
X166048830Y-90554394D01*
X165974356Y-90479920D01*
X165883144Y-90427259D01*
X165781411Y-90400000D01*
X165775196Y-90400000D01*
X166454672Y-89720524D01*
X166454671Y-89720523D01*
X166410109Y-89688147D01*
X166410100Y-89688141D01*
X166227781Y-89595244D01*
X166033167Y-89532009D01*
X165831067Y-89500000D01*
X165626433Y-89500000D01*
X165424332Y-89532009D01*
X165229718Y-89595244D01*
X165047394Y-89688143D01*
X165002827Y-89720523D01*
X165002827Y-89720524D01*
X165682304Y-90400000D01*
X165676089Y-90400000D01*
X165574356Y-90427259D01*
X165483144Y-90479920D01*
X165408670Y-90554394D01*
X165356009Y-90645606D01*
X165328750Y-90747339D01*
X165328750Y-90753553D01*
X164649274Y-90074077D01*
X164649273Y-90074077D01*
X164616893Y-90118644D01*
X164523994Y-90300968D01*
X164460759Y-90495582D01*
X164428750Y-90697682D01*
X151760301Y-90697682D01*
X152155187Y-90302796D01*
X152216508Y-90269313D01*
X152281183Y-90272547D01*
X152407382Y-90313553D01*
X152487883Y-90326303D01*
X152640653Y-90350500D01*
X152640658Y-90350500D01*
X152876847Y-90350500D01*
X153110118Y-90313553D01*
X153143218Y-90302798D01*
X153334742Y-90240568D01*
X153545183Y-90133343D01*
X153736260Y-89994517D01*
X153903267Y-89827510D01*
X154042093Y-89636433D01*
X154149318Y-89425992D01*
X154222303Y-89201368D01*
X154236363Y-89112599D01*
X154259250Y-88968097D01*
X154259250Y-88731902D01*
X157758250Y-88731902D01*
X157758250Y-88968097D01*
X157795196Y-89201368D01*
X157868183Y-89425996D01*
X157943534Y-89573879D01*
X157975407Y-89636433D01*
X158114233Y-89827510D01*
X158281240Y-89994517D01*
X158472317Y-90133343D01*
X158571741Y-90184002D01*
X158682753Y-90240566D01*
X158682755Y-90240566D01*
X158682758Y-90240568D01*
X158771226Y-90269313D01*
X158907381Y-90313553D01*
X159140653Y-90350500D01*
X159140658Y-90350500D01*
X159376847Y-90350500D01*
X159610118Y-90313553D01*
X159643218Y-90302798D01*
X159834742Y-90240568D01*
X160045183Y-90133343D01*
X160236260Y-89994517D01*
X160403267Y-89827510D01*
X160542093Y-89636433D01*
X160649318Y-89425992D01*
X160722303Y-89201368D01*
X160736363Y-89112599D01*
X160759250Y-88968097D01*
X160759250Y-88731902D01*
X160722303Y-88498631D01*
X160666146Y-88325799D01*
X160649318Y-88274008D01*
X160649316Y-88274005D01*
X160649316Y-88274003D01*
X160578949Y-88135901D01*
X160542093Y-88063567D01*
X160403267Y-87872490D01*
X160236260Y-87705483D01*
X160045183Y-87566657D01*
X159834746Y-87459433D01*
X159610118Y-87386446D01*
X159376847Y-87349500D01*
X159376842Y-87349500D01*
X159140658Y-87349500D01*
X159140653Y-87349500D01*
X158907381Y-87386446D01*
X158682753Y-87459433D01*
X158472316Y-87566657D01*
X158384251Y-87630641D01*
X158281240Y-87705483D01*
X158281238Y-87705485D01*
X158281237Y-87705485D01*
X158114235Y-87872487D01*
X158114235Y-87872488D01*
X158114233Y-87872490D01*
X158086492Y-87910672D01*
X157975407Y-88063566D01*
X157868183Y-88274003D01*
X157795196Y-88498631D01*
X157758250Y-88731902D01*
X154259250Y-88731902D01*
X154222303Y-88498631D01*
X154166146Y-88325799D01*
X154149318Y-88274008D01*
X154149316Y-88274005D01*
X154149316Y-88274003D01*
X154078949Y-88135901D01*
X154042093Y-88063567D01*
X153903267Y-87872490D01*
X153736260Y-87705483D01*
X153545183Y-87566657D01*
X153334746Y-87459433D01*
X153110118Y-87386446D01*
X152876847Y-87349500D01*
X152876842Y-87349500D01*
X152640658Y-87349500D01*
X152640653Y-87349500D01*
X152407381Y-87386446D01*
X152182753Y-87459433D01*
X151972316Y-87566657D01*
X151884251Y-87630641D01*
X151781240Y-87705483D01*
X151781238Y-87705485D01*
X151781237Y-87705485D01*
X151614235Y-87872487D01*
X151614235Y-87872488D01*
X151614233Y-87872490D01*
X151586492Y-87910672D01*
X151475407Y-88063566D01*
X151368183Y-88274003D01*
X151295196Y-88498631D01*
X151258250Y-88731902D01*
X151258250Y-88968097D01*
X151295197Y-89201369D01*
X151295197Y-89201372D01*
X151336200Y-89327564D01*
X151338195Y-89397405D01*
X151305950Y-89453563D01*
X147496334Y-93263181D01*
X147435011Y-93296666D01*
X147408653Y-93299500D01*
X120008847Y-93299500D01*
X119941808Y-93279815D01*
X119921166Y-93263181D01*
X119645569Y-92987584D01*
X119612084Y-92926261D01*
X119609250Y-92899903D01*
X119609250Y-89081372D01*
X120108250Y-89081372D01*
X120108250Y-89343627D01*
X120134873Y-89545839D01*
X120142480Y-89603616D01*
X120210352Y-89856918D01*
X120210355Y-89856928D01*
X120310703Y-90099190D01*
X120310708Y-90099200D01*
X120441825Y-90326303D01*
X120601468Y-90534351D01*
X120601476Y-90534360D01*
X120786890Y-90719774D01*
X120786898Y-90719781D01*
X120994946Y-90879424D01*
X121222049Y-91010541D01*
X121222059Y-91010546D01*
X121448967Y-91104534D01*
X121464331Y-91110898D01*
X121717634Y-91178770D01*
X121977630Y-91213000D01*
X121977637Y-91213000D01*
X122239863Y-91213000D01*
X122239870Y-91213000D01*
X122499866Y-91178770D01*
X122753169Y-91110898D01*
X122995447Y-91010543D01*
X123222553Y-90879424D01*
X123430601Y-90719782D01*
X123430605Y-90719777D01*
X123430610Y-90719774D01*
X123616024Y-90534360D01*
X123616027Y-90534355D01*
X123616032Y-90534351D01*
X123775674Y-90326303D01*
X123906793Y-90099197D01*
X123917199Y-90074076D01*
X123964411Y-89960096D01*
X124007148Y-89856919D01*
X124075020Y-89603616D01*
X124109250Y-89343620D01*
X124109250Y-89081380D01*
X124075020Y-88821384D01*
X124007148Y-88568081D01*
X123945288Y-88418737D01*
X123906796Y-88325809D01*
X123906791Y-88325799D01*
X123775674Y-88098696D01*
X123616031Y-87890648D01*
X123616024Y-87890640D01*
X123430610Y-87705226D01*
X123430601Y-87705218D01*
X123222553Y-87545575D01*
X122995450Y-87414458D01*
X122995440Y-87414453D01*
X122753178Y-87314105D01*
X122753171Y-87314103D01*
X122753169Y-87314102D01*
X122499866Y-87246230D01*
X122442089Y-87238623D01*
X122239877Y-87212000D01*
X122239870Y-87212000D01*
X121977630Y-87212000D01*
X121977622Y-87212000D01*
X121746522Y-87242426D01*
X121717634Y-87246230D01*
X121614741Y-87273800D01*
X121464331Y-87314102D01*
X121464321Y-87314105D01*
X121222059Y-87414453D01*
X121222049Y-87414458D01*
X120994946Y-87545575D01*
X120786898Y-87705218D01*
X120601468Y-87890648D01*
X120441825Y-88098696D01*
X120310708Y-88325799D01*
X120310703Y-88325809D01*
X120210355Y-88568071D01*
X120210352Y-88568081D01*
X120145201Y-88811231D01*
X120142480Y-88821385D01*
X120108250Y-89081372D01*
X119609250Y-89081372D01*
X119609250Y-83979054D01*
X124208248Y-83979054D01*
X124249173Y-84131785D01*
X124278108Y-84181900D01*
X124278109Y-84181904D01*
X124278110Y-84181904D01*
X124328229Y-84268714D01*
X124328231Y-84268717D01*
X124447099Y-84387585D01*
X124447105Y-84387590D01*
X125671931Y-85612416D01*
X125705416Y-85673739D01*
X125708250Y-85700097D01*
X125708250Y-90213330D01*
X125708249Y-90213348D01*
X125708249Y-90379054D01*
X125708248Y-90379054D01*
X125749173Y-90531785D01*
X125778108Y-90581900D01*
X125778109Y-90581904D01*
X125778110Y-90581904D01*
X125828229Y-90668714D01*
X125828231Y-90668717D01*
X125947099Y-90787585D01*
X125947105Y-90787590D01*
X127623889Y-92464374D01*
X127623899Y-92464385D01*
X127628229Y-92468715D01*
X127628230Y-92468716D01*
X127740034Y-92580520D01*
X127740036Y-92580521D01*
X127740040Y-92580524D01*
X127876959Y-92659573D01*
X127876966Y-92659577D01*
X127988769Y-92689534D01*
X128029692Y-92700500D01*
X128029693Y-92700500D01*
X134722081Y-92700500D01*
X134722097Y-92700501D01*
X134729693Y-92700501D01*
X134887804Y-92700501D01*
X134887807Y-92700501D01*
X135040535Y-92659577D01*
X135090654Y-92630639D01*
X135177466Y-92580520D01*
X135289270Y-92468716D01*
X135289270Y-92468714D01*
X135299478Y-92458507D01*
X135299479Y-92458504D01*
X137399270Y-90358716D01*
X137478327Y-90221784D01*
X137519251Y-90069057D01*
X137519251Y-89910942D01*
X137519251Y-89903347D01*
X137519250Y-89903329D01*
X137519250Y-89889817D01*
X137538935Y-89822778D01*
X137573076Y-89789363D01*
X137572309Y-89788307D01*
X137576246Y-89785446D01*
X137576251Y-89785444D01*
X137736002Y-89669379D01*
X137875629Y-89529752D01*
X137875631Y-89529748D01*
X137875634Y-89529746D01*
X137930983Y-89453563D01*
X137991694Y-89370001D01*
X138081341Y-89194061D01*
X138117956Y-89081372D01*
X142108250Y-89081372D01*
X142108250Y-89343627D01*
X142134873Y-89545839D01*
X142142480Y-89603616D01*
X142210352Y-89856918D01*
X142210355Y-89856928D01*
X142310703Y-90099190D01*
X142310708Y-90099200D01*
X142441825Y-90326303D01*
X142601468Y-90534351D01*
X142601476Y-90534360D01*
X142786890Y-90719774D01*
X142786898Y-90719781D01*
X142994946Y-90879424D01*
X143222049Y-91010541D01*
X143222059Y-91010546D01*
X143448967Y-91104534D01*
X143464331Y-91110898D01*
X143717634Y-91178770D01*
X143977630Y-91213000D01*
X143977637Y-91213000D01*
X144239863Y-91213000D01*
X144239870Y-91213000D01*
X144499866Y-91178770D01*
X144753169Y-91110898D01*
X144995447Y-91010543D01*
X145222553Y-90879424D01*
X145430601Y-90719782D01*
X145430605Y-90719777D01*
X145430610Y-90719774D01*
X145616024Y-90534360D01*
X145616027Y-90534355D01*
X145616032Y-90534351D01*
X145775674Y-90326303D01*
X145906793Y-90099197D01*
X145917199Y-90074076D01*
X145964411Y-89960096D01*
X146007148Y-89856919D01*
X146075020Y-89603616D01*
X146109250Y-89343620D01*
X146109250Y-89081380D01*
X146075020Y-88821384D01*
X146007148Y-88568081D01*
X145945288Y-88418737D01*
X145906796Y-88325809D01*
X145906791Y-88325799D01*
X145775674Y-88098696D01*
X145616031Y-87890648D01*
X145616024Y-87890640D01*
X145430610Y-87705226D01*
X145430601Y-87705218D01*
X145222553Y-87545575D01*
X144995450Y-87414458D01*
X144995440Y-87414453D01*
X144753178Y-87314105D01*
X144753171Y-87314103D01*
X144753169Y-87314102D01*
X144499866Y-87246230D01*
X144442089Y-87238623D01*
X144239877Y-87212000D01*
X144239870Y-87212000D01*
X143977630Y-87212000D01*
X143977622Y-87212000D01*
X143746522Y-87242426D01*
X143717634Y-87246230D01*
X143614741Y-87273800D01*
X143464331Y-87314102D01*
X143464321Y-87314105D01*
X143222059Y-87414453D01*
X143222049Y-87414458D01*
X142994946Y-87545575D01*
X142786898Y-87705218D01*
X142601468Y-87890648D01*
X142441825Y-88098696D01*
X142310708Y-88325799D01*
X142310703Y-88325809D01*
X142210355Y-88568071D01*
X142210352Y-88568081D01*
X142145201Y-88811231D01*
X142142480Y-88821385D01*
X142108250Y-89081372D01*
X138117956Y-89081372D01*
X138142360Y-89006263D01*
X138151185Y-88950539D01*
X138173250Y-88811236D01*
X138173250Y-88613763D01*
X138142360Y-88418736D01*
X138107809Y-88312401D01*
X138081341Y-88230939D01*
X137991694Y-88054999D01*
X137980431Y-88039497D01*
X137875634Y-87895253D01*
X137735996Y-87755615D01*
X137576254Y-87639558D01*
X137576253Y-87639557D01*
X137576251Y-87639556D01*
X137400311Y-87549909D01*
X137400308Y-87549908D01*
X137212513Y-87488889D01*
X137017486Y-87458000D01*
X137017481Y-87458000D01*
X136820019Y-87458000D01*
X136820016Y-87458000D01*
X136795894Y-87461820D01*
X136726601Y-87452863D01*
X136673150Y-87407866D01*
X136652512Y-87341114D01*
X136671238Y-87273800D01*
X136688813Y-87251670D01*
X137903666Y-86036819D01*
X137964989Y-86003334D01*
X137991347Y-86000500D01*
X162608653Y-86000500D01*
X162675692Y-86020185D01*
X162696334Y-86036819D01*
X164123889Y-87464374D01*
X164123899Y-87464385D01*
X164128229Y-87468715D01*
X164128230Y-87468716D01*
X164240034Y-87580520D01*
X164270888Y-87598333D01*
X164326845Y-87630639D01*
X164326847Y-87630641D01*
X164364901Y-87652611D01*
X164376965Y-87659577D01*
X164529693Y-87700500D01*
X169822081Y-87700500D01*
X169822097Y-87700501D01*
X169829693Y-87700501D01*
X169987804Y-87700501D01*
X169987807Y-87700501D01*
X170140535Y-87659577D01*
X170190654Y-87630639D01*
X170277466Y-87580520D01*
X170389270Y-87468716D01*
X170389270Y-87468714D01*
X170399478Y-87458507D01*
X170399480Y-87458504D01*
X177877463Y-79980521D01*
X177877466Y-79980520D01*
X177989270Y-79868716D01*
X178039389Y-79781904D01*
X178068327Y-79731785D01*
X178109250Y-79579057D01*
X178109250Y-79420943D01*
X178109250Y-51397809D01*
X178109251Y-51397796D01*
X178109251Y-51229695D01*
X178109251Y-51229693D01*
X178068327Y-51076965D01*
X178026325Y-51004216D01*
X177989270Y-50940034D01*
X177877466Y-50828230D01*
X177873135Y-50823899D01*
X177873124Y-50823889D01*
X173587590Y-46538355D01*
X173587588Y-46538352D01*
X173468717Y-46419481D01*
X173468716Y-46419480D01*
X173381904Y-46369360D01*
X173381904Y-46369359D01*
X173381900Y-46369358D01*
X173331785Y-46340423D01*
X173179057Y-46299499D01*
X173020943Y-46299499D01*
X173013347Y-46299499D01*
X173013331Y-46299500D01*
X157486670Y-46299500D01*
X157486654Y-46299499D01*
X157479058Y-46299499D01*
X157320943Y-46299499D01*
X157244579Y-46319961D01*
X157168214Y-46340423D01*
X157168209Y-46340426D01*
X157031290Y-46419475D01*
X157031282Y-46419481D01*
X153267063Y-50183700D01*
X153205740Y-50217185D01*
X153198782Y-50218492D01*
X153147610Y-50226597D01*
X152982862Y-50280128D01*
X152828521Y-50358768D01*
X152748566Y-50416859D01*
X152688382Y-50460586D01*
X152688380Y-50460588D01*
X152688379Y-50460588D01*
X152565898Y-50583069D01*
X152565898Y-50583070D01*
X152565896Y-50583072D01*
X152522169Y-50643256D01*
X152464078Y-50723211D01*
X152385438Y-50877552D01*
X152331907Y-51042302D01*
X152304810Y-51213389D01*
X152304810Y-52186610D01*
X152324316Y-52309771D01*
X152331908Y-52357701D01*
X152385437Y-52522445D01*
X152464078Y-52676788D01*
X152565896Y-52816928D01*
X152688382Y-52939414D01*
X152828522Y-53041232D01*
X152982865Y-53119873D01*
X153147609Y-53173402D01*
X153318699Y-53200500D01*
X153318700Y-53200500D01*
X153491920Y-53200500D01*
X153491921Y-53200500D01*
X153663011Y-53173402D01*
X153827755Y-53119873D01*
X153982098Y-53041232D01*
X154122238Y-52939414D01*
X154244724Y-52816928D01*
X154346542Y-52676788D01*
X154425183Y-52522445D01*
X154478712Y-52357701D01*
X154505810Y-52186611D01*
X154505810Y-51213389D01*
X154478712Y-51042299D01*
X154425183Y-50877555D01*
X154414269Y-50856135D01*
X154401373Y-50787465D01*
X154427650Y-50722725D01*
X154437064Y-50712169D01*
X157612417Y-47536819D01*
X157673740Y-47503334D01*
X157700098Y-47500500D01*
X172799903Y-47500500D01*
X172866942Y-47520185D01*
X172887584Y-47536819D01*
X176871931Y-51521166D01*
X176905416Y-51582489D01*
X176908250Y-51608847D01*
X176908250Y-79199903D01*
X176888565Y-79266942D01*
X176871931Y-79287584D01*
X169696334Y-86463181D01*
X169635011Y-86496666D01*
X169608653Y-86499500D01*
X164908847Y-86499500D01*
X164841808Y-86479815D01*
X164821166Y-86463181D01*
X163470166Y-85112181D01*
X163436681Y-85050858D01*
X163441665Y-84981166D01*
X163483537Y-84925233D01*
X163549001Y-84900816D01*
X163557847Y-84900500D01*
X166438641Y-84900500D01*
X166438657Y-84900501D01*
X166446253Y-84900501D01*
X166604364Y-84900501D01*
X166604367Y-84900501D01*
X166757095Y-84859577D01*
X166807214Y-84830639D01*
X166894026Y-84780520D01*
X167005830Y-84668716D01*
X167005830Y-84668714D01*
X167016038Y-84658507D01*
X167016039Y-84658504D01*
X173140990Y-78533554D01*
X173202311Y-78500071D01*
X173272003Y-78505055D01*
X173284963Y-78510751D01*
X173302865Y-78519873D01*
X173467609Y-78573402D01*
X173638699Y-78600500D01*
X173638700Y-78600500D01*
X173811920Y-78600500D01*
X173811921Y-78600500D01*
X173983011Y-78573402D01*
X174147755Y-78519873D01*
X174302098Y-78441232D01*
X174442238Y-78339414D01*
X174564724Y-78216928D01*
X174666542Y-78076788D01*
X174745183Y-77922445D01*
X174798712Y-77757701D01*
X174825810Y-77586611D01*
X174825810Y-76613389D01*
X174798712Y-76442299D01*
X174745183Y-76277555D01*
X174666542Y-76123212D01*
X174564724Y-75983072D01*
X174442238Y-75860586D01*
X174302098Y-75758768D01*
X174147755Y-75680127D01*
X173983011Y-75626598D01*
X173983009Y-75626597D01*
X173983008Y-75626597D01*
X173851581Y-75605781D01*
X173811921Y-75599500D01*
X173638699Y-75599500D01*
X173599038Y-75605781D01*
X173467612Y-75626597D01*
X173302862Y-75680128D01*
X173148521Y-75758768D01*
X173068566Y-75816859D01*
X173008382Y-75860586D01*
X173008380Y-75860588D01*
X173008379Y-75860588D01*
X172885898Y-75983069D01*
X172885898Y-75983070D01*
X172885896Y-75983072D01*
X172885660Y-75983397D01*
X172784078Y-76123211D01*
X172705438Y-76277552D01*
X172651907Y-76442302D01*
X172624810Y-76613389D01*
X172624810Y-77299901D01*
X172616165Y-77329341D01*
X172609642Y-77359328D01*
X172605887Y-77364343D01*
X172605125Y-77366940D01*
X172588491Y-77387582D01*
X172497491Y-77478582D01*
X172436168Y-77512067D01*
X172366476Y-77507083D01*
X172310543Y-77465211D01*
X172286126Y-77399747D01*
X172285810Y-77390901D01*
X172285810Y-76613389D01*
X172258712Y-76442302D01*
X172258712Y-76442299D01*
X172205183Y-76277555D01*
X172126542Y-76123212D01*
X172024724Y-75983072D01*
X171902238Y-75860586D01*
X171762098Y-75758768D01*
X171607755Y-75680127D01*
X171443011Y-75626598D01*
X171443009Y-75626597D01*
X171443008Y-75626597D01*
X171311581Y-75605781D01*
X171271921Y-75599500D01*
X171098699Y-75599500D01*
X171059038Y-75605781D01*
X170927612Y-75626597D01*
X170762862Y-75680128D01*
X170608521Y-75758768D01*
X170528566Y-75816859D01*
X170468382Y-75860586D01*
X170468380Y-75860588D01*
X170468379Y-75860588D01*
X170345898Y-75983069D01*
X170345898Y-75983070D01*
X170345896Y-75983072D01*
X170345660Y-75983397D01*
X170244078Y-76123211D01*
X170165438Y-76277552D01*
X170111907Y-76442302D01*
X170084810Y-76613389D01*
X170084810Y-77586611D01*
X170111908Y-77757701D01*
X170165437Y-77922445D01*
X170244078Y-78076788D01*
X170345896Y-78216928D01*
X170468382Y-78339414D01*
X170608522Y-78441232D01*
X170762865Y-78519873D01*
X170927609Y-78573402D01*
X171097349Y-78600286D01*
X171160483Y-78630215D01*
X171197415Y-78689526D01*
X171196417Y-78759389D01*
X171165632Y-78810440D01*
X166312894Y-83663181D01*
X166251571Y-83696666D01*
X166225213Y-83699500D01*
X136172190Y-83699500D01*
X136131269Y-83710464D01*
X136131269Y-83710465D01*
X136094001Y-83720451D01*
X136019464Y-83740423D01*
X136019459Y-83740426D01*
X135882540Y-83819475D01*
X135882532Y-83819481D01*
X135770728Y-83931286D01*
X132246621Y-87455392D01*
X132185298Y-87488877D01*
X132137528Y-87488368D01*
X132137325Y-87489652D01*
X131937486Y-87458000D01*
X131937481Y-87458000D01*
X131740019Y-87458000D01*
X131740014Y-87458000D01*
X131544986Y-87488889D01*
X131357191Y-87549908D01*
X131181245Y-87639558D01*
X131021503Y-87755615D01*
X130881865Y-87895253D01*
X130777068Y-88039497D01*
X130721739Y-88082163D01*
X130652125Y-88088142D01*
X130590330Y-88055537D01*
X130555973Y-87994698D01*
X130552750Y-87966612D01*
X130552750Y-87910672D01*
X130552749Y-87910655D01*
X130546348Y-87851127D01*
X130546346Y-87851120D01*
X130496104Y-87716413D01*
X130496100Y-87716406D01*
X130409940Y-87601312D01*
X130409937Y-87601309D01*
X130294843Y-87515149D01*
X130294836Y-87515145D01*
X130160129Y-87464903D01*
X130160122Y-87464901D01*
X130100594Y-87458500D01*
X129548750Y-87458500D01*
X129548750Y-88279488D01*
X129491743Y-88246575D01*
X129364576Y-88212500D01*
X129232924Y-88212500D01*
X129105757Y-88246575D01*
X129048750Y-88279488D01*
X129048750Y-87458500D01*
X128496905Y-87458500D01*
X128437377Y-87464901D01*
X128437370Y-87464903D01*
X128302663Y-87515145D01*
X128302656Y-87515149D01*
X128187562Y-87601309D01*
X128187559Y-87601312D01*
X128101399Y-87716406D01*
X128101395Y-87716413D01*
X128051153Y-87851120D01*
X128051151Y-87851127D01*
X128044750Y-87910655D01*
X128044750Y-88462500D01*
X128865738Y-88462500D01*
X128832825Y-88519507D01*
X128798750Y-88646674D01*
X128798750Y-88778326D01*
X128832825Y-88905493D01*
X128865738Y-88962500D01*
X128044750Y-88962500D01*
X128044750Y-89514344D01*
X128051151Y-89573872D01*
X128051153Y-89573879D01*
X128101395Y-89708586D01*
X128101399Y-89708593D01*
X128187559Y-89823687D01*
X128187562Y-89823690D01*
X128302656Y-89909850D01*
X128302663Y-89909854D01*
X128437370Y-89960096D01*
X128437377Y-89960098D01*
X128496905Y-89966499D01*
X128496922Y-89966500D01*
X129048750Y-89966500D01*
X129048750Y-89145512D01*
X129105757Y-89178425D01*
X129232924Y-89212500D01*
X129364576Y-89212500D01*
X129491743Y-89178425D01*
X129548750Y-89145512D01*
X129548750Y-89966500D01*
X130100578Y-89966500D01*
X130100594Y-89966499D01*
X130160122Y-89960098D01*
X130160129Y-89960096D01*
X130294836Y-89909854D01*
X130294843Y-89909850D01*
X130409937Y-89823690D01*
X130409940Y-89823687D01*
X130496100Y-89708593D01*
X130496104Y-89708586D01*
X130546346Y-89573879D01*
X130546348Y-89573872D01*
X130552749Y-89514344D01*
X130552750Y-89514327D01*
X130552750Y-89458387D01*
X130572435Y-89391348D01*
X130625239Y-89345593D01*
X130694397Y-89335649D01*
X130757953Y-89364674D01*
X130777064Y-89385497D01*
X130826517Y-89453563D01*
X130881871Y-89529752D01*
X131021503Y-89669384D01*
X131147372Y-89760831D01*
X131181249Y-89785444D01*
X131357189Y-89875091D01*
X131464167Y-89909850D01*
X131544986Y-89936110D01*
X131740014Y-89967000D01*
X131740019Y-89967000D01*
X131937486Y-89967000D01*
X132132513Y-89936110D01*
X132320311Y-89875091D01*
X132496251Y-89785444D01*
X132606283Y-89705502D01*
X132655996Y-89669384D01*
X132655998Y-89669381D01*
X132656002Y-89669379D01*
X132795629Y-89529752D01*
X132795631Y-89529748D01*
X132795634Y-89529746D01*
X132911691Y-89370005D01*
X132911692Y-89370004D01*
X132911694Y-89370001D01*
X132998267Y-89200093D01*
X133046240Y-89149300D01*
X133114061Y-89132505D01*
X133180196Y-89155042D01*
X133219232Y-89200093D01*
X133292364Y-89343620D01*
X133305808Y-89370005D01*
X133421865Y-89529746D01*
X133561503Y-89669384D01*
X133687372Y-89760831D01*
X133721249Y-89785444D01*
X133897189Y-89875091D01*
X134004167Y-89909850D01*
X134084986Y-89936110D01*
X134280014Y-89967000D01*
X134280019Y-89967000D01*
X134477486Y-89967000D01*
X134672513Y-89936110D01*
X134860311Y-89875091D01*
X135036251Y-89785444D01*
X135146283Y-89705502D01*
X135195996Y-89669384D01*
X135195998Y-89669381D01*
X135196002Y-89669379D01*
X135335629Y-89529752D01*
X135335631Y-89529748D01*
X135335634Y-89529746D01*
X135451691Y-89370005D01*
X135451692Y-89370004D01*
X135451694Y-89370001D01*
X135538267Y-89200093D01*
X135586240Y-89149300D01*
X135654061Y-89132505D01*
X135720196Y-89155042D01*
X135759232Y-89200093D01*
X135832364Y-89343620D01*
X135845808Y-89370005D01*
X135961865Y-89529746D01*
X136101499Y-89669380D01*
X136101504Y-89669384D01*
X136151216Y-89705502D01*
X136193882Y-89760831D01*
X136199861Y-89830445D01*
X136167256Y-89892240D01*
X136166012Y-89893501D01*
X134596334Y-91463181D01*
X134535011Y-91496666D01*
X134508653Y-91499500D01*
X128408847Y-91499500D01*
X128341808Y-91479815D01*
X128321166Y-91463181D01*
X126945569Y-90087584D01*
X126912084Y-90026261D01*
X126909250Y-89999903D01*
X126909250Y-85320945D01*
X126909250Y-85320943D01*
X126868327Y-85168216D01*
X126868323Y-85168209D01*
X126789274Y-85031290D01*
X126789271Y-85031286D01*
X126789270Y-85031284D01*
X126677466Y-84919480D01*
X126677465Y-84919479D01*
X126673135Y-84915149D01*
X126673124Y-84915139D01*
X125445569Y-83687584D01*
X125412084Y-83626261D01*
X125409250Y-83599903D01*
X125409250Y-76052135D01*
X126904810Y-76052135D01*
X126904810Y-78147870D01*
X126904811Y-78147876D01*
X126911218Y-78207483D01*
X126961512Y-78342328D01*
X126961516Y-78342335D01*
X127047762Y-78457544D01*
X127047765Y-78457547D01*
X127162974Y-78543793D01*
X127162981Y-78543797D01*
X127297827Y-78594091D01*
X127297826Y-78594091D01*
X127304754Y-78594835D01*
X127357437Y-78600500D01*
X128653182Y-78600499D01*
X128712793Y-78594091D01*
X128847641Y-78543796D01*
X128962856Y-78457546D01*
X129049106Y-78342331D01*
X129099401Y-78207483D01*
X129105810Y-78147873D01*
X129105809Y-76613389D01*
X129444810Y-76613389D01*
X129444810Y-77586611D01*
X129471908Y-77757701D01*
X129525437Y-77922445D01*
X129604078Y-78076788D01*
X129705896Y-78216928D01*
X129828382Y-78339414D01*
X129968522Y-78441232D01*
X130122865Y-78519873D01*
X130287609Y-78573402D01*
X130458699Y-78600500D01*
X130458700Y-78600500D01*
X130631920Y-78600500D01*
X130631921Y-78600500D01*
X130803011Y-78573402D01*
X130967755Y-78519873D01*
X131122098Y-78441232D01*
X131262238Y-78339414D01*
X131384724Y-78216928D01*
X131486542Y-78076788D01*
X131565183Y-77922445D01*
X131618712Y-77757701D01*
X131645810Y-77586611D01*
X131645810Y-76613389D01*
X131984810Y-76613389D01*
X131984810Y-77586611D01*
X132011908Y-77757701D01*
X132065437Y-77922445D01*
X132144078Y-78076788D01*
X132245896Y-78216928D01*
X132368382Y-78339414D01*
X132508522Y-78441232D01*
X132662865Y-78519873D01*
X132827609Y-78573402D01*
X132998699Y-78600500D01*
X132998700Y-78600500D01*
X133171920Y-78600500D01*
X133171921Y-78600500D01*
X133343011Y-78573402D01*
X133507755Y-78519873D01*
X133662098Y-78441232D01*
X133802238Y-78339414D01*
X133924724Y-78216928D01*
X134026542Y-78076788D01*
X134105183Y-77922445D01*
X134158712Y-77757701D01*
X134185810Y-77586611D01*
X134185810Y-76613389D01*
X134524810Y-76613389D01*
X134524810Y-77586611D01*
X134551908Y-77757701D01*
X134605437Y-77922445D01*
X134684078Y-78076788D01*
X134785896Y-78216928D01*
X134908382Y-78339414D01*
X135048522Y-78441232D01*
X135202865Y-78519873D01*
X135367609Y-78573402D01*
X135538699Y-78600500D01*
X135538700Y-78600500D01*
X135711920Y-78600500D01*
X135711921Y-78600500D01*
X135883011Y-78573402D01*
X136047755Y-78519873D01*
X136202098Y-78441232D01*
X136342238Y-78339414D01*
X136464724Y-78216928D01*
X136566542Y-78076788D01*
X136645183Y-77922445D01*
X136698712Y-77757701D01*
X136725810Y-77586611D01*
X136725810Y-76613389D01*
X137064810Y-76613389D01*
X137064810Y-77586611D01*
X137091908Y-77757701D01*
X137145437Y-77922445D01*
X137224078Y-78076788D01*
X137325896Y-78216928D01*
X137448382Y-78339414D01*
X137588522Y-78441232D01*
X137742865Y-78519873D01*
X137907609Y-78573402D01*
X138078699Y-78600500D01*
X138078700Y-78600500D01*
X138251920Y-78600500D01*
X138251921Y-78600500D01*
X138423011Y-78573402D01*
X138587755Y-78519873D01*
X138742098Y-78441232D01*
X138882238Y-78339414D01*
X139004724Y-78216928D01*
X139106542Y-78076788D01*
X139185183Y-77922445D01*
X139238712Y-77757701D01*
X139265810Y-77586611D01*
X139265810Y-76613389D01*
X139604810Y-76613389D01*
X139604810Y-77586611D01*
X139631908Y-77757701D01*
X139685437Y-77922445D01*
X139764078Y-78076788D01*
X139865896Y-78216928D01*
X139988382Y-78339414D01*
X140128522Y-78441232D01*
X140282865Y-78519873D01*
X140447609Y-78573402D01*
X140618699Y-78600500D01*
X140618700Y-78600500D01*
X140791920Y-78600500D01*
X140791921Y-78600500D01*
X140963011Y-78573402D01*
X141127755Y-78519873D01*
X141282098Y-78441232D01*
X141422238Y-78339414D01*
X141544724Y-78216928D01*
X141646542Y-78076788D01*
X141725183Y-77922445D01*
X141778712Y-77757701D01*
X141805810Y-77586611D01*
X141805810Y-76613389D01*
X142144810Y-76613389D01*
X142144810Y-77586611D01*
X142171908Y-77757701D01*
X142225437Y-77922445D01*
X142304078Y-78076788D01*
X142405896Y-78216928D01*
X142528382Y-78339414D01*
X142668522Y-78441232D01*
X142822865Y-78519873D01*
X142987609Y-78573402D01*
X143158699Y-78600500D01*
X143158700Y-78600500D01*
X143331920Y-78600500D01*
X143331921Y-78600500D01*
X143503011Y-78573402D01*
X143667755Y-78519873D01*
X143822098Y-78441232D01*
X143962238Y-78339414D01*
X144084724Y-78216928D01*
X144186542Y-78076788D01*
X144265183Y-77922445D01*
X144318712Y-77757701D01*
X144345810Y-77586611D01*
X144345810Y-76613389D01*
X144684810Y-76613389D01*
X144684810Y-77586611D01*
X144711908Y-77757701D01*
X144765437Y-77922445D01*
X144844078Y-78076788D01*
X144945896Y-78216928D01*
X145068382Y-78339414D01*
X145208522Y-78441232D01*
X145362865Y-78519873D01*
X145527609Y-78573402D01*
X145698699Y-78600500D01*
X145698700Y-78600500D01*
X145871920Y-78600500D01*
X145871921Y-78600500D01*
X146043011Y-78573402D01*
X146207755Y-78519873D01*
X146362098Y-78441232D01*
X146502238Y-78339414D01*
X146624724Y-78216928D01*
X146726542Y-78076788D01*
X146805183Y-77922445D01*
X146858712Y-77757701D01*
X146885810Y-77586611D01*
X146885810Y-76613389D01*
X147224810Y-76613389D01*
X147224810Y-77586611D01*
X147251908Y-77757701D01*
X147305437Y-77922445D01*
X147384078Y-78076788D01*
X147485896Y-78216928D01*
X147608382Y-78339414D01*
X147748522Y-78441232D01*
X147902865Y-78519873D01*
X148067609Y-78573402D01*
X148238699Y-78600500D01*
X148238700Y-78600500D01*
X148411920Y-78600500D01*
X148411921Y-78600500D01*
X148583011Y-78573402D01*
X148747755Y-78519873D01*
X148902098Y-78441232D01*
X149042238Y-78339414D01*
X149164724Y-78216928D01*
X149266542Y-78076788D01*
X149345183Y-77922445D01*
X149398712Y-77757701D01*
X149425810Y-77586611D01*
X149425810Y-76613389D01*
X149764810Y-76613389D01*
X149764810Y-77586611D01*
X149791908Y-77757701D01*
X149845437Y-77922445D01*
X149924078Y-78076788D01*
X150025896Y-78216928D01*
X150148382Y-78339414D01*
X150288522Y-78441232D01*
X150442865Y-78519873D01*
X150607609Y-78573402D01*
X150778699Y-78600500D01*
X150778700Y-78600500D01*
X150951920Y-78600500D01*
X150951921Y-78600500D01*
X151123011Y-78573402D01*
X151287755Y-78519873D01*
X151442098Y-78441232D01*
X151582238Y-78339414D01*
X151704724Y-78216928D01*
X151806542Y-78076788D01*
X151885183Y-77922445D01*
X151938712Y-77757701D01*
X151965810Y-77586611D01*
X151965810Y-76613389D01*
X152304810Y-76613389D01*
X152304810Y-77586611D01*
X152331908Y-77757701D01*
X152385437Y-77922445D01*
X152464078Y-78076788D01*
X152565896Y-78216928D01*
X152688382Y-78339414D01*
X152828522Y-78441232D01*
X152982865Y-78519873D01*
X153147609Y-78573402D01*
X153318699Y-78600500D01*
X153318700Y-78600500D01*
X153491920Y-78600500D01*
X153491921Y-78600500D01*
X153663011Y-78573402D01*
X153827755Y-78519873D01*
X153982098Y-78441232D01*
X154122238Y-78339414D01*
X154244724Y-78216928D01*
X154346542Y-78076788D01*
X154425183Y-77922445D01*
X154478712Y-77757701D01*
X154505810Y-77586611D01*
X154505810Y-76613389D01*
X154844810Y-76613389D01*
X154844810Y-77586611D01*
X154871908Y-77757701D01*
X154925437Y-77922445D01*
X155004078Y-78076788D01*
X155105896Y-78216928D01*
X155228382Y-78339414D01*
X155368522Y-78441232D01*
X155522865Y-78519873D01*
X155687609Y-78573402D01*
X155858699Y-78600500D01*
X155858700Y-78600500D01*
X156031920Y-78600500D01*
X156031921Y-78600500D01*
X156203011Y-78573402D01*
X156367755Y-78519873D01*
X156522098Y-78441232D01*
X156662238Y-78339414D01*
X156784724Y-78216928D01*
X156886542Y-78076788D01*
X156965183Y-77922445D01*
X157018712Y-77757701D01*
X157045810Y-77586611D01*
X157045810Y-76613389D01*
X157384810Y-76613389D01*
X157384810Y-77586611D01*
X157411908Y-77757701D01*
X157465437Y-77922445D01*
X157544078Y-78076788D01*
X157645896Y-78216928D01*
X157768382Y-78339414D01*
X157908522Y-78441232D01*
X158062865Y-78519873D01*
X158227609Y-78573402D01*
X158398699Y-78600500D01*
X158398700Y-78600500D01*
X158571920Y-78600500D01*
X158571921Y-78600500D01*
X158743011Y-78573402D01*
X158907755Y-78519873D01*
X159062098Y-78441232D01*
X159202238Y-78339414D01*
X159324724Y-78216928D01*
X159426542Y-78076788D01*
X159505183Y-77922445D01*
X159558712Y-77757701D01*
X159585810Y-77586611D01*
X159585810Y-76613428D01*
X159925310Y-76613428D01*
X159925310Y-76850000D01*
X160709624Y-76850000D01*
X160705230Y-76854394D01*
X160652569Y-76945606D01*
X160625310Y-77047339D01*
X160625310Y-77152661D01*
X160652569Y-77254394D01*
X160705230Y-77345606D01*
X160709624Y-77350000D01*
X159925310Y-77350000D01*
X159925310Y-77586571D01*
X159952395Y-77757584D01*
X160005901Y-77922257D01*
X160084505Y-78076524D01*
X160186277Y-78216602D01*
X160308707Y-78339032D01*
X160448785Y-78440804D01*
X160603054Y-78519408D01*
X160767725Y-78572914D01*
X160767724Y-78572914D01*
X160775309Y-78574115D01*
X160775310Y-78574114D01*
X160775310Y-77415686D01*
X160779704Y-77420080D01*
X160870916Y-77472741D01*
X160972649Y-77500000D01*
X161077971Y-77500000D01*
X161179704Y-77472741D01*
X161270916Y-77420080D01*
X161275310Y-77415686D01*
X161275310Y-78574115D01*
X161282894Y-78572914D01*
X161447565Y-78519408D01*
X161601834Y-78440804D01*
X161741912Y-78339032D01*
X161864342Y-78216602D01*
X161966114Y-78076524D01*
X162044718Y-77922257D01*
X162098224Y-77757584D01*
X162125310Y-77586571D01*
X162125310Y-77350000D01*
X161340996Y-77350000D01*
X161345390Y-77345606D01*
X161398051Y-77254394D01*
X161425310Y-77152661D01*
X161425310Y-77047339D01*
X161398051Y-76945606D01*
X161345390Y-76854394D01*
X161340996Y-76850000D01*
X162125310Y-76850000D01*
X162125310Y-76613428D01*
X162125304Y-76613389D01*
X162464810Y-76613389D01*
X162464810Y-77586611D01*
X162491908Y-77757701D01*
X162545437Y-77922445D01*
X162624078Y-78076788D01*
X162725896Y-78216928D01*
X162848382Y-78339414D01*
X162988522Y-78441232D01*
X163142865Y-78519873D01*
X163307609Y-78573402D01*
X163478699Y-78600500D01*
X163478700Y-78600500D01*
X163651920Y-78600500D01*
X163651921Y-78600500D01*
X163823011Y-78573402D01*
X163987755Y-78519873D01*
X164142098Y-78441232D01*
X164282238Y-78339414D01*
X164404724Y-78216928D01*
X164506542Y-78076788D01*
X164585183Y-77922445D01*
X164638712Y-77757701D01*
X164665810Y-77586611D01*
X164665810Y-76613389D01*
X165004810Y-76613389D01*
X165004810Y-77586611D01*
X165031908Y-77757701D01*
X165085437Y-77922445D01*
X165164078Y-78076788D01*
X165265896Y-78216928D01*
X165388382Y-78339414D01*
X165528522Y-78441232D01*
X165682865Y-78519873D01*
X165847609Y-78573402D01*
X166018699Y-78600500D01*
X166018700Y-78600500D01*
X166191920Y-78600500D01*
X166191921Y-78600500D01*
X166363011Y-78573402D01*
X166527755Y-78519873D01*
X166682098Y-78441232D01*
X166822238Y-78339414D01*
X166944724Y-78216928D01*
X167046542Y-78076788D01*
X167125183Y-77922445D01*
X167178712Y-77757701D01*
X167205810Y-77586611D01*
X167205810Y-76613389D01*
X167544810Y-76613389D01*
X167544810Y-77586611D01*
X167571908Y-77757701D01*
X167625437Y-77922445D01*
X167704078Y-78076788D01*
X167805896Y-78216928D01*
X167928382Y-78339414D01*
X168068522Y-78441232D01*
X168222865Y-78519873D01*
X168387609Y-78573402D01*
X168558699Y-78600500D01*
X168558700Y-78600500D01*
X168731920Y-78600500D01*
X168731921Y-78600500D01*
X168903011Y-78573402D01*
X169067755Y-78519873D01*
X169222098Y-78441232D01*
X169362238Y-78339414D01*
X169484724Y-78216928D01*
X169586542Y-78076788D01*
X169665183Y-77922445D01*
X169718712Y-77757701D01*
X169745810Y-77586611D01*
X169745810Y-76613389D01*
X169718712Y-76442299D01*
X169665183Y-76277555D01*
X169586542Y-76123212D01*
X169484724Y-75983072D01*
X169362238Y-75860586D01*
X169222098Y-75758768D01*
X169067755Y-75680127D01*
X168903011Y-75626598D01*
X168903009Y-75626597D01*
X168903008Y-75626597D01*
X168771581Y-75605781D01*
X168731921Y-75599500D01*
X168558699Y-75599500D01*
X168519038Y-75605781D01*
X168387612Y-75626597D01*
X168222862Y-75680128D01*
X168068521Y-75758768D01*
X167988566Y-75816859D01*
X167928382Y-75860586D01*
X167928380Y-75860588D01*
X167928379Y-75860588D01*
X167805898Y-75983069D01*
X167805898Y-75983070D01*
X167805896Y-75983072D01*
X167805660Y-75983397D01*
X167704078Y-76123211D01*
X167625438Y-76277552D01*
X167571907Y-76442302D01*
X167544810Y-76613389D01*
X167205810Y-76613389D01*
X167178712Y-76442299D01*
X167125183Y-76277555D01*
X167046542Y-76123212D01*
X166944724Y-75983072D01*
X166822238Y-75860586D01*
X166682098Y-75758768D01*
X166527755Y-75680127D01*
X166363011Y-75626598D01*
X166363009Y-75626597D01*
X166363008Y-75626597D01*
X166231581Y-75605781D01*
X166191921Y-75599500D01*
X166018699Y-75599500D01*
X165979038Y-75605781D01*
X165847612Y-75626597D01*
X165682862Y-75680128D01*
X165528521Y-75758768D01*
X165448566Y-75816859D01*
X165388382Y-75860586D01*
X165388380Y-75860588D01*
X165388379Y-75860588D01*
X165265898Y-75983069D01*
X165265898Y-75983070D01*
X165265896Y-75983072D01*
X165265660Y-75983397D01*
X165164078Y-76123211D01*
X165085438Y-76277552D01*
X165031907Y-76442302D01*
X165004810Y-76613389D01*
X164665810Y-76613389D01*
X164638712Y-76442299D01*
X164585183Y-76277555D01*
X164506542Y-76123212D01*
X164404724Y-75983072D01*
X164282238Y-75860586D01*
X164142098Y-75758768D01*
X163987755Y-75680127D01*
X163823011Y-75626598D01*
X163823009Y-75626597D01*
X163823008Y-75626597D01*
X163691581Y-75605781D01*
X163651921Y-75599500D01*
X163478699Y-75599500D01*
X163439038Y-75605781D01*
X163307612Y-75626597D01*
X163142862Y-75680128D01*
X162988521Y-75758768D01*
X162908566Y-75816859D01*
X162848382Y-75860586D01*
X162848380Y-75860588D01*
X162848379Y-75860588D01*
X162725898Y-75983069D01*
X162725898Y-75983070D01*
X162725896Y-75983072D01*
X162725660Y-75983397D01*
X162624078Y-76123211D01*
X162545438Y-76277552D01*
X162491907Y-76442302D01*
X162464810Y-76613389D01*
X162125304Y-76613389D01*
X162098224Y-76442415D01*
X162044718Y-76277742D01*
X161966114Y-76123475D01*
X161864342Y-75983397D01*
X161741912Y-75860967D01*
X161601834Y-75759195D01*
X161447567Y-75680591D01*
X161282899Y-75627087D01*
X161282891Y-75627085D01*
X161275310Y-75625884D01*
X161275310Y-76784314D01*
X161270916Y-76779920D01*
X161179704Y-76727259D01*
X161077971Y-76700000D01*
X160972649Y-76700000D01*
X160870916Y-76727259D01*
X160779704Y-76779920D01*
X160775310Y-76784314D01*
X160775310Y-75625884D01*
X160775309Y-75625884D01*
X160767728Y-75627085D01*
X160767720Y-75627087D01*
X160603052Y-75680591D01*
X160448785Y-75759195D01*
X160308707Y-75860967D01*
X160186277Y-75983397D01*
X160084505Y-76123475D01*
X160005901Y-76277742D01*
X159952395Y-76442415D01*
X159925310Y-76613428D01*
X159585810Y-76613428D01*
X159585810Y-76613389D01*
X159558712Y-76442299D01*
X159505183Y-76277555D01*
X159426542Y-76123212D01*
X159324724Y-75983072D01*
X159202238Y-75860586D01*
X159062098Y-75758768D01*
X158907755Y-75680127D01*
X158743011Y-75626598D01*
X158743009Y-75626597D01*
X158743008Y-75626597D01*
X158611581Y-75605781D01*
X158571921Y-75599500D01*
X158398699Y-75599500D01*
X158359038Y-75605781D01*
X158227612Y-75626597D01*
X158062862Y-75680128D01*
X157908521Y-75758768D01*
X157828566Y-75816859D01*
X157768382Y-75860586D01*
X157768380Y-75860588D01*
X157768379Y-75860588D01*
X157645898Y-75983069D01*
X157645898Y-75983070D01*
X157645896Y-75983072D01*
X157645660Y-75983397D01*
X157544078Y-76123211D01*
X157465438Y-76277552D01*
X157411907Y-76442302D01*
X157384810Y-76613389D01*
X157045810Y-76613389D01*
X157018712Y-76442299D01*
X156965183Y-76277555D01*
X156886542Y-76123212D01*
X156784724Y-75983072D01*
X156662238Y-75860586D01*
X156522098Y-75758768D01*
X156367755Y-75680127D01*
X156203011Y-75626598D01*
X156203009Y-75626597D01*
X156203008Y-75626597D01*
X156071581Y-75605781D01*
X156031921Y-75599500D01*
X155858699Y-75599500D01*
X155819038Y-75605781D01*
X155687612Y-75626597D01*
X155522862Y-75680128D01*
X155368521Y-75758768D01*
X155288566Y-75816859D01*
X155228382Y-75860586D01*
X155228380Y-75860588D01*
X155228379Y-75860588D01*
X155105898Y-75983069D01*
X155105898Y-75983070D01*
X155105896Y-75983072D01*
X155105660Y-75983397D01*
X155004078Y-76123211D01*
X154925438Y-76277552D01*
X154871907Y-76442302D01*
X154844810Y-76613389D01*
X154505810Y-76613389D01*
X154478712Y-76442299D01*
X154425183Y-76277555D01*
X154346542Y-76123212D01*
X154244724Y-75983072D01*
X154122238Y-75860586D01*
X153982098Y-75758768D01*
X153827755Y-75680127D01*
X153663011Y-75626598D01*
X153663009Y-75626597D01*
X153663008Y-75626597D01*
X153531581Y-75605781D01*
X153491921Y-75599500D01*
X153318699Y-75599500D01*
X153279038Y-75605781D01*
X153147612Y-75626597D01*
X152982862Y-75680128D01*
X152828521Y-75758768D01*
X152748566Y-75816859D01*
X152688382Y-75860586D01*
X152688380Y-75860588D01*
X152688379Y-75860588D01*
X152565898Y-75983069D01*
X152565898Y-75983070D01*
X152565896Y-75983072D01*
X152565660Y-75983397D01*
X152464078Y-76123211D01*
X152385438Y-76277552D01*
X152331907Y-76442302D01*
X152304810Y-76613389D01*
X151965810Y-76613389D01*
X151938712Y-76442299D01*
X151885183Y-76277555D01*
X151806542Y-76123212D01*
X151704724Y-75983072D01*
X151582238Y-75860586D01*
X151442098Y-75758768D01*
X151287755Y-75680127D01*
X151123011Y-75626598D01*
X151123009Y-75626597D01*
X151123008Y-75626597D01*
X150991581Y-75605781D01*
X150951921Y-75599500D01*
X150778699Y-75599500D01*
X150739038Y-75605781D01*
X150607612Y-75626597D01*
X150442862Y-75680128D01*
X150288521Y-75758768D01*
X150208566Y-75816859D01*
X150148382Y-75860586D01*
X150148380Y-75860588D01*
X150148379Y-75860588D01*
X150025898Y-75983069D01*
X150025898Y-75983070D01*
X150025896Y-75983072D01*
X150025660Y-75983397D01*
X149924078Y-76123211D01*
X149845438Y-76277552D01*
X149791907Y-76442302D01*
X149764810Y-76613389D01*
X149425810Y-76613389D01*
X149398712Y-76442299D01*
X149345183Y-76277555D01*
X149266542Y-76123212D01*
X149164724Y-75983072D01*
X149042238Y-75860586D01*
X148902098Y-75758768D01*
X148747755Y-75680127D01*
X148583011Y-75626598D01*
X148583009Y-75626597D01*
X148583008Y-75626597D01*
X148451581Y-75605781D01*
X148411921Y-75599500D01*
X148238699Y-75599500D01*
X148199038Y-75605781D01*
X148067612Y-75626597D01*
X147902862Y-75680128D01*
X147748521Y-75758768D01*
X147668566Y-75816859D01*
X147608382Y-75860586D01*
X147608380Y-75860588D01*
X147608379Y-75860588D01*
X147485898Y-75983069D01*
X147485898Y-75983070D01*
X147485896Y-75983072D01*
X147485660Y-75983397D01*
X147384078Y-76123211D01*
X147305438Y-76277552D01*
X147251907Y-76442302D01*
X147224810Y-76613389D01*
X146885810Y-76613389D01*
X146858712Y-76442299D01*
X146805183Y-76277555D01*
X146726542Y-76123212D01*
X146624724Y-75983072D01*
X146502238Y-75860586D01*
X146362098Y-75758768D01*
X146207755Y-75680127D01*
X146043011Y-75626598D01*
X146043009Y-75626597D01*
X146043008Y-75626597D01*
X145911581Y-75605781D01*
X145871921Y-75599500D01*
X145698699Y-75599500D01*
X145659038Y-75605781D01*
X145527612Y-75626597D01*
X145362862Y-75680128D01*
X145208521Y-75758768D01*
X145128566Y-75816859D01*
X145068382Y-75860586D01*
X145068380Y-75860588D01*
X145068379Y-75860588D01*
X144945898Y-75983069D01*
X144945898Y-75983070D01*
X144945896Y-75983072D01*
X144945660Y-75983397D01*
X144844078Y-76123211D01*
X144765438Y-76277552D01*
X144711907Y-76442302D01*
X144684810Y-76613389D01*
X144345810Y-76613389D01*
X144318712Y-76442299D01*
X144265183Y-76277555D01*
X144186542Y-76123212D01*
X144084724Y-75983072D01*
X143962238Y-75860586D01*
X143822098Y-75758768D01*
X143667755Y-75680127D01*
X143503011Y-75626598D01*
X143503009Y-75626597D01*
X143503008Y-75626597D01*
X143371581Y-75605781D01*
X143331921Y-75599500D01*
X143158699Y-75599500D01*
X143119038Y-75605781D01*
X142987612Y-75626597D01*
X142822862Y-75680128D01*
X142668521Y-75758768D01*
X142588566Y-75816859D01*
X142528382Y-75860586D01*
X142528380Y-75860588D01*
X142528379Y-75860588D01*
X142405898Y-75983069D01*
X142405898Y-75983070D01*
X142405896Y-75983072D01*
X142405660Y-75983397D01*
X142304078Y-76123211D01*
X142225438Y-76277552D01*
X142171907Y-76442302D01*
X142144810Y-76613389D01*
X141805810Y-76613389D01*
X141778712Y-76442299D01*
X141725183Y-76277555D01*
X141646542Y-76123212D01*
X141544724Y-75983072D01*
X141422238Y-75860586D01*
X141282098Y-75758768D01*
X141127755Y-75680127D01*
X140963011Y-75626598D01*
X140963009Y-75626597D01*
X140963008Y-75626597D01*
X140831581Y-75605781D01*
X140791921Y-75599500D01*
X140618699Y-75599500D01*
X140579038Y-75605781D01*
X140447612Y-75626597D01*
X140282862Y-75680128D01*
X140128521Y-75758768D01*
X140048566Y-75816859D01*
X139988382Y-75860586D01*
X139988380Y-75860588D01*
X139988379Y-75860588D01*
X139865898Y-75983069D01*
X139865898Y-75983070D01*
X139865896Y-75983072D01*
X139865660Y-75983397D01*
X139764078Y-76123211D01*
X139685438Y-76277552D01*
X139631907Y-76442302D01*
X139604810Y-76613389D01*
X139265810Y-76613389D01*
X139238712Y-76442299D01*
X139185183Y-76277555D01*
X139106542Y-76123212D01*
X139004724Y-75983072D01*
X138882238Y-75860586D01*
X138742098Y-75758768D01*
X138587755Y-75680127D01*
X138423011Y-75626598D01*
X138423009Y-75626597D01*
X138423008Y-75626597D01*
X138291581Y-75605781D01*
X138251921Y-75599500D01*
X138078699Y-75599500D01*
X138039038Y-75605781D01*
X137907612Y-75626597D01*
X137742862Y-75680128D01*
X137588521Y-75758768D01*
X137508566Y-75816859D01*
X137448382Y-75860586D01*
X137448380Y-75860588D01*
X137448379Y-75860588D01*
X137325898Y-75983069D01*
X137325898Y-75983070D01*
X137325896Y-75983072D01*
X137325660Y-75983397D01*
X137224078Y-76123211D01*
X137145438Y-76277552D01*
X137091907Y-76442302D01*
X137064810Y-76613389D01*
X136725810Y-76613389D01*
X136698712Y-76442299D01*
X136645183Y-76277555D01*
X136566542Y-76123212D01*
X136464724Y-75983072D01*
X136342238Y-75860586D01*
X136202098Y-75758768D01*
X136047755Y-75680127D01*
X135883011Y-75626598D01*
X135883009Y-75626597D01*
X135883008Y-75626597D01*
X135751581Y-75605781D01*
X135711921Y-75599500D01*
X135538699Y-75599500D01*
X135499038Y-75605781D01*
X135367612Y-75626597D01*
X135202862Y-75680128D01*
X135048521Y-75758768D01*
X134968566Y-75816859D01*
X134908382Y-75860586D01*
X134908380Y-75860588D01*
X134908379Y-75860588D01*
X134785898Y-75983069D01*
X134785898Y-75983070D01*
X134785896Y-75983072D01*
X134785660Y-75983397D01*
X134684078Y-76123211D01*
X134605438Y-76277552D01*
X134551907Y-76442302D01*
X134524810Y-76613389D01*
X134185810Y-76613389D01*
X134158712Y-76442299D01*
X134105183Y-76277555D01*
X134026542Y-76123212D01*
X133924724Y-75983072D01*
X133802238Y-75860586D01*
X133662098Y-75758768D01*
X133507755Y-75680127D01*
X133343011Y-75626598D01*
X133343009Y-75626597D01*
X133343008Y-75626597D01*
X133211581Y-75605781D01*
X133171921Y-75599500D01*
X132998699Y-75599500D01*
X132959038Y-75605781D01*
X132827612Y-75626597D01*
X132662862Y-75680128D01*
X132508521Y-75758768D01*
X132428566Y-75816859D01*
X132368382Y-75860586D01*
X132368380Y-75860588D01*
X132368379Y-75860588D01*
X132245898Y-75983069D01*
X132245898Y-75983070D01*
X132245896Y-75983072D01*
X132245660Y-75983397D01*
X132144078Y-76123211D01*
X132065438Y-76277552D01*
X132011907Y-76442302D01*
X131984810Y-76613389D01*
X131645810Y-76613389D01*
X131618712Y-76442299D01*
X131565183Y-76277555D01*
X131486542Y-76123212D01*
X131384724Y-75983072D01*
X131262238Y-75860586D01*
X131122098Y-75758768D01*
X130967755Y-75680127D01*
X130803011Y-75626598D01*
X130803009Y-75626597D01*
X130803008Y-75626597D01*
X130671581Y-75605781D01*
X130631921Y-75599500D01*
X130458699Y-75599500D01*
X130419038Y-75605781D01*
X130287612Y-75626597D01*
X130122862Y-75680128D01*
X129968521Y-75758768D01*
X129888566Y-75816859D01*
X129828382Y-75860586D01*
X129828380Y-75860588D01*
X129828379Y-75860588D01*
X129705898Y-75983069D01*
X129705898Y-75983070D01*
X129705896Y-75983072D01*
X129705660Y-75983397D01*
X129604078Y-76123211D01*
X129525438Y-76277552D01*
X129471907Y-76442302D01*
X129444810Y-76613389D01*
X129105809Y-76613389D01*
X129105809Y-76052128D01*
X129099401Y-75992517D01*
X129095999Y-75983397D01*
X129049107Y-75857671D01*
X129049103Y-75857664D01*
X128962857Y-75742455D01*
X128962854Y-75742452D01*
X128847645Y-75656206D01*
X128847638Y-75656202D01*
X128712792Y-75605908D01*
X128712793Y-75605908D01*
X128653193Y-75599501D01*
X128653191Y-75599500D01*
X128653183Y-75599500D01*
X128653174Y-75599500D01*
X127357439Y-75599500D01*
X127357433Y-75599501D01*
X127297826Y-75605908D01*
X127162981Y-75656202D01*
X127162974Y-75656206D01*
X127047765Y-75742452D01*
X127047762Y-75742455D01*
X126961516Y-75857664D01*
X126961512Y-75857671D01*
X126911218Y-75992517D01*
X126904811Y-76052116D01*
X126904811Y-76052123D01*
X126904810Y-76052135D01*
X125409250Y-76052135D01*
X125409250Y-65400097D01*
X125428935Y-65333058D01*
X125445569Y-65312416D01*
X128621166Y-62136819D01*
X128682489Y-62103334D01*
X128708847Y-62100500D01*
X149178512Y-62100500D01*
X149210605Y-62104725D01*
X149214113Y-62105664D01*
X149230497Y-62110055D01*
X149230498Y-62110055D01*
X149388608Y-62110055D01*
X149388611Y-62110055D01*
X149541339Y-62069131D01*
X149678270Y-61990073D01*
X156314023Y-55354319D01*
X156314026Y-55354318D01*
X156425830Y-55242514D01*
X156475949Y-55155702D01*
X156504887Y-55105583D01*
X156545810Y-54952855D01*
X156545810Y-54794741D01*
X156545810Y-53087184D01*
X156565495Y-53020145D01*
X156596919Y-52986870D01*
X156662238Y-52939414D01*
X156784724Y-52816928D01*
X156886542Y-52676788D01*
X156965183Y-52522445D01*
X157018712Y-52357701D01*
X157045810Y-52186611D01*
X157045810Y-51213389D01*
X157384810Y-51213389D01*
X157384810Y-52186610D01*
X157404316Y-52309771D01*
X157411908Y-52357701D01*
X157465437Y-52522445D01*
X157544078Y-52676788D01*
X157645896Y-52816928D01*
X157768382Y-52939414D01*
X157908522Y-53041232D01*
X158062865Y-53119873D01*
X158227609Y-53173402D01*
X158398699Y-53200500D01*
X158398700Y-53200500D01*
X158571920Y-53200500D01*
X158571921Y-53200500D01*
X158743011Y-53173402D01*
X158907755Y-53119873D01*
X159062098Y-53041232D01*
X159202238Y-52939414D01*
X159324724Y-52816928D01*
X159426542Y-52676788D01*
X159505183Y-52522445D01*
X159558712Y-52357701D01*
X159585810Y-52186611D01*
X159585810Y-51213389D01*
X159924810Y-51213389D01*
X159924810Y-52186610D01*
X159944316Y-52309771D01*
X159951908Y-52357701D01*
X160005437Y-52522445D01*
X160084078Y-52676788D01*
X160185896Y-52816928D01*
X160308382Y-52939414D01*
X160448522Y-53041232D01*
X160602865Y-53119873D01*
X160767609Y-53173402D01*
X160938699Y-53200500D01*
X160938700Y-53200500D01*
X161111920Y-53200500D01*
X161111921Y-53200500D01*
X161283011Y-53173402D01*
X161447755Y-53119873D01*
X161602098Y-53041232D01*
X161742238Y-52939414D01*
X161864724Y-52816928D01*
X161966542Y-52676788D01*
X162045183Y-52522445D01*
X162098712Y-52357701D01*
X162125810Y-52186611D01*
X162125810Y-51213389D01*
X162464810Y-51213389D01*
X162464810Y-52186610D01*
X162484316Y-52309771D01*
X162491908Y-52357701D01*
X162545437Y-52522445D01*
X162624078Y-52676788D01*
X162725896Y-52816928D01*
X162848382Y-52939414D01*
X162988522Y-53041232D01*
X163142865Y-53119873D01*
X163307609Y-53173402D01*
X163478699Y-53200500D01*
X163478700Y-53200500D01*
X163651920Y-53200500D01*
X163651921Y-53200500D01*
X163823011Y-53173402D01*
X163987755Y-53119873D01*
X164142098Y-53041232D01*
X164282238Y-52939414D01*
X164404724Y-52816928D01*
X164506542Y-52676788D01*
X164585183Y-52522445D01*
X164638712Y-52357701D01*
X164665810Y-52186611D01*
X164665810Y-51213389D01*
X165004810Y-51213389D01*
X165004810Y-52186610D01*
X165024316Y-52309771D01*
X165031908Y-52357701D01*
X165085437Y-52522445D01*
X165164078Y-52676788D01*
X165265896Y-52816928D01*
X165388382Y-52939414D01*
X165528522Y-53041232D01*
X165682865Y-53119873D01*
X165847609Y-53173402D01*
X166018699Y-53200500D01*
X166018700Y-53200500D01*
X166191920Y-53200500D01*
X166191921Y-53200500D01*
X166363011Y-53173402D01*
X166527755Y-53119873D01*
X166682098Y-53041232D01*
X166822238Y-52939414D01*
X166944724Y-52816928D01*
X167046542Y-52676788D01*
X167125183Y-52522445D01*
X167178712Y-52357701D01*
X167205810Y-52186611D01*
X167205810Y-51213389D01*
X167544810Y-51213389D01*
X167544810Y-52186610D01*
X167564316Y-52309771D01*
X167571908Y-52357701D01*
X167625437Y-52522445D01*
X167704078Y-52676788D01*
X167805896Y-52816928D01*
X167928382Y-52939414D01*
X168068522Y-53041232D01*
X168222865Y-53119873D01*
X168387609Y-53173402D01*
X168558699Y-53200500D01*
X168558700Y-53200500D01*
X168731920Y-53200500D01*
X168731921Y-53200500D01*
X168903011Y-53173402D01*
X169067755Y-53119873D01*
X169222098Y-53041232D01*
X169362238Y-52939414D01*
X169484724Y-52816928D01*
X169586542Y-52676788D01*
X169665183Y-52522445D01*
X169718712Y-52357701D01*
X169745810Y-52186611D01*
X169745810Y-51217069D01*
X170082090Y-51217069D01*
X170082090Y-52190290D01*
X170108604Y-52357697D01*
X170109188Y-52361381D01*
X170162717Y-52526125D01*
X170241358Y-52680468D01*
X170343176Y-52820608D01*
X170465662Y-52943094D01*
X170605802Y-53044912D01*
X170760145Y-53123553D01*
X170924889Y-53177082D01*
X171095979Y-53204180D01*
X171095980Y-53204180D01*
X171269200Y-53204180D01*
X171269201Y-53204180D01*
X171440291Y-53177082D01*
X171605035Y-53123553D01*
X171759378Y-53044912D01*
X171899518Y-52943094D01*
X172022004Y-52820608D01*
X172123822Y-52680468D01*
X172202463Y-52526125D01*
X172255992Y-52361381D01*
X172283090Y-52190291D01*
X172283090Y-51217069D01*
X172622090Y-51217069D01*
X172622090Y-52190290D01*
X172648604Y-52357697D01*
X172649188Y-52361381D01*
X172702717Y-52526125D01*
X172781358Y-52680468D01*
X172883176Y-52820608D01*
X173005662Y-52943094D01*
X173145802Y-53044912D01*
X173300145Y-53123553D01*
X173464889Y-53177082D01*
X173635979Y-53204180D01*
X173635980Y-53204180D01*
X173809200Y-53204180D01*
X173809201Y-53204180D01*
X173980291Y-53177082D01*
X174145035Y-53123553D01*
X174299378Y-53044912D01*
X174439518Y-52943094D01*
X174562004Y-52820608D01*
X174663822Y-52680468D01*
X174742463Y-52526125D01*
X174795992Y-52361381D01*
X174823090Y-52190291D01*
X174823090Y-51217069D01*
X174795992Y-51045979D01*
X174742463Y-50881235D01*
X174663822Y-50726892D01*
X174562004Y-50586752D01*
X174439518Y-50464266D01*
X174299378Y-50362448D01*
X174145035Y-50283807D01*
X173980291Y-50230278D01*
X173980289Y-50230277D01*
X173980288Y-50230277D01*
X173848861Y-50209461D01*
X173809201Y-50203180D01*
X173635979Y-50203180D01*
X173596318Y-50209461D01*
X173464892Y-50230277D01*
X173300142Y-50283808D01*
X173145801Y-50362448D01*
X173065846Y-50420539D01*
X173005662Y-50464266D01*
X173005660Y-50464268D01*
X173005659Y-50464268D01*
X172883178Y-50586749D01*
X172883178Y-50586750D01*
X172883176Y-50586752D01*
X172839449Y-50646936D01*
X172781358Y-50726891D01*
X172702718Y-50881232D01*
X172649187Y-51045982D01*
X172622090Y-51217069D01*
X172283090Y-51217069D01*
X172255992Y-51045979D01*
X172202463Y-50881235D01*
X172123822Y-50726892D01*
X172022004Y-50586752D01*
X171899518Y-50464266D01*
X171759378Y-50362448D01*
X171605035Y-50283807D01*
X171440291Y-50230278D01*
X171440289Y-50230277D01*
X171440288Y-50230277D01*
X171308861Y-50209461D01*
X171269201Y-50203180D01*
X171095979Y-50203180D01*
X171056318Y-50209461D01*
X170924892Y-50230277D01*
X170760142Y-50283808D01*
X170605801Y-50362448D01*
X170525846Y-50420539D01*
X170465662Y-50464266D01*
X170465660Y-50464268D01*
X170465659Y-50464268D01*
X170343178Y-50586749D01*
X170343178Y-50586750D01*
X170343176Y-50586752D01*
X170299449Y-50646936D01*
X170241358Y-50726891D01*
X170162718Y-50881232D01*
X170109187Y-51045982D01*
X170082090Y-51217069D01*
X169745810Y-51217069D01*
X169745810Y-51213389D01*
X169718712Y-51042299D01*
X169665183Y-50877555D01*
X169586542Y-50723212D01*
X169484724Y-50583072D01*
X169362238Y-50460586D01*
X169222098Y-50358768D01*
X169074979Y-50283808D01*
X169067757Y-50280128D01*
X169067756Y-50280127D01*
X169067755Y-50280127D01*
X168903011Y-50226598D01*
X168903009Y-50226597D01*
X168903008Y-50226597D01*
X168771581Y-50205781D01*
X168731921Y-50199500D01*
X168558699Y-50199500D01*
X168519038Y-50205781D01*
X168387612Y-50226597D01*
X168222862Y-50280128D01*
X168068521Y-50358768D01*
X167988566Y-50416859D01*
X167928382Y-50460586D01*
X167928380Y-50460588D01*
X167928379Y-50460588D01*
X167805898Y-50583069D01*
X167805898Y-50583070D01*
X167805896Y-50583072D01*
X167762169Y-50643256D01*
X167704078Y-50723211D01*
X167625438Y-50877552D01*
X167571907Y-51042302D01*
X167544810Y-51213389D01*
X167205810Y-51213389D01*
X167178712Y-51042299D01*
X167125183Y-50877555D01*
X167046542Y-50723212D01*
X166944724Y-50583072D01*
X166822238Y-50460586D01*
X166682098Y-50358768D01*
X166534979Y-50283808D01*
X166527757Y-50280128D01*
X166527756Y-50280127D01*
X166527755Y-50280127D01*
X166363011Y-50226598D01*
X166363009Y-50226597D01*
X166363008Y-50226597D01*
X166231581Y-50205781D01*
X166191921Y-50199500D01*
X166018699Y-50199500D01*
X165979038Y-50205781D01*
X165847612Y-50226597D01*
X165682862Y-50280128D01*
X165528521Y-50358768D01*
X165448566Y-50416859D01*
X165388382Y-50460586D01*
X165388380Y-50460588D01*
X165388379Y-50460588D01*
X165265898Y-50583069D01*
X165265898Y-50583070D01*
X165265896Y-50583072D01*
X165222169Y-50643256D01*
X165164078Y-50723211D01*
X165085438Y-50877552D01*
X165031907Y-51042302D01*
X165004810Y-51213389D01*
X164665810Y-51213389D01*
X164638712Y-51042299D01*
X164585183Y-50877555D01*
X164506542Y-50723212D01*
X164404724Y-50583072D01*
X164282238Y-50460586D01*
X164142098Y-50358768D01*
X163994979Y-50283808D01*
X163987757Y-50280128D01*
X163987756Y-50280127D01*
X163987755Y-50280127D01*
X163823011Y-50226598D01*
X163823009Y-50226597D01*
X163823008Y-50226597D01*
X163691581Y-50205781D01*
X163651921Y-50199500D01*
X163478699Y-50199500D01*
X163439038Y-50205781D01*
X163307612Y-50226597D01*
X163142862Y-50280128D01*
X162988521Y-50358768D01*
X162908566Y-50416859D01*
X162848382Y-50460586D01*
X162848380Y-50460588D01*
X162848379Y-50460588D01*
X162725898Y-50583069D01*
X162725898Y-50583070D01*
X162725896Y-50583072D01*
X162682169Y-50643256D01*
X162624078Y-50723211D01*
X162545438Y-50877552D01*
X162491907Y-51042302D01*
X162464810Y-51213389D01*
X162125810Y-51213389D01*
X162098712Y-51042299D01*
X162045183Y-50877555D01*
X161966542Y-50723212D01*
X161864724Y-50583072D01*
X161742238Y-50460586D01*
X161602098Y-50358768D01*
X161454979Y-50283808D01*
X161447757Y-50280128D01*
X161447756Y-50280127D01*
X161447755Y-50280127D01*
X161283011Y-50226598D01*
X161283009Y-50226597D01*
X161283008Y-50226597D01*
X161151581Y-50205781D01*
X161111921Y-50199500D01*
X160938699Y-50199500D01*
X160899038Y-50205781D01*
X160767612Y-50226597D01*
X160602862Y-50280128D01*
X160448521Y-50358768D01*
X160368566Y-50416859D01*
X160308382Y-50460586D01*
X160308380Y-50460588D01*
X160308379Y-50460588D01*
X160185898Y-50583069D01*
X160185898Y-50583070D01*
X160185896Y-50583072D01*
X160142169Y-50643256D01*
X160084078Y-50723211D01*
X160005438Y-50877552D01*
X159951907Y-51042302D01*
X159924810Y-51213389D01*
X159585810Y-51213389D01*
X159558712Y-51042299D01*
X159505183Y-50877555D01*
X159426542Y-50723212D01*
X159324724Y-50583072D01*
X159202238Y-50460586D01*
X159062098Y-50358768D01*
X158914979Y-50283808D01*
X158907757Y-50280128D01*
X158907756Y-50280127D01*
X158907755Y-50280127D01*
X158743011Y-50226598D01*
X158743009Y-50226597D01*
X158743008Y-50226597D01*
X158611581Y-50205781D01*
X158571921Y-50199500D01*
X158398699Y-50199500D01*
X158359038Y-50205781D01*
X158227612Y-50226597D01*
X158062862Y-50280128D01*
X157908521Y-50358768D01*
X157828566Y-50416859D01*
X157768382Y-50460586D01*
X157768380Y-50460588D01*
X157768379Y-50460588D01*
X157645898Y-50583069D01*
X157645898Y-50583070D01*
X157645896Y-50583072D01*
X157602169Y-50643256D01*
X157544078Y-50723211D01*
X157465438Y-50877552D01*
X157411907Y-51042302D01*
X157384810Y-51213389D01*
X157045810Y-51213389D01*
X157018712Y-51042299D01*
X156965183Y-50877555D01*
X156886542Y-50723212D01*
X156784724Y-50583072D01*
X156662238Y-50460586D01*
X156522098Y-50358768D01*
X156374979Y-50283808D01*
X156367757Y-50280128D01*
X156367756Y-50280127D01*
X156367755Y-50280127D01*
X156203011Y-50226598D01*
X156203009Y-50226597D01*
X156203008Y-50226597D01*
X156071581Y-50205781D01*
X156031921Y-50199500D01*
X155858699Y-50199500D01*
X155819038Y-50205781D01*
X155687612Y-50226597D01*
X155522862Y-50280128D01*
X155368521Y-50358768D01*
X155288566Y-50416859D01*
X155228382Y-50460586D01*
X155228380Y-50460588D01*
X155228379Y-50460588D01*
X155105898Y-50583069D01*
X155105898Y-50583070D01*
X155105896Y-50583072D01*
X155062169Y-50643256D01*
X155004078Y-50723211D01*
X154925438Y-50877552D01*
X154871907Y-51042302D01*
X154844810Y-51213389D01*
X154844810Y-52186610D01*
X154864316Y-52309771D01*
X154871908Y-52357701D01*
X154925437Y-52522445D01*
X155004078Y-52676788D01*
X155105896Y-52816928D01*
X155228382Y-52939414D01*
X155293698Y-52986868D01*
X155336361Y-53042195D01*
X155344810Y-53087184D01*
X155344810Y-54573701D01*
X155325125Y-54640740D01*
X155308491Y-54661382D01*
X149106692Y-60863181D01*
X149045369Y-60896666D01*
X149019011Y-60899500D01*
X128495419Y-60899500D01*
X128495403Y-60899499D01*
X128487807Y-60899499D01*
X128329693Y-60899499D01*
X128222337Y-60928265D01*
X128176960Y-60940424D01*
X128176959Y-60940425D01*
X128126846Y-60969359D01*
X128126845Y-60969360D01*
X128083439Y-60994420D01*
X128040035Y-61019479D01*
X128040032Y-61019481D01*
X124328231Y-64731282D01*
X124328227Y-64731287D01*
X124279541Y-64815616D01*
X124279540Y-64815615D01*
X124249174Y-64868211D01*
X124249173Y-64868215D01*
X124208249Y-65020943D01*
X124208249Y-65179057D01*
X124208249Y-65179059D01*
X124208250Y-65189053D01*
X124208250Y-83813330D01*
X124208249Y-83813348D01*
X124208249Y-83979054D01*
X124208248Y-83979054D01*
X119609250Y-83979054D01*
X119609250Y-66076656D01*
X119628935Y-66009617D01*
X119645564Y-65988980D01*
X132500990Y-53133553D01*
X132562311Y-53100070D01*
X132632003Y-53105054D01*
X132644949Y-53110744D01*
X132662865Y-53119873D01*
X132827609Y-53173402D01*
X132998699Y-53200500D01*
X132998700Y-53200500D01*
X133171920Y-53200500D01*
X133171921Y-53200500D01*
X133343011Y-53173402D01*
X133507755Y-53119873D01*
X133662098Y-53041232D01*
X133802238Y-52939414D01*
X133924724Y-52816928D01*
X134026542Y-52676788D01*
X134105183Y-52522445D01*
X134158712Y-52357701D01*
X134185810Y-52186611D01*
X134185810Y-51213389D01*
X134524810Y-51213389D01*
X134524810Y-52186610D01*
X134544316Y-52309771D01*
X134551908Y-52357701D01*
X134605437Y-52522445D01*
X134684078Y-52676788D01*
X134785896Y-52816928D01*
X134908382Y-52939414D01*
X135048522Y-53041232D01*
X135202865Y-53119873D01*
X135367609Y-53173402D01*
X135538699Y-53200500D01*
X135538700Y-53200500D01*
X135711920Y-53200500D01*
X135711921Y-53200500D01*
X135883011Y-53173402D01*
X136047755Y-53119873D01*
X136202098Y-53041232D01*
X136342238Y-52939414D01*
X136464724Y-52816928D01*
X136566542Y-52676788D01*
X136645183Y-52522445D01*
X136698712Y-52357701D01*
X136725810Y-52186611D01*
X136725810Y-51213389D01*
X136698712Y-51042299D01*
X136645183Y-50877555D01*
X136566542Y-50723212D01*
X136464724Y-50583072D01*
X136342238Y-50460586D01*
X136202098Y-50358768D01*
X136054979Y-50283808D01*
X136047757Y-50280128D01*
X136047756Y-50280127D01*
X136047755Y-50280127D01*
X135883011Y-50226598D01*
X135883009Y-50226597D01*
X135883008Y-50226597D01*
X135751581Y-50205781D01*
X135711921Y-50199500D01*
X135538699Y-50199500D01*
X135499038Y-50205781D01*
X135367612Y-50226597D01*
X135202862Y-50280128D01*
X135048521Y-50358768D01*
X134968566Y-50416859D01*
X134908382Y-50460586D01*
X134908380Y-50460588D01*
X134908379Y-50460588D01*
X134785898Y-50583069D01*
X134785898Y-50583070D01*
X134785896Y-50583072D01*
X134742169Y-50643256D01*
X134684078Y-50723211D01*
X134605438Y-50877552D01*
X134551907Y-51042302D01*
X134524810Y-51213389D01*
X134185810Y-51213389D01*
X134158712Y-51042299D01*
X134105183Y-50877555D01*
X134026542Y-50723212D01*
X133924724Y-50583072D01*
X133802238Y-50460586D01*
X133662098Y-50358768D01*
X133514979Y-50283808D01*
X133507757Y-50280128D01*
X133507756Y-50280127D01*
X133507755Y-50280127D01*
X133343011Y-50226598D01*
X133343009Y-50226597D01*
X133343008Y-50226597D01*
X133211581Y-50205781D01*
X133171921Y-50199500D01*
X132998699Y-50199500D01*
X132959038Y-50205781D01*
X132827612Y-50226597D01*
X132662862Y-50280128D01*
X132508521Y-50358768D01*
X132428566Y-50416859D01*
X132368382Y-50460586D01*
X132368380Y-50460588D01*
X132368379Y-50460588D01*
X132245898Y-50583069D01*
X132245898Y-50583070D01*
X132245896Y-50583072D01*
X132202169Y-50643256D01*
X132144078Y-50723211D01*
X132065438Y-50877552D01*
X132011907Y-51042302D01*
X131984810Y-51213389D01*
X131984810Y-51899902D01*
X131976165Y-51929342D01*
X131969642Y-51959329D01*
X131965887Y-51964344D01*
X131965125Y-51966941D01*
X131948491Y-51987583D01*
X131857491Y-52078583D01*
X131796168Y-52112068D01*
X131726476Y-52107084D01*
X131670543Y-52065212D01*
X131646126Y-51999748D01*
X131645810Y-51990902D01*
X131645810Y-51213389D01*
X131626303Y-51090229D01*
X131618712Y-51042299D01*
X131565183Y-50877555D01*
X131486542Y-50723212D01*
X131384724Y-50583072D01*
X131262238Y-50460586D01*
X131122098Y-50358768D01*
X130974979Y-50283808D01*
X130967757Y-50280128D01*
X130967756Y-50280127D01*
X130967755Y-50280127D01*
X130803011Y-50226598D01*
X130803009Y-50226597D01*
X130803008Y-50226597D01*
X130671581Y-50205781D01*
X130631921Y-50199500D01*
X130458699Y-50199500D01*
X130419038Y-50205781D01*
X130287612Y-50226597D01*
X130122862Y-50280128D01*
X129968521Y-50358768D01*
X129888566Y-50416859D01*
X129828382Y-50460586D01*
X129828380Y-50460588D01*
X129828379Y-50460588D01*
X129705898Y-50583069D01*
X129705898Y-50583070D01*
X129705896Y-50583072D01*
X129662169Y-50643256D01*
X129604078Y-50723211D01*
X129525438Y-50877552D01*
X129471907Y-51042302D01*
X129444810Y-51213389D01*
X129444810Y-51899902D01*
X129436165Y-51929342D01*
X129429642Y-51959329D01*
X129425887Y-51964344D01*
X129425125Y-51966941D01*
X129408491Y-51987583D01*
X129316991Y-52079083D01*
X129255668Y-52112568D01*
X129185976Y-52107584D01*
X129130043Y-52065712D01*
X129105626Y-52000248D01*
X129105310Y-51991402D01*
X129105310Y-51950000D01*
X128320996Y-51950000D01*
X128325390Y-51945606D01*
X128378051Y-51854394D01*
X128405310Y-51752661D01*
X128405310Y-51647339D01*
X128378051Y-51545606D01*
X128325390Y-51454394D01*
X128320996Y-51450000D01*
X129105310Y-51450000D01*
X129105310Y-51213428D01*
X129078224Y-51042415D01*
X129024718Y-50877742D01*
X128946114Y-50723475D01*
X128844342Y-50583397D01*
X128721912Y-50460967D01*
X128581834Y-50359195D01*
X128427567Y-50280591D01*
X128262899Y-50227087D01*
X128262891Y-50227085D01*
X128255310Y-50225884D01*
X128255310Y-51384314D01*
X128250916Y-51379920D01*
X128159704Y-51327259D01*
X128057971Y-51300000D01*
X127952649Y-51300000D01*
X127850916Y-51327259D01*
X127759704Y-51379920D01*
X127755310Y-51384314D01*
X127755310Y-50225884D01*
X127755309Y-50225884D01*
X127747728Y-50227085D01*
X127747720Y-50227087D01*
X127583052Y-50280591D01*
X127428785Y-50359195D01*
X127288707Y-50460967D01*
X127166277Y-50583397D01*
X127064505Y-50723475D01*
X126985901Y-50877742D01*
X126932395Y-51042415D01*
X126905310Y-51213428D01*
X126905310Y-51450000D01*
X127689624Y-51450000D01*
X127685230Y-51454394D01*
X127632569Y-51545606D01*
X127605310Y-51647339D01*
X127605310Y-51752661D01*
X127632569Y-51854394D01*
X127685230Y-51945606D01*
X127689624Y-51950000D01*
X126905310Y-51950000D01*
X126905310Y-52186571D01*
X126932395Y-52357584D01*
X126985901Y-52522257D01*
X127064505Y-52676524D01*
X127166277Y-52816602D01*
X127288707Y-52939032D01*
X127428785Y-53040804D01*
X127583054Y-53119408D01*
X127747725Y-53172914D01*
X127747724Y-53172914D01*
X127755309Y-53174115D01*
X127755310Y-53174114D01*
X127755310Y-52015686D01*
X127759704Y-52020080D01*
X127850916Y-52072741D01*
X127952649Y-52100000D01*
X128057971Y-52100000D01*
X128159704Y-52072741D01*
X128250916Y-52020080D01*
X128255310Y-52015686D01*
X128255310Y-53089402D01*
X128235625Y-53156441D01*
X128218991Y-53177083D01*
X117220931Y-64175143D01*
X117159608Y-64208628D01*
X117089916Y-64203644D01*
X117033983Y-64161772D01*
X117009566Y-64096308D01*
X117009250Y-64087462D01*
X117009250Y-48100097D01*
X117028935Y-48033058D01*
X117045569Y-48012416D01*
X118521167Y-46536819D01*
X118582490Y-46503334D01*
X118608848Y-46500500D01*
X134605213Y-46500500D01*
X134672252Y-46520185D01*
X134692894Y-46536819D01*
X138145633Y-49989559D01*
X138179118Y-50050882D01*
X138174134Y-50120574D01*
X138132262Y-50176507D01*
X138077350Y-50199713D01*
X137907612Y-50226597D01*
X137742862Y-50280128D01*
X137588521Y-50358768D01*
X137508566Y-50416859D01*
X137448382Y-50460586D01*
X137448380Y-50460588D01*
X137448379Y-50460588D01*
X137325898Y-50583069D01*
X137325898Y-50583070D01*
X137325896Y-50583072D01*
X137282169Y-50643256D01*
X137224078Y-50723211D01*
X137145438Y-50877552D01*
X137091907Y-51042302D01*
X137064810Y-51213389D01*
X137064810Y-52186610D01*
X137084316Y-52309771D01*
X137091908Y-52357701D01*
X137145437Y-52522445D01*
X137224078Y-52676788D01*
X137325896Y-52816928D01*
X137448382Y-52939414D01*
X137588522Y-53041232D01*
X137742865Y-53119873D01*
X137907609Y-53173402D01*
X138078699Y-53200500D01*
X138078700Y-53200500D01*
X138251920Y-53200500D01*
X138251921Y-53200500D01*
X138423011Y-53173402D01*
X138587755Y-53119873D01*
X138742098Y-53041232D01*
X138882238Y-52939414D01*
X139004724Y-52816928D01*
X139106542Y-52676788D01*
X139185183Y-52522445D01*
X139238712Y-52357701D01*
X139265810Y-52186611D01*
X139265810Y-51409097D01*
X139272048Y-51387851D01*
X139273628Y-51365763D01*
X139281700Y-51354979D01*
X139285495Y-51342058D01*
X139302228Y-51327558D01*
X139315500Y-51309830D01*
X139328120Y-51305122D01*
X139338299Y-51296303D01*
X139360216Y-51293151D01*
X139380964Y-51285413D01*
X139394124Y-51288275D01*
X139407457Y-51286359D01*
X139427600Y-51295558D01*
X139449237Y-51300265D01*
X139466962Y-51313533D01*
X139471013Y-51315384D01*
X139477491Y-51321416D01*
X139568491Y-51412416D01*
X139601976Y-51473739D01*
X139604810Y-51500097D01*
X139604810Y-52186610D01*
X139624316Y-52309771D01*
X139631908Y-52357701D01*
X139685437Y-52522445D01*
X139764078Y-52676788D01*
X139865896Y-52816928D01*
X139988382Y-52939414D01*
X140128522Y-53041232D01*
X140282865Y-53119873D01*
X140447609Y-53173402D01*
X140618699Y-53200500D01*
X140618700Y-53200500D01*
X140791920Y-53200500D01*
X140791921Y-53200500D01*
X140963011Y-53173402D01*
X141127755Y-53119873D01*
X141282098Y-53041232D01*
X141422238Y-52939414D01*
X141544724Y-52816928D01*
X141646542Y-52676788D01*
X141725183Y-52522445D01*
X141778712Y-52357701D01*
X141805810Y-52186611D01*
X141805810Y-51213428D01*
X142145310Y-51213428D01*
X142145310Y-51450000D01*
X142929624Y-51450000D01*
X142925230Y-51454394D01*
X142872569Y-51545606D01*
X142845310Y-51647339D01*
X142845310Y-51752661D01*
X142872569Y-51854394D01*
X142925230Y-51945606D01*
X142929624Y-51950000D01*
X142145310Y-51950000D01*
X142145310Y-52186571D01*
X142172395Y-52357584D01*
X142225901Y-52522257D01*
X142304505Y-52676524D01*
X142406277Y-52816602D01*
X142528707Y-52939032D01*
X142668785Y-53040804D01*
X142823054Y-53119408D01*
X142987725Y-53172914D01*
X142987724Y-53172914D01*
X142995309Y-53174115D01*
X142995310Y-53174114D01*
X142995310Y-52015686D01*
X142999704Y-52020080D01*
X143090916Y-52072741D01*
X143192649Y-52100000D01*
X143297971Y-52100000D01*
X143399704Y-52072741D01*
X143490916Y-52020080D01*
X143495310Y-52015686D01*
X143495310Y-53174115D01*
X143502894Y-53172914D01*
X143667565Y-53119408D01*
X143821834Y-53040804D01*
X143961912Y-52939032D01*
X144084342Y-52816602D01*
X144186114Y-52676524D01*
X144264718Y-52522257D01*
X144318224Y-52357584D01*
X144345310Y-52186571D01*
X144345310Y-51950000D01*
X143560996Y-51950000D01*
X143565390Y-51945606D01*
X143618051Y-51854394D01*
X143645310Y-51752661D01*
X143645310Y-51647339D01*
X143618051Y-51545606D01*
X143565390Y-51454394D01*
X143560996Y-51450000D01*
X144345310Y-51450000D01*
X144345310Y-51213428D01*
X144345304Y-51213389D01*
X144684810Y-51213389D01*
X144684810Y-52186610D01*
X144704316Y-52309771D01*
X144711908Y-52357701D01*
X144765437Y-52522445D01*
X144844078Y-52676788D01*
X144945896Y-52816928D01*
X145068382Y-52939414D01*
X145208522Y-53041232D01*
X145362865Y-53119873D01*
X145527609Y-53173402D01*
X145698699Y-53200500D01*
X145698700Y-53200500D01*
X145871920Y-53200500D01*
X145871921Y-53200500D01*
X146043011Y-53173402D01*
X146207755Y-53119873D01*
X146362098Y-53041232D01*
X146502238Y-52939414D01*
X146624724Y-52816928D01*
X146726542Y-52676788D01*
X146805183Y-52522445D01*
X146858712Y-52357701D01*
X146885810Y-52186611D01*
X146885810Y-51213389D01*
X147224810Y-51213389D01*
X147224810Y-52186610D01*
X147244316Y-52309771D01*
X147251908Y-52357701D01*
X147305437Y-52522445D01*
X147384078Y-52676788D01*
X147485896Y-52816928D01*
X147608382Y-52939414D01*
X147748522Y-53041232D01*
X147902865Y-53119873D01*
X148067609Y-53173402D01*
X148238699Y-53200500D01*
X148238700Y-53200500D01*
X148411920Y-53200500D01*
X148411921Y-53200500D01*
X148583011Y-53173402D01*
X148747755Y-53119873D01*
X148902098Y-53041232D01*
X149042238Y-52939414D01*
X149164724Y-52816928D01*
X149266542Y-52676788D01*
X149345183Y-52522445D01*
X149398712Y-52357701D01*
X149425810Y-52186611D01*
X149425810Y-51213389D01*
X149764810Y-51213389D01*
X149764810Y-52186610D01*
X149784316Y-52309771D01*
X149791908Y-52357701D01*
X149845437Y-52522445D01*
X149924078Y-52676788D01*
X150025896Y-52816928D01*
X150148382Y-52939414D01*
X150288522Y-53041232D01*
X150442865Y-53119873D01*
X150607609Y-53173402D01*
X150778699Y-53200500D01*
X150778700Y-53200500D01*
X150951920Y-53200500D01*
X150951921Y-53200500D01*
X151123011Y-53173402D01*
X151287755Y-53119873D01*
X151442098Y-53041232D01*
X151582238Y-52939414D01*
X151704724Y-52816928D01*
X151806542Y-52676788D01*
X151885183Y-52522445D01*
X151938712Y-52357701D01*
X151965810Y-52186611D01*
X151965810Y-51213389D01*
X151938712Y-51042299D01*
X151885183Y-50877555D01*
X151806542Y-50723212D01*
X151704724Y-50583072D01*
X151582238Y-50460586D01*
X151442098Y-50358768D01*
X151294979Y-50283808D01*
X151287757Y-50280128D01*
X151287756Y-50280127D01*
X151287755Y-50280127D01*
X151123011Y-50226598D01*
X151123009Y-50226597D01*
X151123008Y-50226597D01*
X150991581Y-50205781D01*
X150951921Y-50199500D01*
X150778699Y-50199500D01*
X150739038Y-50205781D01*
X150607612Y-50226597D01*
X150442862Y-50280128D01*
X150288521Y-50358768D01*
X150208566Y-50416859D01*
X150148382Y-50460586D01*
X150148380Y-50460588D01*
X150148379Y-50460588D01*
X150025898Y-50583069D01*
X150025898Y-50583070D01*
X150025896Y-50583072D01*
X149982169Y-50643256D01*
X149924078Y-50723211D01*
X149845438Y-50877552D01*
X149791907Y-51042302D01*
X149764810Y-51213389D01*
X149425810Y-51213389D01*
X149398712Y-51042299D01*
X149345183Y-50877555D01*
X149266542Y-50723212D01*
X149164724Y-50583072D01*
X149042238Y-50460586D01*
X148902098Y-50358768D01*
X148754979Y-50283808D01*
X148747757Y-50280128D01*
X148747756Y-50280127D01*
X148747755Y-50280127D01*
X148583011Y-50226598D01*
X148583009Y-50226597D01*
X148583008Y-50226597D01*
X148451581Y-50205781D01*
X148411921Y-50199500D01*
X148238699Y-50199500D01*
X148199038Y-50205781D01*
X148067612Y-50226597D01*
X147902862Y-50280128D01*
X147748521Y-50358768D01*
X147668566Y-50416859D01*
X147608382Y-50460586D01*
X147608380Y-50460588D01*
X147608379Y-50460588D01*
X147485898Y-50583069D01*
X147485898Y-50583070D01*
X147485896Y-50583072D01*
X147442169Y-50643256D01*
X147384078Y-50723211D01*
X147305438Y-50877552D01*
X147251907Y-51042302D01*
X147224810Y-51213389D01*
X146885810Y-51213389D01*
X146858712Y-51042299D01*
X146805183Y-50877555D01*
X146726542Y-50723212D01*
X146624724Y-50583072D01*
X146502238Y-50460586D01*
X146362098Y-50358768D01*
X146214979Y-50283808D01*
X146207757Y-50280128D01*
X146207756Y-50280127D01*
X146207755Y-50280127D01*
X146043011Y-50226598D01*
X146043009Y-50226597D01*
X146043008Y-50226597D01*
X145911581Y-50205781D01*
X145871921Y-50199500D01*
X145698699Y-50199500D01*
X145659038Y-50205781D01*
X145527612Y-50226597D01*
X145362862Y-50280128D01*
X145208521Y-50358768D01*
X145128566Y-50416859D01*
X145068382Y-50460586D01*
X145068380Y-50460588D01*
X145068379Y-50460588D01*
X144945898Y-50583069D01*
X144945898Y-50583070D01*
X144945896Y-50583072D01*
X144902169Y-50643256D01*
X144844078Y-50723211D01*
X144765438Y-50877552D01*
X144711907Y-51042302D01*
X144684810Y-51213389D01*
X144345304Y-51213389D01*
X144318224Y-51042415D01*
X144264718Y-50877742D01*
X144186114Y-50723475D01*
X144084342Y-50583397D01*
X143961912Y-50460967D01*
X143821834Y-50359195D01*
X143667567Y-50280591D01*
X143502899Y-50227087D01*
X143502891Y-50227085D01*
X143495310Y-50225884D01*
X143495310Y-51384314D01*
X143490916Y-51379920D01*
X143399704Y-51327259D01*
X143297971Y-51300000D01*
X143192649Y-51300000D01*
X143090916Y-51327259D01*
X142999704Y-51379920D01*
X142995310Y-51384314D01*
X142995310Y-50225884D01*
X142995309Y-50225884D01*
X142987728Y-50227085D01*
X142987720Y-50227087D01*
X142823052Y-50280591D01*
X142668785Y-50359195D01*
X142528707Y-50460967D01*
X142406277Y-50583397D01*
X142304505Y-50723475D01*
X142225901Y-50877742D01*
X142172395Y-51042415D01*
X142145310Y-51213428D01*
X141805810Y-51213428D01*
X141805810Y-51213389D01*
X141778712Y-51042299D01*
X141725183Y-50877555D01*
X141646542Y-50723212D01*
X141544724Y-50583072D01*
X141422238Y-50460586D01*
X141282098Y-50358768D01*
X141134979Y-50283808D01*
X141127757Y-50280128D01*
X141127756Y-50280127D01*
X141127755Y-50280127D01*
X140963011Y-50226598D01*
X140963009Y-50226597D01*
X140963008Y-50226597D01*
X140831581Y-50205781D01*
X140791921Y-50199500D01*
X140618699Y-50199500D01*
X140579038Y-50205781D01*
X140447612Y-50226597D01*
X140282867Y-50280126D01*
X140282860Y-50280129D01*
X140264961Y-50289249D01*
X140196292Y-50302143D01*
X140131552Y-50275864D01*
X140120989Y-50266443D01*
X135392900Y-45538355D01*
X135392898Y-45538352D01*
X135274027Y-45419481D01*
X135274026Y-45419480D01*
X135187214Y-45369360D01*
X135187214Y-45369359D01*
X135187210Y-45369358D01*
X135137095Y-45340423D01*
X134984367Y-45299499D01*
X134826253Y-45299499D01*
X134818657Y-45299499D01*
X134818641Y-45299500D01*
X118395420Y-45299500D01*
X118395404Y-45299499D01*
X118387808Y-45299499D01*
X118229693Y-45299499D01*
X118153329Y-45319961D01*
X118076964Y-45340423D01*
X118076959Y-45340426D01*
X117940040Y-45419475D01*
X117940032Y-45419481D01*
X115922483Y-47437031D01*
X115920464Y-47435012D01*
X115875181Y-47468067D01*
X115805434Y-47472212D01*
X115744519Y-47437991D01*
X115711775Y-47376269D01*
X115709250Y-47351372D01*
X115709250Y-43224500D01*
X115728935Y-43157461D01*
X115781739Y-43111706D01*
X115833250Y-43100500D01*
X182084250Y-43100500D01*
X182151289Y-43120185D01*
G37*
%TD.AperFunction*%
%TD*%
M02*
