%TF.GenerationSoftware,KiCad,Pcbnew,9.0.2*%
%TF.CreationDate,2025-06-18T14:23:29+07:00*%
%TF.ProjectId,WiFi_Frauder_DEV,57694669-5f46-4726-9175-6465725f4445,3*%
%TF.SameCoordinates,Original*%
%TF.FileFunction,Legend,Top*%
%TF.FilePolarity,Positive*%
%FSLAX46Y46*%
G04 Gerber Fmt 4.6, Leading zero omitted, Abs format (unit mm)*
G04 Created by KiCad (PCBNEW 9.0.2) date 2025-06-18 14:23:29*
%MOMM*%
%LPD*%
G01*
G04 APERTURE LIST*
%ADD10C,0.400000*%
%ADD11C,0.200000*%
%ADD12C,0.100000*%
%ADD13C,0.150000*%
%ADD14C,0.120000*%
%ADD15C,0.000000*%
%ADD16C,0.127000*%
G04 APERTURE END LIST*
D10*
X121041728Y-138404438D02*
X121756014Y-140404438D01*
X121756014Y-140404438D02*
X122327442Y-138975866D01*
X122327442Y-138975866D02*
X122898871Y-140404438D01*
X122898871Y-140404438D02*
X123613157Y-138404438D01*
X124756013Y-140404438D02*
X124756013Y-139071104D01*
X124756013Y-138404438D02*
X124613156Y-138499676D01*
X124613156Y-138499676D02*
X124756013Y-138594914D01*
X124756013Y-138594914D02*
X124898870Y-138499676D01*
X124898870Y-138499676D02*
X124756013Y-138404438D01*
X124756013Y-138404438D02*
X124756013Y-138594914D01*
X127184584Y-139356819D02*
X126184584Y-139356819D01*
X126184584Y-140404438D02*
X126184584Y-138404438D01*
X126184584Y-138404438D02*
X127613156Y-138404438D01*
X128756013Y-140404438D02*
X128756013Y-139071104D01*
X128756013Y-138404438D02*
X128613156Y-138499676D01*
X128613156Y-138499676D02*
X128756013Y-138594914D01*
X128756013Y-138594914D02*
X128898870Y-138499676D01*
X128898870Y-138499676D02*
X128756013Y-138404438D01*
X128756013Y-138404438D02*
X128756013Y-138594914D01*
X133470298Y-139356819D02*
X132470298Y-139356819D01*
X132470298Y-140404438D02*
X132470298Y-138404438D01*
X132470298Y-138404438D02*
X133898870Y-138404438D01*
X135041727Y-140404438D02*
X135041727Y-139071104D01*
X135041727Y-139452057D02*
X135184584Y-139261580D01*
X135184584Y-139261580D02*
X135327442Y-139166342D01*
X135327442Y-139166342D02*
X135613156Y-139071104D01*
X135613156Y-139071104D02*
X135898870Y-139071104D01*
X138184585Y-140404438D02*
X138184585Y-139356819D01*
X138184585Y-139356819D02*
X138041727Y-139166342D01*
X138041727Y-139166342D02*
X137756013Y-139071104D01*
X137756013Y-139071104D02*
X137184585Y-139071104D01*
X137184585Y-139071104D02*
X136898870Y-139166342D01*
X138184585Y-140309200D02*
X137898870Y-140404438D01*
X137898870Y-140404438D02*
X137184585Y-140404438D01*
X137184585Y-140404438D02*
X136898870Y-140309200D01*
X136898870Y-140309200D02*
X136756013Y-140118723D01*
X136756013Y-140118723D02*
X136756013Y-139928247D01*
X136756013Y-139928247D02*
X136898870Y-139737771D01*
X136898870Y-139737771D02*
X137184585Y-139642533D01*
X137184585Y-139642533D02*
X137898870Y-139642533D01*
X137898870Y-139642533D02*
X138184585Y-139547295D01*
X140898871Y-139071104D02*
X140898871Y-140404438D01*
X139613156Y-139071104D02*
X139613156Y-140118723D01*
X139613156Y-140118723D02*
X139756013Y-140309200D01*
X139756013Y-140309200D02*
X140041728Y-140404438D01*
X140041728Y-140404438D02*
X140470299Y-140404438D01*
X140470299Y-140404438D02*
X140756013Y-140309200D01*
X140756013Y-140309200D02*
X140898871Y-140213961D01*
X143613157Y-140404438D02*
X143613157Y-138404438D01*
X143613157Y-140309200D02*
X143327442Y-140404438D01*
X143327442Y-140404438D02*
X142756014Y-140404438D01*
X142756014Y-140404438D02*
X142470299Y-140309200D01*
X142470299Y-140309200D02*
X142327442Y-140213961D01*
X142327442Y-140213961D02*
X142184585Y-140023485D01*
X142184585Y-140023485D02*
X142184585Y-139452057D01*
X142184585Y-139452057D02*
X142327442Y-139261580D01*
X142327442Y-139261580D02*
X142470299Y-139166342D01*
X142470299Y-139166342D02*
X142756014Y-139071104D01*
X142756014Y-139071104D02*
X143327442Y-139071104D01*
X143327442Y-139071104D02*
X143613157Y-139166342D01*
X146184585Y-140309200D02*
X145898871Y-140404438D01*
X145898871Y-140404438D02*
X145327443Y-140404438D01*
X145327443Y-140404438D02*
X145041728Y-140309200D01*
X145041728Y-140309200D02*
X144898871Y-140118723D01*
X144898871Y-140118723D02*
X144898871Y-139356819D01*
X144898871Y-139356819D02*
X145041728Y-139166342D01*
X145041728Y-139166342D02*
X145327443Y-139071104D01*
X145327443Y-139071104D02*
X145898871Y-139071104D01*
X145898871Y-139071104D02*
X146184585Y-139166342D01*
X146184585Y-139166342D02*
X146327443Y-139356819D01*
X146327443Y-139356819D02*
X146327443Y-139547295D01*
X146327443Y-139547295D02*
X144898871Y-139737771D01*
X147613157Y-140404438D02*
X147613157Y-139071104D01*
X147613157Y-139452057D02*
X147756014Y-139261580D01*
X147756014Y-139261580D02*
X147898872Y-139166342D01*
X147898872Y-139166342D02*
X148184586Y-139071104D01*
X148184586Y-139071104D02*
X148470300Y-139071104D01*
D11*
X143548244Y-142870552D02*
X143548244Y-143537219D01*
X143119673Y-142870552D02*
X143119673Y-143394361D01*
X143119673Y-143394361D02*
X143167292Y-143489600D01*
X143167292Y-143489600D02*
X143262530Y-143537219D01*
X143262530Y-143537219D02*
X143405387Y-143537219D01*
X143405387Y-143537219D02*
X143500625Y-143489600D01*
X143500625Y-143489600D02*
X143548244Y-143441980D01*
X144024435Y-142870552D02*
X144024435Y-143537219D01*
X144024435Y-142965790D02*
X144072054Y-142918171D01*
X144072054Y-142918171D02*
X144167292Y-142870552D01*
X144167292Y-142870552D02*
X144310149Y-142870552D01*
X144310149Y-142870552D02*
X144405387Y-142918171D01*
X144405387Y-142918171D02*
X144453006Y-143013409D01*
X144453006Y-143013409D02*
X144453006Y-143537219D01*
X145357768Y-142870552D02*
X145357768Y-143537219D01*
X145119673Y-142489600D02*
X144881578Y-143203885D01*
X144881578Y-143203885D02*
X145500625Y-143203885D01*
X146310149Y-143489600D02*
X146214911Y-143537219D01*
X146214911Y-143537219D02*
X146024435Y-143537219D01*
X146024435Y-143537219D02*
X145929197Y-143489600D01*
X145929197Y-143489600D02*
X145881578Y-143441980D01*
X145881578Y-143441980D02*
X145833959Y-143346742D01*
X145833959Y-143346742D02*
X145833959Y-143061028D01*
X145833959Y-143061028D02*
X145881578Y-142965790D01*
X145881578Y-142965790D02*
X145929197Y-142918171D01*
X145929197Y-142918171D02*
X146024435Y-142870552D01*
X146024435Y-142870552D02*
X146214911Y-142870552D01*
X146214911Y-142870552D02*
X146310149Y-142918171D01*
X146738721Y-143537219D02*
X146738721Y-142537219D01*
X146833959Y-143156266D02*
X147119673Y-143537219D01*
X147119673Y-142870552D02*
X146738721Y-143251504D01*
X147548245Y-142870552D02*
X147548245Y-143537219D01*
X147548245Y-142965790D02*
X147595864Y-142918171D01*
X147595864Y-142918171D02*
X147691102Y-142870552D01*
X147691102Y-142870552D02*
X147833959Y-142870552D01*
X147833959Y-142870552D02*
X147929197Y-142918171D01*
X147929197Y-142918171D02*
X147976816Y-143013409D01*
X147976816Y-143013409D02*
X147976816Y-143537219D01*
X148643483Y-142537219D02*
X148738721Y-142537219D01*
X148738721Y-142537219D02*
X148833959Y-142584838D01*
X148833959Y-142584838D02*
X148881578Y-142632457D01*
X148881578Y-142632457D02*
X148929197Y-142727695D01*
X148929197Y-142727695D02*
X148976816Y-142918171D01*
X148976816Y-142918171D02*
X148976816Y-143156266D01*
X148976816Y-143156266D02*
X148929197Y-143346742D01*
X148929197Y-143346742D02*
X148881578Y-143441980D01*
X148881578Y-143441980D02*
X148833959Y-143489600D01*
X148833959Y-143489600D02*
X148738721Y-143537219D01*
X148738721Y-143537219D02*
X148643483Y-143537219D01*
X148643483Y-143537219D02*
X148548245Y-143489600D01*
X148548245Y-143489600D02*
X148500626Y-143441980D01*
X148500626Y-143441980D02*
X148453007Y-143346742D01*
X148453007Y-143346742D02*
X148405388Y-143156266D01*
X148405388Y-143156266D02*
X148405388Y-142918171D01*
X148405388Y-142918171D02*
X148453007Y-142727695D01*
X148453007Y-142727695D02*
X148500626Y-142632457D01*
X148500626Y-142632457D02*
X148548245Y-142584838D01*
X148548245Y-142584838D02*
X148643483Y-142537219D01*
X149310150Y-142870552D02*
X149500626Y-143537219D01*
X149500626Y-143537219D02*
X149691102Y-143061028D01*
X149691102Y-143061028D02*
X149881578Y-143537219D01*
X149881578Y-143537219D02*
X150072054Y-142870552D01*
X150595864Y-143537219D02*
X150500626Y-143489600D01*
X150500626Y-143489600D02*
X150453007Y-143394361D01*
X150453007Y-143394361D02*
X150453007Y-142537219D01*
X150881579Y-142537219D02*
X151500626Y-142537219D01*
X151500626Y-142537219D02*
X151167293Y-142918171D01*
X151167293Y-142918171D02*
X151310150Y-142918171D01*
X151310150Y-142918171D02*
X151405388Y-142965790D01*
X151405388Y-142965790D02*
X151453007Y-143013409D01*
X151453007Y-143013409D02*
X151500626Y-143108647D01*
X151500626Y-143108647D02*
X151500626Y-143346742D01*
X151500626Y-143346742D02*
X151453007Y-143441980D01*
X151453007Y-143441980D02*
X151405388Y-143489600D01*
X151405388Y-143489600D02*
X151310150Y-143537219D01*
X151310150Y-143537219D02*
X151024436Y-143537219D01*
X151024436Y-143537219D02*
X150929198Y-143489600D01*
X150929198Y-143489600D02*
X150881579Y-143441980D01*
X151833960Y-142870552D02*
X152357769Y-142870552D01*
X152357769Y-142870552D02*
X151833960Y-143537219D01*
X151833960Y-143537219D02*
X152357769Y-143537219D01*
X151291101Y-140737219D02*
X150957768Y-140261028D01*
X150719673Y-140737219D02*
X150719673Y-139737219D01*
X150719673Y-139737219D02*
X151100625Y-139737219D01*
X151100625Y-139737219D02*
X151195863Y-139784838D01*
X151195863Y-139784838D02*
X151243482Y-139832457D01*
X151243482Y-139832457D02*
X151291101Y-139927695D01*
X151291101Y-139927695D02*
X151291101Y-140070552D01*
X151291101Y-140070552D02*
X151243482Y-140165790D01*
X151243482Y-140165790D02*
X151195863Y-140213409D01*
X151195863Y-140213409D02*
X151100625Y-140261028D01*
X151100625Y-140261028D02*
X150719673Y-140261028D01*
X151719673Y-140213409D02*
X152053006Y-140213409D01*
X152195863Y-140737219D02*
X151719673Y-140737219D01*
X151719673Y-140737219D02*
X151719673Y-139737219D01*
X151719673Y-139737219D02*
X152195863Y-139737219D01*
X152481578Y-139737219D02*
X152814911Y-140737219D01*
X152814911Y-140737219D02*
X153148244Y-139737219D01*
X154148245Y-139737219D02*
X154767292Y-139737219D01*
X154767292Y-139737219D02*
X154433959Y-140118171D01*
X154433959Y-140118171D02*
X154576816Y-140118171D01*
X154576816Y-140118171D02*
X154672054Y-140165790D01*
X154672054Y-140165790D02*
X154719673Y-140213409D01*
X154719673Y-140213409D02*
X154767292Y-140308647D01*
X154767292Y-140308647D02*
X154767292Y-140546742D01*
X154767292Y-140546742D02*
X154719673Y-140641980D01*
X154719673Y-140641980D02*
X154672054Y-140689600D01*
X154672054Y-140689600D02*
X154576816Y-140737219D01*
X154576816Y-140737219D02*
X154291102Y-140737219D01*
X154291102Y-140737219D02*
X154195864Y-140689600D01*
X154195864Y-140689600D02*
X154148245Y-140641980D01*
D12*
X121487217Y-143018609D02*
X121153884Y-143018609D01*
X121153884Y-143542419D02*
X121153884Y-142542419D01*
X121153884Y-142542419D02*
X121630074Y-142542419D01*
X122011027Y-143542419D02*
X122011027Y-142875752D01*
X122011027Y-142542419D02*
X121963408Y-142590038D01*
X121963408Y-142590038D02*
X122011027Y-142637657D01*
X122011027Y-142637657D02*
X122058646Y-142590038D01*
X122058646Y-142590038D02*
X122011027Y-142542419D01*
X122011027Y-142542419D02*
X122011027Y-142637657D01*
X122487217Y-143542419D02*
X122487217Y-142875752D01*
X122487217Y-143066228D02*
X122534836Y-142970990D01*
X122534836Y-142970990D02*
X122582455Y-142923371D01*
X122582455Y-142923371D02*
X122677693Y-142875752D01*
X122677693Y-142875752D02*
X122772931Y-142875752D01*
X123106265Y-143542419D02*
X123106265Y-142875752D01*
X123106265Y-142970990D02*
X123153884Y-142923371D01*
X123153884Y-142923371D02*
X123249122Y-142875752D01*
X123249122Y-142875752D02*
X123391979Y-142875752D01*
X123391979Y-142875752D02*
X123487217Y-142923371D01*
X123487217Y-142923371D02*
X123534836Y-143018609D01*
X123534836Y-143018609D02*
X123534836Y-143542419D01*
X123534836Y-143018609D02*
X123582455Y-142923371D01*
X123582455Y-142923371D02*
X123677693Y-142875752D01*
X123677693Y-142875752D02*
X123820550Y-142875752D01*
X123820550Y-142875752D02*
X123915789Y-142923371D01*
X123915789Y-142923371D02*
X123963408Y-143018609D01*
X123963408Y-143018609D02*
X123963408Y-143542419D01*
X124344360Y-142875752D02*
X124534836Y-143542419D01*
X124534836Y-143542419D02*
X124725312Y-143066228D01*
X124725312Y-143066228D02*
X124915788Y-143542419D01*
X124915788Y-143542419D02*
X125106264Y-142875752D01*
X125915788Y-143542419D02*
X125915788Y-143018609D01*
X125915788Y-143018609D02*
X125868169Y-142923371D01*
X125868169Y-142923371D02*
X125772931Y-142875752D01*
X125772931Y-142875752D02*
X125582455Y-142875752D01*
X125582455Y-142875752D02*
X125487217Y-142923371D01*
X125915788Y-143494800D02*
X125820550Y-143542419D01*
X125820550Y-143542419D02*
X125582455Y-143542419D01*
X125582455Y-143542419D02*
X125487217Y-143494800D01*
X125487217Y-143494800D02*
X125439598Y-143399561D01*
X125439598Y-143399561D02*
X125439598Y-143304323D01*
X125439598Y-143304323D02*
X125487217Y-143209085D01*
X125487217Y-143209085D02*
X125582455Y-143161466D01*
X125582455Y-143161466D02*
X125820550Y-143161466D01*
X125820550Y-143161466D02*
X125915788Y-143113847D01*
X126391979Y-143542419D02*
X126391979Y-142875752D01*
X126391979Y-143066228D02*
X126439598Y-142970990D01*
X126439598Y-142970990D02*
X126487217Y-142923371D01*
X126487217Y-142923371D02*
X126582455Y-142875752D01*
X126582455Y-142875752D02*
X126677693Y-142875752D01*
X127391979Y-143494800D02*
X127296741Y-143542419D01*
X127296741Y-143542419D02*
X127106265Y-143542419D01*
X127106265Y-143542419D02*
X127011027Y-143494800D01*
X127011027Y-143494800D02*
X126963408Y-143399561D01*
X126963408Y-143399561D02*
X126963408Y-143018609D01*
X126963408Y-143018609D02*
X127011027Y-142923371D01*
X127011027Y-142923371D02*
X127106265Y-142875752D01*
X127106265Y-142875752D02*
X127296741Y-142875752D01*
X127296741Y-142875752D02*
X127391979Y-142923371D01*
X127391979Y-142923371D02*
X127439598Y-143018609D01*
X127439598Y-143018609D02*
X127439598Y-143113847D01*
X127439598Y-143113847D02*
X126963408Y-143209085D01*
X129058646Y-143542419D02*
X129058646Y-143018609D01*
X129058646Y-143018609D02*
X129011027Y-142923371D01*
X129011027Y-142923371D02*
X128915789Y-142875752D01*
X128915789Y-142875752D02*
X128725313Y-142875752D01*
X128725313Y-142875752D02*
X128630075Y-142923371D01*
X129058646Y-143494800D02*
X128963408Y-143542419D01*
X128963408Y-143542419D02*
X128725313Y-143542419D01*
X128725313Y-143542419D02*
X128630075Y-143494800D01*
X128630075Y-143494800D02*
X128582456Y-143399561D01*
X128582456Y-143399561D02*
X128582456Y-143304323D01*
X128582456Y-143304323D02*
X128630075Y-143209085D01*
X128630075Y-143209085D02*
X128725313Y-143161466D01*
X128725313Y-143161466D02*
X128963408Y-143161466D01*
X128963408Y-143161466D02*
X129058646Y-143113847D01*
X129534837Y-142875752D02*
X129534837Y-143542419D01*
X129534837Y-142970990D02*
X129582456Y-142923371D01*
X129582456Y-142923371D02*
X129677694Y-142875752D01*
X129677694Y-142875752D02*
X129820551Y-142875752D01*
X129820551Y-142875752D02*
X129915789Y-142923371D01*
X129915789Y-142923371D02*
X129963408Y-143018609D01*
X129963408Y-143018609D02*
X129963408Y-143542419D01*
X130868170Y-143542419D02*
X130868170Y-142542419D01*
X130868170Y-143494800D02*
X130772932Y-143542419D01*
X130772932Y-143542419D02*
X130582456Y-143542419D01*
X130582456Y-143542419D02*
X130487218Y-143494800D01*
X130487218Y-143494800D02*
X130439599Y-143447180D01*
X130439599Y-143447180D02*
X130391980Y-143351942D01*
X130391980Y-143351942D02*
X130391980Y-143066228D01*
X130391980Y-143066228D02*
X130439599Y-142970990D01*
X130439599Y-142970990D02*
X130487218Y-142923371D01*
X130487218Y-142923371D02*
X130582456Y-142875752D01*
X130582456Y-142875752D02*
X130772932Y-142875752D01*
X130772932Y-142875752D02*
X130868170Y-142923371D01*
X132106266Y-143542419D02*
X132106266Y-142542419D01*
X132106266Y-143018609D02*
X132677694Y-143018609D01*
X132677694Y-143542419D02*
X132677694Y-142542419D01*
X133582456Y-143542419D02*
X133582456Y-143018609D01*
X133582456Y-143018609D02*
X133534837Y-142923371D01*
X133534837Y-142923371D02*
X133439599Y-142875752D01*
X133439599Y-142875752D02*
X133249123Y-142875752D01*
X133249123Y-142875752D02*
X133153885Y-142923371D01*
X133582456Y-143494800D02*
X133487218Y-143542419D01*
X133487218Y-143542419D02*
X133249123Y-143542419D01*
X133249123Y-143542419D02*
X133153885Y-143494800D01*
X133153885Y-143494800D02*
X133106266Y-143399561D01*
X133106266Y-143399561D02*
X133106266Y-143304323D01*
X133106266Y-143304323D02*
X133153885Y-143209085D01*
X133153885Y-143209085D02*
X133249123Y-143161466D01*
X133249123Y-143161466D02*
X133487218Y-143161466D01*
X133487218Y-143161466D02*
X133582456Y-143113847D01*
X134058647Y-143542419D02*
X134058647Y-142875752D01*
X134058647Y-143066228D02*
X134106266Y-142970990D01*
X134106266Y-142970990D02*
X134153885Y-142923371D01*
X134153885Y-142923371D02*
X134249123Y-142875752D01*
X134249123Y-142875752D02*
X134344361Y-142875752D01*
X135106266Y-143542419D02*
X135106266Y-142542419D01*
X135106266Y-143494800D02*
X135011028Y-143542419D01*
X135011028Y-143542419D02*
X134820552Y-143542419D01*
X134820552Y-143542419D02*
X134725314Y-143494800D01*
X134725314Y-143494800D02*
X134677695Y-143447180D01*
X134677695Y-143447180D02*
X134630076Y-143351942D01*
X134630076Y-143351942D02*
X134630076Y-143066228D01*
X134630076Y-143066228D02*
X134677695Y-142970990D01*
X134677695Y-142970990D02*
X134725314Y-142923371D01*
X134725314Y-142923371D02*
X134820552Y-142875752D01*
X134820552Y-142875752D02*
X135011028Y-142875752D01*
X135011028Y-142875752D02*
X135106266Y-142923371D01*
X135487219Y-142875752D02*
X135677695Y-143542419D01*
X135677695Y-143542419D02*
X135868171Y-143066228D01*
X135868171Y-143066228D02*
X136058647Y-143542419D01*
X136058647Y-143542419D02*
X136249123Y-142875752D01*
X137058647Y-143542419D02*
X137058647Y-143018609D01*
X137058647Y-143018609D02*
X137011028Y-142923371D01*
X137011028Y-142923371D02*
X136915790Y-142875752D01*
X136915790Y-142875752D02*
X136725314Y-142875752D01*
X136725314Y-142875752D02*
X136630076Y-142923371D01*
X137058647Y-143494800D02*
X136963409Y-143542419D01*
X136963409Y-143542419D02*
X136725314Y-143542419D01*
X136725314Y-143542419D02*
X136630076Y-143494800D01*
X136630076Y-143494800D02*
X136582457Y-143399561D01*
X136582457Y-143399561D02*
X136582457Y-143304323D01*
X136582457Y-143304323D02*
X136630076Y-143209085D01*
X136630076Y-143209085D02*
X136725314Y-143161466D01*
X136725314Y-143161466D02*
X136963409Y-143161466D01*
X136963409Y-143161466D02*
X137058647Y-143113847D01*
X137534838Y-143542419D02*
X137534838Y-142875752D01*
X137534838Y-143066228D02*
X137582457Y-142970990D01*
X137582457Y-142970990D02*
X137630076Y-142923371D01*
X137630076Y-142923371D02*
X137725314Y-142875752D01*
X137725314Y-142875752D02*
X137820552Y-142875752D01*
X138534838Y-143494800D02*
X138439600Y-143542419D01*
X138439600Y-143542419D02*
X138249124Y-143542419D01*
X138249124Y-143542419D02*
X138153886Y-143494800D01*
X138153886Y-143494800D02*
X138106267Y-143399561D01*
X138106267Y-143399561D02*
X138106267Y-143018609D01*
X138106267Y-143018609D02*
X138153886Y-142923371D01*
X138153886Y-142923371D02*
X138249124Y-142875752D01*
X138249124Y-142875752D02*
X138439600Y-142875752D01*
X138439600Y-142875752D02*
X138534838Y-142923371D01*
X138534838Y-142923371D02*
X138582457Y-143018609D01*
X138582457Y-143018609D02*
X138582457Y-143113847D01*
X138582457Y-143113847D02*
X138106267Y-143209085D01*
X139772934Y-143542419D02*
X139772934Y-142542419D01*
X139772934Y-142923371D02*
X139868172Y-142875752D01*
X139868172Y-142875752D02*
X140058648Y-142875752D01*
X140058648Y-142875752D02*
X140153886Y-142923371D01*
X140153886Y-142923371D02*
X140201505Y-142970990D01*
X140201505Y-142970990D02*
X140249124Y-143066228D01*
X140249124Y-143066228D02*
X140249124Y-143351942D01*
X140249124Y-143351942D02*
X140201505Y-143447180D01*
X140201505Y-143447180D02*
X140153886Y-143494800D01*
X140153886Y-143494800D02*
X140058648Y-143542419D01*
X140058648Y-143542419D02*
X139868172Y-143542419D01*
X139868172Y-143542419D02*
X139772934Y-143494800D01*
X140582458Y-142875752D02*
X140820553Y-143542419D01*
X141058648Y-142875752D02*
X140820553Y-143542419D01*
X140820553Y-143542419D02*
X140725315Y-143780514D01*
X140725315Y-143780514D02*
X140677696Y-143828133D01*
X140677696Y-143828133D02*
X140582458Y-143875752D01*
D13*
X155616667Y-96227200D02*
X155759524Y-96274819D01*
X155759524Y-96274819D02*
X155997619Y-96274819D01*
X155997619Y-96274819D02*
X156092857Y-96227200D01*
X156092857Y-96227200D02*
X156140476Y-96179580D01*
X156140476Y-96179580D02*
X156188095Y-96084342D01*
X156188095Y-96084342D02*
X156188095Y-95989104D01*
X156188095Y-95989104D02*
X156140476Y-95893866D01*
X156140476Y-95893866D02*
X156092857Y-95846247D01*
X156092857Y-95846247D02*
X155997619Y-95798628D01*
X155997619Y-95798628D02*
X155807143Y-95751009D01*
X155807143Y-95751009D02*
X155711905Y-95703390D01*
X155711905Y-95703390D02*
X155664286Y-95655771D01*
X155664286Y-95655771D02*
X155616667Y-95560533D01*
X155616667Y-95560533D02*
X155616667Y-95465295D01*
X155616667Y-95465295D02*
X155664286Y-95370057D01*
X155664286Y-95370057D02*
X155711905Y-95322438D01*
X155711905Y-95322438D02*
X155807143Y-95274819D01*
X155807143Y-95274819D02*
X156045238Y-95274819D01*
X156045238Y-95274819D02*
X156188095Y-95322438D01*
X156521429Y-95274819D02*
X156759524Y-96274819D01*
X156759524Y-96274819D02*
X156950000Y-95560533D01*
X156950000Y-95560533D02*
X157140476Y-96274819D01*
X157140476Y-96274819D02*
X157378572Y-95274819D01*
X157711905Y-95370057D02*
X157759524Y-95322438D01*
X157759524Y-95322438D02*
X157854762Y-95274819D01*
X157854762Y-95274819D02*
X158092857Y-95274819D01*
X158092857Y-95274819D02*
X158188095Y-95322438D01*
X158188095Y-95322438D02*
X158235714Y-95370057D01*
X158235714Y-95370057D02*
X158283333Y-95465295D01*
X158283333Y-95465295D02*
X158283333Y-95560533D01*
X158283333Y-95560533D02*
X158235714Y-95703390D01*
X158235714Y-95703390D02*
X157664286Y-96274819D01*
X157664286Y-96274819D02*
X158283333Y-96274819D01*
X171583333Y-97854819D02*
X171250000Y-97378628D01*
X171011905Y-97854819D02*
X171011905Y-96854819D01*
X171011905Y-96854819D02*
X171392857Y-96854819D01*
X171392857Y-96854819D02*
X171488095Y-96902438D01*
X171488095Y-96902438D02*
X171535714Y-96950057D01*
X171535714Y-96950057D02*
X171583333Y-97045295D01*
X171583333Y-97045295D02*
X171583333Y-97188152D01*
X171583333Y-97188152D02*
X171535714Y-97283390D01*
X171535714Y-97283390D02*
X171488095Y-97331009D01*
X171488095Y-97331009D02*
X171392857Y-97378628D01*
X171392857Y-97378628D02*
X171011905Y-97378628D01*
X171964286Y-96950057D02*
X172011905Y-96902438D01*
X172011905Y-96902438D02*
X172107143Y-96854819D01*
X172107143Y-96854819D02*
X172345238Y-96854819D01*
X172345238Y-96854819D02*
X172440476Y-96902438D01*
X172440476Y-96902438D02*
X172488095Y-96950057D01*
X172488095Y-96950057D02*
X172535714Y-97045295D01*
X172535714Y-97045295D02*
X172535714Y-97140533D01*
X172535714Y-97140533D02*
X172488095Y-97283390D01*
X172488095Y-97283390D02*
X171916667Y-97854819D01*
X171916667Y-97854819D02*
X172535714Y-97854819D01*
X124954819Y-86693333D02*
X125669104Y-86693333D01*
X125669104Y-86693333D02*
X125811961Y-86740952D01*
X125811961Y-86740952D02*
X125907200Y-86836190D01*
X125907200Y-86836190D02*
X125954819Y-86979047D01*
X125954819Y-86979047D02*
X125954819Y-87074285D01*
X125954819Y-85693333D02*
X125954819Y-86264761D01*
X125954819Y-85979047D02*
X124954819Y-85979047D01*
X124954819Y-85979047D02*
X125097676Y-86074285D01*
X125097676Y-86074285D02*
X125192914Y-86169523D01*
X125192914Y-86169523D02*
X125240533Y-86264761D01*
X171583333Y-129554819D02*
X171250000Y-129078628D01*
X171011905Y-129554819D02*
X171011905Y-128554819D01*
X171011905Y-128554819D02*
X171392857Y-128554819D01*
X171392857Y-128554819D02*
X171488095Y-128602438D01*
X171488095Y-128602438D02*
X171535714Y-128650057D01*
X171535714Y-128650057D02*
X171583333Y-128745295D01*
X171583333Y-128745295D02*
X171583333Y-128888152D01*
X171583333Y-128888152D02*
X171535714Y-128983390D01*
X171535714Y-128983390D02*
X171488095Y-129031009D01*
X171488095Y-129031009D02*
X171392857Y-129078628D01*
X171392857Y-129078628D02*
X171011905Y-129078628D01*
X171916667Y-128554819D02*
X172535714Y-128554819D01*
X172535714Y-128554819D02*
X172202381Y-128935771D01*
X172202381Y-128935771D02*
X172345238Y-128935771D01*
X172345238Y-128935771D02*
X172440476Y-128983390D01*
X172440476Y-128983390D02*
X172488095Y-129031009D01*
X172488095Y-129031009D02*
X172535714Y-129126247D01*
X172535714Y-129126247D02*
X172535714Y-129364342D01*
X172535714Y-129364342D02*
X172488095Y-129459580D01*
X172488095Y-129459580D02*
X172440476Y-129507200D01*
X172440476Y-129507200D02*
X172345238Y-129554819D01*
X172345238Y-129554819D02*
X172059524Y-129554819D01*
X172059524Y-129554819D02*
X171964286Y-129507200D01*
X171964286Y-129507200D02*
X171916667Y-129459580D01*
X123763095Y-94667319D02*
X123763095Y-95476842D01*
X123763095Y-95476842D02*
X123810714Y-95572080D01*
X123810714Y-95572080D02*
X123858333Y-95619700D01*
X123858333Y-95619700D02*
X123953571Y-95667319D01*
X123953571Y-95667319D02*
X124144047Y-95667319D01*
X124144047Y-95667319D02*
X124239285Y-95619700D01*
X124239285Y-95619700D02*
X124286904Y-95572080D01*
X124286904Y-95572080D02*
X124334523Y-95476842D01*
X124334523Y-95476842D02*
X124334523Y-94667319D01*
X124763095Y-94762557D02*
X124810714Y-94714938D01*
X124810714Y-94714938D02*
X124905952Y-94667319D01*
X124905952Y-94667319D02*
X125144047Y-94667319D01*
X125144047Y-94667319D02*
X125239285Y-94714938D01*
X125239285Y-94714938D02*
X125286904Y-94762557D01*
X125286904Y-94762557D02*
X125334523Y-94857795D01*
X125334523Y-94857795D02*
X125334523Y-94953033D01*
X125334523Y-94953033D02*
X125286904Y-95095890D01*
X125286904Y-95095890D02*
X124715476Y-95667319D01*
X124715476Y-95667319D02*
X125334523Y-95667319D01*
X155616667Y-112327200D02*
X155759524Y-112374819D01*
X155759524Y-112374819D02*
X155997619Y-112374819D01*
X155997619Y-112374819D02*
X156092857Y-112327200D01*
X156092857Y-112327200D02*
X156140476Y-112279580D01*
X156140476Y-112279580D02*
X156188095Y-112184342D01*
X156188095Y-112184342D02*
X156188095Y-112089104D01*
X156188095Y-112089104D02*
X156140476Y-111993866D01*
X156140476Y-111993866D02*
X156092857Y-111946247D01*
X156092857Y-111946247D02*
X155997619Y-111898628D01*
X155997619Y-111898628D02*
X155807143Y-111851009D01*
X155807143Y-111851009D02*
X155711905Y-111803390D01*
X155711905Y-111803390D02*
X155664286Y-111755771D01*
X155664286Y-111755771D02*
X155616667Y-111660533D01*
X155616667Y-111660533D02*
X155616667Y-111565295D01*
X155616667Y-111565295D02*
X155664286Y-111470057D01*
X155664286Y-111470057D02*
X155711905Y-111422438D01*
X155711905Y-111422438D02*
X155807143Y-111374819D01*
X155807143Y-111374819D02*
X156045238Y-111374819D01*
X156045238Y-111374819D02*
X156188095Y-111422438D01*
X156521429Y-111374819D02*
X156759524Y-112374819D01*
X156759524Y-112374819D02*
X156950000Y-111660533D01*
X156950000Y-111660533D02*
X157140476Y-112374819D01*
X157140476Y-112374819D02*
X157378572Y-111374819D01*
X158283333Y-112374819D02*
X157711905Y-112374819D01*
X157997619Y-112374819D02*
X157997619Y-111374819D01*
X157997619Y-111374819D02*
X157902381Y-111517676D01*
X157902381Y-111517676D02*
X157807143Y-111612914D01*
X157807143Y-111612914D02*
X157711905Y-111660533D01*
X155616667Y-127527200D02*
X155759524Y-127574819D01*
X155759524Y-127574819D02*
X155997619Y-127574819D01*
X155997619Y-127574819D02*
X156092857Y-127527200D01*
X156092857Y-127527200D02*
X156140476Y-127479580D01*
X156140476Y-127479580D02*
X156188095Y-127384342D01*
X156188095Y-127384342D02*
X156188095Y-127289104D01*
X156188095Y-127289104D02*
X156140476Y-127193866D01*
X156140476Y-127193866D02*
X156092857Y-127146247D01*
X156092857Y-127146247D02*
X155997619Y-127098628D01*
X155997619Y-127098628D02*
X155807143Y-127051009D01*
X155807143Y-127051009D02*
X155711905Y-127003390D01*
X155711905Y-127003390D02*
X155664286Y-126955771D01*
X155664286Y-126955771D02*
X155616667Y-126860533D01*
X155616667Y-126860533D02*
X155616667Y-126765295D01*
X155616667Y-126765295D02*
X155664286Y-126670057D01*
X155664286Y-126670057D02*
X155711905Y-126622438D01*
X155711905Y-126622438D02*
X155807143Y-126574819D01*
X155807143Y-126574819D02*
X156045238Y-126574819D01*
X156045238Y-126574819D02*
X156188095Y-126622438D01*
X156521429Y-126574819D02*
X156759524Y-127574819D01*
X156759524Y-127574819D02*
X156950000Y-126860533D01*
X156950000Y-126860533D02*
X157140476Y-127574819D01*
X157140476Y-127574819D02*
X157378572Y-126574819D01*
X157664286Y-126574819D02*
X158283333Y-126574819D01*
X158283333Y-126574819D02*
X157950000Y-126955771D01*
X157950000Y-126955771D02*
X158092857Y-126955771D01*
X158092857Y-126955771D02*
X158188095Y-127003390D01*
X158188095Y-127003390D02*
X158235714Y-127051009D01*
X158235714Y-127051009D02*
X158283333Y-127146247D01*
X158283333Y-127146247D02*
X158283333Y-127384342D01*
X158283333Y-127384342D02*
X158235714Y-127479580D01*
X158235714Y-127479580D02*
X158188095Y-127527200D01*
X158188095Y-127527200D02*
X158092857Y-127574819D01*
X158092857Y-127574819D02*
X157807143Y-127574819D01*
X157807143Y-127574819D02*
X157711905Y-127527200D01*
X157711905Y-127527200D02*
X157664286Y-127479580D01*
X125360129Y-65161904D02*
X126169652Y-65161904D01*
X126169652Y-65161904D02*
X126264890Y-65114285D01*
X126264890Y-65114285D02*
X126312510Y-65066666D01*
X126312510Y-65066666D02*
X126360129Y-64971428D01*
X126360129Y-64971428D02*
X126360129Y-64780952D01*
X126360129Y-64780952D02*
X126312510Y-64685714D01*
X126312510Y-64685714D02*
X126264890Y-64638095D01*
X126264890Y-64638095D02*
X126169652Y-64590476D01*
X126169652Y-64590476D02*
X125360129Y-64590476D01*
X126360129Y-63590476D02*
X126360129Y-64161904D01*
X126360129Y-63876190D02*
X125360129Y-63876190D01*
X125360129Y-63876190D02*
X125502986Y-63971428D01*
X125502986Y-63971428D02*
X125598224Y-64066666D01*
X125598224Y-64066666D02*
X125645843Y-64161904D01*
X146540072Y-64331009D02*
X146873405Y-64331009D01*
X147016262Y-64854819D02*
X146540072Y-64854819D01*
X146540072Y-64854819D02*
X146540072Y-63854819D01*
X146540072Y-63854819D02*
X147016262Y-63854819D01*
X147397215Y-64807200D02*
X147540072Y-64854819D01*
X147540072Y-64854819D02*
X147778167Y-64854819D01*
X147778167Y-64854819D02*
X147873405Y-64807200D01*
X147873405Y-64807200D02*
X147921024Y-64759580D01*
X147921024Y-64759580D02*
X147968643Y-64664342D01*
X147968643Y-64664342D02*
X147968643Y-64569104D01*
X147968643Y-64569104D02*
X147921024Y-64473866D01*
X147921024Y-64473866D02*
X147873405Y-64426247D01*
X147873405Y-64426247D02*
X147778167Y-64378628D01*
X147778167Y-64378628D02*
X147587691Y-64331009D01*
X147587691Y-64331009D02*
X147492453Y-64283390D01*
X147492453Y-64283390D02*
X147444834Y-64235771D01*
X147444834Y-64235771D02*
X147397215Y-64140533D01*
X147397215Y-64140533D02*
X147397215Y-64045295D01*
X147397215Y-64045295D02*
X147444834Y-63950057D01*
X147444834Y-63950057D02*
X147492453Y-63902438D01*
X147492453Y-63902438D02*
X147587691Y-63854819D01*
X147587691Y-63854819D02*
X147825786Y-63854819D01*
X147825786Y-63854819D02*
X147968643Y-63902438D01*
X148397215Y-64854819D02*
X148397215Y-63854819D01*
X148397215Y-63854819D02*
X148778167Y-63854819D01*
X148778167Y-63854819D02*
X148873405Y-63902438D01*
X148873405Y-63902438D02*
X148921024Y-63950057D01*
X148921024Y-63950057D02*
X148968643Y-64045295D01*
X148968643Y-64045295D02*
X148968643Y-64188152D01*
X148968643Y-64188152D02*
X148921024Y-64283390D01*
X148921024Y-64283390D02*
X148873405Y-64331009D01*
X148873405Y-64331009D02*
X148778167Y-64378628D01*
X148778167Y-64378628D02*
X148397215Y-64378628D01*
X149301977Y-63854819D02*
X149921024Y-63854819D01*
X149921024Y-63854819D02*
X149587691Y-64235771D01*
X149587691Y-64235771D02*
X149730548Y-64235771D01*
X149730548Y-64235771D02*
X149825786Y-64283390D01*
X149825786Y-64283390D02*
X149873405Y-64331009D01*
X149873405Y-64331009D02*
X149921024Y-64426247D01*
X149921024Y-64426247D02*
X149921024Y-64664342D01*
X149921024Y-64664342D02*
X149873405Y-64759580D01*
X149873405Y-64759580D02*
X149825786Y-64807200D01*
X149825786Y-64807200D02*
X149730548Y-64854819D01*
X149730548Y-64854819D02*
X149444834Y-64854819D01*
X149444834Y-64854819D02*
X149349596Y-64807200D01*
X149349596Y-64807200D02*
X149301977Y-64759580D01*
X150301977Y-63950057D02*
X150349596Y-63902438D01*
X150349596Y-63902438D02*
X150444834Y-63854819D01*
X150444834Y-63854819D02*
X150682929Y-63854819D01*
X150682929Y-63854819D02*
X150778167Y-63902438D01*
X150778167Y-63902438D02*
X150825786Y-63950057D01*
X150825786Y-63950057D02*
X150873405Y-64045295D01*
X150873405Y-64045295D02*
X150873405Y-64140533D01*
X150873405Y-64140533D02*
X150825786Y-64283390D01*
X150825786Y-64283390D02*
X150254358Y-64854819D01*
X150254358Y-64854819D02*
X150873405Y-64854819D01*
X151301977Y-64473866D02*
X152063882Y-64473866D01*
X152540072Y-64854819D02*
X152540072Y-63854819D01*
X152540072Y-63854819D02*
X152778167Y-63854819D01*
X152778167Y-63854819D02*
X152921024Y-63902438D01*
X152921024Y-63902438D02*
X153016262Y-63997676D01*
X153016262Y-63997676D02*
X153063881Y-64092914D01*
X153063881Y-64092914D02*
X153111500Y-64283390D01*
X153111500Y-64283390D02*
X153111500Y-64426247D01*
X153111500Y-64426247D02*
X153063881Y-64616723D01*
X153063881Y-64616723D02*
X153016262Y-64711961D01*
X153016262Y-64711961D02*
X152921024Y-64807200D01*
X152921024Y-64807200D02*
X152778167Y-64854819D01*
X152778167Y-64854819D02*
X152540072Y-64854819D01*
X153921024Y-64807200D02*
X153825786Y-64854819D01*
X153825786Y-64854819D02*
X153635310Y-64854819D01*
X153635310Y-64854819D02*
X153540072Y-64807200D01*
X153540072Y-64807200D02*
X153492453Y-64711961D01*
X153492453Y-64711961D02*
X153492453Y-64331009D01*
X153492453Y-64331009D02*
X153540072Y-64235771D01*
X153540072Y-64235771D02*
X153635310Y-64188152D01*
X153635310Y-64188152D02*
X153825786Y-64188152D01*
X153825786Y-64188152D02*
X153921024Y-64235771D01*
X153921024Y-64235771D02*
X153968643Y-64331009D01*
X153968643Y-64331009D02*
X153968643Y-64426247D01*
X153968643Y-64426247D02*
X153492453Y-64521485D01*
X154301977Y-64188152D02*
X154540072Y-64854819D01*
X154540072Y-64854819D02*
X154778167Y-64188152D01*
X155159120Y-64854819D02*
X155159120Y-63854819D01*
X155730548Y-64854819D02*
X155301977Y-64283390D01*
X155730548Y-63854819D02*
X155159120Y-64426247D01*
X156159120Y-64854819D02*
X156159120Y-64188152D01*
X156159120Y-63854819D02*
X156111501Y-63902438D01*
X156111501Y-63902438D02*
X156159120Y-63950057D01*
X156159120Y-63950057D02*
X156206739Y-63902438D01*
X156206739Y-63902438D02*
X156159120Y-63854819D01*
X156159120Y-63854819D02*
X156159120Y-63950057D01*
X156492453Y-64188152D02*
X156873405Y-64188152D01*
X156635310Y-63854819D02*
X156635310Y-64711961D01*
X156635310Y-64711961D02*
X156682929Y-64807200D01*
X156682929Y-64807200D02*
X156778167Y-64854819D01*
X156778167Y-64854819D02*
X156873405Y-64854819D01*
X157778167Y-64759580D02*
X157730548Y-64807200D01*
X157730548Y-64807200D02*
X157587691Y-64854819D01*
X157587691Y-64854819D02*
X157492453Y-64854819D01*
X157492453Y-64854819D02*
X157349596Y-64807200D01*
X157349596Y-64807200D02*
X157254358Y-64711961D01*
X157254358Y-64711961D02*
X157206739Y-64616723D01*
X157206739Y-64616723D02*
X157159120Y-64426247D01*
X157159120Y-64426247D02*
X157159120Y-64283390D01*
X157159120Y-64283390D02*
X157206739Y-64092914D01*
X157206739Y-64092914D02*
X157254358Y-63997676D01*
X157254358Y-63997676D02*
X157349596Y-63902438D01*
X157349596Y-63902438D02*
X157492453Y-63854819D01*
X157492453Y-63854819D02*
X157587691Y-63854819D01*
X157587691Y-63854819D02*
X157730548Y-63902438D01*
X157730548Y-63902438D02*
X157778167Y-63950057D01*
X135274676Y-59702016D02*
X135241343Y-59768683D01*
X135241343Y-59768683D02*
X135241343Y-59868683D01*
X135241343Y-59868683D02*
X135274676Y-59968683D01*
X135274676Y-59968683D02*
X135341343Y-60035350D01*
X135341343Y-60035350D02*
X135408010Y-60068683D01*
X135408010Y-60068683D02*
X135541343Y-60102016D01*
X135541343Y-60102016D02*
X135641343Y-60102016D01*
X135641343Y-60102016D02*
X135774676Y-60068683D01*
X135774676Y-60068683D02*
X135841343Y-60035350D01*
X135841343Y-60035350D02*
X135908010Y-59968683D01*
X135908010Y-59968683D02*
X135941343Y-59868683D01*
X135941343Y-59868683D02*
X135941343Y-59802016D01*
X135941343Y-59802016D02*
X135908010Y-59702016D01*
X135908010Y-59702016D02*
X135874676Y-59668683D01*
X135874676Y-59668683D02*
X135641343Y-59668683D01*
X135641343Y-59668683D02*
X135641343Y-59802016D01*
X135941343Y-59368683D02*
X135241343Y-59368683D01*
X135241343Y-59368683D02*
X135241343Y-59102016D01*
X135241343Y-59102016D02*
X135274676Y-59035350D01*
X135274676Y-59035350D02*
X135308010Y-59002016D01*
X135308010Y-59002016D02*
X135374676Y-58968683D01*
X135374676Y-58968683D02*
X135474676Y-58968683D01*
X135474676Y-58968683D02*
X135541343Y-59002016D01*
X135541343Y-59002016D02*
X135574676Y-59035350D01*
X135574676Y-59035350D02*
X135608010Y-59102016D01*
X135608010Y-59102016D02*
X135608010Y-59368683D01*
X135941343Y-58668683D02*
X135241343Y-58668683D01*
X135241343Y-58202017D02*
X135241343Y-58068683D01*
X135241343Y-58068683D02*
X135274676Y-58002017D01*
X135274676Y-58002017D02*
X135341343Y-57935350D01*
X135341343Y-57935350D02*
X135474676Y-57902017D01*
X135474676Y-57902017D02*
X135708010Y-57902017D01*
X135708010Y-57902017D02*
X135841343Y-57935350D01*
X135841343Y-57935350D02*
X135908010Y-58002017D01*
X135908010Y-58002017D02*
X135941343Y-58068683D01*
X135941343Y-58068683D02*
X135941343Y-58202017D01*
X135941343Y-58202017D02*
X135908010Y-58268683D01*
X135908010Y-58268683D02*
X135841343Y-58335350D01*
X135841343Y-58335350D02*
X135708010Y-58368683D01*
X135708010Y-58368683D02*
X135474676Y-58368683D01*
X135474676Y-58368683D02*
X135341343Y-58335350D01*
X135341343Y-58335350D02*
X135274676Y-58268683D01*
X135274676Y-58268683D02*
X135241343Y-58202017D01*
X135941343Y-57235350D02*
X135941343Y-57635350D01*
X135941343Y-57435350D02*
X135241343Y-57435350D01*
X135241343Y-57435350D02*
X135341343Y-57502017D01*
X135341343Y-57502017D02*
X135408010Y-57568684D01*
X135408010Y-57568684D02*
X135441343Y-57635350D01*
X135208010Y-56435350D02*
X136108010Y-57035350D01*
X135241343Y-56202017D02*
X135808010Y-56202017D01*
X135808010Y-56202017D02*
X135874676Y-56168684D01*
X135874676Y-56168684D02*
X135908010Y-56135350D01*
X135908010Y-56135350D02*
X135941343Y-56068684D01*
X135941343Y-56068684D02*
X135941343Y-55935350D01*
X135941343Y-55935350D02*
X135908010Y-55868684D01*
X135908010Y-55868684D02*
X135874676Y-55835350D01*
X135874676Y-55835350D02*
X135808010Y-55802017D01*
X135808010Y-55802017D02*
X135241343Y-55802017D01*
X135241343Y-55335351D02*
X135241343Y-55268684D01*
X135241343Y-55268684D02*
X135274676Y-55202017D01*
X135274676Y-55202017D02*
X135308010Y-55168684D01*
X135308010Y-55168684D02*
X135374676Y-55135351D01*
X135374676Y-55135351D02*
X135508010Y-55102017D01*
X135508010Y-55102017D02*
X135674676Y-55102017D01*
X135674676Y-55102017D02*
X135808010Y-55135351D01*
X135808010Y-55135351D02*
X135874676Y-55168684D01*
X135874676Y-55168684D02*
X135908010Y-55202017D01*
X135908010Y-55202017D02*
X135941343Y-55268684D01*
X135941343Y-55268684D02*
X135941343Y-55335351D01*
X135941343Y-55335351D02*
X135908010Y-55402017D01*
X135908010Y-55402017D02*
X135874676Y-55435351D01*
X135874676Y-55435351D02*
X135808010Y-55468684D01*
X135808010Y-55468684D02*
X135674676Y-55502017D01*
X135674676Y-55502017D02*
X135508010Y-55502017D01*
X135508010Y-55502017D02*
X135374676Y-55468684D01*
X135374676Y-55468684D02*
X135308010Y-55435351D01*
X135308010Y-55435351D02*
X135274676Y-55402017D01*
X135274676Y-55402017D02*
X135241343Y-55335351D01*
X135241343Y-54902017D02*
X135241343Y-54502017D01*
X135941343Y-54702017D02*
X135241343Y-54702017D01*
X135241343Y-54335351D02*
X135941343Y-53868684D01*
X135241343Y-53868684D02*
X135941343Y-54335351D01*
X135941343Y-53602017D02*
X135241343Y-53602017D01*
X135241343Y-53602017D02*
X135241343Y-53435350D01*
X135241343Y-53435350D02*
X135274676Y-53335350D01*
X135274676Y-53335350D02*
X135341343Y-53268684D01*
X135341343Y-53268684D02*
X135408010Y-53235350D01*
X135408010Y-53235350D02*
X135541343Y-53202017D01*
X135541343Y-53202017D02*
X135641343Y-53202017D01*
X135641343Y-53202017D02*
X135774676Y-53235350D01*
X135774676Y-53235350D02*
X135841343Y-53268684D01*
X135841343Y-53268684D02*
X135908010Y-53335350D01*
X135908010Y-53335350D02*
X135941343Y-53435350D01*
X135941343Y-53435350D02*
X135941343Y-53602017D01*
X132701343Y-75664649D02*
X133401343Y-75431316D01*
X133401343Y-75431316D02*
X132701343Y-75197982D01*
X133401343Y-74964649D02*
X132701343Y-74964649D01*
X132701343Y-74964649D02*
X132701343Y-74697982D01*
X132701343Y-74697982D02*
X132734676Y-74631316D01*
X132734676Y-74631316D02*
X132768010Y-74597982D01*
X132768010Y-74597982D02*
X132834676Y-74564649D01*
X132834676Y-74564649D02*
X132934676Y-74564649D01*
X132934676Y-74564649D02*
X133001343Y-74597982D01*
X133001343Y-74597982D02*
X133034676Y-74631316D01*
X133034676Y-74631316D02*
X133068010Y-74697982D01*
X133068010Y-74697982D02*
X133068010Y-74964649D01*
X132668010Y-73764649D02*
X133568010Y-74364649D01*
X132734676Y-73164649D02*
X132701343Y-73231316D01*
X132701343Y-73231316D02*
X132701343Y-73331316D01*
X132701343Y-73331316D02*
X132734676Y-73431316D01*
X132734676Y-73431316D02*
X132801343Y-73497983D01*
X132801343Y-73497983D02*
X132868010Y-73531316D01*
X132868010Y-73531316D02*
X133001343Y-73564649D01*
X133001343Y-73564649D02*
X133101343Y-73564649D01*
X133101343Y-73564649D02*
X133234676Y-73531316D01*
X133234676Y-73531316D02*
X133301343Y-73497983D01*
X133301343Y-73497983D02*
X133368010Y-73431316D01*
X133368010Y-73431316D02*
X133401343Y-73331316D01*
X133401343Y-73331316D02*
X133401343Y-73264649D01*
X133401343Y-73264649D02*
X133368010Y-73164649D01*
X133368010Y-73164649D02*
X133334676Y-73131316D01*
X133334676Y-73131316D02*
X133101343Y-73131316D01*
X133101343Y-73131316D02*
X133101343Y-73264649D01*
X133401343Y-72831316D02*
X132701343Y-72831316D01*
X132701343Y-72831316D02*
X132701343Y-72564649D01*
X132701343Y-72564649D02*
X132734676Y-72497983D01*
X132734676Y-72497983D02*
X132768010Y-72464649D01*
X132768010Y-72464649D02*
X132834676Y-72431316D01*
X132834676Y-72431316D02*
X132934676Y-72431316D01*
X132934676Y-72431316D02*
X133001343Y-72464649D01*
X133001343Y-72464649D02*
X133034676Y-72497983D01*
X133034676Y-72497983D02*
X133068010Y-72564649D01*
X133068010Y-72564649D02*
X133068010Y-72831316D01*
X133401343Y-72131316D02*
X132701343Y-72131316D01*
X132701343Y-71664650D02*
X132701343Y-71531316D01*
X132701343Y-71531316D02*
X132734676Y-71464650D01*
X132734676Y-71464650D02*
X132801343Y-71397983D01*
X132801343Y-71397983D02*
X132934676Y-71364650D01*
X132934676Y-71364650D02*
X133168010Y-71364650D01*
X133168010Y-71364650D02*
X133301343Y-71397983D01*
X133301343Y-71397983D02*
X133368010Y-71464650D01*
X133368010Y-71464650D02*
X133401343Y-71531316D01*
X133401343Y-71531316D02*
X133401343Y-71664650D01*
X133401343Y-71664650D02*
X133368010Y-71731316D01*
X133368010Y-71731316D02*
X133301343Y-71797983D01*
X133301343Y-71797983D02*
X133168010Y-71831316D01*
X133168010Y-71831316D02*
X132934676Y-71831316D01*
X132934676Y-71831316D02*
X132801343Y-71797983D01*
X132801343Y-71797983D02*
X132734676Y-71731316D01*
X132734676Y-71731316D02*
X132701343Y-71664650D01*
X132701343Y-71131317D02*
X132701343Y-70697983D01*
X132701343Y-70697983D02*
X132968010Y-70931317D01*
X132968010Y-70931317D02*
X132968010Y-70831317D01*
X132968010Y-70831317D02*
X133001343Y-70764650D01*
X133001343Y-70764650D02*
X133034676Y-70731317D01*
X133034676Y-70731317D02*
X133101343Y-70697983D01*
X133101343Y-70697983D02*
X133268010Y-70697983D01*
X133268010Y-70697983D02*
X133334676Y-70731317D01*
X133334676Y-70731317D02*
X133368010Y-70764650D01*
X133368010Y-70764650D02*
X133401343Y-70831317D01*
X133401343Y-70831317D02*
X133401343Y-71031317D01*
X133401343Y-71031317D02*
X133368010Y-71097983D01*
X133368010Y-71097983D02*
X133334676Y-71131317D01*
X132701343Y-70097983D02*
X132701343Y-70231316D01*
X132701343Y-70231316D02*
X132734676Y-70297983D01*
X132734676Y-70297983D02*
X132768010Y-70331316D01*
X132768010Y-70331316D02*
X132868010Y-70397983D01*
X132868010Y-70397983D02*
X133001343Y-70431316D01*
X133001343Y-70431316D02*
X133268010Y-70431316D01*
X133268010Y-70431316D02*
X133334676Y-70397983D01*
X133334676Y-70397983D02*
X133368010Y-70364650D01*
X133368010Y-70364650D02*
X133401343Y-70297983D01*
X133401343Y-70297983D02*
X133401343Y-70164650D01*
X133401343Y-70164650D02*
X133368010Y-70097983D01*
X133368010Y-70097983D02*
X133334676Y-70064650D01*
X133334676Y-70064650D02*
X133268010Y-70031316D01*
X133268010Y-70031316D02*
X133101343Y-70031316D01*
X133101343Y-70031316D02*
X133034676Y-70064650D01*
X133034676Y-70064650D02*
X133001343Y-70097983D01*
X133001343Y-70097983D02*
X132968010Y-70164650D01*
X132968010Y-70164650D02*
X132968010Y-70297983D01*
X132968010Y-70297983D02*
X133001343Y-70364650D01*
X133001343Y-70364650D02*
X133034676Y-70397983D01*
X133034676Y-70397983D02*
X133101343Y-70431316D01*
X147974676Y-75197982D02*
X147941343Y-75264649D01*
X147941343Y-75264649D02*
X147941343Y-75364649D01*
X147941343Y-75364649D02*
X147974676Y-75464649D01*
X147974676Y-75464649D02*
X148041343Y-75531316D01*
X148041343Y-75531316D02*
X148108010Y-75564649D01*
X148108010Y-75564649D02*
X148241343Y-75597982D01*
X148241343Y-75597982D02*
X148341343Y-75597982D01*
X148341343Y-75597982D02*
X148474676Y-75564649D01*
X148474676Y-75564649D02*
X148541343Y-75531316D01*
X148541343Y-75531316D02*
X148608010Y-75464649D01*
X148608010Y-75464649D02*
X148641343Y-75364649D01*
X148641343Y-75364649D02*
X148641343Y-75297982D01*
X148641343Y-75297982D02*
X148608010Y-75197982D01*
X148608010Y-75197982D02*
X148574676Y-75164649D01*
X148574676Y-75164649D02*
X148341343Y-75164649D01*
X148341343Y-75164649D02*
X148341343Y-75297982D01*
X148641343Y-74864649D02*
X147941343Y-74864649D01*
X147941343Y-74864649D02*
X147941343Y-74597982D01*
X147941343Y-74597982D02*
X147974676Y-74531316D01*
X147974676Y-74531316D02*
X148008010Y-74497982D01*
X148008010Y-74497982D02*
X148074676Y-74464649D01*
X148074676Y-74464649D02*
X148174676Y-74464649D01*
X148174676Y-74464649D02*
X148241343Y-74497982D01*
X148241343Y-74497982D02*
X148274676Y-74531316D01*
X148274676Y-74531316D02*
X148308010Y-74597982D01*
X148308010Y-74597982D02*
X148308010Y-74864649D01*
X148641343Y-74164649D02*
X147941343Y-74164649D01*
X147941343Y-73697983D02*
X147941343Y-73564649D01*
X147941343Y-73564649D02*
X147974676Y-73497983D01*
X147974676Y-73497983D02*
X148041343Y-73431316D01*
X148041343Y-73431316D02*
X148174676Y-73397983D01*
X148174676Y-73397983D02*
X148408010Y-73397983D01*
X148408010Y-73397983D02*
X148541343Y-73431316D01*
X148541343Y-73431316D02*
X148608010Y-73497983D01*
X148608010Y-73497983D02*
X148641343Y-73564649D01*
X148641343Y-73564649D02*
X148641343Y-73697983D01*
X148641343Y-73697983D02*
X148608010Y-73764649D01*
X148608010Y-73764649D02*
X148541343Y-73831316D01*
X148541343Y-73831316D02*
X148408010Y-73864649D01*
X148408010Y-73864649D02*
X148174676Y-73864649D01*
X148174676Y-73864649D02*
X148041343Y-73831316D01*
X148041343Y-73831316D02*
X147974676Y-73764649D01*
X147974676Y-73764649D02*
X147941343Y-73697983D01*
X148008010Y-73131316D02*
X147974676Y-73097983D01*
X147974676Y-73097983D02*
X147941343Y-73031316D01*
X147941343Y-73031316D02*
X147941343Y-72864650D01*
X147941343Y-72864650D02*
X147974676Y-72797983D01*
X147974676Y-72797983D02*
X148008010Y-72764650D01*
X148008010Y-72764650D02*
X148074676Y-72731316D01*
X148074676Y-72731316D02*
X148141343Y-72731316D01*
X148141343Y-72731316D02*
X148241343Y-72764650D01*
X148241343Y-72764650D02*
X148641343Y-73164650D01*
X148641343Y-73164650D02*
X148641343Y-72731316D01*
X147941343Y-72097983D02*
X147941343Y-72431316D01*
X147941343Y-72431316D02*
X148274676Y-72464649D01*
X148274676Y-72464649D02*
X148241343Y-72431316D01*
X148241343Y-72431316D02*
X148208010Y-72364649D01*
X148208010Y-72364649D02*
X148208010Y-72197983D01*
X148208010Y-72197983D02*
X148241343Y-72131316D01*
X148241343Y-72131316D02*
X148274676Y-72097983D01*
X148274676Y-72097983D02*
X148341343Y-72064649D01*
X148341343Y-72064649D02*
X148508010Y-72064649D01*
X148508010Y-72064649D02*
X148574676Y-72097983D01*
X148574676Y-72097983D02*
X148608010Y-72131316D01*
X148608010Y-72131316D02*
X148641343Y-72197983D01*
X148641343Y-72197983D02*
X148641343Y-72364649D01*
X148641343Y-72364649D02*
X148608010Y-72431316D01*
X148608010Y-72431316D02*
X148574676Y-72464649D01*
X173974676Y-54468684D02*
X174008010Y-54502017D01*
X174008010Y-54502017D02*
X174041343Y-54602017D01*
X174041343Y-54602017D02*
X174041343Y-54668684D01*
X174041343Y-54668684D02*
X174008010Y-54768684D01*
X174008010Y-54768684D02*
X173941343Y-54835351D01*
X173941343Y-54835351D02*
X173874676Y-54868684D01*
X173874676Y-54868684D02*
X173741343Y-54902017D01*
X173741343Y-54902017D02*
X173641343Y-54902017D01*
X173641343Y-54902017D02*
X173508010Y-54868684D01*
X173508010Y-54868684D02*
X173441343Y-54835351D01*
X173441343Y-54835351D02*
X173374676Y-54768684D01*
X173374676Y-54768684D02*
X173341343Y-54668684D01*
X173341343Y-54668684D02*
X173341343Y-54602017D01*
X173341343Y-54602017D02*
X173374676Y-54502017D01*
X173374676Y-54502017D02*
X173408010Y-54468684D01*
X174041343Y-53835351D02*
X174041343Y-54168684D01*
X174041343Y-54168684D02*
X173341343Y-54168684D01*
X174041343Y-53602017D02*
X173341343Y-53602017D01*
X174041343Y-53202017D02*
X173641343Y-53502017D01*
X173341343Y-53202017D02*
X173741343Y-53602017D01*
X127507748Y-55354398D02*
X127460129Y-55449636D01*
X127460129Y-55449636D02*
X127460129Y-55592493D01*
X127460129Y-55592493D02*
X127507748Y-55735350D01*
X127507748Y-55735350D02*
X127602986Y-55830588D01*
X127602986Y-55830588D02*
X127698224Y-55878207D01*
X127698224Y-55878207D02*
X127888700Y-55925826D01*
X127888700Y-55925826D02*
X128031557Y-55925826D01*
X128031557Y-55925826D02*
X128222033Y-55878207D01*
X128222033Y-55878207D02*
X128317271Y-55830588D01*
X128317271Y-55830588D02*
X128412510Y-55735350D01*
X128412510Y-55735350D02*
X128460129Y-55592493D01*
X128460129Y-55592493D02*
X128460129Y-55497255D01*
X128460129Y-55497255D02*
X128412510Y-55354398D01*
X128412510Y-55354398D02*
X128364890Y-55306779D01*
X128364890Y-55306779D02*
X128031557Y-55306779D01*
X128031557Y-55306779D02*
X128031557Y-55497255D01*
X128460129Y-54878207D02*
X127460129Y-54878207D01*
X127460129Y-54878207D02*
X128460129Y-54306779D01*
X128460129Y-54306779D02*
X127460129Y-54306779D01*
X128460129Y-53830588D02*
X127460129Y-53830588D01*
X127460129Y-53830588D02*
X127460129Y-53592493D01*
X127460129Y-53592493D02*
X127507748Y-53449636D01*
X127507748Y-53449636D02*
X127602986Y-53354398D01*
X127602986Y-53354398D02*
X127698224Y-53306779D01*
X127698224Y-53306779D02*
X127888700Y-53259160D01*
X127888700Y-53259160D02*
X128031557Y-53259160D01*
X128031557Y-53259160D02*
X128222033Y-53306779D01*
X128222033Y-53306779D02*
X128317271Y-53354398D01*
X128317271Y-53354398D02*
X128412510Y-53449636D01*
X128412510Y-53449636D02*
X128460129Y-53592493D01*
X128460129Y-53592493D02*
X128460129Y-53830588D01*
X150514676Y-75197982D02*
X150481343Y-75264649D01*
X150481343Y-75264649D02*
X150481343Y-75364649D01*
X150481343Y-75364649D02*
X150514676Y-75464649D01*
X150514676Y-75464649D02*
X150581343Y-75531316D01*
X150581343Y-75531316D02*
X150648010Y-75564649D01*
X150648010Y-75564649D02*
X150781343Y-75597982D01*
X150781343Y-75597982D02*
X150881343Y-75597982D01*
X150881343Y-75597982D02*
X151014676Y-75564649D01*
X151014676Y-75564649D02*
X151081343Y-75531316D01*
X151081343Y-75531316D02*
X151148010Y-75464649D01*
X151148010Y-75464649D02*
X151181343Y-75364649D01*
X151181343Y-75364649D02*
X151181343Y-75297982D01*
X151181343Y-75297982D02*
X151148010Y-75197982D01*
X151148010Y-75197982D02*
X151114676Y-75164649D01*
X151114676Y-75164649D02*
X150881343Y-75164649D01*
X150881343Y-75164649D02*
X150881343Y-75297982D01*
X151181343Y-74864649D02*
X150481343Y-74864649D01*
X150481343Y-74864649D02*
X150481343Y-74597982D01*
X150481343Y-74597982D02*
X150514676Y-74531316D01*
X150514676Y-74531316D02*
X150548010Y-74497982D01*
X150548010Y-74497982D02*
X150614676Y-74464649D01*
X150614676Y-74464649D02*
X150714676Y-74464649D01*
X150714676Y-74464649D02*
X150781343Y-74497982D01*
X150781343Y-74497982D02*
X150814676Y-74531316D01*
X150814676Y-74531316D02*
X150848010Y-74597982D01*
X150848010Y-74597982D02*
X150848010Y-74864649D01*
X151181343Y-74164649D02*
X150481343Y-74164649D01*
X150481343Y-73697983D02*
X150481343Y-73564649D01*
X150481343Y-73564649D02*
X150514676Y-73497983D01*
X150514676Y-73497983D02*
X150581343Y-73431316D01*
X150581343Y-73431316D02*
X150714676Y-73397983D01*
X150714676Y-73397983D02*
X150948010Y-73397983D01*
X150948010Y-73397983D02*
X151081343Y-73431316D01*
X151081343Y-73431316D02*
X151148010Y-73497983D01*
X151148010Y-73497983D02*
X151181343Y-73564649D01*
X151181343Y-73564649D02*
X151181343Y-73697983D01*
X151181343Y-73697983D02*
X151148010Y-73764649D01*
X151148010Y-73764649D02*
X151081343Y-73831316D01*
X151081343Y-73831316D02*
X150948010Y-73864649D01*
X150948010Y-73864649D02*
X150714676Y-73864649D01*
X150714676Y-73864649D02*
X150581343Y-73831316D01*
X150581343Y-73831316D02*
X150514676Y-73764649D01*
X150514676Y-73764649D02*
X150481343Y-73697983D01*
X150548010Y-73131316D02*
X150514676Y-73097983D01*
X150514676Y-73097983D02*
X150481343Y-73031316D01*
X150481343Y-73031316D02*
X150481343Y-72864650D01*
X150481343Y-72864650D02*
X150514676Y-72797983D01*
X150514676Y-72797983D02*
X150548010Y-72764650D01*
X150548010Y-72764650D02*
X150614676Y-72731316D01*
X150614676Y-72731316D02*
X150681343Y-72731316D01*
X150681343Y-72731316D02*
X150781343Y-72764650D01*
X150781343Y-72764650D02*
X151181343Y-73164650D01*
X151181343Y-73164650D02*
X151181343Y-72731316D01*
X150481343Y-72131316D02*
X150481343Y-72264649D01*
X150481343Y-72264649D02*
X150514676Y-72331316D01*
X150514676Y-72331316D02*
X150548010Y-72364649D01*
X150548010Y-72364649D02*
X150648010Y-72431316D01*
X150648010Y-72431316D02*
X150781343Y-72464649D01*
X150781343Y-72464649D02*
X151048010Y-72464649D01*
X151048010Y-72464649D02*
X151114676Y-72431316D01*
X151114676Y-72431316D02*
X151148010Y-72397983D01*
X151148010Y-72397983D02*
X151181343Y-72331316D01*
X151181343Y-72331316D02*
X151181343Y-72197983D01*
X151181343Y-72197983D02*
X151148010Y-72131316D01*
X151148010Y-72131316D02*
X151114676Y-72097983D01*
X151114676Y-72097983D02*
X151048010Y-72064649D01*
X151048010Y-72064649D02*
X150881343Y-72064649D01*
X150881343Y-72064649D02*
X150814676Y-72097983D01*
X150814676Y-72097983D02*
X150781343Y-72131316D01*
X150781343Y-72131316D02*
X150748010Y-72197983D01*
X150748010Y-72197983D02*
X150748010Y-72331316D01*
X150748010Y-72331316D02*
X150781343Y-72397983D01*
X150781343Y-72397983D02*
X150814676Y-72431316D01*
X150814676Y-72431316D02*
X150881343Y-72464649D01*
X142747748Y-55354398D02*
X142700129Y-55449636D01*
X142700129Y-55449636D02*
X142700129Y-55592493D01*
X142700129Y-55592493D02*
X142747748Y-55735350D01*
X142747748Y-55735350D02*
X142842986Y-55830588D01*
X142842986Y-55830588D02*
X142938224Y-55878207D01*
X142938224Y-55878207D02*
X143128700Y-55925826D01*
X143128700Y-55925826D02*
X143271557Y-55925826D01*
X143271557Y-55925826D02*
X143462033Y-55878207D01*
X143462033Y-55878207D02*
X143557271Y-55830588D01*
X143557271Y-55830588D02*
X143652510Y-55735350D01*
X143652510Y-55735350D02*
X143700129Y-55592493D01*
X143700129Y-55592493D02*
X143700129Y-55497255D01*
X143700129Y-55497255D02*
X143652510Y-55354398D01*
X143652510Y-55354398D02*
X143604890Y-55306779D01*
X143604890Y-55306779D02*
X143271557Y-55306779D01*
X143271557Y-55306779D02*
X143271557Y-55497255D01*
X143700129Y-54878207D02*
X142700129Y-54878207D01*
X142700129Y-54878207D02*
X143700129Y-54306779D01*
X143700129Y-54306779D02*
X142700129Y-54306779D01*
X143700129Y-53830588D02*
X142700129Y-53830588D01*
X142700129Y-53830588D02*
X142700129Y-53592493D01*
X142700129Y-53592493D02*
X142747748Y-53449636D01*
X142747748Y-53449636D02*
X142842986Y-53354398D01*
X142842986Y-53354398D02*
X142938224Y-53306779D01*
X142938224Y-53306779D02*
X143128700Y-53259160D01*
X143128700Y-53259160D02*
X143271557Y-53259160D01*
X143271557Y-53259160D02*
X143462033Y-53306779D01*
X143462033Y-53306779D02*
X143557271Y-53354398D01*
X143557271Y-53354398D02*
X143652510Y-53449636D01*
X143652510Y-53449636D02*
X143700129Y-53592493D01*
X143700129Y-53592493D02*
X143700129Y-53830588D01*
X145434676Y-75197982D02*
X145401343Y-75264649D01*
X145401343Y-75264649D02*
X145401343Y-75364649D01*
X145401343Y-75364649D02*
X145434676Y-75464649D01*
X145434676Y-75464649D02*
X145501343Y-75531316D01*
X145501343Y-75531316D02*
X145568010Y-75564649D01*
X145568010Y-75564649D02*
X145701343Y-75597982D01*
X145701343Y-75597982D02*
X145801343Y-75597982D01*
X145801343Y-75597982D02*
X145934676Y-75564649D01*
X145934676Y-75564649D02*
X146001343Y-75531316D01*
X146001343Y-75531316D02*
X146068010Y-75464649D01*
X146068010Y-75464649D02*
X146101343Y-75364649D01*
X146101343Y-75364649D02*
X146101343Y-75297982D01*
X146101343Y-75297982D02*
X146068010Y-75197982D01*
X146068010Y-75197982D02*
X146034676Y-75164649D01*
X146034676Y-75164649D02*
X145801343Y-75164649D01*
X145801343Y-75164649D02*
X145801343Y-75297982D01*
X146101343Y-74864649D02*
X145401343Y-74864649D01*
X145401343Y-74864649D02*
X145401343Y-74597982D01*
X145401343Y-74597982D02*
X145434676Y-74531316D01*
X145434676Y-74531316D02*
X145468010Y-74497982D01*
X145468010Y-74497982D02*
X145534676Y-74464649D01*
X145534676Y-74464649D02*
X145634676Y-74464649D01*
X145634676Y-74464649D02*
X145701343Y-74497982D01*
X145701343Y-74497982D02*
X145734676Y-74531316D01*
X145734676Y-74531316D02*
X145768010Y-74597982D01*
X145768010Y-74597982D02*
X145768010Y-74864649D01*
X146101343Y-74164649D02*
X145401343Y-74164649D01*
X145401343Y-73697983D02*
X145401343Y-73564649D01*
X145401343Y-73564649D02*
X145434676Y-73497983D01*
X145434676Y-73497983D02*
X145501343Y-73431316D01*
X145501343Y-73431316D02*
X145634676Y-73397983D01*
X145634676Y-73397983D02*
X145868010Y-73397983D01*
X145868010Y-73397983D02*
X146001343Y-73431316D01*
X146001343Y-73431316D02*
X146068010Y-73497983D01*
X146068010Y-73497983D02*
X146101343Y-73564649D01*
X146101343Y-73564649D02*
X146101343Y-73697983D01*
X146101343Y-73697983D02*
X146068010Y-73764649D01*
X146068010Y-73764649D02*
X146001343Y-73831316D01*
X146001343Y-73831316D02*
X145868010Y-73864649D01*
X145868010Y-73864649D02*
X145634676Y-73864649D01*
X145634676Y-73864649D02*
X145501343Y-73831316D01*
X145501343Y-73831316D02*
X145434676Y-73764649D01*
X145434676Y-73764649D02*
X145401343Y-73697983D01*
X145401343Y-73164650D02*
X145401343Y-72731316D01*
X145401343Y-72731316D02*
X145668010Y-72964650D01*
X145668010Y-72964650D02*
X145668010Y-72864650D01*
X145668010Y-72864650D02*
X145701343Y-72797983D01*
X145701343Y-72797983D02*
X145734676Y-72764650D01*
X145734676Y-72764650D02*
X145801343Y-72731316D01*
X145801343Y-72731316D02*
X145968010Y-72731316D01*
X145968010Y-72731316D02*
X146034676Y-72764650D01*
X146034676Y-72764650D02*
X146068010Y-72797983D01*
X146068010Y-72797983D02*
X146101343Y-72864650D01*
X146101343Y-72864650D02*
X146101343Y-73064650D01*
X146101343Y-73064650D02*
X146068010Y-73131316D01*
X146068010Y-73131316D02*
X146034676Y-73164650D01*
X145401343Y-72497983D02*
X145401343Y-72064649D01*
X145401343Y-72064649D02*
X145668010Y-72297983D01*
X145668010Y-72297983D02*
X145668010Y-72197983D01*
X145668010Y-72197983D02*
X145701343Y-72131316D01*
X145701343Y-72131316D02*
X145734676Y-72097983D01*
X145734676Y-72097983D02*
X145801343Y-72064649D01*
X145801343Y-72064649D02*
X145968010Y-72064649D01*
X145968010Y-72064649D02*
X146034676Y-72097983D01*
X146034676Y-72097983D02*
X146068010Y-72131316D01*
X146068010Y-72131316D02*
X146101343Y-72197983D01*
X146101343Y-72197983D02*
X146101343Y-72397983D01*
X146101343Y-72397983D02*
X146068010Y-72464649D01*
X146068010Y-72464649D02*
X146034676Y-72497983D01*
X153054676Y-75197982D02*
X153021343Y-75264649D01*
X153021343Y-75264649D02*
X153021343Y-75364649D01*
X153021343Y-75364649D02*
X153054676Y-75464649D01*
X153054676Y-75464649D02*
X153121343Y-75531316D01*
X153121343Y-75531316D02*
X153188010Y-75564649D01*
X153188010Y-75564649D02*
X153321343Y-75597982D01*
X153321343Y-75597982D02*
X153421343Y-75597982D01*
X153421343Y-75597982D02*
X153554676Y-75564649D01*
X153554676Y-75564649D02*
X153621343Y-75531316D01*
X153621343Y-75531316D02*
X153688010Y-75464649D01*
X153688010Y-75464649D02*
X153721343Y-75364649D01*
X153721343Y-75364649D02*
X153721343Y-75297982D01*
X153721343Y-75297982D02*
X153688010Y-75197982D01*
X153688010Y-75197982D02*
X153654676Y-75164649D01*
X153654676Y-75164649D02*
X153421343Y-75164649D01*
X153421343Y-75164649D02*
X153421343Y-75297982D01*
X153721343Y-74864649D02*
X153021343Y-74864649D01*
X153021343Y-74864649D02*
X153021343Y-74597982D01*
X153021343Y-74597982D02*
X153054676Y-74531316D01*
X153054676Y-74531316D02*
X153088010Y-74497982D01*
X153088010Y-74497982D02*
X153154676Y-74464649D01*
X153154676Y-74464649D02*
X153254676Y-74464649D01*
X153254676Y-74464649D02*
X153321343Y-74497982D01*
X153321343Y-74497982D02*
X153354676Y-74531316D01*
X153354676Y-74531316D02*
X153388010Y-74597982D01*
X153388010Y-74597982D02*
X153388010Y-74864649D01*
X153721343Y-74164649D02*
X153021343Y-74164649D01*
X153021343Y-73697983D02*
X153021343Y-73564649D01*
X153021343Y-73564649D02*
X153054676Y-73497983D01*
X153054676Y-73497983D02*
X153121343Y-73431316D01*
X153121343Y-73431316D02*
X153254676Y-73397983D01*
X153254676Y-73397983D02*
X153488010Y-73397983D01*
X153488010Y-73397983D02*
X153621343Y-73431316D01*
X153621343Y-73431316D02*
X153688010Y-73497983D01*
X153688010Y-73497983D02*
X153721343Y-73564649D01*
X153721343Y-73564649D02*
X153721343Y-73697983D01*
X153721343Y-73697983D02*
X153688010Y-73764649D01*
X153688010Y-73764649D02*
X153621343Y-73831316D01*
X153621343Y-73831316D02*
X153488010Y-73864649D01*
X153488010Y-73864649D02*
X153254676Y-73864649D01*
X153254676Y-73864649D02*
X153121343Y-73831316D01*
X153121343Y-73831316D02*
X153054676Y-73764649D01*
X153054676Y-73764649D02*
X153021343Y-73697983D01*
X153088010Y-73131316D02*
X153054676Y-73097983D01*
X153054676Y-73097983D02*
X153021343Y-73031316D01*
X153021343Y-73031316D02*
X153021343Y-72864650D01*
X153021343Y-72864650D02*
X153054676Y-72797983D01*
X153054676Y-72797983D02*
X153088010Y-72764650D01*
X153088010Y-72764650D02*
X153154676Y-72731316D01*
X153154676Y-72731316D02*
X153221343Y-72731316D01*
X153221343Y-72731316D02*
X153321343Y-72764650D01*
X153321343Y-72764650D02*
X153721343Y-73164650D01*
X153721343Y-73164650D02*
X153721343Y-72731316D01*
X153021343Y-72497983D02*
X153021343Y-72031316D01*
X153021343Y-72031316D02*
X153721343Y-72331316D01*
X163214676Y-75197982D02*
X163181343Y-75264649D01*
X163181343Y-75264649D02*
X163181343Y-75364649D01*
X163181343Y-75364649D02*
X163214676Y-75464649D01*
X163214676Y-75464649D02*
X163281343Y-75531316D01*
X163281343Y-75531316D02*
X163348010Y-75564649D01*
X163348010Y-75564649D02*
X163481343Y-75597982D01*
X163481343Y-75597982D02*
X163581343Y-75597982D01*
X163581343Y-75597982D02*
X163714676Y-75564649D01*
X163714676Y-75564649D02*
X163781343Y-75531316D01*
X163781343Y-75531316D02*
X163848010Y-75464649D01*
X163848010Y-75464649D02*
X163881343Y-75364649D01*
X163881343Y-75364649D02*
X163881343Y-75297982D01*
X163881343Y-75297982D02*
X163848010Y-75197982D01*
X163848010Y-75197982D02*
X163814676Y-75164649D01*
X163814676Y-75164649D02*
X163581343Y-75164649D01*
X163581343Y-75164649D02*
X163581343Y-75297982D01*
X163881343Y-74864649D02*
X163181343Y-74864649D01*
X163181343Y-74864649D02*
X163181343Y-74597982D01*
X163181343Y-74597982D02*
X163214676Y-74531316D01*
X163214676Y-74531316D02*
X163248010Y-74497982D01*
X163248010Y-74497982D02*
X163314676Y-74464649D01*
X163314676Y-74464649D02*
X163414676Y-74464649D01*
X163414676Y-74464649D02*
X163481343Y-74497982D01*
X163481343Y-74497982D02*
X163514676Y-74531316D01*
X163514676Y-74531316D02*
X163548010Y-74597982D01*
X163548010Y-74597982D02*
X163548010Y-74864649D01*
X163881343Y-74164649D02*
X163181343Y-74164649D01*
X163181343Y-73697983D02*
X163181343Y-73564649D01*
X163181343Y-73564649D02*
X163214676Y-73497983D01*
X163214676Y-73497983D02*
X163281343Y-73431316D01*
X163281343Y-73431316D02*
X163414676Y-73397983D01*
X163414676Y-73397983D02*
X163648010Y-73397983D01*
X163648010Y-73397983D02*
X163781343Y-73431316D01*
X163781343Y-73431316D02*
X163848010Y-73497983D01*
X163848010Y-73497983D02*
X163881343Y-73564649D01*
X163881343Y-73564649D02*
X163881343Y-73697983D01*
X163881343Y-73697983D02*
X163848010Y-73764649D01*
X163848010Y-73764649D02*
X163781343Y-73831316D01*
X163781343Y-73831316D02*
X163648010Y-73864649D01*
X163648010Y-73864649D02*
X163414676Y-73864649D01*
X163414676Y-73864649D02*
X163281343Y-73831316D01*
X163281343Y-73831316D02*
X163214676Y-73764649D01*
X163214676Y-73764649D02*
X163181343Y-73697983D01*
X163881343Y-72731316D02*
X163881343Y-73131316D01*
X163881343Y-72931316D02*
X163181343Y-72931316D01*
X163181343Y-72931316D02*
X163281343Y-72997983D01*
X163281343Y-72997983D02*
X163348010Y-73064650D01*
X163348010Y-73064650D02*
X163381343Y-73131316D01*
X163181343Y-72497983D02*
X163181343Y-72064649D01*
X163181343Y-72064649D02*
X163448010Y-72297983D01*
X163448010Y-72297983D02*
X163448010Y-72197983D01*
X163448010Y-72197983D02*
X163481343Y-72131316D01*
X163481343Y-72131316D02*
X163514676Y-72097983D01*
X163514676Y-72097983D02*
X163581343Y-72064649D01*
X163581343Y-72064649D02*
X163748010Y-72064649D01*
X163748010Y-72064649D02*
X163814676Y-72097983D01*
X163814676Y-72097983D02*
X163848010Y-72131316D01*
X163848010Y-72131316D02*
X163881343Y-72197983D01*
X163881343Y-72197983D02*
X163881343Y-72397983D01*
X163881343Y-72397983D02*
X163848010Y-72464649D01*
X163848010Y-72464649D02*
X163814676Y-72497983D01*
X163148010Y-71264649D02*
X164048010Y-71864649D01*
X163881343Y-71031316D02*
X163181343Y-71031316D01*
X163181343Y-71031316D02*
X163681343Y-70797983D01*
X163681343Y-70797983D02*
X163181343Y-70564649D01*
X163181343Y-70564649D02*
X163881343Y-70564649D01*
X163181343Y-70331316D02*
X163181343Y-69931316D01*
X163881343Y-70131316D02*
X163181343Y-70131316D01*
X163814676Y-69297983D02*
X163848010Y-69331316D01*
X163848010Y-69331316D02*
X163881343Y-69431316D01*
X163881343Y-69431316D02*
X163881343Y-69497983D01*
X163881343Y-69497983D02*
X163848010Y-69597983D01*
X163848010Y-69597983D02*
X163781343Y-69664650D01*
X163781343Y-69664650D02*
X163714676Y-69697983D01*
X163714676Y-69697983D02*
X163581343Y-69731316D01*
X163581343Y-69731316D02*
X163481343Y-69731316D01*
X163481343Y-69731316D02*
X163348010Y-69697983D01*
X163348010Y-69697983D02*
X163281343Y-69664650D01*
X163281343Y-69664650D02*
X163214676Y-69597983D01*
X163214676Y-69597983D02*
X163181343Y-69497983D01*
X163181343Y-69497983D02*
X163181343Y-69431316D01*
X163181343Y-69431316D02*
X163214676Y-69331316D01*
X163214676Y-69331316D02*
X163248010Y-69297983D01*
X163881343Y-68997983D02*
X163181343Y-68997983D01*
X163881343Y-68597983D02*
X163481343Y-68897983D01*
X163181343Y-68597983D02*
X163581343Y-68997983D01*
X140354676Y-56335350D02*
X140321343Y-56402017D01*
X140321343Y-56402017D02*
X140321343Y-56502017D01*
X140321343Y-56502017D02*
X140354676Y-56602017D01*
X140354676Y-56602017D02*
X140421343Y-56668684D01*
X140421343Y-56668684D02*
X140488010Y-56702017D01*
X140488010Y-56702017D02*
X140621343Y-56735350D01*
X140621343Y-56735350D02*
X140721343Y-56735350D01*
X140721343Y-56735350D02*
X140854676Y-56702017D01*
X140854676Y-56702017D02*
X140921343Y-56668684D01*
X140921343Y-56668684D02*
X140988010Y-56602017D01*
X140988010Y-56602017D02*
X141021343Y-56502017D01*
X141021343Y-56502017D02*
X141021343Y-56435350D01*
X141021343Y-56435350D02*
X140988010Y-56335350D01*
X140988010Y-56335350D02*
X140954676Y-56302017D01*
X140954676Y-56302017D02*
X140721343Y-56302017D01*
X140721343Y-56302017D02*
X140721343Y-56435350D01*
X141021343Y-56002017D02*
X140321343Y-56002017D01*
X140321343Y-56002017D02*
X140321343Y-55735350D01*
X140321343Y-55735350D02*
X140354676Y-55668684D01*
X140354676Y-55668684D02*
X140388010Y-55635350D01*
X140388010Y-55635350D02*
X140454676Y-55602017D01*
X140454676Y-55602017D02*
X140554676Y-55602017D01*
X140554676Y-55602017D02*
X140621343Y-55635350D01*
X140621343Y-55635350D02*
X140654676Y-55668684D01*
X140654676Y-55668684D02*
X140688010Y-55735350D01*
X140688010Y-55735350D02*
X140688010Y-56002017D01*
X141021343Y-55302017D02*
X140321343Y-55302017D01*
X140321343Y-54835351D02*
X140321343Y-54702017D01*
X140321343Y-54702017D02*
X140354676Y-54635351D01*
X140354676Y-54635351D02*
X140421343Y-54568684D01*
X140421343Y-54568684D02*
X140554676Y-54535351D01*
X140554676Y-54535351D02*
X140788010Y-54535351D01*
X140788010Y-54535351D02*
X140921343Y-54568684D01*
X140921343Y-54568684D02*
X140988010Y-54635351D01*
X140988010Y-54635351D02*
X141021343Y-54702017D01*
X141021343Y-54702017D02*
X141021343Y-54835351D01*
X141021343Y-54835351D02*
X140988010Y-54902017D01*
X140988010Y-54902017D02*
X140921343Y-54968684D01*
X140921343Y-54968684D02*
X140788010Y-55002017D01*
X140788010Y-55002017D02*
X140554676Y-55002017D01*
X140554676Y-55002017D02*
X140421343Y-54968684D01*
X140421343Y-54968684D02*
X140354676Y-54902017D01*
X140354676Y-54902017D02*
X140321343Y-54835351D01*
X140388010Y-54268684D02*
X140354676Y-54235351D01*
X140354676Y-54235351D02*
X140321343Y-54168684D01*
X140321343Y-54168684D02*
X140321343Y-54002018D01*
X140321343Y-54002018D02*
X140354676Y-53935351D01*
X140354676Y-53935351D02*
X140388010Y-53902018D01*
X140388010Y-53902018D02*
X140454676Y-53868684D01*
X140454676Y-53868684D02*
X140521343Y-53868684D01*
X140521343Y-53868684D02*
X140621343Y-53902018D01*
X140621343Y-53902018D02*
X141021343Y-54302018D01*
X141021343Y-54302018D02*
X141021343Y-53868684D01*
X141021343Y-53202017D02*
X141021343Y-53602017D01*
X141021343Y-53402017D02*
X140321343Y-53402017D01*
X140321343Y-53402017D02*
X140421343Y-53468684D01*
X140421343Y-53468684D02*
X140488010Y-53535351D01*
X140488010Y-53535351D02*
X140521343Y-53602017D01*
X155594676Y-75197982D02*
X155561343Y-75264649D01*
X155561343Y-75264649D02*
X155561343Y-75364649D01*
X155561343Y-75364649D02*
X155594676Y-75464649D01*
X155594676Y-75464649D02*
X155661343Y-75531316D01*
X155661343Y-75531316D02*
X155728010Y-75564649D01*
X155728010Y-75564649D02*
X155861343Y-75597982D01*
X155861343Y-75597982D02*
X155961343Y-75597982D01*
X155961343Y-75597982D02*
X156094676Y-75564649D01*
X156094676Y-75564649D02*
X156161343Y-75531316D01*
X156161343Y-75531316D02*
X156228010Y-75464649D01*
X156228010Y-75464649D02*
X156261343Y-75364649D01*
X156261343Y-75364649D02*
X156261343Y-75297982D01*
X156261343Y-75297982D02*
X156228010Y-75197982D01*
X156228010Y-75197982D02*
X156194676Y-75164649D01*
X156194676Y-75164649D02*
X155961343Y-75164649D01*
X155961343Y-75164649D02*
X155961343Y-75297982D01*
X156261343Y-74864649D02*
X155561343Y-74864649D01*
X155561343Y-74864649D02*
X155561343Y-74597982D01*
X155561343Y-74597982D02*
X155594676Y-74531316D01*
X155594676Y-74531316D02*
X155628010Y-74497982D01*
X155628010Y-74497982D02*
X155694676Y-74464649D01*
X155694676Y-74464649D02*
X155794676Y-74464649D01*
X155794676Y-74464649D02*
X155861343Y-74497982D01*
X155861343Y-74497982D02*
X155894676Y-74531316D01*
X155894676Y-74531316D02*
X155928010Y-74597982D01*
X155928010Y-74597982D02*
X155928010Y-74864649D01*
X156261343Y-74164649D02*
X155561343Y-74164649D01*
X155561343Y-73697983D02*
X155561343Y-73564649D01*
X155561343Y-73564649D02*
X155594676Y-73497983D01*
X155594676Y-73497983D02*
X155661343Y-73431316D01*
X155661343Y-73431316D02*
X155794676Y-73397983D01*
X155794676Y-73397983D02*
X156028010Y-73397983D01*
X156028010Y-73397983D02*
X156161343Y-73431316D01*
X156161343Y-73431316D02*
X156228010Y-73497983D01*
X156228010Y-73497983D02*
X156261343Y-73564649D01*
X156261343Y-73564649D02*
X156261343Y-73697983D01*
X156261343Y-73697983D02*
X156228010Y-73764649D01*
X156228010Y-73764649D02*
X156161343Y-73831316D01*
X156161343Y-73831316D02*
X156028010Y-73864649D01*
X156028010Y-73864649D02*
X155794676Y-73864649D01*
X155794676Y-73864649D02*
X155661343Y-73831316D01*
X155661343Y-73831316D02*
X155594676Y-73764649D01*
X155594676Y-73764649D02*
X155561343Y-73697983D01*
X156261343Y-72731316D02*
X156261343Y-73131316D01*
X156261343Y-72931316D02*
X155561343Y-72931316D01*
X155561343Y-72931316D02*
X155661343Y-72997983D01*
X155661343Y-72997983D02*
X155728010Y-73064650D01*
X155728010Y-73064650D02*
X155761343Y-73131316D01*
X155794676Y-72131316D02*
X156261343Y-72131316D01*
X155528010Y-72297983D02*
X156028010Y-72464649D01*
X156028010Y-72464649D02*
X156028010Y-72031316D01*
X155528010Y-71264649D02*
X156428010Y-71864649D01*
X156261343Y-71031316D02*
X155561343Y-71031316D01*
X155561343Y-71031316D02*
X156061343Y-70797983D01*
X156061343Y-70797983D02*
X155561343Y-70564649D01*
X155561343Y-70564649D02*
X156261343Y-70564649D01*
X155561343Y-70331316D02*
X155561343Y-69931316D01*
X156261343Y-70131316D02*
X155561343Y-70131316D01*
X156261343Y-69697983D02*
X155561343Y-69697983D01*
X155561343Y-69697983D02*
X156061343Y-69464650D01*
X156061343Y-69464650D02*
X155561343Y-69231316D01*
X155561343Y-69231316D02*
X156261343Y-69231316D01*
X156228010Y-68931316D02*
X156261343Y-68831316D01*
X156261343Y-68831316D02*
X156261343Y-68664650D01*
X156261343Y-68664650D02*
X156228010Y-68597983D01*
X156228010Y-68597983D02*
X156194676Y-68564650D01*
X156194676Y-68564650D02*
X156128010Y-68531316D01*
X156128010Y-68531316D02*
X156061343Y-68531316D01*
X156061343Y-68531316D02*
X155994676Y-68564650D01*
X155994676Y-68564650D02*
X155961343Y-68597983D01*
X155961343Y-68597983D02*
X155928010Y-68664650D01*
X155928010Y-68664650D02*
X155894676Y-68797983D01*
X155894676Y-68797983D02*
X155861343Y-68864650D01*
X155861343Y-68864650D02*
X155828010Y-68897983D01*
X155828010Y-68897983D02*
X155761343Y-68931316D01*
X155761343Y-68931316D02*
X155694676Y-68931316D01*
X155694676Y-68931316D02*
X155628010Y-68897983D01*
X155628010Y-68897983D02*
X155594676Y-68864650D01*
X155594676Y-68864650D02*
X155561343Y-68797983D01*
X155561343Y-68797983D02*
X155561343Y-68631316D01*
X155561343Y-68631316D02*
X155594676Y-68531316D01*
X137814676Y-59868683D02*
X137781343Y-59935350D01*
X137781343Y-59935350D02*
X137781343Y-60035350D01*
X137781343Y-60035350D02*
X137814676Y-60135350D01*
X137814676Y-60135350D02*
X137881343Y-60202017D01*
X137881343Y-60202017D02*
X137948010Y-60235350D01*
X137948010Y-60235350D02*
X138081343Y-60268683D01*
X138081343Y-60268683D02*
X138181343Y-60268683D01*
X138181343Y-60268683D02*
X138314676Y-60235350D01*
X138314676Y-60235350D02*
X138381343Y-60202017D01*
X138381343Y-60202017D02*
X138448010Y-60135350D01*
X138448010Y-60135350D02*
X138481343Y-60035350D01*
X138481343Y-60035350D02*
X138481343Y-59968683D01*
X138481343Y-59968683D02*
X138448010Y-59868683D01*
X138448010Y-59868683D02*
X138414676Y-59835350D01*
X138414676Y-59835350D02*
X138181343Y-59835350D01*
X138181343Y-59835350D02*
X138181343Y-59968683D01*
X138481343Y-59535350D02*
X137781343Y-59535350D01*
X137781343Y-59535350D02*
X137781343Y-59268683D01*
X137781343Y-59268683D02*
X137814676Y-59202017D01*
X137814676Y-59202017D02*
X137848010Y-59168683D01*
X137848010Y-59168683D02*
X137914676Y-59135350D01*
X137914676Y-59135350D02*
X138014676Y-59135350D01*
X138014676Y-59135350D02*
X138081343Y-59168683D01*
X138081343Y-59168683D02*
X138114676Y-59202017D01*
X138114676Y-59202017D02*
X138148010Y-59268683D01*
X138148010Y-59268683D02*
X138148010Y-59535350D01*
X138481343Y-58835350D02*
X137781343Y-58835350D01*
X137781343Y-58368684D02*
X137781343Y-58235350D01*
X137781343Y-58235350D02*
X137814676Y-58168684D01*
X137814676Y-58168684D02*
X137881343Y-58102017D01*
X137881343Y-58102017D02*
X138014676Y-58068684D01*
X138014676Y-58068684D02*
X138248010Y-58068684D01*
X138248010Y-58068684D02*
X138381343Y-58102017D01*
X138381343Y-58102017D02*
X138448010Y-58168684D01*
X138448010Y-58168684D02*
X138481343Y-58235350D01*
X138481343Y-58235350D02*
X138481343Y-58368684D01*
X138481343Y-58368684D02*
X138448010Y-58435350D01*
X138448010Y-58435350D02*
X138381343Y-58502017D01*
X138381343Y-58502017D02*
X138248010Y-58535350D01*
X138248010Y-58535350D02*
X138014676Y-58535350D01*
X138014676Y-58535350D02*
X137881343Y-58502017D01*
X137881343Y-58502017D02*
X137814676Y-58435350D01*
X137814676Y-58435350D02*
X137781343Y-58368684D01*
X137781343Y-57835351D02*
X137781343Y-57402017D01*
X137781343Y-57402017D02*
X138048010Y-57635351D01*
X138048010Y-57635351D02*
X138048010Y-57535351D01*
X138048010Y-57535351D02*
X138081343Y-57468684D01*
X138081343Y-57468684D02*
X138114676Y-57435351D01*
X138114676Y-57435351D02*
X138181343Y-57402017D01*
X138181343Y-57402017D02*
X138348010Y-57402017D01*
X138348010Y-57402017D02*
X138414676Y-57435351D01*
X138414676Y-57435351D02*
X138448010Y-57468684D01*
X138448010Y-57468684D02*
X138481343Y-57535351D01*
X138481343Y-57535351D02*
X138481343Y-57735351D01*
X138481343Y-57735351D02*
X138448010Y-57802017D01*
X138448010Y-57802017D02*
X138414676Y-57835351D01*
X137748010Y-56602017D02*
X138648010Y-57202017D01*
X137781343Y-56368684D02*
X138348010Y-56368684D01*
X138348010Y-56368684D02*
X138414676Y-56335351D01*
X138414676Y-56335351D02*
X138448010Y-56302017D01*
X138448010Y-56302017D02*
X138481343Y-56235351D01*
X138481343Y-56235351D02*
X138481343Y-56102017D01*
X138481343Y-56102017D02*
X138448010Y-56035351D01*
X138448010Y-56035351D02*
X138414676Y-56002017D01*
X138414676Y-56002017D02*
X138348010Y-55968684D01*
X138348010Y-55968684D02*
X137781343Y-55968684D01*
X137781343Y-55502018D02*
X137781343Y-55435351D01*
X137781343Y-55435351D02*
X137814676Y-55368684D01*
X137814676Y-55368684D02*
X137848010Y-55335351D01*
X137848010Y-55335351D02*
X137914676Y-55302018D01*
X137914676Y-55302018D02*
X138048010Y-55268684D01*
X138048010Y-55268684D02*
X138214676Y-55268684D01*
X138214676Y-55268684D02*
X138348010Y-55302018D01*
X138348010Y-55302018D02*
X138414676Y-55335351D01*
X138414676Y-55335351D02*
X138448010Y-55368684D01*
X138448010Y-55368684D02*
X138481343Y-55435351D01*
X138481343Y-55435351D02*
X138481343Y-55502018D01*
X138481343Y-55502018D02*
X138448010Y-55568684D01*
X138448010Y-55568684D02*
X138414676Y-55602018D01*
X138414676Y-55602018D02*
X138348010Y-55635351D01*
X138348010Y-55635351D02*
X138214676Y-55668684D01*
X138214676Y-55668684D02*
X138048010Y-55668684D01*
X138048010Y-55668684D02*
X137914676Y-55635351D01*
X137914676Y-55635351D02*
X137848010Y-55602018D01*
X137848010Y-55602018D02*
X137814676Y-55568684D01*
X137814676Y-55568684D02*
X137781343Y-55502018D01*
X138481343Y-54568684D02*
X138148010Y-54802017D01*
X138481343Y-54968684D02*
X137781343Y-54968684D01*
X137781343Y-54968684D02*
X137781343Y-54702017D01*
X137781343Y-54702017D02*
X137814676Y-54635351D01*
X137814676Y-54635351D02*
X137848010Y-54602017D01*
X137848010Y-54602017D02*
X137914676Y-54568684D01*
X137914676Y-54568684D02*
X138014676Y-54568684D01*
X138014676Y-54568684D02*
X138081343Y-54602017D01*
X138081343Y-54602017D02*
X138114676Y-54635351D01*
X138114676Y-54635351D02*
X138148010Y-54702017D01*
X138148010Y-54702017D02*
X138148010Y-54968684D01*
X137781343Y-54335351D02*
X138481343Y-53868684D01*
X137781343Y-53868684D02*
X138481343Y-54335351D01*
X138481343Y-53602017D02*
X137781343Y-53602017D01*
X137781343Y-53602017D02*
X137781343Y-53435350D01*
X137781343Y-53435350D02*
X137814676Y-53335350D01*
X137814676Y-53335350D02*
X137881343Y-53268684D01*
X137881343Y-53268684D02*
X137948010Y-53235350D01*
X137948010Y-53235350D02*
X138081343Y-53202017D01*
X138081343Y-53202017D02*
X138181343Y-53202017D01*
X138181343Y-53202017D02*
X138314676Y-53235350D01*
X138314676Y-53235350D02*
X138381343Y-53268684D01*
X138381343Y-53268684D02*
X138448010Y-53335350D01*
X138448010Y-53335350D02*
X138481343Y-53435350D01*
X138481343Y-53435350D02*
X138481343Y-53602017D01*
X155594676Y-56335350D02*
X155561343Y-56402017D01*
X155561343Y-56402017D02*
X155561343Y-56502017D01*
X155561343Y-56502017D02*
X155594676Y-56602017D01*
X155594676Y-56602017D02*
X155661343Y-56668684D01*
X155661343Y-56668684D02*
X155728010Y-56702017D01*
X155728010Y-56702017D02*
X155861343Y-56735350D01*
X155861343Y-56735350D02*
X155961343Y-56735350D01*
X155961343Y-56735350D02*
X156094676Y-56702017D01*
X156094676Y-56702017D02*
X156161343Y-56668684D01*
X156161343Y-56668684D02*
X156228010Y-56602017D01*
X156228010Y-56602017D02*
X156261343Y-56502017D01*
X156261343Y-56502017D02*
X156261343Y-56435350D01*
X156261343Y-56435350D02*
X156228010Y-56335350D01*
X156228010Y-56335350D02*
X156194676Y-56302017D01*
X156194676Y-56302017D02*
X155961343Y-56302017D01*
X155961343Y-56302017D02*
X155961343Y-56435350D01*
X156261343Y-56002017D02*
X155561343Y-56002017D01*
X155561343Y-56002017D02*
X155561343Y-55735350D01*
X155561343Y-55735350D02*
X155594676Y-55668684D01*
X155594676Y-55668684D02*
X155628010Y-55635350D01*
X155628010Y-55635350D02*
X155694676Y-55602017D01*
X155694676Y-55602017D02*
X155794676Y-55602017D01*
X155794676Y-55602017D02*
X155861343Y-55635350D01*
X155861343Y-55635350D02*
X155894676Y-55668684D01*
X155894676Y-55668684D02*
X155928010Y-55735350D01*
X155928010Y-55735350D02*
X155928010Y-56002017D01*
X156261343Y-55302017D02*
X155561343Y-55302017D01*
X155561343Y-54835351D02*
X155561343Y-54702017D01*
X155561343Y-54702017D02*
X155594676Y-54635351D01*
X155594676Y-54635351D02*
X155661343Y-54568684D01*
X155661343Y-54568684D02*
X155794676Y-54535351D01*
X155794676Y-54535351D02*
X156028010Y-54535351D01*
X156028010Y-54535351D02*
X156161343Y-54568684D01*
X156161343Y-54568684D02*
X156228010Y-54635351D01*
X156228010Y-54635351D02*
X156261343Y-54702017D01*
X156261343Y-54702017D02*
X156261343Y-54835351D01*
X156261343Y-54835351D02*
X156228010Y-54902017D01*
X156228010Y-54902017D02*
X156161343Y-54968684D01*
X156161343Y-54968684D02*
X156028010Y-55002017D01*
X156028010Y-55002017D02*
X155794676Y-55002017D01*
X155794676Y-55002017D02*
X155661343Y-54968684D01*
X155661343Y-54968684D02*
X155594676Y-54902017D01*
X155594676Y-54902017D02*
X155561343Y-54835351D01*
X156261343Y-53868684D02*
X156261343Y-54268684D01*
X156261343Y-54068684D02*
X155561343Y-54068684D01*
X155561343Y-54068684D02*
X155661343Y-54135351D01*
X155661343Y-54135351D02*
X155728010Y-54202018D01*
X155728010Y-54202018D02*
X155761343Y-54268684D01*
X155561343Y-53268684D02*
X155561343Y-53402017D01*
X155561343Y-53402017D02*
X155594676Y-53468684D01*
X155594676Y-53468684D02*
X155628010Y-53502017D01*
X155628010Y-53502017D02*
X155728010Y-53568684D01*
X155728010Y-53568684D02*
X155861343Y-53602017D01*
X155861343Y-53602017D02*
X156128010Y-53602017D01*
X156128010Y-53602017D02*
X156194676Y-53568684D01*
X156194676Y-53568684D02*
X156228010Y-53535351D01*
X156228010Y-53535351D02*
X156261343Y-53468684D01*
X156261343Y-53468684D02*
X156261343Y-53335351D01*
X156261343Y-53335351D02*
X156228010Y-53268684D01*
X156228010Y-53268684D02*
X156194676Y-53235351D01*
X156194676Y-53235351D02*
X156128010Y-53202017D01*
X156128010Y-53202017D02*
X155961343Y-53202017D01*
X155961343Y-53202017D02*
X155894676Y-53235351D01*
X155894676Y-53235351D02*
X155861343Y-53268684D01*
X155861343Y-53268684D02*
X155828010Y-53335351D01*
X155828010Y-53335351D02*
X155828010Y-53468684D01*
X155828010Y-53468684D02*
X155861343Y-53535351D01*
X155861343Y-53535351D02*
X155894676Y-53568684D01*
X155894676Y-53568684D02*
X155961343Y-53602017D01*
X158134676Y-75197982D02*
X158101343Y-75264649D01*
X158101343Y-75264649D02*
X158101343Y-75364649D01*
X158101343Y-75364649D02*
X158134676Y-75464649D01*
X158134676Y-75464649D02*
X158201343Y-75531316D01*
X158201343Y-75531316D02*
X158268010Y-75564649D01*
X158268010Y-75564649D02*
X158401343Y-75597982D01*
X158401343Y-75597982D02*
X158501343Y-75597982D01*
X158501343Y-75597982D02*
X158634676Y-75564649D01*
X158634676Y-75564649D02*
X158701343Y-75531316D01*
X158701343Y-75531316D02*
X158768010Y-75464649D01*
X158768010Y-75464649D02*
X158801343Y-75364649D01*
X158801343Y-75364649D02*
X158801343Y-75297982D01*
X158801343Y-75297982D02*
X158768010Y-75197982D01*
X158768010Y-75197982D02*
X158734676Y-75164649D01*
X158734676Y-75164649D02*
X158501343Y-75164649D01*
X158501343Y-75164649D02*
X158501343Y-75297982D01*
X158801343Y-74864649D02*
X158101343Y-74864649D01*
X158101343Y-74864649D02*
X158101343Y-74597982D01*
X158101343Y-74597982D02*
X158134676Y-74531316D01*
X158134676Y-74531316D02*
X158168010Y-74497982D01*
X158168010Y-74497982D02*
X158234676Y-74464649D01*
X158234676Y-74464649D02*
X158334676Y-74464649D01*
X158334676Y-74464649D02*
X158401343Y-74497982D01*
X158401343Y-74497982D02*
X158434676Y-74531316D01*
X158434676Y-74531316D02*
X158468010Y-74597982D01*
X158468010Y-74597982D02*
X158468010Y-74864649D01*
X158801343Y-74164649D02*
X158101343Y-74164649D01*
X158101343Y-73697983D02*
X158101343Y-73564649D01*
X158101343Y-73564649D02*
X158134676Y-73497983D01*
X158134676Y-73497983D02*
X158201343Y-73431316D01*
X158201343Y-73431316D02*
X158334676Y-73397983D01*
X158334676Y-73397983D02*
X158568010Y-73397983D01*
X158568010Y-73397983D02*
X158701343Y-73431316D01*
X158701343Y-73431316D02*
X158768010Y-73497983D01*
X158768010Y-73497983D02*
X158801343Y-73564649D01*
X158801343Y-73564649D02*
X158801343Y-73697983D01*
X158801343Y-73697983D02*
X158768010Y-73764649D01*
X158768010Y-73764649D02*
X158701343Y-73831316D01*
X158701343Y-73831316D02*
X158568010Y-73864649D01*
X158568010Y-73864649D02*
X158334676Y-73864649D01*
X158334676Y-73864649D02*
X158201343Y-73831316D01*
X158201343Y-73831316D02*
X158134676Y-73764649D01*
X158134676Y-73764649D02*
X158101343Y-73697983D01*
X158801343Y-72731316D02*
X158801343Y-73131316D01*
X158801343Y-72931316D02*
X158101343Y-72931316D01*
X158101343Y-72931316D02*
X158201343Y-72997983D01*
X158201343Y-72997983D02*
X158268010Y-73064650D01*
X158268010Y-73064650D02*
X158301343Y-73131316D01*
X158168010Y-72464649D02*
X158134676Y-72431316D01*
X158134676Y-72431316D02*
X158101343Y-72364649D01*
X158101343Y-72364649D02*
X158101343Y-72197983D01*
X158101343Y-72197983D02*
X158134676Y-72131316D01*
X158134676Y-72131316D02*
X158168010Y-72097983D01*
X158168010Y-72097983D02*
X158234676Y-72064649D01*
X158234676Y-72064649D02*
X158301343Y-72064649D01*
X158301343Y-72064649D02*
X158401343Y-72097983D01*
X158401343Y-72097983D02*
X158801343Y-72497983D01*
X158801343Y-72497983D02*
X158801343Y-72064649D01*
X158068010Y-71264649D02*
X158968010Y-71864649D01*
X158801343Y-71031316D02*
X158101343Y-71031316D01*
X158101343Y-71031316D02*
X158601343Y-70797983D01*
X158601343Y-70797983D02*
X158101343Y-70564649D01*
X158101343Y-70564649D02*
X158801343Y-70564649D01*
X158101343Y-70331316D02*
X158101343Y-69931316D01*
X158801343Y-70131316D02*
X158101343Y-70131316D01*
X158801343Y-69697983D02*
X158101343Y-69697983D01*
X158101343Y-69697983D02*
X158101343Y-69531316D01*
X158101343Y-69531316D02*
X158134676Y-69431316D01*
X158134676Y-69431316D02*
X158201343Y-69364650D01*
X158201343Y-69364650D02*
X158268010Y-69331316D01*
X158268010Y-69331316D02*
X158401343Y-69297983D01*
X158401343Y-69297983D02*
X158501343Y-69297983D01*
X158501343Y-69297983D02*
X158634676Y-69331316D01*
X158634676Y-69331316D02*
X158701343Y-69364650D01*
X158701343Y-69364650D02*
X158768010Y-69431316D01*
X158768010Y-69431316D02*
X158801343Y-69531316D01*
X158801343Y-69531316D02*
X158801343Y-69697983D01*
X158801343Y-68997983D02*
X158101343Y-68997983D01*
X147974676Y-56335350D02*
X147941343Y-56402017D01*
X147941343Y-56402017D02*
X147941343Y-56502017D01*
X147941343Y-56502017D02*
X147974676Y-56602017D01*
X147974676Y-56602017D02*
X148041343Y-56668684D01*
X148041343Y-56668684D02*
X148108010Y-56702017D01*
X148108010Y-56702017D02*
X148241343Y-56735350D01*
X148241343Y-56735350D02*
X148341343Y-56735350D01*
X148341343Y-56735350D02*
X148474676Y-56702017D01*
X148474676Y-56702017D02*
X148541343Y-56668684D01*
X148541343Y-56668684D02*
X148608010Y-56602017D01*
X148608010Y-56602017D02*
X148641343Y-56502017D01*
X148641343Y-56502017D02*
X148641343Y-56435350D01*
X148641343Y-56435350D02*
X148608010Y-56335350D01*
X148608010Y-56335350D02*
X148574676Y-56302017D01*
X148574676Y-56302017D02*
X148341343Y-56302017D01*
X148341343Y-56302017D02*
X148341343Y-56435350D01*
X148641343Y-56002017D02*
X147941343Y-56002017D01*
X147941343Y-56002017D02*
X147941343Y-55735350D01*
X147941343Y-55735350D02*
X147974676Y-55668684D01*
X147974676Y-55668684D02*
X148008010Y-55635350D01*
X148008010Y-55635350D02*
X148074676Y-55602017D01*
X148074676Y-55602017D02*
X148174676Y-55602017D01*
X148174676Y-55602017D02*
X148241343Y-55635350D01*
X148241343Y-55635350D02*
X148274676Y-55668684D01*
X148274676Y-55668684D02*
X148308010Y-55735350D01*
X148308010Y-55735350D02*
X148308010Y-56002017D01*
X148641343Y-55302017D02*
X147941343Y-55302017D01*
X147941343Y-54835351D02*
X147941343Y-54702017D01*
X147941343Y-54702017D02*
X147974676Y-54635351D01*
X147974676Y-54635351D02*
X148041343Y-54568684D01*
X148041343Y-54568684D02*
X148174676Y-54535351D01*
X148174676Y-54535351D02*
X148408010Y-54535351D01*
X148408010Y-54535351D02*
X148541343Y-54568684D01*
X148541343Y-54568684D02*
X148608010Y-54635351D01*
X148608010Y-54635351D02*
X148641343Y-54702017D01*
X148641343Y-54702017D02*
X148641343Y-54835351D01*
X148641343Y-54835351D02*
X148608010Y-54902017D01*
X148608010Y-54902017D02*
X148541343Y-54968684D01*
X148541343Y-54968684D02*
X148408010Y-55002017D01*
X148408010Y-55002017D02*
X148174676Y-55002017D01*
X148174676Y-55002017D02*
X148041343Y-54968684D01*
X148041343Y-54968684D02*
X147974676Y-54902017D01*
X147974676Y-54902017D02*
X147941343Y-54835351D01*
X148641343Y-53868684D02*
X148641343Y-54268684D01*
X148641343Y-54068684D02*
X147941343Y-54068684D01*
X147941343Y-54068684D02*
X148041343Y-54135351D01*
X148041343Y-54135351D02*
X148108010Y-54202018D01*
X148108010Y-54202018D02*
X148141343Y-54268684D01*
X148241343Y-53468684D02*
X148208010Y-53535351D01*
X148208010Y-53535351D02*
X148174676Y-53568684D01*
X148174676Y-53568684D02*
X148108010Y-53602017D01*
X148108010Y-53602017D02*
X148074676Y-53602017D01*
X148074676Y-53602017D02*
X148008010Y-53568684D01*
X148008010Y-53568684D02*
X147974676Y-53535351D01*
X147974676Y-53535351D02*
X147941343Y-53468684D01*
X147941343Y-53468684D02*
X147941343Y-53335351D01*
X147941343Y-53335351D02*
X147974676Y-53268684D01*
X147974676Y-53268684D02*
X148008010Y-53235351D01*
X148008010Y-53235351D02*
X148074676Y-53202017D01*
X148074676Y-53202017D02*
X148108010Y-53202017D01*
X148108010Y-53202017D02*
X148174676Y-53235351D01*
X148174676Y-53235351D02*
X148208010Y-53268684D01*
X148208010Y-53268684D02*
X148241343Y-53335351D01*
X148241343Y-53335351D02*
X148241343Y-53468684D01*
X148241343Y-53468684D02*
X148274676Y-53535351D01*
X148274676Y-53535351D02*
X148308010Y-53568684D01*
X148308010Y-53568684D02*
X148374676Y-53602017D01*
X148374676Y-53602017D02*
X148508010Y-53602017D01*
X148508010Y-53602017D02*
X148574676Y-53568684D01*
X148574676Y-53568684D02*
X148608010Y-53535351D01*
X148608010Y-53535351D02*
X148641343Y-53468684D01*
X148641343Y-53468684D02*
X148641343Y-53335351D01*
X148641343Y-53335351D02*
X148608010Y-53268684D01*
X148608010Y-53268684D02*
X148574676Y-53235351D01*
X148574676Y-53235351D02*
X148508010Y-53202017D01*
X148508010Y-53202017D02*
X148374676Y-53202017D01*
X148374676Y-53202017D02*
X148308010Y-53235351D01*
X148308010Y-53235351D02*
X148274676Y-53268684D01*
X148274676Y-53268684D02*
X148241343Y-53335351D01*
X168961343Y-75564649D02*
X168261343Y-75564649D01*
X168261343Y-75564649D02*
X168261343Y-75397982D01*
X168261343Y-75397982D02*
X168294676Y-75297982D01*
X168294676Y-75297982D02*
X168361343Y-75231316D01*
X168361343Y-75231316D02*
X168428010Y-75197982D01*
X168428010Y-75197982D02*
X168561343Y-75164649D01*
X168561343Y-75164649D02*
X168661343Y-75164649D01*
X168661343Y-75164649D02*
X168794676Y-75197982D01*
X168794676Y-75197982D02*
X168861343Y-75231316D01*
X168861343Y-75231316D02*
X168928010Y-75297982D01*
X168928010Y-75297982D02*
X168961343Y-75397982D01*
X168961343Y-75397982D02*
X168961343Y-75564649D01*
X168261343Y-74931316D02*
X168261343Y-74497982D01*
X168261343Y-74497982D02*
X168528010Y-74731316D01*
X168528010Y-74731316D02*
X168528010Y-74631316D01*
X168528010Y-74631316D02*
X168561343Y-74564649D01*
X168561343Y-74564649D02*
X168594676Y-74531316D01*
X168594676Y-74531316D02*
X168661343Y-74497982D01*
X168661343Y-74497982D02*
X168828010Y-74497982D01*
X168828010Y-74497982D02*
X168894676Y-74531316D01*
X168894676Y-74531316D02*
X168928010Y-74564649D01*
X168928010Y-74564649D02*
X168961343Y-74631316D01*
X168961343Y-74631316D02*
X168961343Y-74831316D01*
X168961343Y-74831316D02*
X168928010Y-74897982D01*
X168928010Y-74897982D02*
X168894676Y-74931316D01*
X137814676Y-75197982D02*
X137781343Y-75264649D01*
X137781343Y-75264649D02*
X137781343Y-75364649D01*
X137781343Y-75364649D02*
X137814676Y-75464649D01*
X137814676Y-75464649D02*
X137881343Y-75531316D01*
X137881343Y-75531316D02*
X137948010Y-75564649D01*
X137948010Y-75564649D02*
X138081343Y-75597982D01*
X138081343Y-75597982D02*
X138181343Y-75597982D01*
X138181343Y-75597982D02*
X138314676Y-75564649D01*
X138314676Y-75564649D02*
X138381343Y-75531316D01*
X138381343Y-75531316D02*
X138448010Y-75464649D01*
X138448010Y-75464649D02*
X138481343Y-75364649D01*
X138481343Y-75364649D02*
X138481343Y-75297982D01*
X138481343Y-75297982D02*
X138448010Y-75197982D01*
X138448010Y-75197982D02*
X138414676Y-75164649D01*
X138414676Y-75164649D02*
X138181343Y-75164649D01*
X138181343Y-75164649D02*
X138181343Y-75297982D01*
X138481343Y-74864649D02*
X137781343Y-74864649D01*
X137781343Y-74864649D02*
X137781343Y-74597982D01*
X137781343Y-74597982D02*
X137814676Y-74531316D01*
X137814676Y-74531316D02*
X137848010Y-74497982D01*
X137848010Y-74497982D02*
X137914676Y-74464649D01*
X137914676Y-74464649D02*
X138014676Y-74464649D01*
X138014676Y-74464649D02*
X138081343Y-74497982D01*
X138081343Y-74497982D02*
X138114676Y-74531316D01*
X138114676Y-74531316D02*
X138148010Y-74597982D01*
X138148010Y-74597982D02*
X138148010Y-74864649D01*
X138481343Y-74164649D02*
X137781343Y-74164649D01*
X137781343Y-73697983D02*
X137781343Y-73564649D01*
X137781343Y-73564649D02*
X137814676Y-73497983D01*
X137814676Y-73497983D02*
X137881343Y-73431316D01*
X137881343Y-73431316D02*
X138014676Y-73397983D01*
X138014676Y-73397983D02*
X138248010Y-73397983D01*
X138248010Y-73397983D02*
X138381343Y-73431316D01*
X138381343Y-73431316D02*
X138448010Y-73497983D01*
X138448010Y-73497983D02*
X138481343Y-73564649D01*
X138481343Y-73564649D02*
X138481343Y-73697983D01*
X138481343Y-73697983D02*
X138448010Y-73764649D01*
X138448010Y-73764649D02*
X138381343Y-73831316D01*
X138381343Y-73831316D02*
X138248010Y-73864649D01*
X138248010Y-73864649D02*
X138014676Y-73864649D01*
X138014676Y-73864649D02*
X137881343Y-73831316D01*
X137881343Y-73831316D02*
X137814676Y-73764649D01*
X137814676Y-73764649D02*
X137781343Y-73697983D01*
X137781343Y-73164650D02*
X137781343Y-72731316D01*
X137781343Y-72731316D02*
X138048010Y-72964650D01*
X138048010Y-72964650D02*
X138048010Y-72864650D01*
X138048010Y-72864650D02*
X138081343Y-72797983D01*
X138081343Y-72797983D02*
X138114676Y-72764650D01*
X138114676Y-72764650D02*
X138181343Y-72731316D01*
X138181343Y-72731316D02*
X138348010Y-72731316D01*
X138348010Y-72731316D02*
X138414676Y-72764650D01*
X138414676Y-72764650D02*
X138448010Y-72797983D01*
X138448010Y-72797983D02*
X138481343Y-72864650D01*
X138481343Y-72864650D02*
X138481343Y-73064650D01*
X138481343Y-73064650D02*
X138448010Y-73131316D01*
X138448010Y-73131316D02*
X138414676Y-73164650D01*
X138014676Y-72131316D02*
X138481343Y-72131316D01*
X137748010Y-72297983D02*
X138248010Y-72464649D01*
X138248010Y-72464649D02*
X138248010Y-72031316D01*
X142894676Y-75197982D02*
X142861343Y-75264649D01*
X142861343Y-75264649D02*
X142861343Y-75364649D01*
X142861343Y-75364649D02*
X142894676Y-75464649D01*
X142894676Y-75464649D02*
X142961343Y-75531316D01*
X142961343Y-75531316D02*
X143028010Y-75564649D01*
X143028010Y-75564649D02*
X143161343Y-75597982D01*
X143161343Y-75597982D02*
X143261343Y-75597982D01*
X143261343Y-75597982D02*
X143394676Y-75564649D01*
X143394676Y-75564649D02*
X143461343Y-75531316D01*
X143461343Y-75531316D02*
X143528010Y-75464649D01*
X143528010Y-75464649D02*
X143561343Y-75364649D01*
X143561343Y-75364649D02*
X143561343Y-75297982D01*
X143561343Y-75297982D02*
X143528010Y-75197982D01*
X143528010Y-75197982D02*
X143494676Y-75164649D01*
X143494676Y-75164649D02*
X143261343Y-75164649D01*
X143261343Y-75164649D02*
X143261343Y-75297982D01*
X143561343Y-74864649D02*
X142861343Y-74864649D01*
X142861343Y-74864649D02*
X142861343Y-74597982D01*
X142861343Y-74597982D02*
X142894676Y-74531316D01*
X142894676Y-74531316D02*
X142928010Y-74497982D01*
X142928010Y-74497982D02*
X142994676Y-74464649D01*
X142994676Y-74464649D02*
X143094676Y-74464649D01*
X143094676Y-74464649D02*
X143161343Y-74497982D01*
X143161343Y-74497982D02*
X143194676Y-74531316D01*
X143194676Y-74531316D02*
X143228010Y-74597982D01*
X143228010Y-74597982D02*
X143228010Y-74864649D01*
X143561343Y-74164649D02*
X142861343Y-74164649D01*
X142861343Y-73697983D02*
X142861343Y-73564649D01*
X142861343Y-73564649D02*
X142894676Y-73497983D01*
X142894676Y-73497983D02*
X142961343Y-73431316D01*
X142961343Y-73431316D02*
X143094676Y-73397983D01*
X143094676Y-73397983D02*
X143328010Y-73397983D01*
X143328010Y-73397983D02*
X143461343Y-73431316D01*
X143461343Y-73431316D02*
X143528010Y-73497983D01*
X143528010Y-73497983D02*
X143561343Y-73564649D01*
X143561343Y-73564649D02*
X143561343Y-73697983D01*
X143561343Y-73697983D02*
X143528010Y-73764649D01*
X143528010Y-73764649D02*
X143461343Y-73831316D01*
X143461343Y-73831316D02*
X143328010Y-73864649D01*
X143328010Y-73864649D02*
X143094676Y-73864649D01*
X143094676Y-73864649D02*
X142961343Y-73831316D01*
X142961343Y-73831316D02*
X142894676Y-73764649D01*
X142894676Y-73764649D02*
X142861343Y-73697983D01*
X142861343Y-73164650D02*
X142861343Y-72731316D01*
X142861343Y-72731316D02*
X143128010Y-72964650D01*
X143128010Y-72964650D02*
X143128010Y-72864650D01*
X143128010Y-72864650D02*
X143161343Y-72797983D01*
X143161343Y-72797983D02*
X143194676Y-72764650D01*
X143194676Y-72764650D02*
X143261343Y-72731316D01*
X143261343Y-72731316D02*
X143428010Y-72731316D01*
X143428010Y-72731316D02*
X143494676Y-72764650D01*
X143494676Y-72764650D02*
X143528010Y-72797983D01*
X143528010Y-72797983D02*
X143561343Y-72864650D01*
X143561343Y-72864650D02*
X143561343Y-73064650D01*
X143561343Y-73064650D02*
X143528010Y-73131316D01*
X143528010Y-73131316D02*
X143494676Y-73164650D01*
X142928010Y-72464649D02*
X142894676Y-72431316D01*
X142894676Y-72431316D02*
X142861343Y-72364649D01*
X142861343Y-72364649D02*
X142861343Y-72197983D01*
X142861343Y-72197983D02*
X142894676Y-72131316D01*
X142894676Y-72131316D02*
X142928010Y-72097983D01*
X142928010Y-72097983D02*
X142994676Y-72064649D01*
X142994676Y-72064649D02*
X143061343Y-72064649D01*
X143061343Y-72064649D02*
X143161343Y-72097983D01*
X143161343Y-72097983D02*
X143561343Y-72497983D01*
X143561343Y-72497983D02*
X143561343Y-72064649D01*
X130473599Y-75598078D02*
X130473599Y-75264745D01*
X130997409Y-75121888D02*
X130997409Y-75598078D01*
X130997409Y-75598078D02*
X129997409Y-75598078D01*
X129997409Y-75598078D02*
X129997409Y-75121888D01*
X130997409Y-74693316D02*
X129997409Y-74693316D01*
X129997409Y-74693316D02*
X130997409Y-74121888D01*
X130997409Y-74121888D02*
X129997409Y-74121888D01*
X129949790Y-72931412D02*
X131235504Y-73788554D01*
X130997409Y-72026650D02*
X130521218Y-72359983D01*
X130997409Y-72598078D02*
X129997409Y-72598078D01*
X129997409Y-72598078D02*
X129997409Y-72217126D01*
X129997409Y-72217126D02*
X130045028Y-72121888D01*
X130045028Y-72121888D02*
X130092647Y-72074269D01*
X130092647Y-72074269D02*
X130187885Y-72026650D01*
X130187885Y-72026650D02*
X130330742Y-72026650D01*
X130330742Y-72026650D02*
X130425980Y-72074269D01*
X130425980Y-72074269D02*
X130473599Y-72121888D01*
X130473599Y-72121888D02*
X130521218Y-72217126D01*
X130521218Y-72217126D02*
X130521218Y-72598078D01*
X130473599Y-71598078D02*
X130473599Y-71264745D01*
X130997409Y-71121888D02*
X130997409Y-71598078D01*
X130997409Y-71598078D02*
X129997409Y-71598078D01*
X129997409Y-71598078D02*
X129997409Y-71121888D01*
X130949790Y-70740935D02*
X130997409Y-70598078D01*
X130997409Y-70598078D02*
X130997409Y-70359983D01*
X130997409Y-70359983D02*
X130949790Y-70264745D01*
X130949790Y-70264745D02*
X130902170Y-70217126D01*
X130902170Y-70217126D02*
X130806932Y-70169507D01*
X130806932Y-70169507D02*
X130711694Y-70169507D01*
X130711694Y-70169507D02*
X130616456Y-70217126D01*
X130616456Y-70217126D02*
X130568837Y-70264745D01*
X130568837Y-70264745D02*
X130521218Y-70359983D01*
X130521218Y-70359983D02*
X130473599Y-70550459D01*
X130473599Y-70550459D02*
X130425980Y-70645697D01*
X130425980Y-70645697D02*
X130378361Y-70693316D01*
X130378361Y-70693316D02*
X130283123Y-70740935D01*
X130283123Y-70740935D02*
X130187885Y-70740935D01*
X130187885Y-70740935D02*
X130092647Y-70693316D01*
X130092647Y-70693316D02*
X130045028Y-70645697D01*
X130045028Y-70645697D02*
X129997409Y-70550459D01*
X129997409Y-70550459D02*
X129997409Y-70312364D01*
X129997409Y-70312364D02*
X130045028Y-70169507D01*
X130473599Y-69740935D02*
X130473599Y-69407602D01*
X130997409Y-69264745D02*
X130997409Y-69740935D01*
X130997409Y-69740935D02*
X129997409Y-69740935D01*
X129997409Y-69740935D02*
X129997409Y-69264745D01*
X129997409Y-68979030D02*
X129997409Y-68407602D01*
X130997409Y-68693316D02*
X129997409Y-68693316D01*
X173431409Y-75020710D02*
X173431409Y-75496900D01*
X173431409Y-75496900D02*
X173907599Y-75544519D01*
X173907599Y-75544519D02*
X173859980Y-75496900D01*
X173859980Y-75496900D02*
X173812361Y-75401662D01*
X173812361Y-75401662D02*
X173812361Y-75163567D01*
X173812361Y-75163567D02*
X173859980Y-75068329D01*
X173859980Y-75068329D02*
X173907599Y-75020710D01*
X173907599Y-75020710D02*
X174002837Y-74973091D01*
X174002837Y-74973091D02*
X174240932Y-74973091D01*
X174240932Y-74973091D02*
X174336170Y-75020710D01*
X174336170Y-75020710D02*
X174383790Y-75068329D01*
X174383790Y-75068329D02*
X174431409Y-75163567D01*
X174431409Y-75163567D02*
X174431409Y-75401662D01*
X174431409Y-75401662D02*
X174383790Y-75496900D01*
X174383790Y-75496900D02*
X174336170Y-75544519D01*
X173431409Y-74687376D02*
X174431409Y-74354043D01*
X174431409Y-74354043D02*
X173431409Y-74020710D01*
X158134676Y-55668683D02*
X158101343Y-55735350D01*
X158101343Y-55735350D02*
X158101343Y-55835350D01*
X158101343Y-55835350D02*
X158134676Y-55935350D01*
X158134676Y-55935350D02*
X158201343Y-56002017D01*
X158201343Y-56002017D02*
X158268010Y-56035350D01*
X158268010Y-56035350D02*
X158401343Y-56068683D01*
X158401343Y-56068683D02*
X158501343Y-56068683D01*
X158501343Y-56068683D02*
X158634676Y-56035350D01*
X158634676Y-56035350D02*
X158701343Y-56002017D01*
X158701343Y-56002017D02*
X158768010Y-55935350D01*
X158768010Y-55935350D02*
X158801343Y-55835350D01*
X158801343Y-55835350D02*
X158801343Y-55768683D01*
X158801343Y-55768683D02*
X158768010Y-55668683D01*
X158768010Y-55668683D02*
X158734676Y-55635350D01*
X158734676Y-55635350D02*
X158501343Y-55635350D01*
X158501343Y-55635350D02*
X158501343Y-55768683D01*
X158801343Y-55335350D02*
X158101343Y-55335350D01*
X158101343Y-55335350D02*
X158101343Y-55068683D01*
X158101343Y-55068683D02*
X158134676Y-55002017D01*
X158134676Y-55002017D02*
X158168010Y-54968683D01*
X158168010Y-54968683D02*
X158234676Y-54935350D01*
X158234676Y-54935350D02*
X158334676Y-54935350D01*
X158334676Y-54935350D02*
X158401343Y-54968683D01*
X158401343Y-54968683D02*
X158434676Y-55002017D01*
X158434676Y-55002017D02*
X158468010Y-55068683D01*
X158468010Y-55068683D02*
X158468010Y-55335350D01*
X158801343Y-54635350D02*
X158101343Y-54635350D01*
X158101343Y-54168684D02*
X158101343Y-54035350D01*
X158101343Y-54035350D02*
X158134676Y-53968684D01*
X158134676Y-53968684D02*
X158201343Y-53902017D01*
X158201343Y-53902017D02*
X158334676Y-53868684D01*
X158334676Y-53868684D02*
X158568010Y-53868684D01*
X158568010Y-53868684D02*
X158701343Y-53902017D01*
X158701343Y-53902017D02*
X158768010Y-53968684D01*
X158768010Y-53968684D02*
X158801343Y-54035350D01*
X158801343Y-54035350D02*
X158801343Y-54168684D01*
X158801343Y-54168684D02*
X158768010Y-54235350D01*
X158768010Y-54235350D02*
X158701343Y-54302017D01*
X158701343Y-54302017D02*
X158568010Y-54335350D01*
X158568010Y-54335350D02*
X158334676Y-54335350D01*
X158334676Y-54335350D02*
X158201343Y-54302017D01*
X158201343Y-54302017D02*
X158134676Y-54235350D01*
X158134676Y-54235350D02*
X158101343Y-54168684D01*
X158334676Y-53268684D02*
X158801343Y-53268684D01*
X158068010Y-53435351D02*
X158568010Y-53602017D01*
X158568010Y-53602017D02*
X158568010Y-53168684D01*
X165754676Y-59835349D02*
X165721343Y-59902016D01*
X165721343Y-59902016D02*
X165721343Y-60002016D01*
X165721343Y-60002016D02*
X165754676Y-60102016D01*
X165754676Y-60102016D02*
X165821343Y-60168683D01*
X165821343Y-60168683D02*
X165888010Y-60202016D01*
X165888010Y-60202016D02*
X166021343Y-60235349D01*
X166021343Y-60235349D02*
X166121343Y-60235349D01*
X166121343Y-60235349D02*
X166254676Y-60202016D01*
X166254676Y-60202016D02*
X166321343Y-60168683D01*
X166321343Y-60168683D02*
X166388010Y-60102016D01*
X166388010Y-60102016D02*
X166421343Y-60002016D01*
X166421343Y-60002016D02*
X166421343Y-59935349D01*
X166421343Y-59935349D02*
X166388010Y-59835349D01*
X166388010Y-59835349D02*
X166354676Y-59802016D01*
X166354676Y-59802016D02*
X166121343Y-59802016D01*
X166121343Y-59802016D02*
X166121343Y-59935349D01*
X166421343Y-59502016D02*
X165721343Y-59502016D01*
X165721343Y-59502016D02*
X165721343Y-59235349D01*
X165721343Y-59235349D02*
X165754676Y-59168683D01*
X165754676Y-59168683D02*
X165788010Y-59135349D01*
X165788010Y-59135349D02*
X165854676Y-59102016D01*
X165854676Y-59102016D02*
X165954676Y-59102016D01*
X165954676Y-59102016D02*
X166021343Y-59135349D01*
X166021343Y-59135349D02*
X166054676Y-59168683D01*
X166054676Y-59168683D02*
X166088010Y-59235349D01*
X166088010Y-59235349D02*
X166088010Y-59502016D01*
X166421343Y-58802016D02*
X165721343Y-58802016D01*
X165721343Y-58335350D02*
X165721343Y-58202016D01*
X165721343Y-58202016D02*
X165754676Y-58135350D01*
X165754676Y-58135350D02*
X165821343Y-58068683D01*
X165821343Y-58068683D02*
X165954676Y-58035350D01*
X165954676Y-58035350D02*
X166188010Y-58035350D01*
X166188010Y-58035350D02*
X166321343Y-58068683D01*
X166321343Y-58068683D02*
X166388010Y-58135350D01*
X166388010Y-58135350D02*
X166421343Y-58202016D01*
X166421343Y-58202016D02*
X166421343Y-58335350D01*
X166421343Y-58335350D02*
X166388010Y-58402016D01*
X166388010Y-58402016D02*
X166321343Y-58468683D01*
X166321343Y-58468683D02*
X166188010Y-58502016D01*
X166188010Y-58502016D02*
X165954676Y-58502016D01*
X165954676Y-58502016D02*
X165821343Y-58468683D01*
X165821343Y-58468683D02*
X165754676Y-58402016D01*
X165754676Y-58402016D02*
X165721343Y-58335350D01*
X166421343Y-57368683D02*
X166421343Y-57768683D01*
X166421343Y-57568683D02*
X165721343Y-57568683D01*
X165721343Y-57568683D02*
X165821343Y-57635350D01*
X165821343Y-57635350D02*
X165888010Y-57702017D01*
X165888010Y-57702017D02*
X165921343Y-57768683D01*
X165721343Y-56735350D02*
X165721343Y-57068683D01*
X165721343Y-57068683D02*
X166054676Y-57102016D01*
X166054676Y-57102016D02*
X166021343Y-57068683D01*
X166021343Y-57068683D02*
X165988010Y-57002016D01*
X165988010Y-57002016D02*
X165988010Y-56835350D01*
X165988010Y-56835350D02*
X166021343Y-56768683D01*
X166021343Y-56768683D02*
X166054676Y-56735350D01*
X166054676Y-56735350D02*
X166121343Y-56702016D01*
X166121343Y-56702016D02*
X166288010Y-56702016D01*
X166288010Y-56702016D02*
X166354676Y-56735350D01*
X166354676Y-56735350D02*
X166388010Y-56768683D01*
X166388010Y-56768683D02*
X166421343Y-56835350D01*
X166421343Y-56835350D02*
X166421343Y-57002016D01*
X166421343Y-57002016D02*
X166388010Y-57068683D01*
X166388010Y-57068683D02*
X166354676Y-57102016D01*
X165688010Y-55902016D02*
X166588010Y-56502016D01*
X166421343Y-55668683D02*
X165721343Y-55668683D01*
X165721343Y-55668683D02*
X166221343Y-55435350D01*
X166221343Y-55435350D02*
X165721343Y-55202016D01*
X165721343Y-55202016D02*
X166421343Y-55202016D01*
X165721343Y-54968683D02*
X165721343Y-54568683D01*
X166421343Y-54768683D02*
X165721343Y-54768683D01*
X166421343Y-54335350D02*
X165721343Y-54335350D01*
X165721343Y-54335350D02*
X165721343Y-54168683D01*
X165721343Y-54168683D02*
X165754676Y-54068683D01*
X165754676Y-54068683D02*
X165821343Y-54002017D01*
X165821343Y-54002017D02*
X165888010Y-53968683D01*
X165888010Y-53968683D02*
X166021343Y-53935350D01*
X166021343Y-53935350D02*
X166121343Y-53935350D01*
X166121343Y-53935350D02*
X166254676Y-53968683D01*
X166254676Y-53968683D02*
X166321343Y-54002017D01*
X166321343Y-54002017D02*
X166388010Y-54068683D01*
X166388010Y-54068683D02*
X166421343Y-54168683D01*
X166421343Y-54168683D02*
X166421343Y-54335350D01*
X165721343Y-53502017D02*
X165721343Y-53368683D01*
X165721343Y-53368683D02*
X165754676Y-53302017D01*
X165754676Y-53302017D02*
X165821343Y-53235350D01*
X165821343Y-53235350D02*
X165954676Y-53202017D01*
X165954676Y-53202017D02*
X166188010Y-53202017D01*
X166188010Y-53202017D02*
X166321343Y-53235350D01*
X166321343Y-53235350D02*
X166388010Y-53302017D01*
X166388010Y-53302017D02*
X166421343Y-53368683D01*
X166421343Y-53368683D02*
X166421343Y-53502017D01*
X166421343Y-53502017D02*
X166388010Y-53568683D01*
X166388010Y-53568683D02*
X166321343Y-53635350D01*
X166321343Y-53635350D02*
X166188010Y-53668683D01*
X166188010Y-53668683D02*
X165954676Y-53668683D01*
X165954676Y-53668683D02*
X165821343Y-53635350D01*
X165821343Y-53635350D02*
X165754676Y-53568683D01*
X165754676Y-53568683D02*
X165721343Y-53502017D01*
X145434676Y-56335350D02*
X145401343Y-56402017D01*
X145401343Y-56402017D02*
X145401343Y-56502017D01*
X145401343Y-56502017D02*
X145434676Y-56602017D01*
X145434676Y-56602017D02*
X145501343Y-56668684D01*
X145501343Y-56668684D02*
X145568010Y-56702017D01*
X145568010Y-56702017D02*
X145701343Y-56735350D01*
X145701343Y-56735350D02*
X145801343Y-56735350D01*
X145801343Y-56735350D02*
X145934676Y-56702017D01*
X145934676Y-56702017D02*
X146001343Y-56668684D01*
X146001343Y-56668684D02*
X146068010Y-56602017D01*
X146068010Y-56602017D02*
X146101343Y-56502017D01*
X146101343Y-56502017D02*
X146101343Y-56435350D01*
X146101343Y-56435350D02*
X146068010Y-56335350D01*
X146068010Y-56335350D02*
X146034676Y-56302017D01*
X146034676Y-56302017D02*
X145801343Y-56302017D01*
X145801343Y-56302017D02*
X145801343Y-56435350D01*
X146101343Y-56002017D02*
X145401343Y-56002017D01*
X145401343Y-56002017D02*
X145401343Y-55735350D01*
X145401343Y-55735350D02*
X145434676Y-55668684D01*
X145434676Y-55668684D02*
X145468010Y-55635350D01*
X145468010Y-55635350D02*
X145534676Y-55602017D01*
X145534676Y-55602017D02*
X145634676Y-55602017D01*
X145634676Y-55602017D02*
X145701343Y-55635350D01*
X145701343Y-55635350D02*
X145734676Y-55668684D01*
X145734676Y-55668684D02*
X145768010Y-55735350D01*
X145768010Y-55735350D02*
X145768010Y-56002017D01*
X146101343Y-55302017D02*
X145401343Y-55302017D01*
X145401343Y-54835351D02*
X145401343Y-54702017D01*
X145401343Y-54702017D02*
X145434676Y-54635351D01*
X145434676Y-54635351D02*
X145501343Y-54568684D01*
X145501343Y-54568684D02*
X145634676Y-54535351D01*
X145634676Y-54535351D02*
X145868010Y-54535351D01*
X145868010Y-54535351D02*
X146001343Y-54568684D01*
X146001343Y-54568684D02*
X146068010Y-54635351D01*
X146068010Y-54635351D02*
X146101343Y-54702017D01*
X146101343Y-54702017D02*
X146101343Y-54835351D01*
X146101343Y-54835351D02*
X146068010Y-54902017D01*
X146068010Y-54902017D02*
X146001343Y-54968684D01*
X146001343Y-54968684D02*
X145868010Y-55002017D01*
X145868010Y-55002017D02*
X145634676Y-55002017D01*
X145634676Y-55002017D02*
X145501343Y-54968684D01*
X145501343Y-54968684D02*
X145434676Y-54902017D01*
X145434676Y-54902017D02*
X145401343Y-54835351D01*
X146101343Y-53868684D02*
X146101343Y-54268684D01*
X146101343Y-54068684D02*
X145401343Y-54068684D01*
X145401343Y-54068684D02*
X145501343Y-54135351D01*
X145501343Y-54135351D02*
X145568010Y-54202018D01*
X145568010Y-54202018D02*
X145601343Y-54268684D01*
X146101343Y-53535351D02*
X146101343Y-53402017D01*
X146101343Y-53402017D02*
X146068010Y-53335351D01*
X146068010Y-53335351D02*
X146034676Y-53302017D01*
X146034676Y-53302017D02*
X145934676Y-53235351D01*
X145934676Y-53235351D02*
X145801343Y-53202017D01*
X145801343Y-53202017D02*
X145534676Y-53202017D01*
X145534676Y-53202017D02*
X145468010Y-53235351D01*
X145468010Y-53235351D02*
X145434676Y-53268684D01*
X145434676Y-53268684D02*
X145401343Y-53335351D01*
X145401343Y-53335351D02*
X145401343Y-53468684D01*
X145401343Y-53468684D02*
X145434676Y-53535351D01*
X145434676Y-53535351D02*
X145468010Y-53568684D01*
X145468010Y-53568684D02*
X145534676Y-53602017D01*
X145534676Y-53602017D02*
X145701343Y-53602017D01*
X145701343Y-53602017D02*
X145768010Y-53568684D01*
X145768010Y-53568684D02*
X145801343Y-53535351D01*
X145801343Y-53535351D02*
X145834676Y-53468684D01*
X145834676Y-53468684D02*
X145834676Y-53335351D01*
X145834676Y-53335351D02*
X145801343Y-53268684D01*
X145801343Y-53268684D02*
X145768010Y-53235351D01*
X145768010Y-53235351D02*
X145701343Y-53202017D01*
X150514676Y-55668683D02*
X150481343Y-55735350D01*
X150481343Y-55735350D02*
X150481343Y-55835350D01*
X150481343Y-55835350D02*
X150514676Y-55935350D01*
X150514676Y-55935350D02*
X150581343Y-56002017D01*
X150581343Y-56002017D02*
X150648010Y-56035350D01*
X150648010Y-56035350D02*
X150781343Y-56068683D01*
X150781343Y-56068683D02*
X150881343Y-56068683D01*
X150881343Y-56068683D02*
X151014676Y-56035350D01*
X151014676Y-56035350D02*
X151081343Y-56002017D01*
X151081343Y-56002017D02*
X151148010Y-55935350D01*
X151148010Y-55935350D02*
X151181343Y-55835350D01*
X151181343Y-55835350D02*
X151181343Y-55768683D01*
X151181343Y-55768683D02*
X151148010Y-55668683D01*
X151148010Y-55668683D02*
X151114676Y-55635350D01*
X151114676Y-55635350D02*
X150881343Y-55635350D01*
X150881343Y-55635350D02*
X150881343Y-55768683D01*
X151181343Y-55335350D02*
X150481343Y-55335350D01*
X150481343Y-55335350D02*
X150481343Y-55068683D01*
X150481343Y-55068683D02*
X150514676Y-55002017D01*
X150514676Y-55002017D02*
X150548010Y-54968683D01*
X150548010Y-54968683D02*
X150614676Y-54935350D01*
X150614676Y-54935350D02*
X150714676Y-54935350D01*
X150714676Y-54935350D02*
X150781343Y-54968683D01*
X150781343Y-54968683D02*
X150814676Y-55002017D01*
X150814676Y-55002017D02*
X150848010Y-55068683D01*
X150848010Y-55068683D02*
X150848010Y-55335350D01*
X151181343Y-54635350D02*
X150481343Y-54635350D01*
X150481343Y-54168684D02*
X150481343Y-54035350D01*
X150481343Y-54035350D02*
X150514676Y-53968684D01*
X150514676Y-53968684D02*
X150581343Y-53902017D01*
X150581343Y-53902017D02*
X150714676Y-53868684D01*
X150714676Y-53868684D02*
X150948010Y-53868684D01*
X150948010Y-53868684D02*
X151081343Y-53902017D01*
X151081343Y-53902017D02*
X151148010Y-53968684D01*
X151148010Y-53968684D02*
X151181343Y-54035350D01*
X151181343Y-54035350D02*
X151181343Y-54168684D01*
X151181343Y-54168684D02*
X151148010Y-54235350D01*
X151148010Y-54235350D02*
X151081343Y-54302017D01*
X151081343Y-54302017D02*
X150948010Y-54335350D01*
X150948010Y-54335350D02*
X150714676Y-54335350D01*
X150714676Y-54335350D02*
X150581343Y-54302017D01*
X150581343Y-54302017D02*
X150514676Y-54235350D01*
X150514676Y-54235350D02*
X150481343Y-54168684D01*
X150481343Y-53235351D02*
X150481343Y-53568684D01*
X150481343Y-53568684D02*
X150814676Y-53602017D01*
X150814676Y-53602017D02*
X150781343Y-53568684D01*
X150781343Y-53568684D02*
X150748010Y-53502017D01*
X150748010Y-53502017D02*
X150748010Y-53335351D01*
X150748010Y-53335351D02*
X150781343Y-53268684D01*
X150781343Y-53268684D02*
X150814676Y-53235351D01*
X150814676Y-53235351D02*
X150881343Y-53202017D01*
X150881343Y-53202017D02*
X151048010Y-53202017D01*
X151048010Y-53202017D02*
X151114676Y-53235351D01*
X151114676Y-53235351D02*
X151148010Y-53268684D01*
X151148010Y-53268684D02*
X151181343Y-53335351D01*
X151181343Y-53335351D02*
X151181343Y-53502017D01*
X151181343Y-53502017D02*
X151148010Y-53568684D01*
X151148010Y-53568684D02*
X151114676Y-53602017D01*
X153054676Y-56335350D02*
X153021343Y-56402017D01*
X153021343Y-56402017D02*
X153021343Y-56502017D01*
X153021343Y-56502017D02*
X153054676Y-56602017D01*
X153054676Y-56602017D02*
X153121343Y-56668684D01*
X153121343Y-56668684D02*
X153188010Y-56702017D01*
X153188010Y-56702017D02*
X153321343Y-56735350D01*
X153321343Y-56735350D02*
X153421343Y-56735350D01*
X153421343Y-56735350D02*
X153554676Y-56702017D01*
X153554676Y-56702017D02*
X153621343Y-56668684D01*
X153621343Y-56668684D02*
X153688010Y-56602017D01*
X153688010Y-56602017D02*
X153721343Y-56502017D01*
X153721343Y-56502017D02*
X153721343Y-56435350D01*
X153721343Y-56435350D02*
X153688010Y-56335350D01*
X153688010Y-56335350D02*
X153654676Y-56302017D01*
X153654676Y-56302017D02*
X153421343Y-56302017D01*
X153421343Y-56302017D02*
X153421343Y-56435350D01*
X153721343Y-56002017D02*
X153021343Y-56002017D01*
X153021343Y-56002017D02*
X153021343Y-55735350D01*
X153021343Y-55735350D02*
X153054676Y-55668684D01*
X153054676Y-55668684D02*
X153088010Y-55635350D01*
X153088010Y-55635350D02*
X153154676Y-55602017D01*
X153154676Y-55602017D02*
X153254676Y-55602017D01*
X153254676Y-55602017D02*
X153321343Y-55635350D01*
X153321343Y-55635350D02*
X153354676Y-55668684D01*
X153354676Y-55668684D02*
X153388010Y-55735350D01*
X153388010Y-55735350D02*
X153388010Y-56002017D01*
X153721343Y-55302017D02*
X153021343Y-55302017D01*
X153021343Y-54835351D02*
X153021343Y-54702017D01*
X153021343Y-54702017D02*
X153054676Y-54635351D01*
X153054676Y-54635351D02*
X153121343Y-54568684D01*
X153121343Y-54568684D02*
X153254676Y-54535351D01*
X153254676Y-54535351D02*
X153488010Y-54535351D01*
X153488010Y-54535351D02*
X153621343Y-54568684D01*
X153621343Y-54568684D02*
X153688010Y-54635351D01*
X153688010Y-54635351D02*
X153721343Y-54702017D01*
X153721343Y-54702017D02*
X153721343Y-54835351D01*
X153721343Y-54835351D02*
X153688010Y-54902017D01*
X153688010Y-54902017D02*
X153621343Y-54968684D01*
X153621343Y-54968684D02*
X153488010Y-55002017D01*
X153488010Y-55002017D02*
X153254676Y-55002017D01*
X153254676Y-55002017D02*
X153121343Y-54968684D01*
X153121343Y-54968684D02*
X153054676Y-54902017D01*
X153054676Y-54902017D02*
X153021343Y-54835351D01*
X153721343Y-53868684D02*
X153721343Y-54268684D01*
X153721343Y-54068684D02*
X153021343Y-54068684D01*
X153021343Y-54068684D02*
X153121343Y-54135351D01*
X153121343Y-54135351D02*
X153188010Y-54202018D01*
X153188010Y-54202018D02*
X153221343Y-54268684D01*
X153021343Y-53635351D02*
X153021343Y-53168684D01*
X153021343Y-53168684D02*
X153721343Y-53468684D01*
X160527748Y-74969411D02*
X160480129Y-75064649D01*
X160480129Y-75064649D02*
X160480129Y-75207506D01*
X160480129Y-75207506D02*
X160527748Y-75350363D01*
X160527748Y-75350363D02*
X160622986Y-75445601D01*
X160622986Y-75445601D02*
X160718224Y-75493220D01*
X160718224Y-75493220D02*
X160908700Y-75540839D01*
X160908700Y-75540839D02*
X161051557Y-75540839D01*
X161051557Y-75540839D02*
X161242033Y-75493220D01*
X161242033Y-75493220D02*
X161337271Y-75445601D01*
X161337271Y-75445601D02*
X161432510Y-75350363D01*
X161432510Y-75350363D02*
X161480129Y-75207506D01*
X161480129Y-75207506D02*
X161480129Y-75112268D01*
X161480129Y-75112268D02*
X161432510Y-74969411D01*
X161432510Y-74969411D02*
X161384890Y-74921792D01*
X161384890Y-74921792D02*
X161051557Y-74921792D01*
X161051557Y-74921792D02*
X161051557Y-75112268D01*
X161480129Y-74493220D02*
X160480129Y-74493220D01*
X160480129Y-74493220D02*
X161480129Y-73921792D01*
X161480129Y-73921792D02*
X160480129Y-73921792D01*
X161480129Y-73445601D02*
X160480129Y-73445601D01*
X160480129Y-73445601D02*
X160480129Y-73207506D01*
X160480129Y-73207506D02*
X160527748Y-73064649D01*
X160527748Y-73064649D02*
X160622986Y-72969411D01*
X160622986Y-72969411D02*
X160718224Y-72921792D01*
X160718224Y-72921792D02*
X160908700Y-72874173D01*
X160908700Y-72874173D02*
X161051557Y-72874173D01*
X161051557Y-72874173D02*
X161242033Y-72921792D01*
X161242033Y-72921792D02*
X161337271Y-72969411D01*
X161337271Y-72969411D02*
X161432510Y-73064649D01*
X161432510Y-73064649D02*
X161480129Y-73207506D01*
X161480129Y-73207506D02*
X161480129Y-73445601D01*
X132734676Y-56335350D02*
X132701343Y-56402017D01*
X132701343Y-56402017D02*
X132701343Y-56502017D01*
X132701343Y-56502017D02*
X132734676Y-56602017D01*
X132734676Y-56602017D02*
X132801343Y-56668684D01*
X132801343Y-56668684D02*
X132868010Y-56702017D01*
X132868010Y-56702017D02*
X133001343Y-56735350D01*
X133001343Y-56735350D02*
X133101343Y-56735350D01*
X133101343Y-56735350D02*
X133234676Y-56702017D01*
X133234676Y-56702017D02*
X133301343Y-56668684D01*
X133301343Y-56668684D02*
X133368010Y-56602017D01*
X133368010Y-56602017D02*
X133401343Y-56502017D01*
X133401343Y-56502017D02*
X133401343Y-56435350D01*
X133401343Y-56435350D02*
X133368010Y-56335350D01*
X133368010Y-56335350D02*
X133334676Y-56302017D01*
X133334676Y-56302017D02*
X133101343Y-56302017D01*
X133101343Y-56302017D02*
X133101343Y-56435350D01*
X133401343Y-56002017D02*
X132701343Y-56002017D01*
X132701343Y-56002017D02*
X132701343Y-55735350D01*
X132701343Y-55735350D02*
X132734676Y-55668684D01*
X132734676Y-55668684D02*
X132768010Y-55635350D01*
X132768010Y-55635350D02*
X132834676Y-55602017D01*
X132834676Y-55602017D02*
X132934676Y-55602017D01*
X132934676Y-55602017D02*
X133001343Y-55635350D01*
X133001343Y-55635350D02*
X133034676Y-55668684D01*
X133034676Y-55668684D02*
X133068010Y-55735350D01*
X133068010Y-55735350D02*
X133068010Y-56002017D01*
X133401343Y-55302017D02*
X132701343Y-55302017D01*
X132701343Y-54835351D02*
X132701343Y-54702017D01*
X132701343Y-54702017D02*
X132734676Y-54635351D01*
X132734676Y-54635351D02*
X132801343Y-54568684D01*
X132801343Y-54568684D02*
X132934676Y-54535351D01*
X132934676Y-54535351D02*
X133168010Y-54535351D01*
X133168010Y-54535351D02*
X133301343Y-54568684D01*
X133301343Y-54568684D02*
X133368010Y-54635351D01*
X133368010Y-54635351D02*
X133401343Y-54702017D01*
X133401343Y-54702017D02*
X133401343Y-54835351D01*
X133401343Y-54835351D02*
X133368010Y-54902017D01*
X133368010Y-54902017D02*
X133301343Y-54968684D01*
X133301343Y-54968684D02*
X133168010Y-55002017D01*
X133168010Y-55002017D02*
X132934676Y-55002017D01*
X132934676Y-55002017D02*
X132801343Y-54968684D01*
X132801343Y-54968684D02*
X132734676Y-54902017D01*
X132734676Y-54902017D02*
X132701343Y-54835351D01*
X132768010Y-54268684D02*
X132734676Y-54235351D01*
X132734676Y-54235351D02*
X132701343Y-54168684D01*
X132701343Y-54168684D02*
X132701343Y-54002018D01*
X132701343Y-54002018D02*
X132734676Y-53935351D01*
X132734676Y-53935351D02*
X132768010Y-53902018D01*
X132768010Y-53902018D02*
X132834676Y-53868684D01*
X132834676Y-53868684D02*
X132901343Y-53868684D01*
X132901343Y-53868684D02*
X133001343Y-53902018D01*
X133001343Y-53902018D02*
X133401343Y-54302018D01*
X133401343Y-54302018D02*
X133401343Y-53868684D01*
X132768010Y-53602017D02*
X132734676Y-53568684D01*
X132734676Y-53568684D02*
X132701343Y-53502017D01*
X132701343Y-53502017D02*
X132701343Y-53335351D01*
X132701343Y-53335351D02*
X132734676Y-53268684D01*
X132734676Y-53268684D02*
X132768010Y-53235351D01*
X132768010Y-53235351D02*
X132834676Y-53202017D01*
X132834676Y-53202017D02*
X132901343Y-53202017D01*
X132901343Y-53202017D02*
X133001343Y-53235351D01*
X133001343Y-53235351D02*
X133401343Y-53635351D01*
X133401343Y-53635351D02*
X133401343Y-53202017D01*
X166421343Y-75564649D02*
X165721343Y-75564649D01*
X165721343Y-75564649D02*
X165721343Y-75397982D01*
X165721343Y-75397982D02*
X165754676Y-75297982D01*
X165754676Y-75297982D02*
X165821343Y-75231316D01*
X165821343Y-75231316D02*
X165888010Y-75197982D01*
X165888010Y-75197982D02*
X166021343Y-75164649D01*
X166021343Y-75164649D02*
X166121343Y-75164649D01*
X166121343Y-75164649D02*
X166254676Y-75197982D01*
X166254676Y-75197982D02*
X166321343Y-75231316D01*
X166321343Y-75231316D02*
X166388010Y-75297982D01*
X166388010Y-75297982D02*
X166421343Y-75397982D01*
X166421343Y-75397982D02*
X166421343Y-75564649D01*
X165788010Y-74897982D02*
X165754676Y-74864649D01*
X165754676Y-74864649D02*
X165721343Y-74797982D01*
X165721343Y-74797982D02*
X165721343Y-74631316D01*
X165721343Y-74631316D02*
X165754676Y-74564649D01*
X165754676Y-74564649D02*
X165788010Y-74531316D01*
X165788010Y-74531316D02*
X165854676Y-74497982D01*
X165854676Y-74497982D02*
X165921343Y-74497982D01*
X165921343Y-74497982D02*
X166021343Y-74531316D01*
X166021343Y-74531316D02*
X166421343Y-74931316D01*
X166421343Y-74931316D02*
X166421343Y-74497982D01*
X130194676Y-56335350D02*
X130161343Y-56402017D01*
X130161343Y-56402017D02*
X130161343Y-56502017D01*
X130161343Y-56502017D02*
X130194676Y-56602017D01*
X130194676Y-56602017D02*
X130261343Y-56668684D01*
X130261343Y-56668684D02*
X130328010Y-56702017D01*
X130328010Y-56702017D02*
X130461343Y-56735350D01*
X130461343Y-56735350D02*
X130561343Y-56735350D01*
X130561343Y-56735350D02*
X130694676Y-56702017D01*
X130694676Y-56702017D02*
X130761343Y-56668684D01*
X130761343Y-56668684D02*
X130828010Y-56602017D01*
X130828010Y-56602017D02*
X130861343Y-56502017D01*
X130861343Y-56502017D02*
X130861343Y-56435350D01*
X130861343Y-56435350D02*
X130828010Y-56335350D01*
X130828010Y-56335350D02*
X130794676Y-56302017D01*
X130794676Y-56302017D02*
X130561343Y-56302017D01*
X130561343Y-56302017D02*
X130561343Y-56435350D01*
X130861343Y-56002017D02*
X130161343Y-56002017D01*
X130161343Y-56002017D02*
X130161343Y-55735350D01*
X130161343Y-55735350D02*
X130194676Y-55668684D01*
X130194676Y-55668684D02*
X130228010Y-55635350D01*
X130228010Y-55635350D02*
X130294676Y-55602017D01*
X130294676Y-55602017D02*
X130394676Y-55602017D01*
X130394676Y-55602017D02*
X130461343Y-55635350D01*
X130461343Y-55635350D02*
X130494676Y-55668684D01*
X130494676Y-55668684D02*
X130528010Y-55735350D01*
X130528010Y-55735350D02*
X130528010Y-56002017D01*
X130861343Y-55302017D02*
X130161343Y-55302017D01*
X130161343Y-54835351D02*
X130161343Y-54702017D01*
X130161343Y-54702017D02*
X130194676Y-54635351D01*
X130194676Y-54635351D02*
X130261343Y-54568684D01*
X130261343Y-54568684D02*
X130394676Y-54535351D01*
X130394676Y-54535351D02*
X130628010Y-54535351D01*
X130628010Y-54535351D02*
X130761343Y-54568684D01*
X130761343Y-54568684D02*
X130828010Y-54635351D01*
X130828010Y-54635351D02*
X130861343Y-54702017D01*
X130861343Y-54702017D02*
X130861343Y-54835351D01*
X130861343Y-54835351D02*
X130828010Y-54902017D01*
X130828010Y-54902017D02*
X130761343Y-54968684D01*
X130761343Y-54968684D02*
X130628010Y-55002017D01*
X130628010Y-55002017D02*
X130394676Y-55002017D01*
X130394676Y-55002017D02*
X130261343Y-54968684D01*
X130261343Y-54968684D02*
X130194676Y-54902017D01*
X130194676Y-54902017D02*
X130161343Y-54835351D01*
X130228010Y-54268684D02*
X130194676Y-54235351D01*
X130194676Y-54235351D02*
X130161343Y-54168684D01*
X130161343Y-54168684D02*
X130161343Y-54002018D01*
X130161343Y-54002018D02*
X130194676Y-53935351D01*
X130194676Y-53935351D02*
X130228010Y-53902018D01*
X130228010Y-53902018D02*
X130294676Y-53868684D01*
X130294676Y-53868684D02*
X130361343Y-53868684D01*
X130361343Y-53868684D02*
X130461343Y-53902018D01*
X130461343Y-53902018D02*
X130861343Y-54302018D01*
X130861343Y-54302018D02*
X130861343Y-53868684D01*
X130161343Y-53635351D02*
X130161343Y-53202017D01*
X130161343Y-53202017D02*
X130428010Y-53435351D01*
X130428010Y-53435351D02*
X130428010Y-53335351D01*
X130428010Y-53335351D02*
X130461343Y-53268684D01*
X130461343Y-53268684D02*
X130494676Y-53235351D01*
X130494676Y-53235351D02*
X130561343Y-53202017D01*
X130561343Y-53202017D02*
X130728010Y-53202017D01*
X130728010Y-53202017D02*
X130794676Y-53235351D01*
X130794676Y-53235351D02*
X130828010Y-53268684D01*
X130828010Y-53268684D02*
X130861343Y-53335351D01*
X130861343Y-53335351D02*
X130861343Y-53535351D01*
X130861343Y-53535351D02*
X130828010Y-53602017D01*
X130828010Y-53602017D02*
X130794676Y-53635351D01*
X171501343Y-54268684D02*
X170801343Y-54268684D01*
X170801343Y-54268684D02*
X170801343Y-54102017D01*
X170801343Y-54102017D02*
X170834676Y-54002017D01*
X170834676Y-54002017D02*
X170901343Y-53935351D01*
X170901343Y-53935351D02*
X170968010Y-53902017D01*
X170968010Y-53902017D02*
X171101343Y-53868684D01*
X171101343Y-53868684D02*
X171201343Y-53868684D01*
X171201343Y-53868684D02*
X171334676Y-53902017D01*
X171334676Y-53902017D02*
X171401343Y-53935351D01*
X171401343Y-53935351D02*
X171468010Y-54002017D01*
X171468010Y-54002017D02*
X171501343Y-54102017D01*
X171501343Y-54102017D02*
X171501343Y-54268684D01*
X170801343Y-53435351D02*
X170801343Y-53368684D01*
X170801343Y-53368684D02*
X170834676Y-53302017D01*
X170834676Y-53302017D02*
X170868010Y-53268684D01*
X170868010Y-53268684D02*
X170934676Y-53235351D01*
X170934676Y-53235351D02*
X171068010Y-53202017D01*
X171068010Y-53202017D02*
X171234676Y-53202017D01*
X171234676Y-53202017D02*
X171368010Y-53235351D01*
X171368010Y-53235351D02*
X171434676Y-53268684D01*
X171434676Y-53268684D02*
X171468010Y-53302017D01*
X171468010Y-53302017D02*
X171501343Y-53368684D01*
X171501343Y-53368684D02*
X171501343Y-53435351D01*
X171501343Y-53435351D02*
X171468010Y-53502017D01*
X171468010Y-53502017D02*
X171434676Y-53535351D01*
X171434676Y-53535351D02*
X171368010Y-53568684D01*
X171368010Y-53568684D02*
X171234676Y-53602017D01*
X171234676Y-53602017D02*
X171068010Y-53602017D01*
X171068010Y-53602017D02*
X170934676Y-53568684D01*
X170934676Y-53568684D02*
X170868010Y-53535351D01*
X170868010Y-53535351D02*
X170834676Y-53502017D01*
X170834676Y-53502017D02*
X170801343Y-53435351D01*
X135241343Y-75664649D02*
X135941343Y-75431316D01*
X135941343Y-75431316D02*
X135241343Y-75197982D01*
X135941343Y-74964649D02*
X135241343Y-74964649D01*
X135241343Y-74964649D02*
X135941343Y-74564649D01*
X135941343Y-74564649D02*
X135241343Y-74564649D01*
X135208010Y-73731316D02*
X136108010Y-74331316D01*
X135274676Y-73131316D02*
X135241343Y-73197983D01*
X135241343Y-73197983D02*
X135241343Y-73297983D01*
X135241343Y-73297983D02*
X135274676Y-73397983D01*
X135274676Y-73397983D02*
X135341343Y-73464650D01*
X135341343Y-73464650D02*
X135408010Y-73497983D01*
X135408010Y-73497983D02*
X135541343Y-73531316D01*
X135541343Y-73531316D02*
X135641343Y-73531316D01*
X135641343Y-73531316D02*
X135774676Y-73497983D01*
X135774676Y-73497983D02*
X135841343Y-73464650D01*
X135841343Y-73464650D02*
X135908010Y-73397983D01*
X135908010Y-73397983D02*
X135941343Y-73297983D01*
X135941343Y-73297983D02*
X135941343Y-73231316D01*
X135941343Y-73231316D02*
X135908010Y-73131316D01*
X135908010Y-73131316D02*
X135874676Y-73097983D01*
X135874676Y-73097983D02*
X135641343Y-73097983D01*
X135641343Y-73097983D02*
X135641343Y-73231316D01*
X135941343Y-72797983D02*
X135241343Y-72797983D01*
X135241343Y-72797983D02*
X135241343Y-72531316D01*
X135241343Y-72531316D02*
X135274676Y-72464650D01*
X135274676Y-72464650D02*
X135308010Y-72431316D01*
X135308010Y-72431316D02*
X135374676Y-72397983D01*
X135374676Y-72397983D02*
X135474676Y-72397983D01*
X135474676Y-72397983D02*
X135541343Y-72431316D01*
X135541343Y-72431316D02*
X135574676Y-72464650D01*
X135574676Y-72464650D02*
X135608010Y-72531316D01*
X135608010Y-72531316D02*
X135608010Y-72797983D01*
X135941343Y-72097983D02*
X135241343Y-72097983D01*
X135241343Y-71631317D02*
X135241343Y-71497983D01*
X135241343Y-71497983D02*
X135274676Y-71431317D01*
X135274676Y-71431317D02*
X135341343Y-71364650D01*
X135341343Y-71364650D02*
X135474676Y-71331317D01*
X135474676Y-71331317D02*
X135708010Y-71331317D01*
X135708010Y-71331317D02*
X135841343Y-71364650D01*
X135841343Y-71364650D02*
X135908010Y-71431317D01*
X135908010Y-71431317D02*
X135941343Y-71497983D01*
X135941343Y-71497983D02*
X135941343Y-71631317D01*
X135941343Y-71631317D02*
X135908010Y-71697983D01*
X135908010Y-71697983D02*
X135841343Y-71764650D01*
X135841343Y-71764650D02*
X135708010Y-71797983D01*
X135708010Y-71797983D02*
X135474676Y-71797983D01*
X135474676Y-71797983D02*
X135341343Y-71764650D01*
X135341343Y-71764650D02*
X135274676Y-71697983D01*
X135274676Y-71697983D02*
X135241343Y-71631317D01*
X135241343Y-71097984D02*
X135241343Y-70664650D01*
X135241343Y-70664650D02*
X135508010Y-70897984D01*
X135508010Y-70897984D02*
X135508010Y-70797984D01*
X135508010Y-70797984D02*
X135541343Y-70731317D01*
X135541343Y-70731317D02*
X135574676Y-70697984D01*
X135574676Y-70697984D02*
X135641343Y-70664650D01*
X135641343Y-70664650D02*
X135808010Y-70664650D01*
X135808010Y-70664650D02*
X135874676Y-70697984D01*
X135874676Y-70697984D02*
X135908010Y-70731317D01*
X135908010Y-70731317D02*
X135941343Y-70797984D01*
X135941343Y-70797984D02*
X135941343Y-70997984D01*
X135941343Y-70997984D02*
X135908010Y-71064650D01*
X135908010Y-71064650D02*
X135874676Y-71097984D01*
X135941343Y-70331317D02*
X135941343Y-70197983D01*
X135941343Y-70197983D02*
X135908010Y-70131317D01*
X135908010Y-70131317D02*
X135874676Y-70097983D01*
X135874676Y-70097983D02*
X135774676Y-70031317D01*
X135774676Y-70031317D02*
X135641343Y-69997983D01*
X135641343Y-69997983D02*
X135374676Y-69997983D01*
X135374676Y-69997983D02*
X135308010Y-70031317D01*
X135308010Y-70031317D02*
X135274676Y-70064650D01*
X135274676Y-70064650D02*
X135241343Y-70131317D01*
X135241343Y-70131317D02*
X135241343Y-70264650D01*
X135241343Y-70264650D02*
X135274676Y-70331317D01*
X135274676Y-70331317D02*
X135308010Y-70364650D01*
X135308010Y-70364650D02*
X135374676Y-70397983D01*
X135374676Y-70397983D02*
X135541343Y-70397983D01*
X135541343Y-70397983D02*
X135608010Y-70364650D01*
X135608010Y-70364650D02*
X135641343Y-70331317D01*
X135641343Y-70331317D02*
X135674676Y-70264650D01*
X135674676Y-70264650D02*
X135674676Y-70131317D01*
X135674676Y-70131317D02*
X135641343Y-70064650D01*
X135641343Y-70064650D02*
X135608010Y-70031317D01*
X135608010Y-70031317D02*
X135541343Y-69997983D01*
X160674676Y-55668683D02*
X160641343Y-55735350D01*
X160641343Y-55735350D02*
X160641343Y-55835350D01*
X160641343Y-55835350D02*
X160674676Y-55935350D01*
X160674676Y-55935350D02*
X160741343Y-56002017D01*
X160741343Y-56002017D02*
X160808010Y-56035350D01*
X160808010Y-56035350D02*
X160941343Y-56068683D01*
X160941343Y-56068683D02*
X161041343Y-56068683D01*
X161041343Y-56068683D02*
X161174676Y-56035350D01*
X161174676Y-56035350D02*
X161241343Y-56002017D01*
X161241343Y-56002017D02*
X161308010Y-55935350D01*
X161308010Y-55935350D02*
X161341343Y-55835350D01*
X161341343Y-55835350D02*
X161341343Y-55768683D01*
X161341343Y-55768683D02*
X161308010Y-55668683D01*
X161308010Y-55668683D02*
X161274676Y-55635350D01*
X161274676Y-55635350D02*
X161041343Y-55635350D01*
X161041343Y-55635350D02*
X161041343Y-55768683D01*
X161341343Y-55335350D02*
X160641343Y-55335350D01*
X160641343Y-55335350D02*
X160641343Y-55068683D01*
X160641343Y-55068683D02*
X160674676Y-55002017D01*
X160674676Y-55002017D02*
X160708010Y-54968683D01*
X160708010Y-54968683D02*
X160774676Y-54935350D01*
X160774676Y-54935350D02*
X160874676Y-54935350D01*
X160874676Y-54935350D02*
X160941343Y-54968683D01*
X160941343Y-54968683D02*
X160974676Y-55002017D01*
X160974676Y-55002017D02*
X161008010Y-55068683D01*
X161008010Y-55068683D02*
X161008010Y-55335350D01*
X161341343Y-54635350D02*
X160641343Y-54635350D01*
X160641343Y-54168684D02*
X160641343Y-54035350D01*
X160641343Y-54035350D02*
X160674676Y-53968684D01*
X160674676Y-53968684D02*
X160741343Y-53902017D01*
X160741343Y-53902017D02*
X160874676Y-53868684D01*
X160874676Y-53868684D02*
X161108010Y-53868684D01*
X161108010Y-53868684D02*
X161241343Y-53902017D01*
X161241343Y-53902017D02*
X161308010Y-53968684D01*
X161308010Y-53968684D02*
X161341343Y-54035350D01*
X161341343Y-54035350D02*
X161341343Y-54168684D01*
X161341343Y-54168684D02*
X161308010Y-54235350D01*
X161308010Y-54235350D02*
X161241343Y-54302017D01*
X161241343Y-54302017D02*
X161108010Y-54335350D01*
X161108010Y-54335350D02*
X160874676Y-54335350D01*
X160874676Y-54335350D02*
X160741343Y-54302017D01*
X160741343Y-54302017D02*
X160674676Y-54235350D01*
X160674676Y-54235350D02*
X160641343Y-54168684D01*
X160641343Y-53435351D02*
X160641343Y-53368684D01*
X160641343Y-53368684D02*
X160674676Y-53302017D01*
X160674676Y-53302017D02*
X160708010Y-53268684D01*
X160708010Y-53268684D02*
X160774676Y-53235351D01*
X160774676Y-53235351D02*
X160908010Y-53202017D01*
X160908010Y-53202017D02*
X161074676Y-53202017D01*
X161074676Y-53202017D02*
X161208010Y-53235351D01*
X161208010Y-53235351D02*
X161274676Y-53268684D01*
X161274676Y-53268684D02*
X161308010Y-53302017D01*
X161308010Y-53302017D02*
X161341343Y-53368684D01*
X161341343Y-53368684D02*
X161341343Y-53435351D01*
X161341343Y-53435351D02*
X161308010Y-53502017D01*
X161308010Y-53502017D02*
X161274676Y-53535351D01*
X161274676Y-53535351D02*
X161208010Y-53568684D01*
X161208010Y-53568684D02*
X161074676Y-53602017D01*
X161074676Y-53602017D02*
X160908010Y-53602017D01*
X160908010Y-53602017D02*
X160774676Y-53568684D01*
X160774676Y-53568684D02*
X160708010Y-53535351D01*
X160708010Y-53535351D02*
X160674676Y-53502017D01*
X160674676Y-53502017D02*
X160641343Y-53435351D01*
X163214676Y-55668683D02*
X163181343Y-55735350D01*
X163181343Y-55735350D02*
X163181343Y-55835350D01*
X163181343Y-55835350D02*
X163214676Y-55935350D01*
X163214676Y-55935350D02*
X163281343Y-56002017D01*
X163281343Y-56002017D02*
X163348010Y-56035350D01*
X163348010Y-56035350D02*
X163481343Y-56068683D01*
X163481343Y-56068683D02*
X163581343Y-56068683D01*
X163581343Y-56068683D02*
X163714676Y-56035350D01*
X163714676Y-56035350D02*
X163781343Y-56002017D01*
X163781343Y-56002017D02*
X163848010Y-55935350D01*
X163848010Y-55935350D02*
X163881343Y-55835350D01*
X163881343Y-55835350D02*
X163881343Y-55768683D01*
X163881343Y-55768683D02*
X163848010Y-55668683D01*
X163848010Y-55668683D02*
X163814676Y-55635350D01*
X163814676Y-55635350D02*
X163581343Y-55635350D01*
X163581343Y-55635350D02*
X163581343Y-55768683D01*
X163881343Y-55335350D02*
X163181343Y-55335350D01*
X163181343Y-55335350D02*
X163181343Y-55068683D01*
X163181343Y-55068683D02*
X163214676Y-55002017D01*
X163214676Y-55002017D02*
X163248010Y-54968683D01*
X163248010Y-54968683D02*
X163314676Y-54935350D01*
X163314676Y-54935350D02*
X163414676Y-54935350D01*
X163414676Y-54935350D02*
X163481343Y-54968683D01*
X163481343Y-54968683D02*
X163514676Y-55002017D01*
X163514676Y-55002017D02*
X163548010Y-55068683D01*
X163548010Y-55068683D02*
X163548010Y-55335350D01*
X163881343Y-54635350D02*
X163181343Y-54635350D01*
X163181343Y-54168684D02*
X163181343Y-54035350D01*
X163181343Y-54035350D02*
X163214676Y-53968684D01*
X163214676Y-53968684D02*
X163281343Y-53902017D01*
X163281343Y-53902017D02*
X163414676Y-53868684D01*
X163414676Y-53868684D02*
X163648010Y-53868684D01*
X163648010Y-53868684D02*
X163781343Y-53902017D01*
X163781343Y-53902017D02*
X163848010Y-53968684D01*
X163848010Y-53968684D02*
X163881343Y-54035350D01*
X163881343Y-54035350D02*
X163881343Y-54168684D01*
X163881343Y-54168684D02*
X163848010Y-54235350D01*
X163848010Y-54235350D02*
X163781343Y-54302017D01*
X163781343Y-54302017D02*
X163648010Y-54335350D01*
X163648010Y-54335350D02*
X163414676Y-54335350D01*
X163414676Y-54335350D02*
X163281343Y-54302017D01*
X163281343Y-54302017D02*
X163214676Y-54235350D01*
X163214676Y-54235350D02*
X163181343Y-54168684D01*
X163248010Y-53602017D02*
X163214676Y-53568684D01*
X163214676Y-53568684D02*
X163181343Y-53502017D01*
X163181343Y-53502017D02*
X163181343Y-53335351D01*
X163181343Y-53335351D02*
X163214676Y-53268684D01*
X163214676Y-53268684D02*
X163248010Y-53235351D01*
X163248010Y-53235351D02*
X163314676Y-53202017D01*
X163314676Y-53202017D02*
X163381343Y-53202017D01*
X163381343Y-53202017D02*
X163481343Y-53235351D01*
X163481343Y-53235351D02*
X163881343Y-53635351D01*
X163881343Y-53635351D02*
X163881343Y-53202017D01*
X168961343Y-54268684D02*
X168261343Y-54268684D01*
X168261343Y-54268684D02*
X168261343Y-54102017D01*
X168261343Y-54102017D02*
X168294676Y-54002017D01*
X168294676Y-54002017D02*
X168361343Y-53935351D01*
X168361343Y-53935351D02*
X168428010Y-53902017D01*
X168428010Y-53902017D02*
X168561343Y-53868684D01*
X168561343Y-53868684D02*
X168661343Y-53868684D01*
X168661343Y-53868684D02*
X168794676Y-53902017D01*
X168794676Y-53902017D02*
X168861343Y-53935351D01*
X168861343Y-53935351D02*
X168928010Y-54002017D01*
X168928010Y-54002017D02*
X168961343Y-54102017D01*
X168961343Y-54102017D02*
X168961343Y-54268684D01*
X168961343Y-53202017D02*
X168961343Y-53602017D01*
X168961343Y-53402017D02*
X168261343Y-53402017D01*
X168261343Y-53402017D02*
X168361343Y-53468684D01*
X168361343Y-53468684D02*
X168428010Y-53535351D01*
X168428010Y-53535351D02*
X168461343Y-53602017D01*
X171434676Y-75164649D02*
X171468010Y-75197982D01*
X171468010Y-75197982D02*
X171501343Y-75297982D01*
X171501343Y-75297982D02*
X171501343Y-75364649D01*
X171501343Y-75364649D02*
X171468010Y-75464649D01*
X171468010Y-75464649D02*
X171401343Y-75531316D01*
X171401343Y-75531316D02*
X171334676Y-75564649D01*
X171334676Y-75564649D02*
X171201343Y-75597982D01*
X171201343Y-75597982D02*
X171101343Y-75597982D01*
X171101343Y-75597982D02*
X170968010Y-75564649D01*
X170968010Y-75564649D02*
X170901343Y-75531316D01*
X170901343Y-75531316D02*
X170834676Y-75464649D01*
X170834676Y-75464649D02*
X170801343Y-75364649D01*
X170801343Y-75364649D02*
X170801343Y-75297982D01*
X170801343Y-75297982D02*
X170834676Y-75197982D01*
X170834676Y-75197982D02*
X170868010Y-75164649D01*
X171501343Y-74864649D02*
X170801343Y-74864649D01*
X170801343Y-74864649D02*
X171301343Y-74631316D01*
X171301343Y-74631316D02*
X170801343Y-74397982D01*
X170801343Y-74397982D02*
X171501343Y-74397982D01*
X171501343Y-74064649D02*
X170801343Y-74064649D01*
X170801343Y-74064649D02*
X170801343Y-73897982D01*
X170801343Y-73897982D02*
X170834676Y-73797982D01*
X170834676Y-73797982D02*
X170901343Y-73731316D01*
X170901343Y-73731316D02*
X170968010Y-73697982D01*
X170968010Y-73697982D02*
X171101343Y-73664649D01*
X171101343Y-73664649D02*
X171201343Y-73664649D01*
X171201343Y-73664649D02*
X171334676Y-73697982D01*
X171334676Y-73697982D02*
X171401343Y-73731316D01*
X171401343Y-73731316D02*
X171468010Y-73797982D01*
X171468010Y-73797982D02*
X171501343Y-73897982D01*
X171501343Y-73897982D02*
X171501343Y-74064649D01*
X127460129Y-75588458D02*
X127460129Y-74969411D01*
X127460129Y-74969411D02*
X127841081Y-75302744D01*
X127841081Y-75302744D02*
X127841081Y-75159887D01*
X127841081Y-75159887D02*
X127888700Y-75064649D01*
X127888700Y-75064649D02*
X127936319Y-75017030D01*
X127936319Y-75017030D02*
X128031557Y-74969411D01*
X128031557Y-74969411D02*
X128269652Y-74969411D01*
X128269652Y-74969411D02*
X128364890Y-75017030D01*
X128364890Y-75017030D02*
X128412510Y-75064649D01*
X128412510Y-75064649D02*
X128460129Y-75159887D01*
X128460129Y-75159887D02*
X128460129Y-75445601D01*
X128460129Y-75445601D02*
X128412510Y-75540839D01*
X128412510Y-75540839D02*
X128364890Y-75588458D01*
X127460129Y-74683696D02*
X128460129Y-74350363D01*
X128460129Y-74350363D02*
X127460129Y-74017030D01*
X127460129Y-73778934D02*
X127460129Y-73159887D01*
X127460129Y-73159887D02*
X127841081Y-73493220D01*
X127841081Y-73493220D02*
X127841081Y-73350363D01*
X127841081Y-73350363D02*
X127888700Y-73255125D01*
X127888700Y-73255125D02*
X127936319Y-73207506D01*
X127936319Y-73207506D02*
X128031557Y-73159887D01*
X128031557Y-73159887D02*
X128269652Y-73159887D01*
X128269652Y-73159887D02*
X128364890Y-73207506D01*
X128364890Y-73207506D02*
X128412510Y-73255125D01*
X128412510Y-73255125D02*
X128460129Y-73350363D01*
X128460129Y-73350363D02*
X128460129Y-73636077D01*
X128460129Y-73636077D02*
X128412510Y-73731315D01*
X128412510Y-73731315D02*
X128364890Y-73778934D01*
X140354676Y-75197982D02*
X140321343Y-75264649D01*
X140321343Y-75264649D02*
X140321343Y-75364649D01*
X140321343Y-75364649D02*
X140354676Y-75464649D01*
X140354676Y-75464649D02*
X140421343Y-75531316D01*
X140421343Y-75531316D02*
X140488010Y-75564649D01*
X140488010Y-75564649D02*
X140621343Y-75597982D01*
X140621343Y-75597982D02*
X140721343Y-75597982D01*
X140721343Y-75597982D02*
X140854676Y-75564649D01*
X140854676Y-75564649D02*
X140921343Y-75531316D01*
X140921343Y-75531316D02*
X140988010Y-75464649D01*
X140988010Y-75464649D02*
X141021343Y-75364649D01*
X141021343Y-75364649D02*
X141021343Y-75297982D01*
X141021343Y-75297982D02*
X140988010Y-75197982D01*
X140988010Y-75197982D02*
X140954676Y-75164649D01*
X140954676Y-75164649D02*
X140721343Y-75164649D01*
X140721343Y-75164649D02*
X140721343Y-75297982D01*
X141021343Y-74864649D02*
X140321343Y-74864649D01*
X140321343Y-74864649D02*
X140321343Y-74597982D01*
X140321343Y-74597982D02*
X140354676Y-74531316D01*
X140354676Y-74531316D02*
X140388010Y-74497982D01*
X140388010Y-74497982D02*
X140454676Y-74464649D01*
X140454676Y-74464649D02*
X140554676Y-74464649D01*
X140554676Y-74464649D02*
X140621343Y-74497982D01*
X140621343Y-74497982D02*
X140654676Y-74531316D01*
X140654676Y-74531316D02*
X140688010Y-74597982D01*
X140688010Y-74597982D02*
X140688010Y-74864649D01*
X141021343Y-74164649D02*
X140321343Y-74164649D01*
X140321343Y-73697983D02*
X140321343Y-73564649D01*
X140321343Y-73564649D02*
X140354676Y-73497983D01*
X140354676Y-73497983D02*
X140421343Y-73431316D01*
X140421343Y-73431316D02*
X140554676Y-73397983D01*
X140554676Y-73397983D02*
X140788010Y-73397983D01*
X140788010Y-73397983D02*
X140921343Y-73431316D01*
X140921343Y-73431316D02*
X140988010Y-73497983D01*
X140988010Y-73497983D02*
X141021343Y-73564649D01*
X141021343Y-73564649D02*
X141021343Y-73697983D01*
X141021343Y-73697983D02*
X140988010Y-73764649D01*
X140988010Y-73764649D02*
X140921343Y-73831316D01*
X140921343Y-73831316D02*
X140788010Y-73864649D01*
X140788010Y-73864649D02*
X140554676Y-73864649D01*
X140554676Y-73864649D02*
X140421343Y-73831316D01*
X140421343Y-73831316D02*
X140354676Y-73764649D01*
X140354676Y-73764649D02*
X140321343Y-73697983D01*
X140321343Y-73164650D02*
X140321343Y-72731316D01*
X140321343Y-72731316D02*
X140588010Y-72964650D01*
X140588010Y-72964650D02*
X140588010Y-72864650D01*
X140588010Y-72864650D02*
X140621343Y-72797983D01*
X140621343Y-72797983D02*
X140654676Y-72764650D01*
X140654676Y-72764650D02*
X140721343Y-72731316D01*
X140721343Y-72731316D02*
X140888010Y-72731316D01*
X140888010Y-72731316D02*
X140954676Y-72764650D01*
X140954676Y-72764650D02*
X140988010Y-72797983D01*
X140988010Y-72797983D02*
X141021343Y-72864650D01*
X141021343Y-72864650D02*
X141021343Y-73064650D01*
X141021343Y-73064650D02*
X140988010Y-73131316D01*
X140988010Y-73131316D02*
X140954676Y-73164650D01*
X140321343Y-72097983D02*
X140321343Y-72431316D01*
X140321343Y-72431316D02*
X140654676Y-72464649D01*
X140654676Y-72464649D02*
X140621343Y-72431316D01*
X140621343Y-72431316D02*
X140588010Y-72364649D01*
X140588010Y-72364649D02*
X140588010Y-72197983D01*
X140588010Y-72197983D02*
X140621343Y-72131316D01*
X140621343Y-72131316D02*
X140654676Y-72097983D01*
X140654676Y-72097983D02*
X140721343Y-72064649D01*
X140721343Y-72064649D02*
X140888010Y-72064649D01*
X140888010Y-72064649D02*
X140954676Y-72097983D01*
X140954676Y-72097983D02*
X140988010Y-72131316D01*
X140988010Y-72131316D02*
X141021343Y-72197983D01*
X141021343Y-72197983D02*
X141021343Y-72364649D01*
X141021343Y-72364649D02*
X140988010Y-72431316D01*
X140988010Y-72431316D02*
X140954676Y-72464649D01*
X171583333Y-113704819D02*
X171250000Y-113228628D01*
X171011905Y-113704819D02*
X171011905Y-112704819D01*
X171011905Y-112704819D02*
X171392857Y-112704819D01*
X171392857Y-112704819D02*
X171488095Y-112752438D01*
X171488095Y-112752438D02*
X171535714Y-112800057D01*
X171535714Y-112800057D02*
X171583333Y-112895295D01*
X171583333Y-112895295D02*
X171583333Y-113038152D01*
X171583333Y-113038152D02*
X171535714Y-113133390D01*
X171535714Y-113133390D02*
X171488095Y-113181009D01*
X171488095Y-113181009D02*
X171392857Y-113228628D01*
X171392857Y-113228628D02*
X171011905Y-113228628D01*
X172535714Y-113704819D02*
X171964286Y-113704819D01*
X172250000Y-113704819D02*
X172250000Y-112704819D01*
X172250000Y-112704819D02*
X172154762Y-112847676D01*
X172154762Y-112847676D02*
X172059524Y-112942914D01*
X172059524Y-112942914D02*
X171964286Y-112990533D01*
X176214819Y-42243333D02*
X176929104Y-42243333D01*
X176929104Y-42243333D02*
X177071961Y-42290952D01*
X177071961Y-42290952D02*
X177167200Y-42386190D01*
X177167200Y-42386190D02*
X177214819Y-42529047D01*
X177214819Y-42529047D02*
X177214819Y-42624285D01*
X176310057Y-41814761D02*
X176262438Y-41767142D01*
X176262438Y-41767142D02*
X176214819Y-41671904D01*
X176214819Y-41671904D02*
X176214819Y-41433809D01*
X176214819Y-41433809D02*
X176262438Y-41338571D01*
X176262438Y-41338571D02*
X176310057Y-41290952D01*
X176310057Y-41290952D02*
X176405295Y-41243333D01*
X176405295Y-41243333D02*
X176500533Y-41243333D01*
X176500533Y-41243333D02*
X176643390Y-41290952D01*
X176643390Y-41290952D02*
X177214819Y-41862380D01*
X177214819Y-41862380D02*
X177214819Y-41243333D01*
D14*
%TO.C,SW2*%
X153450000Y-99320000D02*
X153450000Y-100820000D01*
X154700000Y-103320000D02*
X159200000Y-103320000D01*
X159200000Y-96820000D02*
X154700000Y-96820000D01*
X160450000Y-100820000D02*
X160450000Y-99320000D01*
D15*
%TO.C,G\u002A\u002A\u002A*%
G36*
X139354645Y-128840482D02*
G01*
X139504876Y-128840513D01*
X139504876Y-129316855D01*
X139504876Y-129793197D01*
X139350664Y-129793197D01*
X139196453Y-129793197D01*
X139200434Y-130401292D01*
X139201290Y-130555221D01*
X139201616Y-130682220D01*
X139201353Y-130784670D01*
X139200440Y-130864950D01*
X139198817Y-130925440D01*
X139196424Y-130968520D01*
X139193201Y-130996569D01*
X139189088Y-131011969D01*
X139184895Y-131016872D01*
X139162338Y-131020148D01*
X139118125Y-131022696D01*
X139059911Y-131024152D01*
X139027335Y-131024356D01*
X138889296Y-131024356D01*
X138889296Y-131471385D01*
X138889296Y-131918413D01*
X138742729Y-131918413D01*
X138596163Y-131918413D01*
X138596163Y-132079636D01*
X138596163Y-132240860D01*
X138435452Y-132240860D01*
X138274741Y-132240860D01*
X138270565Y-132391090D01*
X138266388Y-132541321D01*
X138126423Y-132545481D01*
X138064986Y-132546264D01*
X138014955Y-132544951D01*
X137983304Y-132541825D01*
X137976192Y-132539374D01*
X137973628Y-132522676D01*
X137971297Y-132480338D01*
X137969284Y-132416033D01*
X137967671Y-132333436D01*
X137966540Y-132236219D01*
X137965975Y-132128055D01*
X137965926Y-132084522D01*
X137965926Y-131639936D01*
X138127149Y-131639936D01*
X138288373Y-131639936D01*
X138288373Y-131332146D01*
X138288373Y-131024356D01*
X138442268Y-131024356D01*
X138596163Y-131024356D01*
X138596163Y-130716566D01*
X138596163Y-130408777D01*
X138436702Y-130408777D01*
X138277240Y-130408777D01*
X138284882Y-130570000D01*
X138292524Y-130731223D01*
X138129225Y-130731223D01*
X137965926Y-130731223D01*
X137965926Y-130423433D01*
X137966093Y-130331175D01*
X137966561Y-130248916D01*
X137967277Y-130181144D01*
X137968190Y-130132348D01*
X137969248Y-130107016D01*
X137969590Y-130104651D01*
X137984808Y-130100176D01*
X138023165Y-130096579D01*
X138078491Y-130094280D01*
X138130831Y-130093658D01*
X138288407Y-130093658D01*
X138288390Y-129936712D01*
X138288373Y-129779766D01*
X138434939Y-129788695D01*
X138581506Y-129797625D01*
X138581506Y-129634187D01*
X138581506Y-129470750D01*
X138735401Y-129470750D01*
X138889296Y-129470750D01*
X138889296Y-129309527D01*
X138889296Y-129148303D01*
X139051462Y-129148303D01*
X139213628Y-129148303D01*
X139209021Y-128994377D01*
X139204414Y-128840452D01*
X139354645Y-128840482D01*
G37*
G36*
X128702914Y-128994408D02*
G01*
X128702914Y-129148303D01*
X128856809Y-129148303D01*
X129010704Y-129148303D01*
X129010704Y-129309527D01*
X129010704Y-129470750D01*
X129156775Y-129470750D01*
X129302845Y-129470750D01*
X129307005Y-129628309D01*
X129311165Y-129785868D01*
X129457732Y-129787043D01*
X129604299Y-129788218D01*
X129607813Y-129882312D01*
X129611011Y-129943320D01*
X129615584Y-130002251D01*
X129619134Y-130035032D01*
X129626941Y-130093658D01*
X129776843Y-130093658D01*
X129926745Y-130093658D01*
X129930695Y-130412441D01*
X129934645Y-130731223D01*
X129780465Y-130731223D01*
X129626284Y-130731223D01*
X129626284Y-130570822D01*
X129626284Y-130410420D01*
X129468725Y-130418943D01*
X129404194Y-130422735D01*
X129351574Y-130426396D01*
X129317068Y-130429458D01*
X129306675Y-130431162D01*
X129305802Y-130446239D01*
X129305975Y-130486159D01*
X129307105Y-130546474D01*
X129309106Y-130622737D01*
X129311891Y-130710499D01*
X129312536Y-130729103D01*
X129322888Y-131023348D01*
X129463593Y-131027516D01*
X129604299Y-131031685D01*
X129608260Y-131335811D01*
X129612222Y-131639936D01*
X129773148Y-131639936D01*
X129934074Y-131639936D01*
X129934074Y-132085397D01*
X129933929Y-132212699D01*
X129933392Y-132313731D01*
X129932306Y-132391535D01*
X129930517Y-132449152D01*
X129927870Y-132489625D01*
X129924209Y-132515995D01*
X129919379Y-132531304D01*
X129913225Y-132538594D01*
X129910890Y-132539753D01*
X129886357Y-132543759D01*
X129840729Y-132546829D01*
X129782223Y-132548488D01*
X129756995Y-132548650D01*
X129626284Y-132548650D01*
X129626284Y-132394755D01*
X129626284Y-132240860D01*
X129459138Y-132240860D01*
X129291992Y-132240860D01*
X129294250Y-132083300D01*
X129296509Y-131925741D01*
X129153606Y-131921546D01*
X129010704Y-131917352D01*
X129010704Y-131470854D01*
X129010704Y-131024356D01*
X128864137Y-131024356D01*
X128717571Y-131024356D01*
X128715338Y-130712902D01*
X128714521Y-130619799D01*
X128713506Y-130536413D01*
X128712371Y-130467271D01*
X128711194Y-130416901D01*
X128710053Y-130389831D01*
X128709700Y-130386792D01*
X128708571Y-130368211D01*
X128707426Y-130325036D01*
X128706343Y-130261985D01*
X128705401Y-130183775D01*
X128704680Y-130095125D01*
X128704605Y-130082666D01*
X128702914Y-129793197D01*
X128541691Y-129793197D01*
X128380467Y-129793197D01*
X128380467Y-129316855D01*
X128380467Y-128840513D01*
X128541691Y-128840513D01*
X128702914Y-128840513D01*
X128702914Y-128994408D01*
G37*
G36*
X129626284Y-124549775D02*
G01*
X129626284Y-124868557D01*
X129457732Y-124868557D01*
X129289180Y-124868557D01*
X129289180Y-125462152D01*
X129289247Y-125609889D01*
X129289521Y-125730956D01*
X129290117Y-125827995D01*
X129291150Y-125903650D01*
X129292732Y-125960563D01*
X129294979Y-126001379D01*
X129298004Y-126028739D01*
X129301922Y-126045286D01*
X129306846Y-126053664D01*
X129312890Y-126056516D01*
X129314830Y-126056685D01*
X129340377Y-126056914D01*
X129387030Y-126056735D01*
X129446585Y-126056190D01*
X129475548Y-126055836D01*
X129610618Y-126054050D01*
X129614787Y-126212457D01*
X129618955Y-126370865D01*
X129776515Y-126375025D01*
X129934074Y-126379185D01*
X129934074Y-126538530D01*
X129934074Y-126697874D01*
X130080640Y-126689797D01*
X130227207Y-126681721D01*
X130227207Y-126830419D01*
X130227207Y-126979117D01*
X130549654Y-126979117D01*
X130872100Y-126979117D01*
X130872100Y-127456407D01*
X130872100Y-127933696D01*
X131015003Y-127929084D01*
X131157905Y-127924472D01*
X131161772Y-127451794D01*
X131165640Y-126979117D01*
X131315667Y-126977381D01*
X131379461Y-126976815D01*
X131432071Y-126976671D01*
X131466752Y-126976947D01*
X131476688Y-126977381D01*
X131481100Y-126964440D01*
X131484667Y-126928020D01*
X131486988Y-126873952D01*
X131487680Y-126817894D01*
X131487680Y-126656670D01*
X131648903Y-126656670D01*
X131810127Y-126656670D01*
X131810127Y-126500570D01*
X131810127Y-126344469D01*
X132117917Y-126354831D01*
X132425707Y-126365194D01*
X132425707Y-126210404D01*
X132425707Y-126055615D01*
X133964042Y-126056089D01*
X135502377Y-126056563D01*
X135499327Y-126206386D01*
X135496278Y-126356209D01*
X135800404Y-126360170D01*
X136104530Y-126364132D01*
X136104530Y-126517729D01*
X136104530Y-126671327D01*
X136258425Y-126671327D01*
X136412320Y-126671327D01*
X136412320Y-126825222D01*
X136412320Y-126979117D01*
X136573543Y-126979117D01*
X136734766Y-126979117D01*
X136734766Y-127455459D01*
X136734766Y-127931800D01*
X136888661Y-127931800D01*
X137042556Y-127931800D01*
X137042542Y-127459123D01*
X137042528Y-126986445D01*
X137350332Y-126990675D01*
X137658136Y-126994906D01*
X137658136Y-126838340D01*
X137658136Y-126681774D01*
X137812031Y-126689628D01*
X137965926Y-126697483D01*
X137965926Y-126537838D01*
X137965926Y-126378194D01*
X138127149Y-126378194D01*
X138288373Y-126378194D01*
X138288373Y-126214866D01*
X138288373Y-126051537D01*
X138442268Y-126059392D01*
X138596163Y-126067246D01*
X138596163Y-125467902D01*
X138596163Y-124868557D01*
X138442268Y-124868557D01*
X138288373Y-124868557D01*
X138288373Y-124553439D01*
X138288373Y-124238321D01*
X138446447Y-124238321D01*
X138604521Y-124238321D01*
X138598654Y-124386229D01*
X138592787Y-124534137D01*
X138755716Y-124529131D01*
X138918645Y-124524126D01*
X138918627Y-124680054D01*
X138918609Y-124835982D01*
X138971613Y-124845925D01*
X139015356Y-124849704D01*
X139073449Y-124849155D01*
X139118179Y-124845849D01*
X139211742Y-124835829D01*
X139211742Y-125140161D01*
X139211742Y-125444494D01*
X139350981Y-125434706D01*
X139490219Y-125424919D01*
X139490219Y-126070108D01*
X139490219Y-126715297D01*
X139350426Y-126715297D01*
X139210632Y-126715297D01*
X139214851Y-127030429D01*
X139219071Y-127345561D01*
X139061512Y-127345547D01*
X138903953Y-127345534D01*
X138903953Y-127638667D01*
X138903953Y-127931800D01*
X138750058Y-127931800D01*
X138596163Y-127931800D01*
X138596163Y-128086510D01*
X138596163Y-128241221D01*
X138440467Y-128238548D01*
X138284771Y-128235874D01*
X138287404Y-128401298D01*
X138290037Y-128566721D01*
X137820191Y-128556542D01*
X137350346Y-128546362D01*
X137350346Y-128693438D01*
X137350346Y-128840513D01*
X137504241Y-128840513D01*
X137658136Y-128840513D01*
X137658136Y-130386792D01*
X137658136Y-131933070D01*
X137504241Y-131933070D01*
X137350346Y-131933070D01*
X137350346Y-132240860D01*
X137350346Y-132548650D01*
X137196451Y-132548650D01*
X137042556Y-132548650D01*
X137042556Y-133325453D01*
X137042556Y-134102256D01*
X136888661Y-134102256D01*
X136734766Y-134102256D01*
X136734766Y-134417374D01*
X136734766Y-134732493D01*
X136588200Y-134732493D01*
X136441633Y-134732493D01*
X136441633Y-134886388D01*
X136441633Y-135040283D01*
X136280410Y-135040283D01*
X136119186Y-135040283D01*
X136119186Y-135194178D01*
X136119186Y-135348073D01*
X135955804Y-135348073D01*
X135792422Y-135348073D01*
X135802338Y-135501440D01*
X135812253Y-135654808D01*
X135661594Y-135651747D01*
X135510935Y-135648686D01*
X135514567Y-135974721D01*
X135518199Y-136300756D01*
X135357008Y-136300756D01*
X135195816Y-136300756D01*
X135195816Y-136461979D01*
X135195816Y-136623202D01*
X135033587Y-136623202D01*
X134871358Y-136623202D01*
X134876028Y-136762474D01*
X134880698Y-136901745D01*
X134563494Y-136901712D01*
X134246291Y-136901679D01*
X134254145Y-137055574D01*
X134262000Y-137209469D01*
X133952105Y-137209469D01*
X133642210Y-137209469D01*
X133642210Y-137055574D01*
X133642210Y-136901679D01*
X133341748Y-136901679D01*
X133041287Y-136901679D01*
X133041287Y-136762441D01*
X133041287Y-136623202D01*
X132887392Y-136623202D01*
X132733497Y-136623202D01*
X132733497Y-136463971D01*
X132733497Y-136304740D01*
X132665496Y-136295420D01*
X132610146Y-136290022D01*
X132544897Y-136286658D01*
X132511601Y-136286099D01*
X132425707Y-136286099D01*
X132423102Y-136062585D01*
X132421944Y-135975244D01*
X132420561Y-135889617D01*
X132419104Y-135814023D01*
X132417723Y-135756783D01*
X132417325Y-135743803D01*
X132415511Y-135689342D01*
X133334420Y-135689342D01*
X133887709Y-135679555D01*
X134014952Y-135677111D01*
X134135208Y-135674433D01*
X134244788Y-135671631D01*
X134340001Y-135668814D01*
X134417156Y-135666093D01*
X134472564Y-135663576D01*
X134502534Y-135661374D01*
X134503289Y-135661275D01*
X134565580Y-135652784D01*
X134565580Y-135503785D01*
X134565580Y-135354786D01*
X133950000Y-135351415D01*
X133334420Y-135348045D01*
X133334420Y-135518694D01*
X133334420Y-135689342D01*
X132415511Y-135689342D01*
X132414152Y-135648534D01*
X132262370Y-135646353D01*
X132110588Y-135644172D01*
X132110588Y-135518694D01*
X132110588Y-135494401D01*
X132110588Y-135344630D01*
X131953029Y-135351111D01*
X131795470Y-135357593D01*
X131795500Y-135202602D01*
X131795530Y-135047611D01*
X131634277Y-135052189D01*
X131473024Y-135056768D01*
X131473024Y-134894630D01*
X131473024Y-134732493D01*
X131333785Y-134732493D01*
X131272375Y-134732496D01*
X131222294Y-134732505D01*
X131190596Y-134732519D01*
X131183554Y-134732527D01*
X131180023Y-134718584D01*
X131176285Y-134679537D01*
X131172581Y-134619591D01*
X131169152Y-134542954D01*
X131166242Y-134453830D01*
X131165234Y-134413745D01*
X131157905Y-134094928D01*
X131007674Y-134100019D01*
X130857444Y-134105111D01*
X130856126Y-133543066D01*
X130855656Y-133407560D01*
X130854909Y-133272767D01*
X130853930Y-133143527D01*
X130852767Y-133024683D01*
X130852016Y-132964892D01*
X131161274Y-132964892D01*
X131162543Y-133032445D01*
X131167180Y-133178886D01*
X131294453Y-133179086D01*
X131359971Y-133178633D01*
X131408791Y-133179525D01*
X131443329Y-133185490D01*
X131466002Y-133200258D01*
X131479225Y-133227558D01*
X131485417Y-133271118D01*
X131486993Y-133334668D01*
X131486370Y-133421936D01*
X131485993Y-133474643D01*
X131485967Y-133561854D01*
X131486647Y-133638622D01*
X131487934Y-133700281D01*
X131489729Y-133742164D01*
X131491933Y-133759606D01*
X131492037Y-133759739D01*
X131508877Y-133763059D01*
X131548443Y-133766174D01*
X131604147Y-133768659D01*
X131647369Y-133769762D01*
X131795397Y-133772481D01*
X131795433Y-133937369D01*
X131795470Y-134102256D01*
X131948869Y-134102256D01*
X132102268Y-134102256D01*
X132106428Y-134259815D01*
X132110588Y-134417374D01*
X132260819Y-134412283D01*
X132411050Y-134407191D01*
X132411250Y-134536864D01*
X132411482Y-134615796D01*
X132414417Y-134670049D01*
X132423843Y-134704236D01*
X132443549Y-134722974D01*
X132477323Y-134730874D01*
X132528953Y-134732553D01*
X132571863Y-134732493D01*
X132714601Y-134732493D01*
X132723945Y-134831425D01*
X132728907Y-134892194D01*
X132732336Y-134949854D01*
X132733392Y-134985320D01*
X132733497Y-135040283D01*
X133965991Y-135040283D01*
X135198485Y-135040283D01*
X135193486Y-134886371D01*
X135188488Y-134732460D01*
X135338719Y-134732476D01*
X135488950Y-134732493D01*
X135488950Y-134569111D01*
X135488950Y-134405729D01*
X135642845Y-134415678D01*
X135796740Y-134425628D01*
X135796740Y-134263942D01*
X135796740Y-134102256D01*
X135966527Y-134102256D01*
X136136314Y-134102256D01*
X136125864Y-133941033D01*
X136115415Y-133779809D01*
X136172263Y-133777302D01*
X136215129Y-133774842D01*
X136247471Y-133772012D01*
X136251096Y-133771532D01*
X136278557Y-133769224D01*
X136321834Y-133767253D01*
X136341000Y-133766711D01*
X136408918Y-133765153D01*
X136419648Y-133472019D01*
X136430378Y-133178886D01*
X136542266Y-133177036D01*
X136602592Y-133176233D01*
X136656370Y-133175857D01*
X136692654Y-133175981D01*
X136694460Y-133176015D01*
X136734766Y-133176844D01*
X136734766Y-133014810D01*
X136734766Y-132852775D01*
X136688964Y-132861936D01*
X136662755Y-132864300D01*
X136611430Y-132866439D01*
X136539186Y-132868268D01*
X136450222Y-132869708D01*
X136348733Y-132870675D01*
X136238919Y-132871087D01*
X136219951Y-132871096D01*
X135796740Y-132871096D01*
X135796740Y-133032320D01*
X135796740Y-133193543D01*
X135640617Y-133193543D01*
X135484495Y-133193543D01*
X135493911Y-133347438D01*
X135503327Y-133501333D01*
X135203284Y-133501333D01*
X135099541Y-133501771D01*
X135021407Y-133501629D01*
X134965221Y-133498719D01*
X134927324Y-133490854D01*
X134904054Y-133475847D01*
X134891752Y-133451512D01*
X134886757Y-133415662D01*
X134885409Y-133366109D01*
X134884374Y-133310796D01*
X134880698Y-133186215D01*
X134730467Y-133182038D01*
X134580236Y-133177861D01*
X134580236Y-133339597D01*
X134580236Y-133501333D01*
X134413447Y-133501333D01*
X134246658Y-133501333D01*
X134254203Y-133660526D01*
X134261749Y-133819720D01*
X133977628Y-133812744D01*
X133889137Y-133810114D01*
X133810802Y-133806918D01*
X133747300Y-133803417D01*
X133703309Y-133799874D01*
X133683505Y-133796550D01*
X133683051Y-133796255D01*
X133676154Y-133777586D01*
X133668928Y-133738865D01*
X133664056Y-133699000D01*
X133658003Y-133639109D01*
X133651757Y-133580849D01*
X133648535Y-133552631D01*
X133641552Y-133494004D01*
X133492423Y-133494004D01*
X133343295Y-133494004D01*
X133347247Y-133336445D01*
X133351199Y-133178886D01*
X133205160Y-133178886D01*
X133138727Y-133179129D01*
X133095887Y-133180810D01*
X133070916Y-133185362D01*
X133058096Y-133194217D01*
X133051703Y-133208806D01*
X133049335Y-133217878D01*
X133045043Y-133251018D01*
X133042600Y-133303181D01*
X133042439Y-133364114D01*
X133042691Y-133375437D01*
X133045835Y-133494004D01*
X132736269Y-133497959D01*
X132426704Y-133501913D01*
X132422541Y-133345747D01*
X132418378Y-133189582D01*
X132268148Y-133192399D01*
X132117917Y-133195216D01*
X132117917Y-133033156D01*
X132117917Y-132871096D01*
X131657431Y-132871096D01*
X131543490Y-132871326D01*
X131438572Y-132871978D01*
X131346378Y-132872993D01*
X131270609Y-132874315D01*
X131214968Y-132875886D01*
X131183154Y-132877649D01*
X131177425Y-132878550D01*
X131168201Y-132889571D01*
X131162958Y-132916888D01*
X131161274Y-132964892D01*
X130852016Y-132964892D01*
X130851466Y-132921074D01*
X130850074Y-132837542D01*
X130848772Y-132783156D01*
X130846535Y-132707824D01*
X130844678Y-132641391D01*
X130843369Y-132590225D01*
X130843123Y-132577934D01*
X132726168Y-132577934D01*
X132730409Y-132878410D01*
X132734651Y-133178886D01*
X132887969Y-133178886D01*
X133041287Y-133178886D01*
X133041287Y-132878425D01*
X133041287Y-132577963D01*
X133187853Y-132577963D01*
X133334420Y-132577963D01*
X134580236Y-132577963D01*
X134734131Y-132577963D01*
X134888026Y-132577963D01*
X134888026Y-132878425D01*
X134888026Y-133178886D01*
X135051477Y-133178886D01*
X135214928Y-133178886D01*
X135205372Y-133022711D01*
X135201042Y-132935707D01*
X135197744Y-132838472D01*
X135195996Y-132747620D01*
X135195847Y-132718585D01*
X135195878Y-132570635D01*
X135044156Y-132575198D01*
X134892433Y-132579762D01*
X134883006Y-132479930D01*
X134877980Y-132417301D01*
X134874520Y-132356219D01*
X134873474Y-132317807D01*
X134873370Y-132255516D01*
X134726803Y-132255516D01*
X134580236Y-132255516D01*
X134580236Y-132416740D01*
X134580236Y-132577963D01*
X133334420Y-132577963D01*
X133334420Y-132416740D01*
X133334420Y-132255516D01*
X133187853Y-132255516D01*
X133041287Y-132255516D01*
X133041287Y-132416740D01*
X133041287Y-132577963D01*
X132883727Y-132577948D01*
X132726168Y-132577934D01*
X130843123Y-132577934D01*
X130842778Y-132560692D01*
X130842761Y-132557899D01*
X130840746Y-132545344D01*
X130831066Y-132538042D01*
X130808310Y-132535335D01*
X130767068Y-132536563D01*
X130703549Y-132540946D01*
X130564310Y-132551385D01*
X130564310Y-132242227D01*
X130564310Y-131933070D01*
X130403087Y-131933070D01*
X130241864Y-131933070D01*
X130241864Y-130386792D01*
X130241864Y-130067689D01*
X130828130Y-130067689D01*
X130896131Y-130077009D01*
X130946699Y-130081812D01*
X131011792Y-130085177D01*
X131072011Y-130086330D01*
X131179890Y-130086330D01*
X131179890Y-130238515D01*
X131179857Y-130306389D01*
X131176720Y-130353286D01*
X131165921Y-130383078D01*
X131142905Y-130399639D01*
X131103116Y-130406842D01*
X131041995Y-130408559D01*
X130979811Y-130408576D01*
X130845688Y-130408777D01*
X130840561Y-130668932D01*
X130839173Y-130756874D01*
X130838536Y-130837759D01*
X130838647Y-130905725D01*
X130839503Y-130954911D01*
X130840714Y-130976722D01*
X130845994Y-131024356D01*
X131003572Y-131024356D01*
X131161150Y-131024356D01*
X131170393Y-131101304D01*
X131176123Y-131165494D01*
X131179443Y-131234477D01*
X131179763Y-131256179D01*
X131179890Y-131334107D01*
X131333785Y-131323798D01*
X131487680Y-131313489D01*
X131487680Y-131453529D01*
X131488576Y-131516913D01*
X131490978Y-131570747D01*
X131494460Y-131607205D01*
X131496577Y-131616753D01*
X131505636Y-131627521D01*
X131526326Y-131634454D01*
X131563811Y-131638302D01*
X131623254Y-131639816D01*
X131655940Y-131639936D01*
X131806408Y-131639936D01*
X131806348Y-131687571D01*
X131806587Y-131726639D01*
X131807267Y-131782665D01*
X131808208Y-131841466D01*
X131810127Y-131947726D01*
X132268148Y-131947720D01*
X132726168Y-131947714D01*
X132730865Y-131797678D01*
X132733513Y-131734360D01*
X132736927Y-131682690D01*
X132740602Y-131649215D01*
X132743048Y-131640125D01*
X132759356Y-131637567D01*
X132800365Y-131634880D01*
X132861465Y-131632259D01*
X132938047Y-131629897D01*
X133025500Y-131627990D01*
X133035149Y-131627823D01*
X133319763Y-131623038D01*
X133319763Y-131470264D01*
X133319763Y-131317490D01*
X133480987Y-131317490D01*
X133642210Y-131317490D01*
X133642210Y-130863133D01*
X133642210Y-130423433D01*
X134243133Y-130423433D01*
X134244594Y-130830156D01*
X134245335Y-130938240D01*
X134246691Y-131038186D01*
X134248550Y-131125809D01*
X134250803Y-131196922D01*
X134253342Y-131247341D01*
X134256055Y-131272879D01*
X134256218Y-131273520D01*
X134262100Y-131290066D01*
X134272491Y-131300892D01*
X134293055Y-131307443D01*
X134329458Y-131311168D01*
X134387363Y-131313513D01*
X134415980Y-131314338D01*
X134565580Y-131318515D01*
X134565580Y-131469645D01*
X134565580Y-131620775D01*
X134743761Y-131630356D01*
X134829649Y-131634339D01*
X134920538Y-131637513D01*
X135003804Y-131639483D01*
X135051551Y-131639936D01*
X135181160Y-131639936D01*
X135181160Y-131793831D01*
X135181160Y-131947726D01*
X135642845Y-131947726D01*
X136104530Y-131947726D01*
X136104530Y-131785560D01*
X136104530Y-131623394D01*
X136258455Y-131628001D01*
X136412381Y-131632608D01*
X136412350Y-131482377D01*
X136412320Y-131332146D01*
X136566215Y-131332146D01*
X136720109Y-131332146D01*
X136720109Y-131178251D01*
X136720109Y-131024356D01*
X136895989Y-131024356D01*
X137071869Y-131024356D01*
X137071869Y-130716566D01*
X137071869Y-130408777D01*
X136903318Y-130408777D01*
X136734766Y-130408777D01*
X136734766Y-130246666D01*
X136734766Y-130084555D01*
X136903347Y-130089107D01*
X137071927Y-130093658D01*
X137071898Y-129774876D01*
X137071869Y-129456093D01*
X136742094Y-129456093D01*
X136412320Y-129456093D01*
X136412320Y-129617317D01*
X136412320Y-129778540D01*
X136258425Y-129778540D01*
X136104530Y-129778540D01*
X136104546Y-129936099D01*
X136104563Y-130093658D01*
X135950651Y-130088660D01*
X135796740Y-130083662D01*
X135796740Y-130246219D01*
X135796740Y-130408777D01*
X135643357Y-130408777D01*
X135489975Y-130408777D01*
X135485798Y-130559007D01*
X135481621Y-130709238D01*
X135330466Y-130705002D01*
X135179310Y-130700766D01*
X135183899Y-130862056D01*
X135188488Y-131023346D01*
X134877020Y-131027515D01*
X134565552Y-131031685D01*
X134565499Y-130892446D01*
X134564516Y-130814948D01*
X134561922Y-130722891D01*
X134558179Y-130630960D01*
X134555945Y-130588321D01*
X134546444Y-130423433D01*
X134394789Y-130423433D01*
X134243133Y-130423433D01*
X133642210Y-130423433D01*
X133642210Y-130408777D01*
X133488315Y-130408777D01*
X133334420Y-130408777D01*
X133334420Y-130714749D01*
X133334420Y-131020721D01*
X133026630Y-131019800D01*
X132718840Y-131018878D01*
X132718840Y-130851177D01*
X132718840Y-130683477D01*
X132572273Y-130693868D01*
X132425707Y-130704259D01*
X132425707Y-130549189D01*
X132425707Y-130394120D01*
X132272308Y-130394120D01*
X132118908Y-130394120D01*
X132114748Y-130237142D01*
X132110588Y-130080164D01*
X131960358Y-130084416D01*
X131810127Y-130088669D01*
X131810127Y-129926276D01*
X131810127Y-129763883D01*
X131648903Y-129763883D01*
X131487680Y-129763883D01*
X131487680Y-129609564D01*
X131487680Y-129455244D01*
X131164905Y-129457600D01*
X131070856Y-129458678D01*
X130987197Y-129460386D01*
X130918185Y-129462574D01*
X130868079Y-129465093D01*
X130841137Y-129467797D01*
X130837712Y-129469017D01*
X130836638Y-129486963D01*
X130837757Y-129526399D01*
X130840819Y-129579602D01*
X130841774Y-129593024D01*
X130844455Y-129647906D01*
X130843964Y-129690455D01*
X130840462Y-129713150D01*
X130839192Y-129714807D01*
X130834872Y-129731297D01*
X130831342Y-129771083D01*
X130828971Y-129828150D01*
X130828130Y-129894666D01*
X130828130Y-130067689D01*
X130241864Y-130067689D01*
X130241864Y-129894666D01*
X130241864Y-128840513D01*
X130404655Y-128840513D01*
X130475846Y-128840054D01*
X130522286Y-128838218D01*
X130548530Y-128834320D01*
X130559133Y-128827673D01*
X130558649Y-128817592D01*
X130558550Y-128817330D01*
X130554434Y-128792511D01*
X130551327Y-128746946D01*
X130549751Y-128689199D01*
X130549654Y-128670771D01*
X130549654Y-128547396D01*
X130095303Y-128549837D01*
X129982894Y-128550240D01*
X129880194Y-128550222D01*
X129790794Y-128549816D01*
X129718286Y-128549051D01*
X129666258Y-128547960D01*
X129638304Y-128546572D01*
X129634519Y-128545845D01*
X129630891Y-128529426D01*
X129626203Y-128490220D01*
X129621151Y-128434701D01*
X129617762Y-128389501D01*
X129607437Y-128239590D01*
X129455637Y-128239590D01*
X129303837Y-128239590D01*
X129303837Y-128229819D01*
X129303837Y-128078367D01*
X129303837Y-127931800D01*
X130549654Y-127931800D01*
X130549654Y-128229819D01*
X130550172Y-128320585D01*
X130551618Y-128401329D01*
X130553829Y-128467478D01*
X130556643Y-128514456D01*
X130559897Y-128537691D01*
X130560646Y-128539152D01*
X130580098Y-128543825D01*
X130619218Y-128544325D01*
X130658064Y-128541594D01*
X130719090Y-128536517D01*
X130779902Y-128533307D01*
X130808295Y-128532723D01*
X130872100Y-128532723D01*
X130872099Y-128530954D01*
X137057213Y-128530954D01*
X137112175Y-128536703D01*
X137158182Y-128540335D01*
X137217501Y-128543507D01*
X137256503Y-128544916D01*
X137345867Y-128547380D01*
X137355368Y-128382493D01*
X137359537Y-128295728D01*
X137362791Y-128200622D01*
X137364663Y-128112168D01*
X137364936Y-128074703D01*
X137365003Y-127931800D01*
X137211108Y-127931800D01*
X137057213Y-127931800D01*
X137057213Y-128231377D01*
X137057213Y-128530954D01*
X130872099Y-128530954D01*
X130872047Y-128441119D01*
X130871331Y-128391682D01*
X130869411Y-128321673D01*
X130866566Y-128239798D01*
X130866220Y-128231377D01*
X130863074Y-128154761D01*
X130862438Y-128140658D01*
X130852884Y-127931800D01*
X130701269Y-127931800D01*
X130549654Y-127931800D01*
X129303837Y-127931800D01*
X129303837Y-127917144D01*
X129157270Y-127917144D01*
X129010704Y-127917144D01*
X129010704Y-127633427D01*
X129010704Y-127349709D01*
X128920614Y-127340293D01*
X128859103Y-127335017D01*
X128798093Y-127331600D01*
X128766719Y-127330877D01*
X128702914Y-127330877D01*
X128702914Y-127023087D01*
X128702914Y-126715297D01*
X128556347Y-126715297D01*
X128409781Y-126715297D01*
X128409781Y-126070404D01*
X128409781Y-125425511D01*
X128549019Y-125425511D01*
X128688257Y-125425511D01*
X128688257Y-125132377D01*
X128688257Y-124839244D01*
X128834824Y-124839244D01*
X128981391Y-124839244D01*
X128981391Y-124685349D01*
X128981391Y-124531454D01*
X129142614Y-124531454D01*
X129303837Y-124531454D01*
X129303837Y-124381223D01*
X129303837Y-124230992D01*
X129465060Y-124230992D01*
X129626284Y-124230992D01*
X129626284Y-124549775D01*
G37*
D14*
%TO.C,R2*%
X167710000Y-99770000D02*
X168480000Y-99770000D01*
X175790000Y-99770000D02*
X175020000Y-99770000D01*
X168480000Y-98400000D02*
X175020000Y-98400000D01*
X175020000Y-101140000D01*
X168480000Y-101140000D01*
X168480000Y-98400000D01*
%TO.C,J1*%
X126940000Y-85030000D02*
X128270000Y-85030000D01*
X126940000Y-86360000D02*
X126940000Y-85030000D01*
X129540000Y-85030000D02*
X175320000Y-85030000D01*
X129540000Y-87690000D02*
X129540000Y-85030000D01*
X129540000Y-87690000D02*
X175320000Y-87690000D01*
X175320000Y-87690000D02*
X175320000Y-85030000D01*
%TO.C,R3*%
X167710000Y-131470000D02*
X168480000Y-131470000D01*
X175790000Y-131470000D02*
X175020000Y-131470000D01*
X168480000Y-130100000D02*
X175020000Y-130100000D01*
X175020000Y-132840000D01*
X168480000Y-132840000D01*
X168480000Y-130100000D01*
D16*
%TO.C,U2*%
X121050000Y-96182500D02*
X147050000Y-96182500D01*
X121050000Y-122182500D02*
X121050000Y-96182500D01*
X127050000Y-120182500D02*
X127050000Y-122182500D01*
X127050000Y-122182500D02*
X121050000Y-122182500D01*
X141050000Y-120182500D02*
X127050000Y-120182500D01*
X141050000Y-122182500D02*
X141050000Y-120182500D01*
X147050000Y-96182500D02*
X147050000Y-122182500D01*
X147050000Y-122182500D02*
X141050000Y-122182500D01*
D11*
X130150000Y-95682500D02*
G75*
G02*
X129950000Y-95682500I-100000J0D01*
G01*
X129950000Y-95682500D02*
G75*
G02*
X130150000Y-95682500I100000J0D01*
G01*
D14*
%TO.C,SW1*%
X153450000Y-115420000D02*
X153450000Y-116920000D01*
X154700000Y-119420000D02*
X159200000Y-119420000D01*
X159200000Y-112920000D02*
X154700000Y-112920000D01*
X160450000Y-116920000D02*
X160450000Y-115420000D01*
%TO.C,SW3*%
X153450000Y-130620000D02*
X153450000Y-132120000D01*
X154700000Y-134620000D02*
X159200000Y-134620000D01*
X159200000Y-128120000D02*
X154700000Y-128120000D01*
X160450000Y-132120000D02*
X160450000Y-130620000D01*
%TO.C,U1*%
X120992190Y-55386680D02*
X126884990Y-55386680D01*
X120992190Y-73369880D02*
X120992190Y-55386680D01*
X126884990Y-73369880D02*
X120992190Y-73369880D01*
X126905310Y-50200000D02*
X126905310Y-78599999D01*
X126905310Y-78599999D02*
X174825310Y-78600000D01*
X174825310Y-50200001D02*
X126905310Y-50200000D01*
X174825310Y-78600000D02*
X174825310Y-50200001D01*
%TO.C,R1*%
X167710000Y-115620000D02*
X168480000Y-115620000D01*
X175790000Y-115620000D02*
X175020000Y-115620000D01*
X168480000Y-114250000D02*
X175020000Y-114250000D01*
X175020000Y-116990000D01*
X168480000Y-116990000D01*
X168480000Y-114250000D01*
%TO.C,J2*%
X126940000Y-40580000D02*
X126940000Y-43240000D01*
X172720000Y-40580000D02*
X126940000Y-40580000D01*
X172720000Y-40580000D02*
X172720000Y-43240000D01*
X172720000Y-43240000D02*
X126940000Y-43240000D01*
X175320000Y-41910000D02*
X175320000Y-43240000D01*
X175320000Y-43240000D02*
X173990000Y-43240000D01*
%TD*%
M02*
