%TF.GenerationSoftware,KiCad,Pcbnew,9.0.2*%
%TF.CreationDate,2025-06-10T13:13:09+07:00*%
%TF.ProjectId,WiFi_Frauder_DEV,57694669-5f46-4726-9175-6465725f4445,1*%
%TF.SameCoordinates,Original*%
%TF.FileFunction,Copper,L2,Bot*%
%TF.FilePolarity,Positive*%
%FSLAX46Y46*%
G04 Gerber Fmt 4.6, Leading zero omitted, Abs format (unit mm)*
G04 Created by KiCad (PCBNEW 9.0.2) date 2025-06-10 13:13:09*
%MOMM*%
%LPD*%
G01*
G04 APERTURE LIST*
%TA.AperFunction,ComponentPad*%
%ADD10R,1.508000X1.508000*%
%TD*%
%TA.AperFunction,ComponentPad*%
%ADD11C,1.508000*%
%TD*%
%TA.AperFunction,ComponentPad*%
%ADD12C,3.000000*%
%TD*%
%TA.AperFunction,ComponentPad*%
%ADD13C,2.000000*%
%TD*%
%TA.AperFunction,ComponentPad*%
%ADD14R,1.200000X2.000000*%
%TD*%
%TA.AperFunction,ComponentPad*%
%ADD15O,1.200000X2.000000*%
%TD*%
%TA.AperFunction,ViaPad*%
%ADD16C,0.700000*%
%TD*%
%TA.AperFunction,Conductor*%
%ADD17C,0.400000*%
%TD*%
G04 APERTURE END LIST*
D10*
%TO.P,U2,1,GND*%
%TO.N,GND*%
X132690000Y-69700000D03*
D11*
%TO.P,U2,2,VCC_IN*%
%TO.N,+5V*%
X135230000Y-69700000D03*
%TO.P,U2,3,SCL*%
%TO.N,/OLED_SCL_NET*%
X137770000Y-69700000D03*
%TO.P,U2,4,SDA*%
%TO.N,/OLED_SDA_NET*%
X140310000Y-69700000D03*
D12*
%TO.P,U2,S1*%
%TO.N,N/C*%
X125500000Y-70200000D03*
%TO.P,U2,S2*%
X147500000Y-70200000D03*
%TO.P,U2,S3*%
X147500000Y-92200000D03*
%TO.P,U2,S4*%
X125500000Y-92200000D03*
%TD*%
D13*
%TO.P,SW2,1,1*%
%TO.N,/BTN_UP_NET*%
X142750000Y-102850000D03*
X149250000Y-102850000D03*
%TO.P,SW2,2,2*%
%TO.N,+5V*%
X142750000Y-107350000D03*
X149250000Y-107350000D03*
%TD*%
%TO.P,SW3,1,1*%
%TO.N,/BTN_ENTER_NET*%
X133650000Y-114850000D03*
X140150000Y-114850000D03*
%TO.P,SW3,2,2*%
%TO.N,+5V*%
X133650000Y-119350000D03*
X140150000Y-119350000D03*
%TD*%
D14*
%TO.P,U1,1,3V3*%
%TO.N,unconnected-(U1-3V3-Pad1)*%
X160240000Y-94700000D03*
D15*
%TO.P,U1,2,CHIP_PU*%
%TO.N,unconnected-(U1-CHIP_PU-Pad2)*%
X162780000Y-94700000D03*
%TO.P,U1,3,SENSOR_VP/GPIO36/ADC1_CH0*%
%TO.N,unconnected-(U1-SENSOR_VP{slash}GPIO36{slash}ADC1_CH0-Pad3)*%
X165320000Y-94700000D03*
%TO.P,U1,4,SENSOR_VN/GPIO39/ADC1_CH3*%
%TO.N,unconnected-(U1-SENSOR_VN{slash}GPIO39{slash}ADC1_CH3-Pad4)*%
X167860000Y-94700000D03*
%TO.P,U1,5,VDET_1/GPIO34/ADC1_CH6*%
%TO.N,unconnected-(U1-VDET_1{slash}GPIO34{slash}ADC1_CH6-Pad5)*%
X170400000Y-94700000D03*
%TO.P,U1,6,VDET_2/GPIO35/ADC1_CH7*%
%TO.N,unconnected-(U1-VDET_2{slash}GPIO35{slash}ADC1_CH7-Pad6)*%
X172940000Y-94700000D03*
%TO.P,U1,7,32K_XP/GPIO32/ADC1_CH4*%
%TO.N,unconnected-(U1-32K_XP{slash}GPIO32{slash}ADC1_CH4-Pad7)*%
X175480000Y-94700000D03*
%TO.P,U1,8,32K_XN/GPIO33/ADC1_CH5*%
%TO.N,unconnected-(U1-32K_XN{slash}GPIO33{slash}ADC1_CH5-Pad8)*%
X178020000Y-94700000D03*
%TO.P,U1,9,DAC_1/ADC2_CH8/GPIO25*%
%TO.N,unconnected-(U1-DAC_1{slash}ADC2_CH8{slash}GPIO25-Pad9)*%
X180560000Y-94700000D03*
%TO.P,U1,10,DAC_2/ADC2_CH9/GPIO26*%
%TO.N,unconnected-(U1-DAC_2{slash}ADC2_CH9{slash}GPIO26-Pad10)*%
X183100000Y-94700000D03*
%TO.P,U1,11,ADC2_CH7/GPIO27*%
%TO.N,unconnected-(U1-ADC2_CH7{slash}GPIO27-Pad11)*%
X185640000Y-94700000D03*
%TO.P,U1,12,MTMS/GPIO14/ADC2_CH6*%
%TO.N,unconnected-(U1-MTMS{slash}GPIO14{slash}ADC2_CH6-Pad12)*%
X188180000Y-94700000D03*
%TO.P,U1,13,MTDI/GPIO12/ADC2_CH5*%
%TO.N,unconnected-(U1-MTDI{slash}GPIO12{slash}ADC2_CH5-Pad13)*%
X190720000Y-94700000D03*
%TO.P,U1,14,GND*%
%TO.N,GND*%
X193260000Y-94700000D03*
%TO.P,U1,15,MTCK/GPIO13/ADC2_CH4*%
%TO.N,unconnected-(U1-MTCK{slash}GPIO13{slash}ADC2_CH4-Pad15)*%
X195800000Y-94700000D03*
%TO.P,U1,16,SD_DATA2/GPIO9*%
%TO.N,unconnected-(U1-SD_DATA2{slash}GPIO9-Pad16)*%
X198340000Y-94700000D03*
%TO.P,U1,17,SD_DATA3/GPIO10*%
%TO.N,unconnected-(U1-SD_DATA3{slash}GPIO10-Pad17)*%
X200880000Y-94700000D03*
%TO.P,U1,18,CMD*%
%TO.N,unconnected-(U1-CMD-Pad18)*%
X203420000Y-94700000D03*
%TO.P,U1,19,5V*%
%TO.N,+5V*%
X205960000Y-94700000D03*
%TO.P,U1,20,SD_CLK/GPIO6*%
%TO.N,/OLED_SCL_NET*%
X205957280Y-69303680D03*
%TO.P,U1,21,SD_DATA0/GPIO7*%
%TO.N,/OLED_SDA_NET*%
X203417280Y-69303680D03*
%TO.P,U1,22,SD_DATA1/GPIO8*%
%TO.N,unconnected-(U1-SD_DATA1{slash}GPIO8-Pad22)*%
X200880000Y-69300000D03*
%TO.P,U1,23,MTDO/GPIO15/ADC2_CH3*%
%TO.N,unconnected-(U1-MTDO{slash}GPIO15{slash}ADC2_CH3-Pad23)*%
X198340000Y-69300000D03*
%TO.P,U1,24,ADC2_CH2/GPIO2*%
%TO.N,unconnected-(U1-ADC2_CH2{slash}GPIO2-Pad24)*%
X195800000Y-69300000D03*
%TO.P,U1,25,GPIO0/BOOT/ADC2_CH1*%
%TO.N,unconnected-(U1-GPIO0{slash}BOOT{slash}ADC2_CH1-Pad25)*%
X193260000Y-69300000D03*
%TO.P,U1,26,ADC2_CH0/GPIO4*%
%TO.N,unconnected-(U1-ADC2_CH0{slash}GPIO4-Pad26)*%
X190720000Y-69300000D03*
%TO.P,U1,27,GPIO16*%
%TO.N,unconnected-(U1-GPIO16-Pad27)*%
X188180000Y-69300000D03*
%TO.P,U1,28,GPIO17*%
%TO.N,unconnected-(U1-GPIO17-Pad28)*%
X185640000Y-69300000D03*
%TO.P,U1,29,GPIO5*%
%TO.N,unconnected-(U1-GPIO5-Pad29)*%
X183100000Y-69300000D03*
%TO.P,U1,30,GPIO18*%
%TO.N,unconnected-(U1-GPIO18-Pad30)*%
X180560000Y-69300000D03*
%TO.P,U1,31,GPIO19*%
%TO.N,unconnected-(U1-GPIO19-Pad31)*%
X178020000Y-69300000D03*
%TO.P,U1,32,GND*%
%TO.N,GND*%
X175480000Y-69300000D03*
%TO.P,U1,33,GPIO21*%
%TO.N,/BTN_ENTER_NET*%
X172940000Y-69300000D03*
%TO.P,U1,34,U0RXD/GPIO3*%
%TO.N,unconnected-(U1-U0RXD{slash}GPIO3-Pad34)*%
X170400000Y-69300000D03*
%TO.P,U1,35,U0TXD/GPIO1*%
%TO.N,unconnected-(U1-U0TXD{slash}GPIO1-Pad35)*%
X167860000Y-69300000D03*
%TO.P,U1,36,GPIO22*%
%TO.N,/BTN_UP_NET*%
X165320000Y-69300000D03*
%TO.P,U1,37,GPIO23*%
%TO.N,/BTN_DOWN_NET*%
X162780000Y-69300000D03*
%TO.P,U1,38,GND*%
%TO.N,GND*%
X160240000Y-69300000D03*
%TD*%
D13*
%TO.P,SW1,1,1*%
%TO.N,/BTN_DOWN_NET*%
X124150000Y-102950000D03*
X130650000Y-102950000D03*
%TO.P,SW1,2,2*%
%TO.N,+5V*%
X124150000Y-107450000D03*
X130650000Y-107450000D03*
%TD*%
D16*
%TO.N,GND*%
X155700000Y-98400000D03*
%TO.N,/BTN_ENTER_NET*%
X151900000Y-118800000D03*
%TO.N,+5V*%
X209800000Y-93900000D03*
%TD*%
D17*
%TO.N,/OLED_SCL_NET*%
X201353600Y-64700000D02*
X205957280Y-69303680D01*
X142770000Y-64700000D02*
X201353600Y-64700000D01*
X137770000Y-69700000D02*
X142770000Y-64700000D01*
%TO.N,/OLED_SDA_NET*%
X200113600Y-66000000D02*
X203417280Y-69303680D01*
X144010000Y-66000000D02*
X200113600Y-66000000D01*
X140310000Y-69700000D02*
X144010000Y-66000000D01*
%TO.N,GND*%
X173180000Y-67000000D02*
X175480000Y-69300000D01*
X162540000Y-67000000D02*
X173180000Y-67000000D01*
X160240000Y-69300000D02*
X162540000Y-67000000D01*
%TO.N,+5V*%
X207500000Y-63500000D02*
X209900000Y-65900000D01*
X141430000Y-63500000D02*
X207500000Y-63500000D01*
X209900000Y-65900000D02*
X209900000Y-93800000D01*
X209900000Y-93800000D02*
X209800000Y-93900000D01*
X135230000Y-69700000D02*
X141430000Y-63500000D01*
%TO.N,GND*%
X155700000Y-89080000D02*
X155700000Y-98400000D01*
X175480000Y-69300000D02*
X155700000Y-89080000D01*
X175480000Y-69300000D02*
X193260000Y-87080000D01*
X193260000Y-87080000D02*
X193260000Y-94700000D01*
%TO.N,/BTN_ENTER_NET*%
X151900000Y-118800000D02*
X151900000Y-90400000D01*
X151900000Y-90400000D02*
X172940000Y-69360000D01*
X172940000Y-69360000D02*
X172940000Y-69300000D01*
%TD*%
%TA.AperFunction,Conductor*%
%TO.N,GND*%
G36*
X212642539Y-60220185D02*
G01*
X212688294Y-60272989D01*
X212699500Y-60324500D01*
X212699500Y-123575500D01*
X212679815Y-123642539D01*
X212627011Y-123688294D01*
X212575500Y-123699500D01*
X120424500Y-123699500D01*
X120357461Y-123679815D01*
X120311706Y-123627011D01*
X120300500Y-123575500D01*
X120300500Y-119231902D01*
X132149500Y-119231902D01*
X132149500Y-119468097D01*
X132186446Y-119701368D01*
X132259433Y-119925996D01*
X132366657Y-120136433D01*
X132505483Y-120327510D01*
X132672490Y-120494517D01*
X132863567Y-120633343D01*
X132962991Y-120684002D01*
X133074003Y-120740566D01*
X133074005Y-120740566D01*
X133074008Y-120740568D01*
X133194412Y-120779689D01*
X133298631Y-120813553D01*
X133531903Y-120850500D01*
X133531908Y-120850500D01*
X133768097Y-120850500D01*
X134001368Y-120813553D01*
X134225992Y-120740568D01*
X134436433Y-120633343D01*
X134627510Y-120494517D01*
X134794517Y-120327510D01*
X134933343Y-120136433D01*
X135040568Y-119925992D01*
X135113553Y-119701368D01*
X135126786Y-119617817D01*
X135150500Y-119468097D01*
X135150500Y-119231902D01*
X138649500Y-119231902D01*
X138649500Y-119468097D01*
X138686446Y-119701368D01*
X138759433Y-119925996D01*
X138866657Y-120136433D01*
X139005483Y-120327510D01*
X139172490Y-120494517D01*
X139363567Y-120633343D01*
X139462991Y-120684002D01*
X139574003Y-120740566D01*
X139574005Y-120740566D01*
X139574008Y-120740568D01*
X139694412Y-120779689D01*
X139798631Y-120813553D01*
X140031903Y-120850500D01*
X140031908Y-120850500D01*
X140268097Y-120850500D01*
X140501368Y-120813553D01*
X140725992Y-120740568D01*
X140936433Y-120633343D01*
X141127510Y-120494517D01*
X141294517Y-120327510D01*
X141433343Y-120136433D01*
X141540568Y-119925992D01*
X141613553Y-119701368D01*
X141626786Y-119617817D01*
X141650500Y-119468097D01*
X141650500Y-119231902D01*
X141613553Y-118998631D01*
X141540566Y-118774003D01*
X141536710Y-118766436D01*
X141511128Y-118716228D01*
X151049500Y-118716228D01*
X151049500Y-118883771D01*
X151082182Y-119048074D01*
X151082184Y-119048082D01*
X151146295Y-119202860D01*
X151239373Y-119342162D01*
X151357837Y-119460626D01*
X151450494Y-119522537D01*
X151497137Y-119553703D01*
X151651918Y-119617816D01*
X151816228Y-119650499D01*
X151816232Y-119650500D01*
X151816233Y-119650500D01*
X151983768Y-119650500D01*
X151983769Y-119650499D01*
X152148082Y-119617816D01*
X152302863Y-119553703D01*
X152442162Y-119460626D01*
X152560626Y-119342162D01*
X152653703Y-119202863D01*
X152717816Y-119048082D01*
X152750500Y-118883767D01*
X152750500Y-118716233D01*
X152717816Y-118551918D01*
X152653703Y-118397137D01*
X152653701Y-118397134D01*
X152653699Y-118397130D01*
X152621398Y-118348788D01*
X152600520Y-118282110D01*
X152600500Y-118279897D01*
X152600500Y-93652135D01*
X159139500Y-93652135D01*
X159139500Y-95747870D01*
X159139501Y-95747876D01*
X159145908Y-95807483D01*
X159196202Y-95942328D01*
X159196206Y-95942335D01*
X159282452Y-96057544D01*
X159282455Y-96057547D01*
X159397664Y-96143793D01*
X159397671Y-96143797D01*
X159532517Y-96194091D01*
X159532516Y-96194091D01*
X159539444Y-96194835D01*
X159592127Y-96200500D01*
X160887872Y-96200499D01*
X160947483Y-96194091D01*
X161082331Y-96143796D01*
X161197546Y-96057546D01*
X161283796Y-95942331D01*
X161334091Y-95807483D01*
X161340500Y-95747873D01*
X161340499Y-94213389D01*
X161679500Y-94213389D01*
X161679500Y-95186611D01*
X161706598Y-95357701D01*
X161760127Y-95522445D01*
X161838768Y-95676788D01*
X161940586Y-95816928D01*
X162063072Y-95939414D01*
X162203212Y-96041232D01*
X162357555Y-96119873D01*
X162522299Y-96173402D01*
X162693389Y-96200500D01*
X162693390Y-96200500D01*
X162866610Y-96200500D01*
X162866611Y-96200500D01*
X163037701Y-96173402D01*
X163202445Y-96119873D01*
X163356788Y-96041232D01*
X163496928Y-95939414D01*
X163619414Y-95816928D01*
X163721232Y-95676788D01*
X163799873Y-95522445D01*
X163853402Y-95357701D01*
X163880500Y-95186611D01*
X163880500Y-94213389D01*
X164219500Y-94213389D01*
X164219500Y-95186611D01*
X164246598Y-95357701D01*
X164300127Y-95522445D01*
X164378768Y-95676788D01*
X164480586Y-95816928D01*
X164603072Y-95939414D01*
X164743212Y-96041232D01*
X164897555Y-96119873D01*
X165062299Y-96173402D01*
X165233389Y-96200500D01*
X165233390Y-96200500D01*
X165406610Y-96200500D01*
X165406611Y-96200500D01*
X165577701Y-96173402D01*
X165742445Y-96119873D01*
X165896788Y-96041232D01*
X166036928Y-95939414D01*
X166159414Y-95816928D01*
X166261232Y-95676788D01*
X166339873Y-95522445D01*
X166393402Y-95357701D01*
X166420500Y-95186611D01*
X166420500Y-94213389D01*
X166759500Y-94213389D01*
X166759500Y-95186611D01*
X166786598Y-95357701D01*
X166840127Y-95522445D01*
X166918768Y-95676788D01*
X167020586Y-95816928D01*
X167143072Y-95939414D01*
X167283212Y-96041232D01*
X167437555Y-96119873D01*
X167602299Y-96173402D01*
X167773389Y-96200500D01*
X167773390Y-96200500D01*
X167946610Y-96200500D01*
X167946611Y-96200500D01*
X168117701Y-96173402D01*
X168282445Y-96119873D01*
X168436788Y-96041232D01*
X168576928Y-95939414D01*
X168699414Y-95816928D01*
X168801232Y-95676788D01*
X168879873Y-95522445D01*
X168933402Y-95357701D01*
X168960500Y-95186611D01*
X168960500Y-94213389D01*
X169299500Y-94213389D01*
X169299500Y-95186611D01*
X169326598Y-95357701D01*
X169380127Y-95522445D01*
X169458768Y-95676788D01*
X169560586Y-95816928D01*
X169683072Y-95939414D01*
X169823212Y-96041232D01*
X169977555Y-96119873D01*
X170142299Y-96173402D01*
X170313389Y-96200500D01*
X170313390Y-96200500D01*
X170486610Y-96200500D01*
X170486611Y-96200500D01*
X170657701Y-96173402D01*
X170822445Y-96119873D01*
X170976788Y-96041232D01*
X171116928Y-95939414D01*
X171239414Y-95816928D01*
X171341232Y-95676788D01*
X171419873Y-95522445D01*
X171473402Y-95357701D01*
X171500500Y-95186611D01*
X171500500Y-94213389D01*
X171839500Y-94213389D01*
X171839500Y-95186611D01*
X171866598Y-95357701D01*
X171920127Y-95522445D01*
X171998768Y-95676788D01*
X172100586Y-95816928D01*
X172223072Y-95939414D01*
X172363212Y-96041232D01*
X172517555Y-96119873D01*
X172682299Y-96173402D01*
X172853389Y-96200500D01*
X172853390Y-96200500D01*
X173026610Y-96200500D01*
X173026611Y-96200500D01*
X173197701Y-96173402D01*
X173362445Y-96119873D01*
X173516788Y-96041232D01*
X173656928Y-95939414D01*
X173779414Y-95816928D01*
X173881232Y-95676788D01*
X173959873Y-95522445D01*
X174013402Y-95357701D01*
X174040500Y-95186611D01*
X174040500Y-94213389D01*
X174379500Y-94213389D01*
X174379500Y-95186611D01*
X174406598Y-95357701D01*
X174460127Y-95522445D01*
X174538768Y-95676788D01*
X174640586Y-95816928D01*
X174763072Y-95939414D01*
X174903212Y-96041232D01*
X175057555Y-96119873D01*
X175222299Y-96173402D01*
X175393389Y-96200500D01*
X175393390Y-96200500D01*
X175566610Y-96200500D01*
X175566611Y-96200500D01*
X175737701Y-96173402D01*
X175902445Y-96119873D01*
X176056788Y-96041232D01*
X176196928Y-95939414D01*
X176319414Y-95816928D01*
X176421232Y-95676788D01*
X176499873Y-95522445D01*
X176553402Y-95357701D01*
X176580500Y-95186611D01*
X176580500Y-94213389D01*
X176919500Y-94213389D01*
X176919500Y-95186611D01*
X176946598Y-95357701D01*
X177000127Y-95522445D01*
X177078768Y-95676788D01*
X177180586Y-95816928D01*
X177303072Y-95939414D01*
X177443212Y-96041232D01*
X177597555Y-96119873D01*
X177762299Y-96173402D01*
X177933389Y-96200500D01*
X177933390Y-96200500D01*
X178106610Y-96200500D01*
X178106611Y-96200500D01*
X178277701Y-96173402D01*
X178442445Y-96119873D01*
X178596788Y-96041232D01*
X178736928Y-95939414D01*
X178859414Y-95816928D01*
X178961232Y-95676788D01*
X179039873Y-95522445D01*
X179093402Y-95357701D01*
X179120500Y-95186611D01*
X179120500Y-94213389D01*
X179459500Y-94213389D01*
X179459500Y-95186611D01*
X179486598Y-95357701D01*
X179540127Y-95522445D01*
X179618768Y-95676788D01*
X179720586Y-95816928D01*
X179843072Y-95939414D01*
X179983212Y-96041232D01*
X180137555Y-96119873D01*
X180302299Y-96173402D01*
X180473389Y-96200500D01*
X180473390Y-96200500D01*
X180646610Y-96200500D01*
X180646611Y-96200500D01*
X180817701Y-96173402D01*
X180982445Y-96119873D01*
X181136788Y-96041232D01*
X181276928Y-95939414D01*
X181399414Y-95816928D01*
X181501232Y-95676788D01*
X181579873Y-95522445D01*
X181633402Y-95357701D01*
X181660500Y-95186611D01*
X181660500Y-94213389D01*
X181999500Y-94213389D01*
X181999500Y-95186611D01*
X182026598Y-95357701D01*
X182080127Y-95522445D01*
X182158768Y-95676788D01*
X182260586Y-95816928D01*
X182383072Y-95939414D01*
X182523212Y-96041232D01*
X182677555Y-96119873D01*
X182842299Y-96173402D01*
X183013389Y-96200500D01*
X183013390Y-96200500D01*
X183186610Y-96200500D01*
X183186611Y-96200500D01*
X183357701Y-96173402D01*
X183522445Y-96119873D01*
X183676788Y-96041232D01*
X183816928Y-95939414D01*
X183939414Y-95816928D01*
X184041232Y-95676788D01*
X184119873Y-95522445D01*
X184173402Y-95357701D01*
X184200500Y-95186611D01*
X184200500Y-94213389D01*
X184539500Y-94213389D01*
X184539500Y-95186611D01*
X184566598Y-95357701D01*
X184620127Y-95522445D01*
X184698768Y-95676788D01*
X184800586Y-95816928D01*
X184923072Y-95939414D01*
X185063212Y-96041232D01*
X185217555Y-96119873D01*
X185382299Y-96173402D01*
X185553389Y-96200500D01*
X185553390Y-96200500D01*
X185726610Y-96200500D01*
X185726611Y-96200500D01*
X185897701Y-96173402D01*
X186062445Y-96119873D01*
X186216788Y-96041232D01*
X186356928Y-95939414D01*
X186479414Y-95816928D01*
X186581232Y-95676788D01*
X186659873Y-95522445D01*
X186713402Y-95357701D01*
X186740500Y-95186611D01*
X186740500Y-94213389D01*
X187079500Y-94213389D01*
X187079500Y-95186611D01*
X187106598Y-95357701D01*
X187160127Y-95522445D01*
X187238768Y-95676788D01*
X187340586Y-95816928D01*
X187463072Y-95939414D01*
X187603212Y-96041232D01*
X187757555Y-96119873D01*
X187922299Y-96173402D01*
X188093389Y-96200500D01*
X188093390Y-96200500D01*
X188266610Y-96200500D01*
X188266611Y-96200500D01*
X188437701Y-96173402D01*
X188602445Y-96119873D01*
X188756788Y-96041232D01*
X188896928Y-95939414D01*
X189019414Y-95816928D01*
X189121232Y-95676788D01*
X189199873Y-95522445D01*
X189253402Y-95357701D01*
X189280500Y-95186611D01*
X189280500Y-94213389D01*
X189619500Y-94213389D01*
X189619500Y-95186611D01*
X189646598Y-95357701D01*
X189700127Y-95522445D01*
X189778768Y-95676788D01*
X189880586Y-95816928D01*
X190003072Y-95939414D01*
X190143212Y-96041232D01*
X190297555Y-96119873D01*
X190462299Y-96173402D01*
X190633389Y-96200500D01*
X190633390Y-96200500D01*
X190806610Y-96200500D01*
X190806611Y-96200500D01*
X190977701Y-96173402D01*
X191142445Y-96119873D01*
X191296788Y-96041232D01*
X191436928Y-95939414D01*
X191559414Y-95816928D01*
X191661232Y-95676788D01*
X191739873Y-95522445D01*
X191793402Y-95357701D01*
X191820500Y-95186611D01*
X191820500Y-94213428D01*
X192160000Y-94213428D01*
X192160000Y-94450000D01*
X192944314Y-94450000D01*
X192939920Y-94454394D01*
X192887259Y-94545606D01*
X192860000Y-94647339D01*
X192860000Y-94752661D01*
X192887259Y-94854394D01*
X192939920Y-94945606D01*
X192944314Y-94950000D01*
X192160000Y-94950000D01*
X192160000Y-95186571D01*
X192187085Y-95357584D01*
X192240591Y-95522257D01*
X192319195Y-95676524D01*
X192420967Y-95816602D01*
X192543397Y-95939032D01*
X192683475Y-96040804D01*
X192837744Y-96119408D01*
X193002415Y-96172914D01*
X193002414Y-96172914D01*
X193009999Y-96174115D01*
X193010000Y-96174114D01*
X193010000Y-95015686D01*
X193014394Y-95020080D01*
X193105606Y-95072741D01*
X193207339Y-95100000D01*
X193312661Y-95100000D01*
X193414394Y-95072741D01*
X193505606Y-95020080D01*
X193510000Y-95015686D01*
X193510000Y-96174115D01*
X193517584Y-96172914D01*
X193682255Y-96119408D01*
X193836524Y-96040804D01*
X193976602Y-95939032D01*
X194099032Y-95816602D01*
X194200804Y-95676524D01*
X194279408Y-95522257D01*
X194332914Y-95357584D01*
X194360000Y-95186571D01*
X194360000Y-94950000D01*
X193575686Y-94950000D01*
X193580080Y-94945606D01*
X193632741Y-94854394D01*
X193660000Y-94752661D01*
X193660000Y-94647339D01*
X193632741Y-94545606D01*
X193580080Y-94454394D01*
X193575686Y-94450000D01*
X194360000Y-94450000D01*
X194360000Y-94213428D01*
X194359994Y-94213389D01*
X194699500Y-94213389D01*
X194699500Y-95186611D01*
X194726598Y-95357701D01*
X194780127Y-95522445D01*
X194858768Y-95676788D01*
X194960586Y-95816928D01*
X195083072Y-95939414D01*
X195223212Y-96041232D01*
X195377555Y-96119873D01*
X195542299Y-96173402D01*
X195713389Y-96200500D01*
X195713390Y-96200500D01*
X195886610Y-96200500D01*
X195886611Y-96200500D01*
X196057701Y-96173402D01*
X196222445Y-96119873D01*
X196376788Y-96041232D01*
X196516928Y-95939414D01*
X196639414Y-95816928D01*
X196741232Y-95676788D01*
X196819873Y-95522445D01*
X196873402Y-95357701D01*
X196900500Y-95186611D01*
X196900500Y-94213389D01*
X197239500Y-94213389D01*
X197239500Y-95186611D01*
X197266598Y-95357701D01*
X197320127Y-95522445D01*
X197398768Y-95676788D01*
X197500586Y-95816928D01*
X197623072Y-95939414D01*
X197763212Y-96041232D01*
X197917555Y-96119873D01*
X198082299Y-96173402D01*
X198253389Y-96200500D01*
X198253390Y-96200500D01*
X198426610Y-96200500D01*
X198426611Y-96200500D01*
X198597701Y-96173402D01*
X198762445Y-96119873D01*
X198916788Y-96041232D01*
X199056928Y-95939414D01*
X199179414Y-95816928D01*
X199281232Y-95676788D01*
X199359873Y-95522445D01*
X199413402Y-95357701D01*
X199440500Y-95186611D01*
X199440500Y-94213389D01*
X199779500Y-94213389D01*
X199779500Y-95186611D01*
X199806598Y-95357701D01*
X199860127Y-95522445D01*
X199938768Y-95676788D01*
X200040586Y-95816928D01*
X200163072Y-95939414D01*
X200303212Y-96041232D01*
X200457555Y-96119873D01*
X200622299Y-96173402D01*
X200793389Y-96200500D01*
X200793390Y-96200500D01*
X200966610Y-96200500D01*
X200966611Y-96200500D01*
X201137701Y-96173402D01*
X201302445Y-96119873D01*
X201456788Y-96041232D01*
X201596928Y-95939414D01*
X201719414Y-95816928D01*
X201821232Y-95676788D01*
X201899873Y-95522445D01*
X201953402Y-95357701D01*
X201980500Y-95186611D01*
X201980500Y-94213389D01*
X202319500Y-94213389D01*
X202319500Y-95186611D01*
X202346598Y-95357701D01*
X202400127Y-95522445D01*
X202478768Y-95676788D01*
X202580586Y-95816928D01*
X202703072Y-95939414D01*
X202843212Y-96041232D01*
X202997555Y-96119873D01*
X203162299Y-96173402D01*
X203333389Y-96200500D01*
X203333390Y-96200500D01*
X203506610Y-96200500D01*
X203506611Y-96200500D01*
X203677701Y-96173402D01*
X203842445Y-96119873D01*
X203996788Y-96041232D01*
X204136928Y-95939414D01*
X204259414Y-95816928D01*
X204361232Y-95676788D01*
X204439873Y-95522445D01*
X204493402Y-95357701D01*
X204520500Y-95186611D01*
X204520500Y-94213389D01*
X204859500Y-94213389D01*
X204859500Y-95186611D01*
X204886598Y-95357701D01*
X204940127Y-95522445D01*
X205018768Y-95676788D01*
X205120586Y-95816928D01*
X205243072Y-95939414D01*
X205383212Y-96041232D01*
X205537555Y-96119873D01*
X205702299Y-96173402D01*
X205873389Y-96200500D01*
X205873390Y-96200500D01*
X206046610Y-96200500D01*
X206046611Y-96200500D01*
X206217701Y-96173402D01*
X206382445Y-96119873D01*
X206536788Y-96041232D01*
X206676928Y-95939414D01*
X206799414Y-95816928D01*
X206901232Y-95676788D01*
X206979873Y-95522445D01*
X207033402Y-95357701D01*
X207060500Y-95186611D01*
X207060500Y-94213389D01*
X207033402Y-94042299D01*
X206979873Y-93877555D01*
X206901232Y-93723212D01*
X206799414Y-93583072D01*
X206676928Y-93460586D01*
X206536788Y-93358768D01*
X206382445Y-93280127D01*
X206217701Y-93226598D01*
X206217699Y-93226597D01*
X206217698Y-93226597D01*
X206086271Y-93205781D01*
X206046611Y-93199500D01*
X205873389Y-93199500D01*
X205833728Y-93205781D01*
X205702302Y-93226597D01*
X205537552Y-93280128D01*
X205383211Y-93358768D01*
X205303256Y-93416859D01*
X205243072Y-93460586D01*
X205243070Y-93460588D01*
X205243069Y-93460588D01*
X205120588Y-93583069D01*
X205120588Y-93583070D01*
X205120586Y-93583072D01*
X205084383Y-93632901D01*
X205018768Y-93723211D01*
X204940128Y-93877552D01*
X204886597Y-94042302D01*
X204866963Y-94166269D01*
X204859500Y-94213389D01*
X204520500Y-94213389D01*
X204493402Y-94042299D01*
X204439873Y-93877555D01*
X204361232Y-93723212D01*
X204259414Y-93583072D01*
X204136928Y-93460586D01*
X203996788Y-93358768D01*
X203842445Y-93280127D01*
X203677701Y-93226598D01*
X203677699Y-93226597D01*
X203677698Y-93226597D01*
X203546271Y-93205781D01*
X203506611Y-93199500D01*
X203333389Y-93199500D01*
X203293728Y-93205781D01*
X203162302Y-93226597D01*
X202997552Y-93280128D01*
X202843211Y-93358768D01*
X202763256Y-93416859D01*
X202703072Y-93460586D01*
X202703070Y-93460588D01*
X202703069Y-93460588D01*
X202580588Y-93583069D01*
X202580588Y-93583070D01*
X202580586Y-93583072D01*
X202544383Y-93632901D01*
X202478768Y-93723211D01*
X202400128Y-93877552D01*
X202346597Y-94042302D01*
X202326963Y-94166269D01*
X202319500Y-94213389D01*
X201980500Y-94213389D01*
X201953402Y-94042299D01*
X201899873Y-93877555D01*
X201821232Y-93723212D01*
X201719414Y-93583072D01*
X201596928Y-93460586D01*
X201456788Y-93358768D01*
X201302445Y-93280127D01*
X201137701Y-93226598D01*
X201137699Y-93226597D01*
X201137698Y-93226597D01*
X201006271Y-93205781D01*
X200966611Y-93199500D01*
X200793389Y-93199500D01*
X200753728Y-93205781D01*
X200622302Y-93226597D01*
X200457552Y-93280128D01*
X200303211Y-93358768D01*
X200223256Y-93416859D01*
X200163072Y-93460586D01*
X200163070Y-93460588D01*
X200163069Y-93460588D01*
X200040588Y-93583069D01*
X200040588Y-93583070D01*
X200040586Y-93583072D01*
X200004383Y-93632901D01*
X199938768Y-93723211D01*
X199860128Y-93877552D01*
X199806597Y-94042302D01*
X199786963Y-94166269D01*
X199779500Y-94213389D01*
X199440500Y-94213389D01*
X199413402Y-94042299D01*
X199359873Y-93877555D01*
X199281232Y-93723212D01*
X199179414Y-93583072D01*
X199056928Y-93460586D01*
X198916788Y-93358768D01*
X198762445Y-93280127D01*
X198597701Y-93226598D01*
X198597699Y-93226597D01*
X198597698Y-93226597D01*
X198466271Y-93205781D01*
X198426611Y-93199500D01*
X198253389Y-93199500D01*
X198213728Y-93205781D01*
X198082302Y-93226597D01*
X197917552Y-93280128D01*
X197763211Y-93358768D01*
X197683256Y-93416859D01*
X197623072Y-93460586D01*
X197623070Y-93460588D01*
X197623069Y-93460588D01*
X197500588Y-93583069D01*
X197500588Y-93583070D01*
X197500586Y-93583072D01*
X197464383Y-93632901D01*
X197398768Y-93723211D01*
X197320128Y-93877552D01*
X197266597Y-94042302D01*
X197246963Y-94166269D01*
X197239500Y-94213389D01*
X196900500Y-94213389D01*
X196873402Y-94042299D01*
X196819873Y-93877555D01*
X196741232Y-93723212D01*
X196639414Y-93583072D01*
X196516928Y-93460586D01*
X196376788Y-93358768D01*
X196222445Y-93280127D01*
X196057701Y-93226598D01*
X196057699Y-93226597D01*
X196057698Y-93226597D01*
X195926271Y-93205781D01*
X195886611Y-93199500D01*
X195713389Y-93199500D01*
X195673728Y-93205781D01*
X195542302Y-93226597D01*
X195377552Y-93280128D01*
X195223211Y-93358768D01*
X195143256Y-93416859D01*
X195083072Y-93460586D01*
X195083070Y-93460588D01*
X195083069Y-93460588D01*
X194960588Y-93583069D01*
X194960588Y-93583070D01*
X194960586Y-93583072D01*
X194924383Y-93632901D01*
X194858768Y-93723211D01*
X194780128Y-93877552D01*
X194726597Y-94042302D01*
X194706963Y-94166269D01*
X194699500Y-94213389D01*
X194359994Y-94213389D01*
X194332914Y-94042415D01*
X194279408Y-93877742D01*
X194200804Y-93723475D01*
X194099032Y-93583397D01*
X193976602Y-93460967D01*
X193836524Y-93359195D01*
X193682257Y-93280591D01*
X193517589Y-93227087D01*
X193517581Y-93227085D01*
X193510000Y-93225884D01*
X193510000Y-94384314D01*
X193505606Y-94379920D01*
X193414394Y-94327259D01*
X193312661Y-94300000D01*
X193207339Y-94300000D01*
X193105606Y-94327259D01*
X193014394Y-94379920D01*
X193010000Y-94384314D01*
X193010000Y-93225884D01*
X193009999Y-93225884D01*
X193002418Y-93227085D01*
X193002410Y-93227087D01*
X192837742Y-93280591D01*
X192683475Y-93359195D01*
X192543397Y-93460967D01*
X192420967Y-93583397D01*
X192319195Y-93723475D01*
X192240591Y-93877742D01*
X192187085Y-94042415D01*
X192160000Y-94213428D01*
X191820500Y-94213428D01*
X191820500Y-94213389D01*
X191793402Y-94042299D01*
X191739873Y-93877555D01*
X191661232Y-93723212D01*
X191559414Y-93583072D01*
X191436928Y-93460586D01*
X191296788Y-93358768D01*
X191142445Y-93280127D01*
X190977701Y-93226598D01*
X190977699Y-93226597D01*
X190977698Y-93226597D01*
X190846271Y-93205781D01*
X190806611Y-93199500D01*
X190633389Y-93199500D01*
X190593728Y-93205781D01*
X190462302Y-93226597D01*
X190297552Y-93280128D01*
X190143211Y-93358768D01*
X190063256Y-93416859D01*
X190003072Y-93460586D01*
X190003070Y-93460588D01*
X190003069Y-93460588D01*
X189880588Y-93583069D01*
X189880588Y-93583070D01*
X189880586Y-93583072D01*
X189844383Y-93632901D01*
X189778768Y-93723211D01*
X189700128Y-93877552D01*
X189646597Y-94042302D01*
X189626963Y-94166269D01*
X189619500Y-94213389D01*
X189280500Y-94213389D01*
X189253402Y-94042299D01*
X189199873Y-93877555D01*
X189121232Y-93723212D01*
X189019414Y-93583072D01*
X188896928Y-93460586D01*
X188756788Y-93358768D01*
X188602445Y-93280127D01*
X188437701Y-93226598D01*
X188437699Y-93226597D01*
X188437698Y-93226597D01*
X188306271Y-93205781D01*
X188266611Y-93199500D01*
X188093389Y-93199500D01*
X188053728Y-93205781D01*
X187922302Y-93226597D01*
X187757552Y-93280128D01*
X187603211Y-93358768D01*
X187523256Y-93416859D01*
X187463072Y-93460586D01*
X187463070Y-93460588D01*
X187463069Y-93460588D01*
X187340588Y-93583069D01*
X187340588Y-93583070D01*
X187340586Y-93583072D01*
X187304383Y-93632901D01*
X187238768Y-93723211D01*
X187160128Y-93877552D01*
X187106597Y-94042302D01*
X187086963Y-94166269D01*
X187079500Y-94213389D01*
X186740500Y-94213389D01*
X186713402Y-94042299D01*
X186659873Y-93877555D01*
X186581232Y-93723212D01*
X186479414Y-93583072D01*
X186356928Y-93460586D01*
X186216788Y-93358768D01*
X186062445Y-93280127D01*
X185897701Y-93226598D01*
X185897699Y-93226597D01*
X185897698Y-93226597D01*
X185766271Y-93205781D01*
X185726611Y-93199500D01*
X185553389Y-93199500D01*
X185513728Y-93205781D01*
X185382302Y-93226597D01*
X185217552Y-93280128D01*
X185063211Y-93358768D01*
X184983256Y-93416859D01*
X184923072Y-93460586D01*
X184923070Y-93460588D01*
X184923069Y-93460588D01*
X184800588Y-93583069D01*
X184800588Y-93583070D01*
X184800586Y-93583072D01*
X184764383Y-93632901D01*
X184698768Y-93723211D01*
X184620128Y-93877552D01*
X184566597Y-94042302D01*
X184546963Y-94166269D01*
X184539500Y-94213389D01*
X184200500Y-94213389D01*
X184173402Y-94042299D01*
X184119873Y-93877555D01*
X184041232Y-93723212D01*
X183939414Y-93583072D01*
X183816928Y-93460586D01*
X183676788Y-93358768D01*
X183522445Y-93280127D01*
X183357701Y-93226598D01*
X183357699Y-93226597D01*
X183357698Y-93226597D01*
X183226271Y-93205781D01*
X183186611Y-93199500D01*
X183013389Y-93199500D01*
X182973728Y-93205781D01*
X182842302Y-93226597D01*
X182677552Y-93280128D01*
X182523211Y-93358768D01*
X182443256Y-93416859D01*
X182383072Y-93460586D01*
X182383070Y-93460588D01*
X182383069Y-93460588D01*
X182260588Y-93583069D01*
X182260588Y-93583070D01*
X182260586Y-93583072D01*
X182224383Y-93632901D01*
X182158768Y-93723211D01*
X182080128Y-93877552D01*
X182026597Y-94042302D01*
X182006963Y-94166269D01*
X181999500Y-94213389D01*
X181660500Y-94213389D01*
X181633402Y-94042299D01*
X181579873Y-93877555D01*
X181501232Y-93723212D01*
X181399414Y-93583072D01*
X181276928Y-93460586D01*
X181136788Y-93358768D01*
X180982445Y-93280127D01*
X180817701Y-93226598D01*
X180817699Y-93226597D01*
X180817698Y-93226597D01*
X180686271Y-93205781D01*
X180646611Y-93199500D01*
X180473389Y-93199500D01*
X180433728Y-93205781D01*
X180302302Y-93226597D01*
X180137552Y-93280128D01*
X179983211Y-93358768D01*
X179903256Y-93416859D01*
X179843072Y-93460586D01*
X179843070Y-93460588D01*
X179843069Y-93460588D01*
X179720588Y-93583069D01*
X179720588Y-93583070D01*
X179720586Y-93583072D01*
X179684383Y-93632901D01*
X179618768Y-93723211D01*
X179540128Y-93877552D01*
X179486597Y-94042302D01*
X179466963Y-94166269D01*
X179459500Y-94213389D01*
X179120500Y-94213389D01*
X179093402Y-94042299D01*
X179039873Y-93877555D01*
X178961232Y-93723212D01*
X178859414Y-93583072D01*
X178736928Y-93460586D01*
X178596788Y-93358768D01*
X178442445Y-93280127D01*
X178277701Y-93226598D01*
X178277699Y-93226597D01*
X178277698Y-93226597D01*
X178146271Y-93205781D01*
X178106611Y-93199500D01*
X177933389Y-93199500D01*
X177893728Y-93205781D01*
X177762302Y-93226597D01*
X177597552Y-93280128D01*
X177443211Y-93358768D01*
X177363256Y-93416859D01*
X177303072Y-93460586D01*
X177303070Y-93460588D01*
X177303069Y-93460588D01*
X177180588Y-93583069D01*
X177180588Y-93583070D01*
X177180586Y-93583072D01*
X177144383Y-93632901D01*
X177078768Y-93723211D01*
X177000128Y-93877552D01*
X176946597Y-94042302D01*
X176926963Y-94166269D01*
X176919500Y-94213389D01*
X176580500Y-94213389D01*
X176553402Y-94042299D01*
X176499873Y-93877555D01*
X176421232Y-93723212D01*
X176319414Y-93583072D01*
X176196928Y-93460586D01*
X176056788Y-93358768D01*
X175902445Y-93280127D01*
X175737701Y-93226598D01*
X175737699Y-93226597D01*
X175737698Y-93226597D01*
X175606271Y-93205781D01*
X175566611Y-93199500D01*
X175393389Y-93199500D01*
X175353728Y-93205781D01*
X175222302Y-93226597D01*
X175057552Y-93280128D01*
X174903211Y-93358768D01*
X174823256Y-93416859D01*
X174763072Y-93460586D01*
X174763070Y-93460588D01*
X174763069Y-93460588D01*
X174640588Y-93583069D01*
X174640588Y-93583070D01*
X174640586Y-93583072D01*
X174604383Y-93632901D01*
X174538768Y-93723211D01*
X174460128Y-93877552D01*
X174406597Y-94042302D01*
X174386963Y-94166269D01*
X174379500Y-94213389D01*
X174040500Y-94213389D01*
X174013402Y-94042299D01*
X173959873Y-93877555D01*
X173881232Y-93723212D01*
X173779414Y-93583072D01*
X173656928Y-93460586D01*
X173516788Y-93358768D01*
X173362445Y-93280127D01*
X173197701Y-93226598D01*
X173197699Y-93226597D01*
X173197698Y-93226597D01*
X173066271Y-93205781D01*
X173026611Y-93199500D01*
X172853389Y-93199500D01*
X172813728Y-93205781D01*
X172682302Y-93226597D01*
X172517552Y-93280128D01*
X172363211Y-93358768D01*
X172283256Y-93416859D01*
X172223072Y-93460586D01*
X172223070Y-93460588D01*
X172223069Y-93460588D01*
X172100588Y-93583069D01*
X172100588Y-93583070D01*
X172100586Y-93583072D01*
X172064383Y-93632901D01*
X171998768Y-93723211D01*
X171920128Y-93877552D01*
X171866597Y-94042302D01*
X171846963Y-94166269D01*
X171839500Y-94213389D01*
X171500500Y-94213389D01*
X171473402Y-94042299D01*
X171419873Y-93877555D01*
X171341232Y-93723212D01*
X171239414Y-93583072D01*
X171116928Y-93460586D01*
X170976788Y-93358768D01*
X170822445Y-93280127D01*
X170657701Y-93226598D01*
X170657699Y-93226597D01*
X170657698Y-93226597D01*
X170526271Y-93205781D01*
X170486611Y-93199500D01*
X170313389Y-93199500D01*
X170273728Y-93205781D01*
X170142302Y-93226597D01*
X169977552Y-93280128D01*
X169823211Y-93358768D01*
X169743256Y-93416859D01*
X169683072Y-93460586D01*
X169683070Y-93460588D01*
X169683069Y-93460588D01*
X169560588Y-93583069D01*
X169560588Y-93583070D01*
X169560586Y-93583072D01*
X169524383Y-93632901D01*
X169458768Y-93723211D01*
X169380128Y-93877552D01*
X169326597Y-94042302D01*
X169306963Y-94166269D01*
X169299500Y-94213389D01*
X168960500Y-94213389D01*
X168933402Y-94042299D01*
X168879873Y-93877555D01*
X168801232Y-93723212D01*
X168699414Y-93583072D01*
X168576928Y-93460586D01*
X168436788Y-93358768D01*
X168282445Y-93280127D01*
X168117701Y-93226598D01*
X168117699Y-93226597D01*
X168117698Y-93226597D01*
X167986271Y-93205781D01*
X167946611Y-93199500D01*
X167773389Y-93199500D01*
X167733728Y-93205781D01*
X167602302Y-93226597D01*
X167437552Y-93280128D01*
X167283211Y-93358768D01*
X167203256Y-93416859D01*
X167143072Y-93460586D01*
X167143070Y-93460588D01*
X167143069Y-93460588D01*
X167020588Y-93583069D01*
X167020588Y-93583070D01*
X167020586Y-93583072D01*
X166984383Y-93632901D01*
X166918768Y-93723211D01*
X166840128Y-93877552D01*
X166786597Y-94042302D01*
X166766963Y-94166269D01*
X166759500Y-94213389D01*
X166420500Y-94213389D01*
X166393402Y-94042299D01*
X166339873Y-93877555D01*
X166261232Y-93723212D01*
X166159414Y-93583072D01*
X166036928Y-93460586D01*
X165896788Y-93358768D01*
X165742445Y-93280127D01*
X165577701Y-93226598D01*
X165577699Y-93226597D01*
X165577698Y-93226597D01*
X165446271Y-93205781D01*
X165406611Y-93199500D01*
X165233389Y-93199500D01*
X165193728Y-93205781D01*
X165062302Y-93226597D01*
X164897552Y-93280128D01*
X164743211Y-93358768D01*
X164663256Y-93416859D01*
X164603072Y-93460586D01*
X164603070Y-93460588D01*
X164603069Y-93460588D01*
X164480588Y-93583069D01*
X164480588Y-93583070D01*
X164480586Y-93583072D01*
X164444383Y-93632901D01*
X164378768Y-93723211D01*
X164300128Y-93877552D01*
X164246597Y-94042302D01*
X164226963Y-94166269D01*
X164219500Y-94213389D01*
X163880500Y-94213389D01*
X163853402Y-94042299D01*
X163799873Y-93877555D01*
X163721232Y-93723212D01*
X163619414Y-93583072D01*
X163496928Y-93460586D01*
X163356788Y-93358768D01*
X163202445Y-93280127D01*
X163037701Y-93226598D01*
X163037699Y-93226597D01*
X163037698Y-93226597D01*
X162906271Y-93205781D01*
X162866611Y-93199500D01*
X162693389Y-93199500D01*
X162653728Y-93205781D01*
X162522302Y-93226597D01*
X162357552Y-93280128D01*
X162203211Y-93358768D01*
X162123256Y-93416859D01*
X162063072Y-93460586D01*
X162063070Y-93460588D01*
X162063069Y-93460588D01*
X161940588Y-93583069D01*
X161940588Y-93583070D01*
X161940586Y-93583072D01*
X161904383Y-93632901D01*
X161838768Y-93723211D01*
X161760128Y-93877552D01*
X161706597Y-94042302D01*
X161686963Y-94166269D01*
X161679500Y-94213389D01*
X161340499Y-94213389D01*
X161340499Y-93652128D01*
X161334091Y-93592517D01*
X161330689Y-93583397D01*
X161283797Y-93457671D01*
X161283793Y-93457664D01*
X161197547Y-93342455D01*
X161197544Y-93342452D01*
X161082335Y-93256206D01*
X161082328Y-93256202D01*
X160947482Y-93205908D01*
X160947483Y-93205908D01*
X160887883Y-93199501D01*
X160887881Y-93199500D01*
X160887873Y-93199500D01*
X160887864Y-93199500D01*
X159592129Y-93199500D01*
X159592123Y-93199501D01*
X159532516Y-93205908D01*
X159397671Y-93256202D01*
X159397664Y-93256206D01*
X159282455Y-93342452D01*
X159282452Y-93342455D01*
X159196206Y-93457664D01*
X159196202Y-93457671D01*
X159145908Y-93592517D01*
X159139522Y-93651918D01*
X159139501Y-93652123D01*
X159139500Y-93652135D01*
X152600500Y-93652135D01*
X152600500Y-90741517D01*
X152620185Y-90674478D01*
X152636814Y-90653841D01*
X172503999Y-70786655D01*
X172565320Y-70753172D01*
X172629994Y-70756406D01*
X172682299Y-70773402D01*
X172853389Y-70800500D01*
X172853390Y-70800500D01*
X173026610Y-70800500D01*
X173026611Y-70800500D01*
X173197701Y-70773402D01*
X173362445Y-70719873D01*
X173516788Y-70641232D01*
X173656928Y-70539414D01*
X173779414Y-70416928D01*
X173881232Y-70276788D01*
X173959873Y-70122445D01*
X174013402Y-69957701D01*
X174040500Y-69786611D01*
X174040500Y-68813428D01*
X174380000Y-68813428D01*
X174380000Y-69050000D01*
X175164314Y-69050000D01*
X175159920Y-69054394D01*
X175107259Y-69145606D01*
X175080000Y-69247339D01*
X175080000Y-69352661D01*
X175107259Y-69454394D01*
X175159920Y-69545606D01*
X175164314Y-69550000D01*
X174380000Y-69550000D01*
X174380000Y-69786571D01*
X174407085Y-69957584D01*
X174460591Y-70122257D01*
X174539195Y-70276524D01*
X174640967Y-70416602D01*
X174763397Y-70539032D01*
X174903475Y-70640804D01*
X175057744Y-70719408D01*
X175222415Y-70772914D01*
X175222414Y-70772914D01*
X175229999Y-70774115D01*
X175230000Y-70774114D01*
X175230000Y-69615686D01*
X175234394Y-69620080D01*
X175325606Y-69672741D01*
X175427339Y-69700000D01*
X175532661Y-69700000D01*
X175634394Y-69672741D01*
X175725606Y-69620080D01*
X175730000Y-69615686D01*
X175730000Y-70774115D01*
X175737584Y-70772914D01*
X175902255Y-70719408D01*
X176056524Y-70640804D01*
X176196602Y-70539032D01*
X176319032Y-70416602D01*
X176420804Y-70276524D01*
X176499408Y-70122257D01*
X176552914Y-69957584D01*
X176580000Y-69786571D01*
X176580000Y-69550000D01*
X175795686Y-69550000D01*
X175800080Y-69545606D01*
X175852741Y-69454394D01*
X175880000Y-69352661D01*
X175880000Y-69247339D01*
X175852741Y-69145606D01*
X175800080Y-69054394D01*
X175795686Y-69050000D01*
X176580000Y-69050000D01*
X176580000Y-68813428D01*
X176579994Y-68813389D01*
X176919500Y-68813389D01*
X176919500Y-69786611D01*
X176946598Y-69957701D01*
X177000127Y-70122445D01*
X177078768Y-70276788D01*
X177180586Y-70416928D01*
X177303072Y-70539414D01*
X177443212Y-70641232D01*
X177597555Y-70719873D01*
X177762299Y-70773402D01*
X177933389Y-70800500D01*
X177933390Y-70800500D01*
X178106610Y-70800500D01*
X178106611Y-70800500D01*
X178277701Y-70773402D01*
X178442445Y-70719873D01*
X178596788Y-70641232D01*
X178736928Y-70539414D01*
X178859414Y-70416928D01*
X178961232Y-70276788D01*
X179039873Y-70122445D01*
X179093402Y-69957701D01*
X179120500Y-69786611D01*
X179120500Y-68813389D01*
X179459500Y-68813389D01*
X179459500Y-69786611D01*
X179486598Y-69957701D01*
X179540127Y-70122445D01*
X179618768Y-70276788D01*
X179720586Y-70416928D01*
X179843072Y-70539414D01*
X179983212Y-70641232D01*
X180137555Y-70719873D01*
X180302299Y-70773402D01*
X180473389Y-70800500D01*
X180473390Y-70800500D01*
X180646610Y-70800500D01*
X180646611Y-70800500D01*
X180817701Y-70773402D01*
X180982445Y-70719873D01*
X181136788Y-70641232D01*
X181276928Y-70539414D01*
X181399414Y-70416928D01*
X181501232Y-70276788D01*
X181579873Y-70122445D01*
X181633402Y-69957701D01*
X181660500Y-69786611D01*
X181660500Y-68813389D01*
X181999500Y-68813389D01*
X181999500Y-69786611D01*
X182026598Y-69957701D01*
X182080127Y-70122445D01*
X182158768Y-70276788D01*
X182260586Y-70416928D01*
X182383072Y-70539414D01*
X182523212Y-70641232D01*
X182677555Y-70719873D01*
X182842299Y-70773402D01*
X183013389Y-70800500D01*
X183013390Y-70800500D01*
X183186610Y-70800500D01*
X183186611Y-70800500D01*
X183357701Y-70773402D01*
X183522445Y-70719873D01*
X183676788Y-70641232D01*
X183816928Y-70539414D01*
X183939414Y-70416928D01*
X184041232Y-70276788D01*
X184119873Y-70122445D01*
X184173402Y-69957701D01*
X184200500Y-69786611D01*
X184200500Y-68813389D01*
X184539500Y-68813389D01*
X184539500Y-69786611D01*
X184566598Y-69957701D01*
X184620127Y-70122445D01*
X184698768Y-70276788D01*
X184800586Y-70416928D01*
X184923072Y-70539414D01*
X185063212Y-70641232D01*
X185217555Y-70719873D01*
X185382299Y-70773402D01*
X185553389Y-70800500D01*
X185553390Y-70800500D01*
X185726610Y-70800500D01*
X185726611Y-70800500D01*
X185897701Y-70773402D01*
X186062445Y-70719873D01*
X186216788Y-70641232D01*
X186356928Y-70539414D01*
X186479414Y-70416928D01*
X186581232Y-70276788D01*
X186659873Y-70122445D01*
X186713402Y-69957701D01*
X186740500Y-69786611D01*
X186740500Y-68813389D01*
X187079500Y-68813389D01*
X187079500Y-69786611D01*
X187106598Y-69957701D01*
X187160127Y-70122445D01*
X187238768Y-70276788D01*
X187340586Y-70416928D01*
X187463072Y-70539414D01*
X187603212Y-70641232D01*
X187757555Y-70719873D01*
X187922299Y-70773402D01*
X188093389Y-70800500D01*
X188093390Y-70800500D01*
X188266610Y-70800500D01*
X188266611Y-70800500D01*
X188437701Y-70773402D01*
X188602445Y-70719873D01*
X188756788Y-70641232D01*
X188896928Y-70539414D01*
X189019414Y-70416928D01*
X189121232Y-70276788D01*
X189199873Y-70122445D01*
X189253402Y-69957701D01*
X189280500Y-69786611D01*
X189280500Y-68813389D01*
X189619500Y-68813389D01*
X189619500Y-69786611D01*
X189646598Y-69957701D01*
X189700127Y-70122445D01*
X189778768Y-70276788D01*
X189880586Y-70416928D01*
X190003072Y-70539414D01*
X190143212Y-70641232D01*
X190297555Y-70719873D01*
X190462299Y-70773402D01*
X190633389Y-70800500D01*
X190633390Y-70800500D01*
X190806610Y-70800500D01*
X190806611Y-70800500D01*
X190977701Y-70773402D01*
X191142445Y-70719873D01*
X191296788Y-70641232D01*
X191436928Y-70539414D01*
X191559414Y-70416928D01*
X191661232Y-70276788D01*
X191739873Y-70122445D01*
X191793402Y-69957701D01*
X191820500Y-69786611D01*
X191820500Y-68813389D01*
X192159500Y-68813389D01*
X192159500Y-69786611D01*
X192186598Y-69957701D01*
X192240127Y-70122445D01*
X192318768Y-70276788D01*
X192420586Y-70416928D01*
X192543072Y-70539414D01*
X192683212Y-70641232D01*
X192837555Y-70719873D01*
X193002299Y-70773402D01*
X193173389Y-70800500D01*
X193173390Y-70800500D01*
X193346610Y-70800500D01*
X193346611Y-70800500D01*
X193517701Y-70773402D01*
X193682445Y-70719873D01*
X193836788Y-70641232D01*
X193976928Y-70539414D01*
X194099414Y-70416928D01*
X194201232Y-70276788D01*
X194279873Y-70122445D01*
X194333402Y-69957701D01*
X194360500Y-69786611D01*
X194360500Y-68813389D01*
X194699500Y-68813389D01*
X194699500Y-69786611D01*
X194726598Y-69957701D01*
X194780127Y-70122445D01*
X194858768Y-70276788D01*
X194960586Y-70416928D01*
X195083072Y-70539414D01*
X195223212Y-70641232D01*
X195377555Y-70719873D01*
X195542299Y-70773402D01*
X195713389Y-70800500D01*
X195713390Y-70800500D01*
X195886610Y-70800500D01*
X195886611Y-70800500D01*
X196057701Y-70773402D01*
X196222445Y-70719873D01*
X196376788Y-70641232D01*
X196516928Y-70539414D01*
X196639414Y-70416928D01*
X196741232Y-70276788D01*
X196819873Y-70122445D01*
X196873402Y-69957701D01*
X196900500Y-69786611D01*
X196900500Y-68813389D01*
X197239500Y-68813389D01*
X197239500Y-69786611D01*
X197266598Y-69957701D01*
X197320127Y-70122445D01*
X197398768Y-70276788D01*
X197500586Y-70416928D01*
X197623072Y-70539414D01*
X197763212Y-70641232D01*
X197917555Y-70719873D01*
X198082299Y-70773402D01*
X198253389Y-70800500D01*
X198253390Y-70800500D01*
X198426610Y-70800500D01*
X198426611Y-70800500D01*
X198597701Y-70773402D01*
X198762445Y-70719873D01*
X198916788Y-70641232D01*
X199056928Y-70539414D01*
X199179414Y-70416928D01*
X199281232Y-70276788D01*
X199359873Y-70122445D01*
X199413402Y-69957701D01*
X199440500Y-69786611D01*
X199440500Y-68813389D01*
X199413402Y-68642299D01*
X199359873Y-68477555D01*
X199281232Y-68323212D01*
X199179414Y-68183072D01*
X199056928Y-68060586D01*
X198916788Y-67958768D01*
X198769669Y-67883808D01*
X198762447Y-67880128D01*
X198762446Y-67880127D01*
X198762445Y-67880127D01*
X198597701Y-67826598D01*
X198597699Y-67826597D01*
X198597698Y-67826597D01*
X198466271Y-67805781D01*
X198426611Y-67799500D01*
X198253389Y-67799500D01*
X198213728Y-67805781D01*
X198082302Y-67826597D01*
X197917552Y-67880128D01*
X197763211Y-67958768D01*
X197683256Y-68016859D01*
X197623072Y-68060586D01*
X197623070Y-68060588D01*
X197623069Y-68060588D01*
X197500588Y-68183069D01*
X197500588Y-68183070D01*
X197500586Y-68183072D01*
X197463781Y-68233730D01*
X197398768Y-68323211D01*
X197320128Y-68477552D01*
X197266597Y-68642302D01*
X197258612Y-68692718D01*
X197239500Y-68813389D01*
X196900500Y-68813389D01*
X196873402Y-68642299D01*
X196819873Y-68477555D01*
X196741232Y-68323212D01*
X196639414Y-68183072D01*
X196516928Y-68060586D01*
X196376788Y-67958768D01*
X196229669Y-67883808D01*
X196222447Y-67880128D01*
X196222446Y-67880127D01*
X196222445Y-67880127D01*
X196057701Y-67826598D01*
X196057699Y-67826597D01*
X196057698Y-67826597D01*
X195926271Y-67805781D01*
X195886611Y-67799500D01*
X195713389Y-67799500D01*
X195673728Y-67805781D01*
X195542302Y-67826597D01*
X195377552Y-67880128D01*
X195223211Y-67958768D01*
X195143256Y-68016859D01*
X195083072Y-68060586D01*
X195083070Y-68060588D01*
X195083069Y-68060588D01*
X194960588Y-68183069D01*
X194960588Y-68183070D01*
X194960586Y-68183072D01*
X194923781Y-68233730D01*
X194858768Y-68323211D01*
X194780128Y-68477552D01*
X194726597Y-68642302D01*
X194718612Y-68692718D01*
X194699500Y-68813389D01*
X194360500Y-68813389D01*
X194333402Y-68642299D01*
X194279873Y-68477555D01*
X194201232Y-68323212D01*
X194099414Y-68183072D01*
X193976928Y-68060586D01*
X193836788Y-67958768D01*
X193689669Y-67883808D01*
X193682447Y-67880128D01*
X193682446Y-67880127D01*
X193682445Y-67880127D01*
X193517701Y-67826598D01*
X193517699Y-67826597D01*
X193517698Y-67826597D01*
X193386271Y-67805781D01*
X193346611Y-67799500D01*
X193173389Y-67799500D01*
X193133728Y-67805781D01*
X193002302Y-67826597D01*
X192837552Y-67880128D01*
X192683211Y-67958768D01*
X192603256Y-68016859D01*
X192543072Y-68060586D01*
X192543070Y-68060588D01*
X192543069Y-68060588D01*
X192420588Y-68183069D01*
X192420588Y-68183070D01*
X192420586Y-68183072D01*
X192383781Y-68233730D01*
X192318768Y-68323211D01*
X192240128Y-68477552D01*
X192186597Y-68642302D01*
X192178612Y-68692718D01*
X192159500Y-68813389D01*
X191820500Y-68813389D01*
X191793402Y-68642299D01*
X191739873Y-68477555D01*
X191661232Y-68323212D01*
X191559414Y-68183072D01*
X191436928Y-68060586D01*
X191296788Y-67958768D01*
X191149669Y-67883808D01*
X191142447Y-67880128D01*
X191142446Y-67880127D01*
X191142445Y-67880127D01*
X190977701Y-67826598D01*
X190977699Y-67826597D01*
X190977698Y-67826597D01*
X190846271Y-67805781D01*
X190806611Y-67799500D01*
X190633389Y-67799500D01*
X190593728Y-67805781D01*
X190462302Y-67826597D01*
X190297552Y-67880128D01*
X190143211Y-67958768D01*
X190063256Y-68016859D01*
X190003072Y-68060586D01*
X190003070Y-68060588D01*
X190003069Y-68060588D01*
X189880588Y-68183069D01*
X189880588Y-68183070D01*
X189880586Y-68183072D01*
X189843781Y-68233730D01*
X189778768Y-68323211D01*
X189700128Y-68477552D01*
X189646597Y-68642302D01*
X189638612Y-68692718D01*
X189619500Y-68813389D01*
X189280500Y-68813389D01*
X189253402Y-68642299D01*
X189199873Y-68477555D01*
X189121232Y-68323212D01*
X189019414Y-68183072D01*
X188896928Y-68060586D01*
X188756788Y-67958768D01*
X188609669Y-67883808D01*
X188602447Y-67880128D01*
X188602446Y-67880127D01*
X188602445Y-67880127D01*
X188437701Y-67826598D01*
X188437699Y-67826597D01*
X188437698Y-67826597D01*
X188306271Y-67805781D01*
X188266611Y-67799500D01*
X188093389Y-67799500D01*
X188053728Y-67805781D01*
X187922302Y-67826597D01*
X187757552Y-67880128D01*
X187603211Y-67958768D01*
X187523256Y-68016859D01*
X187463072Y-68060586D01*
X187463070Y-68060588D01*
X187463069Y-68060588D01*
X187340588Y-68183069D01*
X187340588Y-68183070D01*
X187340586Y-68183072D01*
X187303781Y-68233730D01*
X187238768Y-68323211D01*
X187160128Y-68477552D01*
X187106597Y-68642302D01*
X187098612Y-68692718D01*
X187079500Y-68813389D01*
X186740500Y-68813389D01*
X186713402Y-68642299D01*
X186659873Y-68477555D01*
X186581232Y-68323212D01*
X186479414Y-68183072D01*
X186356928Y-68060586D01*
X186216788Y-67958768D01*
X186069669Y-67883808D01*
X186062447Y-67880128D01*
X186062446Y-67880127D01*
X186062445Y-67880127D01*
X185897701Y-67826598D01*
X185897699Y-67826597D01*
X185897698Y-67826597D01*
X185766271Y-67805781D01*
X185726611Y-67799500D01*
X185553389Y-67799500D01*
X185513728Y-67805781D01*
X185382302Y-67826597D01*
X185217552Y-67880128D01*
X185063211Y-67958768D01*
X184983256Y-68016859D01*
X184923072Y-68060586D01*
X184923070Y-68060588D01*
X184923069Y-68060588D01*
X184800588Y-68183069D01*
X184800588Y-68183070D01*
X184800586Y-68183072D01*
X184763781Y-68233730D01*
X184698768Y-68323211D01*
X184620128Y-68477552D01*
X184566597Y-68642302D01*
X184558612Y-68692718D01*
X184539500Y-68813389D01*
X184200500Y-68813389D01*
X184173402Y-68642299D01*
X184119873Y-68477555D01*
X184041232Y-68323212D01*
X183939414Y-68183072D01*
X183816928Y-68060586D01*
X183676788Y-67958768D01*
X183529669Y-67883808D01*
X183522447Y-67880128D01*
X183522446Y-67880127D01*
X183522445Y-67880127D01*
X183357701Y-67826598D01*
X183357699Y-67826597D01*
X183357698Y-67826597D01*
X183226271Y-67805781D01*
X183186611Y-67799500D01*
X183013389Y-67799500D01*
X182973728Y-67805781D01*
X182842302Y-67826597D01*
X182677552Y-67880128D01*
X182523211Y-67958768D01*
X182443256Y-68016859D01*
X182383072Y-68060586D01*
X182383070Y-68060588D01*
X182383069Y-68060588D01*
X182260588Y-68183069D01*
X182260588Y-68183070D01*
X182260586Y-68183072D01*
X182223781Y-68233730D01*
X182158768Y-68323211D01*
X182080128Y-68477552D01*
X182026597Y-68642302D01*
X182018612Y-68692718D01*
X181999500Y-68813389D01*
X181660500Y-68813389D01*
X181633402Y-68642299D01*
X181579873Y-68477555D01*
X181501232Y-68323212D01*
X181399414Y-68183072D01*
X181276928Y-68060586D01*
X181136788Y-67958768D01*
X180989669Y-67883808D01*
X180982447Y-67880128D01*
X180982446Y-67880127D01*
X180982445Y-67880127D01*
X180817701Y-67826598D01*
X180817699Y-67826597D01*
X180817698Y-67826597D01*
X180686271Y-67805781D01*
X180646611Y-67799500D01*
X180473389Y-67799500D01*
X180433728Y-67805781D01*
X180302302Y-67826597D01*
X180137552Y-67880128D01*
X179983211Y-67958768D01*
X179903256Y-68016859D01*
X179843072Y-68060586D01*
X179843070Y-68060588D01*
X179843069Y-68060588D01*
X179720588Y-68183069D01*
X179720588Y-68183070D01*
X179720586Y-68183072D01*
X179683781Y-68233730D01*
X179618768Y-68323211D01*
X179540128Y-68477552D01*
X179486597Y-68642302D01*
X179478612Y-68692718D01*
X179459500Y-68813389D01*
X179120500Y-68813389D01*
X179093402Y-68642299D01*
X179039873Y-68477555D01*
X178961232Y-68323212D01*
X178859414Y-68183072D01*
X178736928Y-68060586D01*
X178596788Y-67958768D01*
X178449669Y-67883808D01*
X178442447Y-67880128D01*
X178442446Y-67880127D01*
X178442445Y-67880127D01*
X178277701Y-67826598D01*
X178277699Y-67826597D01*
X178277698Y-67826597D01*
X178146271Y-67805781D01*
X178106611Y-67799500D01*
X177933389Y-67799500D01*
X177893728Y-67805781D01*
X177762302Y-67826597D01*
X177597552Y-67880128D01*
X177443211Y-67958768D01*
X177363256Y-68016859D01*
X177303072Y-68060586D01*
X177303070Y-68060588D01*
X177303069Y-68060588D01*
X177180588Y-68183069D01*
X177180588Y-68183070D01*
X177180586Y-68183072D01*
X177143781Y-68233730D01*
X177078768Y-68323211D01*
X177000128Y-68477552D01*
X176946597Y-68642302D01*
X176938612Y-68692718D01*
X176919500Y-68813389D01*
X176579994Y-68813389D01*
X176552914Y-68642415D01*
X176499408Y-68477742D01*
X176420804Y-68323475D01*
X176319032Y-68183397D01*
X176196602Y-68060967D01*
X176056524Y-67959195D01*
X175902257Y-67880591D01*
X175737589Y-67827087D01*
X175737581Y-67827085D01*
X175730000Y-67825884D01*
X175730000Y-68984314D01*
X175725606Y-68979920D01*
X175634394Y-68927259D01*
X175532661Y-68900000D01*
X175427339Y-68900000D01*
X175325606Y-68927259D01*
X175234394Y-68979920D01*
X175230000Y-68984314D01*
X175230000Y-67825884D01*
X175229999Y-67825884D01*
X175222418Y-67827085D01*
X175222410Y-67827087D01*
X175057742Y-67880591D01*
X174903475Y-67959195D01*
X174763397Y-68060967D01*
X174640967Y-68183397D01*
X174539195Y-68323475D01*
X174460591Y-68477742D01*
X174407085Y-68642415D01*
X174380000Y-68813428D01*
X174040500Y-68813428D01*
X174040500Y-68813389D01*
X174013402Y-68642299D01*
X173959873Y-68477555D01*
X173881232Y-68323212D01*
X173779414Y-68183072D01*
X173656928Y-68060586D01*
X173516788Y-67958768D01*
X173369669Y-67883808D01*
X173362447Y-67880128D01*
X173362446Y-67880127D01*
X173362445Y-67880127D01*
X173197701Y-67826598D01*
X173197699Y-67826597D01*
X173197698Y-67826597D01*
X173066271Y-67805781D01*
X173026611Y-67799500D01*
X172853389Y-67799500D01*
X172813728Y-67805781D01*
X172682302Y-67826597D01*
X172517552Y-67880128D01*
X172363211Y-67958768D01*
X172283256Y-68016859D01*
X172223072Y-68060586D01*
X172223070Y-68060588D01*
X172223069Y-68060588D01*
X172100588Y-68183069D01*
X172100588Y-68183070D01*
X172100586Y-68183072D01*
X172063781Y-68233730D01*
X171998768Y-68323211D01*
X171920128Y-68477552D01*
X171866597Y-68642302D01*
X171839500Y-68813389D01*
X171839500Y-69418480D01*
X171830855Y-69447920D01*
X171824332Y-69477907D01*
X171820577Y-69482922D01*
X171819815Y-69485519D01*
X171803181Y-69506161D01*
X171712181Y-69597161D01*
X171650858Y-69630646D01*
X171581166Y-69625662D01*
X171525233Y-69583790D01*
X171500816Y-69518326D01*
X171500500Y-69509480D01*
X171500500Y-68813389D01*
X171473402Y-68642299D01*
X171419873Y-68477555D01*
X171341232Y-68323212D01*
X171239414Y-68183072D01*
X171116928Y-68060586D01*
X170976788Y-67958768D01*
X170829669Y-67883808D01*
X170822447Y-67880128D01*
X170822446Y-67880127D01*
X170822445Y-67880127D01*
X170657701Y-67826598D01*
X170657699Y-67826597D01*
X170657698Y-67826597D01*
X170526271Y-67805781D01*
X170486611Y-67799500D01*
X170313389Y-67799500D01*
X170273728Y-67805781D01*
X170142302Y-67826597D01*
X169977552Y-67880128D01*
X169823211Y-67958768D01*
X169743256Y-68016859D01*
X169683072Y-68060586D01*
X169683070Y-68060588D01*
X169683069Y-68060588D01*
X169560588Y-68183069D01*
X169560588Y-68183070D01*
X169560586Y-68183072D01*
X169523781Y-68233730D01*
X169458768Y-68323211D01*
X169380128Y-68477552D01*
X169326597Y-68642302D01*
X169318612Y-68692718D01*
X169299500Y-68813389D01*
X169299500Y-69786611D01*
X169326598Y-69957701D01*
X169380127Y-70122445D01*
X169458768Y-70276788D01*
X169560586Y-70416928D01*
X169683072Y-70539414D01*
X169823212Y-70641232D01*
X169977555Y-70719873D01*
X170142299Y-70773402D01*
X170241751Y-70789153D01*
X170304885Y-70819082D01*
X170341817Y-70878393D01*
X170340819Y-70948255D01*
X170310034Y-70999307D01*
X151355887Y-89953454D01*
X151279222Y-90068192D01*
X151226421Y-90195667D01*
X151226418Y-90195677D01*
X151199500Y-90331004D01*
X151199500Y-118279897D01*
X151179815Y-118346936D01*
X151178602Y-118348788D01*
X151146300Y-118397130D01*
X151146295Y-118397140D01*
X151082184Y-118551917D01*
X151082182Y-118551925D01*
X151049500Y-118716228D01*
X141511128Y-118716228D01*
X141433342Y-118563566D01*
X141294517Y-118372490D01*
X141127510Y-118205483D01*
X140936433Y-118066657D01*
X140725996Y-117959433D01*
X140501368Y-117886446D01*
X140268097Y-117849500D01*
X140268092Y-117849500D01*
X140031908Y-117849500D01*
X140031903Y-117849500D01*
X139798631Y-117886446D01*
X139574003Y-117959433D01*
X139363566Y-118066657D01*
X139254550Y-118145862D01*
X139172490Y-118205483D01*
X139172488Y-118205485D01*
X139172487Y-118205485D01*
X139005485Y-118372487D01*
X139005485Y-118372488D01*
X139005483Y-118372490D01*
X138987581Y-118397130D01*
X138866657Y-118563566D01*
X138759433Y-118774003D01*
X138686446Y-118998631D01*
X138649500Y-119231902D01*
X135150500Y-119231902D01*
X135113553Y-118998631D01*
X135040566Y-118774003D01*
X134933342Y-118563566D01*
X134794517Y-118372490D01*
X134627510Y-118205483D01*
X134436433Y-118066657D01*
X134225996Y-117959433D01*
X134001368Y-117886446D01*
X133768097Y-117849500D01*
X133768092Y-117849500D01*
X133531908Y-117849500D01*
X133531903Y-117849500D01*
X133298631Y-117886446D01*
X133074003Y-117959433D01*
X132863566Y-118066657D01*
X132754550Y-118145862D01*
X132672490Y-118205483D01*
X132672488Y-118205485D01*
X132672487Y-118205485D01*
X132505485Y-118372487D01*
X132505485Y-118372488D01*
X132505483Y-118372490D01*
X132487581Y-118397130D01*
X132366657Y-118563566D01*
X132259433Y-118774003D01*
X132186446Y-118998631D01*
X132149500Y-119231902D01*
X120300500Y-119231902D01*
X120300500Y-114731902D01*
X132149500Y-114731902D01*
X132149500Y-114968097D01*
X132186446Y-115201368D01*
X132259433Y-115425996D01*
X132366657Y-115636433D01*
X132505483Y-115827510D01*
X132672490Y-115994517D01*
X132863567Y-116133343D01*
X132962991Y-116184002D01*
X133074003Y-116240566D01*
X133074005Y-116240566D01*
X133074008Y-116240568D01*
X133194412Y-116279689D01*
X133298631Y-116313553D01*
X133531903Y-116350500D01*
X133531908Y-116350500D01*
X133768097Y-116350500D01*
X134001368Y-116313553D01*
X134225992Y-116240568D01*
X134436433Y-116133343D01*
X134627510Y-115994517D01*
X134794517Y-115827510D01*
X134933343Y-115636433D01*
X135040568Y-115425992D01*
X135113553Y-115201368D01*
X135150500Y-114968097D01*
X135150500Y-114731902D01*
X138649500Y-114731902D01*
X138649500Y-114968097D01*
X138686446Y-115201368D01*
X138759433Y-115425996D01*
X138866657Y-115636433D01*
X139005483Y-115827510D01*
X139172490Y-115994517D01*
X139363567Y-116133343D01*
X139462991Y-116184002D01*
X139574003Y-116240566D01*
X139574005Y-116240566D01*
X139574008Y-116240568D01*
X139694412Y-116279689D01*
X139798631Y-116313553D01*
X140031903Y-116350500D01*
X140031908Y-116350500D01*
X140268097Y-116350500D01*
X140501368Y-116313553D01*
X140725992Y-116240568D01*
X140936433Y-116133343D01*
X141127510Y-115994517D01*
X141294517Y-115827510D01*
X141433343Y-115636433D01*
X141540568Y-115425992D01*
X141613553Y-115201368D01*
X141650500Y-114968097D01*
X141650500Y-114731902D01*
X141613553Y-114498631D01*
X141540566Y-114274003D01*
X141433342Y-114063566D01*
X141294517Y-113872490D01*
X141127510Y-113705483D01*
X140936433Y-113566657D01*
X140725996Y-113459433D01*
X140501368Y-113386446D01*
X140268097Y-113349500D01*
X140268092Y-113349500D01*
X140031908Y-113349500D01*
X140031903Y-113349500D01*
X139798631Y-113386446D01*
X139574003Y-113459433D01*
X139363566Y-113566657D01*
X139254550Y-113645862D01*
X139172490Y-113705483D01*
X139172488Y-113705485D01*
X139172487Y-113705485D01*
X139005485Y-113872487D01*
X139005485Y-113872488D01*
X139005483Y-113872490D01*
X138945862Y-113954550D01*
X138866657Y-114063566D01*
X138759433Y-114274003D01*
X138686446Y-114498631D01*
X138649500Y-114731902D01*
X135150500Y-114731902D01*
X135113553Y-114498631D01*
X135040566Y-114274003D01*
X134933342Y-114063566D01*
X134794517Y-113872490D01*
X134627510Y-113705483D01*
X134436433Y-113566657D01*
X134225996Y-113459433D01*
X134001368Y-113386446D01*
X133768097Y-113349500D01*
X133768092Y-113349500D01*
X133531908Y-113349500D01*
X133531903Y-113349500D01*
X133298631Y-113386446D01*
X133074003Y-113459433D01*
X132863566Y-113566657D01*
X132754550Y-113645862D01*
X132672490Y-113705483D01*
X132672488Y-113705485D01*
X132672487Y-113705485D01*
X132505485Y-113872487D01*
X132505485Y-113872488D01*
X132505483Y-113872490D01*
X132445862Y-113954550D01*
X132366657Y-114063566D01*
X132259433Y-114274003D01*
X132186446Y-114498631D01*
X132149500Y-114731902D01*
X120300500Y-114731902D01*
X120300500Y-107331902D01*
X122649500Y-107331902D01*
X122649500Y-107568097D01*
X122686446Y-107801368D01*
X122759433Y-108025996D01*
X122815704Y-108136433D01*
X122866657Y-108236433D01*
X123005483Y-108427510D01*
X123172490Y-108594517D01*
X123363567Y-108733343D01*
X123462991Y-108784002D01*
X123574003Y-108840566D01*
X123574005Y-108840566D01*
X123574008Y-108840568D01*
X123694412Y-108879689D01*
X123798631Y-108913553D01*
X124031903Y-108950500D01*
X124031908Y-108950500D01*
X124268097Y-108950500D01*
X124501368Y-108913553D01*
X124725992Y-108840568D01*
X124936433Y-108733343D01*
X125127510Y-108594517D01*
X125294517Y-108427510D01*
X125433343Y-108236433D01*
X125540568Y-108025992D01*
X125613553Y-107801368D01*
X125650500Y-107568097D01*
X125650500Y-107331902D01*
X129149500Y-107331902D01*
X129149500Y-107568097D01*
X129186446Y-107801368D01*
X129259433Y-108025996D01*
X129315704Y-108136433D01*
X129366657Y-108236433D01*
X129505483Y-108427510D01*
X129672490Y-108594517D01*
X129863567Y-108733343D01*
X129962991Y-108784002D01*
X130074003Y-108840566D01*
X130074005Y-108840566D01*
X130074008Y-108840568D01*
X130194412Y-108879689D01*
X130298631Y-108913553D01*
X130531903Y-108950500D01*
X130531908Y-108950500D01*
X130768097Y-108950500D01*
X131001368Y-108913553D01*
X131225992Y-108840568D01*
X131436433Y-108733343D01*
X131627510Y-108594517D01*
X131794517Y-108427510D01*
X131933343Y-108236433D01*
X132040568Y-108025992D01*
X132113553Y-107801368D01*
X132150500Y-107568097D01*
X132150500Y-107331902D01*
X132136963Y-107246434D01*
X132134661Y-107231902D01*
X141249500Y-107231902D01*
X141249500Y-107468097D01*
X141286446Y-107701368D01*
X141359433Y-107925996D01*
X141466657Y-108136433D01*
X141605483Y-108327510D01*
X141772490Y-108494517D01*
X141963567Y-108633343D01*
X142062991Y-108684002D01*
X142174003Y-108740566D01*
X142174005Y-108740566D01*
X142174008Y-108740568D01*
X142294412Y-108779689D01*
X142398631Y-108813553D01*
X142631903Y-108850500D01*
X142631908Y-108850500D01*
X142868097Y-108850500D01*
X143101368Y-108813553D01*
X143325992Y-108740568D01*
X143536433Y-108633343D01*
X143727510Y-108494517D01*
X143894517Y-108327510D01*
X144033343Y-108136433D01*
X144140568Y-107925992D01*
X144213553Y-107701368D01*
X144234662Y-107568092D01*
X144250500Y-107468097D01*
X144250500Y-107231902D01*
X147749500Y-107231902D01*
X147749500Y-107468097D01*
X147786446Y-107701368D01*
X147859433Y-107925996D01*
X147966657Y-108136433D01*
X148105483Y-108327510D01*
X148272490Y-108494517D01*
X148463567Y-108633343D01*
X148562991Y-108684002D01*
X148674003Y-108740566D01*
X148674005Y-108740566D01*
X148674008Y-108740568D01*
X148794412Y-108779689D01*
X148898631Y-108813553D01*
X149131903Y-108850500D01*
X149131908Y-108850500D01*
X149368097Y-108850500D01*
X149601368Y-108813553D01*
X149825992Y-108740568D01*
X150036433Y-108633343D01*
X150227510Y-108494517D01*
X150394517Y-108327510D01*
X150533343Y-108136433D01*
X150640568Y-107925992D01*
X150713553Y-107701368D01*
X150734662Y-107568092D01*
X150750500Y-107468097D01*
X150750500Y-107231902D01*
X150713553Y-106998631D01*
X150640566Y-106774003D01*
X150533342Y-106563566D01*
X150467171Y-106472490D01*
X150394517Y-106372490D01*
X150227510Y-106205483D01*
X150036433Y-106066657D01*
X150022253Y-106059432D01*
X149825996Y-105959433D01*
X149601368Y-105886446D01*
X149368097Y-105849500D01*
X149368092Y-105849500D01*
X149131908Y-105849500D01*
X149131903Y-105849500D01*
X148898631Y-105886446D01*
X148674003Y-105959433D01*
X148463566Y-106066657D01*
X148354550Y-106145862D01*
X148272490Y-106205483D01*
X148272488Y-106205485D01*
X148272487Y-106205485D01*
X148105485Y-106372487D01*
X148105485Y-106372488D01*
X148105483Y-106372490D01*
X148045862Y-106454550D01*
X147966657Y-106563566D01*
X147859433Y-106774003D01*
X147786446Y-106998631D01*
X147749500Y-107231902D01*
X144250500Y-107231902D01*
X144213553Y-106998631D01*
X144140566Y-106774003D01*
X144033342Y-106563566D01*
X143967171Y-106472490D01*
X143894517Y-106372490D01*
X143727510Y-106205483D01*
X143536433Y-106066657D01*
X143522253Y-106059432D01*
X143325996Y-105959433D01*
X143101368Y-105886446D01*
X142868097Y-105849500D01*
X142868092Y-105849500D01*
X142631908Y-105849500D01*
X142631903Y-105849500D01*
X142398631Y-105886446D01*
X142174003Y-105959433D01*
X141963566Y-106066657D01*
X141854550Y-106145862D01*
X141772490Y-106205483D01*
X141772488Y-106205485D01*
X141772487Y-106205485D01*
X141605485Y-106372487D01*
X141605485Y-106372488D01*
X141605483Y-106372490D01*
X141545862Y-106454550D01*
X141466657Y-106563566D01*
X141359433Y-106774003D01*
X141286446Y-106998631D01*
X141249500Y-107231902D01*
X132134661Y-107231902D01*
X132113553Y-107098631D01*
X132040566Y-106874003D01*
X131933342Y-106663566D01*
X131794517Y-106472490D01*
X131627510Y-106305483D01*
X131436433Y-106166657D01*
X131225996Y-106059433D01*
X131001368Y-105986446D01*
X130768097Y-105949500D01*
X130768092Y-105949500D01*
X130531908Y-105949500D01*
X130531903Y-105949500D01*
X130298631Y-105986446D01*
X130074003Y-106059433D01*
X129863566Y-106166657D01*
X129754550Y-106245862D01*
X129672490Y-106305483D01*
X129672488Y-106305485D01*
X129672487Y-106305485D01*
X129505485Y-106472487D01*
X129505485Y-106472488D01*
X129505483Y-106472490D01*
X129445862Y-106554550D01*
X129366657Y-106663566D01*
X129259433Y-106874003D01*
X129186446Y-107098631D01*
X129149500Y-107331902D01*
X125650500Y-107331902D01*
X125613553Y-107098631D01*
X125540566Y-106874003D01*
X125433342Y-106663566D01*
X125294517Y-106472490D01*
X125127510Y-106305483D01*
X124936433Y-106166657D01*
X124725996Y-106059433D01*
X124501368Y-105986446D01*
X124268097Y-105949500D01*
X124268092Y-105949500D01*
X124031908Y-105949500D01*
X124031903Y-105949500D01*
X123798631Y-105986446D01*
X123574003Y-106059433D01*
X123363566Y-106166657D01*
X123254550Y-106245862D01*
X123172490Y-106305483D01*
X123172488Y-106305485D01*
X123172487Y-106305485D01*
X123005485Y-106472487D01*
X123005485Y-106472488D01*
X123005483Y-106472490D01*
X122945862Y-106554550D01*
X122866657Y-106663566D01*
X122759433Y-106874003D01*
X122686446Y-107098631D01*
X122649500Y-107331902D01*
X120300500Y-107331902D01*
X120300500Y-102831902D01*
X122649500Y-102831902D01*
X122649500Y-103068097D01*
X122686446Y-103301368D01*
X122759433Y-103525996D01*
X122815704Y-103636433D01*
X122866657Y-103736433D01*
X123005483Y-103927510D01*
X123172490Y-104094517D01*
X123363567Y-104233343D01*
X123462991Y-104284002D01*
X123574003Y-104340566D01*
X123574005Y-104340566D01*
X123574008Y-104340568D01*
X123694412Y-104379689D01*
X123798631Y-104413553D01*
X124031903Y-104450500D01*
X124031908Y-104450500D01*
X124268097Y-104450500D01*
X124501368Y-104413553D01*
X124725992Y-104340568D01*
X124936433Y-104233343D01*
X125127510Y-104094517D01*
X125294517Y-103927510D01*
X125433343Y-103736433D01*
X125540568Y-103525992D01*
X125613553Y-103301368D01*
X125650500Y-103068097D01*
X125650500Y-102831902D01*
X129149500Y-102831902D01*
X129149500Y-103068097D01*
X129186446Y-103301368D01*
X129259433Y-103525996D01*
X129315704Y-103636433D01*
X129366657Y-103736433D01*
X129505483Y-103927510D01*
X129672490Y-104094517D01*
X129863567Y-104233343D01*
X129962991Y-104284002D01*
X130074003Y-104340566D01*
X130074005Y-104340566D01*
X130074008Y-104340568D01*
X130194412Y-104379689D01*
X130298631Y-104413553D01*
X130531903Y-104450500D01*
X130531908Y-104450500D01*
X130768097Y-104450500D01*
X131001368Y-104413553D01*
X131225992Y-104340568D01*
X131436433Y-104233343D01*
X131627510Y-104094517D01*
X131794517Y-103927510D01*
X131933343Y-103736433D01*
X132040568Y-103525992D01*
X132113553Y-103301368D01*
X132150500Y-103068097D01*
X132150500Y-102831902D01*
X132136963Y-102746434D01*
X132134661Y-102731902D01*
X141249500Y-102731902D01*
X141249500Y-102968097D01*
X141286446Y-103201368D01*
X141359433Y-103425996D01*
X141466657Y-103636433D01*
X141605483Y-103827510D01*
X141772490Y-103994517D01*
X141963567Y-104133343D01*
X142062991Y-104184002D01*
X142174003Y-104240566D01*
X142174005Y-104240566D01*
X142174008Y-104240568D01*
X142294412Y-104279689D01*
X142398631Y-104313553D01*
X142631903Y-104350500D01*
X142631908Y-104350500D01*
X142868097Y-104350500D01*
X143101368Y-104313553D01*
X143325992Y-104240568D01*
X143536433Y-104133343D01*
X143727510Y-103994517D01*
X143894517Y-103827510D01*
X144033343Y-103636433D01*
X144140568Y-103425992D01*
X144213553Y-103201368D01*
X144234662Y-103068092D01*
X144250500Y-102968097D01*
X144250500Y-102731902D01*
X147749500Y-102731902D01*
X147749500Y-102968097D01*
X147786446Y-103201368D01*
X147859433Y-103425996D01*
X147966657Y-103636433D01*
X148105483Y-103827510D01*
X148272490Y-103994517D01*
X148463567Y-104133343D01*
X148562991Y-104184002D01*
X148674003Y-104240566D01*
X148674005Y-104240566D01*
X148674008Y-104240568D01*
X148794412Y-104279689D01*
X148898631Y-104313553D01*
X149131903Y-104350500D01*
X149131908Y-104350500D01*
X149368097Y-104350500D01*
X149601368Y-104313553D01*
X149825992Y-104240568D01*
X150036433Y-104133343D01*
X150227510Y-103994517D01*
X150394517Y-103827510D01*
X150533343Y-103636433D01*
X150640568Y-103425992D01*
X150713553Y-103201368D01*
X150734662Y-103068092D01*
X150750500Y-102968097D01*
X150750500Y-102731902D01*
X150713553Y-102498631D01*
X150640566Y-102274003D01*
X150533342Y-102063566D01*
X150467171Y-101972490D01*
X150394517Y-101872490D01*
X150227510Y-101705483D01*
X150036433Y-101566657D01*
X150022253Y-101559432D01*
X149825996Y-101459433D01*
X149601368Y-101386446D01*
X149368097Y-101349500D01*
X149368092Y-101349500D01*
X149131908Y-101349500D01*
X149131903Y-101349500D01*
X148898631Y-101386446D01*
X148674003Y-101459433D01*
X148463566Y-101566657D01*
X148354550Y-101645862D01*
X148272490Y-101705483D01*
X148272488Y-101705485D01*
X148272487Y-101705485D01*
X148105485Y-101872487D01*
X148105485Y-101872488D01*
X148105483Y-101872490D01*
X148045862Y-101954550D01*
X147966657Y-102063566D01*
X147859433Y-102274003D01*
X147786446Y-102498631D01*
X147749500Y-102731902D01*
X144250500Y-102731902D01*
X144213553Y-102498631D01*
X144140566Y-102274003D01*
X144033342Y-102063566D01*
X143967171Y-101972490D01*
X143894517Y-101872490D01*
X143727510Y-101705483D01*
X143536433Y-101566657D01*
X143522253Y-101559432D01*
X143325996Y-101459433D01*
X143101368Y-101386446D01*
X142868097Y-101349500D01*
X142868092Y-101349500D01*
X142631908Y-101349500D01*
X142631903Y-101349500D01*
X142398631Y-101386446D01*
X142174003Y-101459433D01*
X141963566Y-101566657D01*
X141854550Y-101645862D01*
X141772490Y-101705483D01*
X141772488Y-101705485D01*
X141772487Y-101705485D01*
X141605485Y-101872487D01*
X141605485Y-101872488D01*
X141605483Y-101872490D01*
X141545862Y-101954550D01*
X141466657Y-102063566D01*
X141359433Y-102274003D01*
X141286446Y-102498631D01*
X141249500Y-102731902D01*
X132134661Y-102731902D01*
X132113553Y-102598631D01*
X132040566Y-102374003D01*
X131933342Y-102163566D01*
X131794517Y-101972490D01*
X131627510Y-101805483D01*
X131436433Y-101666657D01*
X131225996Y-101559433D01*
X131001368Y-101486446D01*
X130768097Y-101449500D01*
X130768092Y-101449500D01*
X130531908Y-101449500D01*
X130531903Y-101449500D01*
X130298631Y-101486446D01*
X130074003Y-101559433D01*
X129863566Y-101666657D01*
X129754550Y-101745862D01*
X129672490Y-101805483D01*
X129672488Y-101805485D01*
X129672487Y-101805485D01*
X129505485Y-101972487D01*
X129505485Y-101972488D01*
X129505483Y-101972490D01*
X129445862Y-102054550D01*
X129366657Y-102163566D01*
X129259433Y-102374003D01*
X129186446Y-102598631D01*
X129149500Y-102831902D01*
X125650500Y-102831902D01*
X125613553Y-102598631D01*
X125540566Y-102374003D01*
X125433342Y-102163566D01*
X125294517Y-101972490D01*
X125127510Y-101805483D01*
X124936433Y-101666657D01*
X124725996Y-101559433D01*
X124501368Y-101486446D01*
X124268097Y-101449500D01*
X124268092Y-101449500D01*
X124031908Y-101449500D01*
X124031903Y-101449500D01*
X123798631Y-101486446D01*
X123574003Y-101559433D01*
X123363566Y-101666657D01*
X123254550Y-101745862D01*
X123172490Y-101805483D01*
X123172488Y-101805485D01*
X123172487Y-101805485D01*
X123005485Y-101972487D01*
X123005485Y-101972488D01*
X123005483Y-101972490D01*
X122945862Y-102054550D01*
X122866657Y-102163566D01*
X122759433Y-102374003D01*
X122686446Y-102598631D01*
X122649500Y-102831902D01*
X120300500Y-102831902D01*
X120300500Y-92068872D01*
X123499500Y-92068872D01*
X123499500Y-92331127D01*
X123526123Y-92533339D01*
X123533730Y-92591116D01*
X123601602Y-92844418D01*
X123601605Y-92844428D01*
X123701953Y-93086690D01*
X123701958Y-93086700D01*
X123833075Y-93313803D01*
X123992718Y-93521851D01*
X123992726Y-93521860D01*
X124178140Y-93707274D01*
X124178148Y-93707281D01*
X124386196Y-93866924D01*
X124613299Y-93998041D01*
X124613309Y-93998046D01*
X124855571Y-94098394D01*
X124855581Y-94098398D01*
X125108884Y-94166270D01*
X125368880Y-94200500D01*
X125368887Y-94200500D01*
X125631113Y-94200500D01*
X125631120Y-94200500D01*
X125891116Y-94166270D01*
X126144419Y-94098398D01*
X126386697Y-93998043D01*
X126613803Y-93866924D01*
X126821851Y-93707282D01*
X126821855Y-93707277D01*
X126821860Y-93707274D01*
X127007274Y-93521860D01*
X127007277Y-93521855D01*
X127007282Y-93521851D01*
X127166924Y-93313803D01*
X127298043Y-93086697D01*
X127398398Y-92844419D01*
X127466270Y-92591116D01*
X127500500Y-92331120D01*
X127500500Y-92068880D01*
X127500499Y-92068872D01*
X145499500Y-92068872D01*
X145499500Y-92331127D01*
X145526123Y-92533339D01*
X145533730Y-92591116D01*
X145601602Y-92844418D01*
X145601605Y-92844428D01*
X145701953Y-93086690D01*
X145701958Y-93086700D01*
X145833075Y-93313803D01*
X145992718Y-93521851D01*
X145992726Y-93521860D01*
X146178140Y-93707274D01*
X146178148Y-93707281D01*
X146386196Y-93866924D01*
X146613299Y-93998041D01*
X146613309Y-93998046D01*
X146855571Y-94098394D01*
X146855581Y-94098398D01*
X147108884Y-94166270D01*
X147368880Y-94200500D01*
X147368887Y-94200500D01*
X147631113Y-94200500D01*
X147631120Y-94200500D01*
X147891116Y-94166270D01*
X148144419Y-94098398D01*
X148386697Y-93998043D01*
X148613803Y-93866924D01*
X148821851Y-93707282D01*
X148821855Y-93707277D01*
X148821860Y-93707274D01*
X149007274Y-93521860D01*
X149007277Y-93521855D01*
X149007282Y-93521851D01*
X149166924Y-93313803D01*
X149298043Y-93086697D01*
X149398398Y-92844419D01*
X149466270Y-92591116D01*
X149500500Y-92331120D01*
X149500500Y-92068880D01*
X149466270Y-91808884D01*
X149398398Y-91555581D01*
X149398394Y-91555571D01*
X149298046Y-91313309D01*
X149298041Y-91313299D01*
X149166924Y-91086196D01*
X149007281Y-90878148D01*
X149007274Y-90878140D01*
X148821860Y-90692726D01*
X148821851Y-90692718D01*
X148613803Y-90533075D01*
X148386700Y-90401958D01*
X148386690Y-90401953D01*
X148144428Y-90301605D01*
X148144421Y-90301603D01*
X148144419Y-90301602D01*
X147891116Y-90233730D01*
X147833339Y-90226123D01*
X147631127Y-90199500D01*
X147631120Y-90199500D01*
X147368880Y-90199500D01*
X147368872Y-90199500D01*
X147137772Y-90229926D01*
X147108884Y-90233730D01*
X146855581Y-90301602D01*
X146855571Y-90301605D01*
X146613309Y-90401953D01*
X146613299Y-90401958D01*
X146386196Y-90533075D01*
X146178148Y-90692718D01*
X145992718Y-90878148D01*
X145833075Y-91086196D01*
X145701958Y-91313299D01*
X145701953Y-91313309D01*
X145601605Y-91555571D01*
X145601602Y-91555581D01*
X145533730Y-91808885D01*
X145499500Y-92068872D01*
X127500499Y-92068872D01*
X127466270Y-91808884D01*
X127398398Y-91555581D01*
X127398394Y-91555571D01*
X127298046Y-91313309D01*
X127298041Y-91313299D01*
X127166924Y-91086196D01*
X127007281Y-90878148D01*
X127007274Y-90878140D01*
X126821860Y-90692726D01*
X126821851Y-90692718D01*
X126613803Y-90533075D01*
X126386700Y-90401958D01*
X126386690Y-90401953D01*
X126144428Y-90301605D01*
X126144421Y-90301603D01*
X126144419Y-90301602D01*
X125891116Y-90233730D01*
X125833339Y-90226123D01*
X125631127Y-90199500D01*
X125631120Y-90199500D01*
X125368880Y-90199500D01*
X125368872Y-90199500D01*
X125137772Y-90229926D01*
X125108884Y-90233730D01*
X124855581Y-90301602D01*
X124855571Y-90301605D01*
X124613309Y-90401953D01*
X124613299Y-90401958D01*
X124386196Y-90533075D01*
X124178148Y-90692718D01*
X123992718Y-90878148D01*
X123833075Y-91086196D01*
X123701958Y-91313299D01*
X123701953Y-91313309D01*
X123601605Y-91555571D01*
X123601602Y-91555581D01*
X123533730Y-91808885D01*
X123499500Y-92068872D01*
X120300500Y-92068872D01*
X120300500Y-70068872D01*
X123499500Y-70068872D01*
X123499500Y-70331127D01*
X123521977Y-70501844D01*
X123533730Y-70591116D01*
X123594813Y-70819082D01*
X123601602Y-70844418D01*
X123601605Y-70844428D01*
X123701953Y-71086690D01*
X123701958Y-71086700D01*
X123833075Y-71313803D01*
X123992718Y-71521851D01*
X123992726Y-71521860D01*
X124178140Y-71707274D01*
X124178148Y-71707281D01*
X124386196Y-71866924D01*
X124613299Y-71998041D01*
X124613309Y-71998046D01*
X124855571Y-72098394D01*
X124855581Y-72098398D01*
X125108884Y-72166270D01*
X125368880Y-72200500D01*
X125368887Y-72200500D01*
X125631113Y-72200500D01*
X125631120Y-72200500D01*
X125891116Y-72166270D01*
X126144419Y-72098398D01*
X126386697Y-71998043D01*
X126613803Y-71866924D01*
X126821851Y-71707282D01*
X126821855Y-71707277D01*
X126821860Y-71707274D01*
X127007274Y-71521860D01*
X127007277Y-71521855D01*
X127007282Y-71521851D01*
X127166924Y-71313803D01*
X127298043Y-71086697D01*
X127398398Y-70844419D01*
X127466270Y-70591116D01*
X127500500Y-70331120D01*
X127500500Y-70068880D01*
X127484849Y-69950000D01*
X127480218Y-69914823D01*
X127475892Y-69881973D01*
X127466270Y-69808884D01*
X127398398Y-69555581D01*
X127396086Y-69550000D01*
X127298046Y-69313309D01*
X127298041Y-69313299D01*
X127166927Y-69086201D01*
X127158624Y-69075380D01*
X127022633Y-68898155D01*
X131436000Y-68898155D01*
X131436000Y-69450000D01*
X132256988Y-69450000D01*
X132224075Y-69507007D01*
X132190000Y-69634174D01*
X132190000Y-69765826D01*
X132224075Y-69892993D01*
X132256988Y-69950000D01*
X131436000Y-69950000D01*
X131436000Y-70501844D01*
X131442401Y-70561372D01*
X131442403Y-70561379D01*
X131492645Y-70696086D01*
X131492649Y-70696093D01*
X131578809Y-70811187D01*
X131578812Y-70811190D01*
X131693906Y-70897350D01*
X131693913Y-70897354D01*
X131828620Y-70947596D01*
X131828627Y-70947598D01*
X131888155Y-70953999D01*
X131888172Y-70954000D01*
X132440000Y-70954000D01*
X132440000Y-70133012D01*
X132497007Y-70165925D01*
X132624174Y-70200000D01*
X132755826Y-70200000D01*
X132882993Y-70165925D01*
X132940000Y-70133012D01*
X132940000Y-70954000D01*
X133491828Y-70954000D01*
X133491844Y-70953999D01*
X133551372Y-70947598D01*
X133551379Y-70947596D01*
X133686086Y-70897354D01*
X133686093Y-70897350D01*
X133801187Y-70811190D01*
X133801190Y-70811187D01*
X133887350Y-70696093D01*
X133887354Y-70696086D01*
X133937596Y-70561379D01*
X133937598Y-70561372D01*
X133943999Y-70501844D01*
X133944000Y-70501827D01*
X133944000Y-70445887D01*
X133963685Y-70378848D01*
X134016489Y-70333093D01*
X134085647Y-70323149D01*
X134149203Y-70352174D01*
X134168314Y-70372997D01*
X134221272Y-70445887D01*
X134273121Y-70517252D01*
X134412753Y-70656884D01*
X134562234Y-70765486D01*
X134572499Y-70772944D01*
X134748439Y-70862591D01*
X134855417Y-70897350D01*
X134936236Y-70923610D01*
X135131264Y-70954500D01*
X135131269Y-70954500D01*
X135328736Y-70954500D01*
X135523763Y-70923610D01*
X135711561Y-70862591D01*
X135887501Y-70772944D01*
X135993288Y-70696086D01*
X136047246Y-70656884D01*
X136047248Y-70656881D01*
X136047252Y-70656879D01*
X136186879Y-70517252D01*
X136186881Y-70517248D01*
X136186884Y-70517246D01*
X136302941Y-70357505D01*
X136302942Y-70357504D01*
X136302944Y-70357501D01*
X136389517Y-70187593D01*
X136437490Y-70136800D01*
X136505311Y-70120005D01*
X136571446Y-70142542D01*
X136610482Y-70187593D01*
X136683614Y-70331120D01*
X136697058Y-70357505D01*
X136813115Y-70517246D01*
X136952753Y-70656884D01*
X137102234Y-70765486D01*
X137112499Y-70772944D01*
X137288439Y-70862591D01*
X137395417Y-70897350D01*
X137476236Y-70923610D01*
X137671264Y-70954500D01*
X137671269Y-70954500D01*
X137868736Y-70954500D01*
X138063763Y-70923610D01*
X138251561Y-70862591D01*
X138427501Y-70772944D01*
X138533288Y-70696086D01*
X138587246Y-70656884D01*
X138587248Y-70656881D01*
X138587252Y-70656879D01*
X138726879Y-70517252D01*
X138726881Y-70517248D01*
X138726884Y-70517246D01*
X138842941Y-70357505D01*
X138842942Y-70357504D01*
X138842944Y-70357501D01*
X138929517Y-70187593D01*
X138977490Y-70136800D01*
X139045311Y-70120005D01*
X139111446Y-70142542D01*
X139150482Y-70187593D01*
X139223614Y-70331120D01*
X139237058Y-70357505D01*
X139353115Y-70517246D01*
X139492753Y-70656884D01*
X139642234Y-70765486D01*
X139652499Y-70772944D01*
X139828439Y-70862591D01*
X139935417Y-70897350D01*
X140016236Y-70923610D01*
X140211264Y-70954500D01*
X140211269Y-70954500D01*
X140408736Y-70954500D01*
X140603763Y-70923610D01*
X140791561Y-70862591D01*
X140967501Y-70772944D01*
X141073288Y-70696086D01*
X141127246Y-70656884D01*
X141127248Y-70656881D01*
X141127252Y-70656879D01*
X141266879Y-70517252D01*
X141266881Y-70517248D01*
X141266884Y-70517246D01*
X141337093Y-70420610D01*
X141382944Y-70357501D01*
X141472591Y-70181561D01*
X141509206Y-70068872D01*
X145499500Y-70068872D01*
X145499500Y-70331127D01*
X145521977Y-70501844D01*
X145533730Y-70591116D01*
X145594813Y-70819082D01*
X145601602Y-70844418D01*
X145601605Y-70844428D01*
X145701953Y-71086690D01*
X145701958Y-71086700D01*
X145833075Y-71313803D01*
X145992718Y-71521851D01*
X145992726Y-71521860D01*
X146178140Y-71707274D01*
X146178148Y-71707281D01*
X146386196Y-71866924D01*
X146613299Y-71998041D01*
X146613309Y-71998046D01*
X146855571Y-72098394D01*
X146855581Y-72098398D01*
X147108884Y-72166270D01*
X147368880Y-72200500D01*
X147368887Y-72200500D01*
X147631113Y-72200500D01*
X147631120Y-72200500D01*
X147891116Y-72166270D01*
X148144419Y-72098398D01*
X148386697Y-71998043D01*
X148613803Y-71866924D01*
X148821851Y-71707282D01*
X148821855Y-71707277D01*
X148821860Y-71707274D01*
X149007274Y-71521860D01*
X149007277Y-71521855D01*
X149007282Y-71521851D01*
X149166924Y-71313803D01*
X149298043Y-71086697D01*
X149398398Y-70844419D01*
X149466270Y-70591116D01*
X149500500Y-70331120D01*
X149500500Y-70068880D01*
X149466270Y-69808884D01*
X149398398Y-69555581D01*
X149298043Y-69313303D01*
X149298041Y-69313299D01*
X149166924Y-69086196D01*
X149065571Y-68954112D01*
X149007282Y-68878149D01*
X149007277Y-68878144D01*
X149007274Y-68878140D01*
X148942562Y-68813428D01*
X159140000Y-68813428D01*
X159140000Y-69050000D01*
X159924314Y-69050000D01*
X159919920Y-69054394D01*
X159867259Y-69145606D01*
X159840000Y-69247339D01*
X159840000Y-69352661D01*
X159867259Y-69454394D01*
X159919920Y-69545606D01*
X159924314Y-69550000D01*
X159140000Y-69550000D01*
X159140000Y-69786571D01*
X159167085Y-69957584D01*
X159220591Y-70122257D01*
X159299195Y-70276524D01*
X159400967Y-70416602D01*
X159523397Y-70539032D01*
X159663475Y-70640804D01*
X159817744Y-70719408D01*
X159982415Y-70772914D01*
X159982414Y-70772914D01*
X159989999Y-70774115D01*
X159990000Y-70774114D01*
X159990000Y-69615686D01*
X159994394Y-69620080D01*
X160085606Y-69672741D01*
X160187339Y-69700000D01*
X160292661Y-69700000D01*
X160394394Y-69672741D01*
X160485606Y-69620080D01*
X160490000Y-69615686D01*
X160490000Y-70774115D01*
X160497584Y-70772914D01*
X160662255Y-70719408D01*
X160816524Y-70640804D01*
X160956602Y-70539032D01*
X161079032Y-70416602D01*
X161180804Y-70276524D01*
X161259408Y-70122257D01*
X161312914Y-69957584D01*
X161340000Y-69786571D01*
X161340000Y-69550000D01*
X160555686Y-69550000D01*
X160560080Y-69545606D01*
X160612741Y-69454394D01*
X160640000Y-69352661D01*
X160640000Y-69247339D01*
X160612741Y-69145606D01*
X160560080Y-69054394D01*
X160555686Y-69050000D01*
X161340000Y-69050000D01*
X161340000Y-68813428D01*
X161339994Y-68813389D01*
X161679500Y-68813389D01*
X161679500Y-69786611D01*
X161706598Y-69957701D01*
X161760127Y-70122445D01*
X161838768Y-70276788D01*
X161940586Y-70416928D01*
X162063072Y-70539414D01*
X162203212Y-70641232D01*
X162357555Y-70719873D01*
X162522299Y-70773402D01*
X162693389Y-70800500D01*
X162693390Y-70800500D01*
X162866610Y-70800500D01*
X162866611Y-70800500D01*
X163037701Y-70773402D01*
X163202445Y-70719873D01*
X163356788Y-70641232D01*
X163496928Y-70539414D01*
X163619414Y-70416928D01*
X163721232Y-70276788D01*
X163799873Y-70122445D01*
X163853402Y-69957701D01*
X163880500Y-69786611D01*
X163880500Y-68813389D01*
X164219500Y-68813389D01*
X164219500Y-69786611D01*
X164246598Y-69957701D01*
X164300127Y-70122445D01*
X164378768Y-70276788D01*
X164480586Y-70416928D01*
X164603072Y-70539414D01*
X164743212Y-70641232D01*
X164897555Y-70719873D01*
X165062299Y-70773402D01*
X165233389Y-70800500D01*
X165233390Y-70800500D01*
X165406610Y-70800500D01*
X165406611Y-70800500D01*
X165577701Y-70773402D01*
X165742445Y-70719873D01*
X165896788Y-70641232D01*
X166036928Y-70539414D01*
X166159414Y-70416928D01*
X166261232Y-70276788D01*
X166339873Y-70122445D01*
X166393402Y-69957701D01*
X166420500Y-69786611D01*
X166420500Y-68813389D01*
X166759500Y-68813389D01*
X166759500Y-69786611D01*
X166786598Y-69957701D01*
X166840127Y-70122445D01*
X166918768Y-70276788D01*
X167020586Y-70416928D01*
X167143072Y-70539414D01*
X167283212Y-70641232D01*
X167437555Y-70719873D01*
X167602299Y-70773402D01*
X167773389Y-70800500D01*
X167773390Y-70800500D01*
X167946610Y-70800500D01*
X167946611Y-70800500D01*
X168117701Y-70773402D01*
X168282445Y-70719873D01*
X168436788Y-70641232D01*
X168576928Y-70539414D01*
X168699414Y-70416928D01*
X168801232Y-70276788D01*
X168879873Y-70122445D01*
X168933402Y-69957701D01*
X168960500Y-69786611D01*
X168960500Y-68813389D01*
X168933402Y-68642299D01*
X168879873Y-68477555D01*
X168801232Y-68323212D01*
X168699414Y-68183072D01*
X168576928Y-68060586D01*
X168436788Y-67958768D01*
X168289669Y-67883808D01*
X168282447Y-67880128D01*
X168282446Y-67880127D01*
X168282445Y-67880127D01*
X168117701Y-67826598D01*
X168117699Y-67826597D01*
X168117698Y-67826597D01*
X167986271Y-67805781D01*
X167946611Y-67799500D01*
X167773389Y-67799500D01*
X167733728Y-67805781D01*
X167602302Y-67826597D01*
X167437552Y-67880128D01*
X167283211Y-67958768D01*
X167203256Y-68016859D01*
X167143072Y-68060586D01*
X167143070Y-68060588D01*
X167143069Y-68060588D01*
X167020588Y-68183069D01*
X167020588Y-68183070D01*
X167020586Y-68183072D01*
X166983781Y-68233730D01*
X166918768Y-68323211D01*
X166840128Y-68477552D01*
X166786597Y-68642302D01*
X166778612Y-68692718D01*
X166759500Y-68813389D01*
X166420500Y-68813389D01*
X166393402Y-68642299D01*
X166339873Y-68477555D01*
X166261232Y-68323212D01*
X166159414Y-68183072D01*
X166036928Y-68060586D01*
X165896788Y-67958768D01*
X165749669Y-67883808D01*
X165742447Y-67880128D01*
X165742446Y-67880127D01*
X165742445Y-67880127D01*
X165577701Y-67826598D01*
X165577699Y-67826597D01*
X165577698Y-67826597D01*
X165446271Y-67805781D01*
X165406611Y-67799500D01*
X165233389Y-67799500D01*
X165193728Y-67805781D01*
X165062302Y-67826597D01*
X164897552Y-67880128D01*
X164743211Y-67958768D01*
X164663256Y-68016859D01*
X164603072Y-68060586D01*
X164603070Y-68060588D01*
X164603069Y-68060588D01*
X164480588Y-68183069D01*
X164480588Y-68183070D01*
X164480586Y-68183072D01*
X164443781Y-68233730D01*
X164378768Y-68323211D01*
X164300128Y-68477552D01*
X164246597Y-68642302D01*
X164238612Y-68692718D01*
X164219500Y-68813389D01*
X163880500Y-68813389D01*
X163853402Y-68642299D01*
X163799873Y-68477555D01*
X163721232Y-68323212D01*
X163619414Y-68183072D01*
X163496928Y-68060586D01*
X163356788Y-67958768D01*
X163209669Y-67883808D01*
X163202447Y-67880128D01*
X163202446Y-67880127D01*
X163202445Y-67880127D01*
X163037701Y-67826598D01*
X163037699Y-67826597D01*
X163037698Y-67826597D01*
X162906271Y-67805781D01*
X162866611Y-67799500D01*
X162693389Y-67799500D01*
X162653728Y-67805781D01*
X162522302Y-67826597D01*
X162357552Y-67880128D01*
X162203211Y-67958768D01*
X162123256Y-68016859D01*
X162063072Y-68060586D01*
X162063070Y-68060588D01*
X162063069Y-68060588D01*
X161940588Y-68183069D01*
X161940588Y-68183070D01*
X161940586Y-68183072D01*
X161903781Y-68233730D01*
X161838768Y-68323211D01*
X161760128Y-68477552D01*
X161706597Y-68642302D01*
X161698612Y-68692718D01*
X161679500Y-68813389D01*
X161339994Y-68813389D01*
X161312914Y-68642415D01*
X161259408Y-68477742D01*
X161180804Y-68323475D01*
X161079032Y-68183397D01*
X160956602Y-68060967D01*
X160816524Y-67959195D01*
X160662257Y-67880591D01*
X160497589Y-67827087D01*
X160497581Y-67827085D01*
X160490000Y-67825884D01*
X160490000Y-68984314D01*
X160485606Y-68979920D01*
X160394394Y-68927259D01*
X160292661Y-68900000D01*
X160187339Y-68900000D01*
X160085606Y-68927259D01*
X159994394Y-68979920D01*
X159990000Y-68984314D01*
X159990000Y-67825884D01*
X159989999Y-67825884D01*
X159982418Y-67827085D01*
X159982410Y-67827087D01*
X159817742Y-67880591D01*
X159663475Y-67959195D01*
X159523397Y-68060967D01*
X159400967Y-68183397D01*
X159299195Y-68323475D01*
X159220591Y-68477742D01*
X159167085Y-68642415D01*
X159140000Y-68813428D01*
X148942562Y-68813428D01*
X148821860Y-68692726D01*
X148821851Y-68692718D01*
X148613803Y-68533075D01*
X148386700Y-68401958D01*
X148386690Y-68401953D01*
X148144428Y-68301605D01*
X148144421Y-68301603D01*
X148144419Y-68301602D01*
X147891116Y-68233730D01*
X147833339Y-68226123D01*
X147631127Y-68199500D01*
X147631120Y-68199500D01*
X147368880Y-68199500D01*
X147368872Y-68199500D01*
X147137772Y-68229926D01*
X147108884Y-68233730D01*
X146980568Y-68268112D01*
X146855581Y-68301602D01*
X146855571Y-68301605D01*
X146613309Y-68401953D01*
X146613299Y-68401958D01*
X146386196Y-68533075D01*
X146178148Y-68692718D01*
X145992718Y-68878148D01*
X145833075Y-69086196D01*
X145701958Y-69313299D01*
X145701953Y-69313309D01*
X145601605Y-69555571D01*
X145601604Y-69555575D01*
X145601602Y-69555581D01*
X145536451Y-69798731D01*
X145533730Y-69808885D01*
X145499500Y-70068872D01*
X141509206Y-70068872D01*
X141533610Y-69993763D01*
X141546113Y-69914823D01*
X141564500Y-69798736D01*
X141564500Y-69601271D01*
X141563849Y-69597161D01*
X141551807Y-69521132D01*
X141560761Y-69451843D01*
X141586596Y-69414059D01*
X144263838Y-66736819D01*
X144325161Y-66703334D01*
X144351519Y-66700500D01*
X199772081Y-66700500D01*
X199839120Y-66720185D01*
X199859762Y-66736819D01*
X200732713Y-67609770D01*
X200766198Y-67671093D01*
X200761214Y-67740785D01*
X200719342Y-67796718D01*
X200664432Y-67819924D01*
X200622300Y-67826597D01*
X200457552Y-67880128D01*
X200303211Y-67958768D01*
X200223256Y-68016859D01*
X200163072Y-68060586D01*
X200163070Y-68060588D01*
X200163069Y-68060588D01*
X200040588Y-68183069D01*
X200040588Y-68183070D01*
X200040586Y-68183072D01*
X200003781Y-68233730D01*
X199938768Y-68323211D01*
X199860128Y-68477552D01*
X199806597Y-68642302D01*
X199798612Y-68692718D01*
X199779500Y-68813389D01*
X199779500Y-69786611D01*
X199806598Y-69957701D01*
X199860127Y-70122445D01*
X199938768Y-70276788D01*
X200040586Y-70416928D01*
X200163072Y-70539414D01*
X200303212Y-70641232D01*
X200457555Y-70719873D01*
X200622299Y-70773402D01*
X200793389Y-70800500D01*
X200793390Y-70800500D01*
X200966610Y-70800500D01*
X200966611Y-70800500D01*
X201137701Y-70773402D01*
X201302445Y-70719873D01*
X201456788Y-70641232D01*
X201596928Y-70539414D01*
X201719414Y-70416928D01*
X201821232Y-70276788D01*
X201899873Y-70122445D01*
X201953402Y-69957701D01*
X201980500Y-69786611D01*
X201980500Y-69156919D01*
X201986738Y-69135673D01*
X201988318Y-69113585D01*
X201996390Y-69102801D01*
X202000185Y-69089880D01*
X202016918Y-69075380D01*
X202030190Y-69057652D01*
X202042810Y-69052944D01*
X202052989Y-69044125D01*
X202074906Y-69040973D01*
X202095654Y-69033235D01*
X202108814Y-69036097D01*
X202122147Y-69034181D01*
X202142290Y-69043380D01*
X202163927Y-69048087D01*
X202181652Y-69061355D01*
X202185703Y-69063206D01*
X202192181Y-69069238D01*
X202280461Y-69157518D01*
X202313946Y-69218841D01*
X202316780Y-69245199D01*
X202316780Y-69790290D01*
X202343294Y-69957697D01*
X202343878Y-69961381D01*
X202397407Y-70126125D01*
X202476048Y-70280468D01*
X202577866Y-70420608D01*
X202700352Y-70543094D01*
X202840492Y-70644912D01*
X202994835Y-70723553D01*
X203159579Y-70777082D01*
X203330669Y-70804180D01*
X203330670Y-70804180D01*
X203503890Y-70804180D01*
X203503891Y-70804180D01*
X203674981Y-70777082D01*
X203839725Y-70723553D01*
X203994068Y-70644912D01*
X204134208Y-70543094D01*
X204256694Y-70420608D01*
X204358512Y-70280468D01*
X204437153Y-70126125D01*
X204490682Y-69961381D01*
X204517780Y-69790291D01*
X204517780Y-69154199D01*
X204524018Y-69132953D01*
X204525598Y-69110865D01*
X204533670Y-69100081D01*
X204537465Y-69087160D01*
X204554198Y-69072660D01*
X204567470Y-69054932D01*
X204580090Y-69050224D01*
X204590269Y-69041405D01*
X204612186Y-69038253D01*
X204632934Y-69030515D01*
X204646094Y-69033377D01*
X204659427Y-69031461D01*
X204679570Y-69040660D01*
X204701207Y-69045367D01*
X204718932Y-69058635D01*
X204722983Y-69060486D01*
X204729461Y-69066518D01*
X204820461Y-69157518D01*
X204853946Y-69218841D01*
X204856780Y-69245199D01*
X204856780Y-69790290D01*
X204883294Y-69957697D01*
X204883878Y-69961381D01*
X204937407Y-70126125D01*
X205016048Y-70280468D01*
X205117866Y-70420608D01*
X205240352Y-70543094D01*
X205380492Y-70644912D01*
X205534835Y-70723553D01*
X205699579Y-70777082D01*
X205870669Y-70804180D01*
X205870670Y-70804180D01*
X206043890Y-70804180D01*
X206043891Y-70804180D01*
X206214981Y-70777082D01*
X206379725Y-70723553D01*
X206534068Y-70644912D01*
X206674208Y-70543094D01*
X206796694Y-70420608D01*
X206898512Y-70280468D01*
X206977153Y-70126125D01*
X207030682Y-69961381D01*
X207057780Y-69790291D01*
X207057780Y-68817069D01*
X207030682Y-68645979D01*
X206977153Y-68481235D01*
X206898512Y-68326892D01*
X206796694Y-68186752D01*
X206674208Y-68064266D01*
X206534068Y-67962448D01*
X206379725Y-67883807D01*
X206214981Y-67830278D01*
X206214979Y-67830277D01*
X206214978Y-67830277D01*
X206062996Y-67806206D01*
X206043891Y-67803180D01*
X205870669Y-67803180D01*
X205851564Y-67806206D01*
X205699581Y-67830277D01*
X205601992Y-67861986D01*
X205532151Y-67863981D01*
X205475993Y-67831736D01*
X202056438Y-64412181D01*
X202022953Y-64350858D01*
X202027937Y-64281166D01*
X202069809Y-64225233D01*
X202135273Y-64200816D01*
X202144119Y-64200500D01*
X207158481Y-64200500D01*
X207225520Y-64220185D01*
X207246162Y-64236819D01*
X209163181Y-66153838D01*
X209196666Y-66215161D01*
X209199500Y-66241519D01*
X209199500Y-93246349D01*
X209179815Y-93313388D01*
X209163181Y-93334030D01*
X209139376Y-93357834D01*
X209139373Y-93357837D01*
X209046295Y-93497139D01*
X208982184Y-93651917D01*
X208982182Y-93651925D01*
X208949500Y-93816228D01*
X208949500Y-93983771D01*
X208982182Y-94148074D01*
X208982184Y-94148082D01*
X209046295Y-94302860D01*
X209139373Y-94442162D01*
X209257837Y-94560626D01*
X209350494Y-94622537D01*
X209397137Y-94653703D01*
X209551918Y-94717816D01*
X209716228Y-94750499D01*
X209716232Y-94750500D01*
X209716233Y-94750500D01*
X209883768Y-94750500D01*
X209883769Y-94750499D01*
X210048082Y-94717816D01*
X210202863Y-94653703D01*
X210342162Y-94560626D01*
X210460626Y-94442162D01*
X210553703Y-94302863D01*
X210617816Y-94148082D01*
X210650500Y-93983767D01*
X210650500Y-93816233D01*
X210617816Y-93651918D01*
X210609937Y-93632896D01*
X210600500Y-93585449D01*
X210600500Y-65831006D01*
X210593471Y-65795673D01*
X210593471Y-65795670D01*
X210573581Y-65695679D01*
X210573580Y-65695672D01*
X210573578Y-65695667D01*
X210520777Y-65568192D01*
X210444112Y-65453454D01*
X207946545Y-62955887D01*
X207831807Y-62879222D01*
X207704332Y-62826421D01*
X207704322Y-62826418D01*
X207568996Y-62799500D01*
X207568994Y-62799500D01*
X207568993Y-62799500D01*
X141498994Y-62799500D01*
X141361006Y-62799500D01*
X141361004Y-62799500D01*
X141225677Y-62826418D01*
X141225667Y-62826421D01*
X141098192Y-62879222D01*
X140983454Y-62955887D01*
X135515942Y-68423399D01*
X135454619Y-68456884D01*
X135408863Y-68458191D01*
X135328736Y-68445500D01*
X135328731Y-68445500D01*
X135131269Y-68445500D01*
X135131264Y-68445500D01*
X134936236Y-68476389D01*
X134748441Y-68537408D01*
X134572495Y-68627058D01*
X134412753Y-68743115D01*
X134273115Y-68882753D01*
X134168318Y-69026997D01*
X134112989Y-69069663D01*
X134043375Y-69075642D01*
X133981580Y-69043037D01*
X133947223Y-68982198D01*
X133944000Y-68954112D01*
X133944000Y-68898172D01*
X133943999Y-68898155D01*
X133937598Y-68838627D01*
X133937596Y-68838620D01*
X133887354Y-68703913D01*
X133887350Y-68703906D01*
X133801190Y-68588812D01*
X133801187Y-68588809D01*
X133686093Y-68502649D01*
X133686086Y-68502645D01*
X133551379Y-68452403D01*
X133551372Y-68452401D01*
X133491844Y-68446000D01*
X132940000Y-68446000D01*
X132940000Y-69266988D01*
X132882993Y-69234075D01*
X132755826Y-69200000D01*
X132624174Y-69200000D01*
X132497007Y-69234075D01*
X132440000Y-69266988D01*
X132440000Y-68446000D01*
X131888155Y-68446000D01*
X131828627Y-68452401D01*
X131828620Y-68452403D01*
X131693913Y-68502645D01*
X131693906Y-68502649D01*
X131578812Y-68588809D01*
X131578809Y-68588812D01*
X131492649Y-68703906D01*
X131492645Y-68703913D01*
X131442403Y-68838620D01*
X131442401Y-68838627D01*
X131436000Y-68898155D01*
X127022633Y-68898155D01*
X127007282Y-68878149D01*
X127007281Y-68878148D01*
X127007274Y-68878140D01*
X126821860Y-68692726D01*
X126821851Y-68692718D01*
X126613803Y-68533075D01*
X126386700Y-68401958D01*
X126386690Y-68401953D01*
X126144428Y-68301605D01*
X126144421Y-68301603D01*
X126144419Y-68301602D01*
X125891116Y-68233730D01*
X125833339Y-68226123D01*
X125631127Y-68199500D01*
X125631120Y-68199500D01*
X125368880Y-68199500D01*
X125368872Y-68199500D01*
X125137772Y-68229926D01*
X125108884Y-68233730D01*
X124980568Y-68268112D01*
X124855581Y-68301602D01*
X124855571Y-68301605D01*
X124613309Y-68401953D01*
X124613299Y-68401958D01*
X124386196Y-68533075D01*
X124178148Y-68692718D01*
X123992718Y-68878148D01*
X123833075Y-69086196D01*
X123701958Y-69313299D01*
X123701953Y-69313309D01*
X123601605Y-69555571D01*
X123601604Y-69555575D01*
X123601602Y-69555581D01*
X123536451Y-69798731D01*
X123533730Y-69808885D01*
X123499500Y-70068872D01*
X120300500Y-70068872D01*
X120300500Y-60324500D01*
X120320185Y-60257461D01*
X120372989Y-60211706D01*
X120424500Y-60200500D01*
X212575500Y-60200500D01*
X212642539Y-60220185D01*
G37*
%TD.AperFunction*%
%TD*%
M02*
