%TF.GenerationSoftware,KiCad,Pcbnew,9.0.2*%
%TF.CreationDate,2025-06-08T16:57:51+07:00*%
%TF.ProjectId,WiFi_Frauder_DEV,57694669-5f46-4726-9175-6465725f4445,0*%
%TF.SameCoordinates,Original*%
%TF.FileFunction,Legend,Top*%
%TF.FilePolarity,Positive*%
%FSLAX46Y46*%
G04 Gerber Fmt 4.6, Leading zero omitted, Abs format (unit mm)*
G04 Created by KiCad (PCBNEW 9.0.2) date 2025-06-08 16:57:51*
%MOMM*%
%LPD*%
G01*
G04 APERTURE LIST*
%ADD10C,0.100000*%
%ADD11C,0.250000*%
%ADD12C,0.400000*%
%ADD13C,0.150000*%
%ADD14C,0.300000*%
%ADD15C,0.120000*%
%ADD16C,0.127000*%
%ADD17C,0.200000*%
%ADD18C,0.000000*%
G04 APERTURE END LIST*
D10*
X199237217Y-111148609D02*
X199380074Y-111196228D01*
X199380074Y-111196228D02*
X199427693Y-111243847D01*
X199427693Y-111243847D02*
X199475312Y-111339085D01*
X199475312Y-111339085D02*
X199475312Y-111481942D01*
X199475312Y-111481942D02*
X199427693Y-111577180D01*
X199427693Y-111577180D02*
X199380074Y-111624800D01*
X199380074Y-111624800D02*
X199284836Y-111672419D01*
X199284836Y-111672419D02*
X198903884Y-111672419D01*
X198903884Y-111672419D02*
X198903884Y-110672419D01*
X198903884Y-110672419D02*
X199237217Y-110672419D01*
X199237217Y-110672419D02*
X199332455Y-110720038D01*
X199332455Y-110720038D02*
X199380074Y-110767657D01*
X199380074Y-110767657D02*
X199427693Y-110862895D01*
X199427693Y-110862895D02*
X199427693Y-110958133D01*
X199427693Y-110958133D02*
X199380074Y-111053371D01*
X199380074Y-111053371D02*
X199332455Y-111100990D01*
X199332455Y-111100990D02*
X199237217Y-111148609D01*
X199237217Y-111148609D02*
X198903884Y-111148609D01*
X199808646Y-111005752D02*
X200046741Y-111672419D01*
X200284836Y-111005752D02*
X200046741Y-111672419D01*
X200046741Y-111672419D02*
X199951503Y-111910514D01*
X199951503Y-111910514D02*
X199903884Y-111958133D01*
X199903884Y-111958133D02*
X199808646Y-112005752D01*
X201856265Y-111005752D02*
X201856265Y-111672419D01*
X201427694Y-111005752D02*
X201427694Y-111529561D01*
X201427694Y-111529561D02*
X201475313Y-111624800D01*
X201475313Y-111624800D02*
X201570551Y-111672419D01*
X201570551Y-111672419D02*
X201713408Y-111672419D01*
X201713408Y-111672419D02*
X201808646Y-111624800D01*
X201808646Y-111624800D02*
X201856265Y-111577180D01*
X202332456Y-111005752D02*
X202332456Y-111672419D01*
X202332456Y-111100990D02*
X202380075Y-111053371D01*
X202380075Y-111053371D02*
X202475313Y-111005752D01*
X202475313Y-111005752D02*
X202618170Y-111005752D01*
X202618170Y-111005752D02*
X202713408Y-111053371D01*
X202713408Y-111053371D02*
X202761027Y-111148609D01*
X202761027Y-111148609D02*
X202761027Y-111672419D01*
X203665789Y-111005752D02*
X203665789Y-111672419D01*
X203427694Y-110624800D02*
X203189599Y-111339085D01*
X203189599Y-111339085D02*
X203808646Y-111339085D01*
X204618170Y-111624800D02*
X204522932Y-111672419D01*
X204522932Y-111672419D02*
X204332456Y-111672419D01*
X204332456Y-111672419D02*
X204237218Y-111624800D01*
X204237218Y-111624800D02*
X204189599Y-111577180D01*
X204189599Y-111577180D02*
X204141980Y-111481942D01*
X204141980Y-111481942D02*
X204141980Y-111196228D01*
X204141980Y-111196228D02*
X204189599Y-111100990D01*
X204189599Y-111100990D02*
X204237218Y-111053371D01*
X204237218Y-111053371D02*
X204332456Y-111005752D01*
X204332456Y-111005752D02*
X204522932Y-111005752D01*
X204522932Y-111005752D02*
X204618170Y-111053371D01*
X205046742Y-111672419D02*
X205046742Y-110672419D01*
X205141980Y-111291466D02*
X205427694Y-111672419D01*
X205427694Y-111005752D02*
X205046742Y-111386704D01*
X205856266Y-111005752D02*
X205856266Y-111672419D01*
X205856266Y-111100990D02*
X205903885Y-111053371D01*
X205903885Y-111053371D02*
X205999123Y-111005752D01*
X205999123Y-111005752D02*
X206141980Y-111005752D01*
X206141980Y-111005752D02*
X206237218Y-111053371D01*
X206237218Y-111053371D02*
X206284837Y-111148609D01*
X206284837Y-111148609D02*
X206284837Y-111672419D01*
X206951504Y-110672419D02*
X207046742Y-110672419D01*
X207046742Y-110672419D02*
X207141980Y-110720038D01*
X207141980Y-110720038D02*
X207189599Y-110767657D01*
X207189599Y-110767657D02*
X207237218Y-110862895D01*
X207237218Y-110862895D02*
X207284837Y-111053371D01*
X207284837Y-111053371D02*
X207284837Y-111291466D01*
X207284837Y-111291466D02*
X207237218Y-111481942D01*
X207237218Y-111481942D02*
X207189599Y-111577180D01*
X207189599Y-111577180D02*
X207141980Y-111624800D01*
X207141980Y-111624800D02*
X207046742Y-111672419D01*
X207046742Y-111672419D02*
X206951504Y-111672419D01*
X206951504Y-111672419D02*
X206856266Y-111624800D01*
X206856266Y-111624800D02*
X206808647Y-111577180D01*
X206808647Y-111577180D02*
X206761028Y-111481942D01*
X206761028Y-111481942D02*
X206713409Y-111291466D01*
X206713409Y-111291466D02*
X206713409Y-111053371D01*
X206713409Y-111053371D02*
X206761028Y-110862895D01*
X206761028Y-110862895D02*
X206808647Y-110767657D01*
X206808647Y-110767657D02*
X206856266Y-110720038D01*
X206856266Y-110720038D02*
X206951504Y-110672419D01*
X207618171Y-111005752D02*
X207808647Y-111672419D01*
X207808647Y-111672419D02*
X207999123Y-111196228D01*
X207999123Y-111196228D02*
X208189599Y-111672419D01*
X208189599Y-111672419D02*
X208380075Y-111005752D01*
X208903885Y-111672419D02*
X208808647Y-111624800D01*
X208808647Y-111624800D02*
X208761028Y-111529561D01*
X208761028Y-111529561D02*
X208761028Y-110672419D01*
X209189600Y-110672419D02*
X209808647Y-110672419D01*
X209808647Y-110672419D02*
X209475314Y-111053371D01*
X209475314Y-111053371D02*
X209618171Y-111053371D01*
X209618171Y-111053371D02*
X209713409Y-111100990D01*
X209713409Y-111100990D02*
X209761028Y-111148609D01*
X209761028Y-111148609D02*
X209808647Y-111243847D01*
X209808647Y-111243847D02*
X209808647Y-111481942D01*
X209808647Y-111481942D02*
X209761028Y-111577180D01*
X209761028Y-111577180D02*
X209713409Y-111624800D01*
X209713409Y-111624800D02*
X209618171Y-111672419D01*
X209618171Y-111672419D02*
X209332457Y-111672419D01*
X209332457Y-111672419D02*
X209237219Y-111624800D01*
X209237219Y-111624800D02*
X209189600Y-111577180D01*
X210141981Y-111005752D02*
X210665790Y-111005752D01*
X210665790Y-111005752D02*
X210141981Y-111672419D01*
X210141981Y-111672419D02*
X210665790Y-111672419D01*
D11*
X198483520Y-108447000D02*
X198388282Y-108542238D01*
X198388282Y-108542238D02*
X198197806Y-108542238D01*
X198197806Y-108542238D02*
X198102568Y-108447000D01*
X198102568Y-108447000D02*
X198054949Y-108256523D01*
X198054949Y-108256523D02*
X198054949Y-107494619D01*
X198054949Y-107494619D02*
X198102568Y-107304142D01*
X198102568Y-107304142D02*
X198197806Y-107208904D01*
X198197806Y-107208904D02*
X198388282Y-107208904D01*
X198388282Y-107208904D02*
X198483520Y-107304142D01*
X198483520Y-107304142D02*
X198531139Y-107494619D01*
X198531139Y-107494619D02*
X198531139Y-107685095D01*
X198531139Y-107685095D02*
X198054949Y-107875571D01*
X199388282Y-108542238D02*
X199388282Y-107494619D01*
X199388282Y-107494619D02*
X199340663Y-107304142D01*
X199340663Y-107304142D02*
X199245425Y-107208904D01*
X199245425Y-107208904D02*
X199054949Y-107208904D01*
X199054949Y-107208904D02*
X198959711Y-107304142D01*
X199388282Y-108447000D02*
X199293044Y-108542238D01*
X199293044Y-108542238D02*
X199054949Y-108542238D01*
X199054949Y-108542238D02*
X198959711Y-108447000D01*
X198959711Y-108447000D02*
X198912092Y-108256523D01*
X198912092Y-108256523D02*
X198912092Y-108066047D01*
X198912092Y-108066047D02*
X198959711Y-107875571D01*
X198959711Y-107875571D02*
X199054949Y-107780333D01*
X199054949Y-107780333D02*
X199293044Y-107780333D01*
X199293044Y-107780333D02*
X199388282Y-107685095D01*
X199769235Y-107208904D02*
X200007330Y-108542238D01*
X200007330Y-108542238D02*
X200245425Y-107208904D01*
X201007330Y-108447000D02*
X200912092Y-108542238D01*
X200912092Y-108542238D02*
X200721616Y-108542238D01*
X200721616Y-108542238D02*
X200626378Y-108447000D01*
X200626378Y-108447000D02*
X200578759Y-108256523D01*
X200578759Y-108256523D02*
X200578759Y-107494619D01*
X200578759Y-107494619D02*
X200626378Y-107304142D01*
X200626378Y-107304142D02*
X200721616Y-107208904D01*
X200721616Y-107208904D02*
X200912092Y-107208904D01*
X200912092Y-107208904D02*
X201007330Y-107304142D01*
X201007330Y-107304142D02*
X201054949Y-107494619D01*
X201054949Y-107494619D02*
X201054949Y-107685095D01*
X201054949Y-107685095D02*
X200578759Y-107875571D01*
X201435902Y-108447000D02*
X201531140Y-108542238D01*
X201531140Y-108542238D02*
X201721616Y-108542238D01*
X201721616Y-108542238D02*
X201816854Y-108447000D01*
X201816854Y-108447000D02*
X201864473Y-108256523D01*
X201864473Y-108256523D02*
X201864473Y-108161285D01*
X201864473Y-108161285D02*
X201816854Y-107970809D01*
X201816854Y-107970809D02*
X201721616Y-107875571D01*
X201721616Y-107875571D02*
X201578759Y-107875571D01*
X201578759Y-107875571D02*
X201483521Y-107780333D01*
X201483521Y-107780333D02*
X201435902Y-107589857D01*
X201435902Y-107589857D02*
X201435902Y-107494619D01*
X201435902Y-107494619D02*
X201483521Y-107304142D01*
X201483521Y-107304142D02*
X201578759Y-107208904D01*
X201578759Y-107208904D02*
X201721616Y-107208904D01*
X201721616Y-107208904D02*
X201816854Y-107304142D01*
X202721616Y-108542238D02*
X202721616Y-106542238D01*
X202721616Y-108447000D02*
X202626378Y-108542238D01*
X202626378Y-108542238D02*
X202435902Y-108542238D01*
X202435902Y-108542238D02*
X202340664Y-108447000D01*
X202340664Y-108447000D02*
X202293045Y-108351761D01*
X202293045Y-108351761D02*
X202245426Y-108161285D01*
X202245426Y-108161285D02*
X202245426Y-107589857D01*
X202245426Y-107589857D02*
X202293045Y-107399380D01*
X202293045Y-107399380D02*
X202340664Y-107304142D01*
X202340664Y-107304142D02*
X202435902Y-107208904D01*
X202435902Y-107208904D02*
X202626378Y-107208904D01*
X202626378Y-107208904D02*
X202721616Y-107304142D01*
X203197807Y-108542238D02*
X203197807Y-107208904D01*
X203197807Y-107589857D02*
X203245426Y-107399380D01*
X203245426Y-107399380D02*
X203293045Y-107304142D01*
X203293045Y-107304142D02*
X203388283Y-107208904D01*
X203388283Y-107208904D02*
X203483521Y-107208904D01*
X203959712Y-108542238D02*
X203864474Y-108447000D01*
X203864474Y-108447000D02*
X203816855Y-108351761D01*
X203816855Y-108351761D02*
X203769236Y-108161285D01*
X203769236Y-108161285D02*
X203769236Y-107589857D01*
X203769236Y-107589857D02*
X203816855Y-107399380D01*
X203816855Y-107399380D02*
X203864474Y-107304142D01*
X203864474Y-107304142D02*
X203959712Y-107208904D01*
X203959712Y-107208904D02*
X204102569Y-107208904D01*
X204102569Y-107208904D02*
X204197807Y-107304142D01*
X204197807Y-107304142D02*
X204245426Y-107399380D01*
X204245426Y-107399380D02*
X204293045Y-107589857D01*
X204293045Y-107589857D02*
X204293045Y-108161285D01*
X204293045Y-108161285D02*
X204245426Y-108351761D01*
X204245426Y-108351761D02*
X204197807Y-108447000D01*
X204197807Y-108447000D02*
X204102569Y-108542238D01*
X204102569Y-108542238D02*
X203959712Y-108542238D01*
X204721617Y-107208904D02*
X204721617Y-109208904D01*
X204721617Y-107304142D02*
X204816855Y-107208904D01*
X204816855Y-107208904D02*
X205007331Y-107208904D01*
X205007331Y-107208904D02*
X205102569Y-107304142D01*
X205102569Y-107304142D02*
X205150188Y-107399380D01*
X205150188Y-107399380D02*
X205197807Y-107589857D01*
X205197807Y-107589857D02*
X205197807Y-108161285D01*
X205197807Y-108161285D02*
X205150188Y-108351761D01*
X205150188Y-108351761D02*
X205102569Y-108447000D01*
X205102569Y-108447000D02*
X205007331Y-108542238D01*
X205007331Y-108542238D02*
X204816855Y-108542238D01*
X204816855Y-108542238D02*
X204721617Y-108447000D01*
X205626379Y-107208904D02*
X205626379Y-109208904D01*
X205626379Y-107304142D02*
X205721617Y-107208904D01*
X205721617Y-107208904D02*
X205912093Y-107208904D01*
X205912093Y-107208904D02*
X206007331Y-107304142D01*
X206007331Y-107304142D02*
X206054950Y-107399380D01*
X206054950Y-107399380D02*
X206102569Y-107589857D01*
X206102569Y-107589857D02*
X206102569Y-108161285D01*
X206102569Y-108161285D02*
X206054950Y-108351761D01*
X206054950Y-108351761D02*
X206007331Y-108447000D01*
X206007331Y-108447000D02*
X205912093Y-108542238D01*
X205912093Y-108542238D02*
X205721617Y-108542238D01*
X205721617Y-108542238D02*
X205626379Y-108447000D01*
X206912093Y-108447000D02*
X206816855Y-108542238D01*
X206816855Y-108542238D02*
X206626379Y-108542238D01*
X206626379Y-108542238D02*
X206531141Y-108447000D01*
X206531141Y-108447000D02*
X206483522Y-108256523D01*
X206483522Y-108256523D02*
X206483522Y-107494619D01*
X206483522Y-107494619D02*
X206531141Y-107304142D01*
X206531141Y-107304142D02*
X206626379Y-107208904D01*
X206626379Y-107208904D02*
X206816855Y-107208904D01*
X206816855Y-107208904D02*
X206912093Y-107304142D01*
X206912093Y-107304142D02*
X206959712Y-107494619D01*
X206959712Y-107494619D02*
X206959712Y-107685095D01*
X206959712Y-107685095D02*
X206483522Y-107875571D01*
X207388284Y-108542238D02*
X207388284Y-107208904D01*
X207388284Y-107589857D02*
X207435903Y-107399380D01*
X207435903Y-107399380D02*
X207483522Y-107304142D01*
X207483522Y-107304142D02*
X207578760Y-107208904D01*
X207578760Y-107208904D02*
X207673998Y-107208904D01*
X208007332Y-108351761D02*
X208054951Y-108447000D01*
X208054951Y-108447000D02*
X208007332Y-108542238D01*
X208007332Y-108542238D02*
X207959713Y-108447000D01*
X207959713Y-108447000D02*
X208007332Y-108351761D01*
X208007332Y-108351761D02*
X208007332Y-108542238D01*
X208912093Y-108542238D02*
X208912093Y-106542238D01*
X208912093Y-108447000D02*
X208816855Y-108542238D01*
X208816855Y-108542238D02*
X208626379Y-108542238D01*
X208626379Y-108542238D02*
X208531141Y-108447000D01*
X208531141Y-108447000D02*
X208483522Y-108351761D01*
X208483522Y-108351761D02*
X208435903Y-108161285D01*
X208435903Y-108161285D02*
X208435903Y-107589857D01*
X208435903Y-107589857D02*
X208483522Y-107399380D01*
X208483522Y-107399380D02*
X208531141Y-107304142D01*
X208531141Y-107304142D02*
X208626379Y-107208904D01*
X208626379Y-107208904D02*
X208816855Y-107208904D01*
X208816855Y-107208904D02*
X208912093Y-107304142D01*
X209769236Y-108447000D02*
X209673998Y-108542238D01*
X209673998Y-108542238D02*
X209483522Y-108542238D01*
X209483522Y-108542238D02*
X209388284Y-108447000D01*
X209388284Y-108447000D02*
X209340665Y-108256523D01*
X209340665Y-108256523D02*
X209340665Y-107494619D01*
X209340665Y-107494619D02*
X209388284Y-107304142D01*
X209388284Y-107304142D02*
X209483522Y-107208904D01*
X209483522Y-107208904D02*
X209673998Y-107208904D01*
X209673998Y-107208904D02*
X209769236Y-107304142D01*
X209769236Y-107304142D02*
X209816855Y-107494619D01*
X209816855Y-107494619D02*
X209816855Y-107685095D01*
X209816855Y-107685095D02*
X209340665Y-107875571D01*
X210150189Y-107208904D02*
X210388284Y-108542238D01*
X210388284Y-108542238D02*
X210626379Y-107208904D01*
D12*
X167491728Y-102134438D02*
X168206014Y-104134438D01*
X168206014Y-104134438D02*
X168777442Y-102705866D01*
X168777442Y-102705866D02*
X169348871Y-104134438D01*
X169348871Y-104134438D02*
X170063157Y-102134438D01*
X171206013Y-104134438D02*
X171206013Y-102801104D01*
X171206013Y-102134438D02*
X171063156Y-102229676D01*
X171063156Y-102229676D02*
X171206013Y-102324914D01*
X171206013Y-102324914D02*
X171348870Y-102229676D01*
X171348870Y-102229676D02*
X171206013Y-102134438D01*
X171206013Y-102134438D02*
X171206013Y-102324914D01*
X173634584Y-103086819D02*
X172634584Y-103086819D01*
X172634584Y-104134438D02*
X172634584Y-102134438D01*
X172634584Y-102134438D02*
X174063156Y-102134438D01*
X175206013Y-104134438D02*
X175206013Y-102801104D01*
X175206013Y-102134438D02*
X175063156Y-102229676D01*
X175063156Y-102229676D02*
X175206013Y-102324914D01*
X175206013Y-102324914D02*
X175348870Y-102229676D01*
X175348870Y-102229676D02*
X175206013Y-102134438D01*
X175206013Y-102134438D02*
X175206013Y-102324914D01*
X179920298Y-103086819D02*
X178920298Y-103086819D01*
X178920298Y-104134438D02*
X178920298Y-102134438D01*
X178920298Y-102134438D02*
X180348870Y-102134438D01*
X181491727Y-104134438D02*
X181491727Y-102801104D01*
X181491727Y-103182057D02*
X181634584Y-102991580D01*
X181634584Y-102991580D02*
X181777442Y-102896342D01*
X181777442Y-102896342D02*
X182063156Y-102801104D01*
X182063156Y-102801104D02*
X182348870Y-102801104D01*
X184634585Y-104134438D02*
X184634585Y-103086819D01*
X184634585Y-103086819D02*
X184491727Y-102896342D01*
X184491727Y-102896342D02*
X184206013Y-102801104D01*
X184206013Y-102801104D02*
X183634585Y-102801104D01*
X183634585Y-102801104D02*
X183348870Y-102896342D01*
X184634585Y-104039200D02*
X184348870Y-104134438D01*
X184348870Y-104134438D02*
X183634585Y-104134438D01*
X183634585Y-104134438D02*
X183348870Y-104039200D01*
X183348870Y-104039200D02*
X183206013Y-103848723D01*
X183206013Y-103848723D02*
X183206013Y-103658247D01*
X183206013Y-103658247D02*
X183348870Y-103467771D01*
X183348870Y-103467771D02*
X183634585Y-103372533D01*
X183634585Y-103372533D02*
X184348870Y-103372533D01*
X184348870Y-103372533D02*
X184634585Y-103277295D01*
X187348871Y-102801104D02*
X187348871Y-104134438D01*
X186063156Y-102801104D02*
X186063156Y-103848723D01*
X186063156Y-103848723D02*
X186206013Y-104039200D01*
X186206013Y-104039200D02*
X186491728Y-104134438D01*
X186491728Y-104134438D02*
X186920299Y-104134438D01*
X186920299Y-104134438D02*
X187206013Y-104039200D01*
X187206013Y-104039200D02*
X187348871Y-103943961D01*
X190063157Y-104134438D02*
X190063157Y-102134438D01*
X190063157Y-104039200D02*
X189777442Y-104134438D01*
X189777442Y-104134438D02*
X189206014Y-104134438D01*
X189206014Y-104134438D02*
X188920299Y-104039200D01*
X188920299Y-104039200D02*
X188777442Y-103943961D01*
X188777442Y-103943961D02*
X188634585Y-103753485D01*
X188634585Y-103753485D02*
X188634585Y-103182057D01*
X188634585Y-103182057D02*
X188777442Y-102991580D01*
X188777442Y-102991580D02*
X188920299Y-102896342D01*
X188920299Y-102896342D02*
X189206014Y-102801104D01*
X189206014Y-102801104D02*
X189777442Y-102801104D01*
X189777442Y-102801104D02*
X190063157Y-102896342D01*
X192634585Y-104039200D02*
X192348871Y-104134438D01*
X192348871Y-104134438D02*
X191777443Y-104134438D01*
X191777443Y-104134438D02*
X191491728Y-104039200D01*
X191491728Y-104039200D02*
X191348871Y-103848723D01*
X191348871Y-103848723D02*
X191348871Y-103086819D01*
X191348871Y-103086819D02*
X191491728Y-102896342D01*
X191491728Y-102896342D02*
X191777443Y-102801104D01*
X191777443Y-102801104D02*
X192348871Y-102801104D01*
X192348871Y-102801104D02*
X192634585Y-102896342D01*
X192634585Y-102896342D02*
X192777443Y-103086819D01*
X192777443Y-103086819D02*
X192777443Y-103277295D01*
X192777443Y-103277295D02*
X191348871Y-103467771D01*
X194063157Y-104134438D02*
X194063157Y-102801104D01*
X194063157Y-103182057D02*
X194206014Y-102991580D01*
X194206014Y-102991580D02*
X194348872Y-102896342D01*
X194348872Y-102896342D02*
X194634586Y-102801104D01*
X194634586Y-102801104D02*
X194920300Y-102801104D01*
X199920300Y-104134438D02*
X198920300Y-103182057D01*
X198206014Y-104134438D02*
X198206014Y-102134438D01*
X198206014Y-102134438D02*
X199348871Y-102134438D01*
X199348871Y-102134438D02*
X199634586Y-102229676D01*
X199634586Y-102229676D02*
X199777443Y-102324914D01*
X199777443Y-102324914D02*
X199920300Y-102515390D01*
X199920300Y-102515390D02*
X199920300Y-102801104D01*
X199920300Y-102801104D02*
X199777443Y-102991580D01*
X199777443Y-102991580D02*
X199634586Y-103086819D01*
X199634586Y-103086819D02*
X199348871Y-103182057D01*
X199348871Y-103182057D02*
X198206014Y-103182057D01*
X201206014Y-103086819D02*
X202206014Y-103086819D01*
X202634586Y-104134438D02*
X201206014Y-104134438D01*
X201206014Y-104134438D02*
X201206014Y-102134438D01*
X201206014Y-102134438D02*
X202634586Y-102134438D01*
X203491729Y-102134438D02*
X204491729Y-104134438D01*
X204491729Y-104134438D02*
X205491729Y-102134438D01*
X209348872Y-102134438D02*
X209634586Y-102134438D01*
X209634586Y-102134438D02*
X209920300Y-102229676D01*
X209920300Y-102229676D02*
X210063158Y-102324914D01*
X210063158Y-102324914D02*
X210206015Y-102515390D01*
X210206015Y-102515390D02*
X210348872Y-102896342D01*
X210348872Y-102896342D02*
X210348872Y-103372533D01*
X210348872Y-103372533D02*
X210206015Y-103753485D01*
X210206015Y-103753485D02*
X210063158Y-103943961D01*
X210063158Y-103943961D02*
X209920300Y-104039200D01*
X209920300Y-104039200D02*
X209634586Y-104134438D01*
X209634586Y-104134438D02*
X209348872Y-104134438D01*
X209348872Y-104134438D02*
X209063158Y-104039200D01*
X209063158Y-104039200D02*
X208920300Y-103943961D01*
X208920300Y-103943961D02*
X208777443Y-103753485D01*
X208777443Y-103753485D02*
X208634586Y-103372533D01*
X208634586Y-103372533D02*
X208634586Y-102896342D01*
X208634586Y-102896342D02*
X208777443Y-102515390D01*
X208777443Y-102515390D02*
X208920300Y-102324914D01*
X208920300Y-102324914D02*
X209063158Y-102229676D01*
X209063158Y-102229676D02*
X209348872Y-102134438D01*
D13*
X153983333Y-104534819D02*
X153650000Y-104058628D01*
X153411905Y-104534819D02*
X153411905Y-103534819D01*
X153411905Y-103534819D02*
X153792857Y-103534819D01*
X153792857Y-103534819D02*
X153888095Y-103582438D01*
X153888095Y-103582438D02*
X153935714Y-103630057D01*
X153935714Y-103630057D02*
X153983333Y-103725295D01*
X153983333Y-103725295D02*
X153983333Y-103868152D01*
X153983333Y-103868152D02*
X153935714Y-103963390D01*
X153935714Y-103963390D02*
X153888095Y-104011009D01*
X153888095Y-104011009D02*
X153792857Y-104058628D01*
X153792857Y-104058628D02*
X153411905Y-104058628D01*
X154364286Y-103630057D02*
X154411905Y-103582438D01*
X154411905Y-103582438D02*
X154507143Y-103534819D01*
X154507143Y-103534819D02*
X154745238Y-103534819D01*
X154745238Y-103534819D02*
X154840476Y-103582438D01*
X154840476Y-103582438D02*
X154888095Y-103630057D01*
X154888095Y-103630057D02*
X154935714Y-103725295D01*
X154935714Y-103725295D02*
X154935714Y-103820533D01*
X154935714Y-103820533D02*
X154888095Y-103963390D01*
X154888095Y-103963390D02*
X154316667Y-104534819D01*
X154316667Y-104534819D02*
X154935714Y-104534819D01*
X126213095Y-66684819D02*
X126213095Y-67494342D01*
X126213095Y-67494342D02*
X126260714Y-67589580D01*
X126260714Y-67589580D02*
X126308333Y-67637200D01*
X126308333Y-67637200D02*
X126403571Y-67684819D01*
X126403571Y-67684819D02*
X126594047Y-67684819D01*
X126594047Y-67684819D02*
X126689285Y-67637200D01*
X126689285Y-67637200D02*
X126736904Y-67589580D01*
X126736904Y-67589580D02*
X126784523Y-67494342D01*
X126784523Y-67494342D02*
X126784523Y-66684819D01*
X127213095Y-66780057D02*
X127260714Y-66732438D01*
X127260714Y-66732438D02*
X127355952Y-66684819D01*
X127355952Y-66684819D02*
X127594047Y-66684819D01*
X127594047Y-66684819D02*
X127689285Y-66732438D01*
X127689285Y-66732438D02*
X127736904Y-66780057D01*
X127736904Y-66780057D02*
X127784523Y-66875295D01*
X127784523Y-66875295D02*
X127784523Y-66970533D01*
X127784523Y-66970533D02*
X127736904Y-67113390D01*
X127736904Y-67113390D02*
X127165476Y-67684819D01*
X127165476Y-67684819D02*
X127784523Y-67684819D01*
X144666667Y-101257200D02*
X144809524Y-101304819D01*
X144809524Y-101304819D02*
X145047619Y-101304819D01*
X145047619Y-101304819D02*
X145142857Y-101257200D01*
X145142857Y-101257200D02*
X145190476Y-101209580D01*
X145190476Y-101209580D02*
X145238095Y-101114342D01*
X145238095Y-101114342D02*
X145238095Y-101019104D01*
X145238095Y-101019104D02*
X145190476Y-100923866D01*
X145190476Y-100923866D02*
X145142857Y-100876247D01*
X145142857Y-100876247D02*
X145047619Y-100828628D01*
X145047619Y-100828628D02*
X144857143Y-100781009D01*
X144857143Y-100781009D02*
X144761905Y-100733390D01*
X144761905Y-100733390D02*
X144714286Y-100685771D01*
X144714286Y-100685771D02*
X144666667Y-100590533D01*
X144666667Y-100590533D02*
X144666667Y-100495295D01*
X144666667Y-100495295D02*
X144714286Y-100400057D01*
X144714286Y-100400057D02*
X144761905Y-100352438D01*
X144761905Y-100352438D02*
X144857143Y-100304819D01*
X144857143Y-100304819D02*
X145095238Y-100304819D01*
X145095238Y-100304819D02*
X145238095Y-100352438D01*
X145571429Y-100304819D02*
X145809524Y-101304819D01*
X145809524Y-101304819D02*
X146000000Y-100590533D01*
X146000000Y-100590533D02*
X146190476Y-101304819D01*
X146190476Y-101304819D02*
X146428572Y-100304819D01*
X146761905Y-100400057D02*
X146809524Y-100352438D01*
X146809524Y-100352438D02*
X146904762Y-100304819D01*
X146904762Y-100304819D02*
X147142857Y-100304819D01*
X147142857Y-100304819D02*
X147238095Y-100352438D01*
X147238095Y-100352438D02*
X147285714Y-100400057D01*
X147285714Y-100400057D02*
X147333333Y-100495295D01*
X147333333Y-100495295D02*
X147333333Y-100590533D01*
X147333333Y-100590533D02*
X147285714Y-100733390D01*
X147285714Y-100733390D02*
X146714286Y-101304819D01*
X146714286Y-101304819D02*
X147333333Y-101304819D01*
X135566667Y-113257200D02*
X135709524Y-113304819D01*
X135709524Y-113304819D02*
X135947619Y-113304819D01*
X135947619Y-113304819D02*
X136042857Y-113257200D01*
X136042857Y-113257200D02*
X136090476Y-113209580D01*
X136090476Y-113209580D02*
X136138095Y-113114342D01*
X136138095Y-113114342D02*
X136138095Y-113019104D01*
X136138095Y-113019104D02*
X136090476Y-112923866D01*
X136090476Y-112923866D02*
X136042857Y-112876247D01*
X136042857Y-112876247D02*
X135947619Y-112828628D01*
X135947619Y-112828628D02*
X135757143Y-112781009D01*
X135757143Y-112781009D02*
X135661905Y-112733390D01*
X135661905Y-112733390D02*
X135614286Y-112685771D01*
X135614286Y-112685771D02*
X135566667Y-112590533D01*
X135566667Y-112590533D02*
X135566667Y-112495295D01*
X135566667Y-112495295D02*
X135614286Y-112400057D01*
X135614286Y-112400057D02*
X135661905Y-112352438D01*
X135661905Y-112352438D02*
X135757143Y-112304819D01*
X135757143Y-112304819D02*
X135995238Y-112304819D01*
X135995238Y-112304819D02*
X136138095Y-112352438D01*
X136471429Y-112304819D02*
X136709524Y-113304819D01*
X136709524Y-113304819D02*
X136900000Y-112590533D01*
X136900000Y-112590533D02*
X137090476Y-113304819D01*
X137090476Y-113304819D02*
X137328572Y-112304819D01*
X137614286Y-112304819D02*
X138233333Y-112304819D01*
X138233333Y-112304819D02*
X137900000Y-112685771D01*
X137900000Y-112685771D02*
X138042857Y-112685771D01*
X138042857Y-112685771D02*
X138138095Y-112733390D01*
X138138095Y-112733390D02*
X138185714Y-112781009D01*
X138185714Y-112781009D02*
X138233333Y-112876247D01*
X138233333Y-112876247D02*
X138233333Y-113114342D01*
X138233333Y-113114342D02*
X138185714Y-113209580D01*
X138185714Y-113209580D02*
X138138095Y-113257200D01*
X138138095Y-113257200D02*
X138042857Y-113304819D01*
X138042857Y-113304819D02*
X137757143Y-113304819D01*
X137757143Y-113304819D02*
X137661905Y-113257200D01*
X137661905Y-113257200D02*
X137614286Y-113209580D01*
D14*
X187878572Y-111749757D02*
X187735715Y-111678328D01*
X187735715Y-111678328D02*
X187521429Y-111678328D01*
X187521429Y-111678328D02*
X187307143Y-111749757D01*
X187307143Y-111749757D02*
X187164286Y-111892614D01*
X187164286Y-111892614D02*
X187092857Y-112035471D01*
X187092857Y-112035471D02*
X187021429Y-112321185D01*
X187021429Y-112321185D02*
X187021429Y-112535471D01*
X187021429Y-112535471D02*
X187092857Y-112821185D01*
X187092857Y-112821185D02*
X187164286Y-112964042D01*
X187164286Y-112964042D02*
X187307143Y-113106900D01*
X187307143Y-113106900D02*
X187521429Y-113178328D01*
X187521429Y-113178328D02*
X187664286Y-113178328D01*
X187664286Y-113178328D02*
X187878572Y-113106900D01*
X187878572Y-113106900D02*
X187950000Y-113035471D01*
X187950000Y-113035471D02*
X187950000Y-112535471D01*
X187950000Y-112535471D02*
X187664286Y-112535471D01*
X188807143Y-111678328D02*
X188807143Y-112035471D01*
X188450000Y-111892614D02*
X188807143Y-112035471D01*
X188807143Y-112035471D02*
X189164286Y-111892614D01*
X188592857Y-112321185D02*
X188807143Y-112035471D01*
X188807143Y-112035471D02*
X189021429Y-112321185D01*
X189950000Y-111678328D02*
X189950000Y-112035471D01*
X189592857Y-111892614D02*
X189950000Y-112035471D01*
X189950000Y-112035471D02*
X190307143Y-111892614D01*
X189735714Y-112321185D02*
X189950000Y-112035471D01*
X189950000Y-112035471D02*
X190164286Y-112321185D01*
X191092857Y-111678328D02*
X191092857Y-112035471D01*
X190735714Y-111892614D02*
X191092857Y-112035471D01*
X191092857Y-112035471D02*
X191450000Y-111892614D01*
X190878571Y-112321185D02*
X191092857Y-112035471D01*
X191092857Y-112035471D02*
X191307143Y-112321185D01*
D13*
X157594819Y-82761904D02*
X158404342Y-82761904D01*
X158404342Y-82761904D02*
X158499580Y-82714285D01*
X158499580Y-82714285D02*
X158547200Y-82666666D01*
X158547200Y-82666666D02*
X158594819Y-82571428D01*
X158594819Y-82571428D02*
X158594819Y-82380952D01*
X158594819Y-82380952D02*
X158547200Y-82285714D01*
X158547200Y-82285714D02*
X158499580Y-82238095D01*
X158499580Y-82238095D02*
X158404342Y-82190476D01*
X158404342Y-82190476D02*
X157594819Y-82190476D01*
X158594819Y-81190476D02*
X158594819Y-81761904D01*
X158594819Y-81476190D02*
X157594819Y-81476190D01*
X157594819Y-81476190D02*
X157737676Y-81571428D01*
X157737676Y-81571428D02*
X157832914Y-81666666D01*
X157832914Y-81666666D02*
X157880533Y-81761904D01*
X178774762Y-81931009D02*
X179108095Y-81931009D01*
X179250952Y-82454819D02*
X178774762Y-82454819D01*
X178774762Y-82454819D02*
X178774762Y-81454819D01*
X178774762Y-81454819D02*
X179250952Y-81454819D01*
X179631905Y-82407200D02*
X179774762Y-82454819D01*
X179774762Y-82454819D02*
X180012857Y-82454819D01*
X180012857Y-82454819D02*
X180108095Y-82407200D01*
X180108095Y-82407200D02*
X180155714Y-82359580D01*
X180155714Y-82359580D02*
X180203333Y-82264342D01*
X180203333Y-82264342D02*
X180203333Y-82169104D01*
X180203333Y-82169104D02*
X180155714Y-82073866D01*
X180155714Y-82073866D02*
X180108095Y-82026247D01*
X180108095Y-82026247D02*
X180012857Y-81978628D01*
X180012857Y-81978628D02*
X179822381Y-81931009D01*
X179822381Y-81931009D02*
X179727143Y-81883390D01*
X179727143Y-81883390D02*
X179679524Y-81835771D01*
X179679524Y-81835771D02*
X179631905Y-81740533D01*
X179631905Y-81740533D02*
X179631905Y-81645295D01*
X179631905Y-81645295D02*
X179679524Y-81550057D01*
X179679524Y-81550057D02*
X179727143Y-81502438D01*
X179727143Y-81502438D02*
X179822381Y-81454819D01*
X179822381Y-81454819D02*
X180060476Y-81454819D01*
X180060476Y-81454819D02*
X180203333Y-81502438D01*
X180631905Y-82454819D02*
X180631905Y-81454819D01*
X180631905Y-81454819D02*
X181012857Y-81454819D01*
X181012857Y-81454819D02*
X181108095Y-81502438D01*
X181108095Y-81502438D02*
X181155714Y-81550057D01*
X181155714Y-81550057D02*
X181203333Y-81645295D01*
X181203333Y-81645295D02*
X181203333Y-81788152D01*
X181203333Y-81788152D02*
X181155714Y-81883390D01*
X181155714Y-81883390D02*
X181108095Y-81931009D01*
X181108095Y-81931009D02*
X181012857Y-81978628D01*
X181012857Y-81978628D02*
X180631905Y-81978628D01*
X181536667Y-81454819D02*
X182155714Y-81454819D01*
X182155714Y-81454819D02*
X181822381Y-81835771D01*
X181822381Y-81835771D02*
X181965238Y-81835771D01*
X181965238Y-81835771D02*
X182060476Y-81883390D01*
X182060476Y-81883390D02*
X182108095Y-81931009D01*
X182108095Y-81931009D02*
X182155714Y-82026247D01*
X182155714Y-82026247D02*
X182155714Y-82264342D01*
X182155714Y-82264342D02*
X182108095Y-82359580D01*
X182108095Y-82359580D02*
X182060476Y-82407200D01*
X182060476Y-82407200D02*
X181965238Y-82454819D01*
X181965238Y-82454819D02*
X181679524Y-82454819D01*
X181679524Y-82454819D02*
X181584286Y-82407200D01*
X181584286Y-82407200D02*
X181536667Y-82359580D01*
X182536667Y-81550057D02*
X182584286Y-81502438D01*
X182584286Y-81502438D02*
X182679524Y-81454819D01*
X182679524Y-81454819D02*
X182917619Y-81454819D01*
X182917619Y-81454819D02*
X183012857Y-81502438D01*
X183012857Y-81502438D02*
X183060476Y-81550057D01*
X183060476Y-81550057D02*
X183108095Y-81645295D01*
X183108095Y-81645295D02*
X183108095Y-81740533D01*
X183108095Y-81740533D02*
X183060476Y-81883390D01*
X183060476Y-81883390D02*
X182489048Y-82454819D01*
X182489048Y-82454819D02*
X183108095Y-82454819D01*
X183536667Y-82073866D02*
X184298572Y-82073866D01*
X184774762Y-82454819D02*
X184774762Y-81454819D01*
X184774762Y-81454819D02*
X185012857Y-81454819D01*
X185012857Y-81454819D02*
X185155714Y-81502438D01*
X185155714Y-81502438D02*
X185250952Y-81597676D01*
X185250952Y-81597676D02*
X185298571Y-81692914D01*
X185298571Y-81692914D02*
X185346190Y-81883390D01*
X185346190Y-81883390D02*
X185346190Y-82026247D01*
X185346190Y-82026247D02*
X185298571Y-82216723D01*
X185298571Y-82216723D02*
X185250952Y-82311961D01*
X185250952Y-82311961D02*
X185155714Y-82407200D01*
X185155714Y-82407200D02*
X185012857Y-82454819D01*
X185012857Y-82454819D02*
X184774762Y-82454819D01*
X186155714Y-82407200D02*
X186060476Y-82454819D01*
X186060476Y-82454819D02*
X185870000Y-82454819D01*
X185870000Y-82454819D02*
X185774762Y-82407200D01*
X185774762Y-82407200D02*
X185727143Y-82311961D01*
X185727143Y-82311961D02*
X185727143Y-81931009D01*
X185727143Y-81931009D02*
X185774762Y-81835771D01*
X185774762Y-81835771D02*
X185870000Y-81788152D01*
X185870000Y-81788152D02*
X186060476Y-81788152D01*
X186060476Y-81788152D02*
X186155714Y-81835771D01*
X186155714Y-81835771D02*
X186203333Y-81931009D01*
X186203333Y-81931009D02*
X186203333Y-82026247D01*
X186203333Y-82026247D02*
X185727143Y-82121485D01*
X186536667Y-81788152D02*
X186774762Y-82454819D01*
X186774762Y-82454819D02*
X187012857Y-81788152D01*
X187393810Y-82454819D02*
X187393810Y-81454819D01*
X187965238Y-82454819D02*
X187536667Y-81883390D01*
X187965238Y-81454819D02*
X187393810Y-82026247D01*
X188393810Y-82454819D02*
X188393810Y-81788152D01*
X188393810Y-81454819D02*
X188346191Y-81502438D01*
X188346191Y-81502438D02*
X188393810Y-81550057D01*
X188393810Y-81550057D02*
X188441429Y-81502438D01*
X188441429Y-81502438D02*
X188393810Y-81454819D01*
X188393810Y-81454819D02*
X188393810Y-81550057D01*
X188727143Y-81788152D02*
X189108095Y-81788152D01*
X188870000Y-81454819D02*
X188870000Y-82311961D01*
X188870000Y-82311961D02*
X188917619Y-82407200D01*
X188917619Y-82407200D02*
X189012857Y-82454819D01*
X189012857Y-82454819D02*
X189108095Y-82454819D01*
X190012857Y-82359580D02*
X189965238Y-82407200D01*
X189965238Y-82407200D02*
X189822381Y-82454819D01*
X189822381Y-82454819D02*
X189727143Y-82454819D01*
X189727143Y-82454819D02*
X189584286Y-82407200D01*
X189584286Y-82407200D02*
X189489048Y-82311961D01*
X189489048Y-82311961D02*
X189441429Y-82216723D01*
X189441429Y-82216723D02*
X189393810Y-82026247D01*
X189393810Y-82026247D02*
X189393810Y-81883390D01*
X189393810Y-81883390D02*
X189441429Y-81692914D01*
X189441429Y-81692914D02*
X189489048Y-81597676D01*
X189489048Y-81597676D02*
X189584286Y-81502438D01*
X189584286Y-81502438D02*
X189727143Y-81454819D01*
X189727143Y-81454819D02*
X189822381Y-81454819D01*
X189822381Y-81454819D02*
X189965238Y-81502438D01*
X189965238Y-81502438D02*
X190012857Y-81550057D01*
X203736033Y-71868684D02*
X203036033Y-71868684D01*
X203036033Y-71868684D02*
X203036033Y-71702017D01*
X203036033Y-71702017D02*
X203069366Y-71602017D01*
X203069366Y-71602017D02*
X203136033Y-71535351D01*
X203136033Y-71535351D02*
X203202700Y-71502017D01*
X203202700Y-71502017D02*
X203336033Y-71468684D01*
X203336033Y-71468684D02*
X203436033Y-71468684D01*
X203436033Y-71468684D02*
X203569366Y-71502017D01*
X203569366Y-71502017D02*
X203636033Y-71535351D01*
X203636033Y-71535351D02*
X203702700Y-71602017D01*
X203702700Y-71602017D02*
X203736033Y-71702017D01*
X203736033Y-71702017D02*
X203736033Y-71868684D01*
X203036033Y-71035351D02*
X203036033Y-70968684D01*
X203036033Y-70968684D02*
X203069366Y-70902017D01*
X203069366Y-70902017D02*
X203102700Y-70868684D01*
X203102700Y-70868684D02*
X203169366Y-70835351D01*
X203169366Y-70835351D02*
X203302700Y-70802017D01*
X203302700Y-70802017D02*
X203469366Y-70802017D01*
X203469366Y-70802017D02*
X203602700Y-70835351D01*
X203602700Y-70835351D02*
X203669366Y-70868684D01*
X203669366Y-70868684D02*
X203702700Y-70902017D01*
X203702700Y-70902017D02*
X203736033Y-70968684D01*
X203736033Y-70968684D02*
X203736033Y-71035351D01*
X203736033Y-71035351D02*
X203702700Y-71102017D01*
X203702700Y-71102017D02*
X203669366Y-71135351D01*
X203669366Y-71135351D02*
X203602700Y-71168684D01*
X203602700Y-71168684D02*
X203469366Y-71202017D01*
X203469366Y-71202017D02*
X203302700Y-71202017D01*
X203302700Y-71202017D02*
X203169366Y-71168684D01*
X203169366Y-71168684D02*
X203102700Y-71135351D01*
X203102700Y-71135351D02*
X203069366Y-71102017D01*
X203069366Y-71102017D02*
X203036033Y-71035351D01*
X182749366Y-73268683D02*
X182716033Y-73335350D01*
X182716033Y-73335350D02*
X182716033Y-73435350D01*
X182716033Y-73435350D02*
X182749366Y-73535350D01*
X182749366Y-73535350D02*
X182816033Y-73602017D01*
X182816033Y-73602017D02*
X182882700Y-73635350D01*
X182882700Y-73635350D02*
X183016033Y-73668683D01*
X183016033Y-73668683D02*
X183116033Y-73668683D01*
X183116033Y-73668683D02*
X183249366Y-73635350D01*
X183249366Y-73635350D02*
X183316033Y-73602017D01*
X183316033Y-73602017D02*
X183382700Y-73535350D01*
X183382700Y-73535350D02*
X183416033Y-73435350D01*
X183416033Y-73435350D02*
X183416033Y-73368683D01*
X183416033Y-73368683D02*
X183382700Y-73268683D01*
X183382700Y-73268683D02*
X183349366Y-73235350D01*
X183349366Y-73235350D02*
X183116033Y-73235350D01*
X183116033Y-73235350D02*
X183116033Y-73368683D01*
X183416033Y-72935350D02*
X182716033Y-72935350D01*
X182716033Y-72935350D02*
X182716033Y-72668683D01*
X182716033Y-72668683D02*
X182749366Y-72602017D01*
X182749366Y-72602017D02*
X182782700Y-72568683D01*
X182782700Y-72568683D02*
X182849366Y-72535350D01*
X182849366Y-72535350D02*
X182949366Y-72535350D01*
X182949366Y-72535350D02*
X183016033Y-72568683D01*
X183016033Y-72568683D02*
X183049366Y-72602017D01*
X183049366Y-72602017D02*
X183082700Y-72668683D01*
X183082700Y-72668683D02*
X183082700Y-72935350D01*
X183416033Y-72235350D02*
X182716033Y-72235350D01*
X182716033Y-71768684D02*
X182716033Y-71635350D01*
X182716033Y-71635350D02*
X182749366Y-71568684D01*
X182749366Y-71568684D02*
X182816033Y-71502017D01*
X182816033Y-71502017D02*
X182949366Y-71468684D01*
X182949366Y-71468684D02*
X183182700Y-71468684D01*
X183182700Y-71468684D02*
X183316033Y-71502017D01*
X183316033Y-71502017D02*
X183382700Y-71568684D01*
X183382700Y-71568684D02*
X183416033Y-71635350D01*
X183416033Y-71635350D02*
X183416033Y-71768684D01*
X183416033Y-71768684D02*
X183382700Y-71835350D01*
X183382700Y-71835350D02*
X183316033Y-71902017D01*
X183316033Y-71902017D02*
X183182700Y-71935350D01*
X183182700Y-71935350D02*
X182949366Y-71935350D01*
X182949366Y-71935350D02*
X182816033Y-71902017D01*
X182816033Y-71902017D02*
X182749366Y-71835350D01*
X182749366Y-71835350D02*
X182716033Y-71768684D01*
X182716033Y-70835351D02*
X182716033Y-71168684D01*
X182716033Y-71168684D02*
X183049366Y-71202017D01*
X183049366Y-71202017D02*
X183016033Y-71168684D01*
X183016033Y-71168684D02*
X182982700Y-71102017D01*
X182982700Y-71102017D02*
X182982700Y-70935351D01*
X182982700Y-70935351D02*
X183016033Y-70868684D01*
X183016033Y-70868684D02*
X183049366Y-70835351D01*
X183049366Y-70835351D02*
X183116033Y-70802017D01*
X183116033Y-70802017D02*
X183282700Y-70802017D01*
X183282700Y-70802017D02*
X183349366Y-70835351D01*
X183349366Y-70835351D02*
X183382700Y-70868684D01*
X183382700Y-70868684D02*
X183416033Y-70935351D01*
X183416033Y-70935351D02*
X183416033Y-71102017D01*
X183416033Y-71102017D02*
X183382700Y-71168684D01*
X183382700Y-71168684D02*
X183349366Y-71202017D01*
X201196033Y-93164649D02*
X200496033Y-93164649D01*
X200496033Y-93164649D02*
X200496033Y-92997982D01*
X200496033Y-92997982D02*
X200529366Y-92897982D01*
X200529366Y-92897982D02*
X200596033Y-92831316D01*
X200596033Y-92831316D02*
X200662700Y-92797982D01*
X200662700Y-92797982D02*
X200796033Y-92764649D01*
X200796033Y-92764649D02*
X200896033Y-92764649D01*
X200896033Y-92764649D02*
X201029366Y-92797982D01*
X201029366Y-92797982D02*
X201096033Y-92831316D01*
X201096033Y-92831316D02*
X201162700Y-92897982D01*
X201162700Y-92897982D02*
X201196033Y-92997982D01*
X201196033Y-92997982D02*
X201196033Y-93164649D01*
X200496033Y-92531316D02*
X200496033Y-92097982D01*
X200496033Y-92097982D02*
X200762700Y-92331316D01*
X200762700Y-92331316D02*
X200762700Y-92231316D01*
X200762700Y-92231316D02*
X200796033Y-92164649D01*
X200796033Y-92164649D02*
X200829366Y-92131316D01*
X200829366Y-92131316D02*
X200896033Y-92097982D01*
X200896033Y-92097982D02*
X201062700Y-92097982D01*
X201062700Y-92097982D02*
X201129366Y-92131316D01*
X201129366Y-92131316D02*
X201162700Y-92164649D01*
X201162700Y-92164649D02*
X201196033Y-92231316D01*
X201196033Y-92231316D02*
X201196033Y-92431316D01*
X201196033Y-92431316D02*
X201162700Y-92497982D01*
X201162700Y-92497982D02*
X201129366Y-92531316D01*
X170049366Y-92797982D02*
X170016033Y-92864649D01*
X170016033Y-92864649D02*
X170016033Y-92964649D01*
X170016033Y-92964649D02*
X170049366Y-93064649D01*
X170049366Y-93064649D02*
X170116033Y-93131316D01*
X170116033Y-93131316D02*
X170182700Y-93164649D01*
X170182700Y-93164649D02*
X170316033Y-93197982D01*
X170316033Y-93197982D02*
X170416033Y-93197982D01*
X170416033Y-93197982D02*
X170549366Y-93164649D01*
X170549366Y-93164649D02*
X170616033Y-93131316D01*
X170616033Y-93131316D02*
X170682700Y-93064649D01*
X170682700Y-93064649D02*
X170716033Y-92964649D01*
X170716033Y-92964649D02*
X170716033Y-92897982D01*
X170716033Y-92897982D02*
X170682700Y-92797982D01*
X170682700Y-92797982D02*
X170649366Y-92764649D01*
X170649366Y-92764649D02*
X170416033Y-92764649D01*
X170416033Y-92764649D02*
X170416033Y-92897982D01*
X170716033Y-92464649D02*
X170016033Y-92464649D01*
X170016033Y-92464649D02*
X170016033Y-92197982D01*
X170016033Y-92197982D02*
X170049366Y-92131316D01*
X170049366Y-92131316D02*
X170082700Y-92097982D01*
X170082700Y-92097982D02*
X170149366Y-92064649D01*
X170149366Y-92064649D02*
X170249366Y-92064649D01*
X170249366Y-92064649D02*
X170316033Y-92097982D01*
X170316033Y-92097982D02*
X170349366Y-92131316D01*
X170349366Y-92131316D02*
X170382700Y-92197982D01*
X170382700Y-92197982D02*
X170382700Y-92464649D01*
X170716033Y-91764649D02*
X170016033Y-91764649D01*
X170016033Y-91297983D02*
X170016033Y-91164649D01*
X170016033Y-91164649D02*
X170049366Y-91097983D01*
X170049366Y-91097983D02*
X170116033Y-91031316D01*
X170116033Y-91031316D02*
X170249366Y-90997983D01*
X170249366Y-90997983D02*
X170482700Y-90997983D01*
X170482700Y-90997983D02*
X170616033Y-91031316D01*
X170616033Y-91031316D02*
X170682700Y-91097983D01*
X170682700Y-91097983D02*
X170716033Y-91164649D01*
X170716033Y-91164649D02*
X170716033Y-91297983D01*
X170716033Y-91297983D02*
X170682700Y-91364649D01*
X170682700Y-91364649D02*
X170616033Y-91431316D01*
X170616033Y-91431316D02*
X170482700Y-91464649D01*
X170482700Y-91464649D02*
X170249366Y-91464649D01*
X170249366Y-91464649D02*
X170116033Y-91431316D01*
X170116033Y-91431316D02*
X170049366Y-91364649D01*
X170049366Y-91364649D02*
X170016033Y-91297983D01*
X170016033Y-90764650D02*
X170016033Y-90331316D01*
X170016033Y-90331316D02*
X170282700Y-90564650D01*
X170282700Y-90564650D02*
X170282700Y-90464650D01*
X170282700Y-90464650D02*
X170316033Y-90397983D01*
X170316033Y-90397983D02*
X170349366Y-90364650D01*
X170349366Y-90364650D02*
X170416033Y-90331316D01*
X170416033Y-90331316D02*
X170582700Y-90331316D01*
X170582700Y-90331316D02*
X170649366Y-90364650D01*
X170649366Y-90364650D02*
X170682700Y-90397983D01*
X170682700Y-90397983D02*
X170716033Y-90464650D01*
X170716033Y-90464650D02*
X170716033Y-90664650D01*
X170716033Y-90664650D02*
X170682700Y-90731316D01*
X170682700Y-90731316D02*
X170649366Y-90764650D01*
X170249366Y-89731316D02*
X170716033Y-89731316D01*
X169982700Y-89897983D02*
X170482700Y-90064649D01*
X170482700Y-90064649D02*
X170482700Y-89631316D01*
X187829366Y-92797982D02*
X187796033Y-92864649D01*
X187796033Y-92864649D02*
X187796033Y-92964649D01*
X187796033Y-92964649D02*
X187829366Y-93064649D01*
X187829366Y-93064649D02*
X187896033Y-93131316D01*
X187896033Y-93131316D02*
X187962700Y-93164649D01*
X187962700Y-93164649D02*
X188096033Y-93197982D01*
X188096033Y-93197982D02*
X188196033Y-93197982D01*
X188196033Y-93197982D02*
X188329366Y-93164649D01*
X188329366Y-93164649D02*
X188396033Y-93131316D01*
X188396033Y-93131316D02*
X188462700Y-93064649D01*
X188462700Y-93064649D02*
X188496033Y-92964649D01*
X188496033Y-92964649D02*
X188496033Y-92897982D01*
X188496033Y-92897982D02*
X188462700Y-92797982D01*
X188462700Y-92797982D02*
X188429366Y-92764649D01*
X188429366Y-92764649D02*
X188196033Y-92764649D01*
X188196033Y-92764649D02*
X188196033Y-92897982D01*
X188496033Y-92464649D02*
X187796033Y-92464649D01*
X187796033Y-92464649D02*
X187796033Y-92197982D01*
X187796033Y-92197982D02*
X187829366Y-92131316D01*
X187829366Y-92131316D02*
X187862700Y-92097982D01*
X187862700Y-92097982D02*
X187929366Y-92064649D01*
X187929366Y-92064649D02*
X188029366Y-92064649D01*
X188029366Y-92064649D02*
X188096033Y-92097982D01*
X188096033Y-92097982D02*
X188129366Y-92131316D01*
X188129366Y-92131316D02*
X188162700Y-92197982D01*
X188162700Y-92197982D02*
X188162700Y-92464649D01*
X188496033Y-91764649D02*
X187796033Y-91764649D01*
X187796033Y-91297983D02*
X187796033Y-91164649D01*
X187796033Y-91164649D02*
X187829366Y-91097983D01*
X187829366Y-91097983D02*
X187896033Y-91031316D01*
X187896033Y-91031316D02*
X188029366Y-90997983D01*
X188029366Y-90997983D02*
X188262700Y-90997983D01*
X188262700Y-90997983D02*
X188396033Y-91031316D01*
X188396033Y-91031316D02*
X188462700Y-91097983D01*
X188462700Y-91097983D02*
X188496033Y-91164649D01*
X188496033Y-91164649D02*
X188496033Y-91297983D01*
X188496033Y-91297983D02*
X188462700Y-91364649D01*
X188462700Y-91364649D02*
X188396033Y-91431316D01*
X188396033Y-91431316D02*
X188262700Y-91464649D01*
X188262700Y-91464649D02*
X188029366Y-91464649D01*
X188029366Y-91464649D02*
X187896033Y-91431316D01*
X187896033Y-91431316D02*
X187829366Y-91364649D01*
X187829366Y-91364649D02*
X187796033Y-91297983D01*
X188496033Y-90331316D02*
X188496033Y-90731316D01*
X188496033Y-90531316D02*
X187796033Y-90531316D01*
X187796033Y-90531316D02*
X187896033Y-90597983D01*
X187896033Y-90597983D02*
X187962700Y-90664650D01*
X187962700Y-90664650D02*
X187996033Y-90731316D01*
X188029366Y-89731316D02*
X188496033Y-89731316D01*
X187762700Y-89897983D02*
X188262700Y-90064649D01*
X188262700Y-90064649D02*
X188262700Y-89631316D01*
X187762700Y-88864649D02*
X188662700Y-89464649D01*
X188496033Y-88631316D02*
X187796033Y-88631316D01*
X187796033Y-88631316D02*
X188296033Y-88397983D01*
X188296033Y-88397983D02*
X187796033Y-88164649D01*
X187796033Y-88164649D02*
X188496033Y-88164649D01*
X187796033Y-87931316D02*
X187796033Y-87531316D01*
X188496033Y-87731316D02*
X187796033Y-87731316D01*
X188496033Y-87297983D02*
X187796033Y-87297983D01*
X187796033Y-87297983D02*
X188296033Y-87064650D01*
X188296033Y-87064650D02*
X187796033Y-86831316D01*
X187796033Y-86831316D02*
X188496033Y-86831316D01*
X188462700Y-86531316D02*
X188496033Y-86431316D01*
X188496033Y-86431316D02*
X188496033Y-86264650D01*
X188496033Y-86264650D02*
X188462700Y-86197983D01*
X188462700Y-86197983D02*
X188429366Y-86164650D01*
X188429366Y-86164650D02*
X188362700Y-86131316D01*
X188362700Y-86131316D02*
X188296033Y-86131316D01*
X188296033Y-86131316D02*
X188229366Y-86164650D01*
X188229366Y-86164650D02*
X188196033Y-86197983D01*
X188196033Y-86197983D02*
X188162700Y-86264650D01*
X188162700Y-86264650D02*
X188129366Y-86397983D01*
X188129366Y-86397983D02*
X188096033Y-86464650D01*
X188096033Y-86464650D02*
X188062700Y-86497983D01*
X188062700Y-86497983D02*
X187996033Y-86531316D01*
X187996033Y-86531316D02*
X187929366Y-86531316D01*
X187929366Y-86531316D02*
X187862700Y-86497983D01*
X187862700Y-86497983D02*
X187829366Y-86464650D01*
X187829366Y-86464650D02*
X187796033Y-86397983D01*
X187796033Y-86397983D02*
X187796033Y-86231316D01*
X187796033Y-86231316D02*
X187829366Y-86131316D01*
X159694819Y-93188458D02*
X159694819Y-92569411D01*
X159694819Y-92569411D02*
X160075771Y-92902744D01*
X160075771Y-92902744D02*
X160075771Y-92759887D01*
X160075771Y-92759887D02*
X160123390Y-92664649D01*
X160123390Y-92664649D02*
X160171009Y-92617030D01*
X160171009Y-92617030D02*
X160266247Y-92569411D01*
X160266247Y-92569411D02*
X160504342Y-92569411D01*
X160504342Y-92569411D02*
X160599580Y-92617030D01*
X160599580Y-92617030D02*
X160647200Y-92664649D01*
X160647200Y-92664649D02*
X160694819Y-92759887D01*
X160694819Y-92759887D02*
X160694819Y-93045601D01*
X160694819Y-93045601D02*
X160647200Y-93140839D01*
X160647200Y-93140839D02*
X160599580Y-93188458D01*
X159694819Y-92283696D02*
X160694819Y-91950363D01*
X160694819Y-91950363D02*
X159694819Y-91617030D01*
X159694819Y-91378934D02*
X159694819Y-90759887D01*
X159694819Y-90759887D02*
X160075771Y-91093220D01*
X160075771Y-91093220D02*
X160075771Y-90950363D01*
X160075771Y-90950363D02*
X160123390Y-90855125D01*
X160123390Y-90855125D02*
X160171009Y-90807506D01*
X160171009Y-90807506D02*
X160266247Y-90759887D01*
X160266247Y-90759887D02*
X160504342Y-90759887D01*
X160504342Y-90759887D02*
X160599580Y-90807506D01*
X160599580Y-90807506D02*
X160647200Y-90855125D01*
X160647200Y-90855125D02*
X160694819Y-90950363D01*
X160694819Y-90950363D02*
X160694819Y-91236077D01*
X160694819Y-91236077D02*
X160647200Y-91331315D01*
X160647200Y-91331315D02*
X160599580Y-91378934D01*
X203669366Y-92764649D02*
X203702700Y-92797982D01*
X203702700Y-92797982D02*
X203736033Y-92897982D01*
X203736033Y-92897982D02*
X203736033Y-92964649D01*
X203736033Y-92964649D02*
X203702700Y-93064649D01*
X203702700Y-93064649D02*
X203636033Y-93131316D01*
X203636033Y-93131316D02*
X203569366Y-93164649D01*
X203569366Y-93164649D02*
X203436033Y-93197982D01*
X203436033Y-93197982D02*
X203336033Y-93197982D01*
X203336033Y-93197982D02*
X203202700Y-93164649D01*
X203202700Y-93164649D02*
X203136033Y-93131316D01*
X203136033Y-93131316D02*
X203069366Y-93064649D01*
X203069366Y-93064649D02*
X203036033Y-92964649D01*
X203036033Y-92964649D02*
X203036033Y-92897982D01*
X203036033Y-92897982D02*
X203069366Y-92797982D01*
X203069366Y-92797982D02*
X203102700Y-92764649D01*
X203736033Y-92464649D02*
X203036033Y-92464649D01*
X203036033Y-92464649D02*
X203536033Y-92231316D01*
X203536033Y-92231316D02*
X203036033Y-91997982D01*
X203036033Y-91997982D02*
X203736033Y-91997982D01*
X203736033Y-91664649D02*
X203036033Y-91664649D01*
X203036033Y-91664649D02*
X203036033Y-91497982D01*
X203036033Y-91497982D02*
X203069366Y-91397982D01*
X203069366Y-91397982D02*
X203136033Y-91331316D01*
X203136033Y-91331316D02*
X203202700Y-91297982D01*
X203202700Y-91297982D02*
X203336033Y-91264649D01*
X203336033Y-91264649D02*
X203436033Y-91264649D01*
X203436033Y-91264649D02*
X203569366Y-91297982D01*
X203569366Y-91297982D02*
X203636033Y-91331316D01*
X203636033Y-91331316D02*
X203702700Y-91397982D01*
X203702700Y-91397982D02*
X203736033Y-91497982D01*
X203736033Y-91497982D02*
X203736033Y-91664649D01*
X180209366Y-73935350D02*
X180176033Y-74002017D01*
X180176033Y-74002017D02*
X180176033Y-74102017D01*
X180176033Y-74102017D02*
X180209366Y-74202017D01*
X180209366Y-74202017D02*
X180276033Y-74268684D01*
X180276033Y-74268684D02*
X180342700Y-74302017D01*
X180342700Y-74302017D02*
X180476033Y-74335350D01*
X180476033Y-74335350D02*
X180576033Y-74335350D01*
X180576033Y-74335350D02*
X180709366Y-74302017D01*
X180709366Y-74302017D02*
X180776033Y-74268684D01*
X180776033Y-74268684D02*
X180842700Y-74202017D01*
X180842700Y-74202017D02*
X180876033Y-74102017D01*
X180876033Y-74102017D02*
X180876033Y-74035350D01*
X180876033Y-74035350D02*
X180842700Y-73935350D01*
X180842700Y-73935350D02*
X180809366Y-73902017D01*
X180809366Y-73902017D02*
X180576033Y-73902017D01*
X180576033Y-73902017D02*
X180576033Y-74035350D01*
X180876033Y-73602017D02*
X180176033Y-73602017D01*
X180176033Y-73602017D02*
X180176033Y-73335350D01*
X180176033Y-73335350D02*
X180209366Y-73268684D01*
X180209366Y-73268684D02*
X180242700Y-73235350D01*
X180242700Y-73235350D02*
X180309366Y-73202017D01*
X180309366Y-73202017D02*
X180409366Y-73202017D01*
X180409366Y-73202017D02*
X180476033Y-73235350D01*
X180476033Y-73235350D02*
X180509366Y-73268684D01*
X180509366Y-73268684D02*
X180542700Y-73335350D01*
X180542700Y-73335350D02*
X180542700Y-73602017D01*
X180876033Y-72902017D02*
X180176033Y-72902017D01*
X180176033Y-72435351D02*
X180176033Y-72302017D01*
X180176033Y-72302017D02*
X180209366Y-72235351D01*
X180209366Y-72235351D02*
X180276033Y-72168684D01*
X180276033Y-72168684D02*
X180409366Y-72135351D01*
X180409366Y-72135351D02*
X180642700Y-72135351D01*
X180642700Y-72135351D02*
X180776033Y-72168684D01*
X180776033Y-72168684D02*
X180842700Y-72235351D01*
X180842700Y-72235351D02*
X180876033Y-72302017D01*
X180876033Y-72302017D02*
X180876033Y-72435351D01*
X180876033Y-72435351D02*
X180842700Y-72502017D01*
X180842700Y-72502017D02*
X180776033Y-72568684D01*
X180776033Y-72568684D02*
X180642700Y-72602017D01*
X180642700Y-72602017D02*
X180409366Y-72602017D01*
X180409366Y-72602017D02*
X180276033Y-72568684D01*
X180276033Y-72568684D02*
X180209366Y-72502017D01*
X180209366Y-72502017D02*
X180176033Y-72435351D01*
X180876033Y-71468684D02*
X180876033Y-71868684D01*
X180876033Y-71668684D02*
X180176033Y-71668684D01*
X180176033Y-71668684D02*
X180276033Y-71735351D01*
X180276033Y-71735351D02*
X180342700Y-71802018D01*
X180342700Y-71802018D02*
X180376033Y-71868684D01*
X180476033Y-71068684D02*
X180442700Y-71135351D01*
X180442700Y-71135351D02*
X180409366Y-71168684D01*
X180409366Y-71168684D02*
X180342700Y-71202017D01*
X180342700Y-71202017D02*
X180309366Y-71202017D01*
X180309366Y-71202017D02*
X180242700Y-71168684D01*
X180242700Y-71168684D02*
X180209366Y-71135351D01*
X180209366Y-71135351D02*
X180176033Y-71068684D01*
X180176033Y-71068684D02*
X180176033Y-70935351D01*
X180176033Y-70935351D02*
X180209366Y-70868684D01*
X180209366Y-70868684D02*
X180242700Y-70835351D01*
X180242700Y-70835351D02*
X180309366Y-70802017D01*
X180309366Y-70802017D02*
X180342700Y-70802017D01*
X180342700Y-70802017D02*
X180409366Y-70835351D01*
X180409366Y-70835351D02*
X180442700Y-70868684D01*
X180442700Y-70868684D02*
X180476033Y-70935351D01*
X180476033Y-70935351D02*
X180476033Y-71068684D01*
X180476033Y-71068684D02*
X180509366Y-71135351D01*
X180509366Y-71135351D02*
X180542700Y-71168684D01*
X180542700Y-71168684D02*
X180609366Y-71202017D01*
X180609366Y-71202017D02*
X180742700Y-71202017D01*
X180742700Y-71202017D02*
X180809366Y-71168684D01*
X180809366Y-71168684D02*
X180842700Y-71135351D01*
X180842700Y-71135351D02*
X180876033Y-71068684D01*
X180876033Y-71068684D02*
X180876033Y-70935351D01*
X180876033Y-70935351D02*
X180842700Y-70868684D01*
X180842700Y-70868684D02*
X180809366Y-70835351D01*
X180809366Y-70835351D02*
X180742700Y-70802017D01*
X180742700Y-70802017D02*
X180609366Y-70802017D01*
X180609366Y-70802017D02*
X180542700Y-70835351D01*
X180542700Y-70835351D02*
X180509366Y-70868684D01*
X180509366Y-70868684D02*
X180476033Y-70935351D01*
X174982438Y-72954398D02*
X174934819Y-73049636D01*
X174934819Y-73049636D02*
X174934819Y-73192493D01*
X174934819Y-73192493D02*
X174982438Y-73335350D01*
X174982438Y-73335350D02*
X175077676Y-73430588D01*
X175077676Y-73430588D02*
X175172914Y-73478207D01*
X175172914Y-73478207D02*
X175363390Y-73525826D01*
X175363390Y-73525826D02*
X175506247Y-73525826D01*
X175506247Y-73525826D02*
X175696723Y-73478207D01*
X175696723Y-73478207D02*
X175791961Y-73430588D01*
X175791961Y-73430588D02*
X175887200Y-73335350D01*
X175887200Y-73335350D02*
X175934819Y-73192493D01*
X175934819Y-73192493D02*
X175934819Y-73097255D01*
X175934819Y-73097255D02*
X175887200Y-72954398D01*
X175887200Y-72954398D02*
X175839580Y-72906779D01*
X175839580Y-72906779D02*
X175506247Y-72906779D01*
X175506247Y-72906779D02*
X175506247Y-73097255D01*
X175934819Y-72478207D02*
X174934819Y-72478207D01*
X174934819Y-72478207D02*
X175934819Y-71906779D01*
X175934819Y-71906779D02*
X174934819Y-71906779D01*
X175934819Y-71430588D02*
X174934819Y-71430588D01*
X174934819Y-71430588D02*
X174934819Y-71192493D01*
X174934819Y-71192493D02*
X174982438Y-71049636D01*
X174982438Y-71049636D02*
X175077676Y-70954398D01*
X175077676Y-70954398D02*
X175172914Y-70906779D01*
X175172914Y-70906779D02*
X175363390Y-70859160D01*
X175363390Y-70859160D02*
X175506247Y-70859160D01*
X175506247Y-70859160D02*
X175696723Y-70906779D01*
X175696723Y-70906779D02*
X175791961Y-70954398D01*
X175791961Y-70954398D02*
X175887200Y-71049636D01*
X175887200Y-71049636D02*
X175934819Y-71192493D01*
X175934819Y-71192493D02*
X175934819Y-71430588D01*
X162429366Y-73935350D02*
X162396033Y-74002017D01*
X162396033Y-74002017D02*
X162396033Y-74102017D01*
X162396033Y-74102017D02*
X162429366Y-74202017D01*
X162429366Y-74202017D02*
X162496033Y-74268684D01*
X162496033Y-74268684D02*
X162562700Y-74302017D01*
X162562700Y-74302017D02*
X162696033Y-74335350D01*
X162696033Y-74335350D02*
X162796033Y-74335350D01*
X162796033Y-74335350D02*
X162929366Y-74302017D01*
X162929366Y-74302017D02*
X162996033Y-74268684D01*
X162996033Y-74268684D02*
X163062700Y-74202017D01*
X163062700Y-74202017D02*
X163096033Y-74102017D01*
X163096033Y-74102017D02*
X163096033Y-74035350D01*
X163096033Y-74035350D02*
X163062700Y-73935350D01*
X163062700Y-73935350D02*
X163029366Y-73902017D01*
X163029366Y-73902017D02*
X162796033Y-73902017D01*
X162796033Y-73902017D02*
X162796033Y-74035350D01*
X163096033Y-73602017D02*
X162396033Y-73602017D01*
X162396033Y-73602017D02*
X162396033Y-73335350D01*
X162396033Y-73335350D02*
X162429366Y-73268684D01*
X162429366Y-73268684D02*
X162462700Y-73235350D01*
X162462700Y-73235350D02*
X162529366Y-73202017D01*
X162529366Y-73202017D02*
X162629366Y-73202017D01*
X162629366Y-73202017D02*
X162696033Y-73235350D01*
X162696033Y-73235350D02*
X162729366Y-73268684D01*
X162729366Y-73268684D02*
X162762700Y-73335350D01*
X162762700Y-73335350D02*
X162762700Y-73602017D01*
X163096033Y-72902017D02*
X162396033Y-72902017D01*
X162396033Y-72435351D02*
X162396033Y-72302017D01*
X162396033Y-72302017D02*
X162429366Y-72235351D01*
X162429366Y-72235351D02*
X162496033Y-72168684D01*
X162496033Y-72168684D02*
X162629366Y-72135351D01*
X162629366Y-72135351D02*
X162862700Y-72135351D01*
X162862700Y-72135351D02*
X162996033Y-72168684D01*
X162996033Y-72168684D02*
X163062700Y-72235351D01*
X163062700Y-72235351D02*
X163096033Y-72302017D01*
X163096033Y-72302017D02*
X163096033Y-72435351D01*
X163096033Y-72435351D02*
X163062700Y-72502017D01*
X163062700Y-72502017D02*
X162996033Y-72568684D01*
X162996033Y-72568684D02*
X162862700Y-72602017D01*
X162862700Y-72602017D02*
X162629366Y-72602017D01*
X162629366Y-72602017D02*
X162496033Y-72568684D01*
X162496033Y-72568684D02*
X162429366Y-72502017D01*
X162429366Y-72502017D02*
X162396033Y-72435351D01*
X162462700Y-71868684D02*
X162429366Y-71835351D01*
X162429366Y-71835351D02*
X162396033Y-71768684D01*
X162396033Y-71768684D02*
X162396033Y-71602018D01*
X162396033Y-71602018D02*
X162429366Y-71535351D01*
X162429366Y-71535351D02*
X162462700Y-71502018D01*
X162462700Y-71502018D02*
X162529366Y-71468684D01*
X162529366Y-71468684D02*
X162596033Y-71468684D01*
X162596033Y-71468684D02*
X162696033Y-71502018D01*
X162696033Y-71502018D02*
X163096033Y-71902018D01*
X163096033Y-71902018D02*
X163096033Y-71468684D01*
X162396033Y-71235351D02*
X162396033Y-70802017D01*
X162396033Y-70802017D02*
X162662700Y-71035351D01*
X162662700Y-71035351D02*
X162662700Y-70935351D01*
X162662700Y-70935351D02*
X162696033Y-70868684D01*
X162696033Y-70868684D02*
X162729366Y-70835351D01*
X162729366Y-70835351D02*
X162796033Y-70802017D01*
X162796033Y-70802017D02*
X162962700Y-70802017D01*
X162962700Y-70802017D02*
X163029366Y-70835351D01*
X163029366Y-70835351D02*
X163062700Y-70868684D01*
X163062700Y-70868684D02*
X163096033Y-70935351D01*
X163096033Y-70935351D02*
X163096033Y-71135351D01*
X163096033Y-71135351D02*
X163062700Y-71202017D01*
X163062700Y-71202017D02*
X163029366Y-71235351D01*
X177669366Y-92797982D02*
X177636033Y-92864649D01*
X177636033Y-92864649D02*
X177636033Y-92964649D01*
X177636033Y-92964649D02*
X177669366Y-93064649D01*
X177669366Y-93064649D02*
X177736033Y-93131316D01*
X177736033Y-93131316D02*
X177802700Y-93164649D01*
X177802700Y-93164649D02*
X177936033Y-93197982D01*
X177936033Y-93197982D02*
X178036033Y-93197982D01*
X178036033Y-93197982D02*
X178169366Y-93164649D01*
X178169366Y-93164649D02*
X178236033Y-93131316D01*
X178236033Y-93131316D02*
X178302700Y-93064649D01*
X178302700Y-93064649D02*
X178336033Y-92964649D01*
X178336033Y-92964649D02*
X178336033Y-92897982D01*
X178336033Y-92897982D02*
X178302700Y-92797982D01*
X178302700Y-92797982D02*
X178269366Y-92764649D01*
X178269366Y-92764649D02*
X178036033Y-92764649D01*
X178036033Y-92764649D02*
X178036033Y-92897982D01*
X178336033Y-92464649D02*
X177636033Y-92464649D01*
X177636033Y-92464649D02*
X177636033Y-92197982D01*
X177636033Y-92197982D02*
X177669366Y-92131316D01*
X177669366Y-92131316D02*
X177702700Y-92097982D01*
X177702700Y-92097982D02*
X177769366Y-92064649D01*
X177769366Y-92064649D02*
X177869366Y-92064649D01*
X177869366Y-92064649D02*
X177936033Y-92097982D01*
X177936033Y-92097982D02*
X177969366Y-92131316D01*
X177969366Y-92131316D02*
X178002700Y-92197982D01*
X178002700Y-92197982D02*
X178002700Y-92464649D01*
X178336033Y-91764649D02*
X177636033Y-91764649D01*
X177636033Y-91297983D02*
X177636033Y-91164649D01*
X177636033Y-91164649D02*
X177669366Y-91097983D01*
X177669366Y-91097983D02*
X177736033Y-91031316D01*
X177736033Y-91031316D02*
X177869366Y-90997983D01*
X177869366Y-90997983D02*
X178102700Y-90997983D01*
X178102700Y-90997983D02*
X178236033Y-91031316D01*
X178236033Y-91031316D02*
X178302700Y-91097983D01*
X178302700Y-91097983D02*
X178336033Y-91164649D01*
X178336033Y-91164649D02*
X178336033Y-91297983D01*
X178336033Y-91297983D02*
X178302700Y-91364649D01*
X178302700Y-91364649D02*
X178236033Y-91431316D01*
X178236033Y-91431316D02*
X178102700Y-91464649D01*
X178102700Y-91464649D02*
X177869366Y-91464649D01*
X177869366Y-91464649D02*
X177736033Y-91431316D01*
X177736033Y-91431316D02*
X177669366Y-91364649D01*
X177669366Y-91364649D02*
X177636033Y-91297983D01*
X177636033Y-90764650D02*
X177636033Y-90331316D01*
X177636033Y-90331316D02*
X177902700Y-90564650D01*
X177902700Y-90564650D02*
X177902700Y-90464650D01*
X177902700Y-90464650D02*
X177936033Y-90397983D01*
X177936033Y-90397983D02*
X177969366Y-90364650D01*
X177969366Y-90364650D02*
X178036033Y-90331316D01*
X178036033Y-90331316D02*
X178202700Y-90331316D01*
X178202700Y-90331316D02*
X178269366Y-90364650D01*
X178269366Y-90364650D02*
X178302700Y-90397983D01*
X178302700Y-90397983D02*
X178336033Y-90464650D01*
X178336033Y-90464650D02*
X178336033Y-90664650D01*
X178336033Y-90664650D02*
X178302700Y-90731316D01*
X178302700Y-90731316D02*
X178269366Y-90764650D01*
X177636033Y-90097983D02*
X177636033Y-89664649D01*
X177636033Y-89664649D02*
X177902700Y-89897983D01*
X177902700Y-89897983D02*
X177902700Y-89797983D01*
X177902700Y-89797983D02*
X177936033Y-89731316D01*
X177936033Y-89731316D02*
X177969366Y-89697983D01*
X177969366Y-89697983D02*
X178036033Y-89664649D01*
X178036033Y-89664649D02*
X178202700Y-89664649D01*
X178202700Y-89664649D02*
X178269366Y-89697983D01*
X178269366Y-89697983D02*
X178302700Y-89731316D01*
X178302700Y-89731316D02*
X178336033Y-89797983D01*
X178336033Y-89797983D02*
X178336033Y-89997983D01*
X178336033Y-89997983D02*
X178302700Y-90064649D01*
X178302700Y-90064649D02*
X178269366Y-90097983D01*
X175129366Y-92797982D02*
X175096033Y-92864649D01*
X175096033Y-92864649D02*
X175096033Y-92964649D01*
X175096033Y-92964649D02*
X175129366Y-93064649D01*
X175129366Y-93064649D02*
X175196033Y-93131316D01*
X175196033Y-93131316D02*
X175262700Y-93164649D01*
X175262700Y-93164649D02*
X175396033Y-93197982D01*
X175396033Y-93197982D02*
X175496033Y-93197982D01*
X175496033Y-93197982D02*
X175629366Y-93164649D01*
X175629366Y-93164649D02*
X175696033Y-93131316D01*
X175696033Y-93131316D02*
X175762700Y-93064649D01*
X175762700Y-93064649D02*
X175796033Y-92964649D01*
X175796033Y-92964649D02*
X175796033Y-92897982D01*
X175796033Y-92897982D02*
X175762700Y-92797982D01*
X175762700Y-92797982D02*
X175729366Y-92764649D01*
X175729366Y-92764649D02*
X175496033Y-92764649D01*
X175496033Y-92764649D02*
X175496033Y-92897982D01*
X175796033Y-92464649D02*
X175096033Y-92464649D01*
X175096033Y-92464649D02*
X175096033Y-92197982D01*
X175096033Y-92197982D02*
X175129366Y-92131316D01*
X175129366Y-92131316D02*
X175162700Y-92097982D01*
X175162700Y-92097982D02*
X175229366Y-92064649D01*
X175229366Y-92064649D02*
X175329366Y-92064649D01*
X175329366Y-92064649D02*
X175396033Y-92097982D01*
X175396033Y-92097982D02*
X175429366Y-92131316D01*
X175429366Y-92131316D02*
X175462700Y-92197982D01*
X175462700Y-92197982D02*
X175462700Y-92464649D01*
X175796033Y-91764649D02*
X175096033Y-91764649D01*
X175096033Y-91297983D02*
X175096033Y-91164649D01*
X175096033Y-91164649D02*
X175129366Y-91097983D01*
X175129366Y-91097983D02*
X175196033Y-91031316D01*
X175196033Y-91031316D02*
X175329366Y-90997983D01*
X175329366Y-90997983D02*
X175562700Y-90997983D01*
X175562700Y-90997983D02*
X175696033Y-91031316D01*
X175696033Y-91031316D02*
X175762700Y-91097983D01*
X175762700Y-91097983D02*
X175796033Y-91164649D01*
X175796033Y-91164649D02*
X175796033Y-91297983D01*
X175796033Y-91297983D02*
X175762700Y-91364649D01*
X175762700Y-91364649D02*
X175696033Y-91431316D01*
X175696033Y-91431316D02*
X175562700Y-91464649D01*
X175562700Y-91464649D02*
X175329366Y-91464649D01*
X175329366Y-91464649D02*
X175196033Y-91431316D01*
X175196033Y-91431316D02*
X175129366Y-91364649D01*
X175129366Y-91364649D02*
X175096033Y-91297983D01*
X175096033Y-90764650D02*
X175096033Y-90331316D01*
X175096033Y-90331316D02*
X175362700Y-90564650D01*
X175362700Y-90564650D02*
X175362700Y-90464650D01*
X175362700Y-90464650D02*
X175396033Y-90397983D01*
X175396033Y-90397983D02*
X175429366Y-90364650D01*
X175429366Y-90364650D02*
X175496033Y-90331316D01*
X175496033Y-90331316D02*
X175662700Y-90331316D01*
X175662700Y-90331316D02*
X175729366Y-90364650D01*
X175729366Y-90364650D02*
X175762700Y-90397983D01*
X175762700Y-90397983D02*
X175796033Y-90464650D01*
X175796033Y-90464650D02*
X175796033Y-90664650D01*
X175796033Y-90664650D02*
X175762700Y-90731316D01*
X175762700Y-90731316D02*
X175729366Y-90764650D01*
X175162700Y-90064649D02*
X175129366Y-90031316D01*
X175129366Y-90031316D02*
X175096033Y-89964649D01*
X175096033Y-89964649D02*
X175096033Y-89797983D01*
X175096033Y-89797983D02*
X175129366Y-89731316D01*
X175129366Y-89731316D02*
X175162700Y-89697983D01*
X175162700Y-89697983D02*
X175229366Y-89664649D01*
X175229366Y-89664649D02*
X175296033Y-89664649D01*
X175296033Y-89664649D02*
X175396033Y-89697983D01*
X175396033Y-89697983D02*
X175796033Y-90097983D01*
X175796033Y-90097983D02*
X175796033Y-89664649D01*
X206209366Y-72068684D02*
X206242700Y-72102017D01*
X206242700Y-72102017D02*
X206276033Y-72202017D01*
X206276033Y-72202017D02*
X206276033Y-72268684D01*
X206276033Y-72268684D02*
X206242700Y-72368684D01*
X206242700Y-72368684D02*
X206176033Y-72435351D01*
X206176033Y-72435351D02*
X206109366Y-72468684D01*
X206109366Y-72468684D02*
X205976033Y-72502017D01*
X205976033Y-72502017D02*
X205876033Y-72502017D01*
X205876033Y-72502017D02*
X205742700Y-72468684D01*
X205742700Y-72468684D02*
X205676033Y-72435351D01*
X205676033Y-72435351D02*
X205609366Y-72368684D01*
X205609366Y-72368684D02*
X205576033Y-72268684D01*
X205576033Y-72268684D02*
X205576033Y-72202017D01*
X205576033Y-72202017D02*
X205609366Y-72102017D01*
X205609366Y-72102017D02*
X205642700Y-72068684D01*
X206276033Y-71435351D02*
X206276033Y-71768684D01*
X206276033Y-71768684D02*
X205576033Y-71768684D01*
X206276033Y-71202017D02*
X205576033Y-71202017D01*
X206276033Y-70802017D02*
X205876033Y-71102017D01*
X205576033Y-70802017D02*
X205976033Y-71202017D01*
X201196033Y-71868684D02*
X200496033Y-71868684D01*
X200496033Y-71868684D02*
X200496033Y-71702017D01*
X200496033Y-71702017D02*
X200529366Y-71602017D01*
X200529366Y-71602017D02*
X200596033Y-71535351D01*
X200596033Y-71535351D02*
X200662700Y-71502017D01*
X200662700Y-71502017D02*
X200796033Y-71468684D01*
X200796033Y-71468684D02*
X200896033Y-71468684D01*
X200896033Y-71468684D02*
X201029366Y-71502017D01*
X201029366Y-71502017D02*
X201096033Y-71535351D01*
X201096033Y-71535351D02*
X201162700Y-71602017D01*
X201162700Y-71602017D02*
X201196033Y-71702017D01*
X201196033Y-71702017D02*
X201196033Y-71868684D01*
X201196033Y-70802017D02*
X201196033Y-71202017D01*
X201196033Y-71002017D02*
X200496033Y-71002017D01*
X200496033Y-71002017D02*
X200596033Y-71068684D01*
X200596033Y-71068684D02*
X200662700Y-71135351D01*
X200662700Y-71135351D02*
X200696033Y-71202017D01*
X198656033Y-93164649D02*
X197956033Y-93164649D01*
X197956033Y-93164649D02*
X197956033Y-92997982D01*
X197956033Y-92997982D02*
X197989366Y-92897982D01*
X197989366Y-92897982D02*
X198056033Y-92831316D01*
X198056033Y-92831316D02*
X198122700Y-92797982D01*
X198122700Y-92797982D02*
X198256033Y-92764649D01*
X198256033Y-92764649D02*
X198356033Y-92764649D01*
X198356033Y-92764649D02*
X198489366Y-92797982D01*
X198489366Y-92797982D02*
X198556033Y-92831316D01*
X198556033Y-92831316D02*
X198622700Y-92897982D01*
X198622700Y-92897982D02*
X198656033Y-92997982D01*
X198656033Y-92997982D02*
X198656033Y-93164649D01*
X198022700Y-92497982D02*
X197989366Y-92464649D01*
X197989366Y-92464649D02*
X197956033Y-92397982D01*
X197956033Y-92397982D02*
X197956033Y-92231316D01*
X197956033Y-92231316D02*
X197989366Y-92164649D01*
X197989366Y-92164649D02*
X198022700Y-92131316D01*
X198022700Y-92131316D02*
X198089366Y-92097982D01*
X198089366Y-92097982D02*
X198156033Y-92097982D01*
X198156033Y-92097982D02*
X198256033Y-92131316D01*
X198256033Y-92131316D02*
X198656033Y-92531316D01*
X198656033Y-92531316D02*
X198656033Y-92097982D01*
X190369366Y-92797982D02*
X190336033Y-92864649D01*
X190336033Y-92864649D02*
X190336033Y-92964649D01*
X190336033Y-92964649D02*
X190369366Y-93064649D01*
X190369366Y-93064649D02*
X190436033Y-93131316D01*
X190436033Y-93131316D02*
X190502700Y-93164649D01*
X190502700Y-93164649D02*
X190636033Y-93197982D01*
X190636033Y-93197982D02*
X190736033Y-93197982D01*
X190736033Y-93197982D02*
X190869366Y-93164649D01*
X190869366Y-93164649D02*
X190936033Y-93131316D01*
X190936033Y-93131316D02*
X191002700Y-93064649D01*
X191002700Y-93064649D02*
X191036033Y-92964649D01*
X191036033Y-92964649D02*
X191036033Y-92897982D01*
X191036033Y-92897982D02*
X191002700Y-92797982D01*
X191002700Y-92797982D02*
X190969366Y-92764649D01*
X190969366Y-92764649D02*
X190736033Y-92764649D01*
X190736033Y-92764649D02*
X190736033Y-92897982D01*
X191036033Y-92464649D02*
X190336033Y-92464649D01*
X190336033Y-92464649D02*
X190336033Y-92197982D01*
X190336033Y-92197982D02*
X190369366Y-92131316D01*
X190369366Y-92131316D02*
X190402700Y-92097982D01*
X190402700Y-92097982D02*
X190469366Y-92064649D01*
X190469366Y-92064649D02*
X190569366Y-92064649D01*
X190569366Y-92064649D02*
X190636033Y-92097982D01*
X190636033Y-92097982D02*
X190669366Y-92131316D01*
X190669366Y-92131316D02*
X190702700Y-92197982D01*
X190702700Y-92197982D02*
X190702700Y-92464649D01*
X191036033Y-91764649D02*
X190336033Y-91764649D01*
X190336033Y-91297983D02*
X190336033Y-91164649D01*
X190336033Y-91164649D02*
X190369366Y-91097983D01*
X190369366Y-91097983D02*
X190436033Y-91031316D01*
X190436033Y-91031316D02*
X190569366Y-90997983D01*
X190569366Y-90997983D02*
X190802700Y-90997983D01*
X190802700Y-90997983D02*
X190936033Y-91031316D01*
X190936033Y-91031316D02*
X191002700Y-91097983D01*
X191002700Y-91097983D02*
X191036033Y-91164649D01*
X191036033Y-91164649D02*
X191036033Y-91297983D01*
X191036033Y-91297983D02*
X191002700Y-91364649D01*
X191002700Y-91364649D02*
X190936033Y-91431316D01*
X190936033Y-91431316D02*
X190802700Y-91464649D01*
X190802700Y-91464649D02*
X190569366Y-91464649D01*
X190569366Y-91464649D02*
X190436033Y-91431316D01*
X190436033Y-91431316D02*
X190369366Y-91364649D01*
X190369366Y-91364649D02*
X190336033Y-91297983D01*
X191036033Y-90331316D02*
X191036033Y-90731316D01*
X191036033Y-90531316D02*
X190336033Y-90531316D01*
X190336033Y-90531316D02*
X190436033Y-90597983D01*
X190436033Y-90597983D02*
X190502700Y-90664650D01*
X190502700Y-90664650D02*
X190536033Y-90731316D01*
X190402700Y-90064649D02*
X190369366Y-90031316D01*
X190369366Y-90031316D02*
X190336033Y-89964649D01*
X190336033Y-89964649D02*
X190336033Y-89797983D01*
X190336033Y-89797983D02*
X190369366Y-89731316D01*
X190369366Y-89731316D02*
X190402700Y-89697983D01*
X190402700Y-89697983D02*
X190469366Y-89664649D01*
X190469366Y-89664649D02*
X190536033Y-89664649D01*
X190536033Y-89664649D02*
X190636033Y-89697983D01*
X190636033Y-89697983D02*
X191036033Y-90097983D01*
X191036033Y-90097983D02*
X191036033Y-89664649D01*
X190302700Y-88864649D02*
X191202700Y-89464649D01*
X191036033Y-88631316D02*
X190336033Y-88631316D01*
X190336033Y-88631316D02*
X190836033Y-88397983D01*
X190836033Y-88397983D02*
X190336033Y-88164649D01*
X190336033Y-88164649D02*
X191036033Y-88164649D01*
X190336033Y-87931316D02*
X190336033Y-87531316D01*
X191036033Y-87731316D02*
X190336033Y-87731316D01*
X191036033Y-87297983D02*
X190336033Y-87297983D01*
X190336033Y-87297983D02*
X190336033Y-87131316D01*
X190336033Y-87131316D02*
X190369366Y-87031316D01*
X190369366Y-87031316D02*
X190436033Y-86964650D01*
X190436033Y-86964650D02*
X190502700Y-86931316D01*
X190502700Y-86931316D02*
X190636033Y-86897983D01*
X190636033Y-86897983D02*
X190736033Y-86897983D01*
X190736033Y-86897983D02*
X190869366Y-86931316D01*
X190869366Y-86931316D02*
X190936033Y-86964650D01*
X190936033Y-86964650D02*
X191002700Y-87031316D01*
X191002700Y-87031316D02*
X191036033Y-87131316D01*
X191036033Y-87131316D02*
X191036033Y-87297983D01*
X191036033Y-86597983D02*
X190336033Y-86597983D01*
X170049366Y-77468683D02*
X170016033Y-77535350D01*
X170016033Y-77535350D02*
X170016033Y-77635350D01*
X170016033Y-77635350D02*
X170049366Y-77735350D01*
X170049366Y-77735350D02*
X170116033Y-77802017D01*
X170116033Y-77802017D02*
X170182700Y-77835350D01*
X170182700Y-77835350D02*
X170316033Y-77868683D01*
X170316033Y-77868683D02*
X170416033Y-77868683D01*
X170416033Y-77868683D02*
X170549366Y-77835350D01*
X170549366Y-77835350D02*
X170616033Y-77802017D01*
X170616033Y-77802017D02*
X170682700Y-77735350D01*
X170682700Y-77735350D02*
X170716033Y-77635350D01*
X170716033Y-77635350D02*
X170716033Y-77568683D01*
X170716033Y-77568683D02*
X170682700Y-77468683D01*
X170682700Y-77468683D02*
X170649366Y-77435350D01*
X170649366Y-77435350D02*
X170416033Y-77435350D01*
X170416033Y-77435350D02*
X170416033Y-77568683D01*
X170716033Y-77135350D02*
X170016033Y-77135350D01*
X170016033Y-77135350D02*
X170016033Y-76868683D01*
X170016033Y-76868683D02*
X170049366Y-76802017D01*
X170049366Y-76802017D02*
X170082700Y-76768683D01*
X170082700Y-76768683D02*
X170149366Y-76735350D01*
X170149366Y-76735350D02*
X170249366Y-76735350D01*
X170249366Y-76735350D02*
X170316033Y-76768683D01*
X170316033Y-76768683D02*
X170349366Y-76802017D01*
X170349366Y-76802017D02*
X170382700Y-76868683D01*
X170382700Y-76868683D02*
X170382700Y-77135350D01*
X170716033Y-76435350D02*
X170016033Y-76435350D01*
X170016033Y-75968684D02*
X170016033Y-75835350D01*
X170016033Y-75835350D02*
X170049366Y-75768684D01*
X170049366Y-75768684D02*
X170116033Y-75702017D01*
X170116033Y-75702017D02*
X170249366Y-75668684D01*
X170249366Y-75668684D02*
X170482700Y-75668684D01*
X170482700Y-75668684D02*
X170616033Y-75702017D01*
X170616033Y-75702017D02*
X170682700Y-75768684D01*
X170682700Y-75768684D02*
X170716033Y-75835350D01*
X170716033Y-75835350D02*
X170716033Y-75968684D01*
X170716033Y-75968684D02*
X170682700Y-76035350D01*
X170682700Y-76035350D02*
X170616033Y-76102017D01*
X170616033Y-76102017D02*
X170482700Y-76135350D01*
X170482700Y-76135350D02*
X170249366Y-76135350D01*
X170249366Y-76135350D02*
X170116033Y-76102017D01*
X170116033Y-76102017D02*
X170049366Y-76035350D01*
X170049366Y-76035350D02*
X170016033Y-75968684D01*
X170016033Y-75435351D02*
X170016033Y-75002017D01*
X170016033Y-75002017D02*
X170282700Y-75235351D01*
X170282700Y-75235351D02*
X170282700Y-75135351D01*
X170282700Y-75135351D02*
X170316033Y-75068684D01*
X170316033Y-75068684D02*
X170349366Y-75035351D01*
X170349366Y-75035351D02*
X170416033Y-75002017D01*
X170416033Y-75002017D02*
X170582700Y-75002017D01*
X170582700Y-75002017D02*
X170649366Y-75035351D01*
X170649366Y-75035351D02*
X170682700Y-75068684D01*
X170682700Y-75068684D02*
X170716033Y-75135351D01*
X170716033Y-75135351D02*
X170716033Y-75335351D01*
X170716033Y-75335351D02*
X170682700Y-75402017D01*
X170682700Y-75402017D02*
X170649366Y-75435351D01*
X169982700Y-74202017D02*
X170882700Y-74802017D01*
X170016033Y-73968684D02*
X170582700Y-73968684D01*
X170582700Y-73968684D02*
X170649366Y-73935351D01*
X170649366Y-73935351D02*
X170682700Y-73902017D01*
X170682700Y-73902017D02*
X170716033Y-73835351D01*
X170716033Y-73835351D02*
X170716033Y-73702017D01*
X170716033Y-73702017D02*
X170682700Y-73635351D01*
X170682700Y-73635351D02*
X170649366Y-73602017D01*
X170649366Y-73602017D02*
X170582700Y-73568684D01*
X170582700Y-73568684D02*
X170016033Y-73568684D01*
X170016033Y-73102018D02*
X170016033Y-73035351D01*
X170016033Y-73035351D02*
X170049366Y-72968684D01*
X170049366Y-72968684D02*
X170082700Y-72935351D01*
X170082700Y-72935351D02*
X170149366Y-72902018D01*
X170149366Y-72902018D02*
X170282700Y-72868684D01*
X170282700Y-72868684D02*
X170449366Y-72868684D01*
X170449366Y-72868684D02*
X170582700Y-72902018D01*
X170582700Y-72902018D02*
X170649366Y-72935351D01*
X170649366Y-72935351D02*
X170682700Y-72968684D01*
X170682700Y-72968684D02*
X170716033Y-73035351D01*
X170716033Y-73035351D02*
X170716033Y-73102018D01*
X170716033Y-73102018D02*
X170682700Y-73168684D01*
X170682700Y-73168684D02*
X170649366Y-73202018D01*
X170649366Y-73202018D02*
X170582700Y-73235351D01*
X170582700Y-73235351D02*
X170449366Y-73268684D01*
X170449366Y-73268684D02*
X170282700Y-73268684D01*
X170282700Y-73268684D02*
X170149366Y-73235351D01*
X170149366Y-73235351D02*
X170082700Y-73202018D01*
X170082700Y-73202018D02*
X170049366Y-73168684D01*
X170049366Y-73168684D02*
X170016033Y-73102018D01*
X170716033Y-72168684D02*
X170382700Y-72402017D01*
X170716033Y-72568684D02*
X170016033Y-72568684D01*
X170016033Y-72568684D02*
X170016033Y-72302017D01*
X170016033Y-72302017D02*
X170049366Y-72235351D01*
X170049366Y-72235351D02*
X170082700Y-72202017D01*
X170082700Y-72202017D02*
X170149366Y-72168684D01*
X170149366Y-72168684D02*
X170249366Y-72168684D01*
X170249366Y-72168684D02*
X170316033Y-72202017D01*
X170316033Y-72202017D02*
X170349366Y-72235351D01*
X170349366Y-72235351D02*
X170382700Y-72302017D01*
X170382700Y-72302017D02*
X170382700Y-72568684D01*
X170016033Y-71935351D02*
X170716033Y-71468684D01*
X170016033Y-71468684D02*
X170716033Y-71935351D01*
X170716033Y-71202017D02*
X170016033Y-71202017D01*
X170016033Y-71202017D02*
X170016033Y-71035350D01*
X170016033Y-71035350D02*
X170049366Y-70935350D01*
X170049366Y-70935350D02*
X170116033Y-70868684D01*
X170116033Y-70868684D02*
X170182700Y-70835350D01*
X170182700Y-70835350D02*
X170316033Y-70802017D01*
X170316033Y-70802017D02*
X170416033Y-70802017D01*
X170416033Y-70802017D02*
X170549366Y-70835350D01*
X170549366Y-70835350D02*
X170616033Y-70868684D01*
X170616033Y-70868684D02*
X170682700Y-70935350D01*
X170682700Y-70935350D02*
X170716033Y-71035350D01*
X170716033Y-71035350D02*
X170716033Y-71202017D01*
X164936033Y-93264649D02*
X165636033Y-93031316D01*
X165636033Y-93031316D02*
X164936033Y-92797982D01*
X165636033Y-92564649D02*
X164936033Y-92564649D01*
X164936033Y-92564649D02*
X164936033Y-92297982D01*
X164936033Y-92297982D02*
X164969366Y-92231316D01*
X164969366Y-92231316D02*
X165002700Y-92197982D01*
X165002700Y-92197982D02*
X165069366Y-92164649D01*
X165069366Y-92164649D02*
X165169366Y-92164649D01*
X165169366Y-92164649D02*
X165236033Y-92197982D01*
X165236033Y-92197982D02*
X165269366Y-92231316D01*
X165269366Y-92231316D02*
X165302700Y-92297982D01*
X165302700Y-92297982D02*
X165302700Y-92564649D01*
X164902700Y-91364649D02*
X165802700Y-91964649D01*
X164969366Y-90764649D02*
X164936033Y-90831316D01*
X164936033Y-90831316D02*
X164936033Y-90931316D01*
X164936033Y-90931316D02*
X164969366Y-91031316D01*
X164969366Y-91031316D02*
X165036033Y-91097983D01*
X165036033Y-91097983D02*
X165102700Y-91131316D01*
X165102700Y-91131316D02*
X165236033Y-91164649D01*
X165236033Y-91164649D02*
X165336033Y-91164649D01*
X165336033Y-91164649D02*
X165469366Y-91131316D01*
X165469366Y-91131316D02*
X165536033Y-91097983D01*
X165536033Y-91097983D02*
X165602700Y-91031316D01*
X165602700Y-91031316D02*
X165636033Y-90931316D01*
X165636033Y-90931316D02*
X165636033Y-90864649D01*
X165636033Y-90864649D02*
X165602700Y-90764649D01*
X165602700Y-90764649D02*
X165569366Y-90731316D01*
X165569366Y-90731316D02*
X165336033Y-90731316D01*
X165336033Y-90731316D02*
X165336033Y-90864649D01*
X165636033Y-90431316D02*
X164936033Y-90431316D01*
X164936033Y-90431316D02*
X164936033Y-90164649D01*
X164936033Y-90164649D02*
X164969366Y-90097983D01*
X164969366Y-90097983D02*
X165002700Y-90064649D01*
X165002700Y-90064649D02*
X165069366Y-90031316D01*
X165069366Y-90031316D02*
X165169366Y-90031316D01*
X165169366Y-90031316D02*
X165236033Y-90064649D01*
X165236033Y-90064649D02*
X165269366Y-90097983D01*
X165269366Y-90097983D02*
X165302700Y-90164649D01*
X165302700Y-90164649D02*
X165302700Y-90431316D01*
X165636033Y-89731316D02*
X164936033Y-89731316D01*
X164936033Y-89264650D02*
X164936033Y-89131316D01*
X164936033Y-89131316D02*
X164969366Y-89064650D01*
X164969366Y-89064650D02*
X165036033Y-88997983D01*
X165036033Y-88997983D02*
X165169366Y-88964650D01*
X165169366Y-88964650D02*
X165402700Y-88964650D01*
X165402700Y-88964650D02*
X165536033Y-88997983D01*
X165536033Y-88997983D02*
X165602700Y-89064650D01*
X165602700Y-89064650D02*
X165636033Y-89131316D01*
X165636033Y-89131316D02*
X165636033Y-89264650D01*
X165636033Y-89264650D02*
X165602700Y-89331316D01*
X165602700Y-89331316D02*
X165536033Y-89397983D01*
X165536033Y-89397983D02*
X165402700Y-89431316D01*
X165402700Y-89431316D02*
X165169366Y-89431316D01*
X165169366Y-89431316D02*
X165036033Y-89397983D01*
X165036033Y-89397983D02*
X164969366Y-89331316D01*
X164969366Y-89331316D02*
X164936033Y-89264650D01*
X164936033Y-88731317D02*
X164936033Y-88297983D01*
X164936033Y-88297983D02*
X165202700Y-88531317D01*
X165202700Y-88531317D02*
X165202700Y-88431317D01*
X165202700Y-88431317D02*
X165236033Y-88364650D01*
X165236033Y-88364650D02*
X165269366Y-88331317D01*
X165269366Y-88331317D02*
X165336033Y-88297983D01*
X165336033Y-88297983D02*
X165502700Y-88297983D01*
X165502700Y-88297983D02*
X165569366Y-88331317D01*
X165569366Y-88331317D02*
X165602700Y-88364650D01*
X165602700Y-88364650D02*
X165636033Y-88431317D01*
X165636033Y-88431317D02*
X165636033Y-88631317D01*
X165636033Y-88631317D02*
X165602700Y-88697983D01*
X165602700Y-88697983D02*
X165569366Y-88731317D01*
X164936033Y-87697983D02*
X164936033Y-87831316D01*
X164936033Y-87831316D02*
X164969366Y-87897983D01*
X164969366Y-87897983D02*
X165002700Y-87931316D01*
X165002700Y-87931316D02*
X165102700Y-87997983D01*
X165102700Y-87997983D02*
X165236033Y-88031316D01*
X165236033Y-88031316D02*
X165502700Y-88031316D01*
X165502700Y-88031316D02*
X165569366Y-87997983D01*
X165569366Y-87997983D02*
X165602700Y-87964650D01*
X165602700Y-87964650D02*
X165636033Y-87897983D01*
X165636033Y-87897983D02*
X165636033Y-87764650D01*
X165636033Y-87764650D02*
X165602700Y-87697983D01*
X165602700Y-87697983D02*
X165569366Y-87664650D01*
X165569366Y-87664650D02*
X165502700Y-87631316D01*
X165502700Y-87631316D02*
X165336033Y-87631316D01*
X165336033Y-87631316D02*
X165269366Y-87664650D01*
X165269366Y-87664650D02*
X165236033Y-87697983D01*
X165236033Y-87697983D02*
X165202700Y-87764650D01*
X165202700Y-87764650D02*
X165202700Y-87897983D01*
X165202700Y-87897983D02*
X165236033Y-87964650D01*
X165236033Y-87964650D02*
X165269366Y-87997983D01*
X165269366Y-87997983D02*
X165336033Y-88031316D01*
X190369366Y-73268683D02*
X190336033Y-73335350D01*
X190336033Y-73335350D02*
X190336033Y-73435350D01*
X190336033Y-73435350D02*
X190369366Y-73535350D01*
X190369366Y-73535350D02*
X190436033Y-73602017D01*
X190436033Y-73602017D02*
X190502700Y-73635350D01*
X190502700Y-73635350D02*
X190636033Y-73668683D01*
X190636033Y-73668683D02*
X190736033Y-73668683D01*
X190736033Y-73668683D02*
X190869366Y-73635350D01*
X190869366Y-73635350D02*
X190936033Y-73602017D01*
X190936033Y-73602017D02*
X191002700Y-73535350D01*
X191002700Y-73535350D02*
X191036033Y-73435350D01*
X191036033Y-73435350D02*
X191036033Y-73368683D01*
X191036033Y-73368683D02*
X191002700Y-73268683D01*
X191002700Y-73268683D02*
X190969366Y-73235350D01*
X190969366Y-73235350D02*
X190736033Y-73235350D01*
X190736033Y-73235350D02*
X190736033Y-73368683D01*
X191036033Y-72935350D02*
X190336033Y-72935350D01*
X190336033Y-72935350D02*
X190336033Y-72668683D01*
X190336033Y-72668683D02*
X190369366Y-72602017D01*
X190369366Y-72602017D02*
X190402700Y-72568683D01*
X190402700Y-72568683D02*
X190469366Y-72535350D01*
X190469366Y-72535350D02*
X190569366Y-72535350D01*
X190569366Y-72535350D02*
X190636033Y-72568683D01*
X190636033Y-72568683D02*
X190669366Y-72602017D01*
X190669366Y-72602017D02*
X190702700Y-72668683D01*
X190702700Y-72668683D02*
X190702700Y-72935350D01*
X191036033Y-72235350D02*
X190336033Y-72235350D01*
X190336033Y-71768684D02*
X190336033Y-71635350D01*
X190336033Y-71635350D02*
X190369366Y-71568684D01*
X190369366Y-71568684D02*
X190436033Y-71502017D01*
X190436033Y-71502017D02*
X190569366Y-71468684D01*
X190569366Y-71468684D02*
X190802700Y-71468684D01*
X190802700Y-71468684D02*
X190936033Y-71502017D01*
X190936033Y-71502017D02*
X191002700Y-71568684D01*
X191002700Y-71568684D02*
X191036033Y-71635350D01*
X191036033Y-71635350D02*
X191036033Y-71768684D01*
X191036033Y-71768684D02*
X191002700Y-71835350D01*
X191002700Y-71835350D02*
X190936033Y-71902017D01*
X190936033Y-71902017D02*
X190802700Y-71935350D01*
X190802700Y-71935350D02*
X190569366Y-71935350D01*
X190569366Y-71935350D02*
X190436033Y-71902017D01*
X190436033Y-71902017D02*
X190369366Y-71835350D01*
X190369366Y-71835350D02*
X190336033Y-71768684D01*
X190569366Y-70868684D02*
X191036033Y-70868684D01*
X190302700Y-71035351D02*
X190802700Y-71202017D01*
X190802700Y-71202017D02*
X190802700Y-70768684D01*
X185289366Y-92797982D02*
X185256033Y-92864649D01*
X185256033Y-92864649D02*
X185256033Y-92964649D01*
X185256033Y-92964649D02*
X185289366Y-93064649D01*
X185289366Y-93064649D02*
X185356033Y-93131316D01*
X185356033Y-93131316D02*
X185422700Y-93164649D01*
X185422700Y-93164649D02*
X185556033Y-93197982D01*
X185556033Y-93197982D02*
X185656033Y-93197982D01*
X185656033Y-93197982D02*
X185789366Y-93164649D01*
X185789366Y-93164649D02*
X185856033Y-93131316D01*
X185856033Y-93131316D02*
X185922700Y-93064649D01*
X185922700Y-93064649D02*
X185956033Y-92964649D01*
X185956033Y-92964649D02*
X185956033Y-92897982D01*
X185956033Y-92897982D02*
X185922700Y-92797982D01*
X185922700Y-92797982D02*
X185889366Y-92764649D01*
X185889366Y-92764649D02*
X185656033Y-92764649D01*
X185656033Y-92764649D02*
X185656033Y-92897982D01*
X185956033Y-92464649D02*
X185256033Y-92464649D01*
X185256033Y-92464649D02*
X185256033Y-92197982D01*
X185256033Y-92197982D02*
X185289366Y-92131316D01*
X185289366Y-92131316D02*
X185322700Y-92097982D01*
X185322700Y-92097982D02*
X185389366Y-92064649D01*
X185389366Y-92064649D02*
X185489366Y-92064649D01*
X185489366Y-92064649D02*
X185556033Y-92097982D01*
X185556033Y-92097982D02*
X185589366Y-92131316D01*
X185589366Y-92131316D02*
X185622700Y-92197982D01*
X185622700Y-92197982D02*
X185622700Y-92464649D01*
X185956033Y-91764649D02*
X185256033Y-91764649D01*
X185256033Y-91297983D02*
X185256033Y-91164649D01*
X185256033Y-91164649D02*
X185289366Y-91097983D01*
X185289366Y-91097983D02*
X185356033Y-91031316D01*
X185356033Y-91031316D02*
X185489366Y-90997983D01*
X185489366Y-90997983D02*
X185722700Y-90997983D01*
X185722700Y-90997983D02*
X185856033Y-91031316D01*
X185856033Y-91031316D02*
X185922700Y-91097983D01*
X185922700Y-91097983D02*
X185956033Y-91164649D01*
X185956033Y-91164649D02*
X185956033Y-91297983D01*
X185956033Y-91297983D02*
X185922700Y-91364649D01*
X185922700Y-91364649D02*
X185856033Y-91431316D01*
X185856033Y-91431316D02*
X185722700Y-91464649D01*
X185722700Y-91464649D02*
X185489366Y-91464649D01*
X185489366Y-91464649D02*
X185356033Y-91431316D01*
X185356033Y-91431316D02*
X185289366Y-91364649D01*
X185289366Y-91364649D02*
X185256033Y-91297983D01*
X185322700Y-90731316D02*
X185289366Y-90697983D01*
X185289366Y-90697983D02*
X185256033Y-90631316D01*
X185256033Y-90631316D02*
X185256033Y-90464650D01*
X185256033Y-90464650D02*
X185289366Y-90397983D01*
X185289366Y-90397983D02*
X185322700Y-90364650D01*
X185322700Y-90364650D02*
X185389366Y-90331316D01*
X185389366Y-90331316D02*
X185456033Y-90331316D01*
X185456033Y-90331316D02*
X185556033Y-90364650D01*
X185556033Y-90364650D02*
X185956033Y-90764650D01*
X185956033Y-90764650D02*
X185956033Y-90331316D01*
X185256033Y-90097983D02*
X185256033Y-89631316D01*
X185256033Y-89631316D02*
X185956033Y-89931316D01*
X172589366Y-73935350D02*
X172556033Y-74002017D01*
X172556033Y-74002017D02*
X172556033Y-74102017D01*
X172556033Y-74102017D02*
X172589366Y-74202017D01*
X172589366Y-74202017D02*
X172656033Y-74268684D01*
X172656033Y-74268684D02*
X172722700Y-74302017D01*
X172722700Y-74302017D02*
X172856033Y-74335350D01*
X172856033Y-74335350D02*
X172956033Y-74335350D01*
X172956033Y-74335350D02*
X173089366Y-74302017D01*
X173089366Y-74302017D02*
X173156033Y-74268684D01*
X173156033Y-74268684D02*
X173222700Y-74202017D01*
X173222700Y-74202017D02*
X173256033Y-74102017D01*
X173256033Y-74102017D02*
X173256033Y-74035350D01*
X173256033Y-74035350D02*
X173222700Y-73935350D01*
X173222700Y-73935350D02*
X173189366Y-73902017D01*
X173189366Y-73902017D02*
X172956033Y-73902017D01*
X172956033Y-73902017D02*
X172956033Y-74035350D01*
X173256033Y-73602017D02*
X172556033Y-73602017D01*
X172556033Y-73602017D02*
X172556033Y-73335350D01*
X172556033Y-73335350D02*
X172589366Y-73268684D01*
X172589366Y-73268684D02*
X172622700Y-73235350D01*
X172622700Y-73235350D02*
X172689366Y-73202017D01*
X172689366Y-73202017D02*
X172789366Y-73202017D01*
X172789366Y-73202017D02*
X172856033Y-73235350D01*
X172856033Y-73235350D02*
X172889366Y-73268684D01*
X172889366Y-73268684D02*
X172922700Y-73335350D01*
X172922700Y-73335350D02*
X172922700Y-73602017D01*
X173256033Y-72902017D02*
X172556033Y-72902017D01*
X172556033Y-72435351D02*
X172556033Y-72302017D01*
X172556033Y-72302017D02*
X172589366Y-72235351D01*
X172589366Y-72235351D02*
X172656033Y-72168684D01*
X172656033Y-72168684D02*
X172789366Y-72135351D01*
X172789366Y-72135351D02*
X173022700Y-72135351D01*
X173022700Y-72135351D02*
X173156033Y-72168684D01*
X173156033Y-72168684D02*
X173222700Y-72235351D01*
X173222700Y-72235351D02*
X173256033Y-72302017D01*
X173256033Y-72302017D02*
X173256033Y-72435351D01*
X173256033Y-72435351D02*
X173222700Y-72502017D01*
X173222700Y-72502017D02*
X173156033Y-72568684D01*
X173156033Y-72568684D02*
X173022700Y-72602017D01*
X173022700Y-72602017D02*
X172789366Y-72602017D01*
X172789366Y-72602017D02*
X172656033Y-72568684D01*
X172656033Y-72568684D02*
X172589366Y-72502017D01*
X172589366Y-72502017D02*
X172556033Y-72435351D01*
X172622700Y-71868684D02*
X172589366Y-71835351D01*
X172589366Y-71835351D02*
X172556033Y-71768684D01*
X172556033Y-71768684D02*
X172556033Y-71602018D01*
X172556033Y-71602018D02*
X172589366Y-71535351D01*
X172589366Y-71535351D02*
X172622700Y-71502018D01*
X172622700Y-71502018D02*
X172689366Y-71468684D01*
X172689366Y-71468684D02*
X172756033Y-71468684D01*
X172756033Y-71468684D02*
X172856033Y-71502018D01*
X172856033Y-71502018D02*
X173256033Y-71902018D01*
X173256033Y-71902018D02*
X173256033Y-71468684D01*
X173256033Y-70802017D02*
X173256033Y-71202017D01*
X173256033Y-71002017D02*
X172556033Y-71002017D01*
X172556033Y-71002017D02*
X172656033Y-71068684D01*
X172656033Y-71068684D02*
X172722700Y-71135351D01*
X172722700Y-71135351D02*
X172756033Y-71202017D01*
X164969366Y-73935350D02*
X164936033Y-74002017D01*
X164936033Y-74002017D02*
X164936033Y-74102017D01*
X164936033Y-74102017D02*
X164969366Y-74202017D01*
X164969366Y-74202017D02*
X165036033Y-74268684D01*
X165036033Y-74268684D02*
X165102700Y-74302017D01*
X165102700Y-74302017D02*
X165236033Y-74335350D01*
X165236033Y-74335350D02*
X165336033Y-74335350D01*
X165336033Y-74335350D02*
X165469366Y-74302017D01*
X165469366Y-74302017D02*
X165536033Y-74268684D01*
X165536033Y-74268684D02*
X165602700Y-74202017D01*
X165602700Y-74202017D02*
X165636033Y-74102017D01*
X165636033Y-74102017D02*
X165636033Y-74035350D01*
X165636033Y-74035350D02*
X165602700Y-73935350D01*
X165602700Y-73935350D02*
X165569366Y-73902017D01*
X165569366Y-73902017D02*
X165336033Y-73902017D01*
X165336033Y-73902017D02*
X165336033Y-74035350D01*
X165636033Y-73602017D02*
X164936033Y-73602017D01*
X164936033Y-73602017D02*
X164936033Y-73335350D01*
X164936033Y-73335350D02*
X164969366Y-73268684D01*
X164969366Y-73268684D02*
X165002700Y-73235350D01*
X165002700Y-73235350D02*
X165069366Y-73202017D01*
X165069366Y-73202017D02*
X165169366Y-73202017D01*
X165169366Y-73202017D02*
X165236033Y-73235350D01*
X165236033Y-73235350D02*
X165269366Y-73268684D01*
X165269366Y-73268684D02*
X165302700Y-73335350D01*
X165302700Y-73335350D02*
X165302700Y-73602017D01*
X165636033Y-72902017D02*
X164936033Y-72902017D01*
X164936033Y-72435351D02*
X164936033Y-72302017D01*
X164936033Y-72302017D02*
X164969366Y-72235351D01*
X164969366Y-72235351D02*
X165036033Y-72168684D01*
X165036033Y-72168684D02*
X165169366Y-72135351D01*
X165169366Y-72135351D02*
X165402700Y-72135351D01*
X165402700Y-72135351D02*
X165536033Y-72168684D01*
X165536033Y-72168684D02*
X165602700Y-72235351D01*
X165602700Y-72235351D02*
X165636033Y-72302017D01*
X165636033Y-72302017D02*
X165636033Y-72435351D01*
X165636033Y-72435351D02*
X165602700Y-72502017D01*
X165602700Y-72502017D02*
X165536033Y-72568684D01*
X165536033Y-72568684D02*
X165402700Y-72602017D01*
X165402700Y-72602017D02*
X165169366Y-72602017D01*
X165169366Y-72602017D02*
X165036033Y-72568684D01*
X165036033Y-72568684D02*
X164969366Y-72502017D01*
X164969366Y-72502017D02*
X164936033Y-72435351D01*
X165002700Y-71868684D02*
X164969366Y-71835351D01*
X164969366Y-71835351D02*
X164936033Y-71768684D01*
X164936033Y-71768684D02*
X164936033Y-71602018D01*
X164936033Y-71602018D02*
X164969366Y-71535351D01*
X164969366Y-71535351D02*
X165002700Y-71502018D01*
X165002700Y-71502018D02*
X165069366Y-71468684D01*
X165069366Y-71468684D02*
X165136033Y-71468684D01*
X165136033Y-71468684D02*
X165236033Y-71502018D01*
X165236033Y-71502018D02*
X165636033Y-71902018D01*
X165636033Y-71902018D02*
X165636033Y-71468684D01*
X165002700Y-71202017D02*
X164969366Y-71168684D01*
X164969366Y-71168684D02*
X164936033Y-71102017D01*
X164936033Y-71102017D02*
X164936033Y-70935351D01*
X164936033Y-70935351D02*
X164969366Y-70868684D01*
X164969366Y-70868684D02*
X165002700Y-70835351D01*
X165002700Y-70835351D02*
X165069366Y-70802017D01*
X165069366Y-70802017D02*
X165136033Y-70802017D01*
X165136033Y-70802017D02*
X165236033Y-70835351D01*
X165236033Y-70835351D02*
X165636033Y-71235351D01*
X165636033Y-71235351D02*
X165636033Y-70802017D01*
X205666099Y-92620710D02*
X205666099Y-93096900D01*
X205666099Y-93096900D02*
X206142289Y-93144519D01*
X206142289Y-93144519D02*
X206094670Y-93096900D01*
X206094670Y-93096900D02*
X206047051Y-93001662D01*
X206047051Y-93001662D02*
X206047051Y-92763567D01*
X206047051Y-92763567D02*
X206094670Y-92668329D01*
X206094670Y-92668329D02*
X206142289Y-92620710D01*
X206142289Y-92620710D02*
X206237527Y-92573091D01*
X206237527Y-92573091D02*
X206475622Y-92573091D01*
X206475622Y-92573091D02*
X206570860Y-92620710D01*
X206570860Y-92620710D02*
X206618480Y-92668329D01*
X206618480Y-92668329D02*
X206666099Y-92763567D01*
X206666099Y-92763567D02*
X206666099Y-93001662D01*
X206666099Y-93001662D02*
X206618480Y-93096900D01*
X206618480Y-93096900D02*
X206570860Y-93144519D01*
X205666099Y-92287376D02*
X206666099Y-91954043D01*
X206666099Y-91954043D02*
X205666099Y-91620710D01*
X159742438Y-72954398D02*
X159694819Y-73049636D01*
X159694819Y-73049636D02*
X159694819Y-73192493D01*
X159694819Y-73192493D02*
X159742438Y-73335350D01*
X159742438Y-73335350D02*
X159837676Y-73430588D01*
X159837676Y-73430588D02*
X159932914Y-73478207D01*
X159932914Y-73478207D02*
X160123390Y-73525826D01*
X160123390Y-73525826D02*
X160266247Y-73525826D01*
X160266247Y-73525826D02*
X160456723Y-73478207D01*
X160456723Y-73478207D02*
X160551961Y-73430588D01*
X160551961Y-73430588D02*
X160647200Y-73335350D01*
X160647200Y-73335350D02*
X160694819Y-73192493D01*
X160694819Y-73192493D02*
X160694819Y-73097255D01*
X160694819Y-73097255D02*
X160647200Y-72954398D01*
X160647200Y-72954398D02*
X160599580Y-72906779D01*
X160599580Y-72906779D02*
X160266247Y-72906779D01*
X160266247Y-72906779D02*
X160266247Y-73097255D01*
X160694819Y-72478207D02*
X159694819Y-72478207D01*
X159694819Y-72478207D02*
X160694819Y-71906779D01*
X160694819Y-71906779D02*
X159694819Y-71906779D01*
X160694819Y-71430588D02*
X159694819Y-71430588D01*
X159694819Y-71430588D02*
X159694819Y-71192493D01*
X159694819Y-71192493D02*
X159742438Y-71049636D01*
X159742438Y-71049636D02*
X159837676Y-70954398D01*
X159837676Y-70954398D02*
X159932914Y-70906779D01*
X159932914Y-70906779D02*
X160123390Y-70859160D01*
X160123390Y-70859160D02*
X160266247Y-70859160D01*
X160266247Y-70859160D02*
X160456723Y-70906779D01*
X160456723Y-70906779D02*
X160551961Y-70954398D01*
X160551961Y-70954398D02*
X160647200Y-71049636D01*
X160647200Y-71049636D02*
X160694819Y-71192493D01*
X160694819Y-71192493D02*
X160694819Y-71430588D01*
X192762438Y-92569411D02*
X192714819Y-92664649D01*
X192714819Y-92664649D02*
X192714819Y-92807506D01*
X192714819Y-92807506D02*
X192762438Y-92950363D01*
X192762438Y-92950363D02*
X192857676Y-93045601D01*
X192857676Y-93045601D02*
X192952914Y-93093220D01*
X192952914Y-93093220D02*
X193143390Y-93140839D01*
X193143390Y-93140839D02*
X193286247Y-93140839D01*
X193286247Y-93140839D02*
X193476723Y-93093220D01*
X193476723Y-93093220D02*
X193571961Y-93045601D01*
X193571961Y-93045601D02*
X193667200Y-92950363D01*
X193667200Y-92950363D02*
X193714819Y-92807506D01*
X193714819Y-92807506D02*
X193714819Y-92712268D01*
X193714819Y-92712268D02*
X193667200Y-92569411D01*
X193667200Y-92569411D02*
X193619580Y-92521792D01*
X193619580Y-92521792D02*
X193286247Y-92521792D01*
X193286247Y-92521792D02*
X193286247Y-92712268D01*
X193714819Y-92093220D02*
X192714819Y-92093220D01*
X192714819Y-92093220D02*
X193714819Y-91521792D01*
X193714819Y-91521792D02*
X192714819Y-91521792D01*
X193714819Y-91045601D02*
X192714819Y-91045601D01*
X192714819Y-91045601D02*
X192714819Y-90807506D01*
X192714819Y-90807506D02*
X192762438Y-90664649D01*
X192762438Y-90664649D02*
X192857676Y-90569411D01*
X192857676Y-90569411D02*
X192952914Y-90521792D01*
X192952914Y-90521792D02*
X193143390Y-90474173D01*
X193143390Y-90474173D02*
X193286247Y-90474173D01*
X193286247Y-90474173D02*
X193476723Y-90521792D01*
X193476723Y-90521792D02*
X193571961Y-90569411D01*
X193571961Y-90569411D02*
X193667200Y-90664649D01*
X193667200Y-90664649D02*
X193714819Y-90807506D01*
X193714819Y-90807506D02*
X193714819Y-91045601D01*
X172589366Y-92797982D02*
X172556033Y-92864649D01*
X172556033Y-92864649D02*
X172556033Y-92964649D01*
X172556033Y-92964649D02*
X172589366Y-93064649D01*
X172589366Y-93064649D02*
X172656033Y-93131316D01*
X172656033Y-93131316D02*
X172722700Y-93164649D01*
X172722700Y-93164649D02*
X172856033Y-93197982D01*
X172856033Y-93197982D02*
X172956033Y-93197982D01*
X172956033Y-93197982D02*
X173089366Y-93164649D01*
X173089366Y-93164649D02*
X173156033Y-93131316D01*
X173156033Y-93131316D02*
X173222700Y-93064649D01*
X173222700Y-93064649D02*
X173256033Y-92964649D01*
X173256033Y-92964649D02*
X173256033Y-92897982D01*
X173256033Y-92897982D02*
X173222700Y-92797982D01*
X173222700Y-92797982D02*
X173189366Y-92764649D01*
X173189366Y-92764649D02*
X172956033Y-92764649D01*
X172956033Y-92764649D02*
X172956033Y-92897982D01*
X173256033Y-92464649D02*
X172556033Y-92464649D01*
X172556033Y-92464649D02*
X172556033Y-92197982D01*
X172556033Y-92197982D02*
X172589366Y-92131316D01*
X172589366Y-92131316D02*
X172622700Y-92097982D01*
X172622700Y-92097982D02*
X172689366Y-92064649D01*
X172689366Y-92064649D02*
X172789366Y-92064649D01*
X172789366Y-92064649D02*
X172856033Y-92097982D01*
X172856033Y-92097982D02*
X172889366Y-92131316D01*
X172889366Y-92131316D02*
X172922700Y-92197982D01*
X172922700Y-92197982D02*
X172922700Y-92464649D01*
X173256033Y-91764649D02*
X172556033Y-91764649D01*
X172556033Y-91297983D02*
X172556033Y-91164649D01*
X172556033Y-91164649D02*
X172589366Y-91097983D01*
X172589366Y-91097983D02*
X172656033Y-91031316D01*
X172656033Y-91031316D02*
X172789366Y-90997983D01*
X172789366Y-90997983D02*
X173022700Y-90997983D01*
X173022700Y-90997983D02*
X173156033Y-91031316D01*
X173156033Y-91031316D02*
X173222700Y-91097983D01*
X173222700Y-91097983D02*
X173256033Y-91164649D01*
X173256033Y-91164649D02*
X173256033Y-91297983D01*
X173256033Y-91297983D02*
X173222700Y-91364649D01*
X173222700Y-91364649D02*
X173156033Y-91431316D01*
X173156033Y-91431316D02*
X173022700Y-91464649D01*
X173022700Y-91464649D02*
X172789366Y-91464649D01*
X172789366Y-91464649D02*
X172656033Y-91431316D01*
X172656033Y-91431316D02*
X172589366Y-91364649D01*
X172589366Y-91364649D02*
X172556033Y-91297983D01*
X172556033Y-90764650D02*
X172556033Y-90331316D01*
X172556033Y-90331316D02*
X172822700Y-90564650D01*
X172822700Y-90564650D02*
X172822700Y-90464650D01*
X172822700Y-90464650D02*
X172856033Y-90397983D01*
X172856033Y-90397983D02*
X172889366Y-90364650D01*
X172889366Y-90364650D02*
X172956033Y-90331316D01*
X172956033Y-90331316D02*
X173122700Y-90331316D01*
X173122700Y-90331316D02*
X173189366Y-90364650D01*
X173189366Y-90364650D02*
X173222700Y-90397983D01*
X173222700Y-90397983D02*
X173256033Y-90464650D01*
X173256033Y-90464650D02*
X173256033Y-90664650D01*
X173256033Y-90664650D02*
X173222700Y-90731316D01*
X173222700Y-90731316D02*
X173189366Y-90764650D01*
X172556033Y-89697983D02*
X172556033Y-90031316D01*
X172556033Y-90031316D02*
X172889366Y-90064649D01*
X172889366Y-90064649D02*
X172856033Y-90031316D01*
X172856033Y-90031316D02*
X172822700Y-89964649D01*
X172822700Y-89964649D02*
X172822700Y-89797983D01*
X172822700Y-89797983D02*
X172856033Y-89731316D01*
X172856033Y-89731316D02*
X172889366Y-89697983D01*
X172889366Y-89697983D02*
X172956033Y-89664649D01*
X172956033Y-89664649D02*
X173122700Y-89664649D01*
X173122700Y-89664649D02*
X173189366Y-89697983D01*
X173189366Y-89697983D02*
X173222700Y-89731316D01*
X173222700Y-89731316D02*
X173256033Y-89797983D01*
X173256033Y-89797983D02*
X173256033Y-89964649D01*
X173256033Y-89964649D02*
X173222700Y-90031316D01*
X173222700Y-90031316D02*
X173189366Y-90064649D01*
X167476033Y-93264649D02*
X168176033Y-93031316D01*
X168176033Y-93031316D02*
X167476033Y-92797982D01*
X168176033Y-92564649D02*
X167476033Y-92564649D01*
X167476033Y-92564649D02*
X168176033Y-92164649D01*
X168176033Y-92164649D02*
X167476033Y-92164649D01*
X167442700Y-91331316D02*
X168342700Y-91931316D01*
X167509366Y-90731316D02*
X167476033Y-90797983D01*
X167476033Y-90797983D02*
X167476033Y-90897983D01*
X167476033Y-90897983D02*
X167509366Y-90997983D01*
X167509366Y-90997983D02*
X167576033Y-91064650D01*
X167576033Y-91064650D02*
X167642700Y-91097983D01*
X167642700Y-91097983D02*
X167776033Y-91131316D01*
X167776033Y-91131316D02*
X167876033Y-91131316D01*
X167876033Y-91131316D02*
X168009366Y-91097983D01*
X168009366Y-91097983D02*
X168076033Y-91064650D01*
X168076033Y-91064650D02*
X168142700Y-90997983D01*
X168142700Y-90997983D02*
X168176033Y-90897983D01*
X168176033Y-90897983D02*
X168176033Y-90831316D01*
X168176033Y-90831316D02*
X168142700Y-90731316D01*
X168142700Y-90731316D02*
X168109366Y-90697983D01*
X168109366Y-90697983D02*
X167876033Y-90697983D01*
X167876033Y-90697983D02*
X167876033Y-90831316D01*
X168176033Y-90397983D02*
X167476033Y-90397983D01*
X167476033Y-90397983D02*
X167476033Y-90131316D01*
X167476033Y-90131316D02*
X167509366Y-90064650D01*
X167509366Y-90064650D02*
X167542700Y-90031316D01*
X167542700Y-90031316D02*
X167609366Y-89997983D01*
X167609366Y-89997983D02*
X167709366Y-89997983D01*
X167709366Y-89997983D02*
X167776033Y-90031316D01*
X167776033Y-90031316D02*
X167809366Y-90064650D01*
X167809366Y-90064650D02*
X167842700Y-90131316D01*
X167842700Y-90131316D02*
X167842700Y-90397983D01*
X168176033Y-89697983D02*
X167476033Y-89697983D01*
X167476033Y-89231317D02*
X167476033Y-89097983D01*
X167476033Y-89097983D02*
X167509366Y-89031317D01*
X167509366Y-89031317D02*
X167576033Y-88964650D01*
X167576033Y-88964650D02*
X167709366Y-88931317D01*
X167709366Y-88931317D02*
X167942700Y-88931317D01*
X167942700Y-88931317D02*
X168076033Y-88964650D01*
X168076033Y-88964650D02*
X168142700Y-89031317D01*
X168142700Y-89031317D02*
X168176033Y-89097983D01*
X168176033Y-89097983D02*
X168176033Y-89231317D01*
X168176033Y-89231317D02*
X168142700Y-89297983D01*
X168142700Y-89297983D02*
X168076033Y-89364650D01*
X168076033Y-89364650D02*
X167942700Y-89397983D01*
X167942700Y-89397983D02*
X167709366Y-89397983D01*
X167709366Y-89397983D02*
X167576033Y-89364650D01*
X167576033Y-89364650D02*
X167509366Y-89297983D01*
X167509366Y-89297983D02*
X167476033Y-89231317D01*
X167476033Y-88697984D02*
X167476033Y-88264650D01*
X167476033Y-88264650D02*
X167742700Y-88497984D01*
X167742700Y-88497984D02*
X167742700Y-88397984D01*
X167742700Y-88397984D02*
X167776033Y-88331317D01*
X167776033Y-88331317D02*
X167809366Y-88297984D01*
X167809366Y-88297984D02*
X167876033Y-88264650D01*
X167876033Y-88264650D02*
X168042700Y-88264650D01*
X168042700Y-88264650D02*
X168109366Y-88297984D01*
X168109366Y-88297984D02*
X168142700Y-88331317D01*
X168142700Y-88331317D02*
X168176033Y-88397984D01*
X168176033Y-88397984D02*
X168176033Y-88597984D01*
X168176033Y-88597984D02*
X168142700Y-88664650D01*
X168142700Y-88664650D02*
X168109366Y-88697984D01*
X168176033Y-87931317D02*
X168176033Y-87797983D01*
X168176033Y-87797983D02*
X168142700Y-87731317D01*
X168142700Y-87731317D02*
X168109366Y-87697983D01*
X168109366Y-87697983D02*
X168009366Y-87631317D01*
X168009366Y-87631317D02*
X167876033Y-87597983D01*
X167876033Y-87597983D02*
X167609366Y-87597983D01*
X167609366Y-87597983D02*
X167542700Y-87631317D01*
X167542700Y-87631317D02*
X167509366Y-87664650D01*
X167509366Y-87664650D02*
X167476033Y-87731317D01*
X167476033Y-87731317D02*
X167476033Y-87864650D01*
X167476033Y-87864650D02*
X167509366Y-87931317D01*
X167509366Y-87931317D02*
X167542700Y-87964650D01*
X167542700Y-87964650D02*
X167609366Y-87997983D01*
X167609366Y-87997983D02*
X167776033Y-87997983D01*
X167776033Y-87997983D02*
X167842700Y-87964650D01*
X167842700Y-87964650D02*
X167876033Y-87931317D01*
X167876033Y-87931317D02*
X167909366Y-87864650D01*
X167909366Y-87864650D02*
X167909366Y-87731317D01*
X167909366Y-87731317D02*
X167876033Y-87664650D01*
X167876033Y-87664650D02*
X167842700Y-87631317D01*
X167842700Y-87631317D02*
X167776033Y-87597983D01*
X195449366Y-92797982D02*
X195416033Y-92864649D01*
X195416033Y-92864649D02*
X195416033Y-92964649D01*
X195416033Y-92964649D02*
X195449366Y-93064649D01*
X195449366Y-93064649D02*
X195516033Y-93131316D01*
X195516033Y-93131316D02*
X195582700Y-93164649D01*
X195582700Y-93164649D02*
X195716033Y-93197982D01*
X195716033Y-93197982D02*
X195816033Y-93197982D01*
X195816033Y-93197982D02*
X195949366Y-93164649D01*
X195949366Y-93164649D02*
X196016033Y-93131316D01*
X196016033Y-93131316D02*
X196082700Y-93064649D01*
X196082700Y-93064649D02*
X196116033Y-92964649D01*
X196116033Y-92964649D02*
X196116033Y-92897982D01*
X196116033Y-92897982D02*
X196082700Y-92797982D01*
X196082700Y-92797982D02*
X196049366Y-92764649D01*
X196049366Y-92764649D02*
X195816033Y-92764649D01*
X195816033Y-92764649D02*
X195816033Y-92897982D01*
X196116033Y-92464649D02*
X195416033Y-92464649D01*
X195416033Y-92464649D02*
X195416033Y-92197982D01*
X195416033Y-92197982D02*
X195449366Y-92131316D01*
X195449366Y-92131316D02*
X195482700Y-92097982D01*
X195482700Y-92097982D02*
X195549366Y-92064649D01*
X195549366Y-92064649D02*
X195649366Y-92064649D01*
X195649366Y-92064649D02*
X195716033Y-92097982D01*
X195716033Y-92097982D02*
X195749366Y-92131316D01*
X195749366Y-92131316D02*
X195782700Y-92197982D01*
X195782700Y-92197982D02*
X195782700Y-92464649D01*
X196116033Y-91764649D02*
X195416033Y-91764649D01*
X195416033Y-91297983D02*
X195416033Y-91164649D01*
X195416033Y-91164649D02*
X195449366Y-91097983D01*
X195449366Y-91097983D02*
X195516033Y-91031316D01*
X195516033Y-91031316D02*
X195649366Y-90997983D01*
X195649366Y-90997983D02*
X195882700Y-90997983D01*
X195882700Y-90997983D02*
X196016033Y-91031316D01*
X196016033Y-91031316D02*
X196082700Y-91097983D01*
X196082700Y-91097983D02*
X196116033Y-91164649D01*
X196116033Y-91164649D02*
X196116033Y-91297983D01*
X196116033Y-91297983D02*
X196082700Y-91364649D01*
X196082700Y-91364649D02*
X196016033Y-91431316D01*
X196016033Y-91431316D02*
X195882700Y-91464649D01*
X195882700Y-91464649D02*
X195649366Y-91464649D01*
X195649366Y-91464649D02*
X195516033Y-91431316D01*
X195516033Y-91431316D02*
X195449366Y-91364649D01*
X195449366Y-91364649D02*
X195416033Y-91297983D01*
X196116033Y-90331316D02*
X196116033Y-90731316D01*
X196116033Y-90531316D02*
X195416033Y-90531316D01*
X195416033Y-90531316D02*
X195516033Y-90597983D01*
X195516033Y-90597983D02*
X195582700Y-90664650D01*
X195582700Y-90664650D02*
X195616033Y-90731316D01*
X195416033Y-90097983D02*
X195416033Y-89664649D01*
X195416033Y-89664649D02*
X195682700Y-89897983D01*
X195682700Y-89897983D02*
X195682700Y-89797983D01*
X195682700Y-89797983D02*
X195716033Y-89731316D01*
X195716033Y-89731316D02*
X195749366Y-89697983D01*
X195749366Y-89697983D02*
X195816033Y-89664649D01*
X195816033Y-89664649D02*
X195982700Y-89664649D01*
X195982700Y-89664649D02*
X196049366Y-89697983D01*
X196049366Y-89697983D02*
X196082700Y-89731316D01*
X196082700Y-89731316D02*
X196116033Y-89797983D01*
X196116033Y-89797983D02*
X196116033Y-89997983D01*
X196116033Y-89997983D02*
X196082700Y-90064649D01*
X196082700Y-90064649D02*
X196049366Y-90097983D01*
X195382700Y-88864649D02*
X196282700Y-89464649D01*
X196116033Y-88631316D02*
X195416033Y-88631316D01*
X195416033Y-88631316D02*
X195916033Y-88397983D01*
X195916033Y-88397983D02*
X195416033Y-88164649D01*
X195416033Y-88164649D02*
X196116033Y-88164649D01*
X195416033Y-87931316D02*
X195416033Y-87531316D01*
X196116033Y-87731316D02*
X195416033Y-87731316D01*
X196049366Y-86897983D02*
X196082700Y-86931316D01*
X196082700Y-86931316D02*
X196116033Y-87031316D01*
X196116033Y-87031316D02*
X196116033Y-87097983D01*
X196116033Y-87097983D02*
X196082700Y-87197983D01*
X196082700Y-87197983D02*
X196016033Y-87264650D01*
X196016033Y-87264650D02*
X195949366Y-87297983D01*
X195949366Y-87297983D02*
X195816033Y-87331316D01*
X195816033Y-87331316D02*
X195716033Y-87331316D01*
X195716033Y-87331316D02*
X195582700Y-87297983D01*
X195582700Y-87297983D02*
X195516033Y-87264650D01*
X195516033Y-87264650D02*
X195449366Y-87197983D01*
X195449366Y-87197983D02*
X195416033Y-87097983D01*
X195416033Y-87097983D02*
X195416033Y-87031316D01*
X195416033Y-87031316D02*
X195449366Y-86931316D01*
X195449366Y-86931316D02*
X195482700Y-86897983D01*
X196116033Y-86597983D02*
X195416033Y-86597983D01*
X196116033Y-86197983D02*
X195716033Y-86497983D01*
X195416033Y-86197983D02*
X195816033Y-86597983D01*
X182749366Y-92797982D02*
X182716033Y-92864649D01*
X182716033Y-92864649D02*
X182716033Y-92964649D01*
X182716033Y-92964649D02*
X182749366Y-93064649D01*
X182749366Y-93064649D02*
X182816033Y-93131316D01*
X182816033Y-93131316D02*
X182882700Y-93164649D01*
X182882700Y-93164649D02*
X183016033Y-93197982D01*
X183016033Y-93197982D02*
X183116033Y-93197982D01*
X183116033Y-93197982D02*
X183249366Y-93164649D01*
X183249366Y-93164649D02*
X183316033Y-93131316D01*
X183316033Y-93131316D02*
X183382700Y-93064649D01*
X183382700Y-93064649D02*
X183416033Y-92964649D01*
X183416033Y-92964649D02*
X183416033Y-92897982D01*
X183416033Y-92897982D02*
X183382700Y-92797982D01*
X183382700Y-92797982D02*
X183349366Y-92764649D01*
X183349366Y-92764649D02*
X183116033Y-92764649D01*
X183116033Y-92764649D02*
X183116033Y-92897982D01*
X183416033Y-92464649D02*
X182716033Y-92464649D01*
X182716033Y-92464649D02*
X182716033Y-92197982D01*
X182716033Y-92197982D02*
X182749366Y-92131316D01*
X182749366Y-92131316D02*
X182782700Y-92097982D01*
X182782700Y-92097982D02*
X182849366Y-92064649D01*
X182849366Y-92064649D02*
X182949366Y-92064649D01*
X182949366Y-92064649D02*
X183016033Y-92097982D01*
X183016033Y-92097982D02*
X183049366Y-92131316D01*
X183049366Y-92131316D02*
X183082700Y-92197982D01*
X183082700Y-92197982D02*
X183082700Y-92464649D01*
X183416033Y-91764649D02*
X182716033Y-91764649D01*
X182716033Y-91297983D02*
X182716033Y-91164649D01*
X182716033Y-91164649D02*
X182749366Y-91097983D01*
X182749366Y-91097983D02*
X182816033Y-91031316D01*
X182816033Y-91031316D02*
X182949366Y-90997983D01*
X182949366Y-90997983D02*
X183182700Y-90997983D01*
X183182700Y-90997983D02*
X183316033Y-91031316D01*
X183316033Y-91031316D02*
X183382700Y-91097983D01*
X183382700Y-91097983D02*
X183416033Y-91164649D01*
X183416033Y-91164649D02*
X183416033Y-91297983D01*
X183416033Y-91297983D02*
X183382700Y-91364649D01*
X183382700Y-91364649D02*
X183316033Y-91431316D01*
X183316033Y-91431316D02*
X183182700Y-91464649D01*
X183182700Y-91464649D02*
X182949366Y-91464649D01*
X182949366Y-91464649D02*
X182816033Y-91431316D01*
X182816033Y-91431316D02*
X182749366Y-91364649D01*
X182749366Y-91364649D02*
X182716033Y-91297983D01*
X182782700Y-90731316D02*
X182749366Y-90697983D01*
X182749366Y-90697983D02*
X182716033Y-90631316D01*
X182716033Y-90631316D02*
X182716033Y-90464650D01*
X182716033Y-90464650D02*
X182749366Y-90397983D01*
X182749366Y-90397983D02*
X182782700Y-90364650D01*
X182782700Y-90364650D02*
X182849366Y-90331316D01*
X182849366Y-90331316D02*
X182916033Y-90331316D01*
X182916033Y-90331316D02*
X183016033Y-90364650D01*
X183016033Y-90364650D02*
X183416033Y-90764650D01*
X183416033Y-90764650D02*
X183416033Y-90331316D01*
X182716033Y-89731316D02*
X182716033Y-89864649D01*
X182716033Y-89864649D02*
X182749366Y-89931316D01*
X182749366Y-89931316D02*
X182782700Y-89964649D01*
X182782700Y-89964649D02*
X182882700Y-90031316D01*
X182882700Y-90031316D02*
X183016033Y-90064649D01*
X183016033Y-90064649D02*
X183282700Y-90064649D01*
X183282700Y-90064649D02*
X183349366Y-90031316D01*
X183349366Y-90031316D02*
X183382700Y-89997983D01*
X183382700Y-89997983D02*
X183416033Y-89931316D01*
X183416033Y-89931316D02*
X183416033Y-89797983D01*
X183416033Y-89797983D02*
X183382700Y-89731316D01*
X183382700Y-89731316D02*
X183349366Y-89697983D01*
X183349366Y-89697983D02*
X183282700Y-89664649D01*
X183282700Y-89664649D02*
X183116033Y-89664649D01*
X183116033Y-89664649D02*
X183049366Y-89697983D01*
X183049366Y-89697983D02*
X183016033Y-89731316D01*
X183016033Y-89731316D02*
X182982700Y-89797983D01*
X182982700Y-89797983D02*
X182982700Y-89931316D01*
X182982700Y-89931316D02*
X183016033Y-89997983D01*
X183016033Y-89997983D02*
X183049366Y-90031316D01*
X183049366Y-90031316D02*
X183116033Y-90064649D01*
X195449366Y-73268683D02*
X195416033Y-73335350D01*
X195416033Y-73335350D02*
X195416033Y-73435350D01*
X195416033Y-73435350D02*
X195449366Y-73535350D01*
X195449366Y-73535350D02*
X195516033Y-73602017D01*
X195516033Y-73602017D02*
X195582700Y-73635350D01*
X195582700Y-73635350D02*
X195716033Y-73668683D01*
X195716033Y-73668683D02*
X195816033Y-73668683D01*
X195816033Y-73668683D02*
X195949366Y-73635350D01*
X195949366Y-73635350D02*
X196016033Y-73602017D01*
X196016033Y-73602017D02*
X196082700Y-73535350D01*
X196082700Y-73535350D02*
X196116033Y-73435350D01*
X196116033Y-73435350D02*
X196116033Y-73368683D01*
X196116033Y-73368683D02*
X196082700Y-73268683D01*
X196082700Y-73268683D02*
X196049366Y-73235350D01*
X196049366Y-73235350D02*
X195816033Y-73235350D01*
X195816033Y-73235350D02*
X195816033Y-73368683D01*
X196116033Y-72935350D02*
X195416033Y-72935350D01*
X195416033Y-72935350D02*
X195416033Y-72668683D01*
X195416033Y-72668683D02*
X195449366Y-72602017D01*
X195449366Y-72602017D02*
X195482700Y-72568683D01*
X195482700Y-72568683D02*
X195549366Y-72535350D01*
X195549366Y-72535350D02*
X195649366Y-72535350D01*
X195649366Y-72535350D02*
X195716033Y-72568683D01*
X195716033Y-72568683D02*
X195749366Y-72602017D01*
X195749366Y-72602017D02*
X195782700Y-72668683D01*
X195782700Y-72668683D02*
X195782700Y-72935350D01*
X196116033Y-72235350D02*
X195416033Y-72235350D01*
X195416033Y-71768684D02*
X195416033Y-71635350D01*
X195416033Y-71635350D02*
X195449366Y-71568684D01*
X195449366Y-71568684D02*
X195516033Y-71502017D01*
X195516033Y-71502017D02*
X195649366Y-71468684D01*
X195649366Y-71468684D02*
X195882700Y-71468684D01*
X195882700Y-71468684D02*
X196016033Y-71502017D01*
X196016033Y-71502017D02*
X196082700Y-71568684D01*
X196082700Y-71568684D02*
X196116033Y-71635350D01*
X196116033Y-71635350D02*
X196116033Y-71768684D01*
X196116033Y-71768684D02*
X196082700Y-71835350D01*
X196082700Y-71835350D02*
X196016033Y-71902017D01*
X196016033Y-71902017D02*
X195882700Y-71935350D01*
X195882700Y-71935350D02*
X195649366Y-71935350D01*
X195649366Y-71935350D02*
X195516033Y-71902017D01*
X195516033Y-71902017D02*
X195449366Y-71835350D01*
X195449366Y-71835350D02*
X195416033Y-71768684D01*
X195482700Y-71202017D02*
X195449366Y-71168684D01*
X195449366Y-71168684D02*
X195416033Y-71102017D01*
X195416033Y-71102017D02*
X195416033Y-70935351D01*
X195416033Y-70935351D02*
X195449366Y-70868684D01*
X195449366Y-70868684D02*
X195482700Y-70835351D01*
X195482700Y-70835351D02*
X195549366Y-70802017D01*
X195549366Y-70802017D02*
X195616033Y-70802017D01*
X195616033Y-70802017D02*
X195716033Y-70835351D01*
X195716033Y-70835351D02*
X196116033Y-71235351D01*
X196116033Y-71235351D02*
X196116033Y-70802017D01*
X180209366Y-92797982D02*
X180176033Y-92864649D01*
X180176033Y-92864649D02*
X180176033Y-92964649D01*
X180176033Y-92964649D02*
X180209366Y-93064649D01*
X180209366Y-93064649D02*
X180276033Y-93131316D01*
X180276033Y-93131316D02*
X180342700Y-93164649D01*
X180342700Y-93164649D02*
X180476033Y-93197982D01*
X180476033Y-93197982D02*
X180576033Y-93197982D01*
X180576033Y-93197982D02*
X180709366Y-93164649D01*
X180709366Y-93164649D02*
X180776033Y-93131316D01*
X180776033Y-93131316D02*
X180842700Y-93064649D01*
X180842700Y-93064649D02*
X180876033Y-92964649D01*
X180876033Y-92964649D02*
X180876033Y-92897982D01*
X180876033Y-92897982D02*
X180842700Y-92797982D01*
X180842700Y-92797982D02*
X180809366Y-92764649D01*
X180809366Y-92764649D02*
X180576033Y-92764649D01*
X180576033Y-92764649D02*
X180576033Y-92897982D01*
X180876033Y-92464649D02*
X180176033Y-92464649D01*
X180176033Y-92464649D02*
X180176033Y-92197982D01*
X180176033Y-92197982D02*
X180209366Y-92131316D01*
X180209366Y-92131316D02*
X180242700Y-92097982D01*
X180242700Y-92097982D02*
X180309366Y-92064649D01*
X180309366Y-92064649D02*
X180409366Y-92064649D01*
X180409366Y-92064649D02*
X180476033Y-92097982D01*
X180476033Y-92097982D02*
X180509366Y-92131316D01*
X180509366Y-92131316D02*
X180542700Y-92197982D01*
X180542700Y-92197982D02*
X180542700Y-92464649D01*
X180876033Y-91764649D02*
X180176033Y-91764649D01*
X180176033Y-91297983D02*
X180176033Y-91164649D01*
X180176033Y-91164649D02*
X180209366Y-91097983D01*
X180209366Y-91097983D02*
X180276033Y-91031316D01*
X180276033Y-91031316D02*
X180409366Y-90997983D01*
X180409366Y-90997983D02*
X180642700Y-90997983D01*
X180642700Y-90997983D02*
X180776033Y-91031316D01*
X180776033Y-91031316D02*
X180842700Y-91097983D01*
X180842700Y-91097983D02*
X180876033Y-91164649D01*
X180876033Y-91164649D02*
X180876033Y-91297983D01*
X180876033Y-91297983D02*
X180842700Y-91364649D01*
X180842700Y-91364649D02*
X180776033Y-91431316D01*
X180776033Y-91431316D02*
X180642700Y-91464649D01*
X180642700Y-91464649D02*
X180409366Y-91464649D01*
X180409366Y-91464649D02*
X180276033Y-91431316D01*
X180276033Y-91431316D02*
X180209366Y-91364649D01*
X180209366Y-91364649D02*
X180176033Y-91297983D01*
X180242700Y-90731316D02*
X180209366Y-90697983D01*
X180209366Y-90697983D02*
X180176033Y-90631316D01*
X180176033Y-90631316D02*
X180176033Y-90464650D01*
X180176033Y-90464650D02*
X180209366Y-90397983D01*
X180209366Y-90397983D02*
X180242700Y-90364650D01*
X180242700Y-90364650D02*
X180309366Y-90331316D01*
X180309366Y-90331316D02*
X180376033Y-90331316D01*
X180376033Y-90331316D02*
X180476033Y-90364650D01*
X180476033Y-90364650D02*
X180876033Y-90764650D01*
X180876033Y-90764650D02*
X180876033Y-90331316D01*
X180176033Y-89697983D02*
X180176033Y-90031316D01*
X180176033Y-90031316D02*
X180509366Y-90064649D01*
X180509366Y-90064649D02*
X180476033Y-90031316D01*
X180476033Y-90031316D02*
X180442700Y-89964649D01*
X180442700Y-89964649D02*
X180442700Y-89797983D01*
X180442700Y-89797983D02*
X180476033Y-89731316D01*
X180476033Y-89731316D02*
X180509366Y-89697983D01*
X180509366Y-89697983D02*
X180576033Y-89664649D01*
X180576033Y-89664649D02*
X180742700Y-89664649D01*
X180742700Y-89664649D02*
X180809366Y-89697983D01*
X180809366Y-89697983D02*
X180842700Y-89731316D01*
X180842700Y-89731316D02*
X180876033Y-89797983D01*
X180876033Y-89797983D02*
X180876033Y-89964649D01*
X180876033Y-89964649D02*
X180842700Y-90031316D01*
X180842700Y-90031316D02*
X180809366Y-90064649D01*
X197989366Y-77435349D02*
X197956033Y-77502016D01*
X197956033Y-77502016D02*
X197956033Y-77602016D01*
X197956033Y-77602016D02*
X197989366Y-77702016D01*
X197989366Y-77702016D02*
X198056033Y-77768683D01*
X198056033Y-77768683D02*
X198122700Y-77802016D01*
X198122700Y-77802016D02*
X198256033Y-77835349D01*
X198256033Y-77835349D02*
X198356033Y-77835349D01*
X198356033Y-77835349D02*
X198489366Y-77802016D01*
X198489366Y-77802016D02*
X198556033Y-77768683D01*
X198556033Y-77768683D02*
X198622700Y-77702016D01*
X198622700Y-77702016D02*
X198656033Y-77602016D01*
X198656033Y-77602016D02*
X198656033Y-77535349D01*
X198656033Y-77535349D02*
X198622700Y-77435349D01*
X198622700Y-77435349D02*
X198589366Y-77402016D01*
X198589366Y-77402016D02*
X198356033Y-77402016D01*
X198356033Y-77402016D02*
X198356033Y-77535349D01*
X198656033Y-77102016D02*
X197956033Y-77102016D01*
X197956033Y-77102016D02*
X197956033Y-76835349D01*
X197956033Y-76835349D02*
X197989366Y-76768683D01*
X197989366Y-76768683D02*
X198022700Y-76735349D01*
X198022700Y-76735349D02*
X198089366Y-76702016D01*
X198089366Y-76702016D02*
X198189366Y-76702016D01*
X198189366Y-76702016D02*
X198256033Y-76735349D01*
X198256033Y-76735349D02*
X198289366Y-76768683D01*
X198289366Y-76768683D02*
X198322700Y-76835349D01*
X198322700Y-76835349D02*
X198322700Y-77102016D01*
X198656033Y-76402016D02*
X197956033Y-76402016D01*
X197956033Y-75935350D02*
X197956033Y-75802016D01*
X197956033Y-75802016D02*
X197989366Y-75735350D01*
X197989366Y-75735350D02*
X198056033Y-75668683D01*
X198056033Y-75668683D02*
X198189366Y-75635350D01*
X198189366Y-75635350D02*
X198422700Y-75635350D01*
X198422700Y-75635350D02*
X198556033Y-75668683D01*
X198556033Y-75668683D02*
X198622700Y-75735350D01*
X198622700Y-75735350D02*
X198656033Y-75802016D01*
X198656033Y-75802016D02*
X198656033Y-75935350D01*
X198656033Y-75935350D02*
X198622700Y-76002016D01*
X198622700Y-76002016D02*
X198556033Y-76068683D01*
X198556033Y-76068683D02*
X198422700Y-76102016D01*
X198422700Y-76102016D02*
X198189366Y-76102016D01*
X198189366Y-76102016D02*
X198056033Y-76068683D01*
X198056033Y-76068683D02*
X197989366Y-76002016D01*
X197989366Y-76002016D02*
X197956033Y-75935350D01*
X198656033Y-74968683D02*
X198656033Y-75368683D01*
X198656033Y-75168683D02*
X197956033Y-75168683D01*
X197956033Y-75168683D02*
X198056033Y-75235350D01*
X198056033Y-75235350D02*
X198122700Y-75302017D01*
X198122700Y-75302017D02*
X198156033Y-75368683D01*
X197956033Y-74335350D02*
X197956033Y-74668683D01*
X197956033Y-74668683D02*
X198289366Y-74702016D01*
X198289366Y-74702016D02*
X198256033Y-74668683D01*
X198256033Y-74668683D02*
X198222700Y-74602016D01*
X198222700Y-74602016D02*
X198222700Y-74435350D01*
X198222700Y-74435350D02*
X198256033Y-74368683D01*
X198256033Y-74368683D02*
X198289366Y-74335350D01*
X198289366Y-74335350D02*
X198356033Y-74302016D01*
X198356033Y-74302016D02*
X198522700Y-74302016D01*
X198522700Y-74302016D02*
X198589366Y-74335350D01*
X198589366Y-74335350D02*
X198622700Y-74368683D01*
X198622700Y-74368683D02*
X198656033Y-74435350D01*
X198656033Y-74435350D02*
X198656033Y-74602016D01*
X198656033Y-74602016D02*
X198622700Y-74668683D01*
X198622700Y-74668683D02*
X198589366Y-74702016D01*
X197922700Y-73502016D02*
X198822700Y-74102016D01*
X198656033Y-73268683D02*
X197956033Y-73268683D01*
X197956033Y-73268683D02*
X198456033Y-73035350D01*
X198456033Y-73035350D02*
X197956033Y-72802016D01*
X197956033Y-72802016D02*
X198656033Y-72802016D01*
X197956033Y-72568683D02*
X197956033Y-72168683D01*
X198656033Y-72368683D02*
X197956033Y-72368683D01*
X198656033Y-71935350D02*
X197956033Y-71935350D01*
X197956033Y-71935350D02*
X197956033Y-71768683D01*
X197956033Y-71768683D02*
X197989366Y-71668683D01*
X197989366Y-71668683D02*
X198056033Y-71602017D01*
X198056033Y-71602017D02*
X198122700Y-71568683D01*
X198122700Y-71568683D02*
X198256033Y-71535350D01*
X198256033Y-71535350D02*
X198356033Y-71535350D01*
X198356033Y-71535350D02*
X198489366Y-71568683D01*
X198489366Y-71568683D02*
X198556033Y-71602017D01*
X198556033Y-71602017D02*
X198622700Y-71668683D01*
X198622700Y-71668683D02*
X198656033Y-71768683D01*
X198656033Y-71768683D02*
X198656033Y-71935350D01*
X197956033Y-71102017D02*
X197956033Y-70968683D01*
X197956033Y-70968683D02*
X197989366Y-70902017D01*
X197989366Y-70902017D02*
X198056033Y-70835350D01*
X198056033Y-70835350D02*
X198189366Y-70802017D01*
X198189366Y-70802017D02*
X198422700Y-70802017D01*
X198422700Y-70802017D02*
X198556033Y-70835350D01*
X198556033Y-70835350D02*
X198622700Y-70902017D01*
X198622700Y-70902017D02*
X198656033Y-70968683D01*
X198656033Y-70968683D02*
X198656033Y-71102017D01*
X198656033Y-71102017D02*
X198622700Y-71168683D01*
X198622700Y-71168683D02*
X198556033Y-71235350D01*
X198556033Y-71235350D02*
X198422700Y-71268683D01*
X198422700Y-71268683D02*
X198189366Y-71268683D01*
X198189366Y-71268683D02*
X198056033Y-71235350D01*
X198056033Y-71235350D02*
X197989366Y-71168683D01*
X197989366Y-71168683D02*
X197956033Y-71102017D01*
X187829366Y-73935350D02*
X187796033Y-74002017D01*
X187796033Y-74002017D02*
X187796033Y-74102017D01*
X187796033Y-74102017D02*
X187829366Y-74202017D01*
X187829366Y-74202017D02*
X187896033Y-74268684D01*
X187896033Y-74268684D02*
X187962700Y-74302017D01*
X187962700Y-74302017D02*
X188096033Y-74335350D01*
X188096033Y-74335350D02*
X188196033Y-74335350D01*
X188196033Y-74335350D02*
X188329366Y-74302017D01*
X188329366Y-74302017D02*
X188396033Y-74268684D01*
X188396033Y-74268684D02*
X188462700Y-74202017D01*
X188462700Y-74202017D02*
X188496033Y-74102017D01*
X188496033Y-74102017D02*
X188496033Y-74035350D01*
X188496033Y-74035350D02*
X188462700Y-73935350D01*
X188462700Y-73935350D02*
X188429366Y-73902017D01*
X188429366Y-73902017D02*
X188196033Y-73902017D01*
X188196033Y-73902017D02*
X188196033Y-74035350D01*
X188496033Y-73602017D02*
X187796033Y-73602017D01*
X187796033Y-73602017D02*
X187796033Y-73335350D01*
X187796033Y-73335350D02*
X187829366Y-73268684D01*
X187829366Y-73268684D02*
X187862700Y-73235350D01*
X187862700Y-73235350D02*
X187929366Y-73202017D01*
X187929366Y-73202017D02*
X188029366Y-73202017D01*
X188029366Y-73202017D02*
X188096033Y-73235350D01*
X188096033Y-73235350D02*
X188129366Y-73268684D01*
X188129366Y-73268684D02*
X188162700Y-73335350D01*
X188162700Y-73335350D02*
X188162700Y-73602017D01*
X188496033Y-72902017D02*
X187796033Y-72902017D01*
X187796033Y-72435351D02*
X187796033Y-72302017D01*
X187796033Y-72302017D02*
X187829366Y-72235351D01*
X187829366Y-72235351D02*
X187896033Y-72168684D01*
X187896033Y-72168684D02*
X188029366Y-72135351D01*
X188029366Y-72135351D02*
X188262700Y-72135351D01*
X188262700Y-72135351D02*
X188396033Y-72168684D01*
X188396033Y-72168684D02*
X188462700Y-72235351D01*
X188462700Y-72235351D02*
X188496033Y-72302017D01*
X188496033Y-72302017D02*
X188496033Y-72435351D01*
X188496033Y-72435351D02*
X188462700Y-72502017D01*
X188462700Y-72502017D02*
X188396033Y-72568684D01*
X188396033Y-72568684D02*
X188262700Y-72602017D01*
X188262700Y-72602017D02*
X188029366Y-72602017D01*
X188029366Y-72602017D02*
X187896033Y-72568684D01*
X187896033Y-72568684D02*
X187829366Y-72502017D01*
X187829366Y-72502017D02*
X187796033Y-72435351D01*
X188496033Y-71468684D02*
X188496033Y-71868684D01*
X188496033Y-71668684D02*
X187796033Y-71668684D01*
X187796033Y-71668684D02*
X187896033Y-71735351D01*
X187896033Y-71735351D02*
X187962700Y-71802018D01*
X187962700Y-71802018D02*
X187996033Y-71868684D01*
X187796033Y-70868684D02*
X187796033Y-71002017D01*
X187796033Y-71002017D02*
X187829366Y-71068684D01*
X187829366Y-71068684D02*
X187862700Y-71102017D01*
X187862700Y-71102017D02*
X187962700Y-71168684D01*
X187962700Y-71168684D02*
X188096033Y-71202017D01*
X188096033Y-71202017D02*
X188362700Y-71202017D01*
X188362700Y-71202017D02*
X188429366Y-71168684D01*
X188429366Y-71168684D02*
X188462700Y-71135351D01*
X188462700Y-71135351D02*
X188496033Y-71068684D01*
X188496033Y-71068684D02*
X188496033Y-70935351D01*
X188496033Y-70935351D02*
X188462700Y-70868684D01*
X188462700Y-70868684D02*
X188429366Y-70835351D01*
X188429366Y-70835351D02*
X188362700Y-70802017D01*
X188362700Y-70802017D02*
X188196033Y-70802017D01*
X188196033Y-70802017D02*
X188129366Y-70835351D01*
X188129366Y-70835351D02*
X188096033Y-70868684D01*
X188096033Y-70868684D02*
X188062700Y-70935351D01*
X188062700Y-70935351D02*
X188062700Y-71068684D01*
X188062700Y-71068684D02*
X188096033Y-71135351D01*
X188096033Y-71135351D02*
X188129366Y-71168684D01*
X188129366Y-71168684D02*
X188196033Y-71202017D01*
X167509366Y-77302016D02*
X167476033Y-77368683D01*
X167476033Y-77368683D02*
X167476033Y-77468683D01*
X167476033Y-77468683D02*
X167509366Y-77568683D01*
X167509366Y-77568683D02*
X167576033Y-77635350D01*
X167576033Y-77635350D02*
X167642700Y-77668683D01*
X167642700Y-77668683D02*
X167776033Y-77702016D01*
X167776033Y-77702016D02*
X167876033Y-77702016D01*
X167876033Y-77702016D02*
X168009366Y-77668683D01*
X168009366Y-77668683D02*
X168076033Y-77635350D01*
X168076033Y-77635350D02*
X168142700Y-77568683D01*
X168142700Y-77568683D02*
X168176033Y-77468683D01*
X168176033Y-77468683D02*
X168176033Y-77402016D01*
X168176033Y-77402016D02*
X168142700Y-77302016D01*
X168142700Y-77302016D02*
X168109366Y-77268683D01*
X168109366Y-77268683D02*
X167876033Y-77268683D01*
X167876033Y-77268683D02*
X167876033Y-77402016D01*
X168176033Y-76968683D02*
X167476033Y-76968683D01*
X167476033Y-76968683D02*
X167476033Y-76702016D01*
X167476033Y-76702016D02*
X167509366Y-76635350D01*
X167509366Y-76635350D02*
X167542700Y-76602016D01*
X167542700Y-76602016D02*
X167609366Y-76568683D01*
X167609366Y-76568683D02*
X167709366Y-76568683D01*
X167709366Y-76568683D02*
X167776033Y-76602016D01*
X167776033Y-76602016D02*
X167809366Y-76635350D01*
X167809366Y-76635350D02*
X167842700Y-76702016D01*
X167842700Y-76702016D02*
X167842700Y-76968683D01*
X168176033Y-76268683D02*
X167476033Y-76268683D01*
X167476033Y-75802017D02*
X167476033Y-75668683D01*
X167476033Y-75668683D02*
X167509366Y-75602017D01*
X167509366Y-75602017D02*
X167576033Y-75535350D01*
X167576033Y-75535350D02*
X167709366Y-75502017D01*
X167709366Y-75502017D02*
X167942700Y-75502017D01*
X167942700Y-75502017D02*
X168076033Y-75535350D01*
X168076033Y-75535350D02*
X168142700Y-75602017D01*
X168142700Y-75602017D02*
X168176033Y-75668683D01*
X168176033Y-75668683D02*
X168176033Y-75802017D01*
X168176033Y-75802017D02*
X168142700Y-75868683D01*
X168142700Y-75868683D02*
X168076033Y-75935350D01*
X168076033Y-75935350D02*
X167942700Y-75968683D01*
X167942700Y-75968683D02*
X167709366Y-75968683D01*
X167709366Y-75968683D02*
X167576033Y-75935350D01*
X167576033Y-75935350D02*
X167509366Y-75868683D01*
X167509366Y-75868683D02*
X167476033Y-75802017D01*
X168176033Y-74835350D02*
X168176033Y-75235350D01*
X168176033Y-75035350D02*
X167476033Y-75035350D01*
X167476033Y-75035350D02*
X167576033Y-75102017D01*
X167576033Y-75102017D02*
X167642700Y-75168684D01*
X167642700Y-75168684D02*
X167676033Y-75235350D01*
X167442700Y-74035350D02*
X168342700Y-74635350D01*
X167476033Y-73802017D02*
X168042700Y-73802017D01*
X168042700Y-73802017D02*
X168109366Y-73768684D01*
X168109366Y-73768684D02*
X168142700Y-73735350D01*
X168142700Y-73735350D02*
X168176033Y-73668684D01*
X168176033Y-73668684D02*
X168176033Y-73535350D01*
X168176033Y-73535350D02*
X168142700Y-73468684D01*
X168142700Y-73468684D02*
X168109366Y-73435350D01*
X168109366Y-73435350D02*
X168042700Y-73402017D01*
X168042700Y-73402017D02*
X167476033Y-73402017D01*
X167476033Y-72935351D02*
X167476033Y-72868684D01*
X167476033Y-72868684D02*
X167509366Y-72802017D01*
X167509366Y-72802017D02*
X167542700Y-72768684D01*
X167542700Y-72768684D02*
X167609366Y-72735351D01*
X167609366Y-72735351D02*
X167742700Y-72702017D01*
X167742700Y-72702017D02*
X167909366Y-72702017D01*
X167909366Y-72702017D02*
X168042700Y-72735351D01*
X168042700Y-72735351D02*
X168109366Y-72768684D01*
X168109366Y-72768684D02*
X168142700Y-72802017D01*
X168142700Y-72802017D02*
X168176033Y-72868684D01*
X168176033Y-72868684D02*
X168176033Y-72935351D01*
X168176033Y-72935351D02*
X168142700Y-73002017D01*
X168142700Y-73002017D02*
X168109366Y-73035351D01*
X168109366Y-73035351D02*
X168042700Y-73068684D01*
X168042700Y-73068684D02*
X167909366Y-73102017D01*
X167909366Y-73102017D02*
X167742700Y-73102017D01*
X167742700Y-73102017D02*
X167609366Y-73068684D01*
X167609366Y-73068684D02*
X167542700Y-73035351D01*
X167542700Y-73035351D02*
X167509366Y-73002017D01*
X167509366Y-73002017D02*
X167476033Y-72935351D01*
X167476033Y-72502017D02*
X167476033Y-72102017D01*
X168176033Y-72302017D02*
X167476033Y-72302017D01*
X167476033Y-71935351D02*
X168176033Y-71468684D01*
X167476033Y-71468684D02*
X168176033Y-71935351D01*
X168176033Y-71202017D02*
X167476033Y-71202017D01*
X167476033Y-71202017D02*
X167476033Y-71035350D01*
X167476033Y-71035350D02*
X167509366Y-70935350D01*
X167509366Y-70935350D02*
X167576033Y-70868684D01*
X167576033Y-70868684D02*
X167642700Y-70835350D01*
X167642700Y-70835350D02*
X167776033Y-70802017D01*
X167776033Y-70802017D02*
X167876033Y-70802017D01*
X167876033Y-70802017D02*
X168009366Y-70835350D01*
X168009366Y-70835350D02*
X168076033Y-70868684D01*
X168076033Y-70868684D02*
X168142700Y-70935350D01*
X168142700Y-70935350D02*
X168176033Y-71035350D01*
X168176033Y-71035350D02*
X168176033Y-71202017D01*
X177669366Y-73935350D02*
X177636033Y-74002017D01*
X177636033Y-74002017D02*
X177636033Y-74102017D01*
X177636033Y-74102017D02*
X177669366Y-74202017D01*
X177669366Y-74202017D02*
X177736033Y-74268684D01*
X177736033Y-74268684D02*
X177802700Y-74302017D01*
X177802700Y-74302017D02*
X177936033Y-74335350D01*
X177936033Y-74335350D02*
X178036033Y-74335350D01*
X178036033Y-74335350D02*
X178169366Y-74302017D01*
X178169366Y-74302017D02*
X178236033Y-74268684D01*
X178236033Y-74268684D02*
X178302700Y-74202017D01*
X178302700Y-74202017D02*
X178336033Y-74102017D01*
X178336033Y-74102017D02*
X178336033Y-74035350D01*
X178336033Y-74035350D02*
X178302700Y-73935350D01*
X178302700Y-73935350D02*
X178269366Y-73902017D01*
X178269366Y-73902017D02*
X178036033Y-73902017D01*
X178036033Y-73902017D02*
X178036033Y-74035350D01*
X178336033Y-73602017D02*
X177636033Y-73602017D01*
X177636033Y-73602017D02*
X177636033Y-73335350D01*
X177636033Y-73335350D02*
X177669366Y-73268684D01*
X177669366Y-73268684D02*
X177702700Y-73235350D01*
X177702700Y-73235350D02*
X177769366Y-73202017D01*
X177769366Y-73202017D02*
X177869366Y-73202017D01*
X177869366Y-73202017D02*
X177936033Y-73235350D01*
X177936033Y-73235350D02*
X177969366Y-73268684D01*
X177969366Y-73268684D02*
X178002700Y-73335350D01*
X178002700Y-73335350D02*
X178002700Y-73602017D01*
X178336033Y-72902017D02*
X177636033Y-72902017D01*
X177636033Y-72435351D02*
X177636033Y-72302017D01*
X177636033Y-72302017D02*
X177669366Y-72235351D01*
X177669366Y-72235351D02*
X177736033Y-72168684D01*
X177736033Y-72168684D02*
X177869366Y-72135351D01*
X177869366Y-72135351D02*
X178102700Y-72135351D01*
X178102700Y-72135351D02*
X178236033Y-72168684D01*
X178236033Y-72168684D02*
X178302700Y-72235351D01*
X178302700Y-72235351D02*
X178336033Y-72302017D01*
X178336033Y-72302017D02*
X178336033Y-72435351D01*
X178336033Y-72435351D02*
X178302700Y-72502017D01*
X178302700Y-72502017D02*
X178236033Y-72568684D01*
X178236033Y-72568684D02*
X178102700Y-72602017D01*
X178102700Y-72602017D02*
X177869366Y-72602017D01*
X177869366Y-72602017D02*
X177736033Y-72568684D01*
X177736033Y-72568684D02*
X177669366Y-72502017D01*
X177669366Y-72502017D02*
X177636033Y-72435351D01*
X178336033Y-71468684D02*
X178336033Y-71868684D01*
X178336033Y-71668684D02*
X177636033Y-71668684D01*
X177636033Y-71668684D02*
X177736033Y-71735351D01*
X177736033Y-71735351D02*
X177802700Y-71802018D01*
X177802700Y-71802018D02*
X177836033Y-71868684D01*
X178336033Y-71135351D02*
X178336033Y-71002017D01*
X178336033Y-71002017D02*
X178302700Y-70935351D01*
X178302700Y-70935351D02*
X178269366Y-70902017D01*
X178269366Y-70902017D02*
X178169366Y-70835351D01*
X178169366Y-70835351D02*
X178036033Y-70802017D01*
X178036033Y-70802017D02*
X177769366Y-70802017D01*
X177769366Y-70802017D02*
X177702700Y-70835351D01*
X177702700Y-70835351D02*
X177669366Y-70868684D01*
X177669366Y-70868684D02*
X177636033Y-70935351D01*
X177636033Y-70935351D02*
X177636033Y-71068684D01*
X177636033Y-71068684D02*
X177669366Y-71135351D01*
X177669366Y-71135351D02*
X177702700Y-71168684D01*
X177702700Y-71168684D02*
X177769366Y-71202017D01*
X177769366Y-71202017D02*
X177936033Y-71202017D01*
X177936033Y-71202017D02*
X178002700Y-71168684D01*
X178002700Y-71168684D02*
X178036033Y-71135351D01*
X178036033Y-71135351D02*
X178069366Y-71068684D01*
X178069366Y-71068684D02*
X178069366Y-70935351D01*
X178069366Y-70935351D02*
X178036033Y-70868684D01*
X178036033Y-70868684D02*
X178002700Y-70835351D01*
X178002700Y-70835351D02*
X177936033Y-70802017D01*
X185289366Y-73935350D02*
X185256033Y-74002017D01*
X185256033Y-74002017D02*
X185256033Y-74102017D01*
X185256033Y-74102017D02*
X185289366Y-74202017D01*
X185289366Y-74202017D02*
X185356033Y-74268684D01*
X185356033Y-74268684D02*
X185422700Y-74302017D01*
X185422700Y-74302017D02*
X185556033Y-74335350D01*
X185556033Y-74335350D02*
X185656033Y-74335350D01*
X185656033Y-74335350D02*
X185789366Y-74302017D01*
X185789366Y-74302017D02*
X185856033Y-74268684D01*
X185856033Y-74268684D02*
X185922700Y-74202017D01*
X185922700Y-74202017D02*
X185956033Y-74102017D01*
X185956033Y-74102017D02*
X185956033Y-74035350D01*
X185956033Y-74035350D02*
X185922700Y-73935350D01*
X185922700Y-73935350D02*
X185889366Y-73902017D01*
X185889366Y-73902017D02*
X185656033Y-73902017D01*
X185656033Y-73902017D02*
X185656033Y-74035350D01*
X185956033Y-73602017D02*
X185256033Y-73602017D01*
X185256033Y-73602017D02*
X185256033Y-73335350D01*
X185256033Y-73335350D02*
X185289366Y-73268684D01*
X185289366Y-73268684D02*
X185322700Y-73235350D01*
X185322700Y-73235350D02*
X185389366Y-73202017D01*
X185389366Y-73202017D02*
X185489366Y-73202017D01*
X185489366Y-73202017D02*
X185556033Y-73235350D01*
X185556033Y-73235350D02*
X185589366Y-73268684D01*
X185589366Y-73268684D02*
X185622700Y-73335350D01*
X185622700Y-73335350D02*
X185622700Y-73602017D01*
X185956033Y-72902017D02*
X185256033Y-72902017D01*
X185256033Y-72435351D02*
X185256033Y-72302017D01*
X185256033Y-72302017D02*
X185289366Y-72235351D01*
X185289366Y-72235351D02*
X185356033Y-72168684D01*
X185356033Y-72168684D02*
X185489366Y-72135351D01*
X185489366Y-72135351D02*
X185722700Y-72135351D01*
X185722700Y-72135351D02*
X185856033Y-72168684D01*
X185856033Y-72168684D02*
X185922700Y-72235351D01*
X185922700Y-72235351D02*
X185956033Y-72302017D01*
X185956033Y-72302017D02*
X185956033Y-72435351D01*
X185956033Y-72435351D02*
X185922700Y-72502017D01*
X185922700Y-72502017D02*
X185856033Y-72568684D01*
X185856033Y-72568684D02*
X185722700Y-72602017D01*
X185722700Y-72602017D02*
X185489366Y-72602017D01*
X185489366Y-72602017D02*
X185356033Y-72568684D01*
X185356033Y-72568684D02*
X185289366Y-72502017D01*
X185289366Y-72502017D02*
X185256033Y-72435351D01*
X185956033Y-71468684D02*
X185956033Y-71868684D01*
X185956033Y-71668684D02*
X185256033Y-71668684D01*
X185256033Y-71668684D02*
X185356033Y-71735351D01*
X185356033Y-71735351D02*
X185422700Y-71802018D01*
X185422700Y-71802018D02*
X185456033Y-71868684D01*
X185256033Y-71235351D02*
X185256033Y-70768684D01*
X185256033Y-70768684D02*
X185956033Y-71068684D01*
X192909366Y-73268683D02*
X192876033Y-73335350D01*
X192876033Y-73335350D02*
X192876033Y-73435350D01*
X192876033Y-73435350D02*
X192909366Y-73535350D01*
X192909366Y-73535350D02*
X192976033Y-73602017D01*
X192976033Y-73602017D02*
X193042700Y-73635350D01*
X193042700Y-73635350D02*
X193176033Y-73668683D01*
X193176033Y-73668683D02*
X193276033Y-73668683D01*
X193276033Y-73668683D02*
X193409366Y-73635350D01*
X193409366Y-73635350D02*
X193476033Y-73602017D01*
X193476033Y-73602017D02*
X193542700Y-73535350D01*
X193542700Y-73535350D02*
X193576033Y-73435350D01*
X193576033Y-73435350D02*
X193576033Y-73368683D01*
X193576033Y-73368683D02*
X193542700Y-73268683D01*
X193542700Y-73268683D02*
X193509366Y-73235350D01*
X193509366Y-73235350D02*
X193276033Y-73235350D01*
X193276033Y-73235350D02*
X193276033Y-73368683D01*
X193576033Y-72935350D02*
X192876033Y-72935350D01*
X192876033Y-72935350D02*
X192876033Y-72668683D01*
X192876033Y-72668683D02*
X192909366Y-72602017D01*
X192909366Y-72602017D02*
X192942700Y-72568683D01*
X192942700Y-72568683D02*
X193009366Y-72535350D01*
X193009366Y-72535350D02*
X193109366Y-72535350D01*
X193109366Y-72535350D02*
X193176033Y-72568683D01*
X193176033Y-72568683D02*
X193209366Y-72602017D01*
X193209366Y-72602017D02*
X193242700Y-72668683D01*
X193242700Y-72668683D02*
X193242700Y-72935350D01*
X193576033Y-72235350D02*
X192876033Y-72235350D01*
X192876033Y-71768684D02*
X192876033Y-71635350D01*
X192876033Y-71635350D02*
X192909366Y-71568684D01*
X192909366Y-71568684D02*
X192976033Y-71502017D01*
X192976033Y-71502017D02*
X193109366Y-71468684D01*
X193109366Y-71468684D02*
X193342700Y-71468684D01*
X193342700Y-71468684D02*
X193476033Y-71502017D01*
X193476033Y-71502017D02*
X193542700Y-71568684D01*
X193542700Y-71568684D02*
X193576033Y-71635350D01*
X193576033Y-71635350D02*
X193576033Y-71768684D01*
X193576033Y-71768684D02*
X193542700Y-71835350D01*
X193542700Y-71835350D02*
X193476033Y-71902017D01*
X193476033Y-71902017D02*
X193342700Y-71935350D01*
X193342700Y-71935350D02*
X193109366Y-71935350D01*
X193109366Y-71935350D02*
X192976033Y-71902017D01*
X192976033Y-71902017D02*
X192909366Y-71835350D01*
X192909366Y-71835350D02*
X192876033Y-71768684D01*
X192876033Y-71035351D02*
X192876033Y-70968684D01*
X192876033Y-70968684D02*
X192909366Y-70902017D01*
X192909366Y-70902017D02*
X192942700Y-70868684D01*
X192942700Y-70868684D02*
X193009366Y-70835351D01*
X193009366Y-70835351D02*
X193142700Y-70802017D01*
X193142700Y-70802017D02*
X193309366Y-70802017D01*
X193309366Y-70802017D02*
X193442700Y-70835351D01*
X193442700Y-70835351D02*
X193509366Y-70868684D01*
X193509366Y-70868684D02*
X193542700Y-70902017D01*
X193542700Y-70902017D02*
X193576033Y-70968684D01*
X193576033Y-70968684D02*
X193576033Y-71035351D01*
X193576033Y-71035351D02*
X193542700Y-71102017D01*
X193542700Y-71102017D02*
X193509366Y-71135351D01*
X193509366Y-71135351D02*
X193442700Y-71168684D01*
X193442700Y-71168684D02*
X193309366Y-71202017D01*
X193309366Y-71202017D02*
X193142700Y-71202017D01*
X193142700Y-71202017D02*
X193009366Y-71168684D01*
X193009366Y-71168684D02*
X192942700Y-71135351D01*
X192942700Y-71135351D02*
X192909366Y-71102017D01*
X192909366Y-71102017D02*
X192876033Y-71035351D01*
X162708289Y-93198078D02*
X162708289Y-92864745D01*
X163232099Y-92721888D02*
X163232099Y-93198078D01*
X163232099Y-93198078D02*
X162232099Y-93198078D01*
X162232099Y-93198078D02*
X162232099Y-92721888D01*
X163232099Y-92293316D02*
X162232099Y-92293316D01*
X162232099Y-92293316D02*
X163232099Y-91721888D01*
X163232099Y-91721888D02*
X162232099Y-91721888D01*
X162184480Y-90531412D02*
X163470194Y-91388554D01*
X163232099Y-89626650D02*
X162755908Y-89959983D01*
X163232099Y-90198078D02*
X162232099Y-90198078D01*
X162232099Y-90198078D02*
X162232099Y-89817126D01*
X162232099Y-89817126D02*
X162279718Y-89721888D01*
X162279718Y-89721888D02*
X162327337Y-89674269D01*
X162327337Y-89674269D02*
X162422575Y-89626650D01*
X162422575Y-89626650D02*
X162565432Y-89626650D01*
X162565432Y-89626650D02*
X162660670Y-89674269D01*
X162660670Y-89674269D02*
X162708289Y-89721888D01*
X162708289Y-89721888D02*
X162755908Y-89817126D01*
X162755908Y-89817126D02*
X162755908Y-90198078D01*
X162708289Y-89198078D02*
X162708289Y-88864745D01*
X163232099Y-88721888D02*
X163232099Y-89198078D01*
X163232099Y-89198078D02*
X162232099Y-89198078D01*
X162232099Y-89198078D02*
X162232099Y-88721888D01*
X163184480Y-88340935D02*
X163232099Y-88198078D01*
X163232099Y-88198078D02*
X163232099Y-87959983D01*
X163232099Y-87959983D02*
X163184480Y-87864745D01*
X163184480Y-87864745D02*
X163136860Y-87817126D01*
X163136860Y-87817126D02*
X163041622Y-87769507D01*
X163041622Y-87769507D02*
X162946384Y-87769507D01*
X162946384Y-87769507D02*
X162851146Y-87817126D01*
X162851146Y-87817126D02*
X162803527Y-87864745D01*
X162803527Y-87864745D02*
X162755908Y-87959983D01*
X162755908Y-87959983D02*
X162708289Y-88150459D01*
X162708289Y-88150459D02*
X162660670Y-88245697D01*
X162660670Y-88245697D02*
X162613051Y-88293316D01*
X162613051Y-88293316D02*
X162517813Y-88340935D01*
X162517813Y-88340935D02*
X162422575Y-88340935D01*
X162422575Y-88340935D02*
X162327337Y-88293316D01*
X162327337Y-88293316D02*
X162279718Y-88245697D01*
X162279718Y-88245697D02*
X162232099Y-88150459D01*
X162232099Y-88150459D02*
X162232099Y-87912364D01*
X162232099Y-87912364D02*
X162279718Y-87769507D01*
X162708289Y-87340935D02*
X162708289Y-87007602D01*
X163232099Y-86864745D02*
X163232099Y-87340935D01*
X163232099Y-87340935D02*
X162232099Y-87340935D01*
X162232099Y-87340935D02*
X162232099Y-86864745D01*
X162232099Y-86579030D02*
X162232099Y-86007602D01*
X163232099Y-86293316D02*
X162232099Y-86293316D01*
X126066667Y-101357200D02*
X126209524Y-101404819D01*
X126209524Y-101404819D02*
X126447619Y-101404819D01*
X126447619Y-101404819D02*
X126542857Y-101357200D01*
X126542857Y-101357200D02*
X126590476Y-101309580D01*
X126590476Y-101309580D02*
X126638095Y-101214342D01*
X126638095Y-101214342D02*
X126638095Y-101119104D01*
X126638095Y-101119104D02*
X126590476Y-101023866D01*
X126590476Y-101023866D02*
X126542857Y-100976247D01*
X126542857Y-100976247D02*
X126447619Y-100928628D01*
X126447619Y-100928628D02*
X126257143Y-100881009D01*
X126257143Y-100881009D02*
X126161905Y-100833390D01*
X126161905Y-100833390D02*
X126114286Y-100785771D01*
X126114286Y-100785771D02*
X126066667Y-100690533D01*
X126066667Y-100690533D02*
X126066667Y-100595295D01*
X126066667Y-100595295D02*
X126114286Y-100500057D01*
X126114286Y-100500057D02*
X126161905Y-100452438D01*
X126161905Y-100452438D02*
X126257143Y-100404819D01*
X126257143Y-100404819D02*
X126495238Y-100404819D01*
X126495238Y-100404819D02*
X126638095Y-100452438D01*
X126971429Y-100404819D02*
X127209524Y-101404819D01*
X127209524Y-101404819D02*
X127400000Y-100690533D01*
X127400000Y-100690533D02*
X127590476Y-101404819D01*
X127590476Y-101404819D02*
X127828572Y-100404819D01*
X128733333Y-101404819D02*
X128161905Y-101404819D01*
X128447619Y-101404819D02*
X128447619Y-100404819D01*
X128447619Y-100404819D02*
X128352381Y-100547676D01*
X128352381Y-100547676D02*
X128257143Y-100642914D01*
X128257143Y-100642914D02*
X128161905Y-100690533D01*
X134683333Y-104534819D02*
X134350000Y-104058628D01*
X134111905Y-104534819D02*
X134111905Y-103534819D01*
X134111905Y-103534819D02*
X134492857Y-103534819D01*
X134492857Y-103534819D02*
X134588095Y-103582438D01*
X134588095Y-103582438D02*
X134635714Y-103630057D01*
X134635714Y-103630057D02*
X134683333Y-103725295D01*
X134683333Y-103725295D02*
X134683333Y-103868152D01*
X134683333Y-103868152D02*
X134635714Y-103963390D01*
X134635714Y-103963390D02*
X134588095Y-104011009D01*
X134588095Y-104011009D02*
X134492857Y-104058628D01*
X134492857Y-104058628D02*
X134111905Y-104058628D01*
X135635714Y-104534819D02*
X135064286Y-104534819D01*
X135350000Y-104534819D02*
X135350000Y-103534819D01*
X135350000Y-103534819D02*
X135254762Y-103677676D01*
X135254762Y-103677676D02*
X135159524Y-103772914D01*
X135159524Y-103772914D02*
X135064286Y-103820533D01*
X146783333Y-116434819D02*
X146450000Y-115958628D01*
X146211905Y-116434819D02*
X146211905Y-115434819D01*
X146211905Y-115434819D02*
X146592857Y-115434819D01*
X146592857Y-115434819D02*
X146688095Y-115482438D01*
X146688095Y-115482438D02*
X146735714Y-115530057D01*
X146735714Y-115530057D02*
X146783333Y-115625295D01*
X146783333Y-115625295D02*
X146783333Y-115768152D01*
X146783333Y-115768152D02*
X146735714Y-115863390D01*
X146735714Y-115863390D02*
X146688095Y-115911009D01*
X146688095Y-115911009D02*
X146592857Y-115958628D01*
X146592857Y-115958628D02*
X146211905Y-115958628D01*
X147116667Y-115434819D02*
X147735714Y-115434819D01*
X147735714Y-115434819D02*
X147402381Y-115815771D01*
X147402381Y-115815771D02*
X147545238Y-115815771D01*
X147545238Y-115815771D02*
X147640476Y-115863390D01*
X147640476Y-115863390D02*
X147688095Y-115911009D01*
X147688095Y-115911009D02*
X147735714Y-116006247D01*
X147735714Y-116006247D02*
X147735714Y-116244342D01*
X147735714Y-116244342D02*
X147688095Y-116339580D01*
X147688095Y-116339580D02*
X147640476Y-116387200D01*
X147640476Y-116387200D02*
X147545238Y-116434819D01*
X147545238Y-116434819D02*
X147259524Y-116434819D01*
X147259524Y-116434819D02*
X147164286Y-116387200D01*
X147164286Y-116387200D02*
X147116667Y-116339580D01*
D15*
%TO.C,R2*%
X154411252Y-101665000D02*
X153888748Y-101665000D01*
X154411252Y-103135000D02*
X153888748Y-103135000D01*
D16*
%TO.C,U2*%
X123500000Y-68200000D02*
X149500000Y-68200000D01*
X123500000Y-94200000D02*
X123500000Y-68200000D01*
X129500000Y-92200000D02*
X129500000Y-94200000D01*
X129500000Y-94200000D02*
X123500000Y-94200000D01*
X143500000Y-92200000D02*
X129500000Y-92200000D01*
X143500000Y-94200000D02*
X143500000Y-92200000D01*
X149500000Y-68200000D02*
X149500000Y-94200000D01*
X149500000Y-94200000D02*
X143500000Y-94200000D01*
D17*
X132600000Y-67700000D02*
G75*
G02*
X132400000Y-67700000I-100000J0D01*
G01*
X132400000Y-67700000D02*
G75*
G02*
X132600000Y-67700000I100000J0D01*
G01*
D15*
%TO.C,SW2*%
X142500000Y-104350000D02*
X142500000Y-105850000D01*
X143750000Y-108350000D02*
X148250000Y-108350000D01*
X148250000Y-101850000D02*
X143750000Y-101850000D01*
X149500000Y-105850000D02*
X149500000Y-104350000D01*
%TO.C,SW3*%
X133400000Y-116350000D02*
X133400000Y-117850000D01*
X134650000Y-120350000D02*
X139150000Y-120350000D01*
X139150000Y-113850000D02*
X134650000Y-113850000D01*
X140400000Y-117850000D02*
X140400000Y-116350000D01*
D18*
%TO.C,G\u002A\u002A\u002A*%
G36*
X194604645Y-110770482D02*
G01*
X194754876Y-110770513D01*
X194754876Y-111246855D01*
X194754876Y-111723197D01*
X194600664Y-111723197D01*
X194446453Y-111723197D01*
X194450434Y-112331292D01*
X194451290Y-112485221D01*
X194451616Y-112612220D01*
X194451353Y-112714670D01*
X194450440Y-112794950D01*
X194448817Y-112855440D01*
X194446424Y-112898520D01*
X194443201Y-112926569D01*
X194439088Y-112941969D01*
X194434895Y-112946872D01*
X194412338Y-112950148D01*
X194368125Y-112952696D01*
X194309911Y-112954152D01*
X194277335Y-112954356D01*
X194139296Y-112954356D01*
X194139296Y-113401385D01*
X194139296Y-113848413D01*
X193992729Y-113848413D01*
X193846163Y-113848413D01*
X193846163Y-114009636D01*
X193846163Y-114170860D01*
X193685452Y-114170860D01*
X193524741Y-114170860D01*
X193520565Y-114321090D01*
X193516388Y-114471321D01*
X193376423Y-114475481D01*
X193314986Y-114476264D01*
X193264955Y-114474951D01*
X193233304Y-114471825D01*
X193226192Y-114469374D01*
X193223628Y-114452676D01*
X193221297Y-114410338D01*
X193219284Y-114346033D01*
X193217671Y-114263436D01*
X193216540Y-114166219D01*
X193215975Y-114058055D01*
X193215926Y-114014522D01*
X193215926Y-113569936D01*
X193377149Y-113569936D01*
X193538373Y-113569936D01*
X193538373Y-113262146D01*
X193538373Y-112954356D01*
X193692268Y-112954356D01*
X193846163Y-112954356D01*
X193846163Y-112646566D01*
X193846163Y-112338777D01*
X193686702Y-112338777D01*
X193527240Y-112338777D01*
X193534882Y-112500000D01*
X193542524Y-112661223D01*
X193379225Y-112661223D01*
X193215926Y-112661223D01*
X193215926Y-112353433D01*
X193216093Y-112261175D01*
X193216561Y-112178916D01*
X193217277Y-112111144D01*
X193218190Y-112062348D01*
X193219248Y-112037016D01*
X193219590Y-112034651D01*
X193234808Y-112030176D01*
X193273165Y-112026579D01*
X193328491Y-112024280D01*
X193380831Y-112023658D01*
X193538407Y-112023658D01*
X193538390Y-111866712D01*
X193538373Y-111709766D01*
X193684939Y-111718695D01*
X193831506Y-111727625D01*
X193831506Y-111564187D01*
X193831506Y-111400750D01*
X193985401Y-111400750D01*
X194139296Y-111400750D01*
X194139296Y-111239527D01*
X194139296Y-111078303D01*
X194301462Y-111078303D01*
X194463628Y-111078303D01*
X194459021Y-110924377D01*
X194454414Y-110770452D01*
X194604645Y-110770482D01*
G37*
G36*
X183952914Y-110924408D02*
G01*
X183952914Y-111078303D01*
X184106809Y-111078303D01*
X184260704Y-111078303D01*
X184260704Y-111239527D01*
X184260704Y-111400750D01*
X184406775Y-111400750D01*
X184552845Y-111400750D01*
X184557005Y-111558309D01*
X184561165Y-111715868D01*
X184707732Y-111717043D01*
X184854299Y-111718218D01*
X184857813Y-111812312D01*
X184861011Y-111873320D01*
X184865584Y-111932251D01*
X184869134Y-111965032D01*
X184876941Y-112023658D01*
X185026843Y-112023658D01*
X185176745Y-112023658D01*
X185180695Y-112342441D01*
X185184645Y-112661223D01*
X185030465Y-112661223D01*
X184876284Y-112661223D01*
X184876284Y-112500822D01*
X184876284Y-112340420D01*
X184718725Y-112348943D01*
X184654194Y-112352735D01*
X184601574Y-112356396D01*
X184567068Y-112359458D01*
X184556675Y-112361162D01*
X184555802Y-112376239D01*
X184555975Y-112416159D01*
X184557105Y-112476474D01*
X184559106Y-112552737D01*
X184561891Y-112640499D01*
X184562536Y-112659103D01*
X184572888Y-112953348D01*
X184713593Y-112957516D01*
X184854299Y-112961685D01*
X184858260Y-113265811D01*
X184862222Y-113569936D01*
X185023148Y-113569936D01*
X185184074Y-113569936D01*
X185184074Y-114015397D01*
X185183929Y-114142699D01*
X185183392Y-114243731D01*
X185182306Y-114321535D01*
X185180517Y-114379152D01*
X185177870Y-114419625D01*
X185174209Y-114445995D01*
X185169379Y-114461304D01*
X185163225Y-114468594D01*
X185160890Y-114469753D01*
X185136357Y-114473759D01*
X185090729Y-114476829D01*
X185032223Y-114478488D01*
X185006995Y-114478650D01*
X184876284Y-114478650D01*
X184876284Y-114324755D01*
X184876284Y-114170860D01*
X184709138Y-114170860D01*
X184541992Y-114170860D01*
X184544250Y-114013300D01*
X184546509Y-113855741D01*
X184403606Y-113851546D01*
X184260704Y-113847352D01*
X184260704Y-113400854D01*
X184260704Y-112954356D01*
X184114137Y-112954356D01*
X183967571Y-112954356D01*
X183965338Y-112642902D01*
X183964521Y-112549799D01*
X183963506Y-112466413D01*
X183962371Y-112397271D01*
X183961194Y-112346901D01*
X183960053Y-112319831D01*
X183959700Y-112316792D01*
X183958571Y-112298211D01*
X183957426Y-112255036D01*
X183956343Y-112191985D01*
X183955401Y-112113775D01*
X183954680Y-112025125D01*
X183954605Y-112012666D01*
X183952914Y-111723197D01*
X183791691Y-111723197D01*
X183630467Y-111723197D01*
X183630467Y-111246855D01*
X183630467Y-110770513D01*
X183791691Y-110770513D01*
X183952914Y-110770513D01*
X183952914Y-110924408D01*
G37*
G36*
X184876284Y-106479775D02*
G01*
X184876284Y-106798557D01*
X184707732Y-106798557D01*
X184539180Y-106798557D01*
X184539180Y-107392152D01*
X184539247Y-107539889D01*
X184539521Y-107660956D01*
X184540117Y-107757995D01*
X184541150Y-107833650D01*
X184542732Y-107890563D01*
X184544979Y-107931379D01*
X184548004Y-107958739D01*
X184551922Y-107975286D01*
X184556846Y-107983664D01*
X184562890Y-107986516D01*
X184564830Y-107986685D01*
X184590377Y-107986914D01*
X184637030Y-107986735D01*
X184696585Y-107986190D01*
X184725548Y-107985836D01*
X184860618Y-107984050D01*
X184864787Y-108142457D01*
X184868955Y-108300865D01*
X185026515Y-108305025D01*
X185184074Y-108309185D01*
X185184074Y-108468530D01*
X185184074Y-108627874D01*
X185330640Y-108619797D01*
X185477207Y-108611721D01*
X185477207Y-108760419D01*
X185477207Y-108909117D01*
X185799654Y-108909117D01*
X186122100Y-108909117D01*
X186122100Y-109386407D01*
X186122100Y-109863696D01*
X186265003Y-109859084D01*
X186407905Y-109854472D01*
X186411772Y-109381794D01*
X186415640Y-108909117D01*
X186565667Y-108907381D01*
X186629461Y-108906815D01*
X186682071Y-108906671D01*
X186716752Y-108906947D01*
X186726688Y-108907381D01*
X186731100Y-108894440D01*
X186734667Y-108858020D01*
X186736988Y-108803952D01*
X186737680Y-108747894D01*
X186737680Y-108586670D01*
X186898903Y-108586670D01*
X187060127Y-108586670D01*
X187060127Y-108430570D01*
X187060127Y-108274469D01*
X187367917Y-108284831D01*
X187675707Y-108295194D01*
X187675707Y-108140404D01*
X187675707Y-107985615D01*
X189214042Y-107986089D01*
X190752377Y-107986563D01*
X190749327Y-108136386D01*
X190746278Y-108286209D01*
X191050404Y-108290170D01*
X191354530Y-108294132D01*
X191354530Y-108447729D01*
X191354530Y-108601327D01*
X191508425Y-108601327D01*
X191662320Y-108601327D01*
X191662320Y-108755222D01*
X191662320Y-108909117D01*
X191823543Y-108909117D01*
X191984766Y-108909117D01*
X191984766Y-109385459D01*
X191984766Y-109861800D01*
X192138661Y-109861800D01*
X192292556Y-109861800D01*
X192292542Y-109389123D01*
X192292528Y-108916445D01*
X192600332Y-108920675D01*
X192908136Y-108924906D01*
X192908136Y-108768340D01*
X192908136Y-108611774D01*
X193062031Y-108619628D01*
X193215926Y-108627483D01*
X193215926Y-108467838D01*
X193215926Y-108308194D01*
X193377149Y-108308194D01*
X193538373Y-108308194D01*
X193538373Y-108144866D01*
X193538373Y-107981537D01*
X193692268Y-107989392D01*
X193846163Y-107997246D01*
X193846163Y-107397902D01*
X193846163Y-106798557D01*
X193692268Y-106798557D01*
X193538373Y-106798557D01*
X193538373Y-106483439D01*
X193538373Y-106168321D01*
X193696447Y-106168321D01*
X193854521Y-106168321D01*
X193848654Y-106316229D01*
X193842787Y-106464137D01*
X194005716Y-106459131D01*
X194168645Y-106454126D01*
X194168627Y-106610054D01*
X194168609Y-106765982D01*
X194221613Y-106775925D01*
X194265356Y-106779704D01*
X194323449Y-106779155D01*
X194368179Y-106775849D01*
X194461742Y-106765829D01*
X194461742Y-107070161D01*
X194461742Y-107374494D01*
X194600981Y-107364706D01*
X194740219Y-107354919D01*
X194740219Y-108000108D01*
X194740219Y-108645297D01*
X194600426Y-108645297D01*
X194460632Y-108645297D01*
X194464851Y-108960429D01*
X194469071Y-109275561D01*
X194311512Y-109275547D01*
X194153953Y-109275534D01*
X194153953Y-109568667D01*
X194153953Y-109861800D01*
X194000058Y-109861800D01*
X193846163Y-109861800D01*
X193846163Y-110016510D01*
X193846163Y-110171221D01*
X193690467Y-110168548D01*
X193534771Y-110165874D01*
X193537404Y-110331298D01*
X193540037Y-110496721D01*
X193070191Y-110486542D01*
X192600346Y-110476362D01*
X192600346Y-110623438D01*
X192600346Y-110770513D01*
X192754241Y-110770513D01*
X192908136Y-110770513D01*
X192908136Y-112316792D01*
X192908136Y-113863070D01*
X192754241Y-113863070D01*
X192600346Y-113863070D01*
X192600346Y-114170860D01*
X192600346Y-114478650D01*
X192446451Y-114478650D01*
X192292556Y-114478650D01*
X192292556Y-115255453D01*
X192292556Y-116032256D01*
X192138661Y-116032256D01*
X191984766Y-116032256D01*
X191984766Y-116347374D01*
X191984766Y-116662493D01*
X191838200Y-116662493D01*
X191691633Y-116662493D01*
X191691633Y-116816388D01*
X191691633Y-116970283D01*
X191530410Y-116970283D01*
X191369186Y-116970283D01*
X191369186Y-117124178D01*
X191369186Y-117278073D01*
X191205804Y-117278073D01*
X191042422Y-117278073D01*
X191052338Y-117431440D01*
X191062253Y-117584808D01*
X190911594Y-117581747D01*
X190760935Y-117578686D01*
X190764567Y-117904721D01*
X190768199Y-118230756D01*
X190607008Y-118230756D01*
X190445816Y-118230756D01*
X190445816Y-118391979D01*
X190445816Y-118553202D01*
X190283587Y-118553202D01*
X190121358Y-118553202D01*
X190126028Y-118692474D01*
X190130698Y-118831745D01*
X189813494Y-118831712D01*
X189496291Y-118831679D01*
X189504145Y-118985574D01*
X189512000Y-119139469D01*
X189202105Y-119139469D01*
X188892210Y-119139469D01*
X188892210Y-118985574D01*
X188892210Y-118831679D01*
X188591748Y-118831679D01*
X188291287Y-118831679D01*
X188291287Y-118692441D01*
X188291287Y-118553202D01*
X188137392Y-118553202D01*
X187983497Y-118553202D01*
X187983497Y-118393971D01*
X187983497Y-118234740D01*
X187915496Y-118225420D01*
X187860146Y-118220022D01*
X187794897Y-118216658D01*
X187761601Y-118216099D01*
X187675707Y-118216099D01*
X187673102Y-117992585D01*
X187671944Y-117905244D01*
X187670561Y-117819617D01*
X187669104Y-117744023D01*
X187667723Y-117686783D01*
X187667325Y-117673803D01*
X187665511Y-117619342D01*
X188584420Y-117619342D01*
X189137709Y-117609555D01*
X189264952Y-117607111D01*
X189385208Y-117604433D01*
X189494788Y-117601631D01*
X189590001Y-117598814D01*
X189667156Y-117596093D01*
X189722564Y-117593576D01*
X189752534Y-117591374D01*
X189753289Y-117591275D01*
X189815580Y-117582784D01*
X189815580Y-117433785D01*
X189815580Y-117284786D01*
X189200000Y-117281415D01*
X188584420Y-117278045D01*
X188584420Y-117448694D01*
X188584420Y-117619342D01*
X187665511Y-117619342D01*
X187664152Y-117578534D01*
X187512370Y-117576353D01*
X187360588Y-117574172D01*
X187360588Y-117448694D01*
X187360588Y-117424401D01*
X187360588Y-117274630D01*
X187203029Y-117281111D01*
X187045470Y-117287593D01*
X187045500Y-117132602D01*
X187045530Y-116977611D01*
X186884277Y-116982189D01*
X186723024Y-116986768D01*
X186723024Y-116824630D01*
X186723024Y-116662493D01*
X186583785Y-116662493D01*
X186522375Y-116662496D01*
X186472294Y-116662505D01*
X186440596Y-116662519D01*
X186433554Y-116662527D01*
X186430023Y-116648584D01*
X186426285Y-116609537D01*
X186422581Y-116549591D01*
X186419152Y-116472954D01*
X186416242Y-116383830D01*
X186415234Y-116343745D01*
X186407905Y-116024928D01*
X186257674Y-116030019D01*
X186107444Y-116035111D01*
X186106126Y-115473066D01*
X186105656Y-115337560D01*
X186104909Y-115202767D01*
X186103930Y-115073527D01*
X186102767Y-114954683D01*
X186102016Y-114894892D01*
X186411274Y-114894892D01*
X186412543Y-114962445D01*
X186417180Y-115108886D01*
X186544453Y-115109086D01*
X186609971Y-115108633D01*
X186658791Y-115109525D01*
X186693329Y-115115490D01*
X186716002Y-115130258D01*
X186729225Y-115157558D01*
X186735417Y-115201118D01*
X186736993Y-115264668D01*
X186736370Y-115351936D01*
X186735993Y-115404643D01*
X186735967Y-115491854D01*
X186736647Y-115568622D01*
X186737934Y-115630281D01*
X186739729Y-115672164D01*
X186741933Y-115689606D01*
X186742037Y-115689739D01*
X186758877Y-115693059D01*
X186798443Y-115696174D01*
X186854147Y-115698659D01*
X186897369Y-115699762D01*
X187045397Y-115702481D01*
X187045433Y-115867369D01*
X187045470Y-116032256D01*
X187198869Y-116032256D01*
X187352268Y-116032256D01*
X187356428Y-116189815D01*
X187360588Y-116347374D01*
X187510819Y-116342283D01*
X187661050Y-116337191D01*
X187661250Y-116466864D01*
X187661482Y-116545796D01*
X187664417Y-116600049D01*
X187673843Y-116634236D01*
X187693549Y-116652974D01*
X187727323Y-116660874D01*
X187778953Y-116662553D01*
X187821863Y-116662493D01*
X187964601Y-116662493D01*
X187973945Y-116761425D01*
X187978907Y-116822194D01*
X187982336Y-116879854D01*
X187983392Y-116915320D01*
X187983497Y-116970283D01*
X189215991Y-116970283D01*
X190448485Y-116970283D01*
X190443486Y-116816371D01*
X190438488Y-116662460D01*
X190588719Y-116662476D01*
X190738950Y-116662493D01*
X190738950Y-116499111D01*
X190738950Y-116335729D01*
X190892845Y-116345678D01*
X191046740Y-116355628D01*
X191046740Y-116193942D01*
X191046740Y-116032256D01*
X191216527Y-116032256D01*
X191386314Y-116032256D01*
X191375864Y-115871033D01*
X191365415Y-115709809D01*
X191422263Y-115707302D01*
X191465129Y-115704842D01*
X191497471Y-115702012D01*
X191501096Y-115701532D01*
X191528557Y-115699224D01*
X191571834Y-115697253D01*
X191591000Y-115696711D01*
X191658918Y-115695153D01*
X191669648Y-115402019D01*
X191680378Y-115108886D01*
X191792266Y-115107036D01*
X191852592Y-115106233D01*
X191906370Y-115105857D01*
X191942654Y-115105981D01*
X191944460Y-115106015D01*
X191984766Y-115106844D01*
X191984766Y-114944810D01*
X191984766Y-114782775D01*
X191938964Y-114791936D01*
X191912755Y-114794300D01*
X191861430Y-114796439D01*
X191789186Y-114798268D01*
X191700222Y-114799708D01*
X191598733Y-114800675D01*
X191488919Y-114801087D01*
X191469951Y-114801096D01*
X191046740Y-114801096D01*
X191046740Y-114962320D01*
X191046740Y-115123543D01*
X190890617Y-115123543D01*
X190734495Y-115123543D01*
X190743911Y-115277438D01*
X190753327Y-115431333D01*
X190453284Y-115431333D01*
X190349541Y-115431771D01*
X190271407Y-115431629D01*
X190215221Y-115428719D01*
X190177324Y-115420854D01*
X190154054Y-115405847D01*
X190141752Y-115381512D01*
X190136757Y-115345662D01*
X190135409Y-115296109D01*
X190134374Y-115240796D01*
X190130698Y-115116215D01*
X189980467Y-115112038D01*
X189830236Y-115107861D01*
X189830236Y-115269597D01*
X189830236Y-115431333D01*
X189663447Y-115431333D01*
X189496658Y-115431333D01*
X189504203Y-115590526D01*
X189511749Y-115749720D01*
X189227628Y-115742744D01*
X189139137Y-115740114D01*
X189060802Y-115736918D01*
X188997300Y-115733417D01*
X188953309Y-115729874D01*
X188933505Y-115726550D01*
X188933051Y-115726255D01*
X188926154Y-115707586D01*
X188918928Y-115668865D01*
X188914056Y-115629000D01*
X188908003Y-115569109D01*
X188901757Y-115510849D01*
X188898535Y-115482631D01*
X188891552Y-115424004D01*
X188742423Y-115424004D01*
X188593295Y-115424004D01*
X188597247Y-115266445D01*
X188601199Y-115108886D01*
X188455160Y-115108886D01*
X188388727Y-115109129D01*
X188345887Y-115110810D01*
X188320916Y-115115362D01*
X188308096Y-115124217D01*
X188301703Y-115138806D01*
X188299335Y-115147878D01*
X188295043Y-115181018D01*
X188292600Y-115233181D01*
X188292439Y-115294114D01*
X188292691Y-115305437D01*
X188295835Y-115424004D01*
X187986269Y-115427959D01*
X187676704Y-115431913D01*
X187672541Y-115275747D01*
X187668378Y-115119582D01*
X187518148Y-115122399D01*
X187367917Y-115125216D01*
X187367917Y-114963156D01*
X187367917Y-114801096D01*
X186907431Y-114801096D01*
X186793490Y-114801326D01*
X186688572Y-114801978D01*
X186596378Y-114802993D01*
X186520609Y-114804315D01*
X186464968Y-114805886D01*
X186433154Y-114807649D01*
X186427425Y-114808550D01*
X186418201Y-114819571D01*
X186412958Y-114846888D01*
X186411274Y-114894892D01*
X186102016Y-114894892D01*
X186101466Y-114851074D01*
X186100074Y-114767542D01*
X186098772Y-114713156D01*
X186096535Y-114637824D01*
X186094678Y-114571391D01*
X186093369Y-114520225D01*
X186093123Y-114507934D01*
X187976168Y-114507934D01*
X187980409Y-114808410D01*
X187984651Y-115108886D01*
X188137969Y-115108886D01*
X188291287Y-115108886D01*
X188291287Y-114808425D01*
X188291287Y-114507963D01*
X188437853Y-114507963D01*
X188584420Y-114507963D01*
X189830236Y-114507963D01*
X189984131Y-114507963D01*
X190138026Y-114507963D01*
X190138026Y-114808425D01*
X190138026Y-115108886D01*
X190301477Y-115108886D01*
X190464928Y-115108886D01*
X190455372Y-114952711D01*
X190451042Y-114865707D01*
X190447744Y-114768472D01*
X190445996Y-114677620D01*
X190445847Y-114648585D01*
X190445878Y-114500635D01*
X190294156Y-114505198D01*
X190142433Y-114509762D01*
X190133006Y-114409930D01*
X190127980Y-114347301D01*
X190124520Y-114286219D01*
X190123474Y-114247807D01*
X190123370Y-114185516D01*
X189976803Y-114185516D01*
X189830236Y-114185516D01*
X189830236Y-114346740D01*
X189830236Y-114507963D01*
X188584420Y-114507963D01*
X188584420Y-114346740D01*
X188584420Y-114185516D01*
X188437853Y-114185516D01*
X188291287Y-114185516D01*
X188291287Y-114346740D01*
X188291287Y-114507963D01*
X188133727Y-114507948D01*
X187976168Y-114507934D01*
X186093123Y-114507934D01*
X186092778Y-114490692D01*
X186092761Y-114487899D01*
X186090746Y-114475344D01*
X186081066Y-114468042D01*
X186058310Y-114465335D01*
X186017068Y-114466563D01*
X185953549Y-114470946D01*
X185814310Y-114481385D01*
X185814310Y-114172227D01*
X185814310Y-113863070D01*
X185653087Y-113863070D01*
X185491864Y-113863070D01*
X185491864Y-112316792D01*
X185491864Y-111997689D01*
X186078130Y-111997689D01*
X186146131Y-112007009D01*
X186196699Y-112011812D01*
X186261792Y-112015177D01*
X186322011Y-112016330D01*
X186429890Y-112016330D01*
X186429890Y-112168515D01*
X186429857Y-112236389D01*
X186426720Y-112283286D01*
X186415921Y-112313078D01*
X186392905Y-112329639D01*
X186353116Y-112336842D01*
X186291995Y-112338559D01*
X186229811Y-112338576D01*
X186095688Y-112338777D01*
X186090561Y-112598932D01*
X186089173Y-112686874D01*
X186088536Y-112767759D01*
X186088647Y-112835725D01*
X186089503Y-112884911D01*
X186090714Y-112906722D01*
X186095994Y-112954356D01*
X186253572Y-112954356D01*
X186411150Y-112954356D01*
X186420393Y-113031304D01*
X186426123Y-113095494D01*
X186429443Y-113164477D01*
X186429763Y-113186179D01*
X186429890Y-113264107D01*
X186583785Y-113253798D01*
X186737680Y-113243489D01*
X186737680Y-113383529D01*
X186738576Y-113446913D01*
X186740978Y-113500747D01*
X186744460Y-113537205D01*
X186746577Y-113546753D01*
X186755636Y-113557521D01*
X186776326Y-113564454D01*
X186813811Y-113568302D01*
X186873254Y-113569816D01*
X186905940Y-113569936D01*
X187056408Y-113569936D01*
X187056348Y-113617571D01*
X187056587Y-113656639D01*
X187057267Y-113712665D01*
X187058208Y-113771466D01*
X187060127Y-113877726D01*
X187518148Y-113877720D01*
X187976168Y-113877714D01*
X187980865Y-113727678D01*
X187983513Y-113664360D01*
X187986927Y-113612690D01*
X187990602Y-113579215D01*
X187993048Y-113570125D01*
X188009356Y-113567567D01*
X188050365Y-113564880D01*
X188111465Y-113562259D01*
X188188047Y-113559897D01*
X188275500Y-113557990D01*
X188285149Y-113557823D01*
X188569763Y-113553038D01*
X188569763Y-113400264D01*
X188569763Y-113247490D01*
X188730987Y-113247490D01*
X188892210Y-113247490D01*
X188892210Y-112793133D01*
X188892210Y-112353433D01*
X189493133Y-112353433D01*
X189494594Y-112760156D01*
X189495335Y-112868240D01*
X189496691Y-112968186D01*
X189498550Y-113055809D01*
X189500803Y-113126922D01*
X189503342Y-113177341D01*
X189506055Y-113202879D01*
X189506218Y-113203520D01*
X189512100Y-113220066D01*
X189522491Y-113230892D01*
X189543055Y-113237443D01*
X189579458Y-113241168D01*
X189637363Y-113243513D01*
X189665980Y-113244338D01*
X189815580Y-113248515D01*
X189815580Y-113399645D01*
X189815580Y-113550775D01*
X189993761Y-113560356D01*
X190079649Y-113564339D01*
X190170538Y-113567513D01*
X190253804Y-113569483D01*
X190301551Y-113569936D01*
X190431160Y-113569936D01*
X190431160Y-113723831D01*
X190431160Y-113877726D01*
X190892845Y-113877726D01*
X191354530Y-113877726D01*
X191354530Y-113715560D01*
X191354530Y-113553394D01*
X191508455Y-113558001D01*
X191662381Y-113562608D01*
X191662350Y-113412377D01*
X191662320Y-113262146D01*
X191816215Y-113262146D01*
X191970109Y-113262146D01*
X191970109Y-113108251D01*
X191970109Y-112954356D01*
X192145989Y-112954356D01*
X192321869Y-112954356D01*
X192321869Y-112646566D01*
X192321869Y-112338777D01*
X192153318Y-112338777D01*
X191984766Y-112338777D01*
X191984766Y-112176666D01*
X191984766Y-112014555D01*
X192153347Y-112019107D01*
X192321927Y-112023658D01*
X192321898Y-111704876D01*
X192321869Y-111386093D01*
X191992094Y-111386093D01*
X191662320Y-111386093D01*
X191662320Y-111547317D01*
X191662320Y-111708540D01*
X191508425Y-111708540D01*
X191354530Y-111708540D01*
X191354546Y-111866099D01*
X191354563Y-112023658D01*
X191200651Y-112018660D01*
X191046740Y-112013662D01*
X191046740Y-112176219D01*
X191046740Y-112338777D01*
X190893357Y-112338777D01*
X190739975Y-112338777D01*
X190735798Y-112489007D01*
X190731621Y-112639238D01*
X190580466Y-112635002D01*
X190429310Y-112630766D01*
X190433899Y-112792056D01*
X190438488Y-112953346D01*
X190127020Y-112957515D01*
X189815552Y-112961685D01*
X189815499Y-112822446D01*
X189814516Y-112744948D01*
X189811922Y-112652891D01*
X189808179Y-112560960D01*
X189805945Y-112518321D01*
X189796444Y-112353433D01*
X189644789Y-112353433D01*
X189493133Y-112353433D01*
X188892210Y-112353433D01*
X188892210Y-112338777D01*
X188738315Y-112338777D01*
X188584420Y-112338777D01*
X188584420Y-112644749D01*
X188584420Y-112950721D01*
X188276630Y-112949800D01*
X187968840Y-112948878D01*
X187968840Y-112781177D01*
X187968840Y-112613477D01*
X187822273Y-112623868D01*
X187675707Y-112634259D01*
X187675707Y-112479189D01*
X187675707Y-112324120D01*
X187522308Y-112324120D01*
X187368908Y-112324120D01*
X187364748Y-112167142D01*
X187360588Y-112010164D01*
X187210358Y-112014416D01*
X187060127Y-112018669D01*
X187060127Y-111856276D01*
X187060127Y-111693883D01*
X186898903Y-111693883D01*
X186737680Y-111693883D01*
X186737680Y-111539564D01*
X186737680Y-111385244D01*
X186414905Y-111387600D01*
X186320856Y-111388678D01*
X186237197Y-111390386D01*
X186168185Y-111392574D01*
X186118079Y-111395093D01*
X186091137Y-111397797D01*
X186087712Y-111399017D01*
X186086638Y-111416963D01*
X186087757Y-111456399D01*
X186090819Y-111509602D01*
X186091774Y-111523024D01*
X186094455Y-111577906D01*
X186093964Y-111620455D01*
X186090462Y-111643150D01*
X186089192Y-111644807D01*
X186084872Y-111661297D01*
X186081342Y-111701083D01*
X186078971Y-111758150D01*
X186078130Y-111824666D01*
X186078130Y-111997689D01*
X185491864Y-111997689D01*
X185491864Y-111824666D01*
X185491864Y-110770513D01*
X185654655Y-110770513D01*
X185725846Y-110770054D01*
X185772286Y-110768218D01*
X185798530Y-110764320D01*
X185809133Y-110757673D01*
X185808649Y-110747592D01*
X185808550Y-110747330D01*
X185804434Y-110722511D01*
X185801327Y-110676946D01*
X185799751Y-110619199D01*
X185799654Y-110600771D01*
X185799654Y-110477396D01*
X185345303Y-110479837D01*
X185232894Y-110480240D01*
X185130194Y-110480222D01*
X185040794Y-110479816D01*
X184968286Y-110479051D01*
X184916258Y-110477960D01*
X184888304Y-110476572D01*
X184884519Y-110475845D01*
X184880891Y-110459426D01*
X184876203Y-110420220D01*
X184871151Y-110364701D01*
X184867762Y-110319501D01*
X184857437Y-110169590D01*
X184705637Y-110169590D01*
X184553837Y-110169590D01*
X184553837Y-110159819D01*
X184553837Y-110008367D01*
X184553837Y-109861800D01*
X185799654Y-109861800D01*
X185799654Y-110159819D01*
X185800172Y-110250585D01*
X185801618Y-110331329D01*
X185803829Y-110397478D01*
X185806643Y-110444456D01*
X185809897Y-110467691D01*
X185810646Y-110469152D01*
X185830098Y-110473825D01*
X185869218Y-110474325D01*
X185908064Y-110471594D01*
X185969090Y-110466517D01*
X186029902Y-110463307D01*
X186058295Y-110462723D01*
X186122100Y-110462723D01*
X186122099Y-110460954D01*
X192307213Y-110460954D01*
X192362175Y-110466703D01*
X192408182Y-110470335D01*
X192467501Y-110473507D01*
X192506503Y-110474916D01*
X192595867Y-110477380D01*
X192605368Y-110312493D01*
X192609537Y-110225728D01*
X192612791Y-110130622D01*
X192614663Y-110042168D01*
X192614936Y-110004703D01*
X192615003Y-109861800D01*
X192461108Y-109861800D01*
X192307213Y-109861800D01*
X192307213Y-110161377D01*
X192307213Y-110460954D01*
X186122099Y-110460954D01*
X186122047Y-110371119D01*
X186121331Y-110321682D01*
X186119411Y-110251673D01*
X186116566Y-110169798D01*
X186116220Y-110161377D01*
X186113074Y-110084761D01*
X186112438Y-110070658D01*
X186102884Y-109861800D01*
X185951269Y-109861800D01*
X185799654Y-109861800D01*
X184553837Y-109861800D01*
X184553837Y-109847144D01*
X184407270Y-109847144D01*
X184260704Y-109847144D01*
X184260704Y-109563427D01*
X184260704Y-109279709D01*
X184170614Y-109270293D01*
X184109103Y-109265017D01*
X184048093Y-109261600D01*
X184016719Y-109260877D01*
X183952914Y-109260877D01*
X183952914Y-108953087D01*
X183952914Y-108645297D01*
X183806347Y-108645297D01*
X183659781Y-108645297D01*
X183659781Y-108000404D01*
X183659781Y-107355511D01*
X183799019Y-107355511D01*
X183938257Y-107355511D01*
X183938257Y-107062377D01*
X183938257Y-106769244D01*
X184084824Y-106769244D01*
X184231391Y-106769244D01*
X184231391Y-106615349D01*
X184231391Y-106461454D01*
X184392614Y-106461454D01*
X184553837Y-106461454D01*
X184553837Y-106311223D01*
X184553837Y-106160992D01*
X184715060Y-106160992D01*
X184876284Y-106160992D01*
X184876284Y-106479775D01*
G37*
D15*
%TO.C,U1*%
X153226880Y-72986680D02*
X159119680Y-72986680D01*
X153226880Y-90969880D02*
X153226880Y-72986680D01*
X159119680Y-90969880D02*
X153226880Y-90969880D01*
X159140000Y-67800000D02*
X159140000Y-96199999D01*
X159140000Y-96199999D02*
X207060000Y-96200000D01*
X207060000Y-67800001D02*
X159140000Y-67800000D01*
X207060000Y-96200000D02*
X207060000Y-67800001D01*
%TO.C,SW1*%
X123900000Y-104450000D02*
X123900000Y-105950000D01*
X125150000Y-108450000D02*
X129650000Y-108450000D01*
X129650000Y-101950000D02*
X125150000Y-101950000D01*
X130900000Y-105950000D02*
X130900000Y-104450000D01*
%TO.C,R1*%
X135111252Y-101665000D02*
X134588748Y-101665000D01*
X135111252Y-103135000D02*
X134588748Y-103135000D01*
%TO.C,R3*%
X147211252Y-113565000D02*
X146688748Y-113565000D01*
X147211252Y-115035000D02*
X146688748Y-115035000D01*
%TD*%
M02*
