%TF.GenerationSoftware,KiCad,Pcbnew,9.0.2*%
%TF.CreationDate,2025-06-10T13:13:09+07:00*%
%TF.ProjectId,WiFi_Frauder_DEV,57694669-5f46-4726-9175-6465725f4445,1*%
%TF.SameCoordinates,Original*%
%TF.FileFunction,Soldermask,Bot*%
%TF.FilePolarity,Negative*%
%FSLAX46Y46*%
G04 Gerber Fmt 4.6, Leading zero omitted, Abs format (unit mm)*
G04 Created by KiCad (PCBNEW 9.0.2) date 2025-06-10 13:13:09*
%MOMM*%
%LPD*%
G01*
G04 APERTURE LIST*
G04 Aperture macros list*
%AMRoundRect*
0 Rectangle with rounded corners*
0 $1 Rounding radius*
0 $2 $3 $4 $5 $6 $7 $8 $9 X,Y pos of 4 corners*
0 Add a 4 corners polygon primitive as box body*
4,1,4,$2,$3,$4,$5,$6,$7,$8,$9,$2,$3,0*
0 Add four circle primitives for the rounded corners*
1,1,$1+$1,$2,$3*
1,1,$1+$1,$4,$5*
1,1,$1+$1,$6,$7*
1,1,$1+$1,$8,$9*
0 Add four rect primitives between the rounded corners*
20,1,$1+$1,$2,$3,$4,$5,0*
20,1,$1+$1,$4,$5,$6,$7,0*
20,1,$1+$1,$6,$7,$8,$9,0*
20,1,$1+$1,$8,$9,$2,$3,0*%
G04 Aperture macros list end*
%ADD10RoundRect,0.102000X-0.754000X-0.754000X0.754000X-0.754000X0.754000X0.754000X-0.754000X0.754000X0*%
%ADD11C,1.712000*%
%ADD12C,3.204000*%
%ADD13C,2.000000*%
%ADD14R,1.200000X2.000000*%
%ADD15O,1.200000X2.000000*%
G04 APERTURE END LIST*
D10*
%TO.C,U2*%
X132690000Y-69700000D03*
D11*
X135230000Y-69700000D03*
X137770000Y-69700000D03*
X140310000Y-69700000D03*
D12*
X125500000Y-70200000D03*
X147500000Y-70200000D03*
X147500000Y-92200000D03*
X125500000Y-92200000D03*
%TD*%
D13*
%TO.C,SW2*%
X142750000Y-102850000D03*
X149250000Y-102850000D03*
X142750000Y-107350000D03*
X149250000Y-107350000D03*
%TD*%
%TO.C,SW3*%
X133650000Y-114850000D03*
X140150000Y-114850000D03*
X133650000Y-119350000D03*
X140150000Y-119350000D03*
%TD*%
D14*
%TO.C,U1*%
X160240000Y-94700000D03*
D15*
X162780000Y-94700000D03*
X165320000Y-94700000D03*
X167860000Y-94700000D03*
X170400000Y-94700000D03*
X172940000Y-94700000D03*
X175480000Y-94700000D03*
X178020000Y-94700000D03*
X180560000Y-94700000D03*
X183100000Y-94700000D03*
X185640000Y-94700000D03*
X188180000Y-94700000D03*
X190720000Y-94700000D03*
X193260000Y-94700000D03*
X195800000Y-94700000D03*
X198340000Y-94700000D03*
X200880000Y-94700000D03*
X203420000Y-94700000D03*
X205960000Y-94700000D03*
X205957280Y-69303680D03*
X203417280Y-69303680D03*
X200880000Y-69300000D03*
X198340000Y-69300000D03*
X195800000Y-69300000D03*
X193260000Y-69300000D03*
X190720000Y-69300000D03*
X188180000Y-69300000D03*
X185640000Y-69300000D03*
X183100000Y-69300000D03*
X180560000Y-69300000D03*
X178020000Y-69300000D03*
X175480000Y-69300000D03*
X172940000Y-69300000D03*
X170400000Y-69300000D03*
X167860000Y-69300000D03*
X165320000Y-69300000D03*
X162780000Y-69300000D03*
X160240000Y-69300000D03*
%TD*%
D13*
%TO.C,SW1*%
X124150000Y-102950000D03*
X130650000Y-102950000D03*
X124150000Y-107450000D03*
X130650000Y-107450000D03*
%TD*%
M02*
