%TF.GenerationSoftware,KiCad,Pcbnew,9.0.2*%
%TF.CreationDate,2025-06-12T23:09:37+07:00*%
%TF.ProjectId,WiFi_Frauder_DEV,57694669-5f46-4726-9175-6465725f4445,2*%
%TF.SameCoordinates,Original*%
%TF.FileFunction,Legend,Top*%
%TF.FilePolarity,Positive*%
%FSLAX46Y46*%
G04 Gerber Fmt 4.6, Leading zero omitted, Abs format (unit mm)*
G04 Created by KiCad (PCBNEW 9.0.2) date 2025-06-12 23:09:37*
%MOMM*%
%LPD*%
G01*
G04 APERTURE LIST*
%ADD10C,0.200000*%
%ADD11C,0.100000*%
%ADD12C,0.400000*%
%ADD13C,0.150000*%
%ADD14C,0.000000*%
%ADD15C,0.120000*%
%ADD16C,0.127000*%
G04 APERTURE END LIST*
D10*
X142606994Y-133900552D02*
X142606994Y-134567219D01*
X142178423Y-133900552D02*
X142178423Y-134424361D01*
X142178423Y-134424361D02*
X142226042Y-134519600D01*
X142226042Y-134519600D02*
X142321280Y-134567219D01*
X142321280Y-134567219D02*
X142464137Y-134567219D01*
X142464137Y-134567219D02*
X142559375Y-134519600D01*
X142559375Y-134519600D02*
X142606994Y-134471980D01*
X143083185Y-133900552D02*
X143083185Y-134567219D01*
X143083185Y-133995790D02*
X143130804Y-133948171D01*
X143130804Y-133948171D02*
X143226042Y-133900552D01*
X143226042Y-133900552D02*
X143368899Y-133900552D01*
X143368899Y-133900552D02*
X143464137Y-133948171D01*
X143464137Y-133948171D02*
X143511756Y-134043409D01*
X143511756Y-134043409D02*
X143511756Y-134567219D01*
X144416518Y-133900552D02*
X144416518Y-134567219D01*
X144178423Y-133519600D02*
X143940328Y-134233885D01*
X143940328Y-134233885D02*
X144559375Y-134233885D01*
X145368899Y-134519600D02*
X145273661Y-134567219D01*
X145273661Y-134567219D02*
X145083185Y-134567219D01*
X145083185Y-134567219D02*
X144987947Y-134519600D01*
X144987947Y-134519600D02*
X144940328Y-134471980D01*
X144940328Y-134471980D02*
X144892709Y-134376742D01*
X144892709Y-134376742D02*
X144892709Y-134091028D01*
X144892709Y-134091028D02*
X144940328Y-133995790D01*
X144940328Y-133995790D02*
X144987947Y-133948171D01*
X144987947Y-133948171D02*
X145083185Y-133900552D01*
X145083185Y-133900552D02*
X145273661Y-133900552D01*
X145273661Y-133900552D02*
X145368899Y-133948171D01*
X145797471Y-134567219D02*
X145797471Y-133567219D01*
X145892709Y-134186266D02*
X146178423Y-134567219D01*
X146178423Y-133900552D02*
X145797471Y-134281504D01*
X146606995Y-133900552D02*
X146606995Y-134567219D01*
X146606995Y-133995790D02*
X146654614Y-133948171D01*
X146654614Y-133948171D02*
X146749852Y-133900552D01*
X146749852Y-133900552D02*
X146892709Y-133900552D01*
X146892709Y-133900552D02*
X146987947Y-133948171D01*
X146987947Y-133948171D02*
X147035566Y-134043409D01*
X147035566Y-134043409D02*
X147035566Y-134567219D01*
X147702233Y-133567219D02*
X147797471Y-133567219D01*
X147797471Y-133567219D02*
X147892709Y-133614838D01*
X147892709Y-133614838D02*
X147940328Y-133662457D01*
X147940328Y-133662457D02*
X147987947Y-133757695D01*
X147987947Y-133757695D02*
X148035566Y-133948171D01*
X148035566Y-133948171D02*
X148035566Y-134186266D01*
X148035566Y-134186266D02*
X147987947Y-134376742D01*
X147987947Y-134376742D02*
X147940328Y-134471980D01*
X147940328Y-134471980D02*
X147892709Y-134519600D01*
X147892709Y-134519600D02*
X147797471Y-134567219D01*
X147797471Y-134567219D02*
X147702233Y-134567219D01*
X147702233Y-134567219D02*
X147606995Y-134519600D01*
X147606995Y-134519600D02*
X147559376Y-134471980D01*
X147559376Y-134471980D02*
X147511757Y-134376742D01*
X147511757Y-134376742D02*
X147464138Y-134186266D01*
X147464138Y-134186266D02*
X147464138Y-133948171D01*
X147464138Y-133948171D02*
X147511757Y-133757695D01*
X147511757Y-133757695D02*
X147559376Y-133662457D01*
X147559376Y-133662457D02*
X147606995Y-133614838D01*
X147606995Y-133614838D02*
X147702233Y-133567219D01*
X148368900Y-133900552D02*
X148559376Y-134567219D01*
X148559376Y-134567219D02*
X148749852Y-134091028D01*
X148749852Y-134091028D02*
X148940328Y-134567219D01*
X148940328Y-134567219D02*
X149130804Y-133900552D01*
X149654614Y-134567219D02*
X149559376Y-134519600D01*
X149559376Y-134519600D02*
X149511757Y-134424361D01*
X149511757Y-134424361D02*
X149511757Y-133567219D01*
X149940329Y-133567219D02*
X150559376Y-133567219D01*
X150559376Y-133567219D02*
X150226043Y-133948171D01*
X150226043Y-133948171D02*
X150368900Y-133948171D01*
X150368900Y-133948171D02*
X150464138Y-133995790D01*
X150464138Y-133995790D02*
X150511757Y-134043409D01*
X150511757Y-134043409D02*
X150559376Y-134138647D01*
X150559376Y-134138647D02*
X150559376Y-134376742D01*
X150559376Y-134376742D02*
X150511757Y-134471980D01*
X150511757Y-134471980D02*
X150464138Y-134519600D01*
X150464138Y-134519600D02*
X150368900Y-134567219D01*
X150368900Y-134567219D02*
X150083186Y-134567219D01*
X150083186Y-134567219D02*
X149987948Y-134519600D01*
X149987948Y-134519600D02*
X149940329Y-134471980D01*
X150892710Y-133900552D02*
X151416519Y-133900552D01*
X151416519Y-133900552D02*
X150892710Y-134567219D01*
X150892710Y-134567219D02*
X151416519Y-134567219D01*
D11*
X120545967Y-134048609D02*
X120212634Y-134048609D01*
X120212634Y-134572419D02*
X120212634Y-133572419D01*
X120212634Y-133572419D02*
X120688824Y-133572419D01*
X121069777Y-134572419D02*
X121069777Y-133905752D01*
X121069777Y-133572419D02*
X121022158Y-133620038D01*
X121022158Y-133620038D02*
X121069777Y-133667657D01*
X121069777Y-133667657D02*
X121117396Y-133620038D01*
X121117396Y-133620038D02*
X121069777Y-133572419D01*
X121069777Y-133572419D02*
X121069777Y-133667657D01*
X121545967Y-134572419D02*
X121545967Y-133905752D01*
X121545967Y-134096228D02*
X121593586Y-134000990D01*
X121593586Y-134000990D02*
X121641205Y-133953371D01*
X121641205Y-133953371D02*
X121736443Y-133905752D01*
X121736443Y-133905752D02*
X121831681Y-133905752D01*
X122165015Y-134572419D02*
X122165015Y-133905752D01*
X122165015Y-134000990D02*
X122212634Y-133953371D01*
X122212634Y-133953371D02*
X122307872Y-133905752D01*
X122307872Y-133905752D02*
X122450729Y-133905752D01*
X122450729Y-133905752D02*
X122545967Y-133953371D01*
X122545967Y-133953371D02*
X122593586Y-134048609D01*
X122593586Y-134048609D02*
X122593586Y-134572419D01*
X122593586Y-134048609D02*
X122641205Y-133953371D01*
X122641205Y-133953371D02*
X122736443Y-133905752D01*
X122736443Y-133905752D02*
X122879300Y-133905752D01*
X122879300Y-133905752D02*
X122974539Y-133953371D01*
X122974539Y-133953371D02*
X123022158Y-134048609D01*
X123022158Y-134048609D02*
X123022158Y-134572419D01*
X123403110Y-133905752D02*
X123593586Y-134572419D01*
X123593586Y-134572419D02*
X123784062Y-134096228D01*
X123784062Y-134096228D02*
X123974538Y-134572419D01*
X123974538Y-134572419D02*
X124165014Y-133905752D01*
X124974538Y-134572419D02*
X124974538Y-134048609D01*
X124974538Y-134048609D02*
X124926919Y-133953371D01*
X124926919Y-133953371D02*
X124831681Y-133905752D01*
X124831681Y-133905752D02*
X124641205Y-133905752D01*
X124641205Y-133905752D02*
X124545967Y-133953371D01*
X124974538Y-134524800D02*
X124879300Y-134572419D01*
X124879300Y-134572419D02*
X124641205Y-134572419D01*
X124641205Y-134572419D02*
X124545967Y-134524800D01*
X124545967Y-134524800D02*
X124498348Y-134429561D01*
X124498348Y-134429561D02*
X124498348Y-134334323D01*
X124498348Y-134334323D02*
X124545967Y-134239085D01*
X124545967Y-134239085D02*
X124641205Y-134191466D01*
X124641205Y-134191466D02*
X124879300Y-134191466D01*
X124879300Y-134191466D02*
X124974538Y-134143847D01*
X125450729Y-134572419D02*
X125450729Y-133905752D01*
X125450729Y-134096228D02*
X125498348Y-134000990D01*
X125498348Y-134000990D02*
X125545967Y-133953371D01*
X125545967Y-133953371D02*
X125641205Y-133905752D01*
X125641205Y-133905752D02*
X125736443Y-133905752D01*
X126450729Y-134524800D02*
X126355491Y-134572419D01*
X126355491Y-134572419D02*
X126165015Y-134572419D01*
X126165015Y-134572419D02*
X126069777Y-134524800D01*
X126069777Y-134524800D02*
X126022158Y-134429561D01*
X126022158Y-134429561D02*
X126022158Y-134048609D01*
X126022158Y-134048609D02*
X126069777Y-133953371D01*
X126069777Y-133953371D02*
X126165015Y-133905752D01*
X126165015Y-133905752D02*
X126355491Y-133905752D01*
X126355491Y-133905752D02*
X126450729Y-133953371D01*
X126450729Y-133953371D02*
X126498348Y-134048609D01*
X126498348Y-134048609D02*
X126498348Y-134143847D01*
X126498348Y-134143847D02*
X126022158Y-134239085D01*
X128117396Y-134572419D02*
X128117396Y-134048609D01*
X128117396Y-134048609D02*
X128069777Y-133953371D01*
X128069777Y-133953371D02*
X127974539Y-133905752D01*
X127974539Y-133905752D02*
X127784063Y-133905752D01*
X127784063Y-133905752D02*
X127688825Y-133953371D01*
X128117396Y-134524800D02*
X128022158Y-134572419D01*
X128022158Y-134572419D02*
X127784063Y-134572419D01*
X127784063Y-134572419D02*
X127688825Y-134524800D01*
X127688825Y-134524800D02*
X127641206Y-134429561D01*
X127641206Y-134429561D02*
X127641206Y-134334323D01*
X127641206Y-134334323D02*
X127688825Y-134239085D01*
X127688825Y-134239085D02*
X127784063Y-134191466D01*
X127784063Y-134191466D02*
X128022158Y-134191466D01*
X128022158Y-134191466D02*
X128117396Y-134143847D01*
X128593587Y-133905752D02*
X128593587Y-134572419D01*
X128593587Y-134000990D02*
X128641206Y-133953371D01*
X128641206Y-133953371D02*
X128736444Y-133905752D01*
X128736444Y-133905752D02*
X128879301Y-133905752D01*
X128879301Y-133905752D02*
X128974539Y-133953371D01*
X128974539Y-133953371D02*
X129022158Y-134048609D01*
X129022158Y-134048609D02*
X129022158Y-134572419D01*
X129926920Y-134572419D02*
X129926920Y-133572419D01*
X129926920Y-134524800D02*
X129831682Y-134572419D01*
X129831682Y-134572419D02*
X129641206Y-134572419D01*
X129641206Y-134572419D02*
X129545968Y-134524800D01*
X129545968Y-134524800D02*
X129498349Y-134477180D01*
X129498349Y-134477180D02*
X129450730Y-134381942D01*
X129450730Y-134381942D02*
X129450730Y-134096228D01*
X129450730Y-134096228D02*
X129498349Y-134000990D01*
X129498349Y-134000990D02*
X129545968Y-133953371D01*
X129545968Y-133953371D02*
X129641206Y-133905752D01*
X129641206Y-133905752D02*
X129831682Y-133905752D01*
X129831682Y-133905752D02*
X129926920Y-133953371D01*
X131165016Y-134572419D02*
X131165016Y-133572419D01*
X131165016Y-134048609D02*
X131736444Y-134048609D01*
X131736444Y-134572419D02*
X131736444Y-133572419D01*
X132641206Y-134572419D02*
X132641206Y-134048609D01*
X132641206Y-134048609D02*
X132593587Y-133953371D01*
X132593587Y-133953371D02*
X132498349Y-133905752D01*
X132498349Y-133905752D02*
X132307873Y-133905752D01*
X132307873Y-133905752D02*
X132212635Y-133953371D01*
X132641206Y-134524800D02*
X132545968Y-134572419D01*
X132545968Y-134572419D02*
X132307873Y-134572419D01*
X132307873Y-134572419D02*
X132212635Y-134524800D01*
X132212635Y-134524800D02*
X132165016Y-134429561D01*
X132165016Y-134429561D02*
X132165016Y-134334323D01*
X132165016Y-134334323D02*
X132212635Y-134239085D01*
X132212635Y-134239085D02*
X132307873Y-134191466D01*
X132307873Y-134191466D02*
X132545968Y-134191466D01*
X132545968Y-134191466D02*
X132641206Y-134143847D01*
X133117397Y-134572419D02*
X133117397Y-133905752D01*
X133117397Y-134096228D02*
X133165016Y-134000990D01*
X133165016Y-134000990D02*
X133212635Y-133953371D01*
X133212635Y-133953371D02*
X133307873Y-133905752D01*
X133307873Y-133905752D02*
X133403111Y-133905752D01*
X134165016Y-134572419D02*
X134165016Y-133572419D01*
X134165016Y-134524800D02*
X134069778Y-134572419D01*
X134069778Y-134572419D02*
X133879302Y-134572419D01*
X133879302Y-134572419D02*
X133784064Y-134524800D01*
X133784064Y-134524800D02*
X133736445Y-134477180D01*
X133736445Y-134477180D02*
X133688826Y-134381942D01*
X133688826Y-134381942D02*
X133688826Y-134096228D01*
X133688826Y-134096228D02*
X133736445Y-134000990D01*
X133736445Y-134000990D02*
X133784064Y-133953371D01*
X133784064Y-133953371D02*
X133879302Y-133905752D01*
X133879302Y-133905752D02*
X134069778Y-133905752D01*
X134069778Y-133905752D02*
X134165016Y-133953371D01*
X134545969Y-133905752D02*
X134736445Y-134572419D01*
X134736445Y-134572419D02*
X134926921Y-134096228D01*
X134926921Y-134096228D02*
X135117397Y-134572419D01*
X135117397Y-134572419D02*
X135307873Y-133905752D01*
X136117397Y-134572419D02*
X136117397Y-134048609D01*
X136117397Y-134048609D02*
X136069778Y-133953371D01*
X136069778Y-133953371D02*
X135974540Y-133905752D01*
X135974540Y-133905752D02*
X135784064Y-133905752D01*
X135784064Y-133905752D02*
X135688826Y-133953371D01*
X136117397Y-134524800D02*
X136022159Y-134572419D01*
X136022159Y-134572419D02*
X135784064Y-134572419D01*
X135784064Y-134572419D02*
X135688826Y-134524800D01*
X135688826Y-134524800D02*
X135641207Y-134429561D01*
X135641207Y-134429561D02*
X135641207Y-134334323D01*
X135641207Y-134334323D02*
X135688826Y-134239085D01*
X135688826Y-134239085D02*
X135784064Y-134191466D01*
X135784064Y-134191466D02*
X136022159Y-134191466D01*
X136022159Y-134191466D02*
X136117397Y-134143847D01*
X136593588Y-134572419D02*
X136593588Y-133905752D01*
X136593588Y-134096228D02*
X136641207Y-134000990D01*
X136641207Y-134000990D02*
X136688826Y-133953371D01*
X136688826Y-133953371D02*
X136784064Y-133905752D01*
X136784064Y-133905752D02*
X136879302Y-133905752D01*
X137593588Y-134524800D02*
X137498350Y-134572419D01*
X137498350Y-134572419D02*
X137307874Y-134572419D01*
X137307874Y-134572419D02*
X137212636Y-134524800D01*
X137212636Y-134524800D02*
X137165017Y-134429561D01*
X137165017Y-134429561D02*
X137165017Y-134048609D01*
X137165017Y-134048609D02*
X137212636Y-133953371D01*
X137212636Y-133953371D02*
X137307874Y-133905752D01*
X137307874Y-133905752D02*
X137498350Y-133905752D01*
X137498350Y-133905752D02*
X137593588Y-133953371D01*
X137593588Y-133953371D02*
X137641207Y-134048609D01*
X137641207Y-134048609D02*
X137641207Y-134143847D01*
X137641207Y-134143847D02*
X137165017Y-134239085D01*
X138831684Y-134572419D02*
X138831684Y-133572419D01*
X138831684Y-133953371D02*
X138926922Y-133905752D01*
X138926922Y-133905752D02*
X139117398Y-133905752D01*
X139117398Y-133905752D02*
X139212636Y-133953371D01*
X139212636Y-133953371D02*
X139260255Y-134000990D01*
X139260255Y-134000990D02*
X139307874Y-134096228D01*
X139307874Y-134096228D02*
X139307874Y-134381942D01*
X139307874Y-134381942D02*
X139260255Y-134477180D01*
X139260255Y-134477180D02*
X139212636Y-134524800D01*
X139212636Y-134524800D02*
X139117398Y-134572419D01*
X139117398Y-134572419D02*
X138926922Y-134572419D01*
X138926922Y-134572419D02*
X138831684Y-134524800D01*
X139641208Y-133905752D02*
X139879303Y-134572419D01*
X140117398Y-133905752D02*
X139879303Y-134572419D01*
X139879303Y-134572419D02*
X139784065Y-134810514D01*
X139784065Y-134810514D02*
X139736446Y-134858133D01*
X139736446Y-134858133D02*
X139641208Y-134905752D01*
D10*
X150349851Y-131767219D02*
X150016518Y-131291028D01*
X149778423Y-131767219D02*
X149778423Y-130767219D01*
X149778423Y-130767219D02*
X150159375Y-130767219D01*
X150159375Y-130767219D02*
X150254613Y-130814838D01*
X150254613Y-130814838D02*
X150302232Y-130862457D01*
X150302232Y-130862457D02*
X150349851Y-130957695D01*
X150349851Y-130957695D02*
X150349851Y-131100552D01*
X150349851Y-131100552D02*
X150302232Y-131195790D01*
X150302232Y-131195790D02*
X150254613Y-131243409D01*
X150254613Y-131243409D02*
X150159375Y-131291028D01*
X150159375Y-131291028D02*
X149778423Y-131291028D01*
X150778423Y-131243409D02*
X151111756Y-131243409D01*
X151254613Y-131767219D02*
X150778423Y-131767219D01*
X150778423Y-131767219D02*
X150778423Y-130767219D01*
X150778423Y-130767219D02*
X151254613Y-130767219D01*
X151540328Y-130767219D02*
X151873661Y-131767219D01*
X151873661Y-131767219D02*
X152206994Y-130767219D01*
X153254614Y-130862457D02*
X153302233Y-130814838D01*
X153302233Y-130814838D02*
X153397471Y-130767219D01*
X153397471Y-130767219D02*
X153635566Y-130767219D01*
X153635566Y-130767219D02*
X153730804Y-130814838D01*
X153730804Y-130814838D02*
X153778423Y-130862457D01*
X153778423Y-130862457D02*
X153826042Y-130957695D01*
X153826042Y-130957695D02*
X153826042Y-131052933D01*
X153826042Y-131052933D02*
X153778423Y-131195790D01*
X153778423Y-131195790D02*
X153206995Y-131767219D01*
X153206995Y-131767219D02*
X153826042Y-131767219D01*
D12*
X120100478Y-129434438D02*
X120814764Y-131434438D01*
X120814764Y-131434438D02*
X121386192Y-130005866D01*
X121386192Y-130005866D02*
X121957621Y-131434438D01*
X121957621Y-131434438D02*
X122671907Y-129434438D01*
X123814763Y-131434438D02*
X123814763Y-130101104D01*
X123814763Y-129434438D02*
X123671906Y-129529676D01*
X123671906Y-129529676D02*
X123814763Y-129624914D01*
X123814763Y-129624914D02*
X123957620Y-129529676D01*
X123957620Y-129529676D02*
X123814763Y-129434438D01*
X123814763Y-129434438D02*
X123814763Y-129624914D01*
X126243334Y-130386819D02*
X125243334Y-130386819D01*
X125243334Y-131434438D02*
X125243334Y-129434438D01*
X125243334Y-129434438D02*
X126671906Y-129434438D01*
X127814763Y-131434438D02*
X127814763Y-130101104D01*
X127814763Y-129434438D02*
X127671906Y-129529676D01*
X127671906Y-129529676D02*
X127814763Y-129624914D01*
X127814763Y-129624914D02*
X127957620Y-129529676D01*
X127957620Y-129529676D02*
X127814763Y-129434438D01*
X127814763Y-129434438D02*
X127814763Y-129624914D01*
X132529048Y-130386819D02*
X131529048Y-130386819D01*
X131529048Y-131434438D02*
X131529048Y-129434438D01*
X131529048Y-129434438D02*
X132957620Y-129434438D01*
X134100477Y-131434438D02*
X134100477Y-130101104D01*
X134100477Y-130482057D02*
X134243334Y-130291580D01*
X134243334Y-130291580D02*
X134386192Y-130196342D01*
X134386192Y-130196342D02*
X134671906Y-130101104D01*
X134671906Y-130101104D02*
X134957620Y-130101104D01*
X137243335Y-131434438D02*
X137243335Y-130386819D01*
X137243335Y-130386819D02*
X137100477Y-130196342D01*
X137100477Y-130196342D02*
X136814763Y-130101104D01*
X136814763Y-130101104D02*
X136243335Y-130101104D01*
X136243335Y-130101104D02*
X135957620Y-130196342D01*
X137243335Y-131339200D02*
X136957620Y-131434438D01*
X136957620Y-131434438D02*
X136243335Y-131434438D01*
X136243335Y-131434438D02*
X135957620Y-131339200D01*
X135957620Y-131339200D02*
X135814763Y-131148723D01*
X135814763Y-131148723D02*
X135814763Y-130958247D01*
X135814763Y-130958247D02*
X135957620Y-130767771D01*
X135957620Y-130767771D02*
X136243335Y-130672533D01*
X136243335Y-130672533D02*
X136957620Y-130672533D01*
X136957620Y-130672533D02*
X137243335Y-130577295D01*
X139957621Y-130101104D02*
X139957621Y-131434438D01*
X138671906Y-130101104D02*
X138671906Y-131148723D01*
X138671906Y-131148723D02*
X138814763Y-131339200D01*
X138814763Y-131339200D02*
X139100478Y-131434438D01*
X139100478Y-131434438D02*
X139529049Y-131434438D01*
X139529049Y-131434438D02*
X139814763Y-131339200D01*
X139814763Y-131339200D02*
X139957621Y-131243961D01*
X142671907Y-131434438D02*
X142671907Y-129434438D01*
X142671907Y-131339200D02*
X142386192Y-131434438D01*
X142386192Y-131434438D02*
X141814764Y-131434438D01*
X141814764Y-131434438D02*
X141529049Y-131339200D01*
X141529049Y-131339200D02*
X141386192Y-131243961D01*
X141386192Y-131243961D02*
X141243335Y-131053485D01*
X141243335Y-131053485D02*
X141243335Y-130482057D01*
X141243335Y-130482057D02*
X141386192Y-130291580D01*
X141386192Y-130291580D02*
X141529049Y-130196342D01*
X141529049Y-130196342D02*
X141814764Y-130101104D01*
X141814764Y-130101104D02*
X142386192Y-130101104D01*
X142386192Y-130101104D02*
X142671907Y-130196342D01*
X145243335Y-131339200D02*
X144957621Y-131434438D01*
X144957621Y-131434438D02*
X144386193Y-131434438D01*
X144386193Y-131434438D02*
X144100478Y-131339200D01*
X144100478Y-131339200D02*
X143957621Y-131148723D01*
X143957621Y-131148723D02*
X143957621Y-130386819D01*
X143957621Y-130386819D02*
X144100478Y-130196342D01*
X144100478Y-130196342D02*
X144386193Y-130101104D01*
X144386193Y-130101104D02*
X144957621Y-130101104D01*
X144957621Y-130101104D02*
X145243335Y-130196342D01*
X145243335Y-130196342D02*
X145386193Y-130386819D01*
X145386193Y-130386819D02*
X145386193Y-130577295D01*
X145386193Y-130577295D02*
X143957621Y-130767771D01*
X146671907Y-131434438D02*
X146671907Y-130101104D01*
X146671907Y-130482057D02*
X146814764Y-130291580D01*
X146814764Y-130291580D02*
X146957622Y-130196342D01*
X146957622Y-130196342D02*
X147243336Y-130101104D01*
X147243336Y-130101104D02*
X147529050Y-130101104D01*
D13*
X154675417Y-103357200D02*
X154818274Y-103404819D01*
X154818274Y-103404819D02*
X155056369Y-103404819D01*
X155056369Y-103404819D02*
X155151607Y-103357200D01*
X155151607Y-103357200D02*
X155199226Y-103309580D01*
X155199226Y-103309580D02*
X155246845Y-103214342D01*
X155246845Y-103214342D02*
X155246845Y-103119104D01*
X155246845Y-103119104D02*
X155199226Y-103023866D01*
X155199226Y-103023866D02*
X155151607Y-102976247D01*
X155151607Y-102976247D02*
X155056369Y-102928628D01*
X155056369Y-102928628D02*
X154865893Y-102881009D01*
X154865893Y-102881009D02*
X154770655Y-102833390D01*
X154770655Y-102833390D02*
X154723036Y-102785771D01*
X154723036Y-102785771D02*
X154675417Y-102690533D01*
X154675417Y-102690533D02*
X154675417Y-102595295D01*
X154675417Y-102595295D02*
X154723036Y-102500057D01*
X154723036Y-102500057D02*
X154770655Y-102452438D01*
X154770655Y-102452438D02*
X154865893Y-102404819D01*
X154865893Y-102404819D02*
X155103988Y-102404819D01*
X155103988Y-102404819D02*
X155246845Y-102452438D01*
X155580179Y-102404819D02*
X155818274Y-103404819D01*
X155818274Y-103404819D02*
X156008750Y-102690533D01*
X156008750Y-102690533D02*
X156199226Y-103404819D01*
X156199226Y-103404819D02*
X156437322Y-102404819D01*
X157342083Y-103404819D02*
X156770655Y-103404819D01*
X157056369Y-103404819D02*
X157056369Y-102404819D01*
X157056369Y-102404819D02*
X156961131Y-102547676D01*
X156961131Y-102547676D02*
X156865893Y-102642914D01*
X156865893Y-102642914D02*
X156770655Y-102690533D01*
X154675417Y-87257200D02*
X154818274Y-87304819D01*
X154818274Y-87304819D02*
X155056369Y-87304819D01*
X155056369Y-87304819D02*
X155151607Y-87257200D01*
X155151607Y-87257200D02*
X155199226Y-87209580D01*
X155199226Y-87209580D02*
X155246845Y-87114342D01*
X155246845Y-87114342D02*
X155246845Y-87019104D01*
X155246845Y-87019104D02*
X155199226Y-86923866D01*
X155199226Y-86923866D02*
X155151607Y-86876247D01*
X155151607Y-86876247D02*
X155056369Y-86828628D01*
X155056369Y-86828628D02*
X154865893Y-86781009D01*
X154865893Y-86781009D02*
X154770655Y-86733390D01*
X154770655Y-86733390D02*
X154723036Y-86685771D01*
X154723036Y-86685771D02*
X154675417Y-86590533D01*
X154675417Y-86590533D02*
X154675417Y-86495295D01*
X154675417Y-86495295D02*
X154723036Y-86400057D01*
X154723036Y-86400057D02*
X154770655Y-86352438D01*
X154770655Y-86352438D02*
X154865893Y-86304819D01*
X154865893Y-86304819D02*
X155103988Y-86304819D01*
X155103988Y-86304819D02*
X155246845Y-86352438D01*
X155580179Y-86304819D02*
X155818274Y-87304819D01*
X155818274Y-87304819D02*
X156008750Y-86590533D01*
X156008750Y-86590533D02*
X156199226Y-87304819D01*
X156199226Y-87304819D02*
X156437322Y-86304819D01*
X156770655Y-86400057D02*
X156818274Y-86352438D01*
X156818274Y-86352438D02*
X156913512Y-86304819D01*
X156913512Y-86304819D02*
X157151607Y-86304819D01*
X157151607Y-86304819D02*
X157246845Y-86352438D01*
X157246845Y-86352438D02*
X157294464Y-86400057D01*
X157294464Y-86400057D02*
X157342083Y-86495295D01*
X157342083Y-86495295D02*
X157342083Y-86590533D01*
X157342083Y-86590533D02*
X157294464Y-86733390D01*
X157294464Y-86733390D02*
X156723036Y-87304819D01*
X156723036Y-87304819D02*
X157342083Y-87304819D01*
X154675417Y-118557200D02*
X154818274Y-118604819D01*
X154818274Y-118604819D02*
X155056369Y-118604819D01*
X155056369Y-118604819D02*
X155151607Y-118557200D01*
X155151607Y-118557200D02*
X155199226Y-118509580D01*
X155199226Y-118509580D02*
X155246845Y-118414342D01*
X155246845Y-118414342D02*
X155246845Y-118319104D01*
X155246845Y-118319104D02*
X155199226Y-118223866D01*
X155199226Y-118223866D02*
X155151607Y-118176247D01*
X155151607Y-118176247D02*
X155056369Y-118128628D01*
X155056369Y-118128628D02*
X154865893Y-118081009D01*
X154865893Y-118081009D02*
X154770655Y-118033390D01*
X154770655Y-118033390D02*
X154723036Y-117985771D01*
X154723036Y-117985771D02*
X154675417Y-117890533D01*
X154675417Y-117890533D02*
X154675417Y-117795295D01*
X154675417Y-117795295D02*
X154723036Y-117700057D01*
X154723036Y-117700057D02*
X154770655Y-117652438D01*
X154770655Y-117652438D02*
X154865893Y-117604819D01*
X154865893Y-117604819D02*
X155103988Y-117604819D01*
X155103988Y-117604819D02*
X155246845Y-117652438D01*
X155580179Y-117604819D02*
X155818274Y-118604819D01*
X155818274Y-118604819D02*
X156008750Y-117890533D01*
X156008750Y-117890533D02*
X156199226Y-118604819D01*
X156199226Y-118604819D02*
X156437322Y-117604819D01*
X156723036Y-117604819D02*
X157342083Y-117604819D01*
X157342083Y-117604819D02*
X157008750Y-117985771D01*
X157008750Y-117985771D02*
X157151607Y-117985771D01*
X157151607Y-117985771D02*
X157246845Y-118033390D01*
X157246845Y-118033390D02*
X157294464Y-118081009D01*
X157294464Y-118081009D02*
X157342083Y-118176247D01*
X157342083Y-118176247D02*
X157342083Y-118414342D01*
X157342083Y-118414342D02*
X157294464Y-118509580D01*
X157294464Y-118509580D02*
X157246845Y-118557200D01*
X157246845Y-118557200D02*
X157151607Y-118604819D01*
X157151607Y-118604819D02*
X156865893Y-118604819D01*
X156865893Y-118604819D02*
X156770655Y-118557200D01*
X156770655Y-118557200D02*
X156723036Y-118509580D01*
X170642083Y-120584819D02*
X170308750Y-120108628D01*
X170070655Y-120584819D02*
X170070655Y-119584819D01*
X170070655Y-119584819D02*
X170451607Y-119584819D01*
X170451607Y-119584819D02*
X170546845Y-119632438D01*
X170546845Y-119632438D02*
X170594464Y-119680057D01*
X170594464Y-119680057D02*
X170642083Y-119775295D01*
X170642083Y-119775295D02*
X170642083Y-119918152D01*
X170642083Y-119918152D02*
X170594464Y-120013390D01*
X170594464Y-120013390D02*
X170546845Y-120061009D01*
X170546845Y-120061009D02*
X170451607Y-120108628D01*
X170451607Y-120108628D02*
X170070655Y-120108628D01*
X170975417Y-119584819D02*
X171594464Y-119584819D01*
X171594464Y-119584819D02*
X171261131Y-119965771D01*
X171261131Y-119965771D02*
X171403988Y-119965771D01*
X171403988Y-119965771D02*
X171499226Y-120013390D01*
X171499226Y-120013390D02*
X171546845Y-120061009D01*
X171546845Y-120061009D02*
X171594464Y-120156247D01*
X171594464Y-120156247D02*
X171594464Y-120394342D01*
X171594464Y-120394342D02*
X171546845Y-120489580D01*
X171546845Y-120489580D02*
X171499226Y-120537200D01*
X171499226Y-120537200D02*
X171403988Y-120584819D01*
X171403988Y-120584819D02*
X171118274Y-120584819D01*
X171118274Y-120584819D02*
X171023036Y-120537200D01*
X171023036Y-120537200D02*
X170975417Y-120489580D01*
X170642083Y-88884819D02*
X170308750Y-88408628D01*
X170070655Y-88884819D02*
X170070655Y-87884819D01*
X170070655Y-87884819D02*
X170451607Y-87884819D01*
X170451607Y-87884819D02*
X170546845Y-87932438D01*
X170546845Y-87932438D02*
X170594464Y-87980057D01*
X170594464Y-87980057D02*
X170642083Y-88075295D01*
X170642083Y-88075295D02*
X170642083Y-88218152D01*
X170642083Y-88218152D02*
X170594464Y-88313390D01*
X170594464Y-88313390D02*
X170546845Y-88361009D01*
X170546845Y-88361009D02*
X170451607Y-88408628D01*
X170451607Y-88408628D02*
X170070655Y-88408628D01*
X171023036Y-87980057D02*
X171070655Y-87932438D01*
X171070655Y-87932438D02*
X171165893Y-87884819D01*
X171165893Y-87884819D02*
X171403988Y-87884819D01*
X171403988Y-87884819D02*
X171499226Y-87932438D01*
X171499226Y-87932438D02*
X171546845Y-87980057D01*
X171546845Y-87980057D02*
X171594464Y-88075295D01*
X171594464Y-88075295D02*
X171594464Y-88170533D01*
X171594464Y-88170533D02*
X171546845Y-88313390D01*
X171546845Y-88313390D02*
X170975417Y-88884819D01*
X170975417Y-88884819D02*
X171594464Y-88884819D01*
X122821845Y-85697319D02*
X122821845Y-86506842D01*
X122821845Y-86506842D02*
X122869464Y-86602080D01*
X122869464Y-86602080D02*
X122917083Y-86649700D01*
X122917083Y-86649700D02*
X123012321Y-86697319D01*
X123012321Y-86697319D02*
X123202797Y-86697319D01*
X123202797Y-86697319D02*
X123298035Y-86649700D01*
X123298035Y-86649700D02*
X123345654Y-86602080D01*
X123345654Y-86602080D02*
X123393273Y-86506842D01*
X123393273Y-86506842D02*
X123393273Y-85697319D01*
X123821845Y-85792557D02*
X123869464Y-85744938D01*
X123869464Y-85744938D02*
X123964702Y-85697319D01*
X123964702Y-85697319D02*
X124202797Y-85697319D01*
X124202797Y-85697319D02*
X124298035Y-85744938D01*
X124298035Y-85744938D02*
X124345654Y-85792557D01*
X124345654Y-85792557D02*
X124393273Y-85887795D01*
X124393273Y-85887795D02*
X124393273Y-85983033D01*
X124393273Y-85983033D02*
X124345654Y-86125890D01*
X124345654Y-86125890D02*
X123774226Y-86697319D01*
X123774226Y-86697319D02*
X124393273Y-86697319D01*
X125360129Y-65161904D02*
X126169652Y-65161904D01*
X126169652Y-65161904D02*
X126264890Y-65114285D01*
X126264890Y-65114285D02*
X126312510Y-65066666D01*
X126312510Y-65066666D02*
X126360129Y-64971428D01*
X126360129Y-64971428D02*
X126360129Y-64780952D01*
X126360129Y-64780952D02*
X126312510Y-64685714D01*
X126312510Y-64685714D02*
X126264890Y-64638095D01*
X126264890Y-64638095D02*
X126169652Y-64590476D01*
X126169652Y-64590476D02*
X125360129Y-64590476D01*
X126360129Y-63590476D02*
X126360129Y-64161904D01*
X126360129Y-63876190D02*
X125360129Y-63876190D01*
X125360129Y-63876190D02*
X125502986Y-63971428D01*
X125502986Y-63971428D02*
X125598224Y-64066666D01*
X125598224Y-64066666D02*
X125645843Y-64161904D01*
X146540072Y-64331009D02*
X146873405Y-64331009D01*
X147016262Y-64854819D02*
X146540072Y-64854819D01*
X146540072Y-64854819D02*
X146540072Y-63854819D01*
X146540072Y-63854819D02*
X147016262Y-63854819D01*
X147397215Y-64807200D02*
X147540072Y-64854819D01*
X147540072Y-64854819D02*
X147778167Y-64854819D01*
X147778167Y-64854819D02*
X147873405Y-64807200D01*
X147873405Y-64807200D02*
X147921024Y-64759580D01*
X147921024Y-64759580D02*
X147968643Y-64664342D01*
X147968643Y-64664342D02*
X147968643Y-64569104D01*
X147968643Y-64569104D02*
X147921024Y-64473866D01*
X147921024Y-64473866D02*
X147873405Y-64426247D01*
X147873405Y-64426247D02*
X147778167Y-64378628D01*
X147778167Y-64378628D02*
X147587691Y-64331009D01*
X147587691Y-64331009D02*
X147492453Y-64283390D01*
X147492453Y-64283390D02*
X147444834Y-64235771D01*
X147444834Y-64235771D02*
X147397215Y-64140533D01*
X147397215Y-64140533D02*
X147397215Y-64045295D01*
X147397215Y-64045295D02*
X147444834Y-63950057D01*
X147444834Y-63950057D02*
X147492453Y-63902438D01*
X147492453Y-63902438D02*
X147587691Y-63854819D01*
X147587691Y-63854819D02*
X147825786Y-63854819D01*
X147825786Y-63854819D02*
X147968643Y-63902438D01*
X148397215Y-64854819D02*
X148397215Y-63854819D01*
X148397215Y-63854819D02*
X148778167Y-63854819D01*
X148778167Y-63854819D02*
X148873405Y-63902438D01*
X148873405Y-63902438D02*
X148921024Y-63950057D01*
X148921024Y-63950057D02*
X148968643Y-64045295D01*
X148968643Y-64045295D02*
X148968643Y-64188152D01*
X148968643Y-64188152D02*
X148921024Y-64283390D01*
X148921024Y-64283390D02*
X148873405Y-64331009D01*
X148873405Y-64331009D02*
X148778167Y-64378628D01*
X148778167Y-64378628D02*
X148397215Y-64378628D01*
X149301977Y-63854819D02*
X149921024Y-63854819D01*
X149921024Y-63854819D02*
X149587691Y-64235771D01*
X149587691Y-64235771D02*
X149730548Y-64235771D01*
X149730548Y-64235771D02*
X149825786Y-64283390D01*
X149825786Y-64283390D02*
X149873405Y-64331009D01*
X149873405Y-64331009D02*
X149921024Y-64426247D01*
X149921024Y-64426247D02*
X149921024Y-64664342D01*
X149921024Y-64664342D02*
X149873405Y-64759580D01*
X149873405Y-64759580D02*
X149825786Y-64807200D01*
X149825786Y-64807200D02*
X149730548Y-64854819D01*
X149730548Y-64854819D02*
X149444834Y-64854819D01*
X149444834Y-64854819D02*
X149349596Y-64807200D01*
X149349596Y-64807200D02*
X149301977Y-64759580D01*
X150301977Y-63950057D02*
X150349596Y-63902438D01*
X150349596Y-63902438D02*
X150444834Y-63854819D01*
X150444834Y-63854819D02*
X150682929Y-63854819D01*
X150682929Y-63854819D02*
X150778167Y-63902438D01*
X150778167Y-63902438D02*
X150825786Y-63950057D01*
X150825786Y-63950057D02*
X150873405Y-64045295D01*
X150873405Y-64045295D02*
X150873405Y-64140533D01*
X150873405Y-64140533D02*
X150825786Y-64283390D01*
X150825786Y-64283390D02*
X150254358Y-64854819D01*
X150254358Y-64854819D02*
X150873405Y-64854819D01*
X151301977Y-64473866D02*
X152063882Y-64473866D01*
X152540072Y-64854819D02*
X152540072Y-63854819D01*
X152540072Y-63854819D02*
X152778167Y-63854819D01*
X152778167Y-63854819D02*
X152921024Y-63902438D01*
X152921024Y-63902438D02*
X153016262Y-63997676D01*
X153016262Y-63997676D02*
X153063881Y-64092914D01*
X153063881Y-64092914D02*
X153111500Y-64283390D01*
X153111500Y-64283390D02*
X153111500Y-64426247D01*
X153111500Y-64426247D02*
X153063881Y-64616723D01*
X153063881Y-64616723D02*
X153016262Y-64711961D01*
X153016262Y-64711961D02*
X152921024Y-64807200D01*
X152921024Y-64807200D02*
X152778167Y-64854819D01*
X152778167Y-64854819D02*
X152540072Y-64854819D01*
X153921024Y-64807200D02*
X153825786Y-64854819D01*
X153825786Y-64854819D02*
X153635310Y-64854819D01*
X153635310Y-64854819D02*
X153540072Y-64807200D01*
X153540072Y-64807200D02*
X153492453Y-64711961D01*
X153492453Y-64711961D02*
X153492453Y-64331009D01*
X153492453Y-64331009D02*
X153540072Y-64235771D01*
X153540072Y-64235771D02*
X153635310Y-64188152D01*
X153635310Y-64188152D02*
X153825786Y-64188152D01*
X153825786Y-64188152D02*
X153921024Y-64235771D01*
X153921024Y-64235771D02*
X153968643Y-64331009D01*
X153968643Y-64331009D02*
X153968643Y-64426247D01*
X153968643Y-64426247D02*
X153492453Y-64521485D01*
X154301977Y-64188152D02*
X154540072Y-64854819D01*
X154540072Y-64854819D02*
X154778167Y-64188152D01*
X155159120Y-64854819D02*
X155159120Y-63854819D01*
X155730548Y-64854819D02*
X155301977Y-64283390D01*
X155730548Y-63854819D02*
X155159120Y-64426247D01*
X156159120Y-64854819D02*
X156159120Y-64188152D01*
X156159120Y-63854819D02*
X156111501Y-63902438D01*
X156111501Y-63902438D02*
X156159120Y-63950057D01*
X156159120Y-63950057D02*
X156206739Y-63902438D01*
X156206739Y-63902438D02*
X156159120Y-63854819D01*
X156159120Y-63854819D02*
X156159120Y-63950057D01*
X156492453Y-64188152D02*
X156873405Y-64188152D01*
X156635310Y-63854819D02*
X156635310Y-64711961D01*
X156635310Y-64711961D02*
X156682929Y-64807200D01*
X156682929Y-64807200D02*
X156778167Y-64854819D01*
X156778167Y-64854819D02*
X156873405Y-64854819D01*
X157778167Y-64759580D02*
X157730548Y-64807200D01*
X157730548Y-64807200D02*
X157587691Y-64854819D01*
X157587691Y-64854819D02*
X157492453Y-64854819D01*
X157492453Y-64854819D02*
X157349596Y-64807200D01*
X157349596Y-64807200D02*
X157254358Y-64711961D01*
X157254358Y-64711961D02*
X157206739Y-64616723D01*
X157206739Y-64616723D02*
X157159120Y-64426247D01*
X157159120Y-64426247D02*
X157159120Y-64283390D01*
X157159120Y-64283390D02*
X157206739Y-64092914D01*
X157206739Y-64092914D02*
X157254358Y-63997676D01*
X157254358Y-63997676D02*
X157349596Y-63902438D01*
X157349596Y-63902438D02*
X157492453Y-63854819D01*
X157492453Y-63854819D02*
X157587691Y-63854819D01*
X157587691Y-63854819D02*
X157730548Y-63902438D01*
X157730548Y-63902438D02*
X157778167Y-63950057D01*
X168961343Y-54268684D02*
X168261343Y-54268684D01*
X168261343Y-54268684D02*
X168261343Y-54102017D01*
X168261343Y-54102017D02*
X168294676Y-54002017D01*
X168294676Y-54002017D02*
X168361343Y-53935351D01*
X168361343Y-53935351D02*
X168428010Y-53902017D01*
X168428010Y-53902017D02*
X168561343Y-53868684D01*
X168561343Y-53868684D02*
X168661343Y-53868684D01*
X168661343Y-53868684D02*
X168794676Y-53902017D01*
X168794676Y-53902017D02*
X168861343Y-53935351D01*
X168861343Y-53935351D02*
X168928010Y-54002017D01*
X168928010Y-54002017D02*
X168961343Y-54102017D01*
X168961343Y-54102017D02*
X168961343Y-54268684D01*
X168961343Y-53202017D02*
X168961343Y-53602017D01*
X168961343Y-53402017D02*
X168261343Y-53402017D01*
X168261343Y-53402017D02*
X168361343Y-53468684D01*
X168361343Y-53468684D02*
X168428010Y-53535351D01*
X168428010Y-53535351D02*
X168461343Y-53602017D01*
X163214676Y-55668683D02*
X163181343Y-55735350D01*
X163181343Y-55735350D02*
X163181343Y-55835350D01*
X163181343Y-55835350D02*
X163214676Y-55935350D01*
X163214676Y-55935350D02*
X163281343Y-56002017D01*
X163281343Y-56002017D02*
X163348010Y-56035350D01*
X163348010Y-56035350D02*
X163481343Y-56068683D01*
X163481343Y-56068683D02*
X163581343Y-56068683D01*
X163581343Y-56068683D02*
X163714676Y-56035350D01*
X163714676Y-56035350D02*
X163781343Y-56002017D01*
X163781343Y-56002017D02*
X163848010Y-55935350D01*
X163848010Y-55935350D02*
X163881343Y-55835350D01*
X163881343Y-55835350D02*
X163881343Y-55768683D01*
X163881343Y-55768683D02*
X163848010Y-55668683D01*
X163848010Y-55668683D02*
X163814676Y-55635350D01*
X163814676Y-55635350D02*
X163581343Y-55635350D01*
X163581343Y-55635350D02*
X163581343Y-55768683D01*
X163881343Y-55335350D02*
X163181343Y-55335350D01*
X163181343Y-55335350D02*
X163181343Y-55068683D01*
X163181343Y-55068683D02*
X163214676Y-55002017D01*
X163214676Y-55002017D02*
X163248010Y-54968683D01*
X163248010Y-54968683D02*
X163314676Y-54935350D01*
X163314676Y-54935350D02*
X163414676Y-54935350D01*
X163414676Y-54935350D02*
X163481343Y-54968683D01*
X163481343Y-54968683D02*
X163514676Y-55002017D01*
X163514676Y-55002017D02*
X163548010Y-55068683D01*
X163548010Y-55068683D02*
X163548010Y-55335350D01*
X163881343Y-54635350D02*
X163181343Y-54635350D01*
X163181343Y-54168684D02*
X163181343Y-54035350D01*
X163181343Y-54035350D02*
X163214676Y-53968684D01*
X163214676Y-53968684D02*
X163281343Y-53902017D01*
X163281343Y-53902017D02*
X163414676Y-53868684D01*
X163414676Y-53868684D02*
X163648010Y-53868684D01*
X163648010Y-53868684D02*
X163781343Y-53902017D01*
X163781343Y-53902017D02*
X163848010Y-53968684D01*
X163848010Y-53968684D02*
X163881343Y-54035350D01*
X163881343Y-54035350D02*
X163881343Y-54168684D01*
X163881343Y-54168684D02*
X163848010Y-54235350D01*
X163848010Y-54235350D02*
X163781343Y-54302017D01*
X163781343Y-54302017D02*
X163648010Y-54335350D01*
X163648010Y-54335350D02*
X163414676Y-54335350D01*
X163414676Y-54335350D02*
X163281343Y-54302017D01*
X163281343Y-54302017D02*
X163214676Y-54235350D01*
X163214676Y-54235350D02*
X163181343Y-54168684D01*
X163248010Y-53602017D02*
X163214676Y-53568684D01*
X163214676Y-53568684D02*
X163181343Y-53502017D01*
X163181343Y-53502017D02*
X163181343Y-53335351D01*
X163181343Y-53335351D02*
X163214676Y-53268684D01*
X163214676Y-53268684D02*
X163248010Y-53235351D01*
X163248010Y-53235351D02*
X163314676Y-53202017D01*
X163314676Y-53202017D02*
X163381343Y-53202017D01*
X163381343Y-53202017D02*
X163481343Y-53235351D01*
X163481343Y-53235351D02*
X163881343Y-53635351D01*
X163881343Y-53635351D02*
X163881343Y-53202017D01*
X135241343Y-75664649D02*
X135941343Y-75431316D01*
X135941343Y-75431316D02*
X135241343Y-75197982D01*
X135941343Y-74964649D02*
X135241343Y-74964649D01*
X135241343Y-74964649D02*
X135941343Y-74564649D01*
X135941343Y-74564649D02*
X135241343Y-74564649D01*
X135208010Y-73731316D02*
X136108010Y-74331316D01*
X135274676Y-73131316D02*
X135241343Y-73197983D01*
X135241343Y-73197983D02*
X135241343Y-73297983D01*
X135241343Y-73297983D02*
X135274676Y-73397983D01*
X135274676Y-73397983D02*
X135341343Y-73464650D01*
X135341343Y-73464650D02*
X135408010Y-73497983D01*
X135408010Y-73497983D02*
X135541343Y-73531316D01*
X135541343Y-73531316D02*
X135641343Y-73531316D01*
X135641343Y-73531316D02*
X135774676Y-73497983D01*
X135774676Y-73497983D02*
X135841343Y-73464650D01*
X135841343Y-73464650D02*
X135908010Y-73397983D01*
X135908010Y-73397983D02*
X135941343Y-73297983D01*
X135941343Y-73297983D02*
X135941343Y-73231316D01*
X135941343Y-73231316D02*
X135908010Y-73131316D01*
X135908010Y-73131316D02*
X135874676Y-73097983D01*
X135874676Y-73097983D02*
X135641343Y-73097983D01*
X135641343Y-73097983D02*
X135641343Y-73231316D01*
X135941343Y-72797983D02*
X135241343Y-72797983D01*
X135241343Y-72797983D02*
X135241343Y-72531316D01*
X135241343Y-72531316D02*
X135274676Y-72464650D01*
X135274676Y-72464650D02*
X135308010Y-72431316D01*
X135308010Y-72431316D02*
X135374676Y-72397983D01*
X135374676Y-72397983D02*
X135474676Y-72397983D01*
X135474676Y-72397983D02*
X135541343Y-72431316D01*
X135541343Y-72431316D02*
X135574676Y-72464650D01*
X135574676Y-72464650D02*
X135608010Y-72531316D01*
X135608010Y-72531316D02*
X135608010Y-72797983D01*
X135941343Y-72097983D02*
X135241343Y-72097983D01*
X135241343Y-71631317D02*
X135241343Y-71497983D01*
X135241343Y-71497983D02*
X135274676Y-71431317D01*
X135274676Y-71431317D02*
X135341343Y-71364650D01*
X135341343Y-71364650D02*
X135474676Y-71331317D01*
X135474676Y-71331317D02*
X135708010Y-71331317D01*
X135708010Y-71331317D02*
X135841343Y-71364650D01*
X135841343Y-71364650D02*
X135908010Y-71431317D01*
X135908010Y-71431317D02*
X135941343Y-71497983D01*
X135941343Y-71497983D02*
X135941343Y-71631317D01*
X135941343Y-71631317D02*
X135908010Y-71697983D01*
X135908010Y-71697983D02*
X135841343Y-71764650D01*
X135841343Y-71764650D02*
X135708010Y-71797983D01*
X135708010Y-71797983D02*
X135474676Y-71797983D01*
X135474676Y-71797983D02*
X135341343Y-71764650D01*
X135341343Y-71764650D02*
X135274676Y-71697983D01*
X135274676Y-71697983D02*
X135241343Y-71631317D01*
X135241343Y-71097984D02*
X135241343Y-70664650D01*
X135241343Y-70664650D02*
X135508010Y-70897984D01*
X135508010Y-70897984D02*
X135508010Y-70797984D01*
X135508010Y-70797984D02*
X135541343Y-70731317D01*
X135541343Y-70731317D02*
X135574676Y-70697984D01*
X135574676Y-70697984D02*
X135641343Y-70664650D01*
X135641343Y-70664650D02*
X135808010Y-70664650D01*
X135808010Y-70664650D02*
X135874676Y-70697984D01*
X135874676Y-70697984D02*
X135908010Y-70731317D01*
X135908010Y-70731317D02*
X135941343Y-70797984D01*
X135941343Y-70797984D02*
X135941343Y-70997984D01*
X135941343Y-70997984D02*
X135908010Y-71064650D01*
X135908010Y-71064650D02*
X135874676Y-71097984D01*
X135941343Y-70331317D02*
X135941343Y-70197983D01*
X135941343Y-70197983D02*
X135908010Y-70131317D01*
X135908010Y-70131317D02*
X135874676Y-70097983D01*
X135874676Y-70097983D02*
X135774676Y-70031317D01*
X135774676Y-70031317D02*
X135641343Y-69997983D01*
X135641343Y-69997983D02*
X135374676Y-69997983D01*
X135374676Y-69997983D02*
X135308010Y-70031317D01*
X135308010Y-70031317D02*
X135274676Y-70064650D01*
X135274676Y-70064650D02*
X135241343Y-70131317D01*
X135241343Y-70131317D02*
X135241343Y-70264650D01*
X135241343Y-70264650D02*
X135274676Y-70331317D01*
X135274676Y-70331317D02*
X135308010Y-70364650D01*
X135308010Y-70364650D02*
X135374676Y-70397983D01*
X135374676Y-70397983D02*
X135541343Y-70397983D01*
X135541343Y-70397983D02*
X135608010Y-70364650D01*
X135608010Y-70364650D02*
X135641343Y-70331317D01*
X135641343Y-70331317D02*
X135674676Y-70264650D01*
X135674676Y-70264650D02*
X135674676Y-70131317D01*
X135674676Y-70131317D02*
X135641343Y-70064650D01*
X135641343Y-70064650D02*
X135608010Y-70031317D01*
X135608010Y-70031317D02*
X135541343Y-69997983D01*
X163214676Y-75197982D02*
X163181343Y-75264649D01*
X163181343Y-75264649D02*
X163181343Y-75364649D01*
X163181343Y-75364649D02*
X163214676Y-75464649D01*
X163214676Y-75464649D02*
X163281343Y-75531316D01*
X163281343Y-75531316D02*
X163348010Y-75564649D01*
X163348010Y-75564649D02*
X163481343Y-75597982D01*
X163481343Y-75597982D02*
X163581343Y-75597982D01*
X163581343Y-75597982D02*
X163714676Y-75564649D01*
X163714676Y-75564649D02*
X163781343Y-75531316D01*
X163781343Y-75531316D02*
X163848010Y-75464649D01*
X163848010Y-75464649D02*
X163881343Y-75364649D01*
X163881343Y-75364649D02*
X163881343Y-75297982D01*
X163881343Y-75297982D02*
X163848010Y-75197982D01*
X163848010Y-75197982D02*
X163814676Y-75164649D01*
X163814676Y-75164649D02*
X163581343Y-75164649D01*
X163581343Y-75164649D02*
X163581343Y-75297982D01*
X163881343Y-74864649D02*
X163181343Y-74864649D01*
X163181343Y-74864649D02*
X163181343Y-74597982D01*
X163181343Y-74597982D02*
X163214676Y-74531316D01*
X163214676Y-74531316D02*
X163248010Y-74497982D01*
X163248010Y-74497982D02*
X163314676Y-74464649D01*
X163314676Y-74464649D02*
X163414676Y-74464649D01*
X163414676Y-74464649D02*
X163481343Y-74497982D01*
X163481343Y-74497982D02*
X163514676Y-74531316D01*
X163514676Y-74531316D02*
X163548010Y-74597982D01*
X163548010Y-74597982D02*
X163548010Y-74864649D01*
X163881343Y-74164649D02*
X163181343Y-74164649D01*
X163181343Y-73697983D02*
X163181343Y-73564649D01*
X163181343Y-73564649D02*
X163214676Y-73497983D01*
X163214676Y-73497983D02*
X163281343Y-73431316D01*
X163281343Y-73431316D02*
X163414676Y-73397983D01*
X163414676Y-73397983D02*
X163648010Y-73397983D01*
X163648010Y-73397983D02*
X163781343Y-73431316D01*
X163781343Y-73431316D02*
X163848010Y-73497983D01*
X163848010Y-73497983D02*
X163881343Y-73564649D01*
X163881343Y-73564649D02*
X163881343Y-73697983D01*
X163881343Y-73697983D02*
X163848010Y-73764649D01*
X163848010Y-73764649D02*
X163781343Y-73831316D01*
X163781343Y-73831316D02*
X163648010Y-73864649D01*
X163648010Y-73864649D02*
X163414676Y-73864649D01*
X163414676Y-73864649D02*
X163281343Y-73831316D01*
X163281343Y-73831316D02*
X163214676Y-73764649D01*
X163214676Y-73764649D02*
X163181343Y-73697983D01*
X163881343Y-72731316D02*
X163881343Y-73131316D01*
X163881343Y-72931316D02*
X163181343Y-72931316D01*
X163181343Y-72931316D02*
X163281343Y-72997983D01*
X163281343Y-72997983D02*
X163348010Y-73064650D01*
X163348010Y-73064650D02*
X163381343Y-73131316D01*
X163181343Y-72497983D02*
X163181343Y-72064649D01*
X163181343Y-72064649D02*
X163448010Y-72297983D01*
X163448010Y-72297983D02*
X163448010Y-72197983D01*
X163448010Y-72197983D02*
X163481343Y-72131316D01*
X163481343Y-72131316D02*
X163514676Y-72097983D01*
X163514676Y-72097983D02*
X163581343Y-72064649D01*
X163581343Y-72064649D02*
X163748010Y-72064649D01*
X163748010Y-72064649D02*
X163814676Y-72097983D01*
X163814676Y-72097983D02*
X163848010Y-72131316D01*
X163848010Y-72131316D02*
X163881343Y-72197983D01*
X163881343Y-72197983D02*
X163881343Y-72397983D01*
X163881343Y-72397983D02*
X163848010Y-72464649D01*
X163848010Y-72464649D02*
X163814676Y-72497983D01*
X163148010Y-71264649D02*
X164048010Y-71864649D01*
X163881343Y-71031316D02*
X163181343Y-71031316D01*
X163181343Y-71031316D02*
X163681343Y-70797983D01*
X163681343Y-70797983D02*
X163181343Y-70564649D01*
X163181343Y-70564649D02*
X163881343Y-70564649D01*
X163181343Y-70331316D02*
X163181343Y-69931316D01*
X163881343Y-70131316D02*
X163181343Y-70131316D01*
X163814676Y-69297983D02*
X163848010Y-69331316D01*
X163848010Y-69331316D02*
X163881343Y-69431316D01*
X163881343Y-69431316D02*
X163881343Y-69497983D01*
X163881343Y-69497983D02*
X163848010Y-69597983D01*
X163848010Y-69597983D02*
X163781343Y-69664650D01*
X163781343Y-69664650D02*
X163714676Y-69697983D01*
X163714676Y-69697983D02*
X163581343Y-69731316D01*
X163581343Y-69731316D02*
X163481343Y-69731316D01*
X163481343Y-69731316D02*
X163348010Y-69697983D01*
X163348010Y-69697983D02*
X163281343Y-69664650D01*
X163281343Y-69664650D02*
X163214676Y-69597983D01*
X163214676Y-69597983D02*
X163181343Y-69497983D01*
X163181343Y-69497983D02*
X163181343Y-69431316D01*
X163181343Y-69431316D02*
X163214676Y-69331316D01*
X163214676Y-69331316D02*
X163248010Y-69297983D01*
X163881343Y-68997983D02*
X163181343Y-68997983D01*
X163881343Y-68597983D02*
X163481343Y-68897983D01*
X163181343Y-68597983D02*
X163581343Y-68997983D01*
X132734676Y-56335350D02*
X132701343Y-56402017D01*
X132701343Y-56402017D02*
X132701343Y-56502017D01*
X132701343Y-56502017D02*
X132734676Y-56602017D01*
X132734676Y-56602017D02*
X132801343Y-56668684D01*
X132801343Y-56668684D02*
X132868010Y-56702017D01*
X132868010Y-56702017D02*
X133001343Y-56735350D01*
X133001343Y-56735350D02*
X133101343Y-56735350D01*
X133101343Y-56735350D02*
X133234676Y-56702017D01*
X133234676Y-56702017D02*
X133301343Y-56668684D01*
X133301343Y-56668684D02*
X133368010Y-56602017D01*
X133368010Y-56602017D02*
X133401343Y-56502017D01*
X133401343Y-56502017D02*
X133401343Y-56435350D01*
X133401343Y-56435350D02*
X133368010Y-56335350D01*
X133368010Y-56335350D02*
X133334676Y-56302017D01*
X133334676Y-56302017D02*
X133101343Y-56302017D01*
X133101343Y-56302017D02*
X133101343Y-56435350D01*
X133401343Y-56002017D02*
X132701343Y-56002017D01*
X132701343Y-56002017D02*
X132701343Y-55735350D01*
X132701343Y-55735350D02*
X132734676Y-55668684D01*
X132734676Y-55668684D02*
X132768010Y-55635350D01*
X132768010Y-55635350D02*
X132834676Y-55602017D01*
X132834676Y-55602017D02*
X132934676Y-55602017D01*
X132934676Y-55602017D02*
X133001343Y-55635350D01*
X133001343Y-55635350D02*
X133034676Y-55668684D01*
X133034676Y-55668684D02*
X133068010Y-55735350D01*
X133068010Y-55735350D02*
X133068010Y-56002017D01*
X133401343Y-55302017D02*
X132701343Y-55302017D01*
X132701343Y-54835351D02*
X132701343Y-54702017D01*
X132701343Y-54702017D02*
X132734676Y-54635351D01*
X132734676Y-54635351D02*
X132801343Y-54568684D01*
X132801343Y-54568684D02*
X132934676Y-54535351D01*
X132934676Y-54535351D02*
X133168010Y-54535351D01*
X133168010Y-54535351D02*
X133301343Y-54568684D01*
X133301343Y-54568684D02*
X133368010Y-54635351D01*
X133368010Y-54635351D02*
X133401343Y-54702017D01*
X133401343Y-54702017D02*
X133401343Y-54835351D01*
X133401343Y-54835351D02*
X133368010Y-54902017D01*
X133368010Y-54902017D02*
X133301343Y-54968684D01*
X133301343Y-54968684D02*
X133168010Y-55002017D01*
X133168010Y-55002017D02*
X132934676Y-55002017D01*
X132934676Y-55002017D02*
X132801343Y-54968684D01*
X132801343Y-54968684D02*
X132734676Y-54902017D01*
X132734676Y-54902017D02*
X132701343Y-54835351D01*
X132768010Y-54268684D02*
X132734676Y-54235351D01*
X132734676Y-54235351D02*
X132701343Y-54168684D01*
X132701343Y-54168684D02*
X132701343Y-54002018D01*
X132701343Y-54002018D02*
X132734676Y-53935351D01*
X132734676Y-53935351D02*
X132768010Y-53902018D01*
X132768010Y-53902018D02*
X132834676Y-53868684D01*
X132834676Y-53868684D02*
X132901343Y-53868684D01*
X132901343Y-53868684D02*
X133001343Y-53902018D01*
X133001343Y-53902018D02*
X133401343Y-54302018D01*
X133401343Y-54302018D02*
X133401343Y-53868684D01*
X132768010Y-53602017D02*
X132734676Y-53568684D01*
X132734676Y-53568684D02*
X132701343Y-53502017D01*
X132701343Y-53502017D02*
X132701343Y-53335351D01*
X132701343Y-53335351D02*
X132734676Y-53268684D01*
X132734676Y-53268684D02*
X132768010Y-53235351D01*
X132768010Y-53235351D02*
X132834676Y-53202017D01*
X132834676Y-53202017D02*
X132901343Y-53202017D01*
X132901343Y-53202017D02*
X133001343Y-53235351D01*
X133001343Y-53235351D02*
X133401343Y-53635351D01*
X133401343Y-53635351D02*
X133401343Y-53202017D01*
X160527748Y-74969411D02*
X160480129Y-75064649D01*
X160480129Y-75064649D02*
X160480129Y-75207506D01*
X160480129Y-75207506D02*
X160527748Y-75350363D01*
X160527748Y-75350363D02*
X160622986Y-75445601D01*
X160622986Y-75445601D02*
X160718224Y-75493220D01*
X160718224Y-75493220D02*
X160908700Y-75540839D01*
X160908700Y-75540839D02*
X161051557Y-75540839D01*
X161051557Y-75540839D02*
X161242033Y-75493220D01*
X161242033Y-75493220D02*
X161337271Y-75445601D01*
X161337271Y-75445601D02*
X161432510Y-75350363D01*
X161432510Y-75350363D02*
X161480129Y-75207506D01*
X161480129Y-75207506D02*
X161480129Y-75112268D01*
X161480129Y-75112268D02*
X161432510Y-74969411D01*
X161432510Y-74969411D02*
X161384890Y-74921792D01*
X161384890Y-74921792D02*
X161051557Y-74921792D01*
X161051557Y-74921792D02*
X161051557Y-75112268D01*
X161480129Y-74493220D02*
X160480129Y-74493220D01*
X160480129Y-74493220D02*
X161480129Y-73921792D01*
X161480129Y-73921792D02*
X160480129Y-73921792D01*
X161480129Y-73445601D02*
X160480129Y-73445601D01*
X160480129Y-73445601D02*
X160480129Y-73207506D01*
X160480129Y-73207506D02*
X160527748Y-73064649D01*
X160527748Y-73064649D02*
X160622986Y-72969411D01*
X160622986Y-72969411D02*
X160718224Y-72921792D01*
X160718224Y-72921792D02*
X160908700Y-72874173D01*
X160908700Y-72874173D02*
X161051557Y-72874173D01*
X161051557Y-72874173D02*
X161242033Y-72921792D01*
X161242033Y-72921792D02*
X161337271Y-72969411D01*
X161337271Y-72969411D02*
X161432510Y-73064649D01*
X161432510Y-73064649D02*
X161480129Y-73207506D01*
X161480129Y-73207506D02*
X161480129Y-73445601D01*
X142894676Y-75197982D02*
X142861343Y-75264649D01*
X142861343Y-75264649D02*
X142861343Y-75364649D01*
X142861343Y-75364649D02*
X142894676Y-75464649D01*
X142894676Y-75464649D02*
X142961343Y-75531316D01*
X142961343Y-75531316D02*
X143028010Y-75564649D01*
X143028010Y-75564649D02*
X143161343Y-75597982D01*
X143161343Y-75597982D02*
X143261343Y-75597982D01*
X143261343Y-75597982D02*
X143394676Y-75564649D01*
X143394676Y-75564649D02*
X143461343Y-75531316D01*
X143461343Y-75531316D02*
X143528010Y-75464649D01*
X143528010Y-75464649D02*
X143561343Y-75364649D01*
X143561343Y-75364649D02*
X143561343Y-75297982D01*
X143561343Y-75297982D02*
X143528010Y-75197982D01*
X143528010Y-75197982D02*
X143494676Y-75164649D01*
X143494676Y-75164649D02*
X143261343Y-75164649D01*
X143261343Y-75164649D02*
X143261343Y-75297982D01*
X143561343Y-74864649D02*
X142861343Y-74864649D01*
X142861343Y-74864649D02*
X142861343Y-74597982D01*
X142861343Y-74597982D02*
X142894676Y-74531316D01*
X142894676Y-74531316D02*
X142928010Y-74497982D01*
X142928010Y-74497982D02*
X142994676Y-74464649D01*
X142994676Y-74464649D02*
X143094676Y-74464649D01*
X143094676Y-74464649D02*
X143161343Y-74497982D01*
X143161343Y-74497982D02*
X143194676Y-74531316D01*
X143194676Y-74531316D02*
X143228010Y-74597982D01*
X143228010Y-74597982D02*
X143228010Y-74864649D01*
X143561343Y-74164649D02*
X142861343Y-74164649D01*
X142861343Y-73697983D02*
X142861343Y-73564649D01*
X142861343Y-73564649D02*
X142894676Y-73497983D01*
X142894676Y-73497983D02*
X142961343Y-73431316D01*
X142961343Y-73431316D02*
X143094676Y-73397983D01*
X143094676Y-73397983D02*
X143328010Y-73397983D01*
X143328010Y-73397983D02*
X143461343Y-73431316D01*
X143461343Y-73431316D02*
X143528010Y-73497983D01*
X143528010Y-73497983D02*
X143561343Y-73564649D01*
X143561343Y-73564649D02*
X143561343Y-73697983D01*
X143561343Y-73697983D02*
X143528010Y-73764649D01*
X143528010Y-73764649D02*
X143461343Y-73831316D01*
X143461343Y-73831316D02*
X143328010Y-73864649D01*
X143328010Y-73864649D02*
X143094676Y-73864649D01*
X143094676Y-73864649D02*
X142961343Y-73831316D01*
X142961343Y-73831316D02*
X142894676Y-73764649D01*
X142894676Y-73764649D02*
X142861343Y-73697983D01*
X142861343Y-73164650D02*
X142861343Y-72731316D01*
X142861343Y-72731316D02*
X143128010Y-72964650D01*
X143128010Y-72964650D02*
X143128010Y-72864650D01*
X143128010Y-72864650D02*
X143161343Y-72797983D01*
X143161343Y-72797983D02*
X143194676Y-72764650D01*
X143194676Y-72764650D02*
X143261343Y-72731316D01*
X143261343Y-72731316D02*
X143428010Y-72731316D01*
X143428010Y-72731316D02*
X143494676Y-72764650D01*
X143494676Y-72764650D02*
X143528010Y-72797983D01*
X143528010Y-72797983D02*
X143561343Y-72864650D01*
X143561343Y-72864650D02*
X143561343Y-73064650D01*
X143561343Y-73064650D02*
X143528010Y-73131316D01*
X143528010Y-73131316D02*
X143494676Y-73164650D01*
X142928010Y-72464649D02*
X142894676Y-72431316D01*
X142894676Y-72431316D02*
X142861343Y-72364649D01*
X142861343Y-72364649D02*
X142861343Y-72197983D01*
X142861343Y-72197983D02*
X142894676Y-72131316D01*
X142894676Y-72131316D02*
X142928010Y-72097983D01*
X142928010Y-72097983D02*
X142994676Y-72064649D01*
X142994676Y-72064649D02*
X143061343Y-72064649D01*
X143061343Y-72064649D02*
X143161343Y-72097983D01*
X143161343Y-72097983D02*
X143561343Y-72497983D01*
X143561343Y-72497983D02*
X143561343Y-72064649D01*
X135274676Y-59702016D02*
X135241343Y-59768683D01*
X135241343Y-59768683D02*
X135241343Y-59868683D01*
X135241343Y-59868683D02*
X135274676Y-59968683D01*
X135274676Y-59968683D02*
X135341343Y-60035350D01*
X135341343Y-60035350D02*
X135408010Y-60068683D01*
X135408010Y-60068683D02*
X135541343Y-60102016D01*
X135541343Y-60102016D02*
X135641343Y-60102016D01*
X135641343Y-60102016D02*
X135774676Y-60068683D01*
X135774676Y-60068683D02*
X135841343Y-60035350D01*
X135841343Y-60035350D02*
X135908010Y-59968683D01*
X135908010Y-59968683D02*
X135941343Y-59868683D01*
X135941343Y-59868683D02*
X135941343Y-59802016D01*
X135941343Y-59802016D02*
X135908010Y-59702016D01*
X135908010Y-59702016D02*
X135874676Y-59668683D01*
X135874676Y-59668683D02*
X135641343Y-59668683D01*
X135641343Y-59668683D02*
X135641343Y-59802016D01*
X135941343Y-59368683D02*
X135241343Y-59368683D01*
X135241343Y-59368683D02*
X135241343Y-59102016D01*
X135241343Y-59102016D02*
X135274676Y-59035350D01*
X135274676Y-59035350D02*
X135308010Y-59002016D01*
X135308010Y-59002016D02*
X135374676Y-58968683D01*
X135374676Y-58968683D02*
X135474676Y-58968683D01*
X135474676Y-58968683D02*
X135541343Y-59002016D01*
X135541343Y-59002016D02*
X135574676Y-59035350D01*
X135574676Y-59035350D02*
X135608010Y-59102016D01*
X135608010Y-59102016D02*
X135608010Y-59368683D01*
X135941343Y-58668683D02*
X135241343Y-58668683D01*
X135241343Y-58202017D02*
X135241343Y-58068683D01*
X135241343Y-58068683D02*
X135274676Y-58002017D01*
X135274676Y-58002017D02*
X135341343Y-57935350D01*
X135341343Y-57935350D02*
X135474676Y-57902017D01*
X135474676Y-57902017D02*
X135708010Y-57902017D01*
X135708010Y-57902017D02*
X135841343Y-57935350D01*
X135841343Y-57935350D02*
X135908010Y-58002017D01*
X135908010Y-58002017D02*
X135941343Y-58068683D01*
X135941343Y-58068683D02*
X135941343Y-58202017D01*
X135941343Y-58202017D02*
X135908010Y-58268683D01*
X135908010Y-58268683D02*
X135841343Y-58335350D01*
X135841343Y-58335350D02*
X135708010Y-58368683D01*
X135708010Y-58368683D02*
X135474676Y-58368683D01*
X135474676Y-58368683D02*
X135341343Y-58335350D01*
X135341343Y-58335350D02*
X135274676Y-58268683D01*
X135274676Y-58268683D02*
X135241343Y-58202017D01*
X135941343Y-57235350D02*
X135941343Y-57635350D01*
X135941343Y-57435350D02*
X135241343Y-57435350D01*
X135241343Y-57435350D02*
X135341343Y-57502017D01*
X135341343Y-57502017D02*
X135408010Y-57568684D01*
X135408010Y-57568684D02*
X135441343Y-57635350D01*
X135208010Y-56435350D02*
X136108010Y-57035350D01*
X135241343Y-56202017D02*
X135808010Y-56202017D01*
X135808010Y-56202017D02*
X135874676Y-56168684D01*
X135874676Y-56168684D02*
X135908010Y-56135350D01*
X135908010Y-56135350D02*
X135941343Y-56068684D01*
X135941343Y-56068684D02*
X135941343Y-55935350D01*
X135941343Y-55935350D02*
X135908010Y-55868684D01*
X135908010Y-55868684D02*
X135874676Y-55835350D01*
X135874676Y-55835350D02*
X135808010Y-55802017D01*
X135808010Y-55802017D02*
X135241343Y-55802017D01*
X135241343Y-55335351D02*
X135241343Y-55268684D01*
X135241343Y-55268684D02*
X135274676Y-55202017D01*
X135274676Y-55202017D02*
X135308010Y-55168684D01*
X135308010Y-55168684D02*
X135374676Y-55135351D01*
X135374676Y-55135351D02*
X135508010Y-55102017D01*
X135508010Y-55102017D02*
X135674676Y-55102017D01*
X135674676Y-55102017D02*
X135808010Y-55135351D01*
X135808010Y-55135351D02*
X135874676Y-55168684D01*
X135874676Y-55168684D02*
X135908010Y-55202017D01*
X135908010Y-55202017D02*
X135941343Y-55268684D01*
X135941343Y-55268684D02*
X135941343Y-55335351D01*
X135941343Y-55335351D02*
X135908010Y-55402017D01*
X135908010Y-55402017D02*
X135874676Y-55435351D01*
X135874676Y-55435351D02*
X135808010Y-55468684D01*
X135808010Y-55468684D02*
X135674676Y-55502017D01*
X135674676Y-55502017D02*
X135508010Y-55502017D01*
X135508010Y-55502017D02*
X135374676Y-55468684D01*
X135374676Y-55468684D02*
X135308010Y-55435351D01*
X135308010Y-55435351D02*
X135274676Y-55402017D01*
X135274676Y-55402017D02*
X135241343Y-55335351D01*
X135241343Y-54902017D02*
X135241343Y-54502017D01*
X135941343Y-54702017D02*
X135241343Y-54702017D01*
X135241343Y-54335351D02*
X135941343Y-53868684D01*
X135241343Y-53868684D02*
X135941343Y-54335351D01*
X135941343Y-53602017D02*
X135241343Y-53602017D01*
X135241343Y-53602017D02*
X135241343Y-53435350D01*
X135241343Y-53435350D02*
X135274676Y-53335350D01*
X135274676Y-53335350D02*
X135341343Y-53268684D01*
X135341343Y-53268684D02*
X135408010Y-53235350D01*
X135408010Y-53235350D02*
X135541343Y-53202017D01*
X135541343Y-53202017D02*
X135641343Y-53202017D01*
X135641343Y-53202017D02*
X135774676Y-53235350D01*
X135774676Y-53235350D02*
X135841343Y-53268684D01*
X135841343Y-53268684D02*
X135908010Y-53335350D01*
X135908010Y-53335350D02*
X135941343Y-53435350D01*
X135941343Y-53435350D02*
X135941343Y-53602017D01*
X166421343Y-75564649D02*
X165721343Y-75564649D01*
X165721343Y-75564649D02*
X165721343Y-75397982D01*
X165721343Y-75397982D02*
X165754676Y-75297982D01*
X165754676Y-75297982D02*
X165821343Y-75231316D01*
X165821343Y-75231316D02*
X165888010Y-75197982D01*
X165888010Y-75197982D02*
X166021343Y-75164649D01*
X166021343Y-75164649D02*
X166121343Y-75164649D01*
X166121343Y-75164649D02*
X166254676Y-75197982D01*
X166254676Y-75197982D02*
X166321343Y-75231316D01*
X166321343Y-75231316D02*
X166388010Y-75297982D01*
X166388010Y-75297982D02*
X166421343Y-75397982D01*
X166421343Y-75397982D02*
X166421343Y-75564649D01*
X165788010Y-74897982D02*
X165754676Y-74864649D01*
X165754676Y-74864649D02*
X165721343Y-74797982D01*
X165721343Y-74797982D02*
X165721343Y-74631316D01*
X165721343Y-74631316D02*
X165754676Y-74564649D01*
X165754676Y-74564649D02*
X165788010Y-74531316D01*
X165788010Y-74531316D02*
X165854676Y-74497982D01*
X165854676Y-74497982D02*
X165921343Y-74497982D01*
X165921343Y-74497982D02*
X166021343Y-74531316D01*
X166021343Y-74531316D02*
X166421343Y-74931316D01*
X166421343Y-74931316D02*
X166421343Y-74497982D01*
X127507748Y-55354398D02*
X127460129Y-55449636D01*
X127460129Y-55449636D02*
X127460129Y-55592493D01*
X127460129Y-55592493D02*
X127507748Y-55735350D01*
X127507748Y-55735350D02*
X127602986Y-55830588D01*
X127602986Y-55830588D02*
X127698224Y-55878207D01*
X127698224Y-55878207D02*
X127888700Y-55925826D01*
X127888700Y-55925826D02*
X128031557Y-55925826D01*
X128031557Y-55925826D02*
X128222033Y-55878207D01*
X128222033Y-55878207D02*
X128317271Y-55830588D01*
X128317271Y-55830588D02*
X128412510Y-55735350D01*
X128412510Y-55735350D02*
X128460129Y-55592493D01*
X128460129Y-55592493D02*
X128460129Y-55497255D01*
X128460129Y-55497255D02*
X128412510Y-55354398D01*
X128412510Y-55354398D02*
X128364890Y-55306779D01*
X128364890Y-55306779D02*
X128031557Y-55306779D01*
X128031557Y-55306779D02*
X128031557Y-55497255D01*
X128460129Y-54878207D02*
X127460129Y-54878207D01*
X127460129Y-54878207D02*
X128460129Y-54306779D01*
X128460129Y-54306779D02*
X127460129Y-54306779D01*
X128460129Y-53830588D02*
X127460129Y-53830588D01*
X127460129Y-53830588D02*
X127460129Y-53592493D01*
X127460129Y-53592493D02*
X127507748Y-53449636D01*
X127507748Y-53449636D02*
X127602986Y-53354398D01*
X127602986Y-53354398D02*
X127698224Y-53306779D01*
X127698224Y-53306779D02*
X127888700Y-53259160D01*
X127888700Y-53259160D02*
X128031557Y-53259160D01*
X128031557Y-53259160D02*
X128222033Y-53306779D01*
X128222033Y-53306779D02*
X128317271Y-53354398D01*
X128317271Y-53354398D02*
X128412510Y-53449636D01*
X128412510Y-53449636D02*
X128460129Y-53592493D01*
X128460129Y-53592493D02*
X128460129Y-53830588D01*
X127460129Y-75588458D02*
X127460129Y-74969411D01*
X127460129Y-74969411D02*
X127841081Y-75302744D01*
X127841081Y-75302744D02*
X127841081Y-75159887D01*
X127841081Y-75159887D02*
X127888700Y-75064649D01*
X127888700Y-75064649D02*
X127936319Y-75017030D01*
X127936319Y-75017030D02*
X128031557Y-74969411D01*
X128031557Y-74969411D02*
X128269652Y-74969411D01*
X128269652Y-74969411D02*
X128364890Y-75017030D01*
X128364890Y-75017030D02*
X128412510Y-75064649D01*
X128412510Y-75064649D02*
X128460129Y-75159887D01*
X128460129Y-75159887D02*
X128460129Y-75445601D01*
X128460129Y-75445601D02*
X128412510Y-75540839D01*
X128412510Y-75540839D02*
X128364890Y-75588458D01*
X127460129Y-74683696D02*
X128460129Y-74350363D01*
X128460129Y-74350363D02*
X127460129Y-74017030D01*
X127460129Y-73778934D02*
X127460129Y-73159887D01*
X127460129Y-73159887D02*
X127841081Y-73493220D01*
X127841081Y-73493220D02*
X127841081Y-73350363D01*
X127841081Y-73350363D02*
X127888700Y-73255125D01*
X127888700Y-73255125D02*
X127936319Y-73207506D01*
X127936319Y-73207506D02*
X128031557Y-73159887D01*
X128031557Y-73159887D02*
X128269652Y-73159887D01*
X128269652Y-73159887D02*
X128364890Y-73207506D01*
X128364890Y-73207506D02*
X128412510Y-73255125D01*
X128412510Y-73255125D02*
X128460129Y-73350363D01*
X128460129Y-73350363D02*
X128460129Y-73636077D01*
X128460129Y-73636077D02*
X128412510Y-73731315D01*
X128412510Y-73731315D02*
X128364890Y-73778934D01*
X142747748Y-55354398D02*
X142700129Y-55449636D01*
X142700129Y-55449636D02*
X142700129Y-55592493D01*
X142700129Y-55592493D02*
X142747748Y-55735350D01*
X142747748Y-55735350D02*
X142842986Y-55830588D01*
X142842986Y-55830588D02*
X142938224Y-55878207D01*
X142938224Y-55878207D02*
X143128700Y-55925826D01*
X143128700Y-55925826D02*
X143271557Y-55925826D01*
X143271557Y-55925826D02*
X143462033Y-55878207D01*
X143462033Y-55878207D02*
X143557271Y-55830588D01*
X143557271Y-55830588D02*
X143652510Y-55735350D01*
X143652510Y-55735350D02*
X143700129Y-55592493D01*
X143700129Y-55592493D02*
X143700129Y-55497255D01*
X143700129Y-55497255D02*
X143652510Y-55354398D01*
X143652510Y-55354398D02*
X143604890Y-55306779D01*
X143604890Y-55306779D02*
X143271557Y-55306779D01*
X143271557Y-55306779D02*
X143271557Y-55497255D01*
X143700129Y-54878207D02*
X142700129Y-54878207D01*
X142700129Y-54878207D02*
X143700129Y-54306779D01*
X143700129Y-54306779D02*
X142700129Y-54306779D01*
X143700129Y-53830588D02*
X142700129Y-53830588D01*
X142700129Y-53830588D02*
X142700129Y-53592493D01*
X142700129Y-53592493D02*
X142747748Y-53449636D01*
X142747748Y-53449636D02*
X142842986Y-53354398D01*
X142842986Y-53354398D02*
X142938224Y-53306779D01*
X142938224Y-53306779D02*
X143128700Y-53259160D01*
X143128700Y-53259160D02*
X143271557Y-53259160D01*
X143271557Y-53259160D02*
X143462033Y-53306779D01*
X143462033Y-53306779D02*
X143557271Y-53354398D01*
X143557271Y-53354398D02*
X143652510Y-53449636D01*
X143652510Y-53449636D02*
X143700129Y-53592493D01*
X143700129Y-53592493D02*
X143700129Y-53830588D01*
X165754676Y-59835349D02*
X165721343Y-59902016D01*
X165721343Y-59902016D02*
X165721343Y-60002016D01*
X165721343Y-60002016D02*
X165754676Y-60102016D01*
X165754676Y-60102016D02*
X165821343Y-60168683D01*
X165821343Y-60168683D02*
X165888010Y-60202016D01*
X165888010Y-60202016D02*
X166021343Y-60235349D01*
X166021343Y-60235349D02*
X166121343Y-60235349D01*
X166121343Y-60235349D02*
X166254676Y-60202016D01*
X166254676Y-60202016D02*
X166321343Y-60168683D01*
X166321343Y-60168683D02*
X166388010Y-60102016D01*
X166388010Y-60102016D02*
X166421343Y-60002016D01*
X166421343Y-60002016D02*
X166421343Y-59935349D01*
X166421343Y-59935349D02*
X166388010Y-59835349D01*
X166388010Y-59835349D02*
X166354676Y-59802016D01*
X166354676Y-59802016D02*
X166121343Y-59802016D01*
X166121343Y-59802016D02*
X166121343Y-59935349D01*
X166421343Y-59502016D02*
X165721343Y-59502016D01*
X165721343Y-59502016D02*
X165721343Y-59235349D01*
X165721343Y-59235349D02*
X165754676Y-59168683D01*
X165754676Y-59168683D02*
X165788010Y-59135349D01*
X165788010Y-59135349D02*
X165854676Y-59102016D01*
X165854676Y-59102016D02*
X165954676Y-59102016D01*
X165954676Y-59102016D02*
X166021343Y-59135349D01*
X166021343Y-59135349D02*
X166054676Y-59168683D01*
X166054676Y-59168683D02*
X166088010Y-59235349D01*
X166088010Y-59235349D02*
X166088010Y-59502016D01*
X166421343Y-58802016D02*
X165721343Y-58802016D01*
X165721343Y-58335350D02*
X165721343Y-58202016D01*
X165721343Y-58202016D02*
X165754676Y-58135350D01*
X165754676Y-58135350D02*
X165821343Y-58068683D01*
X165821343Y-58068683D02*
X165954676Y-58035350D01*
X165954676Y-58035350D02*
X166188010Y-58035350D01*
X166188010Y-58035350D02*
X166321343Y-58068683D01*
X166321343Y-58068683D02*
X166388010Y-58135350D01*
X166388010Y-58135350D02*
X166421343Y-58202016D01*
X166421343Y-58202016D02*
X166421343Y-58335350D01*
X166421343Y-58335350D02*
X166388010Y-58402016D01*
X166388010Y-58402016D02*
X166321343Y-58468683D01*
X166321343Y-58468683D02*
X166188010Y-58502016D01*
X166188010Y-58502016D02*
X165954676Y-58502016D01*
X165954676Y-58502016D02*
X165821343Y-58468683D01*
X165821343Y-58468683D02*
X165754676Y-58402016D01*
X165754676Y-58402016D02*
X165721343Y-58335350D01*
X166421343Y-57368683D02*
X166421343Y-57768683D01*
X166421343Y-57568683D02*
X165721343Y-57568683D01*
X165721343Y-57568683D02*
X165821343Y-57635350D01*
X165821343Y-57635350D02*
X165888010Y-57702017D01*
X165888010Y-57702017D02*
X165921343Y-57768683D01*
X165721343Y-56735350D02*
X165721343Y-57068683D01*
X165721343Y-57068683D02*
X166054676Y-57102016D01*
X166054676Y-57102016D02*
X166021343Y-57068683D01*
X166021343Y-57068683D02*
X165988010Y-57002016D01*
X165988010Y-57002016D02*
X165988010Y-56835350D01*
X165988010Y-56835350D02*
X166021343Y-56768683D01*
X166021343Y-56768683D02*
X166054676Y-56735350D01*
X166054676Y-56735350D02*
X166121343Y-56702016D01*
X166121343Y-56702016D02*
X166288010Y-56702016D01*
X166288010Y-56702016D02*
X166354676Y-56735350D01*
X166354676Y-56735350D02*
X166388010Y-56768683D01*
X166388010Y-56768683D02*
X166421343Y-56835350D01*
X166421343Y-56835350D02*
X166421343Y-57002016D01*
X166421343Y-57002016D02*
X166388010Y-57068683D01*
X166388010Y-57068683D02*
X166354676Y-57102016D01*
X165688010Y-55902016D02*
X166588010Y-56502016D01*
X166421343Y-55668683D02*
X165721343Y-55668683D01*
X165721343Y-55668683D02*
X166221343Y-55435350D01*
X166221343Y-55435350D02*
X165721343Y-55202016D01*
X165721343Y-55202016D02*
X166421343Y-55202016D01*
X165721343Y-54968683D02*
X165721343Y-54568683D01*
X166421343Y-54768683D02*
X165721343Y-54768683D01*
X166421343Y-54335350D02*
X165721343Y-54335350D01*
X165721343Y-54335350D02*
X165721343Y-54168683D01*
X165721343Y-54168683D02*
X165754676Y-54068683D01*
X165754676Y-54068683D02*
X165821343Y-54002017D01*
X165821343Y-54002017D02*
X165888010Y-53968683D01*
X165888010Y-53968683D02*
X166021343Y-53935350D01*
X166021343Y-53935350D02*
X166121343Y-53935350D01*
X166121343Y-53935350D02*
X166254676Y-53968683D01*
X166254676Y-53968683D02*
X166321343Y-54002017D01*
X166321343Y-54002017D02*
X166388010Y-54068683D01*
X166388010Y-54068683D02*
X166421343Y-54168683D01*
X166421343Y-54168683D02*
X166421343Y-54335350D01*
X165721343Y-53502017D02*
X165721343Y-53368683D01*
X165721343Y-53368683D02*
X165754676Y-53302017D01*
X165754676Y-53302017D02*
X165821343Y-53235350D01*
X165821343Y-53235350D02*
X165954676Y-53202017D01*
X165954676Y-53202017D02*
X166188010Y-53202017D01*
X166188010Y-53202017D02*
X166321343Y-53235350D01*
X166321343Y-53235350D02*
X166388010Y-53302017D01*
X166388010Y-53302017D02*
X166421343Y-53368683D01*
X166421343Y-53368683D02*
X166421343Y-53502017D01*
X166421343Y-53502017D02*
X166388010Y-53568683D01*
X166388010Y-53568683D02*
X166321343Y-53635350D01*
X166321343Y-53635350D02*
X166188010Y-53668683D01*
X166188010Y-53668683D02*
X165954676Y-53668683D01*
X165954676Y-53668683D02*
X165821343Y-53635350D01*
X165821343Y-53635350D02*
X165754676Y-53568683D01*
X165754676Y-53568683D02*
X165721343Y-53502017D01*
X145434676Y-56335350D02*
X145401343Y-56402017D01*
X145401343Y-56402017D02*
X145401343Y-56502017D01*
X145401343Y-56502017D02*
X145434676Y-56602017D01*
X145434676Y-56602017D02*
X145501343Y-56668684D01*
X145501343Y-56668684D02*
X145568010Y-56702017D01*
X145568010Y-56702017D02*
X145701343Y-56735350D01*
X145701343Y-56735350D02*
X145801343Y-56735350D01*
X145801343Y-56735350D02*
X145934676Y-56702017D01*
X145934676Y-56702017D02*
X146001343Y-56668684D01*
X146001343Y-56668684D02*
X146068010Y-56602017D01*
X146068010Y-56602017D02*
X146101343Y-56502017D01*
X146101343Y-56502017D02*
X146101343Y-56435350D01*
X146101343Y-56435350D02*
X146068010Y-56335350D01*
X146068010Y-56335350D02*
X146034676Y-56302017D01*
X146034676Y-56302017D02*
X145801343Y-56302017D01*
X145801343Y-56302017D02*
X145801343Y-56435350D01*
X146101343Y-56002017D02*
X145401343Y-56002017D01*
X145401343Y-56002017D02*
X145401343Y-55735350D01*
X145401343Y-55735350D02*
X145434676Y-55668684D01*
X145434676Y-55668684D02*
X145468010Y-55635350D01*
X145468010Y-55635350D02*
X145534676Y-55602017D01*
X145534676Y-55602017D02*
X145634676Y-55602017D01*
X145634676Y-55602017D02*
X145701343Y-55635350D01*
X145701343Y-55635350D02*
X145734676Y-55668684D01*
X145734676Y-55668684D02*
X145768010Y-55735350D01*
X145768010Y-55735350D02*
X145768010Y-56002017D01*
X146101343Y-55302017D02*
X145401343Y-55302017D01*
X145401343Y-54835351D02*
X145401343Y-54702017D01*
X145401343Y-54702017D02*
X145434676Y-54635351D01*
X145434676Y-54635351D02*
X145501343Y-54568684D01*
X145501343Y-54568684D02*
X145634676Y-54535351D01*
X145634676Y-54535351D02*
X145868010Y-54535351D01*
X145868010Y-54535351D02*
X146001343Y-54568684D01*
X146001343Y-54568684D02*
X146068010Y-54635351D01*
X146068010Y-54635351D02*
X146101343Y-54702017D01*
X146101343Y-54702017D02*
X146101343Y-54835351D01*
X146101343Y-54835351D02*
X146068010Y-54902017D01*
X146068010Y-54902017D02*
X146001343Y-54968684D01*
X146001343Y-54968684D02*
X145868010Y-55002017D01*
X145868010Y-55002017D02*
X145634676Y-55002017D01*
X145634676Y-55002017D02*
X145501343Y-54968684D01*
X145501343Y-54968684D02*
X145434676Y-54902017D01*
X145434676Y-54902017D02*
X145401343Y-54835351D01*
X146101343Y-53868684D02*
X146101343Y-54268684D01*
X146101343Y-54068684D02*
X145401343Y-54068684D01*
X145401343Y-54068684D02*
X145501343Y-54135351D01*
X145501343Y-54135351D02*
X145568010Y-54202018D01*
X145568010Y-54202018D02*
X145601343Y-54268684D01*
X146101343Y-53535351D02*
X146101343Y-53402017D01*
X146101343Y-53402017D02*
X146068010Y-53335351D01*
X146068010Y-53335351D02*
X146034676Y-53302017D01*
X146034676Y-53302017D02*
X145934676Y-53235351D01*
X145934676Y-53235351D02*
X145801343Y-53202017D01*
X145801343Y-53202017D02*
X145534676Y-53202017D01*
X145534676Y-53202017D02*
X145468010Y-53235351D01*
X145468010Y-53235351D02*
X145434676Y-53268684D01*
X145434676Y-53268684D02*
X145401343Y-53335351D01*
X145401343Y-53335351D02*
X145401343Y-53468684D01*
X145401343Y-53468684D02*
X145434676Y-53535351D01*
X145434676Y-53535351D02*
X145468010Y-53568684D01*
X145468010Y-53568684D02*
X145534676Y-53602017D01*
X145534676Y-53602017D02*
X145701343Y-53602017D01*
X145701343Y-53602017D02*
X145768010Y-53568684D01*
X145768010Y-53568684D02*
X145801343Y-53535351D01*
X145801343Y-53535351D02*
X145834676Y-53468684D01*
X145834676Y-53468684D02*
X145834676Y-53335351D01*
X145834676Y-53335351D02*
X145801343Y-53268684D01*
X145801343Y-53268684D02*
X145768010Y-53235351D01*
X145768010Y-53235351D02*
X145701343Y-53202017D01*
X140354676Y-75197982D02*
X140321343Y-75264649D01*
X140321343Y-75264649D02*
X140321343Y-75364649D01*
X140321343Y-75364649D02*
X140354676Y-75464649D01*
X140354676Y-75464649D02*
X140421343Y-75531316D01*
X140421343Y-75531316D02*
X140488010Y-75564649D01*
X140488010Y-75564649D02*
X140621343Y-75597982D01*
X140621343Y-75597982D02*
X140721343Y-75597982D01*
X140721343Y-75597982D02*
X140854676Y-75564649D01*
X140854676Y-75564649D02*
X140921343Y-75531316D01*
X140921343Y-75531316D02*
X140988010Y-75464649D01*
X140988010Y-75464649D02*
X141021343Y-75364649D01*
X141021343Y-75364649D02*
X141021343Y-75297982D01*
X141021343Y-75297982D02*
X140988010Y-75197982D01*
X140988010Y-75197982D02*
X140954676Y-75164649D01*
X140954676Y-75164649D02*
X140721343Y-75164649D01*
X140721343Y-75164649D02*
X140721343Y-75297982D01*
X141021343Y-74864649D02*
X140321343Y-74864649D01*
X140321343Y-74864649D02*
X140321343Y-74597982D01*
X140321343Y-74597982D02*
X140354676Y-74531316D01*
X140354676Y-74531316D02*
X140388010Y-74497982D01*
X140388010Y-74497982D02*
X140454676Y-74464649D01*
X140454676Y-74464649D02*
X140554676Y-74464649D01*
X140554676Y-74464649D02*
X140621343Y-74497982D01*
X140621343Y-74497982D02*
X140654676Y-74531316D01*
X140654676Y-74531316D02*
X140688010Y-74597982D01*
X140688010Y-74597982D02*
X140688010Y-74864649D01*
X141021343Y-74164649D02*
X140321343Y-74164649D01*
X140321343Y-73697983D02*
X140321343Y-73564649D01*
X140321343Y-73564649D02*
X140354676Y-73497983D01*
X140354676Y-73497983D02*
X140421343Y-73431316D01*
X140421343Y-73431316D02*
X140554676Y-73397983D01*
X140554676Y-73397983D02*
X140788010Y-73397983D01*
X140788010Y-73397983D02*
X140921343Y-73431316D01*
X140921343Y-73431316D02*
X140988010Y-73497983D01*
X140988010Y-73497983D02*
X141021343Y-73564649D01*
X141021343Y-73564649D02*
X141021343Y-73697983D01*
X141021343Y-73697983D02*
X140988010Y-73764649D01*
X140988010Y-73764649D02*
X140921343Y-73831316D01*
X140921343Y-73831316D02*
X140788010Y-73864649D01*
X140788010Y-73864649D02*
X140554676Y-73864649D01*
X140554676Y-73864649D02*
X140421343Y-73831316D01*
X140421343Y-73831316D02*
X140354676Y-73764649D01*
X140354676Y-73764649D02*
X140321343Y-73697983D01*
X140321343Y-73164650D02*
X140321343Y-72731316D01*
X140321343Y-72731316D02*
X140588010Y-72964650D01*
X140588010Y-72964650D02*
X140588010Y-72864650D01*
X140588010Y-72864650D02*
X140621343Y-72797983D01*
X140621343Y-72797983D02*
X140654676Y-72764650D01*
X140654676Y-72764650D02*
X140721343Y-72731316D01*
X140721343Y-72731316D02*
X140888010Y-72731316D01*
X140888010Y-72731316D02*
X140954676Y-72764650D01*
X140954676Y-72764650D02*
X140988010Y-72797983D01*
X140988010Y-72797983D02*
X141021343Y-72864650D01*
X141021343Y-72864650D02*
X141021343Y-73064650D01*
X141021343Y-73064650D02*
X140988010Y-73131316D01*
X140988010Y-73131316D02*
X140954676Y-73164650D01*
X140321343Y-72097983D02*
X140321343Y-72431316D01*
X140321343Y-72431316D02*
X140654676Y-72464649D01*
X140654676Y-72464649D02*
X140621343Y-72431316D01*
X140621343Y-72431316D02*
X140588010Y-72364649D01*
X140588010Y-72364649D02*
X140588010Y-72197983D01*
X140588010Y-72197983D02*
X140621343Y-72131316D01*
X140621343Y-72131316D02*
X140654676Y-72097983D01*
X140654676Y-72097983D02*
X140721343Y-72064649D01*
X140721343Y-72064649D02*
X140888010Y-72064649D01*
X140888010Y-72064649D02*
X140954676Y-72097983D01*
X140954676Y-72097983D02*
X140988010Y-72131316D01*
X140988010Y-72131316D02*
X141021343Y-72197983D01*
X141021343Y-72197983D02*
X141021343Y-72364649D01*
X141021343Y-72364649D02*
X140988010Y-72431316D01*
X140988010Y-72431316D02*
X140954676Y-72464649D01*
X130473599Y-75598078D02*
X130473599Y-75264745D01*
X130997409Y-75121888D02*
X130997409Y-75598078D01*
X130997409Y-75598078D02*
X129997409Y-75598078D01*
X129997409Y-75598078D02*
X129997409Y-75121888D01*
X130997409Y-74693316D02*
X129997409Y-74693316D01*
X129997409Y-74693316D02*
X130997409Y-74121888D01*
X130997409Y-74121888D02*
X129997409Y-74121888D01*
X129949790Y-72931412D02*
X131235504Y-73788554D01*
X130997409Y-72026650D02*
X130521218Y-72359983D01*
X130997409Y-72598078D02*
X129997409Y-72598078D01*
X129997409Y-72598078D02*
X129997409Y-72217126D01*
X129997409Y-72217126D02*
X130045028Y-72121888D01*
X130045028Y-72121888D02*
X130092647Y-72074269D01*
X130092647Y-72074269D02*
X130187885Y-72026650D01*
X130187885Y-72026650D02*
X130330742Y-72026650D01*
X130330742Y-72026650D02*
X130425980Y-72074269D01*
X130425980Y-72074269D02*
X130473599Y-72121888D01*
X130473599Y-72121888D02*
X130521218Y-72217126D01*
X130521218Y-72217126D02*
X130521218Y-72598078D01*
X130473599Y-71598078D02*
X130473599Y-71264745D01*
X130997409Y-71121888D02*
X130997409Y-71598078D01*
X130997409Y-71598078D02*
X129997409Y-71598078D01*
X129997409Y-71598078D02*
X129997409Y-71121888D01*
X130949790Y-70740935D02*
X130997409Y-70598078D01*
X130997409Y-70598078D02*
X130997409Y-70359983D01*
X130997409Y-70359983D02*
X130949790Y-70264745D01*
X130949790Y-70264745D02*
X130902170Y-70217126D01*
X130902170Y-70217126D02*
X130806932Y-70169507D01*
X130806932Y-70169507D02*
X130711694Y-70169507D01*
X130711694Y-70169507D02*
X130616456Y-70217126D01*
X130616456Y-70217126D02*
X130568837Y-70264745D01*
X130568837Y-70264745D02*
X130521218Y-70359983D01*
X130521218Y-70359983D02*
X130473599Y-70550459D01*
X130473599Y-70550459D02*
X130425980Y-70645697D01*
X130425980Y-70645697D02*
X130378361Y-70693316D01*
X130378361Y-70693316D02*
X130283123Y-70740935D01*
X130283123Y-70740935D02*
X130187885Y-70740935D01*
X130187885Y-70740935D02*
X130092647Y-70693316D01*
X130092647Y-70693316D02*
X130045028Y-70645697D01*
X130045028Y-70645697D02*
X129997409Y-70550459D01*
X129997409Y-70550459D02*
X129997409Y-70312364D01*
X129997409Y-70312364D02*
X130045028Y-70169507D01*
X130473599Y-69740935D02*
X130473599Y-69407602D01*
X130997409Y-69264745D02*
X130997409Y-69740935D01*
X130997409Y-69740935D02*
X129997409Y-69740935D01*
X129997409Y-69740935D02*
X129997409Y-69264745D01*
X129997409Y-68979030D02*
X129997409Y-68407602D01*
X130997409Y-68693316D02*
X129997409Y-68693316D01*
X132701343Y-75664649D02*
X133401343Y-75431316D01*
X133401343Y-75431316D02*
X132701343Y-75197982D01*
X133401343Y-74964649D02*
X132701343Y-74964649D01*
X132701343Y-74964649D02*
X132701343Y-74697982D01*
X132701343Y-74697982D02*
X132734676Y-74631316D01*
X132734676Y-74631316D02*
X132768010Y-74597982D01*
X132768010Y-74597982D02*
X132834676Y-74564649D01*
X132834676Y-74564649D02*
X132934676Y-74564649D01*
X132934676Y-74564649D02*
X133001343Y-74597982D01*
X133001343Y-74597982D02*
X133034676Y-74631316D01*
X133034676Y-74631316D02*
X133068010Y-74697982D01*
X133068010Y-74697982D02*
X133068010Y-74964649D01*
X132668010Y-73764649D02*
X133568010Y-74364649D01*
X132734676Y-73164649D02*
X132701343Y-73231316D01*
X132701343Y-73231316D02*
X132701343Y-73331316D01*
X132701343Y-73331316D02*
X132734676Y-73431316D01*
X132734676Y-73431316D02*
X132801343Y-73497983D01*
X132801343Y-73497983D02*
X132868010Y-73531316D01*
X132868010Y-73531316D02*
X133001343Y-73564649D01*
X133001343Y-73564649D02*
X133101343Y-73564649D01*
X133101343Y-73564649D02*
X133234676Y-73531316D01*
X133234676Y-73531316D02*
X133301343Y-73497983D01*
X133301343Y-73497983D02*
X133368010Y-73431316D01*
X133368010Y-73431316D02*
X133401343Y-73331316D01*
X133401343Y-73331316D02*
X133401343Y-73264649D01*
X133401343Y-73264649D02*
X133368010Y-73164649D01*
X133368010Y-73164649D02*
X133334676Y-73131316D01*
X133334676Y-73131316D02*
X133101343Y-73131316D01*
X133101343Y-73131316D02*
X133101343Y-73264649D01*
X133401343Y-72831316D02*
X132701343Y-72831316D01*
X132701343Y-72831316D02*
X132701343Y-72564649D01*
X132701343Y-72564649D02*
X132734676Y-72497983D01*
X132734676Y-72497983D02*
X132768010Y-72464649D01*
X132768010Y-72464649D02*
X132834676Y-72431316D01*
X132834676Y-72431316D02*
X132934676Y-72431316D01*
X132934676Y-72431316D02*
X133001343Y-72464649D01*
X133001343Y-72464649D02*
X133034676Y-72497983D01*
X133034676Y-72497983D02*
X133068010Y-72564649D01*
X133068010Y-72564649D02*
X133068010Y-72831316D01*
X133401343Y-72131316D02*
X132701343Y-72131316D01*
X132701343Y-71664650D02*
X132701343Y-71531316D01*
X132701343Y-71531316D02*
X132734676Y-71464650D01*
X132734676Y-71464650D02*
X132801343Y-71397983D01*
X132801343Y-71397983D02*
X132934676Y-71364650D01*
X132934676Y-71364650D02*
X133168010Y-71364650D01*
X133168010Y-71364650D02*
X133301343Y-71397983D01*
X133301343Y-71397983D02*
X133368010Y-71464650D01*
X133368010Y-71464650D02*
X133401343Y-71531316D01*
X133401343Y-71531316D02*
X133401343Y-71664650D01*
X133401343Y-71664650D02*
X133368010Y-71731316D01*
X133368010Y-71731316D02*
X133301343Y-71797983D01*
X133301343Y-71797983D02*
X133168010Y-71831316D01*
X133168010Y-71831316D02*
X132934676Y-71831316D01*
X132934676Y-71831316D02*
X132801343Y-71797983D01*
X132801343Y-71797983D02*
X132734676Y-71731316D01*
X132734676Y-71731316D02*
X132701343Y-71664650D01*
X132701343Y-71131317D02*
X132701343Y-70697983D01*
X132701343Y-70697983D02*
X132968010Y-70931317D01*
X132968010Y-70931317D02*
X132968010Y-70831317D01*
X132968010Y-70831317D02*
X133001343Y-70764650D01*
X133001343Y-70764650D02*
X133034676Y-70731317D01*
X133034676Y-70731317D02*
X133101343Y-70697983D01*
X133101343Y-70697983D02*
X133268010Y-70697983D01*
X133268010Y-70697983D02*
X133334676Y-70731317D01*
X133334676Y-70731317D02*
X133368010Y-70764650D01*
X133368010Y-70764650D02*
X133401343Y-70831317D01*
X133401343Y-70831317D02*
X133401343Y-71031317D01*
X133401343Y-71031317D02*
X133368010Y-71097983D01*
X133368010Y-71097983D02*
X133334676Y-71131317D01*
X132701343Y-70097983D02*
X132701343Y-70231316D01*
X132701343Y-70231316D02*
X132734676Y-70297983D01*
X132734676Y-70297983D02*
X132768010Y-70331316D01*
X132768010Y-70331316D02*
X132868010Y-70397983D01*
X132868010Y-70397983D02*
X133001343Y-70431316D01*
X133001343Y-70431316D02*
X133268010Y-70431316D01*
X133268010Y-70431316D02*
X133334676Y-70397983D01*
X133334676Y-70397983D02*
X133368010Y-70364650D01*
X133368010Y-70364650D02*
X133401343Y-70297983D01*
X133401343Y-70297983D02*
X133401343Y-70164650D01*
X133401343Y-70164650D02*
X133368010Y-70097983D01*
X133368010Y-70097983D02*
X133334676Y-70064650D01*
X133334676Y-70064650D02*
X133268010Y-70031316D01*
X133268010Y-70031316D02*
X133101343Y-70031316D01*
X133101343Y-70031316D02*
X133034676Y-70064650D01*
X133034676Y-70064650D02*
X133001343Y-70097983D01*
X133001343Y-70097983D02*
X132968010Y-70164650D01*
X132968010Y-70164650D02*
X132968010Y-70297983D01*
X132968010Y-70297983D02*
X133001343Y-70364650D01*
X133001343Y-70364650D02*
X133034676Y-70397983D01*
X133034676Y-70397983D02*
X133101343Y-70431316D01*
X153054676Y-56335350D02*
X153021343Y-56402017D01*
X153021343Y-56402017D02*
X153021343Y-56502017D01*
X153021343Y-56502017D02*
X153054676Y-56602017D01*
X153054676Y-56602017D02*
X153121343Y-56668684D01*
X153121343Y-56668684D02*
X153188010Y-56702017D01*
X153188010Y-56702017D02*
X153321343Y-56735350D01*
X153321343Y-56735350D02*
X153421343Y-56735350D01*
X153421343Y-56735350D02*
X153554676Y-56702017D01*
X153554676Y-56702017D02*
X153621343Y-56668684D01*
X153621343Y-56668684D02*
X153688010Y-56602017D01*
X153688010Y-56602017D02*
X153721343Y-56502017D01*
X153721343Y-56502017D02*
X153721343Y-56435350D01*
X153721343Y-56435350D02*
X153688010Y-56335350D01*
X153688010Y-56335350D02*
X153654676Y-56302017D01*
X153654676Y-56302017D02*
X153421343Y-56302017D01*
X153421343Y-56302017D02*
X153421343Y-56435350D01*
X153721343Y-56002017D02*
X153021343Y-56002017D01*
X153021343Y-56002017D02*
X153021343Y-55735350D01*
X153021343Y-55735350D02*
X153054676Y-55668684D01*
X153054676Y-55668684D02*
X153088010Y-55635350D01*
X153088010Y-55635350D02*
X153154676Y-55602017D01*
X153154676Y-55602017D02*
X153254676Y-55602017D01*
X153254676Y-55602017D02*
X153321343Y-55635350D01*
X153321343Y-55635350D02*
X153354676Y-55668684D01*
X153354676Y-55668684D02*
X153388010Y-55735350D01*
X153388010Y-55735350D02*
X153388010Y-56002017D01*
X153721343Y-55302017D02*
X153021343Y-55302017D01*
X153021343Y-54835351D02*
X153021343Y-54702017D01*
X153021343Y-54702017D02*
X153054676Y-54635351D01*
X153054676Y-54635351D02*
X153121343Y-54568684D01*
X153121343Y-54568684D02*
X153254676Y-54535351D01*
X153254676Y-54535351D02*
X153488010Y-54535351D01*
X153488010Y-54535351D02*
X153621343Y-54568684D01*
X153621343Y-54568684D02*
X153688010Y-54635351D01*
X153688010Y-54635351D02*
X153721343Y-54702017D01*
X153721343Y-54702017D02*
X153721343Y-54835351D01*
X153721343Y-54835351D02*
X153688010Y-54902017D01*
X153688010Y-54902017D02*
X153621343Y-54968684D01*
X153621343Y-54968684D02*
X153488010Y-55002017D01*
X153488010Y-55002017D02*
X153254676Y-55002017D01*
X153254676Y-55002017D02*
X153121343Y-54968684D01*
X153121343Y-54968684D02*
X153054676Y-54902017D01*
X153054676Y-54902017D02*
X153021343Y-54835351D01*
X153721343Y-53868684D02*
X153721343Y-54268684D01*
X153721343Y-54068684D02*
X153021343Y-54068684D01*
X153021343Y-54068684D02*
X153121343Y-54135351D01*
X153121343Y-54135351D02*
X153188010Y-54202018D01*
X153188010Y-54202018D02*
X153221343Y-54268684D01*
X153021343Y-53635351D02*
X153021343Y-53168684D01*
X153021343Y-53168684D02*
X153721343Y-53468684D01*
X147974676Y-75197982D02*
X147941343Y-75264649D01*
X147941343Y-75264649D02*
X147941343Y-75364649D01*
X147941343Y-75364649D02*
X147974676Y-75464649D01*
X147974676Y-75464649D02*
X148041343Y-75531316D01*
X148041343Y-75531316D02*
X148108010Y-75564649D01*
X148108010Y-75564649D02*
X148241343Y-75597982D01*
X148241343Y-75597982D02*
X148341343Y-75597982D01*
X148341343Y-75597982D02*
X148474676Y-75564649D01*
X148474676Y-75564649D02*
X148541343Y-75531316D01*
X148541343Y-75531316D02*
X148608010Y-75464649D01*
X148608010Y-75464649D02*
X148641343Y-75364649D01*
X148641343Y-75364649D02*
X148641343Y-75297982D01*
X148641343Y-75297982D02*
X148608010Y-75197982D01*
X148608010Y-75197982D02*
X148574676Y-75164649D01*
X148574676Y-75164649D02*
X148341343Y-75164649D01*
X148341343Y-75164649D02*
X148341343Y-75297982D01*
X148641343Y-74864649D02*
X147941343Y-74864649D01*
X147941343Y-74864649D02*
X147941343Y-74597982D01*
X147941343Y-74597982D02*
X147974676Y-74531316D01*
X147974676Y-74531316D02*
X148008010Y-74497982D01*
X148008010Y-74497982D02*
X148074676Y-74464649D01*
X148074676Y-74464649D02*
X148174676Y-74464649D01*
X148174676Y-74464649D02*
X148241343Y-74497982D01*
X148241343Y-74497982D02*
X148274676Y-74531316D01*
X148274676Y-74531316D02*
X148308010Y-74597982D01*
X148308010Y-74597982D02*
X148308010Y-74864649D01*
X148641343Y-74164649D02*
X147941343Y-74164649D01*
X147941343Y-73697983D02*
X147941343Y-73564649D01*
X147941343Y-73564649D02*
X147974676Y-73497983D01*
X147974676Y-73497983D02*
X148041343Y-73431316D01*
X148041343Y-73431316D02*
X148174676Y-73397983D01*
X148174676Y-73397983D02*
X148408010Y-73397983D01*
X148408010Y-73397983D02*
X148541343Y-73431316D01*
X148541343Y-73431316D02*
X148608010Y-73497983D01*
X148608010Y-73497983D02*
X148641343Y-73564649D01*
X148641343Y-73564649D02*
X148641343Y-73697983D01*
X148641343Y-73697983D02*
X148608010Y-73764649D01*
X148608010Y-73764649D02*
X148541343Y-73831316D01*
X148541343Y-73831316D02*
X148408010Y-73864649D01*
X148408010Y-73864649D02*
X148174676Y-73864649D01*
X148174676Y-73864649D02*
X148041343Y-73831316D01*
X148041343Y-73831316D02*
X147974676Y-73764649D01*
X147974676Y-73764649D02*
X147941343Y-73697983D01*
X148008010Y-73131316D02*
X147974676Y-73097983D01*
X147974676Y-73097983D02*
X147941343Y-73031316D01*
X147941343Y-73031316D02*
X147941343Y-72864650D01*
X147941343Y-72864650D02*
X147974676Y-72797983D01*
X147974676Y-72797983D02*
X148008010Y-72764650D01*
X148008010Y-72764650D02*
X148074676Y-72731316D01*
X148074676Y-72731316D02*
X148141343Y-72731316D01*
X148141343Y-72731316D02*
X148241343Y-72764650D01*
X148241343Y-72764650D02*
X148641343Y-73164650D01*
X148641343Y-73164650D02*
X148641343Y-72731316D01*
X147941343Y-72097983D02*
X147941343Y-72431316D01*
X147941343Y-72431316D02*
X148274676Y-72464649D01*
X148274676Y-72464649D02*
X148241343Y-72431316D01*
X148241343Y-72431316D02*
X148208010Y-72364649D01*
X148208010Y-72364649D02*
X148208010Y-72197983D01*
X148208010Y-72197983D02*
X148241343Y-72131316D01*
X148241343Y-72131316D02*
X148274676Y-72097983D01*
X148274676Y-72097983D02*
X148341343Y-72064649D01*
X148341343Y-72064649D02*
X148508010Y-72064649D01*
X148508010Y-72064649D02*
X148574676Y-72097983D01*
X148574676Y-72097983D02*
X148608010Y-72131316D01*
X148608010Y-72131316D02*
X148641343Y-72197983D01*
X148641343Y-72197983D02*
X148641343Y-72364649D01*
X148641343Y-72364649D02*
X148608010Y-72431316D01*
X148608010Y-72431316D02*
X148574676Y-72464649D01*
X155594676Y-56335350D02*
X155561343Y-56402017D01*
X155561343Y-56402017D02*
X155561343Y-56502017D01*
X155561343Y-56502017D02*
X155594676Y-56602017D01*
X155594676Y-56602017D02*
X155661343Y-56668684D01*
X155661343Y-56668684D02*
X155728010Y-56702017D01*
X155728010Y-56702017D02*
X155861343Y-56735350D01*
X155861343Y-56735350D02*
X155961343Y-56735350D01*
X155961343Y-56735350D02*
X156094676Y-56702017D01*
X156094676Y-56702017D02*
X156161343Y-56668684D01*
X156161343Y-56668684D02*
X156228010Y-56602017D01*
X156228010Y-56602017D02*
X156261343Y-56502017D01*
X156261343Y-56502017D02*
X156261343Y-56435350D01*
X156261343Y-56435350D02*
X156228010Y-56335350D01*
X156228010Y-56335350D02*
X156194676Y-56302017D01*
X156194676Y-56302017D02*
X155961343Y-56302017D01*
X155961343Y-56302017D02*
X155961343Y-56435350D01*
X156261343Y-56002017D02*
X155561343Y-56002017D01*
X155561343Y-56002017D02*
X155561343Y-55735350D01*
X155561343Y-55735350D02*
X155594676Y-55668684D01*
X155594676Y-55668684D02*
X155628010Y-55635350D01*
X155628010Y-55635350D02*
X155694676Y-55602017D01*
X155694676Y-55602017D02*
X155794676Y-55602017D01*
X155794676Y-55602017D02*
X155861343Y-55635350D01*
X155861343Y-55635350D02*
X155894676Y-55668684D01*
X155894676Y-55668684D02*
X155928010Y-55735350D01*
X155928010Y-55735350D02*
X155928010Y-56002017D01*
X156261343Y-55302017D02*
X155561343Y-55302017D01*
X155561343Y-54835351D02*
X155561343Y-54702017D01*
X155561343Y-54702017D02*
X155594676Y-54635351D01*
X155594676Y-54635351D02*
X155661343Y-54568684D01*
X155661343Y-54568684D02*
X155794676Y-54535351D01*
X155794676Y-54535351D02*
X156028010Y-54535351D01*
X156028010Y-54535351D02*
X156161343Y-54568684D01*
X156161343Y-54568684D02*
X156228010Y-54635351D01*
X156228010Y-54635351D02*
X156261343Y-54702017D01*
X156261343Y-54702017D02*
X156261343Y-54835351D01*
X156261343Y-54835351D02*
X156228010Y-54902017D01*
X156228010Y-54902017D02*
X156161343Y-54968684D01*
X156161343Y-54968684D02*
X156028010Y-55002017D01*
X156028010Y-55002017D02*
X155794676Y-55002017D01*
X155794676Y-55002017D02*
X155661343Y-54968684D01*
X155661343Y-54968684D02*
X155594676Y-54902017D01*
X155594676Y-54902017D02*
X155561343Y-54835351D01*
X156261343Y-53868684D02*
X156261343Y-54268684D01*
X156261343Y-54068684D02*
X155561343Y-54068684D01*
X155561343Y-54068684D02*
X155661343Y-54135351D01*
X155661343Y-54135351D02*
X155728010Y-54202018D01*
X155728010Y-54202018D02*
X155761343Y-54268684D01*
X155561343Y-53268684D02*
X155561343Y-53402017D01*
X155561343Y-53402017D02*
X155594676Y-53468684D01*
X155594676Y-53468684D02*
X155628010Y-53502017D01*
X155628010Y-53502017D02*
X155728010Y-53568684D01*
X155728010Y-53568684D02*
X155861343Y-53602017D01*
X155861343Y-53602017D02*
X156128010Y-53602017D01*
X156128010Y-53602017D02*
X156194676Y-53568684D01*
X156194676Y-53568684D02*
X156228010Y-53535351D01*
X156228010Y-53535351D02*
X156261343Y-53468684D01*
X156261343Y-53468684D02*
X156261343Y-53335351D01*
X156261343Y-53335351D02*
X156228010Y-53268684D01*
X156228010Y-53268684D02*
X156194676Y-53235351D01*
X156194676Y-53235351D02*
X156128010Y-53202017D01*
X156128010Y-53202017D02*
X155961343Y-53202017D01*
X155961343Y-53202017D02*
X155894676Y-53235351D01*
X155894676Y-53235351D02*
X155861343Y-53268684D01*
X155861343Y-53268684D02*
X155828010Y-53335351D01*
X155828010Y-53335351D02*
X155828010Y-53468684D01*
X155828010Y-53468684D02*
X155861343Y-53535351D01*
X155861343Y-53535351D02*
X155894676Y-53568684D01*
X155894676Y-53568684D02*
X155961343Y-53602017D01*
X173431409Y-75020710D02*
X173431409Y-75496900D01*
X173431409Y-75496900D02*
X173907599Y-75544519D01*
X173907599Y-75544519D02*
X173859980Y-75496900D01*
X173859980Y-75496900D02*
X173812361Y-75401662D01*
X173812361Y-75401662D02*
X173812361Y-75163567D01*
X173812361Y-75163567D02*
X173859980Y-75068329D01*
X173859980Y-75068329D02*
X173907599Y-75020710D01*
X173907599Y-75020710D02*
X174002837Y-74973091D01*
X174002837Y-74973091D02*
X174240932Y-74973091D01*
X174240932Y-74973091D02*
X174336170Y-75020710D01*
X174336170Y-75020710D02*
X174383790Y-75068329D01*
X174383790Y-75068329D02*
X174431409Y-75163567D01*
X174431409Y-75163567D02*
X174431409Y-75401662D01*
X174431409Y-75401662D02*
X174383790Y-75496900D01*
X174383790Y-75496900D02*
X174336170Y-75544519D01*
X173431409Y-74687376D02*
X174431409Y-74354043D01*
X174431409Y-74354043D02*
X173431409Y-74020710D01*
X137814676Y-75197982D02*
X137781343Y-75264649D01*
X137781343Y-75264649D02*
X137781343Y-75364649D01*
X137781343Y-75364649D02*
X137814676Y-75464649D01*
X137814676Y-75464649D02*
X137881343Y-75531316D01*
X137881343Y-75531316D02*
X137948010Y-75564649D01*
X137948010Y-75564649D02*
X138081343Y-75597982D01*
X138081343Y-75597982D02*
X138181343Y-75597982D01*
X138181343Y-75597982D02*
X138314676Y-75564649D01*
X138314676Y-75564649D02*
X138381343Y-75531316D01*
X138381343Y-75531316D02*
X138448010Y-75464649D01*
X138448010Y-75464649D02*
X138481343Y-75364649D01*
X138481343Y-75364649D02*
X138481343Y-75297982D01*
X138481343Y-75297982D02*
X138448010Y-75197982D01*
X138448010Y-75197982D02*
X138414676Y-75164649D01*
X138414676Y-75164649D02*
X138181343Y-75164649D01*
X138181343Y-75164649D02*
X138181343Y-75297982D01*
X138481343Y-74864649D02*
X137781343Y-74864649D01*
X137781343Y-74864649D02*
X137781343Y-74597982D01*
X137781343Y-74597982D02*
X137814676Y-74531316D01*
X137814676Y-74531316D02*
X137848010Y-74497982D01*
X137848010Y-74497982D02*
X137914676Y-74464649D01*
X137914676Y-74464649D02*
X138014676Y-74464649D01*
X138014676Y-74464649D02*
X138081343Y-74497982D01*
X138081343Y-74497982D02*
X138114676Y-74531316D01*
X138114676Y-74531316D02*
X138148010Y-74597982D01*
X138148010Y-74597982D02*
X138148010Y-74864649D01*
X138481343Y-74164649D02*
X137781343Y-74164649D01*
X137781343Y-73697983D02*
X137781343Y-73564649D01*
X137781343Y-73564649D02*
X137814676Y-73497983D01*
X137814676Y-73497983D02*
X137881343Y-73431316D01*
X137881343Y-73431316D02*
X138014676Y-73397983D01*
X138014676Y-73397983D02*
X138248010Y-73397983D01*
X138248010Y-73397983D02*
X138381343Y-73431316D01*
X138381343Y-73431316D02*
X138448010Y-73497983D01*
X138448010Y-73497983D02*
X138481343Y-73564649D01*
X138481343Y-73564649D02*
X138481343Y-73697983D01*
X138481343Y-73697983D02*
X138448010Y-73764649D01*
X138448010Y-73764649D02*
X138381343Y-73831316D01*
X138381343Y-73831316D02*
X138248010Y-73864649D01*
X138248010Y-73864649D02*
X138014676Y-73864649D01*
X138014676Y-73864649D02*
X137881343Y-73831316D01*
X137881343Y-73831316D02*
X137814676Y-73764649D01*
X137814676Y-73764649D02*
X137781343Y-73697983D01*
X137781343Y-73164650D02*
X137781343Y-72731316D01*
X137781343Y-72731316D02*
X138048010Y-72964650D01*
X138048010Y-72964650D02*
X138048010Y-72864650D01*
X138048010Y-72864650D02*
X138081343Y-72797983D01*
X138081343Y-72797983D02*
X138114676Y-72764650D01*
X138114676Y-72764650D02*
X138181343Y-72731316D01*
X138181343Y-72731316D02*
X138348010Y-72731316D01*
X138348010Y-72731316D02*
X138414676Y-72764650D01*
X138414676Y-72764650D02*
X138448010Y-72797983D01*
X138448010Y-72797983D02*
X138481343Y-72864650D01*
X138481343Y-72864650D02*
X138481343Y-73064650D01*
X138481343Y-73064650D02*
X138448010Y-73131316D01*
X138448010Y-73131316D02*
X138414676Y-73164650D01*
X138014676Y-72131316D02*
X138481343Y-72131316D01*
X137748010Y-72297983D02*
X138248010Y-72464649D01*
X138248010Y-72464649D02*
X138248010Y-72031316D01*
X145434676Y-75197982D02*
X145401343Y-75264649D01*
X145401343Y-75264649D02*
X145401343Y-75364649D01*
X145401343Y-75364649D02*
X145434676Y-75464649D01*
X145434676Y-75464649D02*
X145501343Y-75531316D01*
X145501343Y-75531316D02*
X145568010Y-75564649D01*
X145568010Y-75564649D02*
X145701343Y-75597982D01*
X145701343Y-75597982D02*
X145801343Y-75597982D01*
X145801343Y-75597982D02*
X145934676Y-75564649D01*
X145934676Y-75564649D02*
X146001343Y-75531316D01*
X146001343Y-75531316D02*
X146068010Y-75464649D01*
X146068010Y-75464649D02*
X146101343Y-75364649D01*
X146101343Y-75364649D02*
X146101343Y-75297982D01*
X146101343Y-75297982D02*
X146068010Y-75197982D01*
X146068010Y-75197982D02*
X146034676Y-75164649D01*
X146034676Y-75164649D02*
X145801343Y-75164649D01*
X145801343Y-75164649D02*
X145801343Y-75297982D01*
X146101343Y-74864649D02*
X145401343Y-74864649D01*
X145401343Y-74864649D02*
X145401343Y-74597982D01*
X145401343Y-74597982D02*
X145434676Y-74531316D01*
X145434676Y-74531316D02*
X145468010Y-74497982D01*
X145468010Y-74497982D02*
X145534676Y-74464649D01*
X145534676Y-74464649D02*
X145634676Y-74464649D01*
X145634676Y-74464649D02*
X145701343Y-74497982D01*
X145701343Y-74497982D02*
X145734676Y-74531316D01*
X145734676Y-74531316D02*
X145768010Y-74597982D01*
X145768010Y-74597982D02*
X145768010Y-74864649D01*
X146101343Y-74164649D02*
X145401343Y-74164649D01*
X145401343Y-73697983D02*
X145401343Y-73564649D01*
X145401343Y-73564649D02*
X145434676Y-73497983D01*
X145434676Y-73497983D02*
X145501343Y-73431316D01*
X145501343Y-73431316D02*
X145634676Y-73397983D01*
X145634676Y-73397983D02*
X145868010Y-73397983D01*
X145868010Y-73397983D02*
X146001343Y-73431316D01*
X146001343Y-73431316D02*
X146068010Y-73497983D01*
X146068010Y-73497983D02*
X146101343Y-73564649D01*
X146101343Y-73564649D02*
X146101343Y-73697983D01*
X146101343Y-73697983D02*
X146068010Y-73764649D01*
X146068010Y-73764649D02*
X146001343Y-73831316D01*
X146001343Y-73831316D02*
X145868010Y-73864649D01*
X145868010Y-73864649D02*
X145634676Y-73864649D01*
X145634676Y-73864649D02*
X145501343Y-73831316D01*
X145501343Y-73831316D02*
X145434676Y-73764649D01*
X145434676Y-73764649D02*
X145401343Y-73697983D01*
X145401343Y-73164650D02*
X145401343Y-72731316D01*
X145401343Y-72731316D02*
X145668010Y-72964650D01*
X145668010Y-72964650D02*
X145668010Y-72864650D01*
X145668010Y-72864650D02*
X145701343Y-72797983D01*
X145701343Y-72797983D02*
X145734676Y-72764650D01*
X145734676Y-72764650D02*
X145801343Y-72731316D01*
X145801343Y-72731316D02*
X145968010Y-72731316D01*
X145968010Y-72731316D02*
X146034676Y-72764650D01*
X146034676Y-72764650D02*
X146068010Y-72797983D01*
X146068010Y-72797983D02*
X146101343Y-72864650D01*
X146101343Y-72864650D02*
X146101343Y-73064650D01*
X146101343Y-73064650D02*
X146068010Y-73131316D01*
X146068010Y-73131316D02*
X146034676Y-73164650D01*
X145401343Y-72497983D02*
X145401343Y-72064649D01*
X145401343Y-72064649D02*
X145668010Y-72297983D01*
X145668010Y-72297983D02*
X145668010Y-72197983D01*
X145668010Y-72197983D02*
X145701343Y-72131316D01*
X145701343Y-72131316D02*
X145734676Y-72097983D01*
X145734676Y-72097983D02*
X145801343Y-72064649D01*
X145801343Y-72064649D02*
X145968010Y-72064649D01*
X145968010Y-72064649D02*
X146034676Y-72097983D01*
X146034676Y-72097983D02*
X146068010Y-72131316D01*
X146068010Y-72131316D02*
X146101343Y-72197983D01*
X146101343Y-72197983D02*
X146101343Y-72397983D01*
X146101343Y-72397983D02*
X146068010Y-72464649D01*
X146068010Y-72464649D02*
X146034676Y-72497983D01*
X158134676Y-55668683D02*
X158101343Y-55735350D01*
X158101343Y-55735350D02*
X158101343Y-55835350D01*
X158101343Y-55835350D02*
X158134676Y-55935350D01*
X158134676Y-55935350D02*
X158201343Y-56002017D01*
X158201343Y-56002017D02*
X158268010Y-56035350D01*
X158268010Y-56035350D02*
X158401343Y-56068683D01*
X158401343Y-56068683D02*
X158501343Y-56068683D01*
X158501343Y-56068683D02*
X158634676Y-56035350D01*
X158634676Y-56035350D02*
X158701343Y-56002017D01*
X158701343Y-56002017D02*
X158768010Y-55935350D01*
X158768010Y-55935350D02*
X158801343Y-55835350D01*
X158801343Y-55835350D02*
X158801343Y-55768683D01*
X158801343Y-55768683D02*
X158768010Y-55668683D01*
X158768010Y-55668683D02*
X158734676Y-55635350D01*
X158734676Y-55635350D02*
X158501343Y-55635350D01*
X158501343Y-55635350D02*
X158501343Y-55768683D01*
X158801343Y-55335350D02*
X158101343Y-55335350D01*
X158101343Y-55335350D02*
X158101343Y-55068683D01*
X158101343Y-55068683D02*
X158134676Y-55002017D01*
X158134676Y-55002017D02*
X158168010Y-54968683D01*
X158168010Y-54968683D02*
X158234676Y-54935350D01*
X158234676Y-54935350D02*
X158334676Y-54935350D01*
X158334676Y-54935350D02*
X158401343Y-54968683D01*
X158401343Y-54968683D02*
X158434676Y-55002017D01*
X158434676Y-55002017D02*
X158468010Y-55068683D01*
X158468010Y-55068683D02*
X158468010Y-55335350D01*
X158801343Y-54635350D02*
X158101343Y-54635350D01*
X158101343Y-54168684D02*
X158101343Y-54035350D01*
X158101343Y-54035350D02*
X158134676Y-53968684D01*
X158134676Y-53968684D02*
X158201343Y-53902017D01*
X158201343Y-53902017D02*
X158334676Y-53868684D01*
X158334676Y-53868684D02*
X158568010Y-53868684D01*
X158568010Y-53868684D02*
X158701343Y-53902017D01*
X158701343Y-53902017D02*
X158768010Y-53968684D01*
X158768010Y-53968684D02*
X158801343Y-54035350D01*
X158801343Y-54035350D02*
X158801343Y-54168684D01*
X158801343Y-54168684D02*
X158768010Y-54235350D01*
X158768010Y-54235350D02*
X158701343Y-54302017D01*
X158701343Y-54302017D02*
X158568010Y-54335350D01*
X158568010Y-54335350D02*
X158334676Y-54335350D01*
X158334676Y-54335350D02*
X158201343Y-54302017D01*
X158201343Y-54302017D02*
X158134676Y-54235350D01*
X158134676Y-54235350D02*
X158101343Y-54168684D01*
X158334676Y-53268684D02*
X158801343Y-53268684D01*
X158068010Y-53435351D02*
X158568010Y-53602017D01*
X158568010Y-53602017D02*
X158568010Y-53168684D01*
X150514676Y-55668683D02*
X150481343Y-55735350D01*
X150481343Y-55735350D02*
X150481343Y-55835350D01*
X150481343Y-55835350D02*
X150514676Y-55935350D01*
X150514676Y-55935350D02*
X150581343Y-56002017D01*
X150581343Y-56002017D02*
X150648010Y-56035350D01*
X150648010Y-56035350D02*
X150781343Y-56068683D01*
X150781343Y-56068683D02*
X150881343Y-56068683D01*
X150881343Y-56068683D02*
X151014676Y-56035350D01*
X151014676Y-56035350D02*
X151081343Y-56002017D01*
X151081343Y-56002017D02*
X151148010Y-55935350D01*
X151148010Y-55935350D02*
X151181343Y-55835350D01*
X151181343Y-55835350D02*
X151181343Y-55768683D01*
X151181343Y-55768683D02*
X151148010Y-55668683D01*
X151148010Y-55668683D02*
X151114676Y-55635350D01*
X151114676Y-55635350D02*
X150881343Y-55635350D01*
X150881343Y-55635350D02*
X150881343Y-55768683D01*
X151181343Y-55335350D02*
X150481343Y-55335350D01*
X150481343Y-55335350D02*
X150481343Y-55068683D01*
X150481343Y-55068683D02*
X150514676Y-55002017D01*
X150514676Y-55002017D02*
X150548010Y-54968683D01*
X150548010Y-54968683D02*
X150614676Y-54935350D01*
X150614676Y-54935350D02*
X150714676Y-54935350D01*
X150714676Y-54935350D02*
X150781343Y-54968683D01*
X150781343Y-54968683D02*
X150814676Y-55002017D01*
X150814676Y-55002017D02*
X150848010Y-55068683D01*
X150848010Y-55068683D02*
X150848010Y-55335350D01*
X151181343Y-54635350D02*
X150481343Y-54635350D01*
X150481343Y-54168684D02*
X150481343Y-54035350D01*
X150481343Y-54035350D02*
X150514676Y-53968684D01*
X150514676Y-53968684D02*
X150581343Y-53902017D01*
X150581343Y-53902017D02*
X150714676Y-53868684D01*
X150714676Y-53868684D02*
X150948010Y-53868684D01*
X150948010Y-53868684D02*
X151081343Y-53902017D01*
X151081343Y-53902017D02*
X151148010Y-53968684D01*
X151148010Y-53968684D02*
X151181343Y-54035350D01*
X151181343Y-54035350D02*
X151181343Y-54168684D01*
X151181343Y-54168684D02*
X151148010Y-54235350D01*
X151148010Y-54235350D02*
X151081343Y-54302017D01*
X151081343Y-54302017D02*
X150948010Y-54335350D01*
X150948010Y-54335350D02*
X150714676Y-54335350D01*
X150714676Y-54335350D02*
X150581343Y-54302017D01*
X150581343Y-54302017D02*
X150514676Y-54235350D01*
X150514676Y-54235350D02*
X150481343Y-54168684D01*
X150481343Y-53235351D02*
X150481343Y-53568684D01*
X150481343Y-53568684D02*
X150814676Y-53602017D01*
X150814676Y-53602017D02*
X150781343Y-53568684D01*
X150781343Y-53568684D02*
X150748010Y-53502017D01*
X150748010Y-53502017D02*
X150748010Y-53335351D01*
X150748010Y-53335351D02*
X150781343Y-53268684D01*
X150781343Y-53268684D02*
X150814676Y-53235351D01*
X150814676Y-53235351D02*
X150881343Y-53202017D01*
X150881343Y-53202017D02*
X151048010Y-53202017D01*
X151048010Y-53202017D02*
X151114676Y-53235351D01*
X151114676Y-53235351D02*
X151148010Y-53268684D01*
X151148010Y-53268684D02*
X151181343Y-53335351D01*
X151181343Y-53335351D02*
X151181343Y-53502017D01*
X151181343Y-53502017D02*
X151148010Y-53568684D01*
X151148010Y-53568684D02*
X151114676Y-53602017D01*
X153054676Y-75197982D02*
X153021343Y-75264649D01*
X153021343Y-75264649D02*
X153021343Y-75364649D01*
X153021343Y-75364649D02*
X153054676Y-75464649D01*
X153054676Y-75464649D02*
X153121343Y-75531316D01*
X153121343Y-75531316D02*
X153188010Y-75564649D01*
X153188010Y-75564649D02*
X153321343Y-75597982D01*
X153321343Y-75597982D02*
X153421343Y-75597982D01*
X153421343Y-75597982D02*
X153554676Y-75564649D01*
X153554676Y-75564649D02*
X153621343Y-75531316D01*
X153621343Y-75531316D02*
X153688010Y-75464649D01*
X153688010Y-75464649D02*
X153721343Y-75364649D01*
X153721343Y-75364649D02*
X153721343Y-75297982D01*
X153721343Y-75297982D02*
X153688010Y-75197982D01*
X153688010Y-75197982D02*
X153654676Y-75164649D01*
X153654676Y-75164649D02*
X153421343Y-75164649D01*
X153421343Y-75164649D02*
X153421343Y-75297982D01*
X153721343Y-74864649D02*
X153021343Y-74864649D01*
X153021343Y-74864649D02*
X153021343Y-74597982D01*
X153021343Y-74597982D02*
X153054676Y-74531316D01*
X153054676Y-74531316D02*
X153088010Y-74497982D01*
X153088010Y-74497982D02*
X153154676Y-74464649D01*
X153154676Y-74464649D02*
X153254676Y-74464649D01*
X153254676Y-74464649D02*
X153321343Y-74497982D01*
X153321343Y-74497982D02*
X153354676Y-74531316D01*
X153354676Y-74531316D02*
X153388010Y-74597982D01*
X153388010Y-74597982D02*
X153388010Y-74864649D01*
X153721343Y-74164649D02*
X153021343Y-74164649D01*
X153021343Y-73697983D02*
X153021343Y-73564649D01*
X153021343Y-73564649D02*
X153054676Y-73497983D01*
X153054676Y-73497983D02*
X153121343Y-73431316D01*
X153121343Y-73431316D02*
X153254676Y-73397983D01*
X153254676Y-73397983D02*
X153488010Y-73397983D01*
X153488010Y-73397983D02*
X153621343Y-73431316D01*
X153621343Y-73431316D02*
X153688010Y-73497983D01*
X153688010Y-73497983D02*
X153721343Y-73564649D01*
X153721343Y-73564649D02*
X153721343Y-73697983D01*
X153721343Y-73697983D02*
X153688010Y-73764649D01*
X153688010Y-73764649D02*
X153621343Y-73831316D01*
X153621343Y-73831316D02*
X153488010Y-73864649D01*
X153488010Y-73864649D02*
X153254676Y-73864649D01*
X153254676Y-73864649D02*
X153121343Y-73831316D01*
X153121343Y-73831316D02*
X153054676Y-73764649D01*
X153054676Y-73764649D02*
X153021343Y-73697983D01*
X153088010Y-73131316D02*
X153054676Y-73097983D01*
X153054676Y-73097983D02*
X153021343Y-73031316D01*
X153021343Y-73031316D02*
X153021343Y-72864650D01*
X153021343Y-72864650D02*
X153054676Y-72797983D01*
X153054676Y-72797983D02*
X153088010Y-72764650D01*
X153088010Y-72764650D02*
X153154676Y-72731316D01*
X153154676Y-72731316D02*
X153221343Y-72731316D01*
X153221343Y-72731316D02*
X153321343Y-72764650D01*
X153321343Y-72764650D02*
X153721343Y-73164650D01*
X153721343Y-73164650D02*
X153721343Y-72731316D01*
X153021343Y-72497983D02*
X153021343Y-72031316D01*
X153021343Y-72031316D02*
X153721343Y-72331316D01*
X130194676Y-56335350D02*
X130161343Y-56402017D01*
X130161343Y-56402017D02*
X130161343Y-56502017D01*
X130161343Y-56502017D02*
X130194676Y-56602017D01*
X130194676Y-56602017D02*
X130261343Y-56668684D01*
X130261343Y-56668684D02*
X130328010Y-56702017D01*
X130328010Y-56702017D02*
X130461343Y-56735350D01*
X130461343Y-56735350D02*
X130561343Y-56735350D01*
X130561343Y-56735350D02*
X130694676Y-56702017D01*
X130694676Y-56702017D02*
X130761343Y-56668684D01*
X130761343Y-56668684D02*
X130828010Y-56602017D01*
X130828010Y-56602017D02*
X130861343Y-56502017D01*
X130861343Y-56502017D02*
X130861343Y-56435350D01*
X130861343Y-56435350D02*
X130828010Y-56335350D01*
X130828010Y-56335350D02*
X130794676Y-56302017D01*
X130794676Y-56302017D02*
X130561343Y-56302017D01*
X130561343Y-56302017D02*
X130561343Y-56435350D01*
X130861343Y-56002017D02*
X130161343Y-56002017D01*
X130161343Y-56002017D02*
X130161343Y-55735350D01*
X130161343Y-55735350D02*
X130194676Y-55668684D01*
X130194676Y-55668684D02*
X130228010Y-55635350D01*
X130228010Y-55635350D02*
X130294676Y-55602017D01*
X130294676Y-55602017D02*
X130394676Y-55602017D01*
X130394676Y-55602017D02*
X130461343Y-55635350D01*
X130461343Y-55635350D02*
X130494676Y-55668684D01*
X130494676Y-55668684D02*
X130528010Y-55735350D01*
X130528010Y-55735350D02*
X130528010Y-56002017D01*
X130861343Y-55302017D02*
X130161343Y-55302017D01*
X130161343Y-54835351D02*
X130161343Y-54702017D01*
X130161343Y-54702017D02*
X130194676Y-54635351D01*
X130194676Y-54635351D02*
X130261343Y-54568684D01*
X130261343Y-54568684D02*
X130394676Y-54535351D01*
X130394676Y-54535351D02*
X130628010Y-54535351D01*
X130628010Y-54535351D02*
X130761343Y-54568684D01*
X130761343Y-54568684D02*
X130828010Y-54635351D01*
X130828010Y-54635351D02*
X130861343Y-54702017D01*
X130861343Y-54702017D02*
X130861343Y-54835351D01*
X130861343Y-54835351D02*
X130828010Y-54902017D01*
X130828010Y-54902017D02*
X130761343Y-54968684D01*
X130761343Y-54968684D02*
X130628010Y-55002017D01*
X130628010Y-55002017D02*
X130394676Y-55002017D01*
X130394676Y-55002017D02*
X130261343Y-54968684D01*
X130261343Y-54968684D02*
X130194676Y-54902017D01*
X130194676Y-54902017D02*
X130161343Y-54835351D01*
X130228010Y-54268684D02*
X130194676Y-54235351D01*
X130194676Y-54235351D02*
X130161343Y-54168684D01*
X130161343Y-54168684D02*
X130161343Y-54002018D01*
X130161343Y-54002018D02*
X130194676Y-53935351D01*
X130194676Y-53935351D02*
X130228010Y-53902018D01*
X130228010Y-53902018D02*
X130294676Y-53868684D01*
X130294676Y-53868684D02*
X130361343Y-53868684D01*
X130361343Y-53868684D02*
X130461343Y-53902018D01*
X130461343Y-53902018D02*
X130861343Y-54302018D01*
X130861343Y-54302018D02*
X130861343Y-53868684D01*
X130161343Y-53635351D02*
X130161343Y-53202017D01*
X130161343Y-53202017D02*
X130428010Y-53435351D01*
X130428010Y-53435351D02*
X130428010Y-53335351D01*
X130428010Y-53335351D02*
X130461343Y-53268684D01*
X130461343Y-53268684D02*
X130494676Y-53235351D01*
X130494676Y-53235351D02*
X130561343Y-53202017D01*
X130561343Y-53202017D02*
X130728010Y-53202017D01*
X130728010Y-53202017D02*
X130794676Y-53235351D01*
X130794676Y-53235351D02*
X130828010Y-53268684D01*
X130828010Y-53268684D02*
X130861343Y-53335351D01*
X130861343Y-53335351D02*
X130861343Y-53535351D01*
X130861343Y-53535351D02*
X130828010Y-53602017D01*
X130828010Y-53602017D02*
X130794676Y-53635351D01*
X173974676Y-54468684D02*
X174008010Y-54502017D01*
X174008010Y-54502017D02*
X174041343Y-54602017D01*
X174041343Y-54602017D02*
X174041343Y-54668684D01*
X174041343Y-54668684D02*
X174008010Y-54768684D01*
X174008010Y-54768684D02*
X173941343Y-54835351D01*
X173941343Y-54835351D02*
X173874676Y-54868684D01*
X173874676Y-54868684D02*
X173741343Y-54902017D01*
X173741343Y-54902017D02*
X173641343Y-54902017D01*
X173641343Y-54902017D02*
X173508010Y-54868684D01*
X173508010Y-54868684D02*
X173441343Y-54835351D01*
X173441343Y-54835351D02*
X173374676Y-54768684D01*
X173374676Y-54768684D02*
X173341343Y-54668684D01*
X173341343Y-54668684D02*
X173341343Y-54602017D01*
X173341343Y-54602017D02*
X173374676Y-54502017D01*
X173374676Y-54502017D02*
X173408010Y-54468684D01*
X174041343Y-53835351D02*
X174041343Y-54168684D01*
X174041343Y-54168684D02*
X173341343Y-54168684D01*
X174041343Y-53602017D02*
X173341343Y-53602017D01*
X174041343Y-53202017D02*
X173641343Y-53502017D01*
X173341343Y-53202017D02*
X173741343Y-53602017D01*
X158134676Y-75197982D02*
X158101343Y-75264649D01*
X158101343Y-75264649D02*
X158101343Y-75364649D01*
X158101343Y-75364649D02*
X158134676Y-75464649D01*
X158134676Y-75464649D02*
X158201343Y-75531316D01*
X158201343Y-75531316D02*
X158268010Y-75564649D01*
X158268010Y-75564649D02*
X158401343Y-75597982D01*
X158401343Y-75597982D02*
X158501343Y-75597982D01*
X158501343Y-75597982D02*
X158634676Y-75564649D01*
X158634676Y-75564649D02*
X158701343Y-75531316D01*
X158701343Y-75531316D02*
X158768010Y-75464649D01*
X158768010Y-75464649D02*
X158801343Y-75364649D01*
X158801343Y-75364649D02*
X158801343Y-75297982D01*
X158801343Y-75297982D02*
X158768010Y-75197982D01*
X158768010Y-75197982D02*
X158734676Y-75164649D01*
X158734676Y-75164649D02*
X158501343Y-75164649D01*
X158501343Y-75164649D02*
X158501343Y-75297982D01*
X158801343Y-74864649D02*
X158101343Y-74864649D01*
X158101343Y-74864649D02*
X158101343Y-74597982D01*
X158101343Y-74597982D02*
X158134676Y-74531316D01*
X158134676Y-74531316D02*
X158168010Y-74497982D01*
X158168010Y-74497982D02*
X158234676Y-74464649D01*
X158234676Y-74464649D02*
X158334676Y-74464649D01*
X158334676Y-74464649D02*
X158401343Y-74497982D01*
X158401343Y-74497982D02*
X158434676Y-74531316D01*
X158434676Y-74531316D02*
X158468010Y-74597982D01*
X158468010Y-74597982D02*
X158468010Y-74864649D01*
X158801343Y-74164649D02*
X158101343Y-74164649D01*
X158101343Y-73697983D02*
X158101343Y-73564649D01*
X158101343Y-73564649D02*
X158134676Y-73497983D01*
X158134676Y-73497983D02*
X158201343Y-73431316D01*
X158201343Y-73431316D02*
X158334676Y-73397983D01*
X158334676Y-73397983D02*
X158568010Y-73397983D01*
X158568010Y-73397983D02*
X158701343Y-73431316D01*
X158701343Y-73431316D02*
X158768010Y-73497983D01*
X158768010Y-73497983D02*
X158801343Y-73564649D01*
X158801343Y-73564649D02*
X158801343Y-73697983D01*
X158801343Y-73697983D02*
X158768010Y-73764649D01*
X158768010Y-73764649D02*
X158701343Y-73831316D01*
X158701343Y-73831316D02*
X158568010Y-73864649D01*
X158568010Y-73864649D02*
X158334676Y-73864649D01*
X158334676Y-73864649D02*
X158201343Y-73831316D01*
X158201343Y-73831316D02*
X158134676Y-73764649D01*
X158134676Y-73764649D02*
X158101343Y-73697983D01*
X158801343Y-72731316D02*
X158801343Y-73131316D01*
X158801343Y-72931316D02*
X158101343Y-72931316D01*
X158101343Y-72931316D02*
X158201343Y-72997983D01*
X158201343Y-72997983D02*
X158268010Y-73064650D01*
X158268010Y-73064650D02*
X158301343Y-73131316D01*
X158168010Y-72464649D02*
X158134676Y-72431316D01*
X158134676Y-72431316D02*
X158101343Y-72364649D01*
X158101343Y-72364649D02*
X158101343Y-72197983D01*
X158101343Y-72197983D02*
X158134676Y-72131316D01*
X158134676Y-72131316D02*
X158168010Y-72097983D01*
X158168010Y-72097983D02*
X158234676Y-72064649D01*
X158234676Y-72064649D02*
X158301343Y-72064649D01*
X158301343Y-72064649D02*
X158401343Y-72097983D01*
X158401343Y-72097983D02*
X158801343Y-72497983D01*
X158801343Y-72497983D02*
X158801343Y-72064649D01*
X158068010Y-71264649D02*
X158968010Y-71864649D01*
X158801343Y-71031316D02*
X158101343Y-71031316D01*
X158101343Y-71031316D02*
X158601343Y-70797983D01*
X158601343Y-70797983D02*
X158101343Y-70564649D01*
X158101343Y-70564649D02*
X158801343Y-70564649D01*
X158101343Y-70331316D02*
X158101343Y-69931316D01*
X158801343Y-70131316D02*
X158101343Y-70131316D01*
X158801343Y-69697983D02*
X158101343Y-69697983D01*
X158101343Y-69697983D02*
X158101343Y-69531316D01*
X158101343Y-69531316D02*
X158134676Y-69431316D01*
X158134676Y-69431316D02*
X158201343Y-69364650D01*
X158201343Y-69364650D02*
X158268010Y-69331316D01*
X158268010Y-69331316D02*
X158401343Y-69297983D01*
X158401343Y-69297983D02*
X158501343Y-69297983D01*
X158501343Y-69297983D02*
X158634676Y-69331316D01*
X158634676Y-69331316D02*
X158701343Y-69364650D01*
X158701343Y-69364650D02*
X158768010Y-69431316D01*
X158768010Y-69431316D02*
X158801343Y-69531316D01*
X158801343Y-69531316D02*
X158801343Y-69697983D01*
X158801343Y-68997983D02*
X158101343Y-68997983D01*
X168961343Y-75564649D02*
X168261343Y-75564649D01*
X168261343Y-75564649D02*
X168261343Y-75397982D01*
X168261343Y-75397982D02*
X168294676Y-75297982D01*
X168294676Y-75297982D02*
X168361343Y-75231316D01*
X168361343Y-75231316D02*
X168428010Y-75197982D01*
X168428010Y-75197982D02*
X168561343Y-75164649D01*
X168561343Y-75164649D02*
X168661343Y-75164649D01*
X168661343Y-75164649D02*
X168794676Y-75197982D01*
X168794676Y-75197982D02*
X168861343Y-75231316D01*
X168861343Y-75231316D02*
X168928010Y-75297982D01*
X168928010Y-75297982D02*
X168961343Y-75397982D01*
X168961343Y-75397982D02*
X168961343Y-75564649D01*
X168261343Y-74931316D02*
X168261343Y-74497982D01*
X168261343Y-74497982D02*
X168528010Y-74731316D01*
X168528010Y-74731316D02*
X168528010Y-74631316D01*
X168528010Y-74631316D02*
X168561343Y-74564649D01*
X168561343Y-74564649D02*
X168594676Y-74531316D01*
X168594676Y-74531316D02*
X168661343Y-74497982D01*
X168661343Y-74497982D02*
X168828010Y-74497982D01*
X168828010Y-74497982D02*
X168894676Y-74531316D01*
X168894676Y-74531316D02*
X168928010Y-74564649D01*
X168928010Y-74564649D02*
X168961343Y-74631316D01*
X168961343Y-74631316D02*
X168961343Y-74831316D01*
X168961343Y-74831316D02*
X168928010Y-74897982D01*
X168928010Y-74897982D02*
X168894676Y-74931316D01*
X140354676Y-56335350D02*
X140321343Y-56402017D01*
X140321343Y-56402017D02*
X140321343Y-56502017D01*
X140321343Y-56502017D02*
X140354676Y-56602017D01*
X140354676Y-56602017D02*
X140421343Y-56668684D01*
X140421343Y-56668684D02*
X140488010Y-56702017D01*
X140488010Y-56702017D02*
X140621343Y-56735350D01*
X140621343Y-56735350D02*
X140721343Y-56735350D01*
X140721343Y-56735350D02*
X140854676Y-56702017D01*
X140854676Y-56702017D02*
X140921343Y-56668684D01*
X140921343Y-56668684D02*
X140988010Y-56602017D01*
X140988010Y-56602017D02*
X141021343Y-56502017D01*
X141021343Y-56502017D02*
X141021343Y-56435350D01*
X141021343Y-56435350D02*
X140988010Y-56335350D01*
X140988010Y-56335350D02*
X140954676Y-56302017D01*
X140954676Y-56302017D02*
X140721343Y-56302017D01*
X140721343Y-56302017D02*
X140721343Y-56435350D01*
X141021343Y-56002017D02*
X140321343Y-56002017D01*
X140321343Y-56002017D02*
X140321343Y-55735350D01*
X140321343Y-55735350D02*
X140354676Y-55668684D01*
X140354676Y-55668684D02*
X140388010Y-55635350D01*
X140388010Y-55635350D02*
X140454676Y-55602017D01*
X140454676Y-55602017D02*
X140554676Y-55602017D01*
X140554676Y-55602017D02*
X140621343Y-55635350D01*
X140621343Y-55635350D02*
X140654676Y-55668684D01*
X140654676Y-55668684D02*
X140688010Y-55735350D01*
X140688010Y-55735350D02*
X140688010Y-56002017D01*
X141021343Y-55302017D02*
X140321343Y-55302017D01*
X140321343Y-54835351D02*
X140321343Y-54702017D01*
X140321343Y-54702017D02*
X140354676Y-54635351D01*
X140354676Y-54635351D02*
X140421343Y-54568684D01*
X140421343Y-54568684D02*
X140554676Y-54535351D01*
X140554676Y-54535351D02*
X140788010Y-54535351D01*
X140788010Y-54535351D02*
X140921343Y-54568684D01*
X140921343Y-54568684D02*
X140988010Y-54635351D01*
X140988010Y-54635351D02*
X141021343Y-54702017D01*
X141021343Y-54702017D02*
X141021343Y-54835351D01*
X141021343Y-54835351D02*
X140988010Y-54902017D01*
X140988010Y-54902017D02*
X140921343Y-54968684D01*
X140921343Y-54968684D02*
X140788010Y-55002017D01*
X140788010Y-55002017D02*
X140554676Y-55002017D01*
X140554676Y-55002017D02*
X140421343Y-54968684D01*
X140421343Y-54968684D02*
X140354676Y-54902017D01*
X140354676Y-54902017D02*
X140321343Y-54835351D01*
X140388010Y-54268684D02*
X140354676Y-54235351D01*
X140354676Y-54235351D02*
X140321343Y-54168684D01*
X140321343Y-54168684D02*
X140321343Y-54002018D01*
X140321343Y-54002018D02*
X140354676Y-53935351D01*
X140354676Y-53935351D02*
X140388010Y-53902018D01*
X140388010Y-53902018D02*
X140454676Y-53868684D01*
X140454676Y-53868684D02*
X140521343Y-53868684D01*
X140521343Y-53868684D02*
X140621343Y-53902018D01*
X140621343Y-53902018D02*
X141021343Y-54302018D01*
X141021343Y-54302018D02*
X141021343Y-53868684D01*
X141021343Y-53202017D02*
X141021343Y-53602017D01*
X141021343Y-53402017D02*
X140321343Y-53402017D01*
X140321343Y-53402017D02*
X140421343Y-53468684D01*
X140421343Y-53468684D02*
X140488010Y-53535351D01*
X140488010Y-53535351D02*
X140521343Y-53602017D01*
X171501343Y-54268684D02*
X170801343Y-54268684D01*
X170801343Y-54268684D02*
X170801343Y-54102017D01*
X170801343Y-54102017D02*
X170834676Y-54002017D01*
X170834676Y-54002017D02*
X170901343Y-53935351D01*
X170901343Y-53935351D02*
X170968010Y-53902017D01*
X170968010Y-53902017D02*
X171101343Y-53868684D01*
X171101343Y-53868684D02*
X171201343Y-53868684D01*
X171201343Y-53868684D02*
X171334676Y-53902017D01*
X171334676Y-53902017D02*
X171401343Y-53935351D01*
X171401343Y-53935351D02*
X171468010Y-54002017D01*
X171468010Y-54002017D02*
X171501343Y-54102017D01*
X171501343Y-54102017D02*
X171501343Y-54268684D01*
X170801343Y-53435351D02*
X170801343Y-53368684D01*
X170801343Y-53368684D02*
X170834676Y-53302017D01*
X170834676Y-53302017D02*
X170868010Y-53268684D01*
X170868010Y-53268684D02*
X170934676Y-53235351D01*
X170934676Y-53235351D02*
X171068010Y-53202017D01*
X171068010Y-53202017D02*
X171234676Y-53202017D01*
X171234676Y-53202017D02*
X171368010Y-53235351D01*
X171368010Y-53235351D02*
X171434676Y-53268684D01*
X171434676Y-53268684D02*
X171468010Y-53302017D01*
X171468010Y-53302017D02*
X171501343Y-53368684D01*
X171501343Y-53368684D02*
X171501343Y-53435351D01*
X171501343Y-53435351D02*
X171468010Y-53502017D01*
X171468010Y-53502017D02*
X171434676Y-53535351D01*
X171434676Y-53535351D02*
X171368010Y-53568684D01*
X171368010Y-53568684D02*
X171234676Y-53602017D01*
X171234676Y-53602017D02*
X171068010Y-53602017D01*
X171068010Y-53602017D02*
X170934676Y-53568684D01*
X170934676Y-53568684D02*
X170868010Y-53535351D01*
X170868010Y-53535351D02*
X170834676Y-53502017D01*
X170834676Y-53502017D02*
X170801343Y-53435351D01*
X137814676Y-59868683D02*
X137781343Y-59935350D01*
X137781343Y-59935350D02*
X137781343Y-60035350D01*
X137781343Y-60035350D02*
X137814676Y-60135350D01*
X137814676Y-60135350D02*
X137881343Y-60202017D01*
X137881343Y-60202017D02*
X137948010Y-60235350D01*
X137948010Y-60235350D02*
X138081343Y-60268683D01*
X138081343Y-60268683D02*
X138181343Y-60268683D01*
X138181343Y-60268683D02*
X138314676Y-60235350D01*
X138314676Y-60235350D02*
X138381343Y-60202017D01*
X138381343Y-60202017D02*
X138448010Y-60135350D01*
X138448010Y-60135350D02*
X138481343Y-60035350D01*
X138481343Y-60035350D02*
X138481343Y-59968683D01*
X138481343Y-59968683D02*
X138448010Y-59868683D01*
X138448010Y-59868683D02*
X138414676Y-59835350D01*
X138414676Y-59835350D02*
X138181343Y-59835350D01*
X138181343Y-59835350D02*
X138181343Y-59968683D01*
X138481343Y-59535350D02*
X137781343Y-59535350D01*
X137781343Y-59535350D02*
X137781343Y-59268683D01*
X137781343Y-59268683D02*
X137814676Y-59202017D01*
X137814676Y-59202017D02*
X137848010Y-59168683D01*
X137848010Y-59168683D02*
X137914676Y-59135350D01*
X137914676Y-59135350D02*
X138014676Y-59135350D01*
X138014676Y-59135350D02*
X138081343Y-59168683D01*
X138081343Y-59168683D02*
X138114676Y-59202017D01*
X138114676Y-59202017D02*
X138148010Y-59268683D01*
X138148010Y-59268683D02*
X138148010Y-59535350D01*
X138481343Y-58835350D02*
X137781343Y-58835350D01*
X137781343Y-58368684D02*
X137781343Y-58235350D01*
X137781343Y-58235350D02*
X137814676Y-58168684D01*
X137814676Y-58168684D02*
X137881343Y-58102017D01*
X137881343Y-58102017D02*
X138014676Y-58068684D01*
X138014676Y-58068684D02*
X138248010Y-58068684D01*
X138248010Y-58068684D02*
X138381343Y-58102017D01*
X138381343Y-58102017D02*
X138448010Y-58168684D01*
X138448010Y-58168684D02*
X138481343Y-58235350D01*
X138481343Y-58235350D02*
X138481343Y-58368684D01*
X138481343Y-58368684D02*
X138448010Y-58435350D01*
X138448010Y-58435350D02*
X138381343Y-58502017D01*
X138381343Y-58502017D02*
X138248010Y-58535350D01*
X138248010Y-58535350D02*
X138014676Y-58535350D01*
X138014676Y-58535350D02*
X137881343Y-58502017D01*
X137881343Y-58502017D02*
X137814676Y-58435350D01*
X137814676Y-58435350D02*
X137781343Y-58368684D01*
X137781343Y-57835351D02*
X137781343Y-57402017D01*
X137781343Y-57402017D02*
X138048010Y-57635351D01*
X138048010Y-57635351D02*
X138048010Y-57535351D01*
X138048010Y-57535351D02*
X138081343Y-57468684D01*
X138081343Y-57468684D02*
X138114676Y-57435351D01*
X138114676Y-57435351D02*
X138181343Y-57402017D01*
X138181343Y-57402017D02*
X138348010Y-57402017D01*
X138348010Y-57402017D02*
X138414676Y-57435351D01*
X138414676Y-57435351D02*
X138448010Y-57468684D01*
X138448010Y-57468684D02*
X138481343Y-57535351D01*
X138481343Y-57535351D02*
X138481343Y-57735351D01*
X138481343Y-57735351D02*
X138448010Y-57802017D01*
X138448010Y-57802017D02*
X138414676Y-57835351D01*
X137748010Y-56602017D02*
X138648010Y-57202017D01*
X137781343Y-56368684D02*
X138348010Y-56368684D01*
X138348010Y-56368684D02*
X138414676Y-56335351D01*
X138414676Y-56335351D02*
X138448010Y-56302017D01*
X138448010Y-56302017D02*
X138481343Y-56235351D01*
X138481343Y-56235351D02*
X138481343Y-56102017D01*
X138481343Y-56102017D02*
X138448010Y-56035351D01*
X138448010Y-56035351D02*
X138414676Y-56002017D01*
X138414676Y-56002017D02*
X138348010Y-55968684D01*
X138348010Y-55968684D02*
X137781343Y-55968684D01*
X137781343Y-55502018D02*
X137781343Y-55435351D01*
X137781343Y-55435351D02*
X137814676Y-55368684D01*
X137814676Y-55368684D02*
X137848010Y-55335351D01*
X137848010Y-55335351D02*
X137914676Y-55302018D01*
X137914676Y-55302018D02*
X138048010Y-55268684D01*
X138048010Y-55268684D02*
X138214676Y-55268684D01*
X138214676Y-55268684D02*
X138348010Y-55302018D01*
X138348010Y-55302018D02*
X138414676Y-55335351D01*
X138414676Y-55335351D02*
X138448010Y-55368684D01*
X138448010Y-55368684D02*
X138481343Y-55435351D01*
X138481343Y-55435351D02*
X138481343Y-55502018D01*
X138481343Y-55502018D02*
X138448010Y-55568684D01*
X138448010Y-55568684D02*
X138414676Y-55602018D01*
X138414676Y-55602018D02*
X138348010Y-55635351D01*
X138348010Y-55635351D02*
X138214676Y-55668684D01*
X138214676Y-55668684D02*
X138048010Y-55668684D01*
X138048010Y-55668684D02*
X137914676Y-55635351D01*
X137914676Y-55635351D02*
X137848010Y-55602018D01*
X137848010Y-55602018D02*
X137814676Y-55568684D01*
X137814676Y-55568684D02*
X137781343Y-55502018D01*
X138481343Y-54568684D02*
X138148010Y-54802017D01*
X138481343Y-54968684D02*
X137781343Y-54968684D01*
X137781343Y-54968684D02*
X137781343Y-54702017D01*
X137781343Y-54702017D02*
X137814676Y-54635351D01*
X137814676Y-54635351D02*
X137848010Y-54602017D01*
X137848010Y-54602017D02*
X137914676Y-54568684D01*
X137914676Y-54568684D02*
X138014676Y-54568684D01*
X138014676Y-54568684D02*
X138081343Y-54602017D01*
X138081343Y-54602017D02*
X138114676Y-54635351D01*
X138114676Y-54635351D02*
X138148010Y-54702017D01*
X138148010Y-54702017D02*
X138148010Y-54968684D01*
X137781343Y-54335351D02*
X138481343Y-53868684D01*
X137781343Y-53868684D02*
X138481343Y-54335351D01*
X138481343Y-53602017D02*
X137781343Y-53602017D01*
X137781343Y-53602017D02*
X137781343Y-53435350D01*
X137781343Y-53435350D02*
X137814676Y-53335350D01*
X137814676Y-53335350D02*
X137881343Y-53268684D01*
X137881343Y-53268684D02*
X137948010Y-53235350D01*
X137948010Y-53235350D02*
X138081343Y-53202017D01*
X138081343Y-53202017D02*
X138181343Y-53202017D01*
X138181343Y-53202017D02*
X138314676Y-53235350D01*
X138314676Y-53235350D02*
X138381343Y-53268684D01*
X138381343Y-53268684D02*
X138448010Y-53335350D01*
X138448010Y-53335350D02*
X138481343Y-53435350D01*
X138481343Y-53435350D02*
X138481343Y-53602017D01*
X150514676Y-75197982D02*
X150481343Y-75264649D01*
X150481343Y-75264649D02*
X150481343Y-75364649D01*
X150481343Y-75364649D02*
X150514676Y-75464649D01*
X150514676Y-75464649D02*
X150581343Y-75531316D01*
X150581343Y-75531316D02*
X150648010Y-75564649D01*
X150648010Y-75564649D02*
X150781343Y-75597982D01*
X150781343Y-75597982D02*
X150881343Y-75597982D01*
X150881343Y-75597982D02*
X151014676Y-75564649D01*
X151014676Y-75564649D02*
X151081343Y-75531316D01*
X151081343Y-75531316D02*
X151148010Y-75464649D01*
X151148010Y-75464649D02*
X151181343Y-75364649D01*
X151181343Y-75364649D02*
X151181343Y-75297982D01*
X151181343Y-75297982D02*
X151148010Y-75197982D01*
X151148010Y-75197982D02*
X151114676Y-75164649D01*
X151114676Y-75164649D02*
X150881343Y-75164649D01*
X150881343Y-75164649D02*
X150881343Y-75297982D01*
X151181343Y-74864649D02*
X150481343Y-74864649D01*
X150481343Y-74864649D02*
X150481343Y-74597982D01*
X150481343Y-74597982D02*
X150514676Y-74531316D01*
X150514676Y-74531316D02*
X150548010Y-74497982D01*
X150548010Y-74497982D02*
X150614676Y-74464649D01*
X150614676Y-74464649D02*
X150714676Y-74464649D01*
X150714676Y-74464649D02*
X150781343Y-74497982D01*
X150781343Y-74497982D02*
X150814676Y-74531316D01*
X150814676Y-74531316D02*
X150848010Y-74597982D01*
X150848010Y-74597982D02*
X150848010Y-74864649D01*
X151181343Y-74164649D02*
X150481343Y-74164649D01*
X150481343Y-73697983D02*
X150481343Y-73564649D01*
X150481343Y-73564649D02*
X150514676Y-73497983D01*
X150514676Y-73497983D02*
X150581343Y-73431316D01*
X150581343Y-73431316D02*
X150714676Y-73397983D01*
X150714676Y-73397983D02*
X150948010Y-73397983D01*
X150948010Y-73397983D02*
X151081343Y-73431316D01*
X151081343Y-73431316D02*
X151148010Y-73497983D01*
X151148010Y-73497983D02*
X151181343Y-73564649D01*
X151181343Y-73564649D02*
X151181343Y-73697983D01*
X151181343Y-73697983D02*
X151148010Y-73764649D01*
X151148010Y-73764649D02*
X151081343Y-73831316D01*
X151081343Y-73831316D02*
X150948010Y-73864649D01*
X150948010Y-73864649D02*
X150714676Y-73864649D01*
X150714676Y-73864649D02*
X150581343Y-73831316D01*
X150581343Y-73831316D02*
X150514676Y-73764649D01*
X150514676Y-73764649D02*
X150481343Y-73697983D01*
X150548010Y-73131316D02*
X150514676Y-73097983D01*
X150514676Y-73097983D02*
X150481343Y-73031316D01*
X150481343Y-73031316D02*
X150481343Y-72864650D01*
X150481343Y-72864650D02*
X150514676Y-72797983D01*
X150514676Y-72797983D02*
X150548010Y-72764650D01*
X150548010Y-72764650D02*
X150614676Y-72731316D01*
X150614676Y-72731316D02*
X150681343Y-72731316D01*
X150681343Y-72731316D02*
X150781343Y-72764650D01*
X150781343Y-72764650D02*
X151181343Y-73164650D01*
X151181343Y-73164650D02*
X151181343Y-72731316D01*
X150481343Y-72131316D02*
X150481343Y-72264649D01*
X150481343Y-72264649D02*
X150514676Y-72331316D01*
X150514676Y-72331316D02*
X150548010Y-72364649D01*
X150548010Y-72364649D02*
X150648010Y-72431316D01*
X150648010Y-72431316D02*
X150781343Y-72464649D01*
X150781343Y-72464649D02*
X151048010Y-72464649D01*
X151048010Y-72464649D02*
X151114676Y-72431316D01*
X151114676Y-72431316D02*
X151148010Y-72397983D01*
X151148010Y-72397983D02*
X151181343Y-72331316D01*
X151181343Y-72331316D02*
X151181343Y-72197983D01*
X151181343Y-72197983D02*
X151148010Y-72131316D01*
X151148010Y-72131316D02*
X151114676Y-72097983D01*
X151114676Y-72097983D02*
X151048010Y-72064649D01*
X151048010Y-72064649D02*
X150881343Y-72064649D01*
X150881343Y-72064649D02*
X150814676Y-72097983D01*
X150814676Y-72097983D02*
X150781343Y-72131316D01*
X150781343Y-72131316D02*
X150748010Y-72197983D01*
X150748010Y-72197983D02*
X150748010Y-72331316D01*
X150748010Y-72331316D02*
X150781343Y-72397983D01*
X150781343Y-72397983D02*
X150814676Y-72431316D01*
X150814676Y-72431316D02*
X150881343Y-72464649D01*
X171434676Y-75164649D02*
X171468010Y-75197982D01*
X171468010Y-75197982D02*
X171501343Y-75297982D01*
X171501343Y-75297982D02*
X171501343Y-75364649D01*
X171501343Y-75364649D02*
X171468010Y-75464649D01*
X171468010Y-75464649D02*
X171401343Y-75531316D01*
X171401343Y-75531316D02*
X171334676Y-75564649D01*
X171334676Y-75564649D02*
X171201343Y-75597982D01*
X171201343Y-75597982D02*
X171101343Y-75597982D01*
X171101343Y-75597982D02*
X170968010Y-75564649D01*
X170968010Y-75564649D02*
X170901343Y-75531316D01*
X170901343Y-75531316D02*
X170834676Y-75464649D01*
X170834676Y-75464649D02*
X170801343Y-75364649D01*
X170801343Y-75364649D02*
X170801343Y-75297982D01*
X170801343Y-75297982D02*
X170834676Y-75197982D01*
X170834676Y-75197982D02*
X170868010Y-75164649D01*
X171501343Y-74864649D02*
X170801343Y-74864649D01*
X170801343Y-74864649D02*
X171301343Y-74631316D01*
X171301343Y-74631316D02*
X170801343Y-74397982D01*
X170801343Y-74397982D02*
X171501343Y-74397982D01*
X171501343Y-74064649D02*
X170801343Y-74064649D01*
X170801343Y-74064649D02*
X170801343Y-73897982D01*
X170801343Y-73897982D02*
X170834676Y-73797982D01*
X170834676Y-73797982D02*
X170901343Y-73731316D01*
X170901343Y-73731316D02*
X170968010Y-73697982D01*
X170968010Y-73697982D02*
X171101343Y-73664649D01*
X171101343Y-73664649D02*
X171201343Y-73664649D01*
X171201343Y-73664649D02*
X171334676Y-73697982D01*
X171334676Y-73697982D02*
X171401343Y-73731316D01*
X171401343Y-73731316D02*
X171468010Y-73797982D01*
X171468010Y-73797982D02*
X171501343Y-73897982D01*
X171501343Y-73897982D02*
X171501343Y-74064649D01*
X147974676Y-56335350D02*
X147941343Y-56402017D01*
X147941343Y-56402017D02*
X147941343Y-56502017D01*
X147941343Y-56502017D02*
X147974676Y-56602017D01*
X147974676Y-56602017D02*
X148041343Y-56668684D01*
X148041343Y-56668684D02*
X148108010Y-56702017D01*
X148108010Y-56702017D02*
X148241343Y-56735350D01*
X148241343Y-56735350D02*
X148341343Y-56735350D01*
X148341343Y-56735350D02*
X148474676Y-56702017D01*
X148474676Y-56702017D02*
X148541343Y-56668684D01*
X148541343Y-56668684D02*
X148608010Y-56602017D01*
X148608010Y-56602017D02*
X148641343Y-56502017D01*
X148641343Y-56502017D02*
X148641343Y-56435350D01*
X148641343Y-56435350D02*
X148608010Y-56335350D01*
X148608010Y-56335350D02*
X148574676Y-56302017D01*
X148574676Y-56302017D02*
X148341343Y-56302017D01*
X148341343Y-56302017D02*
X148341343Y-56435350D01*
X148641343Y-56002017D02*
X147941343Y-56002017D01*
X147941343Y-56002017D02*
X147941343Y-55735350D01*
X147941343Y-55735350D02*
X147974676Y-55668684D01*
X147974676Y-55668684D02*
X148008010Y-55635350D01*
X148008010Y-55635350D02*
X148074676Y-55602017D01*
X148074676Y-55602017D02*
X148174676Y-55602017D01*
X148174676Y-55602017D02*
X148241343Y-55635350D01*
X148241343Y-55635350D02*
X148274676Y-55668684D01*
X148274676Y-55668684D02*
X148308010Y-55735350D01*
X148308010Y-55735350D02*
X148308010Y-56002017D01*
X148641343Y-55302017D02*
X147941343Y-55302017D01*
X147941343Y-54835351D02*
X147941343Y-54702017D01*
X147941343Y-54702017D02*
X147974676Y-54635351D01*
X147974676Y-54635351D02*
X148041343Y-54568684D01*
X148041343Y-54568684D02*
X148174676Y-54535351D01*
X148174676Y-54535351D02*
X148408010Y-54535351D01*
X148408010Y-54535351D02*
X148541343Y-54568684D01*
X148541343Y-54568684D02*
X148608010Y-54635351D01*
X148608010Y-54635351D02*
X148641343Y-54702017D01*
X148641343Y-54702017D02*
X148641343Y-54835351D01*
X148641343Y-54835351D02*
X148608010Y-54902017D01*
X148608010Y-54902017D02*
X148541343Y-54968684D01*
X148541343Y-54968684D02*
X148408010Y-55002017D01*
X148408010Y-55002017D02*
X148174676Y-55002017D01*
X148174676Y-55002017D02*
X148041343Y-54968684D01*
X148041343Y-54968684D02*
X147974676Y-54902017D01*
X147974676Y-54902017D02*
X147941343Y-54835351D01*
X148641343Y-53868684D02*
X148641343Y-54268684D01*
X148641343Y-54068684D02*
X147941343Y-54068684D01*
X147941343Y-54068684D02*
X148041343Y-54135351D01*
X148041343Y-54135351D02*
X148108010Y-54202018D01*
X148108010Y-54202018D02*
X148141343Y-54268684D01*
X148241343Y-53468684D02*
X148208010Y-53535351D01*
X148208010Y-53535351D02*
X148174676Y-53568684D01*
X148174676Y-53568684D02*
X148108010Y-53602017D01*
X148108010Y-53602017D02*
X148074676Y-53602017D01*
X148074676Y-53602017D02*
X148008010Y-53568684D01*
X148008010Y-53568684D02*
X147974676Y-53535351D01*
X147974676Y-53535351D02*
X147941343Y-53468684D01*
X147941343Y-53468684D02*
X147941343Y-53335351D01*
X147941343Y-53335351D02*
X147974676Y-53268684D01*
X147974676Y-53268684D02*
X148008010Y-53235351D01*
X148008010Y-53235351D02*
X148074676Y-53202017D01*
X148074676Y-53202017D02*
X148108010Y-53202017D01*
X148108010Y-53202017D02*
X148174676Y-53235351D01*
X148174676Y-53235351D02*
X148208010Y-53268684D01*
X148208010Y-53268684D02*
X148241343Y-53335351D01*
X148241343Y-53335351D02*
X148241343Y-53468684D01*
X148241343Y-53468684D02*
X148274676Y-53535351D01*
X148274676Y-53535351D02*
X148308010Y-53568684D01*
X148308010Y-53568684D02*
X148374676Y-53602017D01*
X148374676Y-53602017D02*
X148508010Y-53602017D01*
X148508010Y-53602017D02*
X148574676Y-53568684D01*
X148574676Y-53568684D02*
X148608010Y-53535351D01*
X148608010Y-53535351D02*
X148641343Y-53468684D01*
X148641343Y-53468684D02*
X148641343Y-53335351D01*
X148641343Y-53335351D02*
X148608010Y-53268684D01*
X148608010Y-53268684D02*
X148574676Y-53235351D01*
X148574676Y-53235351D02*
X148508010Y-53202017D01*
X148508010Y-53202017D02*
X148374676Y-53202017D01*
X148374676Y-53202017D02*
X148308010Y-53235351D01*
X148308010Y-53235351D02*
X148274676Y-53268684D01*
X148274676Y-53268684D02*
X148241343Y-53335351D01*
X155594676Y-75197982D02*
X155561343Y-75264649D01*
X155561343Y-75264649D02*
X155561343Y-75364649D01*
X155561343Y-75364649D02*
X155594676Y-75464649D01*
X155594676Y-75464649D02*
X155661343Y-75531316D01*
X155661343Y-75531316D02*
X155728010Y-75564649D01*
X155728010Y-75564649D02*
X155861343Y-75597982D01*
X155861343Y-75597982D02*
X155961343Y-75597982D01*
X155961343Y-75597982D02*
X156094676Y-75564649D01*
X156094676Y-75564649D02*
X156161343Y-75531316D01*
X156161343Y-75531316D02*
X156228010Y-75464649D01*
X156228010Y-75464649D02*
X156261343Y-75364649D01*
X156261343Y-75364649D02*
X156261343Y-75297982D01*
X156261343Y-75297982D02*
X156228010Y-75197982D01*
X156228010Y-75197982D02*
X156194676Y-75164649D01*
X156194676Y-75164649D02*
X155961343Y-75164649D01*
X155961343Y-75164649D02*
X155961343Y-75297982D01*
X156261343Y-74864649D02*
X155561343Y-74864649D01*
X155561343Y-74864649D02*
X155561343Y-74597982D01*
X155561343Y-74597982D02*
X155594676Y-74531316D01*
X155594676Y-74531316D02*
X155628010Y-74497982D01*
X155628010Y-74497982D02*
X155694676Y-74464649D01*
X155694676Y-74464649D02*
X155794676Y-74464649D01*
X155794676Y-74464649D02*
X155861343Y-74497982D01*
X155861343Y-74497982D02*
X155894676Y-74531316D01*
X155894676Y-74531316D02*
X155928010Y-74597982D01*
X155928010Y-74597982D02*
X155928010Y-74864649D01*
X156261343Y-74164649D02*
X155561343Y-74164649D01*
X155561343Y-73697983D02*
X155561343Y-73564649D01*
X155561343Y-73564649D02*
X155594676Y-73497983D01*
X155594676Y-73497983D02*
X155661343Y-73431316D01*
X155661343Y-73431316D02*
X155794676Y-73397983D01*
X155794676Y-73397983D02*
X156028010Y-73397983D01*
X156028010Y-73397983D02*
X156161343Y-73431316D01*
X156161343Y-73431316D02*
X156228010Y-73497983D01*
X156228010Y-73497983D02*
X156261343Y-73564649D01*
X156261343Y-73564649D02*
X156261343Y-73697983D01*
X156261343Y-73697983D02*
X156228010Y-73764649D01*
X156228010Y-73764649D02*
X156161343Y-73831316D01*
X156161343Y-73831316D02*
X156028010Y-73864649D01*
X156028010Y-73864649D02*
X155794676Y-73864649D01*
X155794676Y-73864649D02*
X155661343Y-73831316D01*
X155661343Y-73831316D02*
X155594676Y-73764649D01*
X155594676Y-73764649D02*
X155561343Y-73697983D01*
X156261343Y-72731316D02*
X156261343Y-73131316D01*
X156261343Y-72931316D02*
X155561343Y-72931316D01*
X155561343Y-72931316D02*
X155661343Y-72997983D01*
X155661343Y-72997983D02*
X155728010Y-73064650D01*
X155728010Y-73064650D02*
X155761343Y-73131316D01*
X155794676Y-72131316D02*
X156261343Y-72131316D01*
X155528010Y-72297983D02*
X156028010Y-72464649D01*
X156028010Y-72464649D02*
X156028010Y-72031316D01*
X155528010Y-71264649D02*
X156428010Y-71864649D01*
X156261343Y-71031316D02*
X155561343Y-71031316D01*
X155561343Y-71031316D02*
X156061343Y-70797983D01*
X156061343Y-70797983D02*
X155561343Y-70564649D01*
X155561343Y-70564649D02*
X156261343Y-70564649D01*
X155561343Y-70331316D02*
X155561343Y-69931316D01*
X156261343Y-70131316D02*
X155561343Y-70131316D01*
X156261343Y-69697983D02*
X155561343Y-69697983D01*
X155561343Y-69697983D02*
X156061343Y-69464650D01*
X156061343Y-69464650D02*
X155561343Y-69231316D01*
X155561343Y-69231316D02*
X156261343Y-69231316D01*
X156228010Y-68931316D02*
X156261343Y-68831316D01*
X156261343Y-68831316D02*
X156261343Y-68664650D01*
X156261343Y-68664650D02*
X156228010Y-68597983D01*
X156228010Y-68597983D02*
X156194676Y-68564650D01*
X156194676Y-68564650D02*
X156128010Y-68531316D01*
X156128010Y-68531316D02*
X156061343Y-68531316D01*
X156061343Y-68531316D02*
X155994676Y-68564650D01*
X155994676Y-68564650D02*
X155961343Y-68597983D01*
X155961343Y-68597983D02*
X155928010Y-68664650D01*
X155928010Y-68664650D02*
X155894676Y-68797983D01*
X155894676Y-68797983D02*
X155861343Y-68864650D01*
X155861343Y-68864650D02*
X155828010Y-68897983D01*
X155828010Y-68897983D02*
X155761343Y-68931316D01*
X155761343Y-68931316D02*
X155694676Y-68931316D01*
X155694676Y-68931316D02*
X155628010Y-68897983D01*
X155628010Y-68897983D02*
X155594676Y-68864650D01*
X155594676Y-68864650D02*
X155561343Y-68797983D01*
X155561343Y-68797983D02*
X155561343Y-68631316D01*
X155561343Y-68631316D02*
X155594676Y-68531316D01*
X160674676Y-55668683D02*
X160641343Y-55735350D01*
X160641343Y-55735350D02*
X160641343Y-55835350D01*
X160641343Y-55835350D02*
X160674676Y-55935350D01*
X160674676Y-55935350D02*
X160741343Y-56002017D01*
X160741343Y-56002017D02*
X160808010Y-56035350D01*
X160808010Y-56035350D02*
X160941343Y-56068683D01*
X160941343Y-56068683D02*
X161041343Y-56068683D01*
X161041343Y-56068683D02*
X161174676Y-56035350D01*
X161174676Y-56035350D02*
X161241343Y-56002017D01*
X161241343Y-56002017D02*
X161308010Y-55935350D01*
X161308010Y-55935350D02*
X161341343Y-55835350D01*
X161341343Y-55835350D02*
X161341343Y-55768683D01*
X161341343Y-55768683D02*
X161308010Y-55668683D01*
X161308010Y-55668683D02*
X161274676Y-55635350D01*
X161274676Y-55635350D02*
X161041343Y-55635350D01*
X161041343Y-55635350D02*
X161041343Y-55768683D01*
X161341343Y-55335350D02*
X160641343Y-55335350D01*
X160641343Y-55335350D02*
X160641343Y-55068683D01*
X160641343Y-55068683D02*
X160674676Y-55002017D01*
X160674676Y-55002017D02*
X160708010Y-54968683D01*
X160708010Y-54968683D02*
X160774676Y-54935350D01*
X160774676Y-54935350D02*
X160874676Y-54935350D01*
X160874676Y-54935350D02*
X160941343Y-54968683D01*
X160941343Y-54968683D02*
X160974676Y-55002017D01*
X160974676Y-55002017D02*
X161008010Y-55068683D01*
X161008010Y-55068683D02*
X161008010Y-55335350D01*
X161341343Y-54635350D02*
X160641343Y-54635350D01*
X160641343Y-54168684D02*
X160641343Y-54035350D01*
X160641343Y-54035350D02*
X160674676Y-53968684D01*
X160674676Y-53968684D02*
X160741343Y-53902017D01*
X160741343Y-53902017D02*
X160874676Y-53868684D01*
X160874676Y-53868684D02*
X161108010Y-53868684D01*
X161108010Y-53868684D02*
X161241343Y-53902017D01*
X161241343Y-53902017D02*
X161308010Y-53968684D01*
X161308010Y-53968684D02*
X161341343Y-54035350D01*
X161341343Y-54035350D02*
X161341343Y-54168684D01*
X161341343Y-54168684D02*
X161308010Y-54235350D01*
X161308010Y-54235350D02*
X161241343Y-54302017D01*
X161241343Y-54302017D02*
X161108010Y-54335350D01*
X161108010Y-54335350D02*
X160874676Y-54335350D01*
X160874676Y-54335350D02*
X160741343Y-54302017D01*
X160741343Y-54302017D02*
X160674676Y-54235350D01*
X160674676Y-54235350D02*
X160641343Y-54168684D01*
X160641343Y-53435351D02*
X160641343Y-53368684D01*
X160641343Y-53368684D02*
X160674676Y-53302017D01*
X160674676Y-53302017D02*
X160708010Y-53268684D01*
X160708010Y-53268684D02*
X160774676Y-53235351D01*
X160774676Y-53235351D02*
X160908010Y-53202017D01*
X160908010Y-53202017D02*
X161074676Y-53202017D01*
X161074676Y-53202017D02*
X161208010Y-53235351D01*
X161208010Y-53235351D02*
X161274676Y-53268684D01*
X161274676Y-53268684D02*
X161308010Y-53302017D01*
X161308010Y-53302017D02*
X161341343Y-53368684D01*
X161341343Y-53368684D02*
X161341343Y-53435351D01*
X161341343Y-53435351D02*
X161308010Y-53502017D01*
X161308010Y-53502017D02*
X161274676Y-53535351D01*
X161274676Y-53535351D02*
X161208010Y-53568684D01*
X161208010Y-53568684D02*
X161074676Y-53602017D01*
X161074676Y-53602017D02*
X160908010Y-53602017D01*
X160908010Y-53602017D02*
X160774676Y-53568684D01*
X160774676Y-53568684D02*
X160708010Y-53535351D01*
X160708010Y-53535351D02*
X160674676Y-53502017D01*
X160674676Y-53502017D02*
X160641343Y-53435351D01*
X170642083Y-104734819D02*
X170308750Y-104258628D01*
X170070655Y-104734819D02*
X170070655Y-103734819D01*
X170070655Y-103734819D02*
X170451607Y-103734819D01*
X170451607Y-103734819D02*
X170546845Y-103782438D01*
X170546845Y-103782438D02*
X170594464Y-103830057D01*
X170594464Y-103830057D02*
X170642083Y-103925295D01*
X170642083Y-103925295D02*
X170642083Y-104068152D01*
X170642083Y-104068152D02*
X170594464Y-104163390D01*
X170594464Y-104163390D02*
X170546845Y-104211009D01*
X170546845Y-104211009D02*
X170451607Y-104258628D01*
X170451607Y-104258628D02*
X170070655Y-104258628D01*
X171594464Y-104734819D02*
X171023036Y-104734819D01*
X171308750Y-104734819D02*
X171308750Y-103734819D01*
X171308750Y-103734819D02*
X171213512Y-103877676D01*
X171213512Y-103877676D02*
X171118274Y-103972914D01*
X171118274Y-103972914D02*
X171023036Y-104020533D01*
D14*
%TO.C,G\u002A\u002A\u002A*%
G36*
X128685034Y-115579775D02*
G01*
X128685034Y-115898557D01*
X128516482Y-115898557D01*
X128347930Y-115898557D01*
X128347930Y-116492152D01*
X128347997Y-116639889D01*
X128348271Y-116760956D01*
X128348867Y-116857995D01*
X128349900Y-116933650D01*
X128351482Y-116990563D01*
X128353729Y-117031379D01*
X128356754Y-117058739D01*
X128360672Y-117075286D01*
X128365596Y-117083664D01*
X128371640Y-117086516D01*
X128373580Y-117086685D01*
X128399127Y-117086914D01*
X128445780Y-117086735D01*
X128505335Y-117086190D01*
X128534298Y-117085836D01*
X128669368Y-117084050D01*
X128673537Y-117242457D01*
X128677705Y-117400865D01*
X128835265Y-117405025D01*
X128992824Y-117409185D01*
X128992824Y-117568530D01*
X128992824Y-117727874D01*
X129139390Y-117719797D01*
X129285957Y-117711721D01*
X129285957Y-117860419D01*
X129285957Y-118009117D01*
X129608404Y-118009117D01*
X129930850Y-118009117D01*
X129930850Y-118486407D01*
X129930850Y-118963696D01*
X130073753Y-118959084D01*
X130216655Y-118954472D01*
X130220522Y-118481794D01*
X130224390Y-118009117D01*
X130374417Y-118007381D01*
X130438211Y-118006815D01*
X130490821Y-118006671D01*
X130525502Y-118006947D01*
X130535438Y-118007381D01*
X130539850Y-117994440D01*
X130543417Y-117958020D01*
X130545738Y-117903952D01*
X130546430Y-117847894D01*
X130546430Y-117686670D01*
X130707653Y-117686670D01*
X130868877Y-117686670D01*
X130868877Y-117530570D01*
X130868877Y-117374469D01*
X131176667Y-117384831D01*
X131484457Y-117395194D01*
X131484457Y-117240404D01*
X131484457Y-117085615D01*
X133022792Y-117086089D01*
X134561127Y-117086563D01*
X134558077Y-117236386D01*
X134555028Y-117386209D01*
X134859154Y-117390170D01*
X135163280Y-117394132D01*
X135163280Y-117547729D01*
X135163280Y-117701327D01*
X135317175Y-117701327D01*
X135471070Y-117701327D01*
X135471070Y-117855222D01*
X135471070Y-118009117D01*
X135632293Y-118009117D01*
X135793516Y-118009117D01*
X135793516Y-118485459D01*
X135793516Y-118961800D01*
X135947411Y-118961800D01*
X136101306Y-118961800D01*
X136101292Y-118489123D01*
X136101278Y-118016445D01*
X136409082Y-118020675D01*
X136716886Y-118024906D01*
X136716886Y-117868340D01*
X136716886Y-117711774D01*
X136870781Y-117719628D01*
X137024676Y-117727483D01*
X137024676Y-117567838D01*
X137024676Y-117408194D01*
X137185899Y-117408194D01*
X137347123Y-117408194D01*
X137347123Y-117244866D01*
X137347123Y-117081537D01*
X137501018Y-117089392D01*
X137654913Y-117097246D01*
X137654913Y-116497902D01*
X137654913Y-115898557D01*
X137501018Y-115898557D01*
X137347123Y-115898557D01*
X137347123Y-115583439D01*
X137347123Y-115268321D01*
X137505197Y-115268321D01*
X137663271Y-115268321D01*
X137657404Y-115416229D01*
X137651537Y-115564137D01*
X137814466Y-115559131D01*
X137977395Y-115554126D01*
X137977377Y-115710054D01*
X137977359Y-115865982D01*
X138030363Y-115875925D01*
X138074106Y-115879704D01*
X138132199Y-115879155D01*
X138176929Y-115875849D01*
X138270492Y-115865829D01*
X138270492Y-116170161D01*
X138270492Y-116474494D01*
X138409731Y-116464706D01*
X138548969Y-116454919D01*
X138548969Y-117100108D01*
X138548969Y-117745297D01*
X138409176Y-117745297D01*
X138269382Y-117745297D01*
X138273601Y-118060429D01*
X138277821Y-118375561D01*
X138120262Y-118375547D01*
X137962703Y-118375534D01*
X137962703Y-118668667D01*
X137962703Y-118961800D01*
X137808808Y-118961800D01*
X137654913Y-118961800D01*
X137654913Y-119116510D01*
X137654913Y-119271221D01*
X137499217Y-119268548D01*
X137343521Y-119265874D01*
X137346154Y-119431298D01*
X137348787Y-119596721D01*
X136878941Y-119586542D01*
X136409096Y-119576362D01*
X136409096Y-119723438D01*
X136409096Y-119870513D01*
X136562991Y-119870513D01*
X136716886Y-119870513D01*
X136716886Y-121416792D01*
X136716886Y-122963070D01*
X136562991Y-122963070D01*
X136409096Y-122963070D01*
X136409096Y-123270860D01*
X136409096Y-123578650D01*
X136255201Y-123578650D01*
X136101306Y-123578650D01*
X136101306Y-124355453D01*
X136101306Y-125132256D01*
X135947411Y-125132256D01*
X135793516Y-125132256D01*
X135793516Y-125447374D01*
X135793516Y-125762493D01*
X135646950Y-125762493D01*
X135500383Y-125762493D01*
X135500383Y-125916388D01*
X135500383Y-126070283D01*
X135339160Y-126070283D01*
X135177936Y-126070283D01*
X135177936Y-126224178D01*
X135177936Y-126378073D01*
X135014554Y-126378073D01*
X134851172Y-126378073D01*
X134861088Y-126531440D01*
X134871003Y-126684808D01*
X134720344Y-126681747D01*
X134569685Y-126678686D01*
X134573317Y-127004721D01*
X134576949Y-127330756D01*
X134415758Y-127330756D01*
X134254566Y-127330756D01*
X134254566Y-127491979D01*
X134254566Y-127653202D01*
X134092337Y-127653202D01*
X133930108Y-127653202D01*
X133934778Y-127792474D01*
X133939448Y-127931745D01*
X133622244Y-127931712D01*
X133305041Y-127931679D01*
X133312895Y-128085574D01*
X133320750Y-128239469D01*
X133010855Y-128239469D01*
X132700960Y-128239469D01*
X132700960Y-128085574D01*
X132700960Y-127931679D01*
X132400498Y-127931679D01*
X132100037Y-127931679D01*
X132100037Y-127792441D01*
X132100037Y-127653202D01*
X131946142Y-127653202D01*
X131792247Y-127653202D01*
X131792247Y-127493971D01*
X131792247Y-127334740D01*
X131724246Y-127325420D01*
X131668896Y-127320022D01*
X131603647Y-127316658D01*
X131570351Y-127316099D01*
X131484457Y-127316099D01*
X131481852Y-127092585D01*
X131480694Y-127005244D01*
X131479311Y-126919617D01*
X131477854Y-126844023D01*
X131476473Y-126786783D01*
X131476075Y-126773803D01*
X131474261Y-126719342D01*
X132393170Y-126719342D01*
X132946459Y-126709555D01*
X133073702Y-126707111D01*
X133193958Y-126704433D01*
X133303538Y-126701631D01*
X133398751Y-126698814D01*
X133475906Y-126696093D01*
X133531314Y-126693576D01*
X133561284Y-126691374D01*
X133562039Y-126691275D01*
X133624330Y-126682784D01*
X133624330Y-126533785D01*
X133624330Y-126384786D01*
X133008750Y-126381415D01*
X132393170Y-126378045D01*
X132393170Y-126548694D01*
X132393170Y-126719342D01*
X131474261Y-126719342D01*
X131472902Y-126678534D01*
X131321120Y-126676353D01*
X131169338Y-126674172D01*
X131169338Y-126548694D01*
X131169338Y-126524401D01*
X131169338Y-126374630D01*
X131011779Y-126381111D01*
X130854220Y-126387593D01*
X130854250Y-126232602D01*
X130854280Y-126077611D01*
X130693027Y-126082189D01*
X130531774Y-126086768D01*
X130531774Y-125924630D01*
X130531774Y-125762493D01*
X130392535Y-125762493D01*
X130331125Y-125762496D01*
X130281044Y-125762505D01*
X130249346Y-125762519D01*
X130242304Y-125762527D01*
X130238773Y-125748584D01*
X130235035Y-125709537D01*
X130231331Y-125649591D01*
X130227902Y-125572954D01*
X130224992Y-125483830D01*
X130223984Y-125443745D01*
X130216655Y-125124928D01*
X130066424Y-125130019D01*
X129916194Y-125135111D01*
X129914876Y-124573066D01*
X129914406Y-124437560D01*
X129913659Y-124302767D01*
X129912680Y-124173527D01*
X129911517Y-124054683D01*
X129910766Y-123994892D01*
X130220024Y-123994892D01*
X130221293Y-124062445D01*
X130225930Y-124208886D01*
X130353203Y-124209086D01*
X130418721Y-124208633D01*
X130467541Y-124209525D01*
X130502079Y-124215490D01*
X130524752Y-124230258D01*
X130537975Y-124257558D01*
X130544167Y-124301118D01*
X130545743Y-124364668D01*
X130545120Y-124451936D01*
X130544743Y-124504643D01*
X130544717Y-124591854D01*
X130545397Y-124668622D01*
X130546684Y-124730281D01*
X130548479Y-124772164D01*
X130550683Y-124789606D01*
X130550787Y-124789739D01*
X130567627Y-124793059D01*
X130607193Y-124796174D01*
X130662897Y-124798659D01*
X130706119Y-124799762D01*
X130854147Y-124802481D01*
X130854183Y-124967369D01*
X130854220Y-125132256D01*
X131007619Y-125132256D01*
X131161018Y-125132256D01*
X131165178Y-125289815D01*
X131169338Y-125447374D01*
X131319569Y-125442283D01*
X131469800Y-125437191D01*
X131470000Y-125566864D01*
X131470232Y-125645796D01*
X131473167Y-125700049D01*
X131482593Y-125734236D01*
X131502299Y-125752974D01*
X131536073Y-125760874D01*
X131587703Y-125762553D01*
X131630613Y-125762493D01*
X131773351Y-125762493D01*
X131782695Y-125861425D01*
X131787657Y-125922194D01*
X131791086Y-125979854D01*
X131792142Y-126015320D01*
X131792247Y-126070283D01*
X133024741Y-126070283D01*
X134257235Y-126070283D01*
X134252236Y-125916371D01*
X134247238Y-125762460D01*
X134397469Y-125762476D01*
X134547700Y-125762493D01*
X134547700Y-125599111D01*
X134547700Y-125435729D01*
X134701595Y-125445678D01*
X134855490Y-125455628D01*
X134855490Y-125293942D01*
X134855490Y-125132256D01*
X135025277Y-125132256D01*
X135195064Y-125132256D01*
X135184614Y-124971033D01*
X135174165Y-124809809D01*
X135231013Y-124807302D01*
X135273879Y-124804842D01*
X135306221Y-124802012D01*
X135309846Y-124801532D01*
X135337307Y-124799224D01*
X135380584Y-124797253D01*
X135399750Y-124796711D01*
X135467668Y-124795153D01*
X135478398Y-124502019D01*
X135489128Y-124208886D01*
X135601016Y-124207036D01*
X135661342Y-124206233D01*
X135715120Y-124205857D01*
X135751404Y-124205981D01*
X135753210Y-124206015D01*
X135793516Y-124206844D01*
X135793516Y-124044810D01*
X135793516Y-123882775D01*
X135747714Y-123891936D01*
X135721505Y-123894300D01*
X135670180Y-123896439D01*
X135597936Y-123898268D01*
X135508972Y-123899708D01*
X135407483Y-123900675D01*
X135297669Y-123901087D01*
X135278701Y-123901096D01*
X134855490Y-123901096D01*
X134855490Y-124062320D01*
X134855490Y-124223543D01*
X134699367Y-124223543D01*
X134543245Y-124223543D01*
X134552661Y-124377438D01*
X134562077Y-124531333D01*
X134262034Y-124531333D01*
X134158291Y-124531771D01*
X134080157Y-124531629D01*
X134023971Y-124528719D01*
X133986074Y-124520854D01*
X133962804Y-124505847D01*
X133950502Y-124481512D01*
X133945507Y-124445662D01*
X133944159Y-124396109D01*
X133943124Y-124340796D01*
X133939448Y-124216215D01*
X133789217Y-124212038D01*
X133638986Y-124207861D01*
X133638986Y-124369597D01*
X133638986Y-124531333D01*
X133472197Y-124531333D01*
X133305408Y-124531333D01*
X133312953Y-124690526D01*
X133320499Y-124849720D01*
X133036378Y-124842744D01*
X132947887Y-124840114D01*
X132869552Y-124836918D01*
X132806050Y-124833417D01*
X132762059Y-124829874D01*
X132742255Y-124826550D01*
X132741801Y-124826255D01*
X132734904Y-124807586D01*
X132727678Y-124768865D01*
X132722806Y-124729000D01*
X132716753Y-124669109D01*
X132710507Y-124610849D01*
X132707285Y-124582631D01*
X132700302Y-124524004D01*
X132551173Y-124524004D01*
X132402045Y-124524004D01*
X132405997Y-124366445D01*
X132409949Y-124208886D01*
X132263910Y-124208886D01*
X132197477Y-124209129D01*
X132154637Y-124210810D01*
X132129666Y-124215362D01*
X132116846Y-124224217D01*
X132110453Y-124238806D01*
X132108085Y-124247878D01*
X132103793Y-124281018D01*
X132101350Y-124333181D01*
X132101189Y-124394114D01*
X132101441Y-124405437D01*
X132104585Y-124524004D01*
X131795019Y-124527959D01*
X131485454Y-124531913D01*
X131481291Y-124375747D01*
X131477128Y-124219582D01*
X131326898Y-124222399D01*
X131176667Y-124225216D01*
X131176667Y-124063156D01*
X131176667Y-123901096D01*
X130716181Y-123901096D01*
X130602240Y-123901326D01*
X130497322Y-123901978D01*
X130405128Y-123902993D01*
X130329359Y-123904315D01*
X130273718Y-123905886D01*
X130241904Y-123907649D01*
X130236175Y-123908550D01*
X130226951Y-123919571D01*
X130221708Y-123946888D01*
X130220024Y-123994892D01*
X129910766Y-123994892D01*
X129910216Y-123951074D01*
X129908824Y-123867542D01*
X129907522Y-123813156D01*
X129905285Y-123737824D01*
X129903428Y-123671391D01*
X129902119Y-123620225D01*
X129901873Y-123607934D01*
X131784918Y-123607934D01*
X131789159Y-123908410D01*
X131793401Y-124208886D01*
X131946719Y-124208886D01*
X132100037Y-124208886D01*
X132100037Y-123908425D01*
X132100037Y-123607963D01*
X132246603Y-123607963D01*
X132393170Y-123607963D01*
X133638986Y-123607963D01*
X133792881Y-123607963D01*
X133946776Y-123607963D01*
X133946776Y-123908425D01*
X133946776Y-124208886D01*
X134110227Y-124208886D01*
X134273678Y-124208886D01*
X134264122Y-124052711D01*
X134259792Y-123965707D01*
X134256494Y-123868472D01*
X134254746Y-123777620D01*
X134254597Y-123748585D01*
X134254628Y-123600635D01*
X134102906Y-123605198D01*
X133951183Y-123609762D01*
X133941756Y-123509930D01*
X133936730Y-123447301D01*
X133933270Y-123386219D01*
X133932224Y-123347807D01*
X133932120Y-123285516D01*
X133785553Y-123285516D01*
X133638986Y-123285516D01*
X133638986Y-123446740D01*
X133638986Y-123607963D01*
X132393170Y-123607963D01*
X132393170Y-123446740D01*
X132393170Y-123285516D01*
X132246603Y-123285516D01*
X132100037Y-123285516D01*
X132100037Y-123446740D01*
X132100037Y-123607963D01*
X131942477Y-123607948D01*
X131784918Y-123607934D01*
X129901873Y-123607934D01*
X129901528Y-123590692D01*
X129901511Y-123587899D01*
X129899496Y-123575344D01*
X129889816Y-123568042D01*
X129867060Y-123565335D01*
X129825818Y-123566563D01*
X129762299Y-123570946D01*
X129623060Y-123581385D01*
X129623060Y-123272227D01*
X129623060Y-122963070D01*
X129461837Y-122963070D01*
X129300614Y-122963070D01*
X129300614Y-121416792D01*
X129300614Y-121097689D01*
X129886880Y-121097689D01*
X129954881Y-121107009D01*
X130005449Y-121111812D01*
X130070542Y-121115177D01*
X130130761Y-121116330D01*
X130238640Y-121116330D01*
X130238640Y-121268515D01*
X130238607Y-121336389D01*
X130235470Y-121383286D01*
X130224671Y-121413078D01*
X130201655Y-121429639D01*
X130161866Y-121436842D01*
X130100745Y-121438559D01*
X130038561Y-121438576D01*
X129904438Y-121438777D01*
X129899311Y-121698932D01*
X129897923Y-121786874D01*
X129897286Y-121867759D01*
X129897397Y-121935725D01*
X129898253Y-121984911D01*
X129899464Y-122006722D01*
X129904744Y-122054356D01*
X130062322Y-122054356D01*
X130219900Y-122054356D01*
X130229143Y-122131304D01*
X130234873Y-122195494D01*
X130238193Y-122264477D01*
X130238513Y-122286179D01*
X130238640Y-122364107D01*
X130392535Y-122353798D01*
X130546430Y-122343489D01*
X130546430Y-122483529D01*
X130547326Y-122546913D01*
X130549728Y-122600747D01*
X130553210Y-122637205D01*
X130555327Y-122646753D01*
X130564386Y-122657521D01*
X130585076Y-122664454D01*
X130622561Y-122668302D01*
X130682004Y-122669816D01*
X130714690Y-122669936D01*
X130865158Y-122669936D01*
X130865098Y-122717571D01*
X130865337Y-122756639D01*
X130866017Y-122812665D01*
X130866958Y-122871466D01*
X130868877Y-122977726D01*
X131326898Y-122977720D01*
X131784918Y-122977714D01*
X131789615Y-122827678D01*
X131792263Y-122764360D01*
X131795677Y-122712690D01*
X131799352Y-122679215D01*
X131801798Y-122670125D01*
X131818106Y-122667567D01*
X131859115Y-122664880D01*
X131920215Y-122662259D01*
X131996797Y-122659897D01*
X132084250Y-122657990D01*
X132093899Y-122657823D01*
X132378513Y-122653038D01*
X132378513Y-122500264D01*
X132378513Y-122347490D01*
X132539737Y-122347490D01*
X132700960Y-122347490D01*
X132700960Y-121893133D01*
X132700960Y-121453433D01*
X133301883Y-121453433D01*
X133303344Y-121860156D01*
X133304085Y-121968240D01*
X133305441Y-122068186D01*
X133307300Y-122155809D01*
X133309553Y-122226922D01*
X133312092Y-122277341D01*
X133314805Y-122302879D01*
X133314968Y-122303520D01*
X133320850Y-122320066D01*
X133331241Y-122330892D01*
X133351805Y-122337443D01*
X133388208Y-122341168D01*
X133446113Y-122343513D01*
X133474730Y-122344338D01*
X133624330Y-122348515D01*
X133624330Y-122499645D01*
X133624330Y-122650775D01*
X133802511Y-122660356D01*
X133888399Y-122664339D01*
X133979288Y-122667513D01*
X134062554Y-122669483D01*
X134110301Y-122669936D01*
X134239910Y-122669936D01*
X134239910Y-122823831D01*
X134239910Y-122977726D01*
X134701595Y-122977726D01*
X135163280Y-122977726D01*
X135163280Y-122815560D01*
X135163280Y-122653394D01*
X135317205Y-122658001D01*
X135471131Y-122662608D01*
X135471100Y-122512377D01*
X135471070Y-122362146D01*
X135624965Y-122362146D01*
X135778859Y-122362146D01*
X135778859Y-122208251D01*
X135778859Y-122054356D01*
X135954739Y-122054356D01*
X136130619Y-122054356D01*
X136130619Y-121746566D01*
X136130619Y-121438777D01*
X135962068Y-121438777D01*
X135793516Y-121438777D01*
X135793516Y-121276666D01*
X135793516Y-121114555D01*
X135962097Y-121119107D01*
X136130677Y-121123658D01*
X136130648Y-120804876D01*
X136130619Y-120486093D01*
X135800844Y-120486093D01*
X135471070Y-120486093D01*
X135471070Y-120647317D01*
X135471070Y-120808540D01*
X135317175Y-120808540D01*
X135163280Y-120808540D01*
X135163296Y-120966099D01*
X135163313Y-121123658D01*
X135009401Y-121118660D01*
X134855490Y-121113662D01*
X134855490Y-121276219D01*
X134855490Y-121438777D01*
X134702107Y-121438777D01*
X134548725Y-121438777D01*
X134544548Y-121589007D01*
X134540371Y-121739238D01*
X134389216Y-121735002D01*
X134238060Y-121730766D01*
X134242649Y-121892056D01*
X134247238Y-122053346D01*
X133935770Y-122057515D01*
X133624302Y-122061685D01*
X133624249Y-121922446D01*
X133623266Y-121844948D01*
X133620672Y-121752891D01*
X133616929Y-121660960D01*
X133614695Y-121618321D01*
X133605194Y-121453433D01*
X133453539Y-121453433D01*
X133301883Y-121453433D01*
X132700960Y-121453433D01*
X132700960Y-121438777D01*
X132547065Y-121438777D01*
X132393170Y-121438777D01*
X132393170Y-121744749D01*
X132393170Y-122050721D01*
X132085380Y-122049800D01*
X131777590Y-122048878D01*
X131777590Y-121881177D01*
X131777590Y-121713477D01*
X131631023Y-121723868D01*
X131484457Y-121734259D01*
X131484457Y-121579189D01*
X131484457Y-121424120D01*
X131331058Y-121424120D01*
X131177658Y-121424120D01*
X131173498Y-121267142D01*
X131169338Y-121110164D01*
X131019108Y-121114416D01*
X130868877Y-121118669D01*
X130868877Y-120956276D01*
X130868877Y-120793883D01*
X130707653Y-120793883D01*
X130546430Y-120793883D01*
X130546430Y-120639564D01*
X130546430Y-120485244D01*
X130223655Y-120487600D01*
X130129606Y-120488678D01*
X130045947Y-120490386D01*
X129976935Y-120492574D01*
X129926829Y-120495093D01*
X129899887Y-120497797D01*
X129896462Y-120499017D01*
X129895388Y-120516963D01*
X129896507Y-120556399D01*
X129899569Y-120609602D01*
X129900524Y-120623024D01*
X129903205Y-120677906D01*
X129902714Y-120720455D01*
X129899212Y-120743150D01*
X129897942Y-120744807D01*
X129893622Y-120761297D01*
X129890092Y-120801083D01*
X129887721Y-120858150D01*
X129886880Y-120924666D01*
X129886880Y-121097689D01*
X129300614Y-121097689D01*
X129300614Y-120924666D01*
X129300614Y-119870513D01*
X129463405Y-119870513D01*
X129534596Y-119870054D01*
X129581036Y-119868218D01*
X129607280Y-119864320D01*
X129617883Y-119857673D01*
X129617399Y-119847592D01*
X129617300Y-119847330D01*
X129613184Y-119822511D01*
X129610077Y-119776946D01*
X129608501Y-119719199D01*
X129608404Y-119700771D01*
X129608404Y-119577396D01*
X129154053Y-119579837D01*
X129041644Y-119580240D01*
X128938944Y-119580222D01*
X128849544Y-119579816D01*
X128777036Y-119579051D01*
X128725008Y-119577960D01*
X128697054Y-119576572D01*
X128693269Y-119575845D01*
X128689641Y-119559426D01*
X128684953Y-119520220D01*
X128679901Y-119464701D01*
X128676512Y-119419501D01*
X128666187Y-119269590D01*
X128514387Y-119269590D01*
X128362587Y-119269590D01*
X128362587Y-119259819D01*
X128362587Y-119108367D01*
X128362587Y-118961800D01*
X129608404Y-118961800D01*
X129608404Y-119259819D01*
X129608922Y-119350585D01*
X129610368Y-119431329D01*
X129612579Y-119497478D01*
X129615393Y-119544456D01*
X129618647Y-119567691D01*
X129619396Y-119569152D01*
X129638848Y-119573825D01*
X129677968Y-119574325D01*
X129716814Y-119571594D01*
X129777840Y-119566517D01*
X129838652Y-119563307D01*
X129867045Y-119562723D01*
X129930850Y-119562723D01*
X129930849Y-119560954D01*
X136115963Y-119560954D01*
X136170925Y-119566703D01*
X136216932Y-119570335D01*
X136276251Y-119573507D01*
X136315253Y-119574916D01*
X136404617Y-119577380D01*
X136414118Y-119412493D01*
X136418287Y-119325728D01*
X136421541Y-119230622D01*
X136423413Y-119142168D01*
X136423686Y-119104703D01*
X136423753Y-118961800D01*
X136269858Y-118961800D01*
X136115963Y-118961800D01*
X136115963Y-119261377D01*
X136115963Y-119560954D01*
X129930849Y-119560954D01*
X129930797Y-119471119D01*
X129930081Y-119421682D01*
X129928161Y-119351673D01*
X129925316Y-119269798D01*
X129924970Y-119261377D01*
X129921824Y-119184761D01*
X129921188Y-119170658D01*
X129911634Y-118961800D01*
X129760019Y-118961800D01*
X129608404Y-118961800D01*
X128362587Y-118961800D01*
X128362587Y-118947144D01*
X128216020Y-118947144D01*
X128069454Y-118947144D01*
X128069454Y-118663427D01*
X128069454Y-118379709D01*
X127979364Y-118370293D01*
X127917853Y-118365017D01*
X127856843Y-118361600D01*
X127825469Y-118360877D01*
X127761664Y-118360877D01*
X127761664Y-118053087D01*
X127761664Y-117745297D01*
X127615097Y-117745297D01*
X127468531Y-117745297D01*
X127468531Y-117100404D01*
X127468531Y-116455511D01*
X127607769Y-116455511D01*
X127747007Y-116455511D01*
X127747007Y-116162377D01*
X127747007Y-115869244D01*
X127893574Y-115869244D01*
X128040141Y-115869244D01*
X128040141Y-115715349D01*
X128040141Y-115561454D01*
X128201364Y-115561454D01*
X128362587Y-115561454D01*
X128362587Y-115411223D01*
X128362587Y-115260992D01*
X128523810Y-115260992D01*
X128685034Y-115260992D01*
X128685034Y-115579775D01*
G37*
G36*
X127761664Y-120024408D02*
G01*
X127761664Y-120178303D01*
X127915559Y-120178303D01*
X128069454Y-120178303D01*
X128069454Y-120339527D01*
X128069454Y-120500750D01*
X128215525Y-120500750D01*
X128361595Y-120500750D01*
X128365755Y-120658309D01*
X128369915Y-120815868D01*
X128516482Y-120817043D01*
X128663049Y-120818218D01*
X128666563Y-120912312D01*
X128669761Y-120973320D01*
X128674334Y-121032251D01*
X128677884Y-121065032D01*
X128685691Y-121123658D01*
X128835593Y-121123658D01*
X128985495Y-121123658D01*
X128989445Y-121442441D01*
X128993395Y-121761223D01*
X128839215Y-121761223D01*
X128685034Y-121761223D01*
X128685034Y-121600822D01*
X128685034Y-121440420D01*
X128527475Y-121448943D01*
X128462944Y-121452735D01*
X128410324Y-121456396D01*
X128375818Y-121459458D01*
X128365425Y-121461162D01*
X128364552Y-121476239D01*
X128364725Y-121516159D01*
X128365855Y-121576474D01*
X128367856Y-121652737D01*
X128370641Y-121740499D01*
X128371286Y-121759103D01*
X128381638Y-122053348D01*
X128522343Y-122057516D01*
X128663049Y-122061685D01*
X128667010Y-122365811D01*
X128670972Y-122669936D01*
X128831898Y-122669936D01*
X128992824Y-122669936D01*
X128992824Y-123115397D01*
X128992679Y-123242699D01*
X128992142Y-123343731D01*
X128991056Y-123421535D01*
X128989267Y-123479152D01*
X128986620Y-123519625D01*
X128982959Y-123545995D01*
X128978129Y-123561304D01*
X128971975Y-123568594D01*
X128969640Y-123569753D01*
X128945107Y-123573759D01*
X128899479Y-123576829D01*
X128840973Y-123578488D01*
X128815745Y-123578650D01*
X128685034Y-123578650D01*
X128685034Y-123424755D01*
X128685034Y-123270860D01*
X128517888Y-123270860D01*
X128350742Y-123270860D01*
X128353000Y-123113300D01*
X128355259Y-122955741D01*
X128212356Y-122951546D01*
X128069454Y-122947352D01*
X128069454Y-122500854D01*
X128069454Y-122054356D01*
X127922887Y-122054356D01*
X127776321Y-122054356D01*
X127774088Y-121742902D01*
X127773271Y-121649799D01*
X127772256Y-121566413D01*
X127771121Y-121497271D01*
X127769944Y-121446901D01*
X127768803Y-121419831D01*
X127768450Y-121416792D01*
X127767321Y-121398211D01*
X127766176Y-121355036D01*
X127765093Y-121291985D01*
X127764151Y-121213775D01*
X127763430Y-121125125D01*
X127763355Y-121112666D01*
X127761664Y-120823197D01*
X127600441Y-120823197D01*
X127439217Y-120823197D01*
X127439217Y-120346855D01*
X127439217Y-119870513D01*
X127600441Y-119870513D01*
X127761664Y-119870513D01*
X127761664Y-120024408D01*
G37*
G36*
X138413395Y-119870482D02*
G01*
X138563626Y-119870513D01*
X138563626Y-120346855D01*
X138563626Y-120823197D01*
X138409414Y-120823197D01*
X138255203Y-120823197D01*
X138259184Y-121431292D01*
X138260040Y-121585221D01*
X138260366Y-121712220D01*
X138260103Y-121814670D01*
X138259190Y-121894950D01*
X138257567Y-121955440D01*
X138255174Y-121998520D01*
X138251951Y-122026569D01*
X138247838Y-122041969D01*
X138243645Y-122046872D01*
X138221088Y-122050148D01*
X138176875Y-122052696D01*
X138118661Y-122054152D01*
X138086085Y-122054356D01*
X137948046Y-122054356D01*
X137948046Y-122501385D01*
X137948046Y-122948413D01*
X137801479Y-122948413D01*
X137654913Y-122948413D01*
X137654913Y-123109636D01*
X137654913Y-123270860D01*
X137494202Y-123270860D01*
X137333491Y-123270860D01*
X137329315Y-123421090D01*
X137325138Y-123571321D01*
X137185173Y-123575481D01*
X137123736Y-123576264D01*
X137073705Y-123574951D01*
X137042054Y-123571825D01*
X137034942Y-123569374D01*
X137032378Y-123552676D01*
X137030047Y-123510338D01*
X137028034Y-123446033D01*
X137026421Y-123363436D01*
X137025290Y-123266219D01*
X137024725Y-123158055D01*
X137024676Y-123114522D01*
X137024676Y-122669936D01*
X137185899Y-122669936D01*
X137347123Y-122669936D01*
X137347123Y-122362146D01*
X137347123Y-122054356D01*
X137501018Y-122054356D01*
X137654913Y-122054356D01*
X137654913Y-121746566D01*
X137654913Y-121438777D01*
X137495452Y-121438777D01*
X137335990Y-121438777D01*
X137343632Y-121600000D01*
X137351274Y-121761223D01*
X137187975Y-121761223D01*
X137024676Y-121761223D01*
X137024676Y-121453433D01*
X137024843Y-121361175D01*
X137025311Y-121278916D01*
X137026027Y-121211144D01*
X137026940Y-121162348D01*
X137027998Y-121137016D01*
X137028340Y-121134651D01*
X137043558Y-121130176D01*
X137081915Y-121126579D01*
X137137241Y-121124280D01*
X137189581Y-121123658D01*
X137347157Y-121123658D01*
X137347140Y-120966712D01*
X137347123Y-120809766D01*
X137493689Y-120818695D01*
X137640256Y-120827625D01*
X137640256Y-120664187D01*
X137640256Y-120500750D01*
X137794151Y-120500750D01*
X137948046Y-120500750D01*
X137948046Y-120339527D01*
X137948046Y-120178303D01*
X138110212Y-120178303D01*
X138272378Y-120178303D01*
X138267771Y-120024377D01*
X138263164Y-119870452D01*
X138413395Y-119870482D01*
G37*
D15*
%TO.C,SW1*%
X159508750Y-107950000D02*
X159508750Y-106450000D01*
X158258750Y-103950000D02*
X153758750Y-103950000D01*
X153758750Y-110450000D02*
X158258750Y-110450000D01*
X152508750Y-106450000D02*
X152508750Y-107950000D01*
%TO.C,SW2*%
X159508750Y-91850000D02*
X159508750Y-90350000D01*
X158258750Y-87850000D02*
X153758750Y-87850000D01*
X153758750Y-94350000D02*
X158258750Y-94350000D01*
X152508750Y-90350000D02*
X152508750Y-91850000D01*
%TO.C,SW3*%
X152508750Y-121650000D02*
X152508750Y-123150000D01*
X153758750Y-125650000D02*
X158258750Y-125650000D01*
X158258750Y-119150000D02*
X153758750Y-119150000D01*
X159508750Y-123150000D02*
X159508750Y-121650000D01*
%TO.C,R3*%
X167538750Y-121130000D02*
X174078750Y-121130000D01*
X174078750Y-123870000D01*
X167538750Y-123870000D01*
X167538750Y-121130000D01*
X174848750Y-122500000D02*
X174078750Y-122500000D01*
X166768750Y-122500000D02*
X167538750Y-122500000D01*
%TO.C,R2*%
X167538750Y-89430000D02*
X174078750Y-89430000D01*
X174078750Y-92170000D01*
X167538750Y-92170000D01*
X167538750Y-89430000D01*
X174848750Y-90800000D02*
X174078750Y-90800000D01*
X166768750Y-90800000D02*
X167538750Y-90800000D01*
D10*
%TO.C,U2*%
X129208750Y-86712500D02*
G75*
G02*
X129008750Y-86712500I-100000J0D01*
G01*
X129008750Y-86712500D02*
G75*
G02*
X129208750Y-86712500I100000J0D01*
G01*
D16*
X120108750Y-87212500D02*
X146108750Y-87212500D01*
X146108750Y-87212500D02*
X146108750Y-113212500D01*
X146108750Y-113212500D02*
X140108750Y-113212500D01*
X140108750Y-113212500D02*
X140108750Y-111212500D01*
X140108750Y-111212500D02*
X126108750Y-111212500D01*
X126108750Y-111212500D02*
X126108750Y-113212500D01*
X126108750Y-113212500D02*
X120108750Y-113212500D01*
X120108750Y-113212500D02*
X120108750Y-87212500D01*
D15*
%TO.C,U1*%
X174825310Y-78600000D02*
X174825310Y-50200001D01*
X126905310Y-78599999D02*
X174825310Y-78600000D01*
X120992190Y-73369880D02*
X120992190Y-55386680D01*
X126884990Y-73369880D02*
X120992190Y-73369880D01*
X120992190Y-55386680D02*
X126884990Y-55386680D01*
X174825310Y-50200001D02*
X126905310Y-50200000D01*
X126905310Y-50200000D02*
X126905310Y-78599999D01*
%TO.C,R1*%
X166768750Y-106650000D02*
X167538750Y-106650000D01*
X174848750Y-106650000D02*
X174078750Y-106650000D01*
X167538750Y-105280000D02*
X174078750Y-105280000D01*
X174078750Y-108020000D01*
X167538750Y-108020000D01*
X167538750Y-105280000D01*
%TD*%
M02*
