M48
; DRILL file {KiCad 9.0.2} date 2025-06-18T14:23:27+0700
; FORMAT={-:-/ absolute / metric / decimal}
; #@! TF.CreationDate,2025-06-18T14:23:27+07:00
; #@! TF.GenerationSoftware,Kicad,Pcbnew,9.0.2
; #@! TF.FileFunction,Plated,1,2,PTH
FMAT,2
METRIC
; #@! TA.AperFunction,Plated,PTH,ViaDrill
T1C0.300
; #@! TA.AperFunction,Plated,PTH,ComponentDrill
T2C0.800
; #@! TA.AperFunction,Plated,PTH,ComponentDrill
T3C1.000
; #@! TA.AperFunction,Plated,PTH,ComponentDrill
T4C1.100
; #@! TA.AperFunction,Plated,PTH,ComponentDrill
T5C2.000
%
G90
G05
T1
X127.909Y-47.0
X128.3Y-35.8
X130.25Y-91.67
X143.109Y-47.1
X143.5Y-37.0
X161.0Y-81.6
X161.3Y-91.2
X166.65Y-94.37
X166.65Y-109.57
X166.65Y-125.57
T2
X128.005Y-51.7
X128.005Y-77.1
X130.545Y-51.7
X130.545Y-77.1
X133.085Y-51.7
X133.085Y-77.1
X135.625Y-51.7
X135.625Y-77.1
X138.165Y-51.7
X138.165Y-77.1
X140.705Y-51.7
X140.705Y-77.1
X143.245Y-51.7
X143.245Y-77.1
X145.785Y-51.7
X145.785Y-77.1
X148.325Y-51.7
X148.325Y-77.1
X150.865Y-51.7
X150.865Y-77.1
X153.405Y-51.7
X153.405Y-77.1
X155.945Y-51.7
X155.945Y-77.1
X158.485Y-51.7
X158.485Y-77.1
X161.025Y-51.7
X161.025Y-77.1
X163.565Y-51.7
X163.565Y-77.1
X166.105Y-51.7
X166.105Y-77.1
X166.67Y-99.77
X166.67Y-115.62
X166.67Y-131.47
X168.645Y-51.7
X168.645Y-77.1
X171.183Y-51.704
X171.185Y-77.1
X173.723Y-51.704
X173.725Y-77.1
X176.83Y-99.77
X176.83Y-115.62
X176.83Y-131.47
T3
X128.27Y-41.91
X128.27Y-86.36
X130.24Y-97.682
X130.81Y-41.91
X130.81Y-86.36
X132.78Y-97.682
X133.35Y-41.91
X133.35Y-86.36
X135.32Y-97.682
X135.89Y-41.91
X135.89Y-86.36
X137.86Y-97.682
X138.43Y-41.91
X138.43Y-86.36
X140.97Y-41.91
X140.97Y-86.36
X143.51Y-41.91
X143.51Y-86.36
X146.05Y-41.91
X146.05Y-86.36
X148.59Y-41.91
X148.59Y-86.36
X151.13Y-41.91
X151.13Y-86.36
X153.67Y-41.91
X153.67Y-86.36
X156.21Y-41.91
X156.21Y-86.36
X158.75Y-41.91
X158.75Y-86.36
X161.29Y-41.91
X161.29Y-86.36
X163.83Y-41.91
X163.83Y-86.36
X166.37Y-41.91
X166.37Y-86.36
X168.91Y-41.91
X168.91Y-86.36
X171.45Y-41.91
X171.45Y-86.36
X173.99Y-41.91
X173.99Y-86.36
T4
X153.7Y-97.82
X153.7Y-102.32
X153.7Y-113.92
X153.7Y-118.42
X153.7Y-129.12
X153.7Y-133.62
X160.2Y-97.82
X160.2Y-102.32
X160.2Y-113.92
X160.2Y-118.42
X160.2Y-129.12
X160.2Y-133.62
T5
X123.05Y-98.182
X123.05Y-120.182
X145.05Y-98.182
X145.05Y-120.182
M30
