M48
; DRILL file {KiCad 9.0.2} date 2025-06-10T13:12:55+0700
; FORMAT={-:-/ absolute / metric / decimal}
; #@! TF.CreationDate,2025-06-10T13:12:55+07:00
; #@! TF.GenerationSoftware,Kicad,Pcbnew,9.0.2
; #@! TF.FileFunction,Plated,1,2,PTH
FMAT,2
METRIC
; #@! TA.AperFunction,Plated,PTH,ViaDrill
T1C0.300
; #@! TA.AperFunction,Plated,PTH,ComponentDrill
T2C0.800
; #@! TA.AperFunction,Plated,PTH,ComponentDrill
T3C1.000
; #@! TA.AperFunction,Plated,PTH,ComponentDrill
T4C1.100
; #@! TA.AperFunction,Plated,PTH,ComponentDrill
T5C2.000
%
G90
G05
T1
X151.9Y-118.8
X155.7Y-98.4
X209.8Y-93.9
T2
X160.24Y-69.3
X160.24Y-94.7
X162.78Y-69.3
X162.78Y-94.7
X165.32Y-69.3
X165.32Y-94.7
X167.86Y-69.3
X167.86Y-94.7
X170.4Y-69.3
X170.4Y-94.7
X172.94Y-69.3
X172.94Y-94.7
X175.48Y-69.3
X175.48Y-94.7
X178.02Y-69.3
X178.02Y-94.7
X180.56Y-69.3
X180.56Y-94.7
X183.1Y-69.3
X183.1Y-94.7
X185.64Y-69.3
X185.64Y-94.7
X188.18Y-69.3
X188.18Y-94.7
X190.72Y-69.3
X190.72Y-94.7
X193.26Y-69.3
X193.26Y-94.7
X195.8Y-69.3
X195.8Y-94.7
X198.34Y-69.3
X198.34Y-94.7
X200.88Y-69.3
X200.88Y-94.7
X203.417Y-69.304
X203.42Y-94.7
X205.957Y-69.304
X205.96Y-94.7
T3
X132.69Y-69.7
X135.23Y-69.7
X137.77Y-69.7
X140.31Y-69.7
T4
X124.15Y-102.95
X124.15Y-107.45
X130.65Y-102.95
X130.65Y-107.45
X133.65Y-114.85
X133.65Y-119.35
X140.15Y-114.85
X140.15Y-119.35
X142.75Y-102.85
X142.75Y-107.35
X149.25Y-102.85
X149.25Y-107.35
T5
X125.5Y-70.2
X125.5Y-92.2
X147.5Y-70.2
X147.5Y-92.2
M30
