M48
; DRILL file {KiCad 9.0.2} date 2025-06-14T10:10:50+0700
; FORMAT={-:-/ absolute / metric / decimal}
; #@! TF.CreationDate,2025-06-14T10:10:50+07:00
; #@! TF.GenerationSoftware,Kicad,Pcbnew,9.0.2
; #@! TF.FileFunction,Plated,1,2,PTH
FMAT,2
METRIC
; #@! TA.AperFunction,Plated,PTH,ViaDrill
T1C0.300
; #@! TA.AperFunction,Plated,PTH,ComponentDrill
T2C0.800
; #@! TA.AperFunction,Plated,PTH,ComponentDrill
T3C1.000
; #@! TA.AperFunction,Plated,PTH,ComponentDrill
T4C1.100
; #@! TA.AperFunction,Plated,PTH,ComponentDrill
T5C2.000
%
G90
G05
T1
X127.909Y-47.0
X129.309Y-82.7
X143.109Y-47.1
X161.009Y-83.1
X165.709Y-85.4
X165.709Y-100.6
X165.709Y-116.6
T2
X128.005Y-51.7
X128.005Y-77.1
X130.545Y-51.7
X130.545Y-77.1
X133.085Y-51.7
X133.085Y-77.1
X135.625Y-51.7
X135.625Y-77.1
X138.165Y-51.7
X138.165Y-77.1
X140.705Y-51.7
X140.705Y-77.1
X143.245Y-51.7
X143.245Y-77.1
X145.785Y-51.7
X145.785Y-77.1
X148.325Y-51.7
X148.325Y-77.1
X150.865Y-51.7
X150.865Y-77.1
X153.405Y-51.7
X153.405Y-77.1
X155.945Y-51.7
X155.945Y-77.1
X158.485Y-51.7
X158.485Y-77.1
X161.025Y-51.7
X161.025Y-77.1
X163.565Y-51.7
X163.565Y-77.1
X165.729Y-90.8
X165.729Y-106.65
X165.729Y-122.5
X166.105Y-51.7
X166.105Y-77.1
X168.645Y-51.7
X168.645Y-77.1
X171.183Y-51.704
X171.185Y-77.1
X173.723Y-51.704
X173.725Y-77.1
X175.889Y-90.8
X175.889Y-106.65
X175.889Y-122.5
T3
X129.299Y-88.712
X131.839Y-88.712
X134.379Y-88.712
X136.919Y-88.712
T4
X152.759Y-88.85
X152.759Y-93.35
X152.759Y-104.95
X152.759Y-109.45
X152.759Y-120.15
X152.759Y-124.65
X159.259Y-88.85
X159.259Y-93.35
X159.259Y-104.95
X159.259Y-109.45
X159.259Y-120.15
X159.259Y-124.65
T5
X122.109Y-89.212
X122.109Y-111.212
X144.109Y-89.212
X144.109Y-111.212
M30
